M48
METRIC,LZ,000.000
;FILE_FORMAT=3:3
;TYPE=PLATED
;Layer: PTH_Through
;EasyEDA v6.5.5, 2022-06-01 21:54:51
;8c1e14e235494d98a3ccc41632180272,c96cdaf6a0e44fa3bb1e134f2b5c86cb,10
;Gerber Generator version 0.2
;Holesize 1 = 0.915 mm
T01C0.915
;Holesize 2 = 2.000 mm
T02C2.000
;Holesize 3 = 2.032 mm
T03C2.032
;Holesize 4 = 3.000 mm
T04C3.000
;Holesize 5 = 4.000 mm
T05C4.000
%
G05
G90
T01
X035370Y-024321
X035370Y-021781
X035370Y-019241
X035370Y-016701
X035370Y-014161
T02
X036744Y-033147
X041744Y-033147
X036744Y-041910
X041744Y-041910
X048501Y-033000
X053501Y-033000
X048501Y-042000
X053501Y-042000
T03
X052261Y-024194
X036259Y-010732
X017272Y-035052
X017272Y-024892
T04
X006000Y-007000
X029000Y-047000
X055000Y-004000
T05
X020276Y-006604
X027476Y-006604
M30
