G04 Layer: BottomLayer*
G04 EasyEDA v6.5.5, 2022-06-01 21:54:51*
G04 8c1e14e235494d98a3ccc41632180272,c96cdaf6a0e44fa3bb1e134f2b5c86cb,10*
G04 Gerber Generator version 0.2*
G04 Scale: 100 percent, Rotated: No, Reflected: No *
G04 Dimensions in millimeters *
G04 leading zeros omitted , absolute positions ,4 integer and 5 decimal *
%FSLAX45Y45*%
%MOMM*%

%ADD12C,3.0000*%
%ADD13C,1.4986*%
%ADD14R,1.4986X1.4986*%
%ADD15C,2.5400*%
%ADD16C,5.4991*%
%ADD18C,3.5560*%
%ADD19C,4.0000*%
%ADD20C,2.0000*%

%LPD*%
G36*
X60706Y-5029504D02*
G01*
X56794Y-5028692D01*
X53492Y-5026507D01*
X51308Y-5023205D01*
X50546Y-5019344D01*
X50546Y-60706D01*
X51308Y-56794D01*
X53492Y-53492D01*
X56794Y-51308D01*
X60706Y-50546D01*
X5781344Y-50546D01*
X5785205Y-51308D01*
X5788507Y-53492D01*
X5790692Y-56794D01*
X5791504Y-60706D01*
X5791504Y-5019344D01*
X5790692Y-5023205D01*
X5788507Y-5026507D01*
X5785205Y-5028692D01*
X5781344Y-5029504D01*
G37*

%LPC*%
G36*
X2900019Y-4950510D02*
G01*
X2921812Y-4949545D01*
X2943504Y-4946700D01*
X2964840Y-4941976D01*
X2985668Y-4935423D01*
X3005886Y-4927041D01*
X3025241Y-4916932D01*
X3043682Y-4905197D01*
X3061004Y-4891887D01*
X3077159Y-4877155D01*
X3091891Y-4861001D01*
X3105200Y-4843678D01*
X3116935Y-4825238D01*
X3127044Y-4805883D01*
X3135426Y-4785664D01*
X3141980Y-4764836D01*
X3146704Y-4743500D01*
X3149549Y-4721809D01*
X3150514Y-4700016D01*
X3149549Y-4678172D01*
X3146704Y-4656480D01*
X3141980Y-4635144D01*
X3135426Y-4614316D01*
X3127044Y-4594148D01*
X3116935Y-4574743D01*
X3105200Y-4556302D01*
X3091891Y-4538980D01*
X3077159Y-4522876D01*
X3061004Y-4508093D01*
X3043682Y-4494784D01*
X3025241Y-4483049D01*
X3005886Y-4472940D01*
X2985668Y-4464608D01*
X2964840Y-4458004D01*
X2943504Y-4453280D01*
X2921812Y-4450435D01*
X2900019Y-4449470D01*
X2878175Y-4450435D01*
X2856484Y-4453280D01*
X2835148Y-4458004D01*
X2814320Y-4464608D01*
X2794152Y-4472940D01*
X2774746Y-4483049D01*
X2756306Y-4494784D01*
X2738983Y-4508093D01*
X2722880Y-4522876D01*
X2708097Y-4538980D01*
X2694787Y-4556302D01*
X2683052Y-4574743D01*
X2672943Y-4594148D01*
X2664612Y-4614316D01*
X2658008Y-4635144D01*
X2653284Y-4656480D01*
X2650439Y-4678172D01*
X2649474Y-4700016D01*
X2650439Y-4721809D01*
X2653284Y-4743500D01*
X2658008Y-4764836D01*
X2664612Y-4785664D01*
X2672943Y-4805883D01*
X2683052Y-4825238D01*
X2694787Y-4843678D01*
X2708097Y-4861001D01*
X2722880Y-4877155D01*
X2738983Y-4891887D01*
X2756306Y-4905197D01*
X2774746Y-4916932D01*
X2794152Y-4927041D01*
X2814320Y-4935423D01*
X2835148Y-4941976D01*
X2856484Y-4946700D01*
X2878175Y-4949545D01*
G37*
G36*
X4850079Y-4400499D02*
G01*
X4869738Y-4399534D01*
X4889195Y-4396638D01*
X4908296Y-4391863D01*
X4926787Y-4385208D01*
X4944567Y-4376826D01*
X4961483Y-4366717D01*
X4977282Y-4354982D01*
X4991862Y-4341774D01*
X5005070Y-4327194D01*
X5016804Y-4311396D01*
X5026914Y-4294530D01*
X5035296Y-4276699D01*
X5041950Y-4258208D01*
X5046726Y-4239107D01*
X5049621Y-4219651D01*
X5050586Y-4199991D01*
X5049621Y-4180332D01*
X5046726Y-4160875D01*
X5041950Y-4141774D01*
X5035296Y-4123232D01*
X5026914Y-4105452D01*
X5016804Y-4088587D01*
X5005070Y-4072788D01*
X4991862Y-4058208D01*
X4977282Y-4045000D01*
X4961483Y-4033265D01*
X4944567Y-4023156D01*
X4926787Y-4014724D01*
X4908296Y-4008120D01*
X4889195Y-4003344D01*
X4869738Y-4000449D01*
X4850079Y-3999484D01*
X4830419Y-4000449D01*
X4810963Y-4003344D01*
X4791862Y-4008120D01*
X4773320Y-4014724D01*
X4755540Y-4023156D01*
X4738674Y-4033265D01*
X4722876Y-4045000D01*
X4708296Y-4058208D01*
X4695088Y-4072788D01*
X4683353Y-4088587D01*
X4673244Y-4105452D01*
X4664811Y-4123232D01*
X4658207Y-4141774D01*
X4653432Y-4160875D01*
X4650536Y-4180332D01*
X4649571Y-4199991D01*
X4650536Y-4219651D01*
X4653432Y-4239107D01*
X4658207Y-4258208D01*
X4664811Y-4276699D01*
X4673244Y-4294530D01*
X4683353Y-4311396D01*
X4695088Y-4327194D01*
X4708296Y-4341774D01*
X4722876Y-4354982D01*
X4738674Y-4366717D01*
X4755540Y-4376826D01*
X4773320Y-4385208D01*
X4791862Y-4391863D01*
X4810963Y-4396638D01*
X4830419Y-4399534D01*
G37*
G36*
X3674364Y-4391507D02*
G01*
X3694023Y-4390542D01*
X3713479Y-4387646D01*
X3732580Y-4382871D01*
X3751122Y-4376216D01*
X3768902Y-4367834D01*
X3785768Y-4357725D01*
X3801567Y-4345990D01*
X3816146Y-4332782D01*
X3829354Y-4318203D01*
X3841089Y-4302404D01*
X3851198Y-4285488D01*
X3859631Y-4267708D01*
X3866235Y-4249216D01*
X3871010Y-4230116D01*
X3873906Y-4210659D01*
X3874871Y-4191000D01*
X3873906Y-4171340D01*
X3871010Y-4151884D01*
X3866235Y-4132783D01*
X3859631Y-4114241D01*
X3851198Y-4096461D01*
X3841089Y-4079595D01*
X3829354Y-4063796D01*
X3816146Y-4049217D01*
X3801567Y-4036009D01*
X3785768Y-4024274D01*
X3768902Y-4014165D01*
X3751122Y-4005732D01*
X3732580Y-3999128D01*
X3713479Y-3994353D01*
X3694023Y-3991457D01*
X3674364Y-3990492D01*
X3654704Y-3991457D01*
X3635248Y-3994353D01*
X3616147Y-3999128D01*
X3597656Y-4005732D01*
X3579825Y-4014165D01*
X3562959Y-4024274D01*
X3547160Y-4036009D01*
X3532581Y-4049217D01*
X3519373Y-4063796D01*
X3507638Y-4079595D01*
X3497529Y-4096461D01*
X3489096Y-4114241D01*
X3482492Y-4132783D01*
X3477717Y-4151884D01*
X3474821Y-4171340D01*
X3473856Y-4191000D01*
X3474821Y-4210659D01*
X3477717Y-4230116D01*
X3482492Y-4249216D01*
X3489096Y-4267708D01*
X3497529Y-4285488D01*
X3507638Y-4302404D01*
X3519373Y-4318203D01*
X3532581Y-4332782D01*
X3547160Y-4345990D01*
X3562959Y-4357725D01*
X3579825Y-4367834D01*
X3597656Y-4376216D01*
X3616147Y-4382871D01*
X3635248Y-4387646D01*
X3654704Y-4390542D01*
G37*
G36*
X1549857Y-3733546D02*
G01*
X1904542Y-3733546D01*
X1913788Y-3732733D01*
X1922272Y-3730447D01*
X1930247Y-3726738D01*
X1937461Y-3721658D01*
X1943658Y-3715461D01*
X1948738Y-3708247D01*
X1952447Y-3700272D01*
X1954733Y-3691788D01*
X1955495Y-3682542D01*
X1955495Y-3327857D01*
X1954733Y-3318611D01*
X1952447Y-3310128D01*
X1948738Y-3302152D01*
X1943658Y-3294938D01*
X1937461Y-3288741D01*
X1930247Y-3283661D01*
X1922272Y-3279952D01*
X1913788Y-3277666D01*
X1904542Y-3276904D01*
X1549857Y-3276904D01*
X1540611Y-3277666D01*
X1532128Y-3279952D01*
X1524152Y-3283661D01*
X1516938Y-3288741D01*
X1510741Y-3294938D01*
X1505661Y-3302152D01*
X1501952Y-3310128D01*
X1499666Y-3318611D01*
X1498904Y-3327857D01*
X1498904Y-3682542D01*
X1499666Y-3691788D01*
X1501952Y-3700272D01*
X1505661Y-3708247D01*
X1510741Y-3715461D01*
X1516938Y-3721658D01*
X1524152Y-3726738D01*
X1532128Y-3730447D01*
X1540611Y-3732733D01*
G37*
G36*
X3674364Y-3515207D02*
G01*
X3694023Y-3514242D01*
X3713479Y-3511346D01*
X3732580Y-3506571D01*
X3751122Y-3499916D01*
X3768902Y-3491534D01*
X3785768Y-3481425D01*
X3801567Y-3469690D01*
X3816146Y-3456482D01*
X3829354Y-3441903D01*
X3841089Y-3426104D01*
X3851198Y-3409187D01*
X3859631Y-3391408D01*
X3866235Y-3372916D01*
X3871010Y-3353815D01*
X3873906Y-3334359D01*
X3874871Y-3314700D01*
X3873906Y-3295040D01*
X3871010Y-3275584D01*
X3866235Y-3256483D01*
X3859631Y-3237941D01*
X3851198Y-3220161D01*
X3841089Y-3203295D01*
X3829354Y-3187496D01*
X3816146Y-3172917D01*
X3801567Y-3159709D01*
X3785768Y-3147974D01*
X3768902Y-3137865D01*
X3751122Y-3129432D01*
X3732580Y-3122828D01*
X3713479Y-3118053D01*
X3694023Y-3115157D01*
X3674364Y-3114192D01*
X3654704Y-3115157D01*
X3635248Y-3118053D01*
X3616147Y-3122828D01*
X3597656Y-3129432D01*
X3579825Y-3137865D01*
X3562959Y-3147974D01*
X3547160Y-3159709D01*
X3532581Y-3172917D01*
X3519373Y-3187496D01*
X3507638Y-3203295D01*
X3497529Y-3220161D01*
X3489096Y-3237941D01*
X3482492Y-3256483D01*
X3477717Y-3275584D01*
X3474821Y-3295040D01*
X3473856Y-3314700D01*
X3474821Y-3334359D01*
X3477717Y-3353815D01*
X3482492Y-3372916D01*
X3489096Y-3391408D01*
X3497529Y-3409187D01*
X3507638Y-3426104D01*
X3519373Y-3441903D01*
X3532581Y-3456482D01*
X3547160Y-3469690D01*
X3562959Y-3481425D01*
X3579825Y-3491534D01*
X3597656Y-3499916D01*
X3616147Y-3506571D01*
X3635248Y-3511346D01*
X3654704Y-3514242D01*
G37*
G36*
X4850079Y-3500475D02*
G01*
X4869738Y-3499510D01*
X4889195Y-3496665D01*
X4908296Y-3491839D01*
X4926787Y-3485235D01*
X4944567Y-3476802D01*
X4961483Y-3466693D01*
X4977282Y-3454958D01*
X4991862Y-3441750D01*
X5005070Y-3427171D01*
X5016804Y-3411372D01*
X5026914Y-3394506D01*
X5035296Y-3376726D01*
X5041950Y-3358184D01*
X5046726Y-3339084D01*
X5049621Y-3319627D01*
X5050586Y-3299968D01*
X5049621Y-3280359D01*
X5046726Y-3260852D01*
X5041950Y-3241802D01*
X5035296Y-3223260D01*
X5026914Y-3205480D01*
X5016804Y-3188614D01*
X5005070Y-3172764D01*
X4991862Y-3158185D01*
X4977282Y-3144977D01*
X4961483Y-3133293D01*
X4944567Y-3123133D01*
X4926787Y-3114751D01*
X4908296Y-3108096D01*
X4889195Y-3103321D01*
X4869738Y-3100425D01*
X4850079Y-3099460D01*
X4830419Y-3100425D01*
X4810963Y-3103321D01*
X4791862Y-3108096D01*
X4773320Y-3114751D01*
X4755540Y-3123133D01*
X4738674Y-3133293D01*
X4722876Y-3144977D01*
X4708296Y-3158185D01*
X4695088Y-3172764D01*
X4683353Y-3188614D01*
X4673244Y-3205480D01*
X4664811Y-3223260D01*
X4658207Y-3241802D01*
X4653432Y-3260852D01*
X4650536Y-3280359D01*
X4649571Y-3299968D01*
X4650536Y-3319627D01*
X4653432Y-3339084D01*
X4658207Y-3358184D01*
X4664811Y-3376726D01*
X4673244Y-3394506D01*
X4683353Y-3411372D01*
X4695088Y-3427171D01*
X4708296Y-3441750D01*
X4722876Y-3454958D01*
X4738674Y-3466693D01*
X4755540Y-3476802D01*
X4773320Y-3485235D01*
X4791862Y-3491839D01*
X4810963Y-3496665D01*
X4830419Y-3499510D01*
G37*
G36*
X5230622Y-2596794D02*
G01*
X5248859Y-2595372D01*
X5266842Y-2592120D01*
X5284368Y-2586990D01*
X5301284Y-2580132D01*
X5317439Y-2571546D01*
X5332577Y-2561336D01*
X5346649Y-2549601D01*
X5359400Y-2536545D01*
X5370728Y-2522220D01*
X5380532Y-2506776D01*
X5388711Y-2490419D01*
X5395163Y-2473350D01*
X5399786Y-2455672D01*
X5402630Y-2437587D01*
X5403545Y-2419350D01*
X5402630Y-2401112D01*
X5399786Y-2383028D01*
X5395163Y-2365349D01*
X5388711Y-2348280D01*
X5380532Y-2331923D01*
X5370728Y-2316480D01*
X5359400Y-2302154D01*
X5346649Y-2289098D01*
X5332577Y-2277364D01*
X5317439Y-2267153D01*
X5301284Y-2258568D01*
X5284368Y-2251710D01*
X5266842Y-2246579D01*
X5248859Y-2243328D01*
X5230622Y-2241905D01*
X5212334Y-2242362D01*
X5194249Y-2244699D01*
X5176418Y-2248916D01*
X5159197Y-2254910D01*
X5142636Y-2262682D01*
X5126939Y-2272080D01*
X5112359Y-2283053D01*
X5098948Y-2295448D01*
X5086858Y-2309164D01*
X5076291Y-2324100D01*
X5067249Y-2340000D01*
X5059934Y-2356713D01*
X5054396Y-2374138D01*
X5050637Y-2392019D01*
X5048758Y-2410206D01*
X5048758Y-2428494D01*
X5050637Y-2446680D01*
X5054396Y-2464562D01*
X5059934Y-2481986D01*
X5067249Y-2498699D01*
X5076291Y-2514600D01*
X5086858Y-2529535D01*
X5098948Y-2543251D01*
X5112359Y-2555646D01*
X5126939Y-2566619D01*
X5142636Y-2576017D01*
X5159197Y-2583789D01*
X5176418Y-2589784D01*
X5194249Y-2594000D01*
X5212334Y-2596337D01*
G37*
G36*
X3536950Y-2557475D02*
G01*
X3552088Y-2556560D01*
X3566972Y-2553817D01*
X3581450Y-2549347D01*
X3595217Y-2543098D01*
X3608222Y-2535275D01*
X3620109Y-2525928D01*
X3630828Y-2515209D01*
X3640175Y-2503322D01*
X3647998Y-2490317D01*
X3654247Y-2476550D01*
X3658717Y-2462072D01*
X3661460Y-2447188D01*
X3662375Y-2432050D01*
X3661460Y-2416911D01*
X3658717Y-2402027D01*
X3654247Y-2387549D01*
X3647998Y-2373782D01*
X3640175Y-2360777D01*
X3630828Y-2348890D01*
X3620109Y-2338171D01*
X3608222Y-2328824D01*
X3595217Y-2321001D01*
X3581450Y-2314752D01*
X3566972Y-2310282D01*
X3555136Y-2308098D01*
X3551174Y-2306472D01*
X3548227Y-2303322D01*
X3546856Y-2299258D01*
X3547262Y-2295042D01*
X3549396Y-2291283D01*
X3552850Y-2288794D01*
X3560572Y-2285390D01*
X3562858Y-2284069D01*
X3568090Y-2280412D01*
X3570122Y-2278634D01*
X3574592Y-2274062D01*
X3576269Y-2271979D01*
X3580282Y-2265781D01*
X3583584Y-2258872D01*
X3586378Y-2248509D01*
X3587750Y-2244852D01*
X3590391Y-2242007D01*
X3593947Y-2240330D01*
X3603498Y-2237943D01*
X3613505Y-2233168D01*
X3618128Y-2230069D01*
X3620262Y-2228392D01*
X3624834Y-2223922D01*
X3626612Y-2221890D01*
X3630269Y-2216658D01*
X3631641Y-2214321D01*
X3634333Y-2208530D01*
X3635197Y-2205939D01*
X3636772Y-2199792D01*
X3637178Y-2197150D01*
X3637584Y-2189632D01*
X3637178Y-2183384D01*
X3636772Y-2180691D01*
X3635197Y-2174544D01*
X3634333Y-2171954D01*
X3631641Y-2166162D01*
X3630269Y-2163826D01*
X3626612Y-2158593D01*
X3624834Y-2156561D01*
X3620262Y-2152091D01*
X3618179Y-2150414D01*
X3611981Y-2146401D01*
X3605072Y-2143099D01*
X3594709Y-2140305D01*
X3591051Y-2138934D01*
X3588207Y-2136292D01*
X3586530Y-2132736D01*
X3584143Y-2123186D01*
X3579368Y-2113178D01*
X3576269Y-2108555D01*
X3574592Y-2106422D01*
X3570122Y-2101850D01*
X3568090Y-2100072D01*
X3562858Y-2096414D01*
X3560521Y-2095042D01*
X3554729Y-2092350D01*
X3552139Y-2091486D01*
X3545992Y-2089912D01*
X3543350Y-2089505D01*
X3535832Y-2089099D01*
X3529584Y-2089505D01*
X3526891Y-2089912D01*
X3520744Y-2091486D01*
X3518154Y-2092350D01*
X3512362Y-2095042D01*
X3510026Y-2096414D01*
X3504793Y-2100072D01*
X3502761Y-2101850D01*
X3498291Y-2106422D01*
X3496614Y-2108504D01*
X3492601Y-2114702D01*
X3489299Y-2121611D01*
X3486505Y-2131974D01*
X3485134Y-2135632D01*
X3482492Y-2138476D01*
X3478936Y-2140153D01*
X3469386Y-2142540D01*
X3459378Y-2147316D01*
X3454755Y-2150414D01*
X3452622Y-2152091D01*
X3448050Y-2156561D01*
X3446272Y-2158593D01*
X3442614Y-2163826D01*
X3441242Y-2166162D01*
X3438550Y-2171954D01*
X3437686Y-2174544D01*
X3436112Y-2180691D01*
X3435705Y-2183333D01*
X3435299Y-2190851D01*
X3435705Y-2197100D01*
X3436112Y-2199792D01*
X3437686Y-2205939D01*
X3438550Y-2208530D01*
X3441242Y-2214321D01*
X3442614Y-2216658D01*
X3446272Y-2221890D01*
X3448050Y-2223922D01*
X3452622Y-2228392D01*
X3454704Y-2230069D01*
X3460902Y-2234082D01*
X3467811Y-2237384D01*
X3478174Y-2240178D01*
X3481832Y-2241550D01*
X3484676Y-2244191D01*
X3486353Y-2247747D01*
X3488740Y-2257298D01*
X3493515Y-2267305D01*
X3496614Y-2271928D01*
X3498291Y-2274062D01*
X3502761Y-2278634D01*
X3504793Y-2280412D01*
X3510026Y-2284069D01*
X3512362Y-2285441D01*
X3519678Y-2288641D01*
X3523386Y-2290978D01*
X3525774Y-2294636D01*
X3526383Y-2299004D01*
X3525113Y-2303221D01*
X3522167Y-2306523D01*
X3518103Y-2308199D01*
X3506927Y-2310282D01*
X3492449Y-2314752D01*
X3478682Y-2321001D01*
X3465677Y-2328824D01*
X3453790Y-2338171D01*
X3443071Y-2348890D01*
X3433724Y-2360777D01*
X3425901Y-2373782D01*
X3419652Y-2387549D01*
X3415182Y-2402027D01*
X3412439Y-2416911D01*
X3411524Y-2432050D01*
X3412439Y-2447188D01*
X3415182Y-2462072D01*
X3419652Y-2476550D01*
X3425901Y-2490317D01*
X3433724Y-2503322D01*
X3443071Y-2515209D01*
X3453790Y-2525928D01*
X3465677Y-2535275D01*
X3478682Y-2543098D01*
X3492449Y-2549347D01*
X3506927Y-2553817D01*
X3521811Y-2556560D01*
G37*
G36*
X3537051Y-2037384D02*
G01*
X3543300Y-2036978D01*
X3545992Y-2036572D01*
X3552139Y-2034997D01*
X3554729Y-2034133D01*
X3560521Y-2031441D01*
X3562858Y-2030069D01*
X3568090Y-2026412D01*
X3570122Y-2024634D01*
X3574592Y-2020062D01*
X3576269Y-2017979D01*
X3580282Y-2011781D01*
X3583584Y-2004872D01*
X3586378Y-1994509D01*
X3587750Y-1990852D01*
X3590391Y-1988007D01*
X3593947Y-1986330D01*
X3603498Y-1983943D01*
X3613505Y-1979168D01*
X3618128Y-1976069D01*
X3620262Y-1974392D01*
X3624834Y-1969922D01*
X3626612Y-1967890D01*
X3630269Y-1962657D01*
X3631641Y-1960321D01*
X3634333Y-1954530D01*
X3635197Y-1951939D01*
X3636772Y-1945792D01*
X3637178Y-1943150D01*
X3637584Y-1935632D01*
X3637178Y-1929384D01*
X3636772Y-1926691D01*
X3635197Y-1920544D01*
X3634333Y-1917954D01*
X3631641Y-1912162D01*
X3630269Y-1909825D01*
X3626612Y-1904593D01*
X3624834Y-1902561D01*
X3620262Y-1898091D01*
X3618179Y-1896414D01*
X3611981Y-1892401D01*
X3605072Y-1889099D01*
X3594709Y-1886305D01*
X3591051Y-1884934D01*
X3588207Y-1882292D01*
X3586530Y-1878736D01*
X3584143Y-1869186D01*
X3579368Y-1859178D01*
X3576269Y-1854555D01*
X3574592Y-1852422D01*
X3570122Y-1847850D01*
X3568090Y-1846072D01*
X3562858Y-1842414D01*
X3560521Y-1841042D01*
X3554577Y-1838299D01*
X3551123Y-1835708D01*
X3549091Y-1832000D01*
X3548735Y-1827733D01*
X3550158Y-1823720D01*
X3553155Y-1820621D01*
X3557117Y-1819046D01*
X3570427Y-1816760D01*
X3586683Y-1812086D01*
X3602228Y-1805635D01*
X3617010Y-1797507D01*
X3630777Y-1787702D01*
X3643376Y-1776475D01*
X3654602Y-1763877D01*
X3664407Y-1750110D01*
X3672535Y-1735328D01*
X3678986Y-1719783D01*
X3683660Y-1703527D01*
X3686505Y-1686915D01*
X3687470Y-1670050D01*
X3686505Y-1653184D01*
X3683660Y-1636572D01*
X3678986Y-1620316D01*
X3672535Y-1604772D01*
X3664407Y-1589989D01*
X3654602Y-1576222D01*
X3643376Y-1563624D01*
X3630777Y-1552397D01*
X3617010Y-1542592D01*
X3607612Y-1537411D01*
X3604412Y-1534668D01*
X3602634Y-1530807D01*
X3602583Y-1526590D01*
X3604209Y-1522730D01*
X3608222Y-1519275D01*
X3620109Y-1509928D01*
X3630828Y-1499209D01*
X3640175Y-1487322D01*
X3647998Y-1474317D01*
X3654247Y-1460550D01*
X3658717Y-1446072D01*
X3661460Y-1431188D01*
X3662375Y-1416050D01*
X3661460Y-1400911D01*
X3658717Y-1386027D01*
X3654247Y-1371549D01*
X3647998Y-1357782D01*
X3640175Y-1344777D01*
X3630828Y-1332890D01*
X3620109Y-1322171D01*
X3608222Y-1312824D01*
X3595217Y-1305001D01*
X3581450Y-1298752D01*
X3566972Y-1294282D01*
X3552088Y-1291539D01*
X3536950Y-1290624D01*
X3521811Y-1291539D01*
X3506927Y-1294282D01*
X3492449Y-1298752D01*
X3478682Y-1305001D01*
X3465677Y-1312824D01*
X3453790Y-1322171D01*
X3443071Y-1332890D01*
X3433724Y-1344777D01*
X3425901Y-1357782D01*
X3419652Y-1371549D01*
X3415182Y-1386027D01*
X3412439Y-1400911D01*
X3411524Y-1416050D01*
X3412439Y-1431188D01*
X3415182Y-1446072D01*
X3419652Y-1460550D01*
X3425901Y-1474317D01*
X3433724Y-1487322D01*
X3443071Y-1499209D01*
X3446018Y-1502206D01*
X3448202Y-1505458D01*
X3449015Y-1509369D01*
X3448202Y-1513281D01*
X3446018Y-1516532D01*
X3442715Y-1518767D01*
X3438855Y-1519529D01*
X3160674Y-1519529D01*
X3156813Y-1518767D01*
X3153511Y-1516532D01*
X3151276Y-1513281D01*
X3150514Y-1509369D01*
X3150514Y-913079D01*
X3149549Y-895959D01*
X3146755Y-879297D01*
X3142081Y-863092D01*
X3135579Y-847496D01*
X3127451Y-832713D01*
X3117646Y-818946D01*
X3106216Y-806145D01*
X3062224Y-762152D01*
X3060192Y-759256D01*
X3059277Y-755802D01*
X3059633Y-752246D01*
X3064306Y-735482D01*
X3069132Y-710692D01*
X3072079Y-685596D01*
X3073044Y-660400D01*
X3072079Y-635203D01*
X3069132Y-610108D01*
X3064306Y-585317D01*
X3057499Y-561035D01*
X3048863Y-537311D01*
X3038449Y-514350D01*
X3026257Y-492251D01*
X3012389Y-471119D01*
X2996895Y-451205D01*
X2979978Y-432511D01*
X2961589Y-415188D01*
X2941929Y-399338D01*
X2921152Y-385064D01*
X2899257Y-372414D01*
X2876499Y-361543D01*
X2852978Y-352450D01*
X2828798Y-345236D01*
X2804109Y-339852D01*
X2779115Y-336448D01*
X2753918Y-334975D01*
X2728671Y-335483D01*
X2703525Y-337921D01*
X2678684Y-342290D01*
X2654249Y-348589D01*
X2630373Y-356768D01*
X2607208Y-366776D01*
X2584856Y-378561D01*
X2563520Y-391972D01*
X2543251Y-407060D01*
X2524252Y-423672D01*
X2506573Y-441706D01*
X2490368Y-461009D01*
X2475687Y-481533D01*
X2462631Y-503174D01*
X2451303Y-525729D01*
X2441752Y-549097D01*
X2434031Y-573125D01*
X2428240Y-597662D01*
X2424328Y-622604D01*
X2422347Y-647801D01*
X2422347Y-672998D01*
X2424328Y-698195D01*
X2428240Y-723138D01*
X2434031Y-747674D01*
X2441752Y-771702D01*
X2451303Y-795070D01*
X2462631Y-817625D01*
X2475687Y-839266D01*
X2490368Y-859790D01*
X2506573Y-879094D01*
X2524252Y-897128D01*
X2543251Y-913739D01*
X2563520Y-928827D01*
X2584856Y-942238D01*
X2607208Y-954024D01*
X2630373Y-964031D01*
X2654249Y-972210D01*
X2678684Y-978509D01*
X2703525Y-982878D01*
X2728671Y-985316D01*
X2753918Y-985824D01*
X2779115Y-984351D01*
X2804109Y-980948D01*
X2828798Y-975563D01*
X2836418Y-973277D01*
X2840126Y-972921D01*
X2843784Y-973886D01*
X2846781Y-976121D01*
X2848762Y-979322D01*
X2849473Y-983030D01*
X2849473Y-1669745D01*
X2850438Y-1686915D01*
X2853283Y-1703527D01*
X2857957Y-1719783D01*
X2864408Y-1735328D01*
X2872587Y-1750110D01*
X2882341Y-1763877D01*
X2893568Y-1776475D01*
X2906166Y-1787702D01*
X2919933Y-1797507D01*
X2934716Y-1805635D01*
X2950311Y-1812086D01*
X2966516Y-1816760D01*
X2983128Y-1819605D01*
X3000298Y-1820570D01*
X3510483Y-1820570D01*
X3514801Y-1821535D01*
X3518357Y-1824329D01*
X3520338Y-1828292D01*
X3520389Y-1832762D01*
X3518560Y-1836826D01*
X3515156Y-1839722D01*
X3509822Y-1842516D01*
X3504793Y-1846072D01*
X3502761Y-1847850D01*
X3498291Y-1852422D01*
X3496614Y-1854504D01*
X3492601Y-1860702D01*
X3489299Y-1867611D01*
X3486505Y-1877974D01*
X3485134Y-1881632D01*
X3482492Y-1884476D01*
X3478936Y-1886153D01*
X3469386Y-1888540D01*
X3459378Y-1893316D01*
X3454755Y-1896414D01*
X3452622Y-1898091D01*
X3448050Y-1902561D01*
X3446272Y-1904593D01*
X3442614Y-1909825D01*
X3441242Y-1912162D01*
X3438550Y-1917954D01*
X3437686Y-1920544D01*
X3436112Y-1926691D01*
X3435705Y-1929333D01*
X3435299Y-1936851D01*
X3435705Y-1943100D01*
X3436112Y-1945792D01*
X3437686Y-1951939D01*
X3438550Y-1954530D01*
X3441242Y-1960321D01*
X3442614Y-1962657D01*
X3446272Y-1967890D01*
X3448050Y-1969922D01*
X3452622Y-1974392D01*
X3454704Y-1976069D01*
X3460902Y-1980082D01*
X3467811Y-1983384D01*
X3478174Y-1986178D01*
X3481832Y-1987550D01*
X3484676Y-1990191D01*
X3486353Y-1993747D01*
X3488740Y-2003298D01*
X3493515Y-2013305D01*
X3496614Y-2017928D01*
X3498291Y-2020062D01*
X3502761Y-2024634D01*
X3504793Y-2026412D01*
X3510026Y-2030069D01*
X3512362Y-2031441D01*
X3518154Y-2034133D01*
X3520744Y-2034997D01*
X3526891Y-2036572D01*
X3529533Y-2036978D01*
G37*
G36*
X3630422Y-1250594D02*
G01*
X3648659Y-1249172D01*
X3666642Y-1245920D01*
X3684168Y-1240790D01*
X3701084Y-1233932D01*
X3717239Y-1225346D01*
X3732377Y-1215136D01*
X3746449Y-1203401D01*
X3759200Y-1190345D01*
X3770528Y-1176020D01*
X3780332Y-1160576D01*
X3788511Y-1144219D01*
X3794963Y-1127150D01*
X3799586Y-1109472D01*
X3802430Y-1091387D01*
X3803345Y-1073150D01*
X3802430Y-1054912D01*
X3799586Y-1036828D01*
X3794963Y-1019149D01*
X3788511Y-1002080D01*
X3780332Y-985723D01*
X3770528Y-970280D01*
X3759200Y-955954D01*
X3746449Y-942898D01*
X3732377Y-931164D01*
X3717239Y-920953D01*
X3701084Y-912368D01*
X3684168Y-905510D01*
X3666642Y-900379D01*
X3648659Y-897128D01*
X3630422Y-895705D01*
X3612134Y-896162D01*
X3594049Y-898499D01*
X3576218Y-902716D01*
X3558997Y-908710D01*
X3542436Y-916482D01*
X3526739Y-925880D01*
X3512159Y-936853D01*
X3498748Y-949248D01*
X3486658Y-962964D01*
X3476091Y-977900D01*
X3467049Y-993800D01*
X3459734Y-1010513D01*
X3454196Y-1027937D01*
X3450437Y-1045819D01*
X3448558Y-1064006D01*
X3448558Y-1082294D01*
X3450437Y-1100480D01*
X3454196Y-1118362D01*
X3459734Y-1135786D01*
X3467049Y-1152499D01*
X3476091Y-1168400D01*
X3486658Y-1183335D01*
X3498748Y-1197051D01*
X3512159Y-1209446D01*
X3526739Y-1220419D01*
X3542436Y-1229817D01*
X3558997Y-1237589D01*
X3576218Y-1243584D01*
X3594049Y-1247800D01*
X3612134Y-1250137D01*
G37*
G36*
X599998Y-950518D02*
G01*
X621842Y-949553D01*
X643483Y-946708D01*
X664819Y-941984D01*
X685698Y-935380D01*
X705866Y-927049D01*
X725271Y-916940D01*
X743661Y-905205D01*
X761034Y-891895D01*
X777138Y-877163D01*
X791921Y-861009D01*
X805180Y-843686D01*
X816965Y-825246D01*
X827024Y-805891D01*
X835406Y-785672D01*
X841959Y-764844D01*
X846683Y-743508D01*
X849579Y-721817D01*
X850493Y-700024D01*
X849579Y-678180D01*
X846683Y-656488D01*
X841959Y-635152D01*
X835406Y-614324D01*
X827024Y-594106D01*
X816965Y-574751D01*
X805180Y-556310D01*
X791921Y-538988D01*
X777138Y-522884D01*
X761034Y-508101D01*
X743661Y-494792D01*
X725271Y-483057D01*
X705866Y-472948D01*
X685698Y-464616D01*
X664819Y-458012D01*
X643483Y-453288D01*
X621842Y-450443D01*
X599998Y-449478D01*
X578154Y-450443D01*
X556514Y-453288D01*
X535178Y-458012D01*
X514299Y-464616D01*
X494131Y-472948D01*
X474726Y-483057D01*
X456336Y-494792D01*
X438962Y-508101D01*
X422859Y-522884D01*
X408076Y-538988D01*
X394817Y-556310D01*
X383032Y-574751D01*
X372973Y-594106D01*
X364591Y-614324D01*
X358038Y-635152D01*
X353314Y-656488D01*
X350418Y-678180D01*
X349504Y-700024D01*
X350418Y-721817D01*
X353314Y-743508D01*
X358038Y-764844D01*
X364591Y-785672D01*
X372973Y-805891D01*
X383032Y-825246D01*
X394817Y-843686D01*
X408076Y-861009D01*
X422859Y-877163D01*
X438962Y-891895D01*
X456336Y-905205D01*
X474726Y-916940D01*
X494131Y-927049D01*
X514299Y-935380D01*
X535178Y-941984D01*
X556514Y-946708D01*
X578154Y-949553D01*
G37*
G36*
X5500014Y-650494D02*
G01*
X5521807Y-649579D01*
X5543499Y-646684D01*
X5564835Y-641959D01*
X5585663Y-635406D01*
X5605881Y-627024D01*
X5625236Y-616966D01*
X5643676Y-605180D01*
X5660999Y-591921D01*
X5677154Y-577138D01*
X5691886Y-561035D01*
X5705195Y-543661D01*
X5716930Y-525272D01*
X5727039Y-505866D01*
X5735421Y-485698D01*
X5741974Y-464820D01*
X5746699Y-443484D01*
X5749544Y-421843D01*
X5750509Y-399999D01*
X5749544Y-378155D01*
X5746699Y-356514D01*
X5741974Y-335178D01*
X5735421Y-314299D01*
X5727039Y-294132D01*
X5716930Y-274726D01*
X5705195Y-256336D01*
X5691886Y-238963D01*
X5677154Y-222859D01*
X5660999Y-208076D01*
X5643676Y-194818D01*
X5625236Y-183032D01*
X5605881Y-172974D01*
X5585663Y-164592D01*
X5564835Y-158038D01*
X5543499Y-153314D01*
X5521807Y-150418D01*
X5500014Y-149504D01*
X5478170Y-150418D01*
X5456478Y-153314D01*
X5435142Y-158038D01*
X5414314Y-164592D01*
X5394147Y-172974D01*
X5374741Y-183032D01*
X5356301Y-194818D01*
X5338978Y-208076D01*
X5322874Y-222859D01*
X5308092Y-238963D01*
X5294782Y-256336D01*
X5283047Y-274726D01*
X5272938Y-294132D01*
X5264607Y-314299D01*
X5258003Y-335178D01*
X5253278Y-356514D01*
X5250434Y-378155D01*
X5249468Y-399999D01*
X5250434Y-421843D01*
X5253278Y-443484D01*
X5258003Y-464820D01*
X5264607Y-485698D01*
X5272938Y-505866D01*
X5283047Y-525272D01*
X5294782Y-543661D01*
X5308092Y-561035D01*
X5322874Y-577138D01*
X5338978Y-591921D01*
X5356301Y-605180D01*
X5374741Y-616966D01*
X5394147Y-627024D01*
X5414314Y-635406D01*
X5435142Y-641959D01*
X5456478Y-646684D01*
X5478170Y-649579D01*
G37*

%LPD*%
D20*
X3536950Y-1670050D02*
G01*
X2999999Y-1670050D01*
X2999999Y-912804D01*
X2747594Y-660400D01*
D12*
G01*
X3674363Y-3314700D03*
G01*
X4174363Y-3314700D03*
G01*
X3674363Y-4191000D03*
G01*
X4174363Y-4191000D03*
D13*
G01*
X3536950Y-2432050D03*
D14*
G01*
X3536950Y-2178050D03*
G01*
X3536950Y-1924050D03*
D13*
G01*
X3536950Y-1670050D03*
G01*
X3536950Y-1416050D03*
D15*
G01*
X5226050Y-2419350D03*
G01*
X3625850Y-1073150D03*
D16*
G01*
X2027605Y-660400D03*
G01*
X2747594Y-660400D03*
G36*
X1549400Y-3327400D02*
G01*
X1905000Y-3327400D01*
X1905000Y-3683000D01*
X1549400Y-3683000D01*
G37*
D18*
G01*
X1727200Y-2489200D03*
D12*
G01*
X4850079Y-3299993D03*
G01*
X5350078Y-3299993D03*
G01*
X4850053Y-4199991D03*
G01*
X5350052Y-4199991D03*
D19*
G01*
X599998Y-699998D03*
G01*
X2899994Y-4699990D03*
G01*
X5499988Y-399999D03*
M02*
