G04 Layer: TopSolderMaskLayer*
G04 EasyEDA v6.5.5, 2022-06-01 21:54:51*
G04 8c1e14e235494d98a3ccc41632180272,c96cdaf6a0e44fa3bb1e134f2b5c86cb,10*
G04 Gerber Generator version 0.2*
G04 Scale: 100 percent, Rotated: No, Reflected: No *
G04 Dimensions in millimeters *
G04 leading zeros omitted , absolute positions ,4 integer and 5 decimal *
%FSLAX45Y45*%
%MOMM*%

%ADD26C,3.2032*%
%ADD27C,1.7018*%
%ADD29C,2.7432*%
%ADD30C,5.7023*%
%ADD32C,3.7592*%
%ADD33C,4.1016*%

%LPD*%
D26*
G01*
X3674363Y-3314700D03*
G01*
X4174363Y-3314700D03*
G01*
X3674363Y-4191000D03*
G01*
X4174363Y-4191000D03*
D27*
G01*
X3536950Y-2432050D03*
G36*
X3462020Y-2263139D02*
G01*
X3458972Y-2262631D01*
X3455924Y-2261107D01*
X3453891Y-2259076D01*
X3452368Y-2256028D01*
X3451859Y-2252979D01*
X3451859Y-2103120D01*
X3452368Y-2100071D01*
X3453891Y-2097023D01*
X3455924Y-2094992D01*
X3458972Y-2093468D01*
X3462020Y-2092960D01*
X3611879Y-2092960D01*
X3614927Y-2093468D01*
X3617975Y-2094992D01*
X3620008Y-2097023D01*
X3621531Y-2100071D01*
X3622040Y-2103120D01*
X3622040Y-2252979D01*
X3621531Y-2256028D01*
X3620008Y-2259076D01*
X3617975Y-2261107D01*
X3614927Y-2262631D01*
X3611879Y-2263139D01*
G37*
G36*
X3462020Y-2009139D02*
G01*
X3458972Y-2008631D01*
X3455924Y-2007107D01*
X3453891Y-2005076D01*
X3452368Y-2002028D01*
X3451859Y-1998979D01*
X3451859Y-1849120D01*
X3452368Y-1846071D01*
X3453891Y-1843023D01*
X3455924Y-1840992D01*
X3458972Y-1839468D01*
X3462020Y-1838960D01*
X3611879Y-1838960D01*
X3614927Y-1839468D01*
X3617975Y-1840992D01*
X3620008Y-1843023D01*
X3621531Y-1846071D01*
X3622040Y-1849120D01*
X3622040Y-1998979D01*
X3621531Y-2002028D01*
X3620008Y-2005076D01*
X3617975Y-2007107D01*
X3614927Y-2008631D01*
X3611879Y-2009139D01*
G37*
G01*
X3536950Y-1670050D03*
G01*
X3536950Y-1416050D03*
D29*
G01*
X5226050Y-2419350D03*
G01*
X3625850Y-1073150D03*
D30*
G01*
X2027605Y-660400D03*
G01*
X2747594Y-660400D03*
G36*
X1549400Y-3693160D02*
G01*
X1546352Y-3692652D01*
X1543304Y-3691128D01*
X1541271Y-3689095D01*
X1539747Y-3686047D01*
X1539239Y-3683000D01*
X1539239Y-3327400D01*
X1539747Y-3324352D01*
X1541271Y-3321304D01*
X1543304Y-3319271D01*
X1546352Y-3317747D01*
X1549400Y-3317239D01*
X1905000Y-3317239D01*
X1908047Y-3317747D01*
X1911095Y-3319271D01*
X1913128Y-3321304D01*
X1914652Y-3324352D01*
X1915160Y-3327400D01*
X1915160Y-3683000D01*
X1914652Y-3686047D01*
X1913128Y-3689095D01*
X1911095Y-3691128D01*
X1908047Y-3692652D01*
X1905000Y-3693160D01*
G37*
D32*
G01*
X1727200Y-2489200D03*
D26*
G01*
X4850079Y-3299993D03*
G01*
X5350078Y-3299993D03*
G01*
X4850053Y-4199991D03*
G01*
X5350052Y-4199991D03*
D33*
G01*
X599998Y-699998D03*
G01*
X2899994Y-4699990D03*
G01*
X5499988Y-399999D03*
M02*
