M48
METRIC,LZ,000.000
;FILE_FORMAT=3:3
;TYPE=PLATED
;Layer: PTH_Through
;EasyEDA v6.5.5, 2022-06-01 22:09:19
;f343101900314467833159393b3af33e,c96cdaf6a0e44fa3bb1e134f2b5c86cb,10
;Gerber Generator version 0.2
;Holesize 1 = 1.626 mm
T01C1.626
;Holesize 2 = 1.651 mm
T02C1.651
;Holesize 3 = 3.000 mm
T03C3.000
;Holesize 4 = 4.000 mm
T04C4.000
%
G05
G90
T01
X039675Y-008737
X039675Y-012141
X053137Y-008737
X053137Y-012141
X037897Y-022301
X037897Y-018897
X024435Y-022301
X024435Y-018897
X037897Y-036271
X037897Y-032867
X024435Y-036271
X024435Y-032867
X037897Y-050241
X037897Y-046837
X024435Y-050241
X024435Y-046837
X037897Y-064211
X037897Y-060807
X024435Y-064211
X024435Y-060807
X037897Y-078181
X037897Y-074777
X024435Y-078181
X024435Y-074777
X047295Y-018897
X047295Y-022301
X060757Y-018897
X060757Y-022301
X047295Y-032867
X047295Y-036271
X060757Y-032867
X060757Y-036271
X047295Y-046837
X047295Y-050241
X060757Y-046837
X060757Y-050241
X047295Y-060807
X047295Y-064211
X060757Y-060807
X060757Y-064211
X047295Y-074777
X047295Y-078181
X060757Y-074777
X060757Y-078181
T02
X016942Y-018757G85X016942Y-021678
X008243Y-020980G85X011164Y-020980
X016942Y-032727G85X016942Y-035648
X008243Y-034950G85X011164Y-034950
X016942Y-046697G85X016942Y-049618
X008243Y-048920G85X011164Y-048920
X016942Y-060667G85X016942Y-063588
X008243Y-062890G85X011164Y-062890
X016942Y-074637G85X016942Y-077558
X008243Y-076860G85X011164Y-076860
X068250Y-022440G85X068250Y-019519
X076950Y-020218G85X074029Y-020218
X068250Y-036410G85X068250Y-033489
X076950Y-034188G85X074029Y-034188
X068250Y-050380G85X068250Y-047459
X076950Y-048158G85X074029Y-048158
X068250Y-064350G85X068250Y-061429
X076950Y-062128G85X074029Y-062128
X068250Y-078320G85X068250Y-075399
X076950Y-076098G85X074029Y-076098
T03
X007000Y-008000
X079000Y-009000
X080000Y-087000
X005000Y-087000
X077000Y-070000
X077000Y-042000
X008000Y-055000
X008000Y-027000
T04
X023070Y-010160
X030270Y-010160
M30
