G04 Layer: TopLayer*
G04 EasyEDA v6.5.5, 2022-06-01 22:09:19*
G04 f343101900314467833159393b3af33e,c96cdaf6a0e44fa3bb1e134f2b5c86cb,10*
G04 Gerber Generator version 0.2*
G04 Scale: 100 percent, Rotated: No, Reflected: No *
G04 Dimensions in millimeters *
G04 leading zeros omitted , absolute positions ,4 integer and 5 decimal *
%FSLAX45Y45*%
%MOMM*%

%ADD11C,0.5000*%
%ADD12R,1.5000X1.8000*%
%ADD13R,1.2000X1.9000*%
%ADD14C,5.4991*%
%ADD15C,2.5400*%
%ADD16C,4.0000*%
%ADD17C,3.3020*%

%LPD*%
G36*
X60706Y-9093504D02*
G01*
X56794Y-9092692D01*
X53492Y-9090507D01*
X51308Y-9087205D01*
X50546Y-9083344D01*
X50546Y-60706D01*
X51308Y-56794D01*
X53492Y-53492D01*
X56794Y-51308D01*
X60706Y-50546D01*
X8448344Y-50546D01*
X8452205Y-51308D01*
X8455507Y-53492D01*
X8457692Y-56794D01*
X8458504Y-60706D01*
X8458504Y-9083344D01*
X8457692Y-9087205D01*
X8455507Y-9090507D01*
X8452205Y-9092692D01*
X8448344Y-9093504D01*
G37*

%LPC*%
G36*
X8005267Y-8930436D02*
G01*
X8026196Y-8929014D01*
X8046872Y-8925661D01*
X8067243Y-8920480D01*
X8087004Y-8913469D01*
X8106054Y-8904630D01*
X8124190Y-8894165D01*
X8141360Y-8882075D01*
X8157311Y-8868460D01*
X8171992Y-8853474D01*
X8185251Y-8837168D01*
X8196935Y-8819743D01*
X8206994Y-8801354D01*
X8215375Y-8782100D01*
X8221929Y-8762187D01*
X8226704Y-8741765D01*
X8229549Y-8720937D01*
X8230514Y-8700008D01*
X8229549Y-8679027D01*
X8226704Y-8658250D01*
X8221929Y-8637828D01*
X8215375Y-8617864D01*
X8206994Y-8598662D01*
X8196935Y-8580221D01*
X8185251Y-8562848D01*
X8171992Y-8546541D01*
X8157311Y-8531555D01*
X8141360Y-8517940D01*
X8124190Y-8505850D01*
X8106054Y-8495334D01*
X8087004Y-8486546D01*
X8067243Y-8479536D01*
X8046872Y-8474303D01*
X8026196Y-8471001D01*
X8005267Y-8469579D01*
X7984286Y-8470036D01*
X7963408Y-8472424D01*
X7942884Y-8476691D01*
X7922818Y-8482838D01*
X7903362Y-8490712D01*
X7884769Y-8500364D01*
X7867091Y-8511692D01*
X7850479Y-8524544D01*
X7835188Y-8538870D01*
X7821218Y-8554516D01*
X7808722Y-8571382D01*
X7797800Y-8589314D01*
X7788605Y-8608161D01*
X7781137Y-8627770D01*
X7775448Y-8647988D01*
X7771638Y-8668613D01*
X7769758Y-8689492D01*
X7769758Y-8710472D01*
X7771638Y-8731402D01*
X7775448Y-8752027D01*
X7781137Y-8772245D01*
X7788605Y-8791854D01*
X7797800Y-8810650D01*
X7808722Y-8828582D01*
X7821218Y-8845448D01*
X7835188Y-8861094D01*
X7850479Y-8875420D01*
X7867091Y-8888323D01*
X7884769Y-8899601D01*
X7903362Y-8909253D01*
X7922818Y-8917178D01*
X7942884Y-8923324D01*
X7963408Y-8927592D01*
X7984286Y-8929979D01*
G37*
G36*
X505256Y-8930436D02*
G01*
X526186Y-8929014D01*
X546912Y-8925661D01*
X567232Y-8920480D01*
X586994Y-8913469D01*
X606044Y-8904630D01*
X624230Y-8894165D01*
X641350Y-8882075D01*
X657301Y-8868460D01*
X671982Y-8853474D01*
X685241Y-8837168D01*
X696925Y-8819743D01*
X707034Y-8801354D01*
X715365Y-8782100D01*
X721969Y-8762187D01*
X726694Y-8741765D01*
X729538Y-8720937D01*
X730504Y-8700008D01*
X729538Y-8679027D01*
X726694Y-8658250D01*
X721969Y-8637828D01*
X715365Y-8617864D01*
X707034Y-8598662D01*
X696925Y-8580221D01*
X685241Y-8562848D01*
X671982Y-8546541D01*
X657301Y-8531555D01*
X641350Y-8517940D01*
X624230Y-8505850D01*
X606044Y-8495334D01*
X586994Y-8486546D01*
X567232Y-8479536D01*
X546912Y-8474303D01*
X526186Y-8471001D01*
X505256Y-8469579D01*
X484276Y-8470036D01*
X463448Y-8472424D01*
X442874Y-8476691D01*
X422808Y-8482838D01*
X403402Y-8490712D01*
X384759Y-8500364D01*
X367080Y-8511692D01*
X350520Y-8524544D01*
X335178Y-8538870D01*
X321208Y-8554516D01*
X308711Y-8571382D01*
X297789Y-8589314D01*
X288594Y-8608161D01*
X281127Y-8627770D01*
X275437Y-8647988D01*
X271627Y-8668613D01*
X269748Y-8689492D01*
X269748Y-8710472D01*
X271627Y-8731402D01*
X275437Y-8752027D01*
X281127Y-8772245D01*
X288594Y-8791854D01*
X297789Y-8810650D01*
X308711Y-8828582D01*
X321208Y-8845448D01*
X335178Y-8861094D01*
X350520Y-8875420D01*
X367080Y-8888323D01*
X384759Y-8899601D01*
X403402Y-8909253D01*
X422808Y-8917178D01*
X442874Y-8923324D01*
X463448Y-8927592D01*
X484276Y-8929979D01*
G37*
G36*
X5307482Y-8507526D02*
G01*
X5426506Y-8507526D01*
X5432958Y-8506866D01*
X5438648Y-8505139D01*
X5443931Y-8502345D01*
X5448554Y-8498535D01*
X5452313Y-8493912D01*
X5455158Y-8488680D01*
X5456885Y-8482939D01*
X5457494Y-8476488D01*
X5457494Y-8447684D01*
X5458256Y-8443772D01*
X5460492Y-8440470D01*
X5463794Y-8438286D01*
X5467654Y-8437524D01*
X5703316Y-8437524D01*
X5707227Y-8438286D01*
X5710529Y-8440470D01*
X5712714Y-8443772D01*
X5713476Y-8447684D01*
X5713476Y-8471509D01*
X5714136Y-8477961D01*
X5715863Y-8483650D01*
X5718657Y-8488934D01*
X5722467Y-8493556D01*
X5727090Y-8497316D01*
X5732322Y-8500160D01*
X5738063Y-8501888D01*
X5744464Y-8502497D01*
X5893511Y-8502497D01*
X5899912Y-8501888D01*
X5905652Y-8500160D01*
X5910884Y-8497316D01*
X5915507Y-8493556D01*
X5919317Y-8488934D01*
X5922111Y-8483650D01*
X5923838Y-8477961D01*
X5924499Y-8471509D01*
X5924499Y-8292490D01*
X5923838Y-8286038D01*
X5922111Y-8280349D01*
X5919317Y-8275066D01*
X5915507Y-8270443D01*
X5910884Y-8266684D01*
X5905652Y-8263839D01*
X5899912Y-8262112D01*
X5893511Y-8261502D01*
X5744464Y-8261502D01*
X5738063Y-8262112D01*
X5732322Y-8263839D01*
X5727090Y-8266684D01*
X5722467Y-8270443D01*
X5718657Y-8275066D01*
X5715863Y-8280349D01*
X5714136Y-8286038D01*
X5713476Y-8292490D01*
X5713476Y-8316315D01*
X5712714Y-8320227D01*
X5710529Y-8323529D01*
X5707227Y-8325713D01*
X5703316Y-8326475D01*
X5467654Y-8326475D01*
X5463794Y-8325713D01*
X5460492Y-8323529D01*
X5458256Y-8320227D01*
X5457494Y-8316315D01*
X5457494Y-8287512D01*
X5456885Y-8281060D01*
X5455158Y-8275320D01*
X5452313Y-8270087D01*
X5448554Y-8265464D01*
X5443931Y-8261654D01*
X5438648Y-8258860D01*
X5432958Y-8257133D01*
X5426506Y-8256473D01*
X5307482Y-8256473D01*
X5301030Y-8257133D01*
X5295341Y-8258860D01*
X5290058Y-8261654D01*
X5285486Y-8265464D01*
X5281676Y-8270087D01*
X5278882Y-8275320D01*
X5277104Y-8281060D01*
X5276494Y-8287512D01*
X5276494Y-8476488D01*
X5277104Y-8482939D01*
X5278882Y-8488680D01*
X5281676Y-8493912D01*
X5285486Y-8498535D01*
X5290058Y-8502345D01*
X5295341Y-8505139D01*
X5301030Y-8506866D01*
G37*
G36*
X6044488Y-8502497D02*
G01*
X6193485Y-8502497D01*
X6199936Y-8501888D01*
X6205626Y-8500160D01*
X6210909Y-8497316D01*
X6215532Y-8493556D01*
X6219291Y-8488934D01*
X6222136Y-8483650D01*
X6223863Y-8477961D01*
X6224473Y-8471509D01*
X6224473Y-8292490D01*
X6223863Y-8286038D01*
X6222136Y-8280349D01*
X6219291Y-8275066D01*
X6215532Y-8270443D01*
X6210909Y-8266684D01*
X6205626Y-8263839D01*
X6199936Y-8262112D01*
X6193485Y-8261502D01*
X6184646Y-8261502D01*
X6180785Y-8260740D01*
X6177483Y-8258505D01*
X6175298Y-8255203D01*
X6174486Y-8251342D01*
X6174486Y-7945475D01*
X6175349Y-7941462D01*
X6177686Y-7938109D01*
X6190030Y-7926374D01*
X6201054Y-7913370D01*
X6210655Y-7899298D01*
X6218631Y-7884210D01*
X6224930Y-7868361D01*
X6229502Y-7851952D01*
X6232245Y-7835087D01*
X6233210Y-7818069D01*
X6232245Y-7801051D01*
X6229502Y-7784236D01*
X6224930Y-7767777D01*
X6218631Y-7751978D01*
X6210655Y-7736890D01*
X6201054Y-7722768D01*
X6190030Y-7709763D01*
X6177635Y-7698028D01*
X6164072Y-7687716D01*
X6149492Y-7678928D01*
X6133998Y-7671765D01*
X6117844Y-7666329D01*
X6101181Y-7662672D01*
X6084214Y-7660843D01*
X6067196Y-7660843D01*
X6050229Y-7662672D01*
X6033566Y-7666329D01*
X6017412Y-7671765D01*
X6001918Y-7678928D01*
X5987338Y-7687716D01*
X5973724Y-7698028D01*
X5961380Y-7709763D01*
X5950305Y-7722768D01*
X5940755Y-7736890D01*
X5932779Y-7751978D01*
X5926429Y-7767777D01*
X5921908Y-7784236D01*
X5919114Y-7801051D01*
X5918200Y-7818069D01*
X5919114Y-7835087D01*
X5921908Y-7851952D01*
X5926429Y-7868361D01*
X5932779Y-7884210D01*
X5940755Y-7899298D01*
X5950305Y-7913370D01*
X5961380Y-7926374D01*
X5973724Y-7938109D01*
X5987338Y-7948422D01*
X6001918Y-7957210D01*
X6017412Y-7964373D01*
X6033566Y-7969859D01*
X6050229Y-7973517D01*
X6054445Y-7973974D01*
X6057950Y-7975041D01*
X6060897Y-7977276D01*
X6062827Y-7980425D01*
X6063488Y-7984083D01*
X6063488Y-8251342D01*
X6062726Y-8255203D01*
X6060541Y-8258505D01*
X6057239Y-8260740D01*
X6053328Y-8261502D01*
X6044488Y-8261502D01*
X6038037Y-8262112D01*
X6032347Y-8263839D01*
X6027064Y-8266684D01*
X6022441Y-8270443D01*
X6018682Y-8275066D01*
X6015837Y-8280349D01*
X6014110Y-8286038D01*
X6013500Y-8292490D01*
X6013500Y-8471509D01*
X6014110Y-8477961D01*
X6015837Y-8483650D01*
X6018682Y-8488934D01*
X6022441Y-8493556D01*
X6027064Y-8497316D01*
X6032347Y-8500160D01*
X6038037Y-8501888D01*
G37*
G36*
X3151124Y-8408416D02*
G01*
X3270097Y-8408416D01*
X3276549Y-8407755D01*
X3282238Y-8406028D01*
X3287522Y-8403234D01*
X3292144Y-8399424D01*
X3295904Y-8394801D01*
X3298748Y-8389569D01*
X3300476Y-8383828D01*
X3301085Y-8377377D01*
X3301085Y-8188401D01*
X3300476Y-8181949D01*
X3298748Y-8176259D01*
X3295904Y-8170976D01*
X3292144Y-8166353D01*
X3287522Y-8162594D01*
X3282238Y-8159750D01*
X3276549Y-8158022D01*
X3270097Y-8157413D01*
X3151124Y-8157413D01*
X3144672Y-8158022D01*
X3138932Y-8159750D01*
X3133699Y-8162594D01*
X3129076Y-8166353D01*
X3125266Y-8170976D01*
X3122472Y-8176259D01*
X3120745Y-8181949D01*
X3120085Y-8188401D01*
X3120085Y-8217255D01*
X3119323Y-8221116D01*
X3117138Y-8224418D01*
X3113836Y-8226602D01*
X3109925Y-8227415D01*
X2874264Y-8227415D01*
X2870403Y-8226602D01*
X2867101Y-8224418D01*
X2864916Y-8221116D01*
X2864104Y-8217255D01*
X2864104Y-8193379D01*
X2863494Y-8186978D01*
X2861767Y-8181238D01*
X2858922Y-8175955D01*
X2855163Y-8171383D01*
X2850540Y-8167573D01*
X2845257Y-8164779D01*
X2839567Y-8163052D01*
X2833116Y-8162391D01*
X2684119Y-8162391D01*
X2677668Y-8163052D01*
X2671978Y-8164779D01*
X2666695Y-8167573D01*
X2662072Y-8171383D01*
X2658313Y-8175955D01*
X2655468Y-8181238D01*
X2653741Y-8186978D01*
X2653131Y-8193379D01*
X2653131Y-8372398D01*
X2653741Y-8378850D01*
X2655468Y-8384540D01*
X2658313Y-8389823D01*
X2662072Y-8394446D01*
X2666695Y-8398205D01*
X2671978Y-8401050D01*
X2677668Y-8402777D01*
X2684119Y-8403386D01*
X2833116Y-8403386D01*
X2839567Y-8402777D01*
X2845257Y-8401050D01*
X2850540Y-8398205D01*
X2855163Y-8394446D01*
X2858922Y-8389823D01*
X2861767Y-8384540D01*
X2863494Y-8378850D01*
X2864104Y-8372398D01*
X2864104Y-8348573D01*
X2864916Y-8344662D01*
X2867101Y-8341359D01*
X2870403Y-8339175D01*
X2874264Y-8338413D01*
X3109925Y-8338413D01*
X3113836Y-8339175D01*
X3117138Y-8341359D01*
X3119323Y-8344662D01*
X3120085Y-8348573D01*
X3120085Y-8377377D01*
X3120745Y-8383828D01*
X3122472Y-8389569D01*
X3125266Y-8394801D01*
X3129076Y-8399424D01*
X3133699Y-8403234D01*
X3138932Y-8406028D01*
X3144672Y-8407755D01*
G37*
G36*
X2384094Y-8403386D02*
G01*
X2533091Y-8403386D01*
X2539542Y-8402777D01*
X2545283Y-8401050D01*
X2550515Y-8398205D01*
X2555138Y-8394446D01*
X2558948Y-8389823D01*
X2561742Y-8384540D01*
X2563469Y-8378850D01*
X2564130Y-8372398D01*
X2564130Y-8193379D01*
X2563469Y-8186978D01*
X2561742Y-8181238D01*
X2558948Y-8175955D01*
X2555138Y-8171383D01*
X2550515Y-8167573D01*
X2545283Y-8164779D01*
X2539542Y-8163052D01*
X2533091Y-8162391D01*
X2524252Y-8162391D01*
X2520391Y-8161629D01*
X2517089Y-8159394D01*
X2514904Y-8156143D01*
X2514092Y-8152231D01*
X2514092Y-7964881D01*
X2514701Y-7961477D01*
X2516428Y-7958429D01*
X2519019Y-7956194D01*
X2531872Y-7948472D01*
X2545435Y-7938109D01*
X2557830Y-7926425D01*
X2568854Y-7913420D01*
X2578455Y-7899298D01*
X2586431Y-7884210D01*
X2592730Y-7868361D01*
X2597302Y-7851952D01*
X2600045Y-7835138D01*
X2601010Y-7818120D01*
X2600045Y-7801051D01*
X2597302Y-7784236D01*
X2592730Y-7767828D01*
X2586431Y-7751978D01*
X2578455Y-7736890D01*
X2568854Y-7722768D01*
X2557830Y-7709763D01*
X2545435Y-7698079D01*
X2531872Y-7687716D01*
X2517292Y-7678928D01*
X2501798Y-7671765D01*
X2485644Y-7666329D01*
X2468981Y-7662672D01*
X2452014Y-7660843D01*
X2434996Y-7660843D01*
X2418029Y-7662672D01*
X2401366Y-7666329D01*
X2385212Y-7671765D01*
X2369718Y-7678928D01*
X2355138Y-7687716D01*
X2341524Y-7698079D01*
X2329180Y-7709763D01*
X2318105Y-7722768D01*
X2308555Y-7736890D01*
X2300579Y-7751978D01*
X2294229Y-7767828D01*
X2289708Y-7784236D01*
X2286914Y-7801051D01*
X2286000Y-7818120D01*
X2286914Y-7835138D01*
X2289708Y-7851952D01*
X2294229Y-7868361D01*
X2300579Y-7884210D01*
X2308555Y-7899298D01*
X2318105Y-7913420D01*
X2329180Y-7926425D01*
X2341524Y-7938109D01*
X2355138Y-7948472D01*
X2369718Y-7957261D01*
X2385212Y-7964424D01*
X2396185Y-7968081D01*
X2399792Y-7970215D01*
X2402230Y-7973618D01*
X2403094Y-7977733D01*
X2403094Y-8152231D01*
X2402332Y-8156143D01*
X2400096Y-8159394D01*
X2396845Y-8161629D01*
X2392934Y-8162391D01*
X2384094Y-8162391D01*
X2377694Y-8163052D01*
X2371953Y-8164779D01*
X2366670Y-8167573D01*
X2362098Y-8171383D01*
X2358288Y-8175955D01*
X2355494Y-8181238D01*
X2353767Y-8186978D01*
X2353106Y-8193379D01*
X2353106Y-8372398D01*
X2353767Y-8378850D01*
X2355494Y-8384540D01*
X2358288Y-8389823D01*
X2362098Y-8394446D01*
X2366670Y-8398205D01*
X2371953Y-8401050D01*
X2377694Y-8402777D01*
G37*
G36*
X6824980Y-8021269D02*
G01*
X6844182Y-8020354D01*
X6863181Y-8017509D01*
X6881774Y-8012887D01*
X6899859Y-8006384D01*
X6917181Y-7998206D01*
X6933641Y-7988350D01*
X6949084Y-7976870D01*
X6963308Y-7964017D01*
X6976211Y-7949793D01*
X6987641Y-7934350D01*
X6997496Y-7917891D01*
X7005726Y-7900568D01*
X7012178Y-7882483D01*
X7016851Y-7863840D01*
X7019645Y-7844891D01*
X7020610Y-7825435D01*
X7020610Y-7546543D01*
X7019645Y-7527137D01*
X7016851Y-7508138D01*
X7012178Y-7489545D01*
X7005726Y-7471460D01*
X6997496Y-7454087D01*
X6987641Y-7437628D01*
X6976211Y-7422235D01*
X6963308Y-7408011D01*
X6949084Y-7395108D01*
X6933641Y-7383678D01*
X6917181Y-7373823D01*
X6899859Y-7365593D01*
X6881774Y-7359142D01*
X6863181Y-7354468D01*
X6844182Y-7351623D01*
X6824980Y-7350709D01*
X6805828Y-7351623D01*
X6786829Y-7354468D01*
X6768236Y-7359142D01*
X6750151Y-7365593D01*
X6732778Y-7373823D01*
X6716318Y-7383678D01*
X6700926Y-7395108D01*
X6686702Y-7408011D01*
X6673799Y-7422235D01*
X6662369Y-7437628D01*
X6652514Y-7454087D01*
X6644284Y-7471460D01*
X6637832Y-7489545D01*
X6633159Y-7508138D01*
X6630365Y-7527137D01*
X6629400Y-7546543D01*
X6629400Y-7825435D01*
X6630365Y-7844891D01*
X6633159Y-7863840D01*
X6637832Y-7882483D01*
X6644284Y-7900568D01*
X6652514Y-7917891D01*
X6662369Y-7934350D01*
X6673799Y-7949793D01*
X6686702Y-7964017D01*
X6700926Y-7976870D01*
X6716318Y-7988350D01*
X6732778Y-7998206D01*
X6750151Y-8006384D01*
X6768236Y-8012887D01*
X6786829Y-8017509D01*
X6805828Y-8020354D01*
G37*
G36*
X3781196Y-7975346D02*
G01*
X3798214Y-7975346D01*
X3815181Y-7973517D01*
X3831844Y-7969859D01*
X3847998Y-7964424D01*
X3863492Y-7957261D01*
X3878072Y-7948472D01*
X3891635Y-7938109D01*
X3904030Y-7926425D01*
X3915054Y-7913420D01*
X3924655Y-7899298D01*
X3932631Y-7884210D01*
X3938930Y-7868412D01*
X3943502Y-7851952D01*
X3946245Y-7835138D01*
X3947210Y-7818120D01*
X3946245Y-7801051D01*
X3943502Y-7784236D01*
X3938930Y-7767828D01*
X3932631Y-7751978D01*
X3924655Y-7736890D01*
X3915054Y-7722768D01*
X3904030Y-7709814D01*
X3891635Y-7698079D01*
X3878072Y-7687767D01*
X3863492Y-7678978D01*
X3847998Y-7671816D01*
X3831844Y-7666329D01*
X3815181Y-7662672D01*
X3798214Y-7660843D01*
X3781196Y-7660843D01*
X3764229Y-7662672D01*
X3747566Y-7666329D01*
X3731412Y-7671816D01*
X3715918Y-7678978D01*
X3701338Y-7687767D01*
X3687724Y-7698079D01*
X3675379Y-7709814D01*
X3664305Y-7722768D01*
X3654755Y-7736890D01*
X3646779Y-7751978D01*
X3640429Y-7767828D01*
X3635908Y-7784236D01*
X3633114Y-7801051D01*
X3632200Y-7818120D01*
X3633114Y-7835138D01*
X3635908Y-7851952D01*
X3640429Y-7868412D01*
X3646779Y-7884210D01*
X3654755Y-7899298D01*
X3664305Y-7913420D01*
X3675379Y-7926425D01*
X3687724Y-7938109D01*
X3701338Y-7948472D01*
X3715918Y-7957261D01*
X3731412Y-7964424D01*
X3747566Y-7969859D01*
X3764229Y-7973517D01*
G37*
G36*
X4720996Y-7975346D02*
G01*
X4738014Y-7975346D01*
X4754981Y-7973517D01*
X4771644Y-7969808D01*
X4787798Y-7964373D01*
X4803292Y-7957210D01*
X4817872Y-7948422D01*
X4831435Y-7938109D01*
X4843830Y-7926374D01*
X4854854Y-7913370D01*
X4864455Y-7899298D01*
X4872431Y-7884210D01*
X4878730Y-7868361D01*
X4883302Y-7851952D01*
X4886045Y-7835087D01*
X4887010Y-7818069D01*
X4886045Y-7801051D01*
X4883302Y-7784236D01*
X4878730Y-7767777D01*
X4872431Y-7751927D01*
X4864455Y-7736890D01*
X4854854Y-7722768D01*
X4843830Y-7709763D01*
X4831435Y-7698028D01*
X4817872Y-7687716D01*
X4803292Y-7678928D01*
X4787798Y-7671765D01*
X4771644Y-7666329D01*
X4754981Y-7662672D01*
X4738014Y-7660843D01*
X4720996Y-7660843D01*
X4704029Y-7662672D01*
X4687366Y-7666329D01*
X4671212Y-7671765D01*
X4655718Y-7678928D01*
X4641138Y-7687716D01*
X4627524Y-7698028D01*
X4615180Y-7709763D01*
X4604105Y-7722768D01*
X4594555Y-7736890D01*
X4586579Y-7751927D01*
X4580229Y-7767777D01*
X4575708Y-7784236D01*
X4572914Y-7801051D01*
X4572000Y-7818069D01*
X4572914Y-7835087D01*
X4575708Y-7851952D01*
X4580229Y-7868361D01*
X4586579Y-7884210D01*
X4594555Y-7899298D01*
X4604105Y-7913370D01*
X4615180Y-7926374D01*
X4627524Y-7938109D01*
X4641138Y-7948422D01*
X4655718Y-7957210D01*
X4671212Y-7964373D01*
X4687366Y-7969808D01*
X4704029Y-7973517D01*
G37*
G36*
X1694180Y-7945069D02*
G01*
X1713382Y-7944154D01*
X1732381Y-7941309D01*
X1750974Y-7936687D01*
X1769059Y-7930184D01*
X1786382Y-7922006D01*
X1802841Y-7912150D01*
X1818284Y-7900670D01*
X1832508Y-7887817D01*
X1845411Y-7873593D01*
X1856841Y-7858150D01*
X1866696Y-7841691D01*
X1874926Y-7824368D01*
X1881378Y-7806283D01*
X1886051Y-7787640D01*
X1888845Y-7768691D01*
X1889810Y-7749235D01*
X1889810Y-7470343D01*
X1888845Y-7450937D01*
X1886051Y-7431938D01*
X1881378Y-7413345D01*
X1874926Y-7395260D01*
X1866696Y-7377887D01*
X1856841Y-7361428D01*
X1845411Y-7346035D01*
X1832508Y-7331811D01*
X1818284Y-7318908D01*
X1802841Y-7307478D01*
X1786382Y-7297623D01*
X1769059Y-7289393D01*
X1750974Y-7282942D01*
X1732381Y-7278268D01*
X1713382Y-7275423D01*
X1694180Y-7274509D01*
X1675028Y-7275423D01*
X1656029Y-7278268D01*
X1637436Y-7282942D01*
X1619351Y-7289393D01*
X1601978Y-7297623D01*
X1585518Y-7307478D01*
X1570126Y-7318908D01*
X1555902Y-7331811D01*
X1542999Y-7346035D01*
X1531569Y-7361428D01*
X1521714Y-7377887D01*
X1513484Y-7395260D01*
X1507032Y-7413345D01*
X1502359Y-7431938D01*
X1499565Y-7450937D01*
X1498600Y-7470343D01*
X1498600Y-7749235D01*
X1499565Y-7768691D01*
X1502359Y-7787640D01*
X1507032Y-7806283D01*
X1513484Y-7824368D01*
X1521714Y-7841691D01*
X1531569Y-7858150D01*
X1542999Y-7873593D01*
X1555902Y-7887817D01*
X1570126Y-7900670D01*
X1585518Y-7912150D01*
X1601978Y-7922006D01*
X1619351Y-7930184D01*
X1637436Y-7936687D01*
X1656029Y-7941309D01*
X1675028Y-7944154D01*
G37*
G36*
X3781196Y-7634986D02*
G01*
X3798214Y-7634986D01*
X3815181Y-7633157D01*
X3831844Y-7629448D01*
X3847998Y-7624013D01*
X3863492Y-7616850D01*
X3878072Y-7608062D01*
X3891635Y-7597749D01*
X3904030Y-7586014D01*
X3915054Y-7573009D01*
X3924655Y-7558938D01*
X3932631Y-7543850D01*
X3938930Y-7528001D01*
X3943502Y-7511592D01*
X3946245Y-7494727D01*
X3947210Y-7477709D01*
X3946245Y-7460691D01*
X3943502Y-7443876D01*
X3938930Y-7427417D01*
X3932631Y-7411567D01*
X3924655Y-7396530D01*
X3915054Y-7382408D01*
X3904030Y-7369403D01*
X3891635Y-7357668D01*
X3878072Y-7347356D01*
X3863492Y-7338568D01*
X3847998Y-7331405D01*
X3831844Y-7325969D01*
X3815181Y-7322312D01*
X3798214Y-7320483D01*
X3781196Y-7320483D01*
X3764229Y-7322312D01*
X3747566Y-7325969D01*
X3731412Y-7331405D01*
X3715918Y-7338568D01*
X3701338Y-7347356D01*
X3687724Y-7357668D01*
X3675379Y-7369403D01*
X3664305Y-7382408D01*
X3654755Y-7396530D01*
X3646779Y-7411567D01*
X3640429Y-7427417D01*
X3635908Y-7443876D01*
X3633114Y-7460691D01*
X3632200Y-7477709D01*
X3633114Y-7494727D01*
X3635908Y-7511592D01*
X3640429Y-7528001D01*
X3646779Y-7543850D01*
X3654755Y-7558938D01*
X3664305Y-7573009D01*
X3675379Y-7586014D01*
X3687724Y-7597749D01*
X3701338Y-7608062D01*
X3715918Y-7616850D01*
X3731412Y-7624013D01*
X3747566Y-7629448D01*
X3764229Y-7633157D01*
G37*
G36*
X6067196Y-7634986D02*
G01*
X6084214Y-7634986D01*
X6101181Y-7633106D01*
X6117844Y-7629448D01*
X6133998Y-7624013D01*
X6149492Y-7616850D01*
X6164072Y-7608062D01*
X6177635Y-7597749D01*
X6190030Y-7586014D01*
X6201054Y-7573009D01*
X6210655Y-7558887D01*
X6218631Y-7543850D01*
X6224930Y-7528001D01*
X6229502Y-7511542D01*
X6232245Y-7494727D01*
X6233210Y-7477709D01*
X6232245Y-7460691D01*
X6229502Y-7443825D01*
X6224930Y-7427417D01*
X6218631Y-7411567D01*
X6210655Y-7396530D01*
X6201054Y-7382408D01*
X6190030Y-7369403D01*
X6177635Y-7357668D01*
X6164072Y-7347356D01*
X6149492Y-7338568D01*
X6133998Y-7331405D01*
X6117844Y-7325969D01*
X6101181Y-7322312D01*
X6084214Y-7320432D01*
X6067196Y-7320432D01*
X6050229Y-7322312D01*
X6033566Y-7325969D01*
X6017412Y-7331405D01*
X6001918Y-7338568D01*
X5987338Y-7347356D01*
X5973724Y-7357668D01*
X5961380Y-7369403D01*
X5950305Y-7382408D01*
X5940755Y-7396530D01*
X5932779Y-7411567D01*
X5926429Y-7427417D01*
X5921908Y-7443825D01*
X5919114Y-7460691D01*
X5918200Y-7477709D01*
X5919114Y-7494727D01*
X5921908Y-7511542D01*
X5926429Y-7528001D01*
X5932779Y-7543850D01*
X5940755Y-7558887D01*
X5950305Y-7573009D01*
X5961380Y-7586014D01*
X5973724Y-7597749D01*
X5987338Y-7608062D01*
X6001918Y-7616850D01*
X6017412Y-7624013D01*
X6033566Y-7629448D01*
X6050229Y-7633106D01*
G37*
G36*
X2434996Y-7634986D02*
G01*
X2452014Y-7634986D01*
X2468981Y-7633106D01*
X2485644Y-7629448D01*
X2501798Y-7624013D01*
X2517292Y-7616850D01*
X2531872Y-7608062D01*
X2545435Y-7597749D01*
X2557830Y-7586014D01*
X2568854Y-7573009D01*
X2578455Y-7558887D01*
X2586431Y-7543850D01*
X2592730Y-7528001D01*
X2597302Y-7511592D01*
X2600045Y-7494727D01*
X2601010Y-7477709D01*
X2600045Y-7460691D01*
X2597302Y-7443876D01*
X2592730Y-7427417D01*
X2586431Y-7411567D01*
X2578455Y-7396530D01*
X2568854Y-7382408D01*
X2557830Y-7369403D01*
X2545435Y-7357668D01*
X2531872Y-7347356D01*
X2517292Y-7338568D01*
X2501798Y-7331405D01*
X2485644Y-7325969D01*
X2468981Y-7322312D01*
X2452014Y-7320432D01*
X2434996Y-7320432D01*
X2418029Y-7322312D01*
X2401366Y-7325969D01*
X2385212Y-7331405D01*
X2369718Y-7338568D01*
X2355138Y-7347356D01*
X2341524Y-7357668D01*
X2329180Y-7369403D01*
X2318105Y-7382408D01*
X2308555Y-7396530D01*
X2300579Y-7411567D01*
X2294229Y-7427417D01*
X2289708Y-7443876D01*
X2286914Y-7460691D01*
X2286000Y-7477709D01*
X2286914Y-7494727D01*
X2289708Y-7511592D01*
X2294229Y-7528001D01*
X2300579Y-7543850D01*
X2308555Y-7558887D01*
X2318105Y-7573009D01*
X2329180Y-7586014D01*
X2341524Y-7597749D01*
X2355138Y-7608062D01*
X2369718Y-7616850D01*
X2385212Y-7624013D01*
X2401366Y-7629448D01*
X2418029Y-7633106D01*
G37*
G36*
X4720996Y-7634935D02*
G01*
X4738014Y-7634935D01*
X4754981Y-7633106D01*
X4771644Y-7629448D01*
X4787798Y-7624013D01*
X4803292Y-7616850D01*
X4817872Y-7608062D01*
X4831435Y-7597749D01*
X4843830Y-7586014D01*
X4854854Y-7573009D01*
X4864455Y-7558887D01*
X4872431Y-7543850D01*
X4878730Y-7528001D01*
X4883302Y-7511542D01*
X4886045Y-7494727D01*
X4887010Y-7477709D01*
X4886045Y-7460691D01*
X4883302Y-7443825D01*
X4878730Y-7427417D01*
X4872431Y-7411567D01*
X4864455Y-7396480D01*
X4854854Y-7382408D01*
X4843830Y-7369403D01*
X4831435Y-7357668D01*
X4817872Y-7347356D01*
X4803292Y-7338568D01*
X4787798Y-7331405D01*
X4771644Y-7325969D01*
X4754981Y-7322261D01*
X4738014Y-7320432D01*
X4720996Y-7320432D01*
X4704029Y-7322261D01*
X4687366Y-7325969D01*
X4671212Y-7331405D01*
X4655718Y-7338568D01*
X4641138Y-7347356D01*
X4627524Y-7357668D01*
X4615180Y-7369403D01*
X4604105Y-7382408D01*
X4594555Y-7396480D01*
X4586579Y-7411567D01*
X4580229Y-7427417D01*
X4575708Y-7443825D01*
X4572914Y-7460691D01*
X4572000Y-7477709D01*
X4572914Y-7494727D01*
X4575708Y-7511542D01*
X4580229Y-7528001D01*
X4586579Y-7543850D01*
X4594555Y-7558887D01*
X4604105Y-7573009D01*
X4615180Y-7586014D01*
X4627524Y-7597749D01*
X4641138Y-7608062D01*
X4655718Y-7616850D01*
X4671212Y-7624013D01*
X4687366Y-7629448D01*
X4704029Y-7633106D01*
G37*
G36*
X7705242Y-7230414D02*
G01*
X7726172Y-7228992D01*
X7746898Y-7225690D01*
X7767218Y-7220458D01*
X7786979Y-7213447D01*
X7806029Y-7204659D01*
X7824216Y-7194143D01*
X7841335Y-7182053D01*
X7857337Y-7168438D01*
X7871968Y-7153452D01*
X7885226Y-7137196D01*
X7896961Y-7119772D01*
X7907020Y-7101382D01*
X7915351Y-7082129D01*
X7921955Y-7062165D01*
X7926679Y-7041743D01*
X7929524Y-7020966D01*
X7930489Y-6999986D01*
X7929524Y-6979056D01*
X7926679Y-6958279D01*
X7921955Y-6937806D01*
X7915351Y-6917893D01*
X7907020Y-6898640D01*
X7896961Y-6880250D01*
X7885226Y-6862825D01*
X7871968Y-6846570D01*
X7857337Y-6831533D01*
X7841335Y-6817918D01*
X7824216Y-6805828D01*
X7806029Y-6795363D01*
X7786979Y-6786575D01*
X7767218Y-6779514D01*
X7746898Y-6774332D01*
X7726172Y-6770979D01*
X7705242Y-6769557D01*
X7684262Y-6770065D01*
X7663434Y-6772402D01*
X7642859Y-6776720D01*
X7622794Y-6782816D01*
X7603388Y-6790740D01*
X7584744Y-6800392D01*
X7567066Y-6811670D01*
X7550505Y-6824573D01*
X7535164Y-6838899D01*
X7521194Y-6854545D01*
X7508697Y-6871411D01*
X7497825Y-6889343D01*
X7488580Y-6908190D01*
X7481112Y-6927799D01*
X7475474Y-6947966D01*
X7471664Y-6968591D01*
X7469733Y-6989521D01*
X7469733Y-7010501D01*
X7471664Y-7031380D01*
X7475474Y-7052005D01*
X7481112Y-7072223D01*
X7488580Y-7091832D01*
X7497825Y-7110679D01*
X7508697Y-7128611D01*
X7521194Y-7145477D01*
X7535164Y-7161123D01*
X7550505Y-7175449D01*
X7567066Y-7188301D01*
X7584744Y-7199630D01*
X7603388Y-7209281D01*
X7622794Y-7217206D01*
X7642859Y-7223302D01*
X7663434Y-7227570D01*
X7684262Y-7229957D01*
G37*
G36*
X5307482Y-7110526D02*
G01*
X5426506Y-7110526D01*
X5432958Y-7109866D01*
X5438648Y-7108139D01*
X5443931Y-7105345D01*
X5448554Y-7101535D01*
X5452313Y-7096912D01*
X5455158Y-7091680D01*
X5456885Y-7085939D01*
X5457494Y-7079488D01*
X5457494Y-7050684D01*
X5458256Y-7046772D01*
X5460492Y-7043470D01*
X5463794Y-7041286D01*
X5467654Y-7040524D01*
X5703316Y-7040524D01*
X5707227Y-7041286D01*
X5710529Y-7043470D01*
X5712714Y-7046772D01*
X5713476Y-7050684D01*
X5713476Y-7074509D01*
X5714136Y-7080961D01*
X5715863Y-7086650D01*
X5718657Y-7091934D01*
X5722467Y-7096556D01*
X5727090Y-7100316D01*
X5732322Y-7103160D01*
X5738063Y-7104888D01*
X5744464Y-7105497D01*
X5893511Y-7105497D01*
X5899912Y-7104888D01*
X5905652Y-7103160D01*
X5910884Y-7100316D01*
X5915507Y-7096556D01*
X5919317Y-7091934D01*
X5922111Y-7086650D01*
X5923838Y-7080961D01*
X5924499Y-7074509D01*
X5924499Y-6895490D01*
X5923838Y-6889038D01*
X5922111Y-6883349D01*
X5919317Y-6878066D01*
X5915507Y-6873443D01*
X5910884Y-6869684D01*
X5905652Y-6866839D01*
X5899912Y-6865112D01*
X5893511Y-6864502D01*
X5744464Y-6864502D01*
X5738063Y-6865112D01*
X5732322Y-6866839D01*
X5727090Y-6869684D01*
X5722467Y-6873443D01*
X5718657Y-6878066D01*
X5715863Y-6883349D01*
X5714136Y-6889038D01*
X5713476Y-6895490D01*
X5713476Y-6919315D01*
X5712714Y-6923227D01*
X5710529Y-6926529D01*
X5707227Y-6928713D01*
X5703316Y-6929475D01*
X5467654Y-6929475D01*
X5463794Y-6928713D01*
X5460492Y-6926529D01*
X5458256Y-6923227D01*
X5457494Y-6919315D01*
X5457494Y-6890512D01*
X5456885Y-6884060D01*
X5455158Y-6878320D01*
X5452313Y-6873087D01*
X5448554Y-6868464D01*
X5443931Y-6864654D01*
X5438648Y-6861860D01*
X5432958Y-6860133D01*
X5426506Y-6859473D01*
X5307482Y-6859473D01*
X5301030Y-6860133D01*
X5295341Y-6861860D01*
X5290058Y-6864654D01*
X5285486Y-6868464D01*
X5281676Y-6873087D01*
X5278882Y-6878320D01*
X5277104Y-6884060D01*
X5276494Y-6890512D01*
X5276494Y-7079488D01*
X5277104Y-7085939D01*
X5278882Y-7091680D01*
X5281676Y-7096912D01*
X5285486Y-7101535D01*
X5290058Y-7105345D01*
X5295341Y-7108139D01*
X5301030Y-7109866D01*
G37*
G36*
X6044488Y-7105497D02*
G01*
X6193485Y-7105497D01*
X6199936Y-7104888D01*
X6205626Y-7103160D01*
X6210909Y-7100316D01*
X6215532Y-7096556D01*
X6219291Y-7091934D01*
X6222136Y-7086650D01*
X6223863Y-7080961D01*
X6224473Y-7074509D01*
X6224473Y-6895490D01*
X6223863Y-6889038D01*
X6222136Y-6883349D01*
X6219291Y-6878066D01*
X6215532Y-6873443D01*
X6210909Y-6869684D01*
X6205626Y-6866839D01*
X6199936Y-6865112D01*
X6193485Y-6864502D01*
X6184646Y-6864502D01*
X6180785Y-6863740D01*
X6177483Y-6861505D01*
X6175298Y-6858203D01*
X6174486Y-6854342D01*
X6174486Y-6548475D01*
X6175349Y-6544462D01*
X6177686Y-6541109D01*
X6190030Y-6529374D01*
X6201054Y-6516370D01*
X6210655Y-6502298D01*
X6218631Y-6487210D01*
X6224930Y-6471361D01*
X6229502Y-6454952D01*
X6232245Y-6438087D01*
X6233210Y-6421069D01*
X6232245Y-6404051D01*
X6229502Y-6387236D01*
X6224930Y-6370777D01*
X6218631Y-6354978D01*
X6210655Y-6339890D01*
X6201054Y-6325768D01*
X6190030Y-6312763D01*
X6177635Y-6301028D01*
X6164072Y-6290716D01*
X6149492Y-6281928D01*
X6133998Y-6274765D01*
X6117844Y-6269329D01*
X6101181Y-6265672D01*
X6084214Y-6263843D01*
X6067196Y-6263843D01*
X6050229Y-6265672D01*
X6033566Y-6269329D01*
X6017412Y-6274765D01*
X6001918Y-6281928D01*
X5987338Y-6290716D01*
X5973724Y-6301028D01*
X5961380Y-6312763D01*
X5950305Y-6325768D01*
X5940755Y-6339890D01*
X5932779Y-6354978D01*
X5926429Y-6370777D01*
X5921908Y-6387236D01*
X5919114Y-6404051D01*
X5918200Y-6421069D01*
X5919114Y-6438087D01*
X5921908Y-6454952D01*
X5926429Y-6471361D01*
X5932779Y-6487210D01*
X5940755Y-6502298D01*
X5950305Y-6516370D01*
X5961380Y-6529374D01*
X5973724Y-6541109D01*
X5987338Y-6551422D01*
X6001918Y-6560210D01*
X6017412Y-6567373D01*
X6033566Y-6572859D01*
X6050229Y-6576517D01*
X6054445Y-6576974D01*
X6057950Y-6578041D01*
X6060897Y-6580276D01*
X6062827Y-6583425D01*
X6063488Y-6587083D01*
X6063488Y-6854342D01*
X6062726Y-6858203D01*
X6060541Y-6861505D01*
X6057239Y-6863740D01*
X6053328Y-6864502D01*
X6044488Y-6864502D01*
X6038037Y-6865112D01*
X6032347Y-6866839D01*
X6027064Y-6869684D01*
X6022441Y-6873443D01*
X6018682Y-6878066D01*
X6015837Y-6883349D01*
X6014110Y-6889038D01*
X6013500Y-6895490D01*
X6013500Y-7074509D01*
X6014110Y-7080961D01*
X6015837Y-7086650D01*
X6018682Y-7091934D01*
X6022441Y-7096556D01*
X6027064Y-7100316D01*
X6032347Y-7103160D01*
X6038037Y-7104888D01*
G37*
G36*
X3151124Y-7011416D02*
G01*
X3270097Y-7011416D01*
X3276549Y-7010755D01*
X3282238Y-7009028D01*
X3287522Y-7006234D01*
X3292144Y-7002424D01*
X3295904Y-6997801D01*
X3298748Y-6992569D01*
X3300476Y-6986828D01*
X3301085Y-6980377D01*
X3301085Y-6791401D01*
X3300476Y-6784949D01*
X3298748Y-6779259D01*
X3295904Y-6773976D01*
X3292144Y-6769353D01*
X3287522Y-6765594D01*
X3282238Y-6762750D01*
X3276549Y-6761022D01*
X3270097Y-6760413D01*
X3151124Y-6760413D01*
X3144672Y-6761022D01*
X3138932Y-6762750D01*
X3133699Y-6765594D01*
X3129076Y-6769353D01*
X3125266Y-6773976D01*
X3122472Y-6779259D01*
X3120745Y-6784949D01*
X3120085Y-6791401D01*
X3120085Y-6820255D01*
X3119323Y-6824116D01*
X3117138Y-6827418D01*
X3113836Y-6829602D01*
X3109925Y-6830415D01*
X2874264Y-6830415D01*
X2870403Y-6829602D01*
X2867101Y-6827418D01*
X2864916Y-6824116D01*
X2864104Y-6820255D01*
X2864104Y-6796379D01*
X2863494Y-6789978D01*
X2861767Y-6784238D01*
X2858922Y-6778955D01*
X2855163Y-6774383D01*
X2850540Y-6770573D01*
X2845257Y-6767779D01*
X2839567Y-6766052D01*
X2833116Y-6765391D01*
X2684119Y-6765391D01*
X2677668Y-6766052D01*
X2671978Y-6767779D01*
X2666695Y-6770573D01*
X2662072Y-6774383D01*
X2658313Y-6778955D01*
X2655468Y-6784238D01*
X2653741Y-6789978D01*
X2653131Y-6796379D01*
X2653131Y-6975398D01*
X2653741Y-6981850D01*
X2655468Y-6987540D01*
X2658313Y-6992823D01*
X2662072Y-6997446D01*
X2666695Y-7001205D01*
X2671978Y-7004050D01*
X2677668Y-7005777D01*
X2684119Y-7006386D01*
X2833116Y-7006386D01*
X2839567Y-7005777D01*
X2845257Y-7004050D01*
X2850540Y-7001205D01*
X2855163Y-6997446D01*
X2858922Y-6992823D01*
X2861767Y-6987540D01*
X2863494Y-6981850D01*
X2864104Y-6975398D01*
X2864104Y-6951573D01*
X2864916Y-6947662D01*
X2867101Y-6944359D01*
X2870403Y-6942175D01*
X2874264Y-6941413D01*
X3109925Y-6941413D01*
X3113836Y-6942175D01*
X3117138Y-6944359D01*
X3119323Y-6947662D01*
X3120085Y-6951573D01*
X3120085Y-6980377D01*
X3120745Y-6986828D01*
X3122472Y-6992569D01*
X3125266Y-6997801D01*
X3129076Y-7002424D01*
X3133699Y-7006234D01*
X3138932Y-7009028D01*
X3144672Y-7010755D01*
G37*
G36*
X2384094Y-7006386D02*
G01*
X2533091Y-7006386D01*
X2539542Y-7005777D01*
X2545283Y-7004050D01*
X2550515Y-7001205D01*
X2555138Y-6997446D01*
X2558948Y-6992823D01*
X2561742Y-6987540D01*
X2563469Y-6981850D01*
X2564130Y-6975398D01*
X2564130Y-6796379D01*
X2563469Y-6789978D01*
X2561742Y-6784238D01*
X2558948Y-6778955D01*
X2555138Y-6774383D01*
X2550515Y-6770573D01*
X2545283Y-6767779D01*
X2539542Y-6766052D01*
X2533091Y-6765391D01*
X2524252Y-6765391D01*
X2520391Y-6764629D01*
X2517089Y-6762394D01*
X2514904Y-6759143D01*
X2514092Y-6755231D01*
X2514092Y-6567881D01*
X2514701Y-6564477D01*
X2516428Y-6561429D01*
X2519019Y-6559194D01*
X2531872Y-6551472D01*
X2545435Y-6541109D01*
X2557830Y-6529425D01*
X2568854Y-6516420D01*
X2578455Y-6502298D01*
X2586431Y-6487210D01*
X2592730Y-6471361D01*
X2597302Y-6454952D01*
X2600045Y-6438138D01*
X2601010Y-6421120D01*
X2600045Y-6404051D01*
X2597302Y-6387236D01*
X2592730Y-6370828D01*
X2586431Y-6354978D01*
X2578455Y-6339890D01*
X2568854Y-6325768D01*
X2557830Y-6312763D01*
X2545435Y-6301079D01*
X2531872Y-6290716D01*
X2517292Y-6281928D01*
X2501798Y-6274765D01*
X2485644Y-6269329D01*
X2468981Y-6265672D01*
X2452014Y-6263843D01*
X2434996Y-6263843D01*
X2418029Y-6265672D01*
X2401366Y-6269329D01*
X2385212Y-6274765D01*
X2369718Y-6281928D01*
X2355138Y-6290716D01*
X2341524Y-6301079D01*
X2329180Y-6312763D01*
X2318105Y-6325768D01*
X2308555Y-6339890D01*
X2300579Y-6354978D01*
X2294229Y-6370828D01*
X2289708Y-6387236D01*
X2286914Y-6404051D01*
X2286000Y-6421120D01*
X2286914Y-6438138D01*
X2289708Y-6454952D01*
X2294229Y-6471361D01*
X2300579Y-6487210D01*
X2308555Y-6502298D01*
X2318105Y-6516420D01*
X2329180Y-6529425D01*
X2341524Y-6541109D01*
X2355138Y-6551472D01*
X2369718Y-6560261D01*
X2385212Y-6567424D01*
X2396185Y-6571081D01*
X2399792Y-6573215D01*
X2402230Y-6576618D01*
X2403094Y-6580733D01*
X2403094Y-6755231D01*
X2402332Y-6759143D01*
X2400096Y-6762394D01*
X2396845Y-6764629D01*
X2392934Y-6765391D01*
X2384094Y-6765391D01*
X2377694Y-6766052D01*
X2371953Y-6767779D01*
X2366670Y-6770573D01*
X2362098Y-6774383D01*
X2358288Y-6778955D01*
X2355494Y-6784238D01*
X2353767Y-6789978D01*
X2353106Y-6796379D01*
X2353106Y-6975398D01*
X2353767Y-6981850D01*
X2355494Y-6987540D01*
X2358288Y-6992823D01*
X2362098Y-6997446D01*
X2366670Y-7001205D01*
X2371953Y-7004050D01*
X2377694Y-7005777D01*
G37*
G36*
X6824980Y-6624269D02*
G01*
X6844182Y-6623354D01*
X6863181Y-6620509D01*
X6881774Y-6615887D01*
X6899859Y-6609384D01*
X6917181Y-6601206D01*
X6933641Y-6591350D01*
X6949084Y-6579870D01*
X6963308Y-6567017D01*
X6976211Y-6552793D01*
X6987641Y-6537350D01*
X6997496Y-6520891D01*
X7005726Y-6503568D01*
X7012178Y-6485483D01*
X7016851Y-6466840D01*
X7019645Y-6447891D01*
X7020610Y-6428435D01*
X7020610Y-6149543D01*
X7019645Y-6130137D01*
X7016851Y-6111138D01*
X7012178Y-6092545D01*
X7005726Y-6074460D01*
X6997496Y-6057087D01*
X6987641Y-6040628D01*
X6976211Y-6025235D01*
X6963308Y-6011011D01*
X6949084Y-5998108D01*
X6933641Y-5986678D01*
X6917181Y-5976823D01*
X6899859Y-5968593D01*
X6881774Y-5962142D01*
X6863181Y-5957468D01*
X6844182Y-5954623D01*
X6824980Y-5953709D01*
X6805828Y-5954623D01*
X6786829Y-5957468D01*
X6768236Y-5962142D01*
X6750151Y-5968593D01*
X6732778Y-5976823D01*
X6716318Y-5986678D01*
X6700926Y-5998108D01*
X6686702Y-6011011D01*
X6673799Y-6025235D01*
X6662369Y-6040628D01*
X6652514Y-6057087D01*
X6644284Y-6074460D01*
X6637832Y-6092545D01*
X6633159Y-6111138D01*
X6630365Y-6130137D01*
X6629400Y-6149543D01*
X6629400Y-6428435D01*
X6630365Y-6447891D01*
X6633159Y-6466840D01*
X6637832Y-6485483D01*
X6644284Y-6503568D01*
X6652514Y-6520891D01*
X6662369Y-6537350D01*
X6673799Y-6552793D01*
X6686702Y-6567017D01*
X6700926Y-6579870D01*
X6716318Y-6591350D01*
X6732778Y-6601206D01*
X6750151Y-6609384D01*
X6768236Y-6615887D01*
X6786829Y-6620509D01*
X6805828Y-6623354D01*
G37*
G36*
X3781196Y-6578346D02*
G01*
X3798214Y-6578346D01*
X3815181Y-6576517D01*
X3831844Y-6572859D01*
X3847998Y-6567424D01*
X3863492Y-6560261D01*
X3878072Y-6551472D01*
X3891635Y-6541109D01*
X3904030Y-6529425D01*
X3915054Y-6516420D01*
X3924655Y-6502298D01*
X3932631Y-6487210D01*
X3938930Y-6471412D01*
X3943502Y-6454952D01*
X3946245Y-6438138D01*
X3947210Y-6421120D01*
X3946245Y-6404051D01*
X3943502Y-6387236D01*
X3938930Y-6370828D01*
X3932631Y-6354978D01*
X3924655Y-6339890D01*
X3915054Y-6325768D01*
X3904030Y-6312814D01*
X3891635Y-6301079D01*
X3878072Y-6290767D01*
X3863492Y-6281978D01*
X3847998Y-6274816D01*
X3831844Y-6269329D01*
X3815181Y-6265672D01*
X3798214Y-6263843D01*
X3781196Y-6263843D01*
X3764229Y-6265672D01*
X3747566Y-6269329D01*
X3731412Y-6274816D01*
X3715918Y-6281978D01*
X3701338Y-6290767D01*
X3687724Y-6301079D01*
X3675379Y-6312814D01*
X3664305Y-6325768D01*
X3654755Y-6339890D01*
X3646779Y-6354978D01*
X3640429Y-6370828D01*
X3635908Y-6387236D01*
X3633114Y-6404051D01*
X3632200Y-6421120D01*
X3633114Y-6438138D01*
X3635908Y-6454952D01*
X3640429Y-6471412D01*
X3646779Y-6487210D01*
X3654755Y-6502298D01*
X3664305Y-6516420D01*
X3675379Y-6529425D01*
X3687724Y-6541109D01*
X3701338Y-6551472D01*
X3715918Y-6560261D01*
X3731412Y-6567424D01*
X3747566Y-6572859D01*
X3764229Y-6576517D01*
G37*
G36*
X4720996Y-6578346D02*
G01*
X4738014Y-6578346D01*
X4754981Y-6576517D01*
X4771644Y-6572808D01*
X4787798Y-6567373D01*
X4803292Y-6560210D01*
X4817872Y-6551422D01*
X4831435Y-6541109D01*
X4843830Y-6529374D01*
X4854854Y-6516370D01*
X4864455Y-6502298D01*
X4872431Y-6487210D01*
X4878730Y-6471361D01*
X4883302Y-6454952D01*
X4886045Y-6438087D01*
X4887010Y-6421069D01*
X4886045Y-6404051D01*
X4883302Y-6387236D01*
X4878730Y-6370777D01*
X4872431Y-6354927D01*
X4864455Y-6339890D01*
X4854854Y-6325768D01*
X4843830Y-6312763D01*
X4831435Y-6301028D01*
X4817872Y-6290716D01*
X4803292Y-6281928D01*
X4787798Y-6274765D01*
X4771644Y-6269329D01*
X4754981Y-6265672D01*
X4738014Y-6263843D01*
X4720996Y-6263843D01*
X4704029Y-6265672D01*
X4687366Y-6269329D01*
X4671212Y-6274765D01*
X4655718Y-6281928D01*
X4641138Y-6290716D01*
X4627524Y-6301028D01*
X4615180Y-6312763D01*
X4604105Y-6325768D01*
X4594555Y-6339890D01*
X4586579Y-6354927D01*
X4580229Y-6370777D01*
X4575708Y-6387236D01*
X4572914Y-6404051D01*
X4572000Y-6421069D01*
X4572914Y-6438087D01*
X4575708Y-6454952D01*
X4580229Y-6471361D01*
X4586579Y-6487210D01*
X4594555Y-6502298D01*
X4604105Y-6516370D01*
X4615180Y-6529374D01*
X4627524Y-6541109D01*
X4641138Y-6551422D01*
X4655718Y-6560210D01*
X4671212Y-6567373D01*
X4687366Y-6572808D01*
X4704029Y-6576517D01*
G37*
G36*
X1694180Y-6548069D02*
G01*
X1713382Y-6547154D01*
X1732381Y-6544309D01*
X1750974Y-6539687D01*
X1769059Y-6533184D01*
X1786382Y-6525006D01*
X1802841Y-6515150D01*
X1818284Y-6503670D01*
X1832508Y-6490817D01*
X1845411Y-6476593D01*
X1856841Y-6461150D01*
X1866696Y-6444691D01*
X1874926Y-6427368D01*
X1881378Y-6409283D01*
X1886051Y-6390640D01*
X1888845Y-6371691D01*
X1889810Y-6352235D01*
X1889810Y-6073343D01*
X1888845Y-6053937D01*
X1886051Y-6034938D01*
X1881378Y-6016345D01*
X1874926Y-5998260D01*
X1866696Y-5980887D01*
X1856841Y-5964428D01*
X1845411Y-5949035D01*
X1832508Y-5934811D01*
X1818284Y-5921908D01*
X1802841Y-5910478D01*
X1786382Y-5900623D01*
X1769059Y-5892393D01*
X1750974Y-5885942D01*
X1732381Y-5881268D01*
X1713382Y-5878423D01*
X1694180Y-5877509D01*
X1675028Y-5878423D01*
X1656029Y-5881268D01*
X1637436Y-5885942D01*
X1619351Y-5892393D01*
X1601978Y-5900623D01*
X1585518Y-5910478D01*
X1570126Y-5921908D01*
X1555902Y-5934811D01*
X1542999Y-5949035D01*
X1531569Y-5964428D01*
X1521714Y-5980887D01*
X1513484Y-5998260D01*
X1507032Y-6016345D01*
X1502359Y-6034938D01*
X1499565Y-6053937D01*
X1498600Y-6073343D01*
X1498600Y-6352235D01*
X1499565Y-6371691D01*
X1502359Y-6390640D01*
X1507032Y-6409283D01*
X1513484Y-6427368D01*
X1521714Y-6444691D01*
X1531569Y-6461150D01*
X1542999Y-6476593D01*
X1555902Y-6490817D01*
X1570126Y-6503670D01*
X1585518Y-6515150D01*
X1601978Y-6525006D01*
X1619351Y-6533184D01*
X1637436Y-6539687D01*
X1656029Y-6544309D01*
X1675028Y-6547154D01*
G37*
G36*
X3781196Y-6237986D02*
G01*
X3798214Y-6237986D01*
X3815181Y-6236157D01*
X3831844Y-6232448D01*
X3847998Y-6227013D01*
X3863492Y-6219850D01*
X3878072Y-6211062D01*
X3891635Y-6200749D01*
X3904030Y-6189014D01*
X3915054Y-6176010D01*
X3924655Y-6161938D01*
X3932631Y-6146850D01*
X3938930Y-6131001D01*
X3943502Y-6114592D01*
X3946245Y-6097727D01*
X3947210Y-6080709D01*
X3946245Y-6063691D01*
X3943502Y-6046876D01*
X3938930Y-6030417D01*
X3932631Y-6014567D01*
X3924655Y-5999530D01*
X3915054Y-5985408D01*
X3904030Y-5972403D01*
X3891635Y-5960668D01*
X3878072Y-5950356D01*
X3863492Y-5941568D01*
X3847998Y-5934405D01*
X3831844Y-5928969D01*
X3815181Y-5925312D01*
X3798214Y-5923483D01*
X3781196Y-5923483D01*
X3764229Y-5925312D01*
X3747566Y-5928969D01*
X3731412Y-5934405D01*
X3715918Y-5941568D01*
X3701338Y-5950356D01*
X3687724Y-5960668D01*
X3675379Y-5972403D01*
X3664305Y-5985408D01*
X3654755Y-5999530D01*
X3646779Y-6014567D01*
X3640429Y-6030417D01*
X3635908Y-6046876D01*
X3633114Y-6063691D01*
X3632200Y-6080709D01*
X3633114Y-6097727D01*
X3635908Y-6114592D01*
X3640429Y-6131001D01*
X3646779Y-6146850D01*
X3654755Y-6161938D01*
X3664305Y-6176010D01*
X3675379Y-6189014D01*
X3687724Y-6200749D01*
X3701338Y-6211062D01*
X3715918Y-6219850D01*
X3731412Y-6227013D01*
X3747566Y-6232448D01*
X3764229Y-6236157D01*
G37*
G36*
X2434996Y-6237986D02*
G01*
X2452014Y-6237986D01*
X2468981Y-6236106D01*
X2485644Y-6232448D01*
X2501798Y-6227013D01*
X2517292Y-6219850D01*
X2531872Y-6211062D01*
X2545435Y-6200749D01*
X2557830Y-6189014D01*
X2568854Y-6176010D01*
X2578455Y-6161887D01*
X2586431Y-6146850D01*
X2592730Y-6131001D01*
X2597302Y-6114592D01*
X2600045Y-6097727D01*
X2601010Y-6080709D01*
X2600045Y-6063691D01*
X2597302Y-6046876D01*
X2592730Y-6030417D01*
X2586431Y-6014567D01*
X2578455Y-5999530D01*
X2568854Y-5985408D01*
X2557830Y-5972403D01*
X2545435Y-5960668D01*
X2531872Y-5950356D01*
X2517292Y-5941568D01*
X2501798Y-5934405D01*
X2485644Y-5928969D01*
X2468981Y-5925312D01*
X2452014Y-5923432D01*
X2434996Y-5923432D01*
X2418029Y-5925312D01*
X2401366Y-5928969D01*
X2385212Y-5934405D01*
X2369718Y-5941568D01*
X2355138Y-5950356D01*
X2341524Y-5960668D01*
X2329180Y-5972403D01*
X2318105Y-5985408D01*
X2308555Y-5999530D01*
X2300579Y-6014567D01*
X2294229Y-6030417D01*
X2289708Y-6046876D01*
X2286914Y-6063691D01*
X2286000Y-6080709D01*
X2286914Y-6097727D01*
X2289708Y-6114592D01*
X2294229Y-6131001D01*
X2300579Y-6146850D01*
X2308555Y-6161887D01*
X2318105Y-6176010D01*
X2329180Y-6189014D01*
X2341524Y-6200749D01*
X2355138Y-6211062D01*
X2369718Y-6219850D01*
X2385212Y-6227013D01*
X2401366Y-6232448D01*
X2418029Y-6236106D01*
G37*
G36*
X6067196Y-6237986D02*
G01*
X6084214Y-6237986D01*
X6101181Y-6236106D01*
X6117844Y-6232448D01*
X6133998Y-6227013D01*
X6149492Y-6219850D01*
X6164072Y-6211062D01*
X6177635Y-6200749D01*
X6190030Y-6189014D01*
X6201054Y-6176010D01*
X6210655Y-6161887D01*
X6218631Y-6146850D01*
X6224930Y-6131001D01*
X6229502Y-6114542D01*
X6232245Y-6097727D01*
X6233210Y-6080709D01*
X6232245Y-6063691D01*
X6229502Y-6046825D01*
X6224930Y-6030417D01*
X6218631Y-6014567D01*
X6210655Y-5999530D01*
X6201054Y-5985408D01*
X6190030Y-5972403D01*
X6177635Y-5960668D01*
X6164072Y-5950356D01*
X6149492Y-5941568D01*
X6133998Y-5934405D01*
X6117844Y-5928969D01*
X6101181Y-5925312D01*
X6084214Y-5923432D01*
X6067196Y-5923432D01*
X6050229Y-5925312D01*
X6033566Y-5928969D01*
X6017412Y-5934405D01*
X6001918Y-5941568D01*
X5987338Y-5950356D01*
X5973724Y-5960668D01*
X5961380Y-5972403D01*
X5950305Y-5985408D01*
X5940755Y-5999530D01*
X5932779Y-6014567D01*
X5926429Y-6030417D01*
X5921908Y-6046825D01*
X5919114Y-6063691D01*
X5918200Y-6080709D01*
X5919114Y-6097727D01*
X5921908Y-6114542D01*
X5926429Y-6131001D01*
X5932779Y-6146850D01*
X5940755Y-6161887D01*
X5950305Y-6176010D01*
X5961380Y-6189014D01*
X5973724Y-6200749D01*
X5987338Y-6211062D01*
X6001918Y-6219850D01*
X6017412Y-6227013D01*
X6033566Y-6232448D01*
X6050229Y-6236106D01*
G37*
G36*
X4720996Y-6237935D02*
G01*
X4738014Y-6237935D01*
X4754981Y-6236106D01*
X4771644Y-6232448D01*
X4787798Y-6227013D01*
X4803292Y-6219850D01*
X4817872Y-6211062D01*
X4831435Y-6200749D01*
X4843830Y-6189014D01*
X4854854Y-6176010D01*
X4864455Y-6161887D01*
X4872431Y-6146850D01*
X4878730Y-6131001D01*
X4883302Y-6114542D01*
X4886045Y-6097727D01*
X4887010Y-6080709D01*
X4886045Y-6063691D01*
X4883302Y-6046825D01*
X4878730Y-6030417D01*
X4872431Y-6014567D01*
X4864455Y-5999480D01*
X4854854Y-5985408D01*
X4843830Y-5972403D01*
X4831435Y-5960668D01*
X4817872Y-5950356D01*
X4803292Y-5941568D01*
X4787798Y-5934405D01*
X4771644Y-5928969D01*
X4754981Y-5925261D01*
X4738014Y-5923432D01*
X4720996Y-5923432D01*
X4704029Y-5925261D01*
X4687366Y-5928969D01*
X4671212Y-5934405D01*
X4655718Y-5941568D01*
X4641138Y-5950356D01*
X4627524Y-5960668D01*
X4615180Y-5972403D01*
X4604105Y-5985408D01*
X4594555Y-5999480D01*
X4586579Y-6014567D01*
X4580229Y-6030417D01*
X4575708Y-6046825D01*
X4572914Y-6063691D01*
X4572000Y-6080709D01*
X4572914Y-6097727D01*
X4575708Y-6114542D01*
X4580229Y-6131001D01*
X4586579Y-6146850D01*
X4594555Y-6161887D01*
X4604105Y-6176010D01*
X4615180Y-6189014D01*
X4627524Y-6200749D01*
X4641138Y-6211062D01*
X4655718Y-6219850D01*
X4671212Y-6227013D01*
X4687366Y-6232448D01*
X4704029Y-6236106D01*
G37*
G36*
X805230Y-5730443D02*
G01*
X826160Y-5729020D01*
X846886Y-5725668D01*
X867206Y-5720486D01*
X887018Y-5713425D01*
X906068Y-5704636D01*
X924204Y-5694172D01*
X941374Y-5682081D01*
X957326Y-5668467D01*
X972007Y-5653430D01*
X985215Y-5637174D01*
X996950Y-5619750D01*
X1007008Y-5601360D01*
X1015390Y-5582107D01*
X1021943Y-5562193D01*
X1026668Y-5541721D01*
X1029563Y-5520944D01*
X1030478Y-5500014D01*
X1029563Y-5479034D01*
X1026668Y-5458256D01*
X1021943Y-5437835D01*
X1015390Y-5417870D01*
X1007008Y-5398617D01*
X996950Y-5380228D01*
X985215Y-5362803D01*
X972007Y-5346547D01*
X957326Y-5331561D01*
X941374Y-5317947D01*
X924204Y-5305856D01*
X906068Y-5295341D01*
X887018Y-5286552D01*
X867206Y-5279542D01*
X846886Y-5274310D01*
X826160Y-5271008D01*
X805230Y-5269585D01*
X784250Y-5270042D01*
X763422Y-5272430D01*
X742899Y-5276697D01*
X722833Y-5282793D01*
X703376Y-5290718D01*
X684733Y-5300370D01*
X667054Y-5311698D01*
X650494Y-5324551D01*
X635152Y-5338876D01*
X621182Y-5354523D01*
X608736Y-5371388D01*
X597814Y-5389321D01*
X588568Y-5408168D01*
X581101Y-5427776D01*
X575462Y-5447995D01*
X571652Y-5468620D01*
X569722Y-5489498D01*
X569722Y-5510479D01*
X571652Y-5531408D01*
X575462Y-5552033D01*
X581101Y-5572201D01*
X588568Y-5591810D01*
X597814Y-5610656D01*
X608736Y-5628589D01*
X621182Y-5645454D01*
X635152Y-5661101D01*
X650494Y-5675426D01*
X667054Y-5688330D01*
X684733Y-5699607D01*
X703376Y-5709259D01*
X722833Y-5717184D01*
X742899Y-5723280D01*
X763422Y-5727598D01*
X784250Y-5729935D01*
G37*
G36*
X5307482Y-5713526D02*
G01*
X5426506Y-5713526D01*
X5432958Y-5712866D01*
X5438648Y-5711139D01*
X5443931Y-5708345D01*
X5448554Y-5704535D01*
X5452313Y-5699912D01*
X5455158Y-5694680D01*
X5456885Y-5688939D01*
X5457494Y-5682488D01*
X5457494Y-5653684D01*
X5458256Y-5649772D01*
X5460492Y-5646470D01*
X5463794Y-5644286D01*
X5467654Y-5643524D01*
X5703316Y-5643524D01*
X5707227Y-5644286D01*
X5710529Y-5646470D01*
X5712714Y-5649772D01*
X5713476Y-5653684D01*
X5713476Y-5677509D01*
X5714136Y-5683961D01*
X5715863Y-5689650D01*
X5718657Y-5694934D01*
X5722467Y-5699556D01*
X5727090Y-5703316D01*
X5732322Y-5706160D01*
X5738063Y-5707888D01*
X5744464Y-5708497D01*
X5893511Y-5708497D01*
X5899912Y-5707888D01*
X5905652Y-5706160D01*
X5910884Y-5703316D01*
X5915507Y-5699556D01*
X5919317Y-5694934D01*
X5922111Y-5689650D01*
X5923838Y-5683961D01*
X5924499Y-5677509D01*
X5924499Y-5498490D01*
X5923838Y-5492038D01*
X5922111Y-5486349D01*
X5919317Y-5481066D01*
X5915507Y-5476443D01*
X5910884Y-5472684D01*
X5905652Y-5469839D01*
X5899912Y-5468112D01*
X5893511Y-5467502D01*
X5744464Y-5467502D01*
X5738063Y-5468112D01*
X5732322Y-5469839D01*
X5727090Y-5472684D01*
X5722467Y-5476443D01*
X5718657Y-5481066D01*
X5715863Y-5486349D01*
X5714136Y-5492038D01*
X5713476Y-5498490D01*
X5713476Y-5522315D01*
X5712714Y-5526227D01*
X5710529Y-5529529D01*
X5707227Y-5531713D01*
X5703316Y-5532475D01*
X5467654Y-5532475D01*
X5463794Y-5531713D01*
X5460492Y-5529529D01*
X5458256Y-5526227D01*
X5457494Y-5522315D01*
X5457494Y-5493512D01*
X5456885Y-5487060D01*
X5455158Y-5481320D01*
X5452313Y-5476087D01*
X5448554Y-5471464D01*
X5443931Y-5467654D01*
X5438648Y-5464860D01*
X5432958Y-5463133D01*
X5426506Y-5462473D01*
X5307482Y-5462473D01*
X5301030Y-5463133D01*
X5295341Y-5464860D01*
X5290058Y-5467654D01*
X5285486Y-5471464D01*
X5281676Y-5476087D01*
X5278882Y-5481320D01*
X5277104Y-5487060D01*
X5276494Y-5493512D01*
X5276494Y-5682488D01*
X5277104Y-5688939D01*
X5278882Y-5694680D01*
X5281676Y-5699912D01*
X5285486Y-5704535D01*
X5290058Y-5708345D01*
X5295341Y-5711139D01*
X5301030Y-5712866D01*
G37*
G36*
X6044488Y-5708497D02*
G01*
X6193485Y-5708497D01*
X6199936Y-5707888D01*
X6205626Y-5706160D01*
X6210909Y-5703316D01*
X6215532Y-5699556D01*
X6219291Y-5694934D01*
X6222136Y-5689650D01*
X6223863Y-5683961D01*
X6224473Y-5677509D01*
X6224473Y-5498490D01*
X6223863Y-5492038D01*
X6222136Y-5486349D01*
X6219291Y-5481066D01*
X6215532Y-5476443D01*
X6210909Y-5472684D01*
X6205626Y-5469839D01*
X6199936Y-5468112D01*
X6193485Y-5467502D01*
X6184646Y-5467502D01*
X6180785Y-5466740D01*
X6177483Y-5464505D01*
X6175298Y-5461203D01*
X6174486Y-5457342D01*
X6174486Y-5151475D01*
X6175349Y-5147462D01*
X6177686Y-5144109D01*
X6190030Y-5132374D01*
X6201054Y-5119370D01*
X6210655Y-5105298D01*
X6218631Y-5090210D01*
X6224930Y-5074361D01*
X6229502Y-5057952D01*
X6232245Y-5041087D01*
X6233210Y-5024069D01*
X6232245Y-5007051D01*
X6229502Y-4990236D01*
X6224930Y-4973777D01*
X6218631Y-4957978D01*
X6210655Y-4942890D01*
X6201054Y-4928768D01*
X6190030Y-4915763D01*
X6177635Y-4904028D01*
X6164072Y-4893716D01*
X6149492Y-4884928D01*
X6133998Y-4877765D01*
X6117844Y-4872329D01*
X6101181Y-4868672D01*
X6084214Y-4866843D01*
X6067196Y-4866843D01*
X6050229Y-4868672D01*
X6033566Y-4872329D01*
X6017412Y-4877765D01*
X6001918Y-4884928D01*
X5987338Y-4893716D01*
X5973724Y-4904028D01*
X5961380Y-4915763D01*
X5950305Y-4928768D01*
X5940755Y-4942890D01*
X5932779Y-4957978D01*
X5926429Y-4973777D01*
X5921908Y-4990236D01*
X5919114Y-5007051D01*
X5918200Y-5024069D01*
X5919114Y-5041087D01*
X5921908Y-5057952D01*
X5926429Y-5074361D01*
X5932779Y-5090210D01*
X5940755Y-5105298D01*
X5950305Y-5119370D01*
X5961380Y-5132374D01*
X5973724Y-5144109D01*
X5987338Y-5154422D01*
X6001918Y-5163210D01*
X6017412Y-5170373D01*
X6033566Y-5175859D01*
X6050229Y-5179517D01*
X6054445Y-5179974D01*
X6057950Y-5181041D01*
X6060897Y-5183276D01*
X6062827Y-5186426D01*
X6063488Y-5190083D01*
X6063488Y-5457342D01*
X6062726Y-5461203D01*
X6060541Y-5464505D01*
X6057239Y-5466740D01*
X6053328Y-5467502D01*
X6044488Y-5467502D01*
X6038037Y-5468112D01*
X6032347Y-5469839D01*
X6027064Y-5472684D01*
X6022441Y-5476443D01*
X6018682Y-5481066D01*
X6015837Y-5486349D01*
X6014110Y-5492038D01*
X6013500Y-5498490D01*
X6013500Y-5677509D01*
X6014110Y-5683961D01*
X6015837Y-5689650D01*
X6018682Y-5694934D01*
X6022441Y-5699556D01*
X6027064Y-5703316D01*
X6032347Y-5706160D01*
X6038037Y-5707888D01*
G37*
G36*
X3151124Y-5614416D02*
G01*
X3270097Y-5614416D01*
X3276549Y-5613755D01*
X3282238Y-5612028D01*
X3287522Y-5609234D01*
X3292144Y-5605424D01*
X3295904Y-5600801D01*
X3298748Y-5595569D01*
X3300476Y-5589828D01*
X3301085Y-5583377D01*
X3301085Y-5394401D01*
X3300476Y-5387949D01*
X3298748Y-5382260D01*
X3295904Y-5376976D01*
X3292144Y-5372354D01*
X3287522Y-5368594D01*
X3282238Y-5365750D01*
X3276549Y-5364022D01*
X3270097Y-5363413D01*
X3151124Y-5363413D01*
X3144672Y-5364022D01*
X3138932Y-5365750D01*
X3133699Y-5368594D01*
X3129076Y-5372354D01*
X3125266Y-5376976D01*
X3122472Y-5382260D01*
X3120745Y-5387949D01*
X3120085Y-5394401D01*
X3120085Y-5423255D01*
X3119323Y-5427116D01*
X3117138Y-5430418D01*
X3113836Y-5432602D01*
X3109925Y-5433415D01*
X2874264Y-5433415D01*
X2870403Y-5432602D01*
X2867101Y-5430418D01*
X2864916Y-5427116D01*
X2864104Y-5423255D01*
X2864104Y-5399379D01*
X2863494Y-5392978D01*
X2861767Y-5387238D01*
X2858922Y-5381955D01*
X2855163Y-5377383D01*
X2850540Y-5373573D01*
X2845257Y-5370779D01*
X2839567Y-5369052D01*
X2833116Y-5368391D01*
X2684119Y-5368391D01*
X2677668Y-5369052D01*
X2671978Y-5370779D01*
X2666695Y-5373573D01*
X2662072Y-5377383D01*
X2658313Y-5381955D01*
X2655468Y-5387238D01*
X2653741Y-5392978D01*
X2653131Y-5399379D01*
X2653131Y-5578398D01*
X2653741Y-5584850D01*
X2655468Y-5590540D01*
X2658313Y-5595823D01*
X2662072Y-5600446D01*
X2666695Y-5604205D01*
X2671978Y-5607050D01*
X2677668Y-5608777D01*
X2684119Y-5609386D01*
X2833116Y-5609386D01*
X2839567Y-5608777D01*
X2845257Y-5607050D01*
X2850540Y-5604205D01*
X2855163Y-5600446D01*
X2858922Y-5595823D01*
X2861767Y-5590540D01*
X2863494Y-5584850D01*
X2864104Y-5578398D01*
X2864104Y-5554573D01*
X2864916Y-5550662D01*
X2867101Y-5547360D01*
X2870403Y-5545175D01*
X2874264Y-5544413D01*
X3109925Y-5544413D01*
X3113836Y-5545175D01*
X3117138Y-5547360D01*
X3119323Y-5550662D01*
X3120085Y-5554573D01*
X3120085Y-5583377D01*
X3120745Y-5589828D01*
X3122472Y-5595569D01*
X3125266Y-5600801D01*
X3129076Y-5605424D01*
X3133699Y-5609234D01*
X3138932Y-5612028D01*
X3144672Y-5613755D01*
G37*
G36*
X2384094Y-5609386D02*
G01*
X2533091Y-5609386D01*
X2539542Y-5608777D01*
X2545283Y-5607050D01*
X2550515Y-5604205D01*
X2555138Y-5600446D01*
X2558948Y-5595823D01*
X2561742Y-5590540D01*
X2563469Y-5584850D01*
X2564130Y-5578398D01*
X2564130Y-5399379D01*
X2563469Y-5392978D01*
X2561742Y-5387238D01*
X2558948Y-5381955D01*
X2555138Y-5377383D01*
X2550515Y-5373573D01*
X2545283Y-5370779D01*
X2539542Y-5369052D01*
X2533091Y-5368391D01*
X2524252Y-5368391D01*
X2520391Y-5367629D01*
X2517089Y-5365394D01*
X2514904Y-5362143D01*
X2514092Y-5358231D01*
X2514092Y-5170881D01*
X2514701Y-5167477D01*
X2516428Y-5164429D01*
X2519019Y-5162194D01*
X2531872Y-5154472D01*
X2545435Y-5144109D01*
X2557830Y-5132425D01*
X2568854Y-5119420D01*
X2578455Y-5105298D01*
X2586431Y-5090210D01*
X2592730Y-5074361D01*
X2597302Y-5057952D01*
X2600045Y-5041138D01*
X2601010Y-5024120D01*
X2600045Y-5007051D01*
X2597302Y-4990236D01*
X2592730Y-4973828D01*
X2586431Y-4957978D01*
X2578455Y-4942890D01*
X2568854Y-4928768D01*
X2557830Y-4915763D01*
X2545435Y-4904079D01*
X2531872Y-4893716D01*
X2517292Y-4884928D01*
X2501798Y-4877765D01*
X2485644Y-4872329D01*
X2468981Y-4868672D01*
X2452014Y-4866843D01*
X2434996Y-4866843D01*
X2418029Y-4868672D01*
X2401366Y-4872329D01*
X2385212Y-4877765D01*
X2369718Y-4884928D01*
X2355138Y-4893716D01*
X2341524Y-4904079D01*
X2329180Y-4915763D01*
X2318105Y-4928768D01*
X2308555Y-4942890D01*
X2300579Y-4957978D01*
X2294229Y-4973828D01*
X2289708Y-4990236D01*
X2286914Y-5007051D01*
X2286000Y-5024120D01*
X2286914Y-5041138D01*
X2289708Y-5057952D01*
X2294229Y-5074361D01*
X2300579Y-5090210D01*
X2308555Y-5105298D01*
X2318105Y-5119420D01*
X2329180Y-5132425D01*
X2341524Y-5144109D01*
X2355138Y-5154472D01*
X2369718Y-5163261D01*
X2385212Y-5170424D01*
X2396185Y-5174081D01*
X2399792Y-5176215D01*
X2402230Y-5179618D01*
X2403094Y-5183733D01*
X2403094Y-5358231D01*
X2402332Y-5362143D01*
X2400096Y-5365394D01*
X2396845Y-5367629D01*
X2392934Y-5368391D01*
X2384094Y-5368391D01*
X2377694Y-5369052D01*
X2371953Y-5370779D01*
X2366670Y-5373573D01*
X2362098Y-5377383D01*
X2358288Y-5381955D01*
X2355494Y-5387238D01*
X2353767Y-5392978D01*
X2353106Y-5399379D01*
X2353106Y-5578398D01*
X2353767Y-5584850D01*
X2355494Y-5590540D01*
X2358288Y-5595823D01*
X2362098Y-5600446D01*
X2366670Y-5604205D01*
X2371953Y-5607050D01*
X2377694Y-5608777D01*
G37*
G36*
X6824980Y-5227269D02*
G01*
X6844182Y-5226354D01*
X6863181Y-5223510D01*
X6881774Y-5218887D01*
X6899859Y-5212384D01*
X6917181Y-5204206D01*
X6933641Y-5194350D01*
X6949084Y-5182870D01*
X6963308Y-5170017D01*
X6976211Y-5155793D01*
X6987641Y-5140350D01*
X6997496Y-5123891D01*
X7005726Y-5106568D01*
X7012178Y-5088483D01*
X7016851Y-5069840D01*
X7019645Y-5050891D01*
X7020610Y-5031435D01*
X7020610Y-4752543D01*
X7019645Y-4733137D01*
X7016851Y-4714138D01*
X7012178Y-4695545D01*
X7005726Y-4677460D01*
X6997496Y-4660087D01*
X6987641Y-4643628D01*
X6976211Y-4628235D01*
X6963308Y-4614011D01*
X6949084Y-4601108D01*
X6933641Y-4589678D01*
X6917181Y-4579823D01*
X6899859Y-4571593D01*
X6881774Y-4565142D01*
X6863181Y-4560468D01*
X6844182Y-4557623D01*
X6824980Y-4556709D01*
X6805828Y-4557623D01*
X6786829Y-4560468D01*
X6768236Y-4565142D01*
X6750151Y-4571593D01*
X6732778Y-4579823D01*
X6716318Y-4589678D01*
X6700926Y-4601108D01*
X6686702Y-4614011D01*
X6673799Y-4628235D01*
X6662369Y-4643628D01*
X6652514Y-4660087D01*
X6644284Y-4677460D01*
X6637832Y-4695545D01*
X6633159Y-4714138D01*
X6630365Y-4733137D01*
X6629400Y-4752543D01*
X6629400Y-5031435D01*
X6630365Y-5050891D01*
X6633159Y-5069840D01*
X6637832Y-5088483D01*
X6644284Y-5106568D01*
X6652514Y-5123891D01*
X6662369Y-5140350D01*
X6673799Y-5155793D01*
X6686702Y-5170017D01*
X6700926Y-5182870D01*
X6716318Y-5194350D01*
X6732778Y-5204206D01*
X6750151Y-5212384D01*
X6768236Y-5218887D01*
X6786829Y-5223510D01*
X6805828Y-5226354D01*
G37*
G36*
X3781196Y-5181346D02*
G01*
X3798214Y-5181346D01*
X3815181Y-5179517D01*
X3831844Y-5175859D01*
X3847998Y-5170424D01*
X3863492Y-5163261D01*
X3878072Y-5154472D01*
X3891635Y-5144109D01*
X3904030Y-5132425D01*
X3915054Y-5119420D01*
X3924655Y-5105298D01*
X3932631Y-5090210D01*
X3938930Y-5074412D01*
X3943502Y-5057952D01*
X3946245Y-5041138D01*
X3947210Y-5024120D01*
X3946245Y-5007051D01*
X3943502Y-4990236D01*
X3938930Y-4973828D01*
X3932631Y-4957978D01*
X3924655Y-4942890D01*
X3915054Y-4928768D01*
X3904030Y-4915814D01*
X3891635Y-4904079D01*
X3878072Y-4893767D01*
X3863492Y-4884978D01*
X3847998Y-4877816D01*
X3831844Y-4872329D01*
X3815181Y-4868672D01*
X3798214Y-4866843D01*
X3781196Y-4866843D01*
X3764229Y-4868672D01*
X3747566Y-4872329D01*
X3731412Y-4877816D01*
X3715918Y-4884978D01*
X3701338Y-4893767D01*
X3687724Y-4904079D01*
X3675379Y-4915814D01*
X3664305Y-4928768D01*
X3654755Y-4942890D01*
X3646779Y-4957978D01*
X3640429Y-4973828D01*
X3635908Y-4990236D01*
X3633114Y-5007051D01*
X3632200Y-5024120D01*
X3633114Y-5041138D01*
X3635908Y-5057952D01*
X3640429Y-5074412D01*
X3646779Y-5090210D01*
X3654755Y-5105298D01*
X3664305Y-5119420D01*
X3675379Y-5132425D01*
X3687724Y-5144109D01*
X3701338Y-5154472D01*
X3715918Y-5163261D01*
X3731412Y-5170424D01*
X3747566Y-5175859D01*
X3764229Y-5179517D01*
G37*
G36*
X4720996Y-5181346D02*
G01*
X4738014Y-5181346D01*
X4754981Y-5179517D01*
X4771644Y-5175808D01*
X4787798Y-5170373D01*
X4803292Y-5163210D01*
X4817872Y-5154422D01*
X4831435Y-5144109D01*
X4843830Y-5132374D01*
X4854854Y-5119370D01*
X4864455Y-5105298D01*
X4872431Y-5090210D01*
X4878730Y-5074361D01*
X4883302Y-5057952D01*
X4886045Y-5041087D01*
X4887010Y-5024069D01*
X4886045Y-5007051D01*
X4883302Y-4990236D01*
X4878730Y-4973777D01*
X4872431Y-4957927D01*
X4864455Y-4942890D01*
X4854854Y-4928768D01*
X4843830Y-4915763D01*
X4831435Y-4904028D01*
X4817872Y-4893716D01*
X4803292Y-4884928D01*
X4787798Y-4877765D01*
X4771644Y-4872329D01*
X4754981Y-4868672D01*
X4738014Y-4866843D01*
X4720996Y-4866843D01*
X4704029Y-4868672D01*
X4687366Y-4872329D01*
X4671212Y-4877765D01*
X4655718Y-4884928D01*
X4641138Y-4893716D01*
X4627524Y-4904028D01*
X4615180Y-4915763D01*
X4604105Y-4928768D01*
X4594555Y-4942890D01*
X4586579Y-4957927D01*
X4580229Y-4973777D01*
X4575708Y-4990236D01*
X4572914Y-5007051D01*
X4572000Y-5024069D01*
X4572914Y-5041087D01*
X4575708Y-5057952D01*
X4580229Y-5074361D01*
X4586579Y-5090210D01*
X4594555Y-5105298D01*
X4604105Y-5119370D01*
X4615180Y-5132374D01*
X4627524Y-5144109D01*
X4641138Y-5154422D01*
X4655718Y-5163210D01*
X4671212Y-5170373D01*
X4687366Y-5175808D01*
X4704029Y-5179517D01*
G37*
G36*
X1694180Y-5151069D02*
G01*
X1713382Y-5150154D01*
X1732381Y-5147310D01*
X1750974Y-5142687D01*
X1769059Y-5136184D01*
X1786382Y-5128006D01*
X1802841Y-5118150D01*
X1818284Y-5106670D01*
X1832508Y-5093817D01*
X1845411Y-5079593D01*
X1856841Y-5064150D01*
X1866696Y-5047691D01*
X1874926Y-5030368D01*
X1881378Y-5012283D01*
X1886051Y-4993640D01*
X1888845Y-4974691D01*
X1889810Y-4955235D01*
X1889810Y-4676343D01*
X1888845Y-4656937D01*
X1886051Y-4637938D01*
X1881378Y-4619345D01*
X1874926Y-4601260D01*
X1866696Y-4583887D01*
X1856841Y-4567428D01*
X1845411Y-4552035D01*
X1832508Y-4537811D01*
X1818284Y-4524908D01*
X1802841Y-4513478D01*
X1786382Y-4503623D01*
X1769059Y-4495393D01*
X1750974Y-4488942D01*
X1732381Y-4484268D01*
X1713382Y-4481423D01*
X1694180Y-4480509D01*
X1675028Y-4481423D01*
X1656029Y-4484268D01*
X1637436Y-4488942D01*
X1619351Y-4495393D01*
X1601978Y-4503623D01*
X1585518Y-4513478D01*
X1570126Y-4524908D01*
X1555902Y-4537811D01*
X1542999Y-4552035D01*
X1531569Y-4567428D01*
X1521714Y-4583887D01*
X1513484Y-4601260D01*
X1507032Y-4619345D01*
X1502359Y-4637938D01*
X1499565Y-4656937D01*
X1498600Y-4676343D01*
X1498600Y-4955235D01*
X1499565Y-4974691D01*
X1502359Y-4993640D01*
X1507032Y-5012283D01*
X1513484Y-5030368D01*
X1521714Y-5047691D01*
X1531569Y-5064150D01*
X1542999Y-5079593D01*
X1555902Y-5093817D01*
X1570126Y-5106670D01*
X1585518Y-5118150D01*
X1601978Y-5128006D01*
X1619351Y-5136184D01*
X1637436Y-5142687D01*
X1656029Y-5147310D01*
X1675028Y-5150154D01*
G37*
G36*
X3781196Y-4840986D02*
G01*
X3798214Y-4840986D01*
X3815181Y-4839157D01*
X3831844Y-4835448D01*
X3847998Y-4830013D01*
X3863492Y-4822850D01*
X3878072Y-4814062D01*
X3891635Y-4803749D01*
X3904030Y-4792014D01*
X3915054Y-4779010D01*
X3924655Y-4764938D01*
X3932631Y-4749850D01*
X3938930Y-4734001D01*
X3943502Y-4717592D01*
X3946245Y-4700727D01*
X3947210Y-4683709D01*
X3946245Y-4666691D01*
X3943502Y-4649876D01*
X3938930Y-4633417D01*
X3932631Y-4617567D01*
X3924655Y-4602530D01*
X3915054Y-4588408D01*
X3904030Y-4575403D01*
X3891635Y-4563668D01*
X3878072Y-4553356D01*
X3863492Y-4544568D01*
X3847998Y-4537405D01*
X3831844Y-4531969D01*
X3815181Y-4528312D01*
X3798214Y-4526483D01*
X3781196Y-4526483D01*
X3764229Y-4528312D01*
X3747566Y-4531969D01*
X3731412Y-4537405D01*
X3715918Y-4544568D01*
X3701338Y-4553356D01*
X3687724Y-4563668D01*
X3675379Y-4575403D01*
X3664305Y-4588408D01*
X3654755Y-4602530D01*
X3646779Y-4617567D01*
X3640429Y-4633417D01*
X3635908Y-4649876D01*
X3633114Y-4666691D01*
X3632200Y-4683709D01*
X3633114Y-4700727D01*
X3635908Y-4717592D01*
X3640429Y-4734001D01*
X3646779Y-4749850D01*
X3654755Y-4764938D01*
X3664305Y-4779010D01*
X3675379Y-4792014D01*
X3687724Y-4803749D01*
X3701338Y-4814062D01*
X3715918Y-4822850D01*
X3731412Y-4830013D01*
X3747566Y-4835448D01*
X3764229Y-4839157D01*
G37*
G36*
X2434996Y-4840986D02*
G01*
X2452014Y-4840986D01*
X2468981Y-4839106D01*
X2485644Y-4835448D01*
X2501798Y-4830013D01*
X2517292Y-4822850D01*
X2531872Y-4814062D01*
X2545435Y-4803749D01*
X2557830Y-4792014D01*
X2568854Y-4779010D01*
X2578455Y-4764887D01*
X2586431Y-4749850D01*
X2592730Y-4734001D01*
X2597302Y-4717592D01*
X2600045Y-4700727D01*
X2601010Y-4683709D01*
X2600045Y-4666691D01*
X2597302Y-4649876D01*
X2592730Y-4633417D01*
X2586431Y-4617567D01*
X2578455Y-4602530D01*
X2568854Y-4588408D01*
X2557830Y-4575403D01*
X2545435Y-4563668D01*
X2531872Y-4553356D01*
X2517292Y-4544568D01*
X2501798Y-4537405D01*
X2485644Y-4531969D01*
X2468981Y-4528312D01*
X2452014Y-4526432D01*
X2434996Y-4526432D01*
X2418029Y-4528312D01*
X2401366Y-4531969D01*
X2385212Y-4537405D01*
X2369718Y-4544568D01*
X2355138Y-4553356D01*
X2341524Y-4563668D01*
X2329180Y-4575403D01*
X2318105Y-4588408D01*
X2308555Y-4602530D01*
X2300579Y-4617567D01*
X2294229Y-4633417D01*
X2289708Y-4649876D01*
X2286914Y-4666691D01*
X2286000Y-4683709D01*
X2286914Y-4700727D01*
X2289708Y-4717592D01*
X2294229Y-4734001D01*
X2300579Y-4749850D01*
X2308555Y-4764887D01*
X2318105Y-4779010D01*
X2329180Y-4792014D01*
X2341524Y-4803749D01*
X2355138Y-4814062D01*
X2369718Y-4822850D01*
X2385212Y-4830013D01*
X2401366Y-4835448D01*
X2418029Y-4839106D01*
G37*
G36*
X6067196Y-4840986D02*
G01*
X6084214Y-4840986D01*
X6101181Y-4839106D01*
X6117844Y-4835448D01*
X6133998Y-4830013D01*
X6149492Y-4822850D01*
X6164072Y-4814062D01*
X6177635Y-4803749D01*
X6190030Y-4792014D01*
X6201054Y-4779010D01*
X6210655Y-4764887D01*
X6218631Y-4749850D01*
X6224930Y-4734001D01*
X6229502Y-4717542D01*
X6232245Y-4700727D01*
X6233210Y-4683709D01*
X6232245Y-4666691D01*
X6229502Y-4649825D01*
X6224930Y-4633417D01*
X6218631Y-4617567D01*
X6210655Y-4602530D01*
X6201054Y-4588408D01*
X6190030Y-4575403D01*
X6177635Y-4563668D01*
X6164072Y-4553356D01*
X6149492Y-4544568D01*
X6133998Y-4537405D01*
X6117844Y-4531969D01*
X6101181Y-4528312D01*
X6084214Y-4526432D01*
X6067196Y-4526432D01*
X6050229Y-4528312D01*
X6033566Y-4531969D01*
X6017412Y-4537405D01*
X6001918Y-4544568D01*
X5987338Y-4553356D01*
X5973724Y-4563668D01*
X5961380Y-4575403D01*
X5950305Y-4588408D01*
X5940755Y-4602530D01*
X5932779Y-4617567D01*
X5926429Y-4633417D01*
X5921908Y-4649825D01*
X5919114Y-4666691D01*
X5918200Y-4683709D01*
X5919114Y-4700727D01*
X5921908Y-4717542D01*
X5926429Y-4734001D01*
X5932779Y-4749850D01*
X5940755Y-4764887D01*
X5950305Y-4779010D01*
X5961380Y-4792014D01*
X5973724Y-4803749D01*
X5987338Y-4814062D01*
X6001918Y-4822850D01*
X6017412Y-4830013D01*
X6033566Y-4835448D01*
X6050229Y-4839106D01*
G37*
G36*
X4720996Y-4840935D02*
G01*
X4738014Y-4840935D01*
X4754981Y-4839106D01*
X4771644Y-4835448D01*
X4787798Y-4830013D01*
X4803292Y-4822850D01*
X4817872Y-4814062D01*
X4831435Y-4803749D01*
X4843830Y-4792014D01*
X4854854Y-4779010D01*
X4864455Y-4764887D01*
X4872431Y-4749850D01*
X4878730Y-4734001D01*
X4883302Y-4717542D01*
X4886045Y-4700727D01*
X4887010Y-4683709D01*
X4886045Y-4666691D01*
X4883302Y-4649825D01*
X4878730Y-4633417D01*
X4872431Y-4617567D01*
X4864455Y-4602480D01*
X4854854Y-4588408D01*
X4843830Y-4575403D01*
X4831435Y-4563668D01*
X4817872Y-4553356D01*
X4803292Y-4544568D01*
X4787798Y-4537405D01*
X4771644Y-4531969D01*
X4754981Y-4528261D01*
X4738014Y-4526432D01*
X4720996Y-4526432D01*
X4704029Y-4528261D01*
X4687366Y-4531969D01*
X4671212Y-4537405D01*
X4655718Y-4544568D01*
X4641138Y-4553356D01*
X4627524Y-4563668D01*
X4615180Y-4575403D01*
X4604105Y-4588408D01*
X4594555Y-4602480D01*
X4586579Y-4617567D01*
X4580229Y-4633417D01*
X4575708Y-4649825D01*
X4572914Y-4666691D01*
X4572000Y-4683709D01*
X4572914Y-4700727D01*
X4575708Y-4717542D01*
X4580229Y-4734001D01*
X4586579Y-4749850D01*
X4594555Y-4764887D01*
X4604105Y-4779010D01*
X4615180Y-4792014D01*
X4627524Y-4803749D01*
X4641138Y-4814062D01*
X4655718Y-4822850D01*
X4671212Y-4830013D01*
X4687366Y-4835448D01*
X4704029Y-4839106D01*
G37*
G36*
X7705242Y-4430420D02*
G01*
X7726172Y-4428998D01*
X7746898Y-4425696D01*
X7767218Y-4420463D01*
X7786979Y-4413453D01*
X7806029Y-4404664D01*
X7824216Y-4394149D01*
X7841335Y-4382058D01*
X7857337Y-4368444D01*
X7871968Y-4353458D01*
X7885226Y-4337151D01*
X7896961Y-4319778D01*
X7907020Y-4301337D01*
X7915351Y-4282135D01*
X7921955Y-4262170D01*
X7926679Y-4241749D01*
X7929524Y-4220972D01*
X7930489Y-4199991D01*
X7929524Y-4179062D01*
X7926679Y-4158234D01*
X7921955Y-4137812D01*
X7915351Y-4117898D01*
X7907020Y-4098645D01*
X7896961Y-4080256D01*
X7885226Y-4062831D01*
X7871968Y-4046524D01*
X7857337Y-4031538D01*
X7841335Y-4017924D01*
X7824216Y-4005834D01*
X7806029Y-3995369D01*
X7786979Y-3986529D01*
X7767218Y-3979519D01*
X7746898Y-3974337D01*
X7726172Y-3970985D01*
X7705242Y-3969562D01*
X7684262Y-3970020D01*
X7663434Y-3972407D01*
X7642859Y-3976674D01*
X7622794Y-3982821D01*
X7603388Y-3990746D01*
X7584744Y-4000398D01*
X7567066Y-4011676D01*
X7550505Y-4024579D01*
X7535164Y-4038904D01*
X7521194Y-4054551D01*
X7508697Y-4071416D01*
X7497825Y-4089349D01*
X7488580Y-4108145D01*
X7481112Y-4127754D01*
X7475474Y-4147972D01*
X7471664Y-4168597D01*
X7469733Y-4189526D01*
X7469733Y-4210507D01*
X7471664Y-4231386D01*
X7475474Y-4252010D01*
X7481112Y-4272229D01*
X7488580Y-4291838D01*
X7497825Y-4310684D01*
X7508697Y-4328617D01*
X7521194Y-4345482D01*
X7535164Y-4361129D01*
X7550505Y-4375454D01*
X7567066Y-4388307D01*
X7584744Y-4399635D01*
X7603388Y-4409287D01*
X7622794Y-4417161D01*
X7642859Y-4423308D01*
X7663434Y-4427575D01*
X7684262Y-4429963D01*
G37*
G36*
X5307482Y-4316526D02*
G01*
X5426506Y-4316526D01*
X5432958Y-4315866D01*
X5438648Y-4314139D01*
X5443931Y-4311345D01*
X5448554Y-4307535D01*
X5452313Y-4302912D01*
X5455158Y-4297680D01*
X5456885Y-4291939D01*
X5457494Y-4285488D01*
X5457494Y-4256684D01*
X5458256Y-4252772D01*
X5460492Y-4249470D01*
X5463794Y-4247286D01*
X5467654Y-4246524D01*
X5703316Y-4246524D01*
X5707227Y-4247286D01*
X5710529Y-4249470D01*
X5712714Y-4252772D01*
X5713476Y-4256684D01*
X5713476Y-4280509D01*
X5714136Y-4286961D01*
X5715863Y-4292650D01*
X5718657Y-4297934D01*
X5722467Y-4302556D01*
X5727090Y-4306316D01*
X5732322Y-4309160D01*
X5738063Y-4310888D01*
X5744464Y-4311497D01*
X5893511Y-4311497D01*
X5899912Y-4310888D01*
X5905652Y-4309160D01*
X5910884Y-4306316D01*
X5915507Y-4302556D01*
X5919317Y-4297934D01*
X5922111Y-4292650D01*
X5923838Y-4286961D01*
X5924499Y-4280509D01*
X5924499Y-4101490D01*
X5923838Y-4095038D01*
X5922111Y-4089349D01*
X5919317Y-4084065D01*
X5915507Y-4079443D01*
X5910884Y-4075684D01*
X5905652Y-4072839D01*
X5899912Y-4071112D01*
X5893511Y-4070502D01*
X5744464Y-4070502D01*
X5738063Y-4071112D01*
X5732322Y-4072839D01*
X5727090Y-4075684D01*
X5722467Y-4079443D01*
X5718657Y-4084065D01*
X5715863Y-4089349D01*
X5714136Y-4095038D01*
X5713476Y-4101490D01*
X5713476Y-4125315D01*
X5712714Y-4129227D01*
X5710529Y-4132529D01*
X5707227Y-4134713D01*
X5703316Y-4135475D01*
X5467654Y-4135475D01*
X5463794Y-4134713D01*
X5460492Y-4132529D01*
X5458256Y-4129227D01*
X5457494Y-4125315D01*
X5457494Y-4096512D01*
X5456885Y-4090060D01*
X5455158Y-4084320D01*
X5452313Y-4079087D01*
X5448554Y-4074464D01*
X5443931Y-4070654D01*
X5438648Y-4067860D01*
X5432958Y-4066133D01*
X5426506Y-4065473D01*
X5307482Y-4065473D01*
X5301030Y-4066133D01*
X5295341Y-4067860D01*
X5290058Y-4070654D01*
X5285486Y-4074464D01*
X5281676Y-4079087D01*
X5278882Y-4084320D01*
X5277104Y-4090060D01*
X5276494Y-4096512D01*
X5276494Y-4285488D01*
X5277104Y-4291939D01*
X5278882Y-4297680D01*
X5281676Y-4302912D01*
X5285486Y-4307535D01*
X5290058Y-4311345D01*
X5295341Y-4314139D01*
X5301030Y-4315866D01*
G37*
G36*
X6044488Y-4311497D02*
G01*
X6193485Y-4311497D01*
X6199936Y-4310888D01*
X6205626Y-4309160D01*
X6210909Y-4306316D01*
X6215532Y-4302556D01*
X6219291Y-4297934D01*
X6222136Y-4292650D01*
X6223863Y-4286961D01*
X6224473Y-4280509D01*
X6224473Y-4101490D01*
X6223863Y-4095038D01*
X6222136Y-4089349D01*
X6219291Y-4084065D01*
X6215532Y-4079443D01*
X6210909Y-4075684D01*
X6205626Y-4072839D01*
X6199936Y-4071112D01*
X6193485Y-4070502D01*
X6184646Y-4070502D01*
X6180785Y-4069740D01*
X6177483Y-4067505D01*
X6175298Y-4064203D01*
X6174486Y-4060342D01*
X6174486Y-3754475D01*
X6175349Y-3750462D01*
X6177686Y-3747109D01*
X6190030Y-3735374D01*
X6201054Y-3722370D01*
X6210655Y-3708298D01*
X6218631Y-3693210D01*
X6224930Y-3677361D01*
X6229502Y-3660952D01*
X6232245Y-3644087D01*
X6233210Y-3627069D01*
X6232245Y-3610051D01*
X6229502Y-3593236D01*
X6224930Y-3576777D01*
X6218631Y-3560978D01*
X6210655Y-3545890D01*
X6201054Y-3531768D01*
X6190030Y-3518763D01*
X6177635Y-3507028D01*
X6164072Y-3496716D01*
X6149492Y-3487928D01*
X6133998Y-3480765D01*
X6117844Y-3475329D01*
X6101181Y-3471672D01*
X6084214Y-3469843D01*
X6067196Y-3469843D01*
X6050229Y-3471672D01*
X6033566Y-3475329D01*
X6017412Y-3480765D01*
X6001918Y-3487928D01*
X5987338Y-3496716D01*
X5973724Y-3507028D01*
X5961380Y-3518763D01*
X5950305Y-3531768D01*
X5940755Y-3545890D01*
X5932779Y-3560978D01*
X5926429Y-3576777D01*
X5921908Y-3593236D01*
X5919114Y-3610051D01*
X5918200Y-3627069D01*
X5919114Y-3644087D01*
X5921908Y-3660952D01*
X5926429Y-3677361D01*
X5932779Y-3693210D01*
X5940755Y-3708298D01*
X5950305Y-3722370D01*
X5961380Y-3735374D01*
X5973724Y-3747109D01*
X5987338Y-3757422D01*
X6001918Y-3766210D01*
X6017412Y-3773373D01*
X6033566Y-3778859D01*
X6050229Y-3782517D01*
X6054445Y-3782974D01*
X6057950Y-3784041D01*
X6060897Y-3786276D01*
X6062827Y-3789426D01*
X6063488Y-3793083D01*
X6063488Y-4060342D01*
X6062726Y-4064203D01*
X6060541Y-4067505D01*
X6057239Y-4069740D01*
X6053328Y-4070502D01*
X6044488Y-4070502D01*
X6038037Y-4071112D01*
X6032347Y-4072839D01*
X6027064Y-4075684D01*
X6022441Y-4079443D01*
X6018682Y-4084065D01*
X6015837Y-4089349D01*
X6014110Y-4095038D01*
X6013500Y-4101490D01*
X6013500Y-4280509D01*
X6014110Y-4286961D01*
X6015837Y-4292650D01*
X6018682Y-4297934D01*
X6022441Y-4302556D01*
X6027064Y-4306316D01*
X6032347Y-4309160D01*
X6038037Y-4310888D01*
G37*
G36*
X3151124Y-4217416D02*
G01*
X3270097Y-4217416D01*
X3276549Y-4216755D01*
X3282238Y-4215028D01*
X3287522Y-4212234D01*
X3292144Y-4208424D01*
X3295904Y-4203801D01*
X3298748Y-4198569D01*
X3300476Y-4192828D01*
X3301085Y-4186377D01*
X3301085Y-3997401D01*
X3300476Y-3990949D01*
X3298748Y-3985260D01*
X3295904Y-3979976D01*
X3292144Y-3975354D01*
X3287522Y-3971594D01*
X3282238Y-3968750D01*
X3276549Y-3967022D01*
X3270097Y-3966413D01*
X3151124Y-3966413D01*
X3144672Y-3967022D01*
X3138932Y-3968750D01*
X3133699Y-3971594D01*
X3129076Y-3975354D01*
X3125266Y-3979976D01*
X3122472Y-3985260D01*
X3120745Y-3990949D01*
X3120085Y-3997401D01*
X3120085Y-4026255D01*
X3119323Y-4030116D01*
X3117138Y-4033418D01*
X3113836Y-4035602D01*
X3109925Y-4036415D01*
X2874264Y-4036415D01*
X2870403Y-4035602D01*
X2867101Y-4033418D01*
X2864916Y-4030116D01*
X2864104Y-4026255D01*
X2864104Y-4002379D01*
X2863494Y-3995978D01*
X2861767Y-3990238D01*
X2858922Y-3984955D01*
X2855163Y-3980383D01*
X2850540Y-3976573D01*
X2845257Y-3973779D01*
X2839567Y-3972051D01*
X2833116Y-3971391D01*
X2684119Y-3971391D01*
X2677668Y-3972051D01*
X2671978Y-3973779D01*
X2666695Y-3976573D01*
X2662072Y-3980383D01*
X2658313Y-3984955D01*
X2655468Y-3990238D01*
X2653741Y-3995978D01*
X2653131Y-4002379D01*
X2653131Y-4181398D01*
X2653741Y-4187850D01*
X2655468Y-4193540D01*
X2658313Y-4198823D01*
X2662072Y-4203446D01*
X2666695Y-4207205D01*
X2671978Y-4210050D01*
X2677668Y-4211777D01*
X2684119Y-4212386D01*
X2833116Y-4212386D01*
X2839567Y-4211777D01*
X2845257Y-4210050D01*
X2850540Y-4207205D01*
X2855163Y-4203446D01*
X2858922Y-4198823D01*
X2861767Y-4193540D01*
X2863494Y-4187850D01*
X2864104Y-4181398D01*
X2864104Y-4157573D01*
X2864916Y-4153662D01*
X2867101Y-4150360D01*
X2870403Y-4148175D01*
X2874264Y-4147413D01*
X3109925Y-4147413D01*
X3113836Y-4148175D01*
X3117138Y-4150360D01*
X3119323Y-4153662D01*
X3120085Y-4157573D01*
X3120085Y-4186377D01*
X3120745Y-4192828D01*
X3122472Y-4198569D01*
X3125266Y-4203801D01*
X3129076Y-4208424D01*
X3133699Y-4212234D01*
X3138932Y-4215028D01*
X3144672Y-4216755D01*
G37*
G36*
X2384094Y-4212386D02*
G01*
X2533091Y-4212386D01*
X2539542Y-4211777D01*
X2545283Y-4210050D01*
X2550515Y-4207205D01*
X2555138Y-4203446D01*
X2558948Y-4198823D01*
X2561742Y-4193540D01*
X2563469Y-4187850D01*
X2564130Y-4181398D01*
X2564130Y-4002379D01*
X2563469Y-3995978D01*
X2561742Y-3990238D01*
X2558948Y-3984955D01*
X2555138Y-3980383D01*
X2550515Y-3976573D01*
X2545283Y-3973779D01*
X2539542Y-3972051D01*
X2533091Y-3971391D01*
X2524252Y-3971391D01*
X2520391Y-3970629D01*
X2517089Y-3968394D01*
X2514904Y-3965143D01*
X2514092Y-3961231D01*
X2514092Y-3773881D01*
X2514701Y-3770477D01*
X2516428Y-3767429D01*
X2519019Y-3765194D01*
X2531872Y-3757472D01*
X2545435Y-3747109D01*
X2557830Y-3735425D01*
X2568854Y-3722420D01*
X2578455Y-3708298D01*
X2586431Y-3693210D01*
X2592730Y-3677361D01*
X2597302Y-3660952D01*
X2600045Y-3644137D01*
X2601010Y-3627120D01*
X2600045Y-3610051D01*
X2597302Y-3593236D01*
X2592730Y-3576828D01*
X2586431Y-3560978D01*
X2578455Y-3545890D01*
X2568854Y-3531768D01*
X2557830Y-3518763D01*
X2545435Y-3507079D01*
X2531872Y-3496716D01*
X2517292Y-3487928D01*
X2501798Y-3480765D01*
X2485644Y-3475329D01*
X2468981Y-3471672D01*
X2452014Y-3469843D01*
X2434996Y-3469843D01*
X2418029Y-3471672D01*
X2401366Y-3475329D01*
X2385212Y-3480765D01*
X2369718Y-3487928D01*
X2355138Y-3496716D01*
X2341524Y-3507079D01*
X2329180Y-3518763D01*
X2318105Y-3531768D01*
X2308555Y-3545890D01*
X2300579Y-3560978D01*
X2294229Y-3576828D01*
X2289708Y-3593236D01*
X2286914Y-3610051D01*
X2286000Y-3627120D01*
X2286914Y-3644137D01*
X2289708Y-3660952D01*
X2294229Y-3677361D01*
X2300579Y-3693210D01*
X2308555Y-3708298D01*
X2318105Y-3722420D01*
X2329180Y-3735425D01*
X2341524Y-3747109D01*
X2355138Y-3757472D01*
X2369718Y-3766261D01*
X2385212Y-3773424D01*
X2396185Y-3777081D01*
X2399792Y-3779215D01*
X2402230Y-3782618D01*
X2403094Y-3786733D01*
X2403094Y-3961231D01*
X2402332Y-3965143D01*
X2400096Y-3968394D01*
X2396845Y-3970629D01*
X2392934Y-3971391D01*
X2384094Y-3971391D01*
X2377694Y-3972051D01*
X2371953Y-3973779D01*
X2366670Y-3976573D01*
X2362098Y-3980383D01*
X2358288Y-3984955D01*
X2355494Y-3990238D01*
X2353767Y-3995978D01*
X2353106Y-4002379D01*
X2353106Y-4181398D01*
X2353767Y-4187850D01*
X2355494Y-4193540D01*
X2358288Y-4198823D01*
X2362098Y-4203446D01*
X2366670Y-4207205D01*
X2371953Y-4210050D01*
X2377694Y-4211777D01*
G37*
G36*
X6824980Y-3830269D02*
G01*
X6844182Y-3829354D01*
X6863181Y-3826510D01*
X6881774Y-3821887D01*
X6899859Y-3815384D01*
X6917181Y-3807206D01*
X6933641Y-3797350D01*
X6949084Y-3785870D01*
X6963308Y-3773017D01*
X6976211Y-3758793D01*
X6987641Y-3743350D01*
X6997496Y-3726891D01*
X7005726Y-3709568D01*
X7012178Y-3691483D01*
X7016851Y-3672840D01*
X7019645Y-3653891D01*
X7020610Y-3634435D01*
X7020610Y-3355543D01*
X7019645Y-3336137D01*
X7016851Y-3317138D01*
X7012178Y-3298545D01*
X7005726Y-3280460D01*
X6997496Y-3263087D01*
X6987641Y-3246628D01*
X6976211Y-3231235D01*
X6963308Y-3217011D01*
X6949084Y-3204108D01*
X6933641Y-3192678D01*
X6917181Y-3182823D01*
X6899859Y-3174593D01*
X6881774Y-3168142D01*
X6863181Y-3163468D01*
X6844182Y-3160623D01*
X6824980Y-3159709D01*
X6805828Y-3160623D01*
X6786829Y-3163468D01*
X6768236Y-3168142D01*
X6750151Y-3174593D01*
X6732778Y-3182823D01*
X6716318Y-3192678D01*
X6700926Y-3204108D01*
X6686702Y-3217011D01*
X6673799Y-3231235D01*
X6662369Y-3246628D01*
X6652514Y-3263087D01*
X6644284Y-3280460D01*
X6637832Y-3298545D01*
X6633159Y-3317138D01*
X6630365Y-3336137D01*
X6629400Y-3355543D01*
X6629400Y-3634435D01*
X6630365Y-3653891D01*
X6633159Y-3672840D01*
X6637832Y-3691483D01*
X6644284Y-3709568D01*
X6652514Y-3726891D01*
X6662369Y-3743350D01*
X6673799Y-3758793D01*
X6686702Y-3773017D01*
X6700926Y-3785870D01*
X6716318Y-3797350D01*
X6732778Y-3807206D01*
X6750151Y-3815384D01*
X6768236Y-3821887D01*
X6786829Y-3826510D01*
X6805828Y-3829354D01*
G37*
G36*
X3781196Y-3784346D02*
G01*
X3798214Y-3784346D01*
X3815181Y-3782517D01*
X3831844Y-3778859D01*
X3847998Y-3773424D01*
X3863492Y-3766261D01*
X3878072Y-3757472D01*
X3891635Y-3747109D01*
X3904030Y-3735425D01*
X3915054Y-3722420D01*
X3924655Y-3708298D01*
X3932631Y-3693210D01*
X3938930Y-3677412D01*
X3943502Y-3660952D01*
X3946245Y-3644137D01*
X3947210Y-3627120D01*
X3946245Y-3610051D01*
X3943502Y-3593236D01*
X3938930Y-3576828D01*
X3932631Y-3560978D01*
X3924655Y-3545890D01*
X3915054Y-3531768D01*
X3904030Y-3518814D01*
X3891635Y-3507079D01*
X3878072Y-3496767D01*
X3863492Y-3487978D01*
X3847998Y-3480815D01*
X3831844Y-3475329D01*
X3815181Y-3471672D01*
X3798214Y-3469843D01*
X3781196Y-3469843D01*
X3764229Y-3471672D01*
X3747566Y-3475329D01*
X3731412Y-3480815D01*
X3715918Y-3487978D01*
X3701338Y-3496767D01*
X3687724Y-3507079D01*
X3675379Y-3518814D01*
X3664305Y-3531768D01*
X3654755Y-3545890D01*
X3646779Y-3560978D01*
X3640429Y-3576828D01*
X3635908Y-3593236D01*
X3633114Y-3610051D01*
X3632200Y-3627120D01*
X3633114Y-3644137D01*
X3635908Y-3660952D01*
X3640429Y-3677412D01*
X3646779Y-3693210D01*
X3654755Y-3708298D01*
X3664305Y-3722420D01*
X3675379Y-3735425D01*
X3687724Y-3747109D01*
X3701338Y-3757472D01*
X3715918Y-3766261D01*
X3731412Y-3773424D01*
X3747566Y-3778859D01*
X3764229Y-3782517D01*
G37*
G36*
X4720996Y-3784346D02*
G01*
X4738014Y-3784346D01*
X4754981Y-3782517D01*
X4771644Y-3778808D01*
X4787798Y-3773373D01*
X4803292Y-3766210D01*
X4817872Y-3757422D01*
X4831435Y-3747109D01*
X4843830Y-3735374D01*
X4854854Y-3722370D01*
X4864455Y-3708298D01*
X4872431Y-3693210D01*
X4878730Y-3677361D01*
X4883302Y-3660952D01*
X4886045Y-3644087D01*
X4887010Y-3627069D01*
X4886045Y-3610051D01*
X4883302Y-3593236D01*
X4878730Y-3576777D01*
X4872431Y-3560927D01*
X4864455Y-3545890D01*
X4854854Y-3531768D01*
X4843830Y-3518763D01*
X4831435Y-3507028D01*
X4817872Y-3496716D01*
X4803292Y-3487928D01*
X4787798Y-3480765D01*
X4771644Y-3475329D01*
X4754981Y-3471672D01*
X4738014Y-3469843D01*
X4720996Y-3469843D01*
X4704029Y-3471672D01*
X4687366Y-3475329D01*
X4671212Y-3480765D01*
X4655718Y-3487928D01*
X4641138Y-3496716D01*
X4627524Y-3507028D01*
X4615180Y-3518763D01*
X4604105Y-3531768D01*
X4594555Y-3545890D01*
X4586579Y-3560927D01*
X4580229Y-3576777D01*
X4575708Y-3593236D01*
X4572914Y-3610051D01*
X4572000Y-3627069D01*
X4572914Y-3644087D01*
X4575708Y-3660952D01*
X4580229Y-3677361D01*
X4586579Y-3693210D01*
X4594555Y-3708298D01*
X4604105Y-3722370D01*
X4615180Y-3735374D01*
X4627524Y-3747109D01*
X4641138Y-3757422D01*
X4655718Y-3766210D01*
X4671212Y-3773373D01*
X4687366Y-3778808D01*
X4704029Y-3782517D01*
G37*
G36*
X1694180Y-3754069D02*
G01*
X1713382Y-3753154D01*
X1732381Y-3750310D01*
X1750974Y-3745687D01*
X1769059Y-3739184D01*
X1786382Y-3731006D01*
X1802841Y-3721150D01*
X1818284Y-3709670D01*
X1832508Y-3696817D01*
X1845411Y-3682593D01*
X1856841Y-3667150D01*
X1866696Y-3650691D01*
X1874926Y-3633368D01*
X1881378Y-3615283D01*
X1886051Y-3596640D01*
X1888845Y-3577691D01*
X1889810Y-3558235D01*
X1889810Y-3279343D01*
X1888845Y-3259937D01*
X1886051Y-3240938D01*
X1881378Y-3222345D01*
X1874926Y-3204260D01*
X1866696Y-3186887D01*
X1856841Y-3170428D01*
X1845411Y-3155035D01*
X1832508Y-3140811D01*
X1818284Y-3127908D01*
X1802841Y-3116478D01*
X1786382Y-3106623D01*
X1769059Y-3098393D01*
X1750974Y-3091942D01*
X1732381Y-3087268D01*
X1713382Y-3084423D01*
X1694180Y-3083509D01*
X1675028Y-3084423D01*
X1656029Y-3087268D01*
X1637436Y-3091942D01*
X1619351Y-3098393D01*
X1601978Y-3106623D01*
X1585518Y-3116478D01*
X1570126Y-3127908D01*
X1555902Y-3140811D01*
X1542999Y-3155035D01*
X1531569Y-3170428D01*
X1521714Y-3186887D01*
X1513484Y-3204260D01*
X1507032Y-3222345D01*
X1502359Y-3240938D01*
X1499565Y-3259937D01*
X1498600Y-3279343D01*
X1498600Y-3558235D01*
X1499565Y-3577691D01*
X1502359Y-3596640D01*
X1507032Y-3615283D01*
X1513484Y-3633368D01*
X1521714Y-3650691D01*
X1531569Y-3667150D01*
X1542999Y-3682593D01*
X1555902Y-3696817D01*
X1570126Y-3709670D01*
X1585518Y-3721150D01*
X1601978Y-3731006D01*
X1619351Y-3739184D01*
X1637436Y-3745687D01*
X1656029Y-3750310D01*
X1675028Y-3753154D01*
G37*
G36*
X3781196Y-3443986D02*
G01*
X3798214Y-3443986D01*
X3815181Y-3442157D01*
X3831844Y-3438448D01*
X3847998Y-3433013D01*
X3863492Y-3425850D01*
X3878072Y-3417062D01*
X3891635Y-3406749D01*
X3904030Y-3395014D01*
X3915054Y-3382010D01*
X3924655Y-3367938D01*
X3932631Y-3352850D01*
X3938930Y-3337001D01*
X3943502Y-3320592D01*
X3946245Y-3303727D01*
X3947210Y-3286709D01*
X3946245Y-3269691D01*
X3943502Y-3252876D01*
X3938930Y-3236417D01*
X3932631Y-3220567D01*
X3924655Y-3205530D01*
X3915054Y-3191408D01*
X3904030Y-3178403D01*
X3891635Y-3166668D01*
X3878072Y-3156356D01*
X3863492Y-3147568D01*
X3847998Y-3140405D01*
X3831844Y-3134969D01*
X3815181Y-3131312D01*
X3798214Y-3129483D01*
X3781196Y-3129483D01*
X3764229Y-3131312D01*
X3747566Y-3134969D01*
X3731412Y-3140405D01*
X3715918Y-3147568D01*
X3701338Y-3156356D01*
X3687724Y-3166668D01*
X3675379Y-3178403D01*
X3664305Y-3191408D01*
X3654755Y-3205530D01*
X3646779Y-3220567D01*
X3640429Y-3236417D01*
X3635908Y-3252876D01*
X3633114Y-3269691D01*
X3632200Y-3286709D01*
X3633114Y-3303727D01*
X3635908Y-3320592D01*
X3640429Y-3337001D01*
X3646779Y-3352850D01*
X3654755Y-3367938D01*
X3664305Y-3382010D01*
X3675379Y-3395014D01*
X3687724Y-3406749D01*
X3701338Y-3417062D01*
X3715918Y-3425850D01*
X3731412Y-3433013D01*
X3747566Y-3438448D01*
X3764229Y-3442157D01*
G37*
G36*
X2434996Y-3443986D02*
G01*
X2452014Y-3443986D01*
X2468981Y-3442106D01*
X2485644Y-3438448D01*
X2501798Y-3433013D01*
X2517292Y-3425850D01*
X2531872Y-3417062D01*
X2545435Y-3406749D01*
X2557830Y-3395014D01*
X2568854Y-3382010D01*
X2578455Y-3367887D01*
X2586431Y-3352850D01*
X2592730Y-3337001D01*
X2597302Y-3320592D01*
X2600045Y-3303727D01*
X2601010Y-3286709D01*
X2600045Y-3269691D01*
X2597302Y-3252876D01*
X2592730Y-3236417D01*
X2586431Y-3220567D01*
X2578455Y-3205530D01*
X2568854Y-3191408D01*
X2557830Y-3178403D01*
X2545435Y-3166668D01*
X2531872Y-3156356D01*
X2517292Y-3147568D01*
X2501798Y-3140405D01*
X2485644Y-3134969D01*
X2468981Y-3131312D01*
X2452014Y-3129432D01*
X2434996Y-3129432D01*
X2418029Y-3131312D01*
X2401366Y-3134969D01*
X2385212Y-3140405D01*
X2369718Y-3147568D01*
X2355138Y-3156356D01*
X2341524Y-3166668D01*
X2329180Y-3178403D01*
X2318105Y-3191408D01*
X2308555Y-3205530D01*
X2300579Y-3220567D01*
X2294229Y-3236417D01*
X2289708Y-3252876D01*
X2286914Y-3269691D01*
X2286000Y-3286709D01*
X2286914Y-3303727D01*
X2289708Y-3320592D01*
X2294229Y-3337001D01*
X2300579Y-3352850D01*
X2308555Y-3367887D01*
X2318105Y-3382010D01*
X2329180Y-3395014D01*
X2341524Y-3406749D01*
X2355138Y-3417062D01*
X2369718Y-3425850D01*
X2385212Y-3433013D01*
X2401366Y-3438448D01*
X2418029Y-3442106D01*
G37*
G36*
X6067196Y-3443986D02*
G01*
X6084214Y-3443986D01*
X6101181Y-3442106D01*
X6117844Y-3438448D01*
X6133998Y-3433013D01*
X6149492Y-3425850D01*
X6164072Y-3417062D01*
X6177635Y-3406749D01*
X6190030Y-3395014D01*
X6201054Y-3382010D01*
X6210655Y-3367887D01*
X6218631Y-3352850D01*
X6224930Y-3337001D01*
X6229502Y-3320542D01*
X6232245Y-3303727D01*
X6233210Y-3286709D01*
X6232245Y-3269691D01*
X6229502Y-3252825D01*
X6224930Y-3236417D01*
X6218631Y-3220567D01*
X6210655Y-3205530D01*
X6201054Y-3191408D01*
X6190030Y-3178403D01*
X6177635Y-3166668D01*
X6164072Y-3156356D01*
X6149492Y-3147568D01*
X6133998Y-3140405D01*
X6117844Y-3134969D01*
X6101181Y-3131312D01*
X6084214Y-3129432D01*
X6067196Y-3129432D01*
X6050229Y-3131312D01*
X6033566Y-3134969D01*
X6017412Y-3140405D01*
X6001918Y-3147568D01*
X5987338Y-3156356D01*
X5973724Y-3166668D01*
X5961380Y-3178403D01*
X5950305Y-3191408D01*
X5940755Y-3205530D01*
X5932779Y-3220567D01*
X5926429Y-3236417D01*
X5921908Y-3252825D01*
X5919114Y-3269691D01*
X5918200Y-3286709D01*
X5919114Y-3303727D01*
X5921908Y-3320542D01*
X5926429Y-3337001D01*
X5932779Y-3352850D01*
X5940755Y-3367887D01*
X5950305Y-3382010D01*
X5961380Y-3395014D01*
X5973724Y-3406749D01*
X5987338Y-3417062D01*
X6001918Y-3425850D01*
X6017412Y-3433013D01*
X6033566Y-3438448D01*
X6050229Y-3442106D01*
G37*
G36*
X4720996Y-3443935D02*
G01*
X4738014Y-3443935D01*
X4754981Y-3442106D01*
X4771644Y-3438448D01*
X4787798Y-3433013D01*
X4803292Y-3425850D01*
X4817872Y-3417062D01*
X4831435Y-3406749D01*
X4843830Y-3395014D01*
X4854854Y-3382010D01*
X4864455Y-3367887D01*
X4872431Y-3352850D01*
X4878730Y-3337001D01*
X4883302Y-3320542D01*
X4886045Y-3303727D01*
X4887010Y-3286709D01*
X4886045Y-3269691D01*
X4883302Y-3252825D01*
X4878730Y-3236417D01*
X4872431Y-3220567D01*
X4864455Y-3205480D01*
X4854854Y-3191408D01*
X4843830Y-3178403D01*
X4831435Y-3166668D01*
X4817872Y-3156356D01*
X4803292Y-3147568D01*
X4787798Y-3140405D01*
X4771644Y-3134969D01*
X4754981Y-3131261D01*
X4738014Y-3129432D01*
X4720996Y-3129432D01*
X4704029Y-3131261D01*
X4687366Y-3134969D01*
X4671212Y-3140405D01*
X4655718Y-3147568D01*
X4641138Y-3156356D01*
X4627524Y-3166668D01*
X4615180Y-3178403D01*
X4604105Y-3191408D01*
X4594555Y-3205480D01*
X4586579Y-3220567D01*
X4580229Y-3236417D01*
X4575708Y-3252825D01*
X4572914Y-3269691D01*
X4572000Y-3286709D01*
X4572914Y-3303727D01*
X4575708Y-3320542D01*
X4580229Y-3337001D01*
X4586579Y-3352850D01*
X4594555Y-3367887D01*
X4604105Y-3382010D01*
X4615180Y-3395014D01*
X4627524Y-3406749D01*
X4641138Y-3417062D01*
X4655718Y-3425850D01*
X4671212Y-3433013D01*
X4687366Y-3438448D01*
X4704029Y-3442106D01*
G37*
G36*
X805230Y-2930448D02*
G01*
X826160Y-2929026D01*
X846886Y-2925673D01*
X867206Y-2920492D01*
X887018Y-2913430D01*
X906068Y-2904642D01*
X924204Y-2894177D01*
X941374Y-2882087D01*
X957326Y-2868472D01*
X972007Y-2853436D01*
X985215Y-2837180D01*
X996950Y-2819755D01*
X1007008Y-2801366D01*
X1015390Y-2782112D01*
X1021943Y-2762199D01*
X1026668Y-2741726D01*
X1029563Y-2720949D01*
X1030478Y-2700020D01*
X1029563Y-2679039D01*
X1026668Y-2658262D01*
X1021943Y-2637790D01*
X1015390Y-2617876D01*
X1007008Y-2598623D01*
X996950Y-2580233D01*
X985215Y-2562809D01*
X972007Y-2546553D01*
X957326Y-2531567D01*
X941374Y-2517952D01*
X924204Y-2505862D01*
X906068Y-2495346D01*
X887018Y-2486558D01*
X867206Y-2479548D01*
X846886Y-2474315D01*
X826160Y-2471013D01*
X805230Y-2469540D01*
X784250Y-2470048D01*
X763422Y-2472436D01*
X742899Y-2476703D01*
X722833Y-2482799D01*
X703376Y-2490724D01*
X684733Y-2500376D01*
X667054Y-2511704D01*
X650494Y-2524556D01*
X635152Y-2538882D01*
X621182Y-2554528D01*
X608736Y-2571394D01*
X597814Y-2589326D01*
X588568Y-2608173D01*
X581101Y-2627782D01*
X575462Y-2648000D01*
X571652Y-2668625D01*
X569722Y-2689504D01*
X569722Y-2710484D01*
X571652Y-2731363D01*
X575462Y-2752039D01*
X581101Y-2772206D01*
X588568Y-2791815D01*
X597814Y-2810662D01*
X608736Y-2828594D01*
X621182Y-2845460D01*
X635152Y-2861106D01*
X650494Y-2875432D01*
X667054Y-2888284D01*
X684733Y-2899613D01*
X703376Y-2909265D01*
X722833Y-2917190D01*
X742899Y-2923286D01*
X763422Y-2927553D01*
X784250Y-2929940D01*
G37*
G36*
X5307482Y-2919526D02*
G01*
X5426506Y-2919526D01*
X5432958Y-2918866D01*
X5438648Y-2917139D01*
X5443931Y-2914345D01*
X5448554Y-2910535D01*
X5452313Y-2905912D01*
X5455158Y-2900680D01*
X5456885Y-2894939D01*
X5457494Y-2888488D01*
X5457494Y-2859684D01*
X5458256Y-2855772D01*
X5460492Y-2852470D01*
X5463794Y-2850286D01*
X5467654Y-2849524D01*
X5703316Y-2849524D01*
X5707227Y-2850286D01*
X5710529Y-2852470D01*
X5712714Y-2855772D01*
X5713476Y-2859684D01*
X5713476Y-2883509D01*
X5714136Y-2889961D01*
X5715863Y-2895650D01*
X5718657Y-2900934D01*
X5722467Y-2905556D01*
X5727090Y-2909316D01*
X5732322Y-2912160D01*
X5738063Y-2913888D01*
X5744464Y-2914497D01*
X5893511Y-2914497D01*
X5899912Y-2913888D01*
X5905652Y-2912160D01*
X5910884Y-2909316D01*
X5915507Y-2905556D01*
X5919317Y-2900934D01*
X5922111Y-2895650D01*
X5923838Y-2889961D01*
X5924499Y-2883509D01*
X5924499Y-2704490D01*
X5923838Y-2698038D01*
X5922111Y-2692349D01*
X5919317Y-2687066D01*
X5915507Y-2682443D01*
X5910884Y-2678684D01*
X5905652Y-2675839D01*
X5899912Y-2674112D01*
X5893511Y-2673502D01*
X5744464Y-2673502D01*
X5738063Y-2674112D01*
X5732322Y-2675839D01*
X5727090Y-2678684D01*
X5722467Y-2682443D01*
X5718657Y-2687066D01*
X5715863Y-2692349D01*
X5714136Y-2698038D01*
X5713476Y-2704490D01*
X5713476Y-2728315D01*
X5712714Y-2732227D01*
X5710529Y-2735529D01*
X5707227Y-2737713D01*
X5703316Y-2738475D01*
X5467654Y-2738475D01*
X5463794Y-2737713D01*
X5460492Y-2735529D01*
X5458256Y-2732227D01*
X5457494Y-2728315D01*
X5457494Y-2699512D01*
X5456885Y-2693060D01*
X5455158Y-2687320D01*
X5452313Y-2682087D01*
X5448554Y-2677464D01*
X5443931Y-2673654D01*
X5438648Y-2670860D01*
X5432958Y-2669133D01*
X5426506Y-2668473D01*
X5307482Y-2668473D01*
X5301030Y-2669133D01*
X5295341Y-2670860D01*
X5290058Y-2673654D01*
X5285486Y-2677464D01*
X5281676Y-2682087D01*
X5278882Y-2687320D01*
X5277104Y-2693060D01*
X5276494Y-2699512D01*
X5276494Y-2888488D01*
X5277104Y-2894939D01*
X5278882Y-2900680D01*
X5281676Y-2905912D01*
X5285486Y-2910535D01*
X5290058Y-2914345D01*
X5295341Y-2917139D01*
X5301030Y-2918866D01*
G37*
G36*
X6044488Y-2914497D02*
G01*
X6193485Y-2914497D01*
X6199936Y-2913888D01*
X6205626Y-2912160D01*
X6210909Y-2909316D01*
X6215532Y-2905556D01*
X6219291Y-2900934D01*
X6222136Y-2895650D01*
X6223863Y-2889961D01*
X6224473Y-2883509D01*
X6224473Y-2704490D01*
X6223863Y-2698038D01*
X6222136Y-2692349D01*
X6219291Y-2687066D01*
X6215532Y-2682443D01*
X6210909Y-2678684D01*
X6205626Y-2675839D01*
X6199936Y-2674112D01*
X6193485Y-2673502D01*
X6184646Y-2673502D01*
X6180785Y-2672740D01*
X6177483Y-2670505D01*
X6175298Y-2667203D01*
X6174486Y-2663342D01*
X6174486Y-2357475D01*
X6175349Y-2353462D01*
X6177686Y-2350109D01*
X6190030Y-2338374D01*
X6201054Y-2325370D01*
X6210655Y-2311298D01*
X6218631Y-2296210D01*
X6224930Y-2280361D01*
X6229502Y-2263952D01*
X6232245Y-2247087D01*
X6233210Y-2230069D01*
X6232245Y-2213051D01*
X6229502Y-2196236D01*
X6224930Y-2179777D01*
X6218631Y-2163978D01*
X6210655Y-2148890D01*
X6201054Y-2134768D01*
X6190030Y-2121763D01*
X6177635Y-2110028D01*
X6164072Y-2099716D01*
X6149492Y-2090928D01*
X6133998Y-2083765D01*
X6117844Y-2078329D01*
X6101181Y-2074672D01*
X6084214Y-2072843D01*
X6067196Y-2072843D01*
X6050229Y-2074672D01*
X6033566Y-2078329D01*
X6017412Y-2083765D01*
X6001918Y-2090928D01*
X5987338Y-2099716D01*
X5973724Y-2110028D01*
X5961380Y-2121763D01*
X5950305Y-2134768D01*
X5940755Y-2148890D01*
X5932779Y-2163978D01*
X5926429Y-2179777D01*
X5921908Y-2196236D01*
X5919114Y-2213051D01*
X5918200Y-2230069D01*
X5919114Y-2247087D01*
X5921908Y-2263952D01*
X5926429Y-2280361D01*
X5932779Y-2296210D01*
X5940755Y-2311298D01*
X5950305Y-2325370D01*
X5961380Y-2338374D01*
X5973724Y-2350109D01*
X5987338Y-2360422D01*
X6001918Y-2369210D01*
X6017412Y-2376373D01*
X6033566Y-2381859D01*
X6050229Y-2385517D01*
X6054445Y-2385974D01*
X6057950Y-2387041D01*
X6060897Y-2389276D01*
X6062827Y-2392426D01*
X6063488Y-2396083D01*
X6063488Y-2663342D01*
X6062726Y-2667203D01*
X6060541Y-2670505D01*
X6057239Y-2672740D01*
X6053328Y-2673502D01*
X6044488Y-2673502D01*
X6038037Y-2674112D01*
X6032347Y-2675839D01*
X6027064Y-2678684D01*
X6022441Y-2682443D01*
X6018682Y-2687066D01*
X6015837Y-2692349D01*
X6014110Y-2698038D01*
X6013500Y-2704490D01*
X6013500Y-2883509D01*
X6014110Y-2889961D01*
X6015837Y-2895650D01*
X6018682Y-2900934D01*
X6022441Y-2905556D01*
X6027064Y-2909316D01*
X6032347Y-2912160D01*
X6038037Y-2913888D01*
G37*
G36*
X3151124Y-2820416D02*
G01*
X3270097Y-2820416D01*
X3276549Y-2819755D01*
X3282238Y-2818028D01*
X3287522Y-2815234D01*
X3292144Y-2811424D01*
X3295904Y-2806801D01*
X3298748Y-2801569D01*
X3300476Y-2795828D01*
X3301085Y-2789377D01*
X3301085Y-2600401D01*
X3300476Y-2593949D01*
X3298748Y-2588260D01*
X3295904Y-2582976D01*
X3292144Y-2578354D01*
X3287522Y-2574594D01*
X3282238Y-2571750D01*
X3276549Y-2570022D01*
X3270097Y-2569413D01*
X3151124Y-2569413D01*
X3144672Y-2570022D01*
X3138932Y-2571750D01*
X3133699Y-2574594D01*
X3129076Y-2578354D01*
X3125266Y-2582976D01*
X3122472Y-2588260D01*
X3120745Y-2593949D01*
X3120085Y-2600401D01*
X3120085Y-2629255D01*
X3119323Y-2633116D01*
X3117138Y-2636418D01*
X3113836Y-2638602D01*
X3109925Y-2639415D01*
X2874264Y-2639415D01*
X2870403Y-2638602D01*
X2867101Y-2636418D01*
X2864916Y-2633116D01*
X2864104Y-2629255D01*
X2864104Y-2605379D01*
X2863494Y-2598978D01*
X2861767Y-2593238D01*
X2858922Y-2587955D01*
X2855163Y-2583383D01*
X2850540Y-2579573D01*
X2845257Y-2576779D01*
X2839567Y-2575052D01*
X2833116Y-2574391D01*
X2684119Y-2574391D01*
X2677668Y-2575052D01*
X2671978Y-2576779D01*
X2666695Y-2579573D01*
X2662072Y-2583383D01*
X2658313Y-2587955D01*
X2655468Y-2593238D01*
X2653741Y-2598978D01*
X2653131Y-2605379D01*
X2653131Y-2784398D01*
X2653741Y-2790850D01*
X2655468Y-2796540D01*
X2658313Y-2801823D01*
X2662072Y-2806446D01*
X2666695Y-2810205D01*
X2671978Y-2813050D01*
X2677668Y-2814777D01*
X2684119Y-2815386D01*
X2833116Y-2815386D01*
X2839567Y-2814777D01*
X2845257Y-2813050D01*
X2850540Y-2810205D01*
X2855163Y-2806446D01*
X2858922Y-2801823D01*
X2861767Y-2796540D01*
X2863494Y-2790850D01*
X2864104Y-2784398D01*
X2864104Y-2760573D01*
X2864916Y-2756662D01*
X2867101Y-2753360D01*
X2870403Y-2751175D01*
X2874264Y-2750413D01*
X3109925Y-2750413D01*
X3113836Y-2751175D01*
X3117138Y-2753360D01*
X3119323Y-2756662D01*
X3120085Y-2760573D01*
X3120085Y-2789377D01*
X3120745Y-2795828D01*
X3122472Y-2801569D01*
X3125266Y-2806801D01*
X3129076Y-2811424D01*
X3133699Y-2815234D01*
X3138932Y-2818028D01*
X3144672Y-2819755D01*
G37*
G36*
X2384094Y-2815386D02*
G01*
X2533091Y-2815386D01*
X2539542Y-2814777D01*
X2545283Y-2813050D01*
X2550515Y-2810205D01*
X2555138Y-2806446D01*
X2558948Y-2801823D01*
X2561742Y-2796540D01*
X2563469Y-2790850D01*
X2564130Y-2784398D01*
X2564130Y-2605379D01*
X2563469Y-2598978D01*
X2561742Y-2593238D01*
X2558948Y-2587955D01*
X2555138Y-2583383D01*
X2550515Y-2579573D01*
X2545283Y-2576779D01*
X2539542Y-2575052D01*
X2533091Y-2574391D01*
X2524252Y-2574391D01*
X2520391Y-2573629D01*
X2517089Y-2571394D01*
X2514904Y-2568143D01*
X2514092Y-2564231D01*
X2514092Y-2376881D01*
X2514701Y-2373477D01*
X2516428Y-2370429D01*
X2519019Y-2368194D01*
X2531872Y-2360472D01*
X2545435Y-2350109D01*
X2557830Y-2338425D01*
X2568854Y-2325420D01*
X2578455Y-2311298D01*
X2586431Y-2296210D01*
X2592730Y-2280361D01*
X2597302Y-2263952D01*
X2600045Y-2247138D01*
X2601010Y-2230120D01*
X2600045Y-2213051D01*
X2597302Y-2196236D01*
X2592730Y-2179828D01*
X2586431Y-2163978D01*
X2578455Y-2148890D01*
X2568854Y-2134768D01*
X2557830Y-2121763D01*
X2545435Y-2110079D01*
X2531872Y-2099716D01*
X2517292Y-2090928D01*
X2501798Y-2083765D01*
X2485644Y-2078329D01*
X2468981Y-2074672D01*
X2452014Y-2072843D01*
X2434996Y-2072843D01*
X2418029Y-2074672D01*
X2401366Y-2078329D01*
X2385212Y-2083765D01*
X2369718Y-2090928D01*
X2355138Y-2099716D01*
X2341524Y-2110079D01*
X2329180Y-2121763D01*
X2318105Y-2134768D01*
X2308555Y-2148890D01*
X2300579Y-2163978D01*
X2294229Y-2179828D01*
X2289708Y-2196236D01*
X2286914Y-2213051D01*
X2286000Y-2230120D01*
X2286914Y-2247138D01*
X2289708Y-2263952D01*
X2294229Y-2280361D01*
X2300579Y-2296210D01*
X2308555Y-2311298D01*
X2318105Y-2325420D01*
X2329180Y-2338425D01*
X2341524Y-2350109D01*
X2355138Y-2360472D01*
X2369718Y-2369261D01*
X2385212Y-2376424D01*
X2396185Y-2380081D01*
X2399792Y-2382215D01*
X2402230Y-2385618D01*
X2403094Y-2389733D01*
X2403094Y-2564231D01*
X2402332Y-2568143D01*
X2400096Y-2571394D01*
X2396845Y-2573629D01*
X2392934Y-2574391D01*
X2384094Y-2574391D01*
X2377694Y-2575052D01*
X2371953Y-2576779D01*
X2366670Y-2579573D01*
X2362098Y-2583383D01*
X2358288Y-2587955D01*
X2355494Y-2593238D01*
X2353767Y-2598978D01*
X2353106Y-2605379D01*
X2353106Y-2784398D01*
X2353767Y-2790850D01*
X2355494Y-2796540D01*
X2358288Y-2801823D01*
X2362098Y-2806446D01*
X2366670Y-2810205D01*
X2371953Y-2813050D01*
X2377694Y-2814777D01*
G37*
G36*
X6824980Y-2433269D02*
G01*
X6844182Y-2432354D01*
X6863181Y-2429510D01*
X6881774Y-2424887D01*
X6899859Y-2418384D01*
X6917181Y-2410206D01*
X6933641Y-2400350D01*
X6949084Y-2388870D01*
X6963308Y-2376017D01*
X6976211Y-2361793D01*
X6987641Y-2346350D01*
X6997496Y-2329891D01*
X7005726Y-2312568D01*
X7012178Y-2294483D01*
X7016851Y-2275840D01*
X7019645Y-2256891D01*
X7020610Y-2237435D01*
X7020610Y-1958543D01*
X7019645Y-1939137D01*
X7016851Y-1920138D01*
X7012178Y-1901545D01*
X7005726Y-1883460D01*
X6997496Y-1866087D01*
X6987641Y-1849628D01*
X6976211Y-1834235D01*
X6963308Y-1820011D01*
X6949084Y-1807108D01*
X6933641Y-1795678D01*
X6917181Y-1785823D01*
X6899859Y-1777593D01*
X6881774Y-1771142D01*
X6863181Y-1766468D01*
X6844182Y-1763623D01*
X6824980Y-1762709D01*
X6805828Y-1763623D01*
X6786829Y-1766468D01*
X6768236Y-1771142D01*
X6750151Y-1777593D01*
X6732778Y-1785823D01*
X6716318Y-1795678D01*
X6700926Y-1807108D01*
X6686702Y-1820011D01*
X6673799Y-1834235D01*
X6662369Y-1849628D01*
X6652514Y-1866087D01*
X6644284Y-1883460D01*
X6637832Y-1901545D01*
X6633159Y-1920138D01*
X6630365Y-1939137D01*
X6629400Y-1958543D01*
X6629400Y-2237435D01*
X6630365Y-2256891D01*
X6633159Y-2275840D01*
X6637832Y-2294483D01*
X6644284Y-2312568D01*
X6652514Y-2329891D01*
X6662369Y-2346350D01*
X6673799Y-2361793D01*
X6686702Y-2376017D01*
X6700926Y-2388870D01*
X6716318Y-2400350D01*
X6732778Y-2410206D01*
X6750151Y-2418384D01*
X6768236Y-2424887D01*
X6786829Y-2429510D01*
X6805828Y-2432354D01*
G37*
G36*
X3781196Y-2387346D02*
G01*
X3798214Y-2387346D01*
X3815181Y-2385517D01*
X3831844Y-2381859D01*
X3847998Y-2376424D01*
X3863492Y-2369261D01*
X3878072Y-2360472D01*
X3891635Y-2350109D01*
X3904030Y-2338425D01*
X3915054Y-2325420D01*
X3924655Y-2311298D01*
X3932631Y-2296210D01*
X3938930Y-2280412D01*
X3943502Y-2263952D01*
X3946245Y-2247138D01*
X3947210Y-2230120D01*
X3946245Y-2213051D01*
X3943502Y-2196236D01*
X3938930Y-2179828D01*
X3932631Y-2163978D01*
X3924655Y-2148890D01*
X3915054Y-2134768D01*
X3904030Y-2121814D01*
X3891635Y-2110079D01*
X3878072Y-2099767D01*
X3863492Y-2090978D01*
X3847998Y-2083816D01*
X3831844Y-2078329D01*
X3815181Y-2074672D01*
X3798214Y-2072843D01*
X3781196Y-2072843D01*
X3764229Y-2074672D01*
X3747566Y-2078329D01*
X3731412Y-2083816D01*
X3715918Y-2090978D01*
X3701338Y-2099767D01*
X3687724Y-2110079D01*
X3675379Y-2121814D01*
X3664305Y-2134768D01*
X3654755Y-2148890D01*
X3646779Y-2163978D01*
X3640429Y-2179828D01*
X3635908Y-2196236D01*
X3633114Y-2213051D01*
X3632200Y-2230120D01*
X3633114Y-2247138D01*
X3635908Y-2263952D01*
X3640429Y-2280412D01*
X3646779Y-2296210D01*
X3654755Y-2311298D01*
X3664305Y-2325420D01*
X3675379Y-2338425D01*
X3687724Y-2350109D01*
X3701338Y-2360472D01*
X3715918Y-2369261D01*
X3731412Y-2376424D01*
X3747566Y-2381859D01*
X3764229Y-2385517D01*
G37*
G36*
X4720996Y-2387346D02*
G01*
X4738014Y-2387346D01*
X4754981Y-2385517D01*
X4771644Y-2381808D01*
X4787798Y-2376373D01*
X4803292Y-2369210D01*
X4817872Y-2360422D01*
X4831435Y-2350109D01*
X4843830Y-2338374D01*
X4854854Y-2325370D01*
X4864455Y-2311298D01*
X4872431Y-2296210D01*
X4878730Y-2280361D01*
X4883302Y-2263952D01*
X4886045Y-2247087D01*
X4887010Y-2230069D01*
X4886045Y-2213051D01*
X4883302Y-2196236D01*
X4878730Y-2179777D01*
X4872431Y-2163927D01*
X4864455Y-2148890D01*
X4854854Y-2134768D01*
X4843830Y-2121763D01*
X4831435Y-2110028D01*
X4817872Y-2099716D01*
X4803292Y-2090928D01*
X4787798Y-2083765D01*
X4771644Y-2078329D01*
X4754981Y-2074672D01*
X4738014Y-2072843D01*
X4720996Y-2072843D01*
X4704029Y-2074672D01*
X4687366Y-2078329D01*
X4671212Y-2083765D01*
X4655718Y-2090928D01*
X4641138Y-2099716D01*
X4627524Y-2110028D01*
X4615180Y-2121763D01*
X4604105Y-2134768D01*
X4594555Y-2148890D01*
X4586579Y-2163927D01*
X4580229Y-2179777D01*
X4575708Y-2196236D01*
X4572914Y-2213051D01*
X4572000Y-2230069D01*
X4572914Y-2247087D01*
X4575708Y-2263952D01*
X4580229Y-2280361D01*
X4586579Y-2296210D01*
X4594555Y-2311298D01*
X4604105Y-2325370D01*
X4615180Y-2338374D01*
X4627524Y-2350109D01*
X4641138Y-2360422D01*
X4655718Y-2369210D01*
X4671212Y-2376373D01*
X4687366Y-2381808D01*
X4704029Y-2385517D01*
G37*
G36*
X1694180Y-2357069D02*
G01*
X1713382Y-2356154D01*
X1732381Y-2353310D01*
X1750974Y-2348687D01*
X1769059Y-2342184D01*
X1786382Y-2334006D01*
X1802841Y-2324150D01*
X1818284Y-2312670D01*
X1832508Y-2299817D01*
X1845411Y-2285593D01*
X1856841Y-2270150D01*
X1866696Y-2253691D01*
X1874926Y-2236368D01*
X1881378Y-2218283D01*
X1886051Y-2199640D01*
X1888845Y-2180691D01*
X1889810Y-2161235D01*
X1889810Y-1882343D01*
X1888845Y-1862937D01*
X1886051Y-1843938D01*
X1881378Y-1825345D01*
X1874926Y-1807260D01*
X1866696Y-1789887D01*
X1856841Y-1773428D01*
X1845411Y-1758035D01*
X1832508Y-1743811D01*
X1818284Y-1730908D01*
X1802841Y-1719478D01*
X1786382Y-1709623D01*
X1769059Y-1701393D01*
X1750974Y-1694942D01*
X1732381Y-1690268D01*
X1713382Y-1687423D01*
X1694180Y-1686509D01*
X1675028Y-1687423D01*
X1656029Y-1690268D01*
X1637436Y-1694942D01*
X1619351Y-1701393D01*
X1601978Y-1709623D01*
X1585518Y-1719478D01*
X1570126Y-1730908D01*
X1555902Y-1743811D01*
X1542999Y-1758035D01*
X1531569Y-1773428D01*
X1521714Y-1789887D01*
X1513484Y-1807260D01*
X1507032Y-1825345D01*
X1502359Y-1843938D01*
X1499565Y-1862937D01*
X1498600Y-1882343D01*
X1498600Y-2161235D01*
X1499565Y-2180691D01*
X1502359Y-2199640D01*
X1507032Y-2218283D01*
X1513484Y-2236368D01*
X1521714Y-2253691D01*
X1531569Y-2270150D01*
X1542999Y-2285593D01*
X1555902Y-2299817D01*
X1570126Y-2312670D01*
X1585518Y-2324150D01*
X1601978Y-2334006D01*
X1619351Y-2342184D01*
X1637436Y-2348687D01*
X1656029Y-2353310D01*
X1675028Y-2356154D01*
G37*
G36*
X3781196Y-2046986D02*
G01*
X3798214Y-2046986D01*
X3815181Y-2045157D01*
X3831844Y-2041448D01*
X3847998Y-2036013D01*
X3863492Y-2028850D01*
X3878072Y-2020062D01*
X3891635Y-2009749D01*
X3904030Y-1998014D01*
X3915054Y-1985010D01*
X3924655Y-1970938D01*
X3932631Y-1955850D01*
X3938930Y-1940001D01*
X3943502Y-1923592D01*
X3946245Y-1906727D01*
X3947210Y-1889709D01*
X3946245Y-1872691D01*
X3943502Y-1855876D01*
X3938930Y-1839417D01*
X3932631Y-1823567D01*
X3924655Y-1808530D01*
X3915054Y-1794408D01*
X3904030Y-1781403D01*
X3891635Y-1769668D01*
X3878072Y-1759356D01*
X3863492Y-1750568D01*
X3847998Y-1743405D01*
X3831844Y-1737969D01*
X3815181Y-1734312D01*
X3798214Y-1732483D01*
X3781196Y-1732483D01*
X3764229Y-1734312D01*
X3747566Y-1737969D01*
X3731412Y-1743405D01*
X3715918Y-1750568D01*
X3701338Y-1759356D01*
X3687724Y-1769668D01*
X3675379Y-1781403D01*
X3664305Y-1794408D01*
X3654755Y-1808530D01*
X3646779Y-1823567D01*
X3640429Y-1839417D01*
X3635908Y-1855876D01*
X3633114Y-1872691D01*
X3632200Y-1889709D01*
X3633114Y-1906727D01*
X3635908Y-1923592D01*
X3640429Y-1940001D01*
X3646779Y-1955850D01*
X3654755Y-1970938D01*
X3664305Y-1985010D01*
X3675379Y-1998014D01*
X3687724Y-2009749D01*
X3701338Y-2020062D01*
X3715918Y-2028850D01*
X3731412Y-2036013D01*
X3747566Y-2041448D01*
X3764229Y-2045157D01*
G37*
G36*
X2434996Y-2046986D02*
G01*
X2452014Y-2046986D01*
X2468981Y-2045106D01*
X2485644Y-2041448D01*
X2501798Y-2036013D01*
X2517292Y-2028850D01*
X2531872Y-2020062D01*
X2545435Y-2009749D01*
X2557830Y-1998014D01*
X2568854Y-1985010D01*
X2578455Y-1970887D01*
X2586431Y-1955850D01*
X2592730Y-1940001D01*
X2597302Y-1923592D01*
X2600045Y-1906727D01*
X2601010Y-1889709D01*
X2600045Y-1872691D01*
X2597302Y-1855876D01*
X2592730Y-1839417D01*
X2586431Y-1823567D01*
X2578455Y-1808530D01*
X2568854Y-1794408D01*
X2557830Y-1781403D01*
X2545435Y-1769668D01*
X2531872Y-1759356D01*
X2517292Y-1750568D01*
X2501798Y-1743405D01*
X2485644Y-1737969D01*
X2468981Y-1734312D01*
X2452014Y-1732432D01*
X2434996Y-1732432D01*
X2418029Y-1734312D01*
X2401366Y-1737969D01*
X2385212Y-1743405D01*
X2369718Y-1750568D01*
X2355138Y-1759356D01*
X2341524Y-1769668D01*
X2329180Y-1781403D01*
X2318105Y-1794408D01*
X2308555Y-1808530D01*
X2300579Y-1823567D01*
X2294229Y-1839417D01*
X2289708Y-1855876D01*
X2286914Y-1872691D01*
X2286000Y-1889709D01*
X2286914Y-1906727D01*
X2289708Y-1923592D01*
X2294229Y-1940001D01*
X2300579Y-1955850D01*
X2308555Y-1970887D01*
X2318105Y-1985010D01*
X2329180Y-1998014D01*
X2341524Y-2009749D01*
X2355138Y-2020062D01*
X2369718Y-2028850D01*
X2385212Y-2036013D01*
X2401366Y-2041448D01*
X2418029Y-2045106D01*
G37*
G36*
X6067196Y-2046986D02*
G01*
X6084214Y-2046986D01*
X6101181Y-2045106D01*
X6117844Y-2041448D01*
X6133998Y-2036013D01*
X6149492Y-2028850D01*
X6164072Y-2020062D01*
X6177635Y-2009749D01*
X6190030Y-1998014D01*
X6201054Y-1985010D01*
X6210655Y-1970887D01*
X6218631Y-1955850D01*
X6224930Y-1940001D01*
X6229502Y-1923542D01*
X6232245Y-1906727D01*
X6233210Y-1889709D01*
X6232245Y-1872691D01*
X6229502Y-1855825D01*
X6224930Y-1839417D01*
X6218631Y-1823567D01*
X6210655Y-1808530D01*
X6201054Y-1794408D01*
X6190030Y-1781403D01*
X6177635Y-1769668D01*
X6164072Y-1759356D01*
X6149492Y-1750568D01*
X6133998Y-1743405D01*
X6117844Y-1737969D01*
X6101181Y-1734312D01*
X6084214Y-1732432D01*
X6067196Y-1732432D01*
X6050229Y-1734312D01*
X6033566Y-1737969D01*
X6017412Y-1743405D01*
X6001918Y-1750568D01*
X5987338Y-1759356D01*
X5973724Y-1769668D01*
X5961380Y-1781403D01*
X5950305Y-1794408D01*
X5940755Y-1808530D01*
X5932779Y-1823567D01*
X5926429Y-1839417D01*
X5921908Y-1855825D01*
X5919114Y-1872691D01*
X5918200Y-1889709D01*
X5919114Y-1906727D01*
X5921908Y-1923542D01*
X5926429Y-1940001D01*
X5932779Y-1955850D01*
X5940755Y-1970887D01*
X5950305Y-1985010D01*
X5961380Y-1998014D01*
X5973724Y-2009749D01*
X5987338Y-2020062D01*
X6001918Y-2028850D01*
X6017412Y-2036013D01*
X6033566Y-2041448D01*
X6050229Y-2045106D01*
G37*
G36*
X4720996Y-2046935D02*
G01*
X4738014Y-2046935D01*
X4754981Y-2045106D01*
X4771644Y-2041448D01*
X4787798Y-2036013D01*
X4803292Y-2028850D01*
X4817872Y-2020062D01*
X4831435Y-2009749D01*
X4843830Y-1998014D01*
X4854854Y-1985010D01*
X4864455Y-1970887D01*
X4872431Y-1955850D01*
X4878730Y-1940001D01*
X4883302Y-1923542D01*
X4886045Y-1906727D01*
X4887010Y-1889709D01*
X4886045Y-1872691D01*
X4883302Y-1855825D01*
X4878730Y-1839417D01*
X4872431Y-1823567D01*
X4864455Y-1808480D01*
X4854854Y-1794408D01*
X4843830Y-1781403D01*
X4831435Y-1769668D01*
X4817872Y-1759356D01*
X4803292Y-1750568D01*
X4787798Y-1743405D01*
X4771644Y-1737969D01*
X4754981Y-1734261D01*
X4738014Y-1732432D01*
X4720996Y-1732432D01*
X4704029Y-1734261D01*
X4687366Y-1737969D01*
X4671212Y-1743405D01*
X4655718Y-1750568D01*
X4641138Y-1759356D01*
X4627524Y-1769668D01*
X4615180Y-1781403D01*
X4604105Y-1794408D01*
X4594555Y-1808480D01*
X4586579Y-1823567D01*
X4580229Y-1839417D01*
X4575708Y-1855825D01*
X4572914Y-1872691D01*
X4572000Y-1889709D01*
X4572914Y-1906727D01*
X4575708Y-1923542D01*
X4580229Y-1940001D01*
X4586579Y-1955850D01*
X4594555Y-1970887D01*
X4604105Y-1985010D01*
X4615180Y-1998014D01*
X4627524Y-2009749D01*
X4641138Y-2020062D01*
X4655718Y-2028850D01*
X4671212Y-2036013D01*
X4687366Y-2041448D01*
X4704029Y-2045106D01*
G37*
G36*
X3958996Y-1371346D02*
G01*
X3976014Y-1371346D01*
X3992981Y-1369517D01*
X4009644Y-1365808D01*
X4025798Y-1360373D01*
X4041292Y-1353210D01*
X4055872Y-1344422D01*
X4069435Y-1334109D01*
X4081830Y-1322374D01*
X4092854Y-1309370D01*
X4102455Y-1295298D01*
X4110431Y-1280210D01*
X4116730Y-1264361D01*
X4121302Y-1247952D01*
X4124045Y-1231087D01*
X4125010Y-1214069D01*
X4124045Y-1197051D01*
X4121302Y-1180236D01*
X4116730Y-1163777D01*
X4110431Y-1147927D01*
X4102455Y-1132890D01*
X4092854Y-1118768D01*
X4081830Y-1105763D01*
X4069435Y-1094028D01*
X4055872Y-1083716D01*
X4041292Y-1074928D01*
X4025798Y-1067765D01*
X4009644Y-1062329D01*
X3992981Y-1058672D01*
X3976014Y-1056843D01*
X3958996Y-1056843D01*
X3942029Y-1058672D01*
X3925366Y-1062329D01*
X3909212Y-1067765D01*
X3893718Y-1074928D01*
X3879138Y-1083716D01*
X3865524Y-1094028D01*
X3853179Y-1105763D01*
X3842105Y-1118768D01*
X3832555Y-1132890D01*
X3824579Y-1147927D01*
X3818229Y-1163777D01*
X3813708Y-1180236D01*
X3810914Y-1197051D01*
X3810000Y-1214069D01*
X3810914Y-1231087D01*
X3813708Y-1247952D01*
X3818229Y-1264361D01*
X3824579Y-1280210D01*
X3832555Y-1295298D01*
X3842105Y-1309370D01*
X3853179Y-1322374D01*
X3865524Y-1334109D01*
X3879138Y-1344422D01*
X3893718Y-1353210D01*
X3909212Y-1360373D01*
X3925366Y-1365808D01*
X3942029Y-1369517D01*
G37*
G36*
X5305196Y-1371346D02*
G01*
X5322214Y-1371346D01*
X5339181Y-1369517D01*
X5355844Y-1365859D01*
X5371998Y-1360373D01*
X5387492Y-1353210D01*
X5402072Y-1344422D01*
X5415635Y-1334109D01*
X5428030Y-1322374D01*
X5439054Y-1309370D01*
X5448655Y-1295298D01*
X5456631Y-1280210D01*
X5462930Y-1264361D01*
X5467502Y-1247952D01*
X5470245Y-1231087D01*
X5471210Y-1214069D01*
X5470245Y-1197051D01*
X5467502Y-1180236D01*
X5462930Y-1163777D01*
X5459577Y-1155395D01*
X5458866Y-1151534D01*
X5459679Y-1147673D01*
X5461863Y-1144422D01*
X5503875Y-1102360D01*
X5507177Y-1100175D01*
X5511088Y-1099413D01*
X5771946Y-1099413D01*
X5775858Y-1100175D01*
X5779109Y-1102360D01*
X5781344Y-1105662D01*
X5782106Y-1109573D01*
X5782106Y-1133398D01*
X5782767Y-1139850D01*
X5784494Y-1145540D01*
X5787288Y-1150823D01*
X5791098Y-1155446D01*
X5795670Y-1159205D01*
X5800953Y-1162050D01*
X5806694Y-1163777D01*
X5813094Y-1164386D01*
X5962091Y-1164386D01*
X5968542Y-1163777D01*
X5974283Y-1162050D01*
X5979515Y-1159205D01*
X5984138Y-1155446D01*
X5987948Y-1150823D01*
X5990742Y-1145540D01*
X5992469Y-1139850D01*
X5993130Y-1133398D01*
X5993130Y-954379D01*
X5992469Y-947978D01*
X5990742Y-942238D01*
X5987948Y-936955D01*
X5984138Y-932383D01*
X5979515Y-928573D01*
X5974283Y-925779D01*
X5968542Y-924052D01*
X5962091Y-923391D01*
X5813094Y-923391D01*
X5806694Y-924052D01*
X5800953Y-925779D01*
X5795670Y-928573D01*
X5791098Y-932383D01*
X5787288Y-936955D01*
X5784494Y-942238D01*
X5782767Y-947978D01*
X5782106Y-954379D01*
X5782106Y-978255D01*
X5781344Y-982116D01*
X5779109Y-985418D01*
X5775858Y-987602D01*
X5771946Y-988415D01*
X5484114Y-988415D01*
X5479034Y-988618D01*
X5474258Y-989228D01*
X5469534Y-990295D01*
X5464911Y-991768D01*
X5460441Y-993597D01*
X5456123Y-995832D01*
X5452059Y-998423D01*
X5448198Y-1001369D01*
X5444490Y-1004824D01*
X5383530Y-1065784D01*
X5380431Y-1067866D01*
X5376773Y-1068730D01*
X5373065Y-1068222D01*
X5355793Y-1062329D01*
X5339181Y-1058672D01*
X5322214Y-1056843D01*
X5305196Y-1056843D01*
X5288229Y-1058672D01*
X5271566Y-1062329D01*
X5255412Y-1067765D01*
X5239918Y-1074928D01*
X5225338Y-1083716D01*
X5211724Y-1094028D01*
X5199380Y-1105763D01*
X5188305Y-1118768D01*
X5178755Y-1132890D01*
X5170779Y-1147978D01*
X5164429Y-1163777D01*
X5159908Y-1180236D01*
X5157114Y-1197051D01*
X5156200Y-1214069D01*
X5157114Y-1231087D01*
X5159908Y-1247952D01*
X5164429Y-1264361D01*
X5170779Y-1280210D01*
X5178755Y-1295298D01*
X5188305Y-1309370D01*
X5199380Y-1322374D01*
X5211724Y-1334109D01*
X5225338Y-1344422D01*
X5239918Y-1353210D01*
X5255412Y-1360373D01*
X5271566Y-1365859D01*
X5288229Y-1369517D01*
G37*
G36*
X3020923Y-1321409D02*
G01*
X3045206Y-1320901D01*
X3069386Y-1318514D01*
X3093262Y-1314196D01*
X3116732Y-1307947D01*
X3139643Y-1299921D01*
X3161842Y-1290066D01*
X3183229Y-1278483D01*
X3203549Y-1265224D01*
X3222802Y-1250442D01*
X3240836Y-1234135D01*
X3257499Y-1216456D01*
X3272688Y-1197508D01*
X3286302Y-1177391D01*
X3298342Y-1156309D01*
X3308604Y-1134313D01*
X3317138Y-1111554D01*
X3323793Y-1088186D01*
X3328568Y-1064361D01*
X3331464Y-1040282D01*
X3332429Y-1016000D01*
X3331464Y-991717D01*
X3328568Y-967638D01*
X3323793Y-943813D01*
X3317138Y-920445D01*
X3308604Y-897686D01*
X3298342Y-875690D01*
X3286302Y-854608D01*
X3272688Y-834491D01*
X3257499Y-815543D01*
X3240836Y-797864D01*
X3222802Y-781558D01*
X3203549Y-766775D01*
X3183229Y-753516D01*
X3161842Y-741934D01*
X3139643Y-732078D01*
X3116732Y-724052D01*
X3093262Y-717804D01*
X3069386Y-713486D01*
X3045206Y-711098D01*
X3020923Y-710590D01*
X2996692Y-712063D01*
X2972612Y-715416D01*
X2948940Y-720699D01*
X2925724Y-727811D01*
X2903118Y-736803D01*
X2881325Y-747522D01*
X2860446Y-759917D01*
X2840634Y-773988D01*
X2821990Y-789533D01*
X2804668Y-806551D01*
X2788716Y-824890D01*
X2774289Y-844397D01*
X2761437Y-865022D01*
X2750312Y-886612D01*
X2740914Y-909015D01*
X2733294Y-932078D01*
X2727553Y-955649D01*
X2723692Y-979627D01*
X2721762Y-1003858D01*
X2721762Y-1028141D01*
X2723692Y-1052372D01*
X2727553Y-1076350D01*
X2733294Y-1099921D01*
X2740914Y-1122984D01*
X2750312Y-1145387D01*
X2761437Y-1166977D01*
X2774289Y-1187602D01*
X2788716Y-1207109D01*
X2804668Y-1225448D01*
X2821990Y-1242466D01*
X2840634Y-1258011D01*
X2860446Y-1272082D01*
X2881325Y-1284478D01*
X2903118Y-1295196D01*
X2925724Y-1304188D01*
X2948940Y-1311300D01*
X2972612Y-1316583D01*
X2996692Y-1319936D01*
G37*
G36*
X6580124Y-1169416D02*
G01*
X6699097Y-1169416D01*
X6705549Y-1168755D01*
X6711238Y-1167028D01*
X6716522Y-1164234D01*
X6721144Y-1160424D01*
X6724903Y-1155801D01*
X6727748Y-1150569D01*
X6729475Y-1144828D01*
X6730085Y-1138377D01*
X6730085Y-949401D01*
X6729475Y-942949D01*
X6727748Y-937260D01*
X6724903Y-931976D01*
X6721144Y-927353D01*
X6716522Y-923594D01*
X6711238Y-920750D01*
X6705549Y-919022D01*
X6699097Y-918413D01*
X6580124Y-918413D01*
X6573672Y-919022D01*
X6567931Y-920750D01*
X6562699Y-923594D01*
X6558076Y-927353D01*
X6554266Y-931976D01*
X6551472Y-937260D01*
X6549745Y-942949D01*
X6549085Y-949401D01*
X6549085Y-978255D01*
X6548323Y-982116D01*
X6546138Y-985418D01*
X6542836Y-987602D01*
X6538925Y-988415D01*
X6303264Y-988415D01*
X6299403Y-987602D01*
X6296101Y-985418D01*
X6293916Y-982116D01*
X6293104Y-978255D01*
X6293104Y-954379D01*
X6292494Y-947978D01*
X6290767Y-942238D01*
X6287922Y-936955D01*
X6284163Y-932383D01*
X6279540Y-928573D01*
X6274257Y-925779D01*
X6268567Y-924052D01*
X6262116Y-923391D01*
X6113119Y-923391D01*
X6106668Y-924052D01*
X6100978Y-925779D01*
X6095695Y-928573D01*
X6091072Y-932383D01*
X6087313Y-936955D01*
X6084468Y-942238D01*
X6082741Y-947978D01*
X6082131Y-954379D01*
X6082131Y-1133398D01*
X6082741Y-1139850D01*
X6084468Y-1145540D01*
X6087313Y-1150823D01*
X6091072Y-1155446D01*
X6095695Y-1159205D01*
X6100978Y-1162050D01*
X6106668Y-1163777D01*
X6113119Y-1164386D01*
X6262116Y-1164386D01*
X6268567Y-1163777D01*
X6274257Y-1162050D01*
X6279540Y-1159205D01*
X6284163Y-1155446D01*
X6287922Y-1150823D01*
X6290767Y-1145540D01*
X6292494Y-1139850D01*
X6293104Y-1133398D01*
X6293104Y-1109573D01*
X6293916Y-1105662D01*
X6296101Y-1102360D01*
X6299403Y-1100175D01*
X6303264Y-1099413D01*
X6538925Y-1099413D01*
X6542836Y-1100175D01*
X6546138Y-1102360D01*
X6548323Y-1105662D01*
X6549085Y-1109573D01*
X6549085Y-1138377D01*
X6549745Y-1144828D01*
X6551472Y-1150569D01*
X6554266Y-1155801D01*
X6558076Y-1160424D01*
X6562699Y-1164234D01*
X6567931Y-1167028D01*
X6573672Y-1168755D01*
G37*
G36*
X7905242Y-1130452D02*
G01*
X7926171Y-1128979D01*
X7946898Y-1125677D01*
X7967218Y-1120495D01*
X7986979Y-1113434D01*
X8006029Y-1104646D01*
X8024215Y-1094181D01*
X8041335Y-1082040D01*
X8057337Y-1068476D01*
X8071967Y-1053439D01*
X8085226Y-1037183D01*
X8096961Y-1019759D01*
X8107019Y-1001369D01*
X8115350Y-982116D01*
X8121954Y-962202D01*
X8126679Y-941730D01*
X8129524Y-920953D01*
X8130489Y-900023D01*
X8129524Y-879043D01*
X8126679Y-858266D01*
X8121954Y-837793D01*
X8115350Y-817880D01*
X8107019Y-798626D01*
X8096961Y-780237D01*
X8085226Y-762812D01*
X8071967Y-746556D01*
X8057337Y-731570D01*
X8041335Y-717956D01*
X8024215Y-705815D01*
X8006029Y-695350D01*
X7986979Y-686562D01*
X7967218Y-679551D01*
X7946898Y-674319D01*
X7926171Y-671017D01*
X7905242Y-669544D01*
X7884261Y-670052D01*
X7863433Y-672439D01*
X7842859Y-676706D01*
X7822793Y-682802D01*
X7803388Y-690727D01*
X7784744Y-700379D01*
X7767066Y-711708D01*
X7750505Y-724560D01*
X7735163Y-738886D01*
X7721193Y-754532D01*
X7708696Y-771398D01*
X7697825Y-789330D01*
X7688580Y-808177D01*
X7681112Y-827786D01*
X7675473Y-848004D01*
X7671663Y-868629D01*
X7669733Y-889508D01*
X7669733Y-910488D01*
X7671663Y-931367D01*
X7675473Y-952042D01*
X7681112Y-972210D01*
X7688580Y-991819D01*
X7697825Y-1010666D01*
X7708696Y-1028598D01*
X7721193Y-1045464D01*
X7735163Y-1061110D01*
X7750505Y-1075436D01*
X7767066Y-1088288D01*
X7784744Y-1099616D01*
X7803388Y-1109268D01*
X7822793Y-1117193D01*
X7842859Y-1123289D01*
X7863433Y-1127556D01*
X7884261Y-1129944D01*
G37*
G36*
X5305196Y-1030986D02*
G01*
X5322214Y-1030986D01*
X5339181Y-1029106D01*
X5355844Y-1025448D01*
X5371998Y-1020013D01*
X5387492Y-1012850D01*
X5402072Y-1004062D01*
X5415635Y-993749D01*
X5428030Y-982014D01*
X5439054Y-969010D01*
X5448655Y-954887D01*
X5456631Y-939850D01*
X5462930Y-924001D01*
X5467502Y-907542D01*
X5470245Y-890727D01*
X5471210Y-873709D01*
X5470245Y-856691D01*
X5467502Y-839825D01*
X5462930Y-823417D01*
X5456631Y-807567D01*
X5448655Y-792530D01*
X5439054Y-778408D01*
X5428030Y-765403D01*
X5415635Y-753668D01*
X5402072Y-743356D01*
X5387492Y-734568D01*
X5371998Y-727405D01*
X5355844Y-721969D01*
X5339181Y-718312D01*
X5322214Y-716432D01*
X5305196Y-716432D01*
X5288229Y-718312D01*
X5271566Y-721969D01*
X5255412Y-727405D01*
X5239918Y-734568D01*
X5225338Y-743356D01*
X5211724Y-753668D01*
X5199380Y-765403D01*
X5188305Y-778408D01*
X5178755Y-792530D01*
X5170779Y-807567D01*
X5164429Y-823417D01*
X5159908Y-839825D01*
X5157114Y-856691D01*
X5156200Y-873709D01*
X5157114Y-890727D01*
X5159908Y-907542D01*
X5164429Y-924001D01*
X5170779Y-939850D01*
X5178755Y-954887D01*
X5188305Y-969010D01*
X5199380Y-982014D01*
X5211724Y-993749D01*
X5225338Y-1004062D01*
X5239918Y-1012850D01*
X5255412Y-1020013D01*
X5271566Y-1025448D01*
X5288229Y-1029106D01*
G37*
G36*
X3958996Y-1030935D02*
G01*
X3976014Y-1030935D01*
X3992981Y-1029106D01*
X4009644Y-1025448D01*
X4025798Y-1020013D01*
X4041292Y-1012850D01*
X4055872Y-1004062D01*
X4069435Y-993749D01*
X4081830Y-982014D01*
X4092854Y-969010D01*
X4102455Y-954887D01*
X4110431Y-939850D01*
X4116730Y-924001D01*
X4121302Y-907542D01*
X4124045Y-890727D01*
X4125010Y-873709D01*
X4124045Y-856691D01*
X4121302Y-839825D01*
X4116730Y-823417D01*
X4110431Y-807567D01*
X4102455Y-792480D01*
X4092854Y-778408D01*
X4081830Y-765403D01*
X4069435Y-753668D01*
X4055872Y-743356D01*
X4041292Y-734568D01*
X4025798Y-727405D01*
X4009644Y-721969D01*
X3992981Y-718261D01*
X3976014Y-716432D01*
X3958996Y-716432D01*
X3942029Y-718261D01*
X3925366Y-721969D01*
X3909212Y-727405D01*
X3893718Y-734568D01*
X3879138Y-743356D01*
X3865524Y-753668D01*
X3853179Y-765403D01*
X3842105Y-778408D01*
X3832555Y-792480D01*
X3824579Y-807567D01*
X3818229Y-823417D01*
X3813708Y-839825D01*
X3810914Y-856691D01*
X3810000Y-873709D01*
X3810914Y-890727D01*
X3813708Y-907542D01*
X3818229Y-924001D01*
X3824579Y-939850D01*
X3832555Y-954887D01*
X3842105Y-969010D01*
X3853179Y-982014D01*
X3865524Y-993749D01*
X3879138Y-1004062D01*
X3893718Y-1012850D01*
X3909212Y-1020013D01*
X3925366Y-1025448D01*
X3942029Y-1029106D01*
G37*
G36*
X705256Y-1030427D02*
G01*
X726186Y-1029004D01*
X746912Y-1025652D01*
X767232Y-1020470D01*
X786993Y-1013460D01*
X806043Y-1004671D01*
X824230Y-994156D01*
X841349Y-982065D01*
X857300Y-968451D01*
X871982Y-953465D01*
X885240Y-937158D01*
X896924Y-919784D01*
X907034Y-901344D01*
X915365Y-882091D01*
X921969Y-862177D01*
X926693Y-841756D01*
X929538Y-820978D01*
X930503Y-799998D01*
X929538Y-779018D01*
X926693Y-758240D01*
X921969Y-737819D01*
X915365Y-717905D01*
X907034Y-698652D01*
X896924Y-680262D01*
X885240Y-662838D01*
X871982Y-646531D01*
X857300Y-631545D01*
X841349Y-617931D01*
X824230Y-605840D01*
X806043Y-595325D01*
X786993Y-586536D01*
X767232Y-579526D01*
X746912Y-574344D01*
X726186Y-570992D01*
X705256Y-569569D01*
X684276Y-570026D01*
X663448Y-572414D01*
X642874Y-576681D01*
X622808Y-582828D01*
X603402Y-590753D01*
X584758Y-600405D01*
X567080Y-611682D01*
X550519Y-624586D01*
X535178Y-638860D01*
X521208Y-654558D01*
X508711Y-671423D01*
X497840Y-689305D01*
X488594Y-708152D01*
X481126Y-727760D01*
X475437Y-747979D01*
X471678Y-768604D01*
X469747Y-789533D01*
X469747Y-810514D01*
X471678Y-831392D01*
X475437Y-852017D01*
X481126Y-872236D01*
X488594Y-891844D01*
X497840Y-910691D01*
X508711Y-928624D01*
X521208Y-945438D01*
X535178Y-961136D01*
X550519Y-975461D01*
X567080Y-988314D01*
X584758Y-999591D01*
X603402Y-1009243D01*
X622808Y-1017168D01*
X642874Y-1023315D01*
X663448Y-1027582D01*
X684276Y-1029969D01*
G37*

%LPD*%
D11*
X2458600Y-2694899D02*
G01*
X2458600Y-2245205D01*
X2443500Y-2230104D01*
X2758600Y-2694899D02*
G01*
X3210600Y-2694899D01*
X5366999Y-2794000D02*
G01*
X5819000Y-2794000D01*
X6118999Y-2794000D02*
G01*
X6118999Y-2273378D01*
X6075700Y-2230079D01*
X6075700Y-3627079D02*
G01*
X6118999Y-3670378D01*
X6118999Y-4191000D01*
X5819000Y-4191000D02*
G01*
X5366999Y-4191000D01*
X2758600Y-4091899D02*
G01*
X3210600Y-4091899D01*
X2458600Y-4091899D02*
G01*
X2458600Y-3642205D01*
X2443500Y-3627104D01*
X2443500Y-5024104D02*
G01*
X2458600Y-5039205D01*
X2458600Y-5488899D01*
X2758600Y-5488899D02*
G01*
X3210600Y-5488899D01*
X5366999Y-5588000D02*
G01*
X5819000Y-5588000D01*
X6118999Y-5588000D02*
G01*
X6118999Y-5067378D01*
X6075700Y-5024079D01*
X2443500Y-6421104D02*
G01*
X2458600Y-6436205D01*
X2458600Y-6885899D01*
X2758600Y-6885899D02*
G01*
X3210600Y-6885899D01*
X5366999Y-6985000D02*
G01*
X5819000Y-6985000D01*
X6118999Y-6985000D02*
G01*
X6118999Y-6464378D01*
X6075700Y-6421079D01*
X2443500Y-7818104D02*
G01*
X2458600Y-7833205D01*
X2458600Y-8282899D01*
X2758600Y-8282899D02*
G01*
X3210600Y-8282899D01*
X5366999Y-8382000D02*
G01*
X5819000Y-8382000D01*
X6118999Y-8382000D02*
G01*
X6118999Y-7861378D01*
X6075700Y-7818079D01*
X5313700Y-1214079D02*
G01*
X5483880Y-1043899D01*
X5887600Y-1043899D01*
X6187600Y-1043899D02*
G01*
X6639600Y-1043899D01*
G36*
X2383599Y-2604899D02*
G01*
X2533601Y-2604899D01*
X2533601Y-2784899D01*
X2383599Y-2784899D01*
G37*
G36*
X2683598Y-2604899D02*
G01*
X2833601Y-2604899D01*
X2833601Y-2784899D01*
X2683598Y-2784899D01*
G37*
G36*
X5812599Y-953899D02*
G01*
X5962601Y-953899D01*
X5962601Y-1133899D01*
X5812599Y-1133899D01*
G37*
G36*
X6112598Y-953899D02*
G01*
X6262601Y-953899D01*
X6262601Y-1133899D01*
X6112598Y-1133899D01*
G37*
G36*
X2383599Y-4001899D02*
G01*
X2533601Y-4001899D01*
X2533601Y-4181899D01*
X2383599Y-4181899D01*
G37*
G36*
X2683598Y-4001899D02*
G01*
X2833601Y-4001899D01*
X2833601Y-4181899D01*
X2683598Y-4181899D01*
G37*
G36*
X2383599Y-5398899D02*
G01*
X2533601Y-5398899D01*
X2533601Y-5578899D01*
X2383599Y-5578899D01*
G37*
G36*
X2683598Y-5398899D02*
G01*
X2833601Y-5398899D01*
X2833601Y-5578899D01*
X2683598Y-5578899D01*
G37*
G36*
X2383599Y-6795899D02*
G01*
X2533601Y-6795899D01*
X2533601Y-6975899D01*
X2383599Y-6975899D01*
G37*
G36*
X2683598Y-6795899D02*
G01*
X2833601Y-6795899D01*
X2833601Y-6975899D01*
X2683598Y-6975899D01*
G37*
G36*
X2383599Y-8192899D02*
G01*
X2533601Y-8192899D01*
X2533601Y-8372899D01*
X2383599Y-8372899D01*
G37*
G36*
X2683598Y-8192899D02*
G01*
X2833601Y-8192899D01*
X2833601Y-8372899D01*
X2683598Y-8372899D01*
G37*
D12*
G01*
X6119012Y-2794000D03*
G01*
X5819013Y-2794000D03*
G01*
X6119012Y-4191000D03*
G01*
X5819013Y-4191000D03*
G01*
X6119012Y-5588000D03*
G01*
X5819013Y-5588000D03*
G01*
X6119012Y-6985000D03*
G01*
X5819013Y-6985000D03*
G01*
X6119012Y-8382000D03*
G01*
X5819013Y-8382000D03*
D13*
G01*
X3210585Y-2694889D03*
G01*
X3530600Y-2694889D03*
G01*
X6639585Y-1043889D03*
G01*
X6959600Y-1043889D03*
G01*
X3210585Y-4091889D03*
G01*
X3530600Y-4091889D03*
G01*
X3210585Y-5488889D03*
G01*
X3530600Y-5488889D03*
G01*
X3210585Y-6885889D03*
G01*
X3530600Y-6885889D03*
G01*
X3210585Y-8282889D03*
G01*
X3530600Y-8282889D03*
G36*
X5307007Y-2698998D02*
G01*
X5427007Y-2698998D01*
X5427007Y-2889001D01*
X5307007Y-2889001D01*
G37*
G36*
X4986992Y-2698998D02*
G01*
X5106992Y-2698998D01*
X5106992Y-2889001D01*
X4986992Y-2889001D01*
G37*
G36*
X5307007Y-4095998D02*
G01*
X5427007Y-4095998D01*
X5427007Y-4286001D01*
X5307007Y-4286001D01*
G37*
G36*
X4986992Y-4095998D02*
G01*
X5106992Y-4095998D01*
X5106992Y-4286001D01*
X4986992Y-4286001D01*
G37*
G36*
X5307007Y-5492998D02*
G01*
X5427007Y-5492998D01*
X5427007Y-5683001D01*
X5307007Y-5683001D01*
G37*
G36*
X4986992Y-5492998D02*
G01*
X5106992Y-5492998D01*
X5106992Y-5683001D01*
X4986992Y-5683001D01*
G37*
G36*
X5307007Y-6889998D02*
G01*
X5427007Y-6889998D01*
X5427007Y-7080001D01*
X5307007Y-7080001D01*
G37*
G36*
X4986992Y-6889998D02*
G01*
X5106992Y-6889998D01*
X5106992Y-7080001D01*
X4986992Y-7080001D01*
G37*
G36*
X5307007Y-8286998D02*
G01*
X5427007Y-8286998D01*
X5427007Y-8477001D01*
X5307007Y-8477001D01*
G37*
G36*
X4986992Y-8286998D02*
G01*
X5106992Y-8286998D01*
X5106992Y-8477001D01*
X4986992Y-8477001D01*
G37*
D14*
G01*
X2307005Y-1016000D03*
G01*
X3026994Y-1016000D03*
D15*
G01*
X3967505Y-873683D03*
G01*
X3967505Y-1214069D03*
G01*
X5313705Y-873683D03*
G01*
X5313705Y-1214069D03*
G01*
X3789705Y-2230094D03*
G01*
X3789705Y-1889709D03*
G01*
X2443505Y-2230094D03*
G01*
X2443505Y-1889709D03*
G01*
X3789705Y-3627094D03*
G01*
X3789705Y-3286709D03*
G01*
X2443505Y-3627094D03*
G01*
X2443505Y-3286709D03*
G01*
X3789705Y-5024094D03*
G01*
X3789705Y-4683709D03*
G01*
X2443505Y-5024094D03*
G01*
X2443505Y-4683709D03*
G01*
X3789705Y-6421094D03*
G01*
X3789705Y-6080709D03*
G01*
X2443505Y-6421094D03*
G01*
X2443505Y-6080709D03*
G01*
X3789705Y-7818094D03*
G01*
X3789705Y-7477709D03*
G01*
X2443505Y-7818094D03*
G01*
X2443505Y-7477709D03*
G01*
X4729505Y-1889683D03*
G01*
X4729505Y-2230069D03*
G01*
X6075705Y-1889683D03*
G01*
X6075705Y-2230069D03*
G01*
X4729505Y-3286683D03*
G01*
X4729505Y-3627069D03*
G01*
X6075705Y-3286683D03*
G01*
X6075705Y-3627069D03*
G01*
X4729505Y-4683683D03*
G01*
X4729505Y-5024069D03*
G01*
X6075705Y-4683683D03*
G01*
X6075705Y-5024069D03*
G01*
X4729505Y-6080683D03*
G01*
X4729505Y-6421069D03*
G01*
X6075705Y-6080683D03*
G01*
X6075705Y-6421069D03*
G01*
X4729505Y-7477683D03*
G01*
X4729505Y-7818069D03*
G01*
X6075705Y-7477683D03*
G01*
X6075705Y-7818069D03*
D16*
G01*
X699998Y-799998D03*
G01*
X7900009Y-899998D03*
G01*
X8000009Y-8700008D03*
G01*
X499998Y-8700008D03*
G01*
X7700009Y-7000011D03*
G01*
X7700009Y-4199991D03*
G01*
X799998Y-5499988D03*
G01*
X799998Y-2699994D03*
D17*
X1694205Y-1882089D02*
G01*
X1694205Y-2161489D01*
X830605Y-2097989D02*
G01*
X1110005Y-2097989D01*
X1694205Y-3279089D02*
G01*
X1694205Y-3558489D01*
X830605Y-3494989D02*
G01*
X1110005Y-3494989D01*
X1694205Y-4676089D02*
G01*
X1694205Y-4955489D01*
X830605Y-4891989D02*
G01*
X1110005Y-4891989D01*
X1694205Y-6073089D02*
G01*
X1694205Y-6352489D01*
X830605Y-6288989D02*
G01*
X1110005Y-6288989D01*
X1694205Y-7470089D02*
G01*
X1694205Y-7749489D01*
X830605Y-7685989D02*
G01*
X1110005Y-7685989D01*
X6825005Y-2237689D02*
G01*
X6825005Y-1958289D01*
X7688605Y-2021789D02*
G01*
X7409205Y-2021789D01*
X6825005Y-3634689D02*
G01*
X6825005Y-3355289D01*
X7688605Y-3418789D02*
G01*
X7409205Y-3418789D01*
X6825005Y-5031689D02*
G01*
X6825005Y-4752289D01*
X7688605Y-4815789D02*
G01*
X7409205Y-4815789D01*
X6825005Y-6428689D02*
G01*
X6825005Y-6149289D01*
X7688605Y-6212789D02*
G01*
X7409205Y-6212789D01*
X6825005Y-7825689D02*
G01*
X6825005Y-7546289D01*
X7688605Y-7609789D02*
G01*
X7409205Y-7609789D01*
M02*
