G04 Layer: TopSolderMaskLayer*
G04 EasyEDA v6.5.5, 2022-06-01 22:09:19*
G04 f343101900314467833159393b3af33e,c96cdaf6a0e44fa3bb1e134f2b5c86cb,10*
G04 Gerber Generator version 0.2*
G04 Scale: 100 percent, Rotated: No, Reflected: No *
G04 Dimensions in millimeters *
G04 leading zeros omitted , absolute positions ,4 integer and 5 decimal *
%FSLAX45Y45*%
%MOMM*%

%ADD21C,3.5052*%
%ADD23C,5.7023*%
%ADD24C,2.7432*%
%ADD26C,4.2032*%

%LPD*%
D21*
X1694205Y-1882089D02*
G01*
X1694205Y-2161489D01*
X830605Y-2097989D02*
G01*
X1110005Y-2097989D01*
X1694205Y-3279089D02*
G01*
X1694205Y-3558489D01*
X830605Y-3494989D02*
G01*
X1110005Y-3494989D01*
X1694205Y-4676089D02*
G01*
X1694205Y-4955489D01*
X830605Y-4891989D02*
G01*
X1110005Y-4891989D01*
X1694205Y-6073089D02*
G01*
X1694205Y-6352489D01*
X830605Y-6288989D02*
G01*
X1110005Y-6288989D01*
X1694205Y-7470089D02*
G01*
X1694205Y-7749489D01*
X830605Y-7685989D02*
G01*
X1110005Y-7685989D01*
X6825005Y-2237689D02*
G01*
X6825005Y-1958289D01*
X7688605Y-2021789D02*
G01*
X7409205Y-2021789D01*
X6825005Y-3634689D02*
G01*
X6825005Y-3355289D01*
X7688605Y-3418789D02*
G01*
X7409205Y-3418789D01*
X6825005Y-5031689D02*
G01*
X6825005Y-4752289D01*
X7688605Y-4815789D02*
G01*
X7409205Y-4815789D01*
X6825005Y-6428689D02*
G01*
X6825005Y-6149289D01*
X7688605Y-6212789D02*
G01*
X7409205Y-6212789D01*
X6825005Y-7825689D02*
G01*
X6825005Y-7546289D01*
X7688605Y-7609789D02*
G01*
X7409205Y-7609789D01*
G36*
X2373375Y-2795015D02*
G01*
X2373375Y-2594863D01*
X2543809Y-2594863D01*
X2543809Y-2795015D01*
G37*
G36*
X2673350Y-2795015D02*
G01*
X2673350Y-2594863D01*
X2843784Y-2594863D01*
X2843784Y-2795015D01*
G37*
G36*
X5802375Y-1144015D02*
G01*
X5802375Y-943863D01*
X5972809Y-943863D01*
X5972809Y-1144015D01*
G37*
G36*
X6102350Y-1144015D02*
G01*
X6102350Y-943863D01*
X6272784Y-943863D01*
X6272784Y-1144015D01*
G37*
G36*
X2373375Y-4192015D02*
G01*
X2373375Y-3991863D01*
X2543809Y-3991863D01*
X2543809Y-4192015D01*
G37*
G36*
X2673350Y-4192015D02*
G01*
X2673350Y-3991863D01*
X2843784Y-3991863D01*
X2843784Y-4192015D01*
G37*
G36*
X2373375Y-5589015D02*
G01*
X2373375Y-5388863D01*
X2543809Y-5388863D01*
X2543809Y-5589015D01*
G37*
G36*
X2673350Y-5589015D02*
G01*
X2673350Y-5388863D01*
X2843784Y-5388863D01*
X2843784Y-5589015D01*
G37*
G36*
X2373375Y-6986015D02*
G01*
X2373375Y-6785863D01*
X2543809Y-6785863D01*
X2543809Y-6986015D01*
G37*
G36*
X2673350Y-6986015D02*
G01*
X2673350Y-6785863D01*
X2843784Y-6785863D01*
X2843784Y-6986015D01*
G37*
G36*
X2373375Y-8383015D02*
G01*
X2373375Y-8182863D01*
X2543809Y-8182863D01*
X2543809Y-8383015D01*
G37*
G36*
X2673350Y-8383015D02*
G01*
X2673350Y-8182863D01*
X2843784Y-8182863D01*
X2843784Y-8383015D01*
G37*
G36*
X6033770Y-2894076D02*
G01*
X6033770Y-2693923D01*
X6204204Y-2693923D01*
X6204204Y-2894076D01*
G37*
G36*
X5733795Y-2894076D02*
G01*
X5733795Y-2693923D01*
X5904229Y-2693923D01*
X5904229Y-2894076D01*
G37*
G36*
X6033770Y-4291076D02*
G01*
X6033770Y-4090923D01*
X6204204Y-4090923D01*
X6204204Y-4291076D01*
G37*
G36*
X5733795Y-4291076D02*
G01*
X5733795Y-4090923D01*
X5904229Y-4090923D01*
X5904229Y-4291076D01*
G37*
G36*
X6033770Y-5688076D02*
G01*
X6033770Y-5487923D01*
X6204204Y-5487923D01*
X6204204Y-5688076D01*
G37*
G36*
X5733795Y-5688076D02*
G01*
X5733795Y-5487923D01*
X5904229Y-5487923D01*
X5904229Y-5688076D01*
G37*
G36*
X6033770Y-7085076D02*
G01*
X6033770Y-6884923D01*
X6204204Y-6884923D01*
X6204204Y-7085076D01*
G37*
G36*
X5733795Y-7085076D02*
G01*
X5733795Y-6884923D01*
X5904229Y-6884923D01*
X5904229Y-7085076D01*
G37*
G36*
X6033770Y-8482076D02*
G01*
X6033770Y-8281923D01*
X6204204Y-8281923D01*
X6204204Y-8482076D01*
G37*
G36*
X5733795Y-8482076D02*
G01*
X5733795Y-8281923D01*
X5904229Y-8281923D01*
X5904229Y-8482076D01*
G37*
D23*
G01*
X2307005Y-1016000D03*
G01*
X3026994Y-1016000D03*
D24*
G01*
X3967505Y-873683D03*
G01*
X3967505Y-1214069D03*
G01*
X5313705Y-873683D03*
G01*
X5313705Y-1214069D03*
G01*
X3789705Y-2230094D03*
G01*
X3789705Y-1889709D03*
G01*
X2443505Y-2230094D03*
G01*
X2443505Y-1889709D03*
G01*
X3789705Y-3627094D03*
G01*
X3789705Y-3286709D03*
G01*
X2443505Y-3627094D03*
G01*
X2443505Y-3286709D03*
G01*
X3789705Y-5024094D03*
G01*
X3789705Y-4683709D03*
G01*
X2443505Y-5024094D03*
G01*
X2443505Y-4683709D03*
G01*
X3789705Y-6421094D03*
G01*
X3789705Y-6080709D03*
G01*
X2443505Y-6421094D03*
G01*
X2443505Y-6080709D03*
G01*
X3789705Y-7818094D03*
G01*
X3789705Y-7477709D03*
G01*
X2443505Y-7818094D03*
G01*
X2443505Y-7477709D03*
G01*
X4729505Y-1889683D03*
G01*
X4729505Y-2230069D03*
G01*
X6075705Y-1889683D03*
G01*
X6075705Y-2230069D03*
G01*
X4729505Y-3286683D03*
G01*
X4729505Y-3627069D03*
G01*
X6075705Y-3286683D03*
G01*
X6075705Y-3627069D03*
G01*
X4729505Y-4683683D03*
G01*
X4729505Y-5024069D03*
G01*
X6075705Y-4683683D03*
G01*
X6075705Y-5024069D03*
G01*
X4729505Y-6080683D03*
G01*
X4729505Y-6421069D03*
G01*
X6075705Y-6080683D03*
G01*
X6075705Y-6421069D03*
G01*
X4729505Y-7477683D03*
G01*
X4729505Y-7818069D03*
G01*
X6075705Y-7477683D03*
G01*
X6075705Y-7818069D03*
G36*
X3140456Y-2800095D02*
G01*
X3140456Y-2589784D01*
X3280663Y-2589784D01*
X3280663Y-2800095D01*
G37*
G36*
X3460495Y-2800095D02*
G01*
X3460495Y-2589784D01*
X3600704Y-2589784D01*
X3600704Y-2800095D01*
G37*
G36*
X6569456Y-1149095D02*
G01*
X6569456Y-938784D01*
X6709663Y-938784D01*
X6709663Y-1149095D01*
G37*
G36*
X6889495Y-1149095D02*
G01*
X6889495Y-938784D01*
X7029704Y-938784D01*
X7029704Y-1149095D01*
G37*
G36*
X3140456Y-4197095D02*
G01*
X3140456Y-3986784D01*
X3280663Y-3986784D01*
X3280663Y-4197095D01*
G37*
G36*
X3460495Y-4197095D02*
G01*
X3460495Y-3986784D01*
X3600704Y-3986784D01*
X3600704Y-4197095D01*
G37*
G36*
X3140456Y-5594095D02*
G01*
X3140456Y-5383784D01*
X3280663Y-5383784D01*
X3280663Y-5594095D01*
G37*
G36*
X3460495Y-5594095D02*
G01*
X3460495Y-5383784D01*
X3600704Y-5383784D01*
X3600704Y-5594095D01*
G37*
G36*
X3140456Y-6991095D02*
G01*
X3140456Y-6780784D01*
X3280663Y-6780784D01*
X3280663Y-6991095D01*
G37*
G36*
X3460495Y-6991095D02*
G01*
X3460495Y-6780784D01*
X3600704Y-6780784D01*
X3600704Y-6991095D01*
G37*
G36*
X3140456Y-8388095D02*
G01*
X3140456Y-8177784D01*
X3280663Y-8177784D01*
X3280663Y-8388095D01*
G37*
G36*
X3460495Y-8388095D02*
G01*
X3460495Y-8177784D01*
X3600704Y-8177784D01*
X3600704Y-8388095D01*
G37*
G36*
X5296915Y-2899155D02*
G01*
X5296915Y-2688844D01*
X5437124Y-2688844D01*
X5437124Y-2899155D01*
G37*
G36*
X4976875Y-2899155D02*
G01*
X4976875Y-2688844D01*
X5117084Y-2688844D01*
X5117084Y-2899155D01*
G37*
G36*
X5296915Y-4296155D02*
G01*
X5296915Y-4085844D01*
X5437124Y-4085844D01*
X5437124Y-4296155D01*
G37*
G36*
X4976875Y-4296155D02*
G01*
X4976875Y-4085844D01*
X5117084Y-4085844D01*
X5117084Y-4296155D01*
G37*
G36*
X5296915Y-5693155D02*
G01*
X5296915Y-5482844D01*
X5437124Y-5482844D01*
X5437124Y-5693155D01*
G37*
G36*
X4976875Y-5693155D02*
G01*
X4976875Y-5482844D01*
X5117084Y-5482844D01*
X5117084Y-5693155D01*
G37*
G36*
X5296915Y-7090155D02*
G01*
X5296915Y-6879844D01*
X5437124Y-6879844D01*
X5437124Y-7090155D01*
G37*
G36*
X4976875Y-7090155D02*
G01*
X4976875Y-6879844D01*
X5117084Y-6879844D01*
X5117084Y-7090155D01*
G37*
G36*
X5296915Y-8487155D02*
G01*
X5296915Y-8276844D01*
X5437124Y-8276844D01*
X5437124Y-8487155D01*
G37*
G36*
X4976875Y-8487155D02*
G01*
X4976875Y-8276844D01*
X5117084Y-8276844D01*
X5117084Y-8487155D01*
G37*
D26*
G01*
X699998Y-799998D03*
G01*
X7900009Y-899998D03*
G01*
X8000009Y-8700008D03*
G01*
X499998Y-8700008D03*
G01*
X7700009Y-7000011D03*
G01*
X7700009Y-4199991D03*
G01*
X799998Y-5499988D03*
G01*
X799998Y-2699994D03*
M02*
