G04 Layer: TopSilkscreenLayer*
G04 EasyEDA v6.5.5, 2022-06-01 22:09:19*
G04 f343101900314467833159393b3af33e,c96cdaf6a0e44fa3bb1e134f2b5c86cb,10*
G04 Gerber Generator version 0.2*
G04 Scale: 100 percent, Rotated: No, Reflected: No *
G04 Dimensions in millimeters *
G04 leading zeros omitted , absolute positions ,4 integer and 5 decimal *
%FSLAX45Y45*%
%MOMM*%

%ADD10C,0.2540*%
%ADD19C,0.1524*%
%ADD20C,0.1000*%

%LPD*%
D19*
X2626393Y-2975315D02*
G01*
X2626393Y-2866349D01*
X2626393Y-2866349D02*
G01*
X2564163Y-2866349D01*
X2529873Y-2975315D02*
G01*
X2529873Y-2866349D01*
X2529873Y-2975315D02*
G01*
X2462309Y-2975315D01*
X2529873Y-2923499D02*
G01*
X2488217Y-2923499D01*
X2529873Y-2866349D02*
G01*
X2462309Y-2866349D01*
X2428019Y-2975315D02*
G01*
X2428019Y-2866349D01*
X2428019Y-2975315D02*
G01*
X2391443Y-2975315D01*
X2375949Y-2970235D01*
X2365535Y-2959821D01*
X2360455Y-2949407D01*
X2355121Y-2933659D01*
X2355121Y-2907751D01*
X2360455Y-2892257D01*
X2365535Y-2881843D01*
X2375949Y-2871429D01*
X2391443Y-2866349D01*
X2428019Y-2866349D01*
X2320831Y-2954487D02*
G01*
X2310417Y-2959821D01*
X2294923Y-2975315D01*
X2294923Y-2866349D01*
X6055393Y-1324315D02*
G01*
X6055393Y-1215349D01*
X6055393Y-1215349D02*
G01*
X5993163Y-1215349D01*
X5958873Y-1324315D02*
G01*
X5958873Y-1215349D01*
X5958873Y-1324315D02*
G01*
X5891309Y-1324315D01*
X5958873Y-1272499D02*
G01*
X5917217Y-1272499D01*
X5958873Y-1215349D02*
G01*
X5891309Y-1215349D01*
X5857019Y-1324315D02*
G01*
X5857019Y-1215349D01*
X5857019Y-1324315D02*
G01*
X5820443Y-1324315D01*
X5804949Y-1319235D01*
X5794535Y-1308821D01*
X5789455Y-1298407D01*
X5784121Y-1282659D01*
X5784121Y-1256751D01*
X5789455Y-1241257D01*
X5794535Y-1230843D01*
X5804949Y-1220429D01*
X5820443Y-1215349D01*
X5857019Y-1215349D01*
X5744751Y-1298407D02*
G01*
X5744751Y-1303487D01*
X5739417Y-1313901D01*
X5734337Y-1319235D01*
X5723923Y-1324315D01*
X5703095Y-1324315D01*
X5692681Y-1319235D01*
X5687601Y-1313901D01*
X5682267Y-1303487D01*
X5682267Y-1293073D01*
X5687601Y-1282659D01*
X5698015Y-1267165D01*
X5749831Y-1215349D01*
X5677187Y-1215349D01*
X2626393Y-4372315D02*
G01*
X2626393Y-4263349D01*
X2626393Y-4263349D02*
G01*
X2564163Y-4263349D01*
X2529873Y-4372315D02*
G01*
X2529873Y-4263349D01*
X2529873Y-4372315D02*
G01*
X2462309Y-4372315D01*
X2529873Y-4320499D02*
G01*
X2488217Y-4320499D01*
X2529873Y-4263349D02*
G01*
X2462309Y-4263349D01*
X2428019Y-4372315D02*
G01*
X2428019Y-4263349D01*
X2428019Y-4372315D02*
G01*
X2391443Y-4372315D01*
X2375949Y-4367235D01*
X2365535Y-4356821D01*
X2360455Y-4346407D01*
X2355121Y-4330659D01*
X2355121Y-4304751D01*
X2360455Y-4289257D01*
X2365535Y-4278843D01*
X2375949Y-4268429D01*
X2391443Y-4263349D01*
X2428019Y-4263349D01*
X2310417Y-4372315D02*
G01*
X2253267Y-4372315D01*
X2284509Y-4330659D01*
X2269015Y-4330659D01*
X2258601Y-4325579D01*
X2253267Y-4320499D01*
X2248187Y-4304751D01*
X2248187Y-4294337D01*
X2253267Y-4278843D01*
X2263681Y-4268429D01*
X2279429Y-4263349D01*
X2294923Y-4263349D01*
X2310417Y-4268429D01*
X2315751Y-4273509D01*
X2320831Y-4283923D01*
X2626393Y-5769315D02*
G01*
X2626393Y-5660349D01*
X2626393Y-5660349D02*
G01*
X2564163Y-5660349D01*
X2529873Y-5769315D02*
G01*
X2529873Y-5660349D01*
X2529873Y-5769315D02*
G01*
X2462309Y-5769315D01*
X2529873Y-5717499D02*
G01*
X2488217Y-5717499D01*
X2529873Y-5660349D02*
G01*
X2462309Y-5660349D01*
X2428019Y-5769315D02*
G01*
X2428019Y-5660349D01*
X2428019Y-5769315D02*
G01*
X2391443Y-5769315D01*
X2375949Y-5764235D01*
X2365535Y-5753821D01*
X2360455Y-5743407D01*
X2355121Y-5727659D01*
X2355121Y-5701751D01*
X2360455Y-5686257D01*
X2365535Y-5675843D01*
X2375949Y-5665429D01*
X2391443Y-5660349D01*
X2428019Y-5660349D01*
X2269015Y-5769315D02*
G01*
X2320831Y-5696671D01*
X2242853Y-5696671D01*
X2269015Y-5769315D02*
G01*
X2269015Y-5660349D01*
X2626393Y-7166315D02*
G01*
X2626393Y-7057349D01*
X2626393Y-7057349D02*
G01*
X2564163Y-7057349D01*
X2529873Y-7166315D02*
G01*
X2529873Y-7057349D01*
X2529873Y-7166315D02*
G01*
X2462309Y-7166315D01*
X2529873Y-7114499D02*
G01*
X2488217Y-7114499D01*
X2529873Y-7057349D02*
G01*
X2462309Y-7057349D01*
X2428019Y-7166315D02*
G01*
X2428019Y-7057349D01*
X2428019Y-7166315D02*
G01*
X2391443Y-7166315D01*
X2375949Y-7161235D01*
X2365535Y-7150821D01*
X2360455Y-7140407D01*
X2355121Y-7124659D01*
X2355121Y-7098751D01*
X2360455Y-7083257D01*
X2365535Y-7072843D01*
X2375949Y-7062429D01*
X2391443Y-7057349D01*
X2428019Y-7057349D01*
X2258601Y-7166315D02*
G01*
X2310417Y-7166315D01*
X2315751Y-7119579D01*
X2310417Y-7124659D01*
X2294923Y-7129993D01*
X2279429Y-7129993D01*
X2263681Y-7124659D01*
X2253267Y-7114499D01*
X2248187Y-7098751D01*
X2248187Y-7088337D01*
X2253267Y-7072843D01*
X2263681Y-7062429D01*
X2279429Y-7057349D01*
X2294923Y-7057349D01*
X2310417Y-7062429D01*
X2315751Y-7067509D01*
X2320831Y-7077923D01*
X2626393Y-8563315D02*
G01*
X2626393Y-8454349D01*
X2626393Y-8454349D02*
G01*
X2564163Y-8454349D01*
X2529873Y-8563315D02*
G01*
X2529873Y-8454349D01*
X2529873Y-8563315D02*
G01*
X2462309Y-8563315D01*
X2529873Y-8511499D02*
G01*
X2488217Y-8511499D01*
X2529873Y-8454349D02*
G01*
X2462309Y-8454349D01*
X2428019Y-8563315D02*
G01*
X2428019Y-8454349D01*
X2428019Y-8563315D02*
G01*
X2391443Y-8563315D01*
X2375949Y-8558235D01*
X2365535Y-8547821D01*
X2360455Y-8537407D01*
X2355121Y-8521659D01*
X2355121Y-8495751D01*
X2360455Y-8480257D01*
X2365535Y-8469843D01*
X2375949Y-8459429D01*
X2391443Y-8454349D01*
X2428019Y-8454349D01*
X2258601Y-8547821D02*
G01*
X2263681Y-8558235D01*
X2279429Y-8563315D01*
X2289843Y-8563315D01*
X2305337Y-8558235D01*
X2315751Y-8542487D01*
X2320831Y-8516579D01*
X2320831Y-8490671D01*
X2315751Y-8469843D01*
X2305337Y-8459429D01*
X2289843Y-8454349D01*
X2284509Y-8454349D01*
X2269015Y-8459429D01*
X2258601Y-8469843D01*
X2253267Y-8485337D01*
X2253267Y-8490671D01*
X2258601Y-8506165D01*
X2269015Y-8516579D01*
X2284509Y-8521659D01*
X2289843Y-8521659D01*
X2305337Y-8516579D01*
X2315751Y-8506165D01*
X2320831Y-8490671D01*
X5951207Y-2513584D02*
G01*
X5951207Y-2622550D01*
X5951207Y-2622550D02*
G01*
X6013437Y-2622550D01*
X6047727Y-2513584D02*
G01*
X6047727Y-2622550D01*
X6047727Y-2513584D02*
G01*
X6115291Y-2513584D01*
X6047727Y-2565400D02*
G01*
X6089383Y-2565400D01*
X6047727Y-2622550D02*
G01*
X6115291Y-2622550D01*
X6149581Y-2513584D02*
G01*
X6149581Y-2622550D01*
X6149581Y-2513584D02*
G01*
X6186157Y-2513584D01*
X6201651Y-2518663D01*
X6212065Y-2529078D01*
X6217145Y-2539492D01*
X6222479Y-2555239D01*
X6222479Y-2581147D01*
X6217145Y-2596642D01*
X6212065Y-2607055D01*
X6201651Y-2617470D01*
X6186157Y-2622550D01*
X6149581Y-2622550D01*
X6329413Y-2513584D02*
G01*
X6277597Y-2622550D01*
X6256769Y-2513584D02*
G01*
X6329413Y-2513584D01*
X5951207Y-3910584D02*
G01*
X5951207Y-4019550D01*
X5951207Y-4019550D02*
G01*
X6013437Y-4019550D01*
X6047727Y-3910584D02*
G01*
X6047727Y-4019550D01*
X6047727Y-3910584D02*
G01*
X6115291Y-3910584D01*
X6047727Y-3962400D02*
G01*
X6089383Y-3962400D01*
X6047727Y-4019550D02*
G01*
X6115291Y-4019550D01*
X6149581Y-3910584D02*
G01*
X6149581Y-4019550D01*
X6149581Y-3910584D02*
G01*
X6186157Y-3910584D01*
X6201651Y-3915663D01*
X6212065Y-3926078D01*
X6217145Y-3936492D01*
X6222479Y-3952239D01*
X6222479Y-3978147D01*
X6217145Y-3993642D01*
X6212065Y-4004055D01*
X6201651Y-4014470D01*
X6186157Y-4019550D01*
X6149581Y-4019550D01*
X6282677Y-3910584D02*
G01*
X6267183Y-3915663D01*
X6261849Y-3926078D01*
X6261849Y-3936492D01*
X6267183Y-3946905D01*
X6277597Y-3952239D01*
X6298171Y-3957320D01*
X6313919Y-3962400D01*
X6324333Y-3972813D01*
X6329413Y-3983228D01*
X6329413Y-3998976D01*
X6324333Y-4009389D01*
X6318999Y-4014470D01*
X6303505Y-4019550D01*
X6282677Y-4019550D01*
X6267183Y-4014470D01*
X6261849Y-4009389D01*
X6256769Y-3998976D01*
X6256769Y-3983228D01*
X6261849Y-3972813D01*
X6272263Y-3962400D01*
X6287757Y-3957320D01*
X6308585Y-3952239D01*
X6318999Y-3946905D01*
X6324333Y-3936492D01*
X6324333Y-3926078D01*
X6318999Y-3915663D01*
X6303505Y-3910584D01*
X6282677Y-3910584D01*
X5951207Y-5307584D02*
G01*
X5951207Y-5416550D01*
X5951207Y-5416550D02*
G01*
X6013437Y-5416550D01*
X6047727Y-5307584D02*
G01*
X6047727Y-5416550D01*
X6047727Y-5307584D02*
G01*
X6115291Y-5307584D01*
X6047727Y-5359400D02*
G01*
X6089383Y-5359400D01*
X6047727Y-5416550D02*
G01*
X6115291Y-5416550D01*
X6149581Y-5307584D02*
G01*
X6149581Y-5416550D01*
X6149581Y-5307584D02*
G01*
X6186157Y-5307584D01*
X6201651Y-5312663D01*
X6212065Y-5323078D01*
X6217145Y-5333492D01*
X6222479Y-5349239D01*
X6222479Y-5375147D01*
X6217145Y-5390642D01*
X6212065Y-5401055D01*
X6201651Y-5411470D01*
X6186157Y-5416550D01*
X6149581Y-5416550D01*
X6324333Y-5343905D02*
G01*
X6318999Y-5359400D01*
X6308585Y-5369813D01*
X6293091Y-5375147D01*
X6287757Y-5375147D01*
X6272263Y-5369813D01*
X6261849Y-5359400D01*
X6256769Y-5343905D01*
X6256769Y-5338826D01*
X6261849Y-5323078D01*
X6272263Y-5312663D01*
X6287757Y-5307584D01*
X6293091Y-5307584D01*
X6308585Y-5312663D01*
X6318999Y-5323078D01*
X6324333Y-5343905D01*
X6324333Y-5369813D01*
X6318999Y-5395976D01*
X6308585Y-5411470D01*
X6293091Y-5416550D01*
X6282677Y-5416550D01*
X6267183Y-5411470D01*
X6261849Y-5401055D01*
X5951207Y-6704584D02*
G01*
X5951207Y-6813550D01*
X5951207Y-6813550D02*
G01*
X6013437Y-6813550D01*
X6047727Y-6704584D02*
G01*
X6047727Y-6813550D01*
X6047727Y-6704584D02*
G01*
X6115291Y-6704584D01*
X6047727Y-6756400D02*
G01*
X6089383Y-6756400D01*
X6047727Y-6813550D02*
G01*
X6115291Y-6813550D01*
X6149581Y-6704584D02*
G01*
X6149581Y-6813550D01*
X6149581Y-6704584D02*
G01*
X6186157Y-6704584D01*
X6201651Y-6709663D01*
X6212065Y-6720078D01*
X6217145Y-6730492D01*
X6222479Y-6746239D01*
X6222479Y-6772147D01*
X6217145Y-6787642D01*
X6212065Y-6798055D01*
X6201651Y-6808470D01*
X6186157Y-6813550D01*
X6149581Y-6813550D01*
X6256769Y-6725412D02*
G01*
X6267183Y-6720078D01*
X6282677Y-6704584D01*
X6282677Y-6813550D01*
X6348209Y-6704584D02*
G01*
X6332461Y-6709663D01*
X6322047Y-6725412D01*
X6316967Y-6751320D01*
X6316967Y-6766813D01*
X6322047Y-6792976D01*
X6332461Y-6808470D01*
X6348209Y-6813550D01*
X6358623Y-6813550D01*
X6374117Y-6808470D01*
X6384531Y-6792976D01*
X6389611Y-6766813D01*
X6389611Y-6751320D01*
X6384531Y-6725412D01*
X6374117Y-6709663D01*
X6358623Y-6704584D01*
X6348209Y-6704584D01*
X5951207Y-8101584D02*
G01*
X5951207Y-8210550D01*
X5951207Y-8210550D02*
G01*
X6013437Y-8210550D01*
X6047727Y-8101584D02*
G01*
X6047727Y-8210550D01*
X6047727Y-8101584D02*
G01*
X6115291Y-8101584D01*
X6047727Y-8153400D02*
G01*
X6089383Y-8153400D01*
X6047727Y-8210550D02*
G01*
X6115291Y-8210550D01*
X6149581Y-8101584D02*
G01*
X6149581Y-8210550D01*
X6149581Y-8101584D02*
G01*
X6186157Y-8101584D01*
X6201651Y-8106663D01*
X6212065Y-8117078D01*
X6217145Y-8127492D01*
X6222479Y-8143239D01*
X6222479Y-8169147D01*
X6217145Y-8184642D01*
X6212065Y-8195055D01*
X6201651Y-8205470D01*
X6186157Y-8210550D01*
X6149581Y-8210550D01*
X6256769Y-8122412D02*
G01*
X6267183Y-8117078D01*
X6282677Y-8101584D01*
X6282677Y-8210550D01*
X6316967Y-8122412D02*
G01*
X6327381Y-8117078D01*
X6342875Y-8101584D01*
X6342875Y-8210550D01*
X2667000Y-443484D02*
G01*
X2667000Y-552450D01*
X2667000Y-443484D02*
G01*
X2713736Y-443484D01*
X2729229Y-448563D01*
X2734563Y-453897D01*
X2739643Y-464312D01*
X2739643Y-479805D01*
X2734563Y-490220D01*
X2729229Y-495300D01*
X2713736Y-500634D01*
X2667000Y-500634D01*
X2773934Y-443484D02*
G01*
X2800095Y-552450D01*
X2826004Y-443484D02*
G01*
X2800095Y-552450D01*
X2826004Y-443484D02*
G01*
X2851911Y-552450D01*
X2877820Y-443484D02*
G01*
X2851911Y-552450D01*
X2912109Y-443484D02*
G01*
X2912109Y-552450D01*
X2912109Y-443484D02*
G01*
X2959100Y-443484D01*
X2974593Y-448563D01*
X2979674Y-453897D01*
X2985008Y-464312D01*
X2985008Y-474726D01*
X2979674Y-485139D01*
X2974593Y-490220D01*
X2959100Y-495300D01*
X2912109Y-495300D01*
X2948686Y-495300D02*
G01*
X2985008Y-552450D01*
X3019297Y-464312D02*
G01*
X3029711Y-458978D01*
X3045206Y-443484D01*
X3045206Y-552450D01*
D20*
X2895600Y-723900D02*
G01*
X2940050Y-790702D01*
X2940050Y-723900D02*
G01*
X2895600Y-790702D01*
X2983484Y-723900D02*
G01*
X2983484Y-790702D01*
X2961131Y-723900D02*
G01*
X3005581Y-723900D01*
X3064763Y-733297D02*
G01*
X3061715Y-726947D01*
X3052063Y-723900D01*
X3045713Y-723900D01*
X3036315Y-726947D01*
X3029965Y-736600D01*
X3026663Y-752347D01*
X3026663Y-768350D01*
X3029965Y-781050D01*
X3036315Y-787400D01*
X3045713Y-790702D01*
X3049015Y-790702D01*
X3058413Y-787400D01*
X3064763Y-781050D01*
X3068065Y-771652D01*
X3068065Y-768350D01*
X3064763Y-758697D01*
X3058413Y-752347D01*
X3049015Y-749300D01*
X3045713Y-749300D01*
X3036315Y-752347D01*
X3029965Y-758697D01*
X3026663Y-768350D01*
X3108197Y-723900D02*
G01*
X3098545Y-726947D01*
X3092195Y-736600D01*
X3089147Y-752347D01*
X3089147Y-762000D01*
X3092195Y-778002D01*
X3098545Y-787400D01*
X3108197Y-790702D01*
X3114547Y-790702D01*
X3123945Y-787400D01*
X3130295Y-778002D01*
X3133597Y-762000D01*
X3133597Y-752347D01*
X3130295Y-736600D01*
X3123945Y-726947D01*
X3114547Y-723900D01*
X3108197Y-723900D01*
D19*
X2083836Y-1934169D02*
G01*
X2005858Y-1934169D01*
X1990364Y-1939249D01*
X1979950Y-1949663D01*
X1974870Y-1965411D01*
X1974870Y-1975825D01*
X1979950Y-1991319D01*
X1990364Y-2001733D01*
X2005858Y-2006813D01*
X2083836Y-2006813D01*
X2063008Y-2041103D02*
G01*
X2068342Y-2051517D01*
X2083836Y-2067265D01*
X1974870Y-2067265D01*
X2083836Y-3331169D02*
G01*
X2005858Y-3331169D01*
X1990364Y-3336249D01*
X1979950Y-3346663D01*
X1974870Y-3362411D01*
X1974870Y-3372825D01*
X1979950Y-3388319D01*
X1990364Y-3398733D01*
X2005858Y-3403813D01*
X2083836Y-3403813D01*
X2057928Y-3443437D02*
G01*
X2063008Y-3443437D01*
X2073422Y-3448517D01*
X2078756Y-3453851D01*
X2083836Y-3464265D01*
X2083836Y-3484839D01*
X2078756Y-3495253D01*
X2073422Y-3500587D01*
X2063008Y-3505667D01*
X2052594Y-3505667D01*
X2042180Y-3500587D01*
X2026686Y-3490173D01*
X1974870Y-3438103D01*
X1974870Y-3511001D01*
X2083836Y-4728169D02*
G01*
X2005858Y-4728169D01*
X1990364Y-4733249D01*
X1979950Y-4743663D01*
X1974870Y-4759411D01*
X1974870Y-4769825D01*
X1979950Y-4785319D01*
X1990364Y-4795733D01*
X2005858Y-4800813D01*
X2083836Y-4800813D01*
X2083836Y-4845517D02*
G01*
X2083836Y-4902667D01*
X2042180Y-4871679D01*
X2042180Y-4887173D01*
X2037100Y-4897587D01*
X2032020Y-4902667D01*
X2016272Y-4908001D01*
X2005858Y-4908001D01*
X1990364Y-4902667D01*
X1979950Y-4892253D01*
X1974870Y-4876759D01*
X1974870Y-4861265D01*
X1979950Y-4845517D01*
X1985030Y-4840437D01*
X1995444Y-4835103D01*
X2083836Y-6125169D02*
G01*
X2005858Y-6125169D01*
X1990364Y-6130249D01*
X1979950Y-6140663D01*
X1974870Y-6156411D01*
X1974870Y-6166825D01*
X1979950Y-6182319D01*
X1990364Y-6192733D01*
X2005858Y-6197813D01*
X2083836Y-6197813D01*
X2083836Y-6284173D02*
G01*
X2011192Y-6232103D01*
X2011192Y-6310081D01*
X2083836Y-6284173D02*
G01*
X1974870Y-6284173D01*
X2083836Y-7522169D02*
G01*
X2005858Y-7522169D01*
X1990364Y-7527249D01*
X1979950Y-7537663D01*
X1974870Y-7553411D01*
X1974870Y-7563825D01*
X1979950Y-7579319D01*
X1990364Y-7589733D01*
X2005858Y-7594813D01*
X2083836Y-7594813D01*
X2083836Y-7691587D02*
G01*
X2083836Y-7639517D01*
X2037100Y-7634437D01*
X2042180Y-7639517D01*
X2047514Y-7655265D01*
X2047514Y-7670759D01*
X2042180Y-7686253D01*
X2032020Y-7696667D01*
X2016272Y-7702001D01*
X2005858Y-7702001D01*
X1990364Y-7696667D01*
X1979950Y-7686253D01*
X1974870Y-7670759D01*
X1974870Y-7655265D01*
X1979950Y-7639517D01*
X1985030Y-7634437D01*
X1995444Y-7629103D01*
X6435364Y-2185629D02*
G01*
X6513342Y-2185629D01*
X6528836Y-2180549D01*
X6539250Y-2170135D01*
X6544330Y-2154387D01*
X6544330Y-2143973D01*
X6539250Y-2128479D01*
X6528836Y-2118065D01*
X6513342Y-2112985D01*
X6435364Y-2112985D01*
X6450858Y-2016211D02*
G01*
X6440444Y-2021545D01*
X6435364Y-2037039D01*
X6435364Y-2047453D01*
X6440444Y-2062947D01*
X6456192Y-2073361D01*
X6482100Y-2078695D01*
X6508008Y-2078695D01*
X6528836Y-2073361D01*
X6539250Y-2062947D01*
X6544330Y-2047453D01*
X6544330Y-2042119D01*
X6539250Y-2026625D01*
X6528836Y-2016211D01*
X6513342Y-2011131D01*
X6508008Y-2011131D01*
X6492514Y-2016211D01*
X6482100Y-2026625D01*
X6477020Y-2042119D01*
X6477020Y-2047453D01*
X6482100Y-2062947D01*
X6492514Y-2073361D01*
X6508008Y-2078695D01*
X6435364Y-3582629D02*
G01*
X6513342Y-3582629D01*
X6528836Y-3577549D01*
X6539250Y-3567135D01*
X6544330Y-3551387D01*
X6544330Y-3540973D01*
X6539250Y-3525479D01*
X6528836Y-3515065D01*
X6513342Y-3509985D01*
X6435364Y-3509985D01*
X6435364Y-3402797D02*
G01*
X6544330Y-3454867D01*
X6435364Y-3475695D02*
G01*
X6435364Y-3402797D01*
X6435364Y-4979629D02*
G01*
X6513342Y-4979629D01*
X6528836Y-4974549D01*
X6539250Y-4964135D01*
X6544330Y-4948387D01*
X6544330Y-4937973D01*
X6539250Y-4922479D01*
X6528836Y-4912065D01*
X6513342Y-4906985D01*
X6435364Y-4906985D01*
X6435364Y-4846533D02*
G01*
X6440444Y-4862281D01*
X6450858Y-4867361D01*
X6461272Y-4867361D01*
X6471686Y-4862281D01*
X6477020Y-4851867D01*
X6482100Y-4831039D01*
X6487180Y-4815545D01*
X6497594Y-4805131D01*
X6508008Y-4799797D01*
X6523756Y-4799797D01*
X6534170Y-4805131D01*
X6539250Y-4810211D01*
X6544330Y-4825959D01*
X6544330Y-4846533D01*
X6539250Y-4862281D01*
X6534170Y-4867361D01*
X6523756Y-4872695D01*
X6508008Y-4872695D01*
X6497594Y-4867361D01*
X6487180Y-4856947D01*
X6482100Y-4841453D01*
X6477020Y-4820625D01*
X6471686Y-4810211D01*
X6461272Y-4805131D01*
X6450858Y-4805131D01*
X6440444Y-4810211D01*
X6435364Y-4825959D01*
X6435364Y-4846533D01*
X6435364Y-6376629D02*
G01*
X6513342Y-6376629D01*
X6528836Y-6371549D01*
X6539250Y-6361135D01*
X6544330Y-6345387D01*
X6544330Y-6334973D01*
X6539250Y-6319479D01*
X6528836Y-6309065D01*
X6513342Y-6303985D01*
X6435364Y-6303985D01*
X6471686Y-6202131D02*
G01*
X6487180Y-6207211D01*
X6497594Y-6217625D01*
X6502928Y-6233119D01*
X6502928Y-6238453D01*
X6497594Y-6253947D01*
X6487180Y-6264361D01*
X6471686Y-6269695D01*
X6466606Y-6269695D01*
X6450858Y-6264361D01*
X6440444Y-6253947D01*
X6435364Y-6238453D01*
X6435364Y-6233119D01*
X6440444Y-6217625D01*
X6450858Y-6207211D01*
X6471686Y-6202131D01*
X6497594Y-6202131D01*
X6523756Y-6207211D01*
X6539250Y-6217625D01*
X6544330Y-6233119D01*
X6544330Y-6243533D01*
X6539250Y-6259281D01*
X6528836Y-6264361D01*
X6435364Y-7773629D02*
G01*
X6513342Y-7773629D01*
X6528836Y-7768549D01*
X6539250Y-7758135D01*
X6544330Y-7742387D01*
X6544330Y-7731973D01*
X6539250Y-7716479D01*
X6528836Y-7706065D01*
X6513342Y-7700985D01*
X6435364Y-7700985D01*
X6456192Y-7666695D02*
G01*
X6450858Y-7656281D01*
X6435364Y-7640533D01*
X6544330Y-7640533D01*
X6435364Y-7575255D02*
G01*
X6440444Y-7590749D01*
X6456192Y-7601163D01*
X6482100Y-7606243D01*
X6497594Y-7606243D01*
X6523756Y-7601163D01*
X6539250Y-7590749D01*
X6544330Y-7575255D01*
X6544330Y-7564841D01*
X6539250Y-7549093D01*
X6523756Y-7538679D01*
X6497594Y-7533599D01*
X6482100Y-7533599D01*
X6456192Y-7538679D01*
X6440444Y-7549093D01*
X6435364Y-7564841D01*
X6435364Y-7575255D01*
X4579297Y-989883D02*
G01*
X4579297Y-1098849D01*
X4579297Y-989883D02*
G01*
X4646861Y-989883D01*
X4579297Y-1041699D02*
G01*
X4620953Y-1041699D01*
X4681151Y-1010711D02*
G01*
X4691565Y-1005377D01*
X4707059Y-989883D01*
X4707059Y-1098849D01*
X3177900Y-2175215D02*
G01*
X3177900Y-2066249D01*
X3177900Y-2175215D02*
G01*
X3110336Y-2175215D01*
X3177900Y-2123399D02*
G01*
X3136244Y-2123399D01*
X3070966Y-2149307D02*
G01*
X3070966Y-2154387D01*
X3065632Y-2164801D01*
X3060552Y-2170135D01*
X3050138Y-2175215D01*
X3029310Y-2175215D01*
X3018896Y-2170135D01*
X3013816Y-2164801D01*
X3008482Y-2154387D01*
X3008482Y-2143973D01*
X3013816Y-2133559D01*
X3024230Y-2118065D01*
X3076046Y-2066249D01*
X3003402Y-2066249D01*
X3116600Y-3633515D02*
G01*
X3116600Y-3524549D01*
X3116600Y-3633515D02*
G01*
X3049036Y-3633515D01*
X3116600Y-3581699D02*
G01*
X3074944Y-3581699D01*
X3004332Y-3633515D02*
G01*
X2947182Y-3633515D01*
X2978424Y-3591859D01*
X2962930Y-3591859D01*
X2952516Y-3586779D01*
X2947182Y-3581699D01*
X2942102Y-3565951D01*
X2942102Y-3555537D01*
X2947182Y-3540043D01*
X2957596Y-3529629D01*
X2973090Y-3524549D01*
X2988838Y-3524549D01*
X3004332Y-3529629D01*
X3009666Y-3534709D01*
X3014746Y-3545123D01*
X3117499Y-4949517D02*
G01*
X3117499Y-4840551D01*
X3117499Y-4949517D02*
G01*
X3049935Y-4949517D01*
X3117499Y-4897701D02*
G01*
X3075843Y-4897701D01*
X2963829Y-4949517D02*
G01*
X3015645Y-4876873D01*
X2937667Y-4876873D01*
X2963829Y-4949517D02*
G01*
X2963829Y-4840551D01*
X3239198Y-6304914D02*
G01*
X3239198Y-6195948D01*
X3239198Y-6304914D02*
G01*
X3171634Y-6304914D01*
X3239198Y-6253098D02*
G01*
X3197542Y-6253098D01*
X3075114Y-6304914D02*
G01*
X3126930Y-6304914D01*
X3132264Y-6258179D01*
X3126930Y-6263259D01*
X3111436Y-6268593D01*
X3095688Y-6268593D01*
X3080194Y-6263259D01*
X3069780Y-6253098D01*
X3064700Y-6237351D01*
X3064700Y-6226937D01*
X3069780Y-6211443D01*
X3080194Y-6201029D01*
X3095688Y-6195948D01*
X3111436Y-6195948D01*
X3126930Y-6201029D01*
X3132264Y-6206109D01*
X3137344Y-6216522D01*
X3177900Y-7701914D02*
G01*
X3177900Y-7592948D01*
X3177900Y-7701914D02*
G01*
X3110336Y-7701914D01*
X3177900Y-7650098D02*
G01*
X3136244Y-7650098D01*
X3013816Y-7686420D02*
G01*
X3018896Y-7696835D01*
X3034390Y-7701914D01*
X3044804Y-7701914D01*
X3060552Y-7696835D01*
X3070966Y-7681087D01*
X3076046Y-7655179D01*
X3076046Y-7629270D01*
X3070966Y-7608443D01*
X3060552Y-7598029D01*
X3044804Y-7592948D01*
X3039724Y-7592948D01*
X3024230Y-7598029D01*
X3013816Y-7608443D01*
X3008482Y-7623937D01*
X3008482Y-7629270D01*
X3013816Y-7644764D01*
X3024230Y-7655179D01*
X3039724Y-7660259D01*
X3044804Y-7660259D01*
X3060552Y-7655179D01*
X3070966Y-7644764D01*
X3076046Y-7629270D01*
X5341299Y-2005883D02*
G01*
X5341299Y-2114849D01*
X5341299Y-2005883D02*
G01*
X5408863Y-2005883D01*
X5341299Y-2057699D02*
G01*
X5382955Y-2057699D01*
X5515797Y-2005883D02*
G01*
X5463981Y-2114849D01*
X5443153Y-2005883D02*
G01*
X5515797Y-2005883D01*
X5279999Y-3402883D02*
G01*
X5279999Y-3511849D01*
X5279999Y-3402883D02*
G01*
X5347563Y-3402883D01*
X5279999Y-3454699D02*
G01*
X5321655Y-3454699D01*
X5407761Y-3402883D02*
G01*
X5392267Y-3407963D01*
X5386933Y-3418377D01*
X5386933Y-3428791D01*
X5392267Y-3439205D01*
X5402681Y-3444539D01*
X5423509Y-3449619D01*
X5439003Y-3454699D01*
X5449417Y-3465113D01*
X5454497Y-3475527D01*
X5454497Y-3491275D01*
X5449417Y-3501689D01*
X5444083Y-3506769D01*
X5428589Y-3511849D01*
X5407761Y-3511849D01*
X5392267Y-3506769D01*
X5386933Y-3501689D01*
X5381853Y-3491275D01*
X5381853Y-3475527D01*
X5386933Y-3465113D01*
X5397347Y-3454699D01*
X5413095Y-3449619D01*
X5433669Y-3444539D01*
X5444083Y-3439205D01*
X5449417Y-3428791D01*
X5449417Y-3418377D01*
X5444083Y-3407963D01*
X5428589Y-3402883D01*
X5407761Y-3402883D01*
X5428401Y-4758283D02*
G01*
X5428401Y-4867249D01*
X5428401Y-4758283D02*
G01*
X5495965Y-4758283D01*
X5428401Y-4810099D02*
G01*
X5470057Y-4810099D01*
X5597819Y-4794605D02*
G01*
X5592485Y-4810099D01*
X5582071Y-4820513D01*
X5566577Y-4825847D01*
X5561497Y-4825847D01*
X5545749Y-4820513D01*
X5535335Y-4810099D01*
X5530255Y-4794605D01*
X5530255Y-4789525D01*
X5535335Y-4773777D01*
X5545749Y-4763363D01*
X5561497Y-4758283D01*
X5566577Y-4758283D01*
X5582071Y-4763363D01*
X5592485Y-4773777D01*
X5597819Y-4794605D01*
X5597819Y-4820513D01*
X5592485Y-4846675D01*
X5582071Y-4862169D01*
X5566577Y-4867249D01*
X5556163Y-4867249D01*
X5540669Y-4862169D01*
X5535335Y-4851755D01*
X5279999Y-6196883D02*
G01*
X5279999Y-6305849D01*
X5279999Y-6196883D02*
G01*
X5347563Y-6196883D01*
X5279999Y-6248699D02*
G01*
X5321655Y-6248699D01*
X5381853Y-6217711D02*
G01*
X5392267Y-6212377D01*
X5407761Y-6196883D01*
X5407761Y-6305849D01*
X5473293Y-6196883D02*
G01*
X5457799Y-6201963D01*
X5447385Y-6217711D01*
X5442051Y-6243619D01*
X5442051Y-6259113D01*
X5447385Y-6285275D01*
X5457799Y-6300769D01*
X5473293Y-6305849D01*
X5483707Y-6305849D01*
X5499201Y-6300769D01*
X5509615Y-6285275D01*
X5514949Y-6259113D01*
X5514949Y-6243619D01*
X5509615Y-6217711D01*
X5499201Y-6201963D01*
X5483707Y-6196883D01*
X5473293Y-6196883D01*
X5279999Y-7655184D02*
G01*
X5279999Y-7764150D01*
X5279999Y-7655184D02*
G01*
X5347563Y-7655184D01*
X5279999Y-7707000D02*
G01*
X5321655Y-7707000D01*
X5381853Y-7676012D02*
G01*
X5392267Y-7670678D01*
X5407761Y-7655184D01*
X5407761Y-7764150D01*
X5442051Y-7676012D02*
G01*
X5452465Y-7670678D01*
X5467959Y-7655184D01*
X5467959Y-7764150D01*
X3385809Y-2975315D02*
G01*
X3385809Y-2866349D01*
X3385809Y-2975315D02*
G01*
X3339073Y-2975315D01*
X3323579Y-2970235D01*
X3318245Y-2964901D01*
X3313165Y-2954487D01*
X3313165Y-2944073D01*
X3318245Y-2933659D01*
X3323579Y-2928579D01*
X3339073Y-2923499D01*
X3385809Y-2923499D01*
X3349487Y-2923499D02*
G01*
X3313165Y-2866349D01*
X3278875Y-2954487D02*
G01*
X3268461Y-2959821D01*
X3252713Y-2975315D01*
X3252713Y-2866349D01*
X6814809Y-1324315D02*
G01*
X6814809Y-1215349D01*
X6814809Y-1324315D02*
G01*
X6768073Y-1324315D01*
X6752579Y-1319235D01*
X6747245Y-1313901D01*
X6742165Y-1303487D01*
X6742165Y-1293073D01*
X6747245Y-1282659D01*
X6752579Y-1277579D01*
X6768073Y-1272499D01*
X6814809Y-1272499D01*
X6778487Y-1272499D02*
G01*
X6742165Y-1215349D01*
X6702541Y-1298407D02*
G01*
X6702541Y-1303487D01*
X6697461Y-1313901D01*
X6692127Y-1319235D01*
X6681713Y-1324315D01*
X6661139Y-1324315D01*
X6650725Y-1319235D01*
X6645391Y-1313901D01*
X6640311Y-1303487D01*
X6640311Y-1293073D01*
X6645391Y-1282659D01*
X6655805Y-1267165D01*
X6707875Y-1215349D01*
X6634977Y-1215349D01*
X3385809Y-4372315D02*
G01*
X3385809Y-4263349D01*
X3385809Y-4372315D02*
G01*
X3339073Y-4372315D01*
X3323579Y-4367235D01*
X3318245Y-4361901D01*
X3313165Y-4351487D01*
X3313165Y-4341073D01*
X3318245Y-4330659D01*
X3323579Y-4325579D01*
X3339073Y-4320499D01*
X3385809Y-4320499D01*
X3349487Y-4320499D02*
G01*
X3313165Y-4263349D01*
X3268461Y-4372315D02*
G01*
X3211311Y-4372315D01*
X3242299Y-4330659D01*
X3226805Y-4330659D01*
X3216391Y-4325579D01*
X3211311Y-4320499D01*
X3205977Y-4304751D01*
X3205977Y-4294337D01*
X3211311Y-4278843D01*
X3221725Y-4268429D01*
X3237219Y-4263349D01*
X3252713Y-4263349D01*
X3268461Y-4268429D01*
X3273541Y-4273509D01*
X3278875Y-4283923D01*
X3385809Y-5769315D02*
G01*
X3385809Y-5660349D01*
X3385809Y-5769315D02*
G01*
X3339073Y-5769315D01*
X3323579Y-5764235D01*
X3318245Y-5758901D01*
X3313165Y-5748487D01*
X3313165Y-5738073D01*
X3318245Y-5727659D01*
X3323579Y-5722579D01*
X3339073Y-5717499D01*
X3385809Y-5717499D01*
X3349487Y-5717499D02*
G01*
X3313165Y-5660349D01*
X3226805Y-5769315D02*
G01*
X3278875Y-5696671D01*
X3200897Y-5696671D01*
X3226805Y-5769315D02*
G01*
X3226805Y-5660349D01*
X3385809Y-7166315D02*
G01*
X3385809Y-7057349D01*
X3385809Y-7166315D02*
G01*
X3339073Y-7166315D01*
X3323579Y-7161235D01*
X3318245Y-7155901D01*
X3313165Y-7145487D01*
X3313165Y-7135073D01*
X3318245Y-7124659D01*
X3323579Y-7119579D01*
X3339073Y-7114499D01*
X3385809Y-7114499D01*
X3349487Y-7114499D02*
G01*
X3313165Y-7057349D01*
X3216391Y-7166315D02*
G01*
X3268461Y-7166315D01*
X3273541Y-7119579D01*
X3268461Y-7124659D01*
X3252713Y-7129993D01*
X3237219Y-7129993D01*
X3221725Y-7124659D01*
X3211311Y-7114499D01*
X3205977Y-7098751D01*
X3205977Y-7088337D01*
X3211311Y-7072843D01*
X3221725Y-7062429D01*
X3237219Y-7057349D01*
X3252713Y-7057349D01*
X3268461Y-7062429D01*
X3273541Y-7067509D01*
X3278875Y-7077923D01*
X3385809Y-8563315D02*
G01*
X3385809Y-8454349D01*
X3385809Y-8563315D02*
G01*
X3339073Y-8563315D01*
X3323579Y-8558235D01*
X3318245Y-8552901D01*
X3313165Y-8542487D01*
X3313165Y-8532073D01*
X3318245Y-8521659D01*
X3323579Y-8516579D01*
X3339073Y-8511499D01*
X3385809Y-8511499D01*
X3349487Y-8511499D02*
G01*
X3313165Y-8454349D01*
X3216391Y-8547821D02*
G01*
X3221725Y-8558235D01*
X3237219Y-8563315D01*
X3247633Y-8563315D01*
X3263127Y-8558235D01*
X3273541Y-8542487D01*
X3278875Y-8516579D01*
X3278875Y-8490671D01*
X3273541Y-8469843D01*
X3263127Y-8459429D01*
X3247633Y-8454349D01*
X3242299Y-8454349D01*
X3226805Y-8459429D01*
X3216391Y-8469843D01*
X3211311Y-8485337D01*
X3211311Y-8490671D01*
X3216391Y-8506165D01*
X3226805Y-8516579D01*
X3242299Y-8521659D01*
X3247633Y-8521659D01*
X3263127Y-8516579D01*
X3273541Y-8506165D01*
X3278875Y-8490671D01*
X5191790Y-2513584D02*
G01*
X5191790Y-2622550D01*
X5191790Y-2513584D02*
G01*
X5238526Y-2513584D01*
X5254020Y-2518663D01*
X5259354Y-2523997D01*
X5264434Y-2534412D01*
X5264434Y-2544826D01*
X5259354Y-2555239D01*
X5254020Y-2560320D01*
X5238526Y-2565400D01*
X5191790Y-2565400D01*
X5228112Y-2565400D02*
G01*
X5264434Y-2622550D01*
X5371622Y-2513584D02*
G01*
X5319552Y-2622550D01*
X5298724Y-2513584D02*
G01*
X5371622Y-2513584D01*
X5191790Y-3910584D02*
G01*
X5191790Y-4019550D01*
X5191790Y-3910584D02*
G01*
X5238526Y-3910584D01*
X5254020Y-3915663D01*
X5259354Y-3920997D01*
X5264434Y-3931412D01*
X5264434Y-3941826D01*
X5259354Y-3952239D01*
X5254020Y-3957320D01*
X5238526Y-3962400D01*
X5191790Y-3962400D01*
X5228112Y-3962400D02*
G01*
X5264434Y-4019550D01*
X5324886Y-3910584D02*
G01*
X5309138Y-3915663D01*
X5304058Y-3926078D01*
X5304058Y-3936492D01*
X5309138Y-3946905D01*
X5319552Y-3952239D01*
X5340380Y-3957320D01*
X5355874Y-3962400D01*
X5366288Y-3972813D01*
X5371622Y-3983228D01*
X5371622Y-3998976D01*
X5366288Y-4009389D01*
X5361208Y-4014470D01*
X5345460Y-4019550D01*
X5324886Y-4019550D01*
X5309138Y-4014470D01*
X5304058Y-4009389D01*
X5298724Y-3998976D01*
X5298724Y-3983228D01*
X5304058Y-3972813D01*
X5314472Y-3962400D01*
X5329966Y-3957320D01*
X5350794Y-3952239D01*
X5361208Y-3946905D01*
X5366288Y-3936492D01*
X5366288Y-3926078D01*
X5361208Y-3915663D01*
X5345460Y-3910584D01*
X5324886Y-3910584D01*
X5191790Y-5307584D02*
G01*
X5191790Y-5416550D01*
X5191790Y-5307584D02*
G01*
X5238526Y-5307584D01*
X5254020Y-5312663D01*
X5259354Y-5317997D01*
X5264434Y-5328412D01*
X5264434Y-5338826D01*
X5259354Y-5349239D01*
X5254020Y-5354320D01*
X5238526Y-5359400D01*
X5191790Y-5359400D01*
X5228112Y-5359400D02*
G01*
X5264434Y-5416550D01*
X5366288Y-5343905D02*
G01*
X5361208Y-5359400D01*
X5350794Y-5369813D01*
X5335300Y-5375147D01*
X5329966Y-5375147D01*
X5314472Y-5369813D01*
X5304058Y-5359400D01*
X5298724Y-5343905D01*
X5298724Y-5338826D01*
X5304058Y-5323078D01*
X5314472Y-5312663D01*
X5329966Y-5307584D01*
X5335300Y-5307584D01*
X5350794Y-5312663D01*
X5361208Y-5323078D01*
X5366288Y-5343905D01*
X5366288Y-5369813D01*
X5361208Y-5395976D01*
X5350794Y-5411470D01*
X5335300Y-5416550D01*
X5324886Y-5416550D01*
X5309138Y-5411470D01*
X5304058Y-5401055D01*
X5191790Y-6704584D02*
G01*
X5191790Y-6813550D01*
X5191790Y-6704584D02*
G01*
X5238526Y-6704584D01*
X5254020Y-6709663D01*
X5259354Y-6714997D01*
X5264434Y-6725412D01*
X5264434Y-6735826D01*
X5259354Y-6746239D01*
X5254020Y-6751320D01*
X5238526Y-6756400D01*
X5191790Y-6756400D01*
X5228112Y-6756400D02*
G01*
X5264434Y-6813550D01*
X5298724Y-6725412D02*
G01*
X5309138Y-6720078D01*
X5324886Y-6704584D01*
X5324886Y-6813550D01*
X5390164Y-6704584D02*
G01*
X5374670Y-6709663D01*
X5364256Y-6725412D01*
X5359176Y-6751320D01*
X5359176Y-6766813D01*
X5364256Y-6792976D01*
X5374670Y-6808470D01*
X5390164Y-6813550D01*
X5400578Y-6813550D01*
X5416326Y-6808470D01*
X5426740Y-6792976D01*
X5431820Y-6766813D01*
X5431820Y-6751320D01*
X5426740Y-6725412D01*
X5416326Y-6709663D01*
X5400578Y-6704584D01*
X5390164Y-6704584D01*
X5191790Y-8101584D02*
G01*
X5191790Y-8210550D01*
X5191790Y-8101584D02*
G01*
X5238526Y-8101584D01*
X5254020Y-8106663D01*
X5259354Y-8111997D01*
X5264434Y-8122412D01*
X5264434Y-8132826D01*
X5259354Y-8143239D01*
X5254020Y-8148320D01*
X5238526Y-8153400D01*
X5191790Y-8153400D01*
X5228112Y-8153400D02*
G01*
X5264434Y-8210550D01*
X5298724Y-8122412D02*
G01*
X5309138Y-8117078D01*
X5324886Y-8101584D01*
X5324886Y-8210550D01*
X5359176Y-8122412D02*
G01*
X5369590Y-8117078D01*
X5385084Y-8101584D01*
X5385084Y-8210550D01*
G36*
X2578608Y-2614879D02*
G01*
X2578608Y-2774899D01*
X2598572Y-2774899D01*
X2598572Y-2614879D01*
G37*
G36*
X2588615Y-2684881D02*
G01*
X2588615Y-2704896D01*
X2648610Y-2704896D01*
X2648610Y-2684881D01*
G37*
G36*
X6007608Y-963879D02*
G01*
X6007608Y-1123899D01*
X6027572Y-1123899D01*
X6027572Y-963879D01*
G37*
G36*
X6017615Y-1033881D02*
G01*
X6017615Y-1053896D01*
X6077610Y-1053896D01*
X6077610Y-1033881D01*
G37*
G36*
X2578608Y-4011879D02*
G01*
X2578608Y-4171899D01*
X2598572Y-4171899D01*
X2598572Y-4011879D01*
G37*
G36*
X2588615Y-4081881D02*
G01*
X2588615Y-4101896D01*
X2648610Y-4101896D01*
X2648610Y-4081881D01*
G37*
G36*
X2578608Y-5408879D02*
G01*
X2578608Y-5568899D01*
X2598572Y-5568899D01*
X2598572Y-5408879D01*
G37*
G36*
X2588615Y-5478881D02*
G01*
X2588615Y-5498896D01*
X2648610Y-5498896D01*
X2648610Y-5478881D01*
G37*
G36*
X2578608Y-6805879D02*
G01*
X2578608Y-6965899D01*
X2598572Y-6965899D01*
X2598572Y-6805879D01*
G37*
G36*
X2588615Y-6875881D02*
G01*
X2588615Y-6895896D01*
X2648610Y-6895896D01*
X2648610Y-6875881D01*
G37*
G36*
X2578608Y-8202879D02*
G01*
X2578608Y-8362899D01*
X2598572Y-8362899D01*
X2598572Y-8202879D01*
G37*
G36*
X2588615Y-8272881D02*
G01*
X2588615Y-8292896D01*
X2648610Y-8292896D01*
X2648610Y-8272881D01*
G37*
G36*
X5979007Y-2713990D02*
G01*
X5979007Y-2874010D01*
X5999022Y-2874010D01*
X5999022Y-2713990D01*
G37*
G36*
X5929020Y-2783992D02*
G01*
X5929020Y-2804007D01*
X5989015Y-2804007D01*
X5989015Y-2783992D01*
G37*
G36*
X5979007Y-4110990D02*
G01*
X5979007Y-4271010D01*
X5999022Y-4271010D01*
X5999022Y-4110990D01*
G37*
G36*
X5929020Y-4180992D02*
G01*
X5929020Y-4201007D01*
X5989015Y-4201007D01*
X5989015Y-4180992D01*
G37*
G36*
X5979007Y-5507990D02*
G01*
X5979007Y-5668010D01*
X5999022Y-5668010D01*
X5999022Y-5507990D01*
G37*
G36*
X5929020Y-5577992D02*
G01*
X5929020Y-5598007D01*
X5989015Y-5598007D01*
X5989015Y-5577992D01*
G37*
G36*
X5979007Y-6904990D02*
G01*
X5979007Y-7065009D01*
X5999022Y-7065009D01*
X5999022Y-6904990D01*
G37*
G36*
X5929020Y-6974992D02*
G01*
X5929020Y-6995007D01*
X5989015Y-6995007D01*
X5989015Y-6974992D01*
G37*
G36*
X5979007Y-8301990D02*
G01*
X5979007Y-8462010D01*
X5999022Y-8462010D01*
X5999022Y-8301990D01*
G37*
G36*
X5929020Y-8371992D02*
G01*
X5929020Y-8392007D01*
X5989015Y-8392007D01*
X5989015Y-8371992D01*
G37*
D10*
X2518610Y-2814899D02*
G01*
X2358613Y-2814899D01*
X2518610Y-2574899D02*
G01*
X2358613Y-2574899D01*
X2698612Y-2814899D02*
G01*
X2848612Y-2814899D01*
X2698612Y-2574899D02*
G01*
X2848612Y-2574899D01*
X2358613Y-2814899D02*
G01*
X2358613Y-2574899D01*
X2888609Y-2764899D02*
G01*
X2888612Y-2624899D01*
X2888609Y-2764899D02*
G01*
X2888609Y-2774901D01*
X2848612Y-2814899D01*
X2888612Y-2624899D02*
G01*
X2888612Y-2614899D01*
X2848612Y-2574899D01*
X5947610Y-1163899D02*
G01*
X5787613Y-1163899D01*
X5947610Y-923899D02*
G01*
X5787613Y-923899D01*
X6127612Y-1163899D02*
G01*
X6277612Y-1163899D01*
X6127612Y-923899D02*
G01*
X6277612Y-923899D01*
X5787613Y-1163899D02*
G01*
X5787613Y-923899D01*
X6317609Y-1113899D02*
G01*
X6317612Y-973899D01*
X6317609Y-1113899D02*
G01*
X6317609Y-1123901D01*
X6277612Y-1163899D01*
X6317612Y-973899D02*
G01*
X6317612Y-963899D01*
X6277612Y-923899D01*
X2518610Y-4211899D02*
G01*
X2358613Y-4211899D01*
X2518610Y-3971899D02*
G01*
X2358613Y-3971899D01*
X2698612Y-4211899D02*
G01*
X2848612Y-4211899D01*
X2698612Y-3971899D02*
G01*
X2848612Y-3971899D01*
X2358613Y-4211899D02*
G01*
X2358613Y-3971899D01*
X2888609Y-4161899D02*
G01*
X2888612Y-4021899D01*
X2888609Y-4161899D02*
G01*
X2888609Y-4171901D01*
X2848612Y-4211899D01*
X2888612Y-4021899D02*
G01*
X2888612Y-4011899D01*
X2848612Y-3971899D01*
X2518610Y-5608899D02*
G01*
X2358613Y-5608899D01*
X2518610Y-5368899D02*
G01*
X2358613Y-5368899D01*
X2698612Y-5608899D02*
G01*
X2848612Y-5608899D01*
X2698612Y-5368899D02*
G01*
X2848612Y-5368899D01*
X2358613Y-5608899D02*
G01*
X2358613Y-5368899D01*
X2888609Y-5558899D02*
G01*
X2888612Y-5418899D01*
X2888609Y-5558899D02*
G01*
X2888609Y-5568901D01*
X2848612Y-5608899D01*
X2888612Y-5418899D02*
G01*
X2888612Y-5408899D01*
X2848612Y-5368899D01*
X2518610Y-7005899D02*
G01*
X2358613Y-7005899D01*
X2518610Y-6765899D02*
G01*
X2358613Y-6765899D01*
X2698612Y-7005899D02*
G01*
X2848612Y-7005899D01*
X2698612Y-6765899D02*
G01*
X2848612Y-6765899D01*
X2358613Y-7005899D02*
G01*
X2358613Y-6765899D01*
X2888609Y-6955899D02*
G01*
X2888612Y-6815899D01*
X2888609Y-6955899D02*
G01*
X2888609Y-6965901D01*
X2848612Y-7005899D01*
X2888612Y-6815899D02*
G01*
X2888612Y-6805899D01*
X2848612Y-6765899D01*
X2518610Y-8402899D02*
G01*
X2358613Y-8402899D01*
X2518610Y-8162899D02*
G01*
X2358613Y-8162899D01*
X2698612Y-8402899D02*
G01*
X2848612Y-8402899D01*
X2698612Y-8162899D02*
G01*
X2848612Y-8162899D01*
X2358613Y-8402899D02*
G01*
X2358613Y-8162899D01*
X2888609Y-8352899D02*
G01*
X2888612Y-8212899D01*
X2888609Y-8352899D02*
G01*
X2888609Y-8362901D01*
X2848612Y-8402899D01*
X2888612Y-8212899D02*
G01*
X2888612Y-8202899D01*
X2848612Y-8162899D01*
X6058989Y-2674000D02*
G01*
X6218986Y-2674000D01*
X6058989Y-2913999D02*
G01*
X6218986Y-2913999D01*
X5878987Y-2674000D02*
G01*
X5728987Y-2674000D01*
X5878987Y-2913999D02*
G01*
X5728987Y-2913999D01*
X6218986Y-2674000D02*
G01*
X6218986Y-2913999D01*
X5688990Y-2724000D02*
G01*
X5688987Y-2863999D01*
X5688990Y-2724000D02*
G01*
X5688990Y-2713997D01*
X5728987Y-2674000D01*
X5688987Y-2863999D02*
G01*
X5688987Y-2873999D01*
X5728987Y-2913999D01*
X6058989Y-4071000D02*
G01*
X6218986Y-4071000D01*
X6058989Y-4310999D02*
G01*
X6218986Y-4310999D01*
X5878987Y-4071000D02*
G01*
X5728987Y-4071000D01*
X5878987Y-4310999D02*
G01*
X5728987Y-4310999D01*
X6218986Y-4071000D02*
G01*
X6218986Y-4310999D01*
X5688990Y-4121000D02*
G01*
X5688987Y-4260999D01*
X5688990Y-4121000D02*
G01*
X5688990Y-4110997D01*
X5728987Y-4071000D01*
X5688987Y-4260999D02*
G01*
X5688987Y-4270999D01*
X5728987Y-4310999D01*
X6058989Y-5468000D02*
G01*
X6218986Y-5468000D01*
X6058989Y-5707999D02*
G01*
X6218986Y-5707999D01*
X5878987Y-5468000D02*
G01*
X5728987Y-5468000D01*
X5878987Y-5707999D02*
G01*
X5728987Y-5707999D01*
X6218986Y-5468000D02*
G01*
X6218986Y-5707999D01*
X5688990Y-5518000D02*
G01*
X5688987Y-5657999D01*
X5688990Y-5518000D02*
G01*
X5688990Y-5507997D01*
X5728987Y-5468000D01*
X5688987Y-5657999D02*
G01*
X5688987Y-5667999D01*
X5728987Y-5707999D01*
X6058989Y-6865000D02*
G01*
X6218986Y-6865000D01*
X6058989Y-7104999D02*
G01*
X6218986Y-7104999D01*
X5878987Y-6865000D02*
G01*
X5728987Y-6865000D01*
X5878987Y-7104999D02*
G01*
X5728987Y-7104999D01*
X6218986Y-6865000D02*
G01*
X6218986Y-7104999D01*
X5688990Y-6915000D02*
G01*
X5688987Y-7054999D01*
X5688990Y-6915000D02*
G01*
X5688990Y-6904997D01*
X5728987Y-6865000D01*
X5688987Y-7054999D02*
G01*
X5688987Y-7064999D01*
X5728987Y-7104999D01*
X6058989Y-8262000D02*
G01*
X6218986Y-8262000D01*
X6058989Y-8501999D02*
G01*
X6218986Y-8501999D01*
X5878987Y-8262000D02*
G01*
X5728987Y-8262000D01*
X5878987Y-8501999D02*
G01*
X5728987Y-8501999D01*
X6218986Y-8262000D02*
G01*
X6218986Y-8501999D01*
X5688990Y-8312000D02*
G01*
X5688987Y-8451999D01*
X5688990Y-8312000D02*
G01*
X5688990Y-8301997D01*
X5728987Y-8262000D01*
X5688987Y-8451999D02*
G01*
X5688987Y-8461999D01*
X5728987Y-8501999D01*
X2067001Y-586003D02*
G01*
X3466998Y-586003D01*
X3466998Y-586003D02*
G01*
X3466998Y-1445996D01*
X3466998Y-1445996D02*
G01*
X2067001Y-1445996D01*
X2067001Y-1445996D02*
G01*
X1867001Y-1166012D01*
X1867001Y-1166012D02*
G01*
X1867001Y-866012D01*
X2067001Y-586003D02*
G01*
X1867001Y-866012D01*
X1419880Y-1501099D02*
G01*
X1419880Y-1597619D01*
X1470680Y-1551899D02*
G01*
X1369080Y-1551899D01*
X988080Y-1602699D02*
G01*
X1104920Y-1602699D01*
X1329753Y-2402799D02*
G01*
X1902480Y-2402799D01*
X1331635Y-1640799D02*
G01*
X1902480Y-1640799D01*
X1902480Y-1640799D02*
G01*
X1902480Y-2402799D01*
X581680Y-2344379D02*
G01*
X581680Y-1699219D01*
X581680Y-1699219D02*
G01*
X1275100Y-1699219D01*
X1275100Y-2344379D02*
G01*
X1275100Y-2348146D01*
X1329753Y-2402799D01*
X1275100Y-1699219D02*
G01*
X1275100Y-1697334D01*
X1331635Y-1640799D01*
X581680Y-2344379D02*
G01*
X1275100Y-2344379D01*
X1419880Y-2898099D02*
G01*
X1419880Y-2994619D01*
X1470680Y-2948899D02*
G01*
X1369080Y-2948899D01*
X988080Y-2999699D02*
G01*
X1104920Y-2999699D01*
X1329753Y-3799799D02*
G01*
X1902480Y-3799799D01*
X1331635Y-3037799D02*
G01*
X1902480Y-3037799D01*
X1902480Y-3037799D02*
G01*
X1902480Y-3799799D01*
X581680Y-3741379D02*
G01*
X581680Y-3096219D01*
X581680Y-3096219D02*
G01*
X1275100Y-3096219D01*
X1275100Y-3741379D02*
G01*
X1275100Y-3745146D01*
X1329753Y-3799799D01*
X1275100Y-3096219D02*
G01*
X1275100Y-3094334D01*
X1331635Y-3037799D01*
X581680Y-3741379D02*
G01*
X1275100Y-3741379D01*
X1419880Y-4295099D02*
G01*
X1419880Y-4391619D01*
X1470680Y-4345899D02*
G01*
X1369080Y-4345899D01*
X988080Y-4396699D02*
G01*
X1104920Y-4396699D01*
X1329753Y-5196799D02*
G01*
X1902480Y-5196799D01*
X1331635Y-4434799D02*
G01*
X1902480Y-4434799D01*
X1902480Y-4434799D02*
G01*
X1902480Y-5196799D01*
X581680Y-5138379D02*
G01*
X581680Y-4493219D01*
X581680Y-4493219D02*
G01*
X1275100Y-4493219D01*
X1275100Y-5138379D02*
G01*
X1275100Y-5142146D01*
X1329753Y-5196799D01*
X1275100Y-4493219D02*
G01*
X1275100Y-4491334D01*
X1331635Y-4434799D01*
X581680Y-5138379D02*
G01*
X1275100Y-5138379D01*
X1419880Y-5692099D02*
G01*
X1419880Y-5788619D01*
X1470680Y-5742899D02*
G01*
X1369080Y-5742899D01*
X988080Y-5793699D02*
G01*
X1104920Y-5793699D01*
X1329753Y-6593799D02*
G01*
X1902480Y-6593799D01*
X1331635Y-5831799D02*
G01*
X1902480Y-5831799D01*
X1902480Y-5831799D02*
G01*
X1902480Y-6593799D01*
X581680Y-6535379D02*
G01*
X581680Y-5890219D01*
X581680Y-5890219D02*
G01*
X1275100Y-5890219D01*
X1275100Y-6535379D02*
G01*
X1275100Y-6539146D01*
X1329753Y-6593799D01*
X1275100Y-5890219D02*
G01*
X1275100Y-5888334D01*
X1331635Y-5831799D01*
X581680Y-6535379D02*
G01*
X1275100Y-6535379D01*
X1419880Y-7089099D02*
G01*
X1419880Y-7185619D01*
X1470680Y-7139899D02*
G01*
X1369080Y-7139899D01*
X988080Y-7190699D02*
G01*
X1104920Y-7190699D01*
X1329753Y-7990799D02*
G01*
X1902480Y-7990799D01*
X1331635Y-7228799D02*
G01*
X1902480Y-7228799D01*
X1902480Y-7228799D02*
G01*
X1902480Y-7990799D01*
X581680Y-7932379D02*
G01*
X581680Y-7287219D01*
X581680Y-7287219D02*
G01*
X1275100Y-7287219D01*
X1275100Y-7932379D02*
G01*
X1275100Y-7936146D01*
X1329753Y-7990799D01*
X1275100Y-7287219D02*
G01*
X1275100Y-7285334D01*
X1331635Y-7228799D01*
X581680Y-7932379D02*
G01*
X1275100Y-7932379D01*
X7099320Y-2618699D02*
G01*
X7099320Y-2522179D01*
X7048520Y-2567899D02*
G01*
X7150120Y-2567899D01*
X7531120Y-2517099D02*
G01*
X7414280Y-2517099D01*
X7189447Y-1716999D02*
G01*
X6616720Y-1716999D01*
X7187565Y-2478999D02*
G01*
X6616720Y-2478999D01*
X6616720Y-2478999D02*
G01*
X6616720Y-1716999D01*
X7937520Y-1775419D02*
G01*
X7937520Y-2420579D01*
X7937520Y-2420579D02*
G01*
X7244100Y-2420579D01*
X7244100Y-1775419D02*
G01*
X7244100Y-1771652D01*
X7189447Y-1716999D01*
X7244100Y-2420579D02*
G01*
X7244100Y-2422464D01*
X7187565Y-2478999D01*
X7937520Y-1775419D02*
G01*
X7244100Y-1775419D01*
X7099320Y-4015699D02*
G01*
X7099320Y-3919179D01*
X7048520Y-3964899D02*
G01*
X7150120Y-3964899D01*
X7531120Y-3914099D02*
G01*
X7414280Y-3914099D01*
X7189447Y-3113999D02*
G01*
X6616720Y-3113999D01*
X7187565Y-3875999D02*
G01*
X6616720Y-3875999D01*
X6616720Y-3875999D02*
G01*
X6616720Y-3113999D01*
X7937520Y-3172419D02*
G01*
X7937520Y-3817579D01*
X7937520Y-3817579D02*
G01*
X7244100Y-3817579D01*
X7244100Y-3172419D02*
G01*
X7244100Y-3168652D01*
X7189447Y-3113999D01*
X7244100Y-3817579D02*
G01*
X7244100Y-3819464D01*
X7187565Y-3875999D01*
X7937520Y-3172419D02*
G01*
X7244100Y-3172419D01*
X7099320Y-5412699D02*
G01*
X7099320Y-5316179D01*
X7048520Y-5361899D02*
G01*
X7150120Y-5361899D01*
X7531120Y-5311099D02*
G01*
X7414280Y-5311099D01*
X7189447Y-4510999D02*
G01*
X6616720Y-4510999D01*
X7187565Y-5272999D02*
G01*
X6616720Y-5272999D01*
X6616720Y-5272999D02*
G01*
X6616720Y-4510999D01*
X7937520Y-4569419D02*
G01*
X7937520Y-5214579D01*
X7937520Y-5214579D02*
G01*
X7244100Y-5214579D01*
X7244100Y-4569419D02*
G01*
X7244100Y-4565652D01*
X7189447Y-4510999D01*
X7244100Y-5214579D02*
G01*
X7244100Y-5216464D01*
X7187565Y-5272999D01*
X7937520Y-4569419D02*
G01*
X7244100Y-4569419D01*
X7099320Y-6809699D02*
G01*
X7099320Y-6713179D01*
X7048520Y-6758899D02*
G01*
X7150120Y-6758899D01*
X7531120Y-6708099D02*
G01*
X7414280Y-6708099D01*
X7189447Y-5907999D02*
G01*
X6616720Y-5907999D01*
X7187565Y-6669999D02*
G01*
X6616720Y-6669999D01*
X6616720Y-6669999D02*
G01*
X6616720Y-5907999D01*
X7937520Y-5966419D02*
G01*
X7937520Y-6611579D01*
X7937520Y-6611579D02*
G01*
X7244100Y-6611579D01*
X7244100Y-5966419D02*
G01*
X7244100Y-5962652D01*
X7189447Y-5907999D01*
X7244100Y-6611579D02*
G01*
X7244100Y-6613464D01*
X7187565Y-6669999D01*
X7937520Y-5966419D02*
G01*
X7244100Y-5966419D01*
X7099320Y-8206699D02*
G01*
X7099320Y-8110179D01*
X7048520Y-8155899D02*
G01*
X7150120Y-8155899D01*
X7531120Y-8105099D02*
G01*
X7414280Y-8105099D01*
X7189447Y-7304999D02*
G01*
X6616720Y-7304999D01*
X7187565Y-8066999D02*
G01*
X6616720Y-8066999D01*
X6616720Y-8066999D02*
G01*
X6616720Y-7304999D01*
X7937520Y-7363419D02*
G01*
X7937520Y-8008579D01*
X7937520Y-8008579D02*
G01*
X7244100Y-8008579D01*
X7244100Y-7363419D02*
G01*
X7244100Y-7359652D01*
X7189447Y-7304999D01*
X7244100Y-8008579D02*
G01*
X7244100Y-8010464D01*
X7187565Y-8066999D01*
X7937520Y-7363419D02*
G01*
X7244100Y-7363419D01*
X5631200Y-745449D02*
G01*
X5631200Y-1342349D01*
X5593100Y-1380449D02*
G01*
X3688100Y-1380449D01*
X3650000Y-1342349D02*
G01*
X3650000Y-745449D01*
X3688100Y-707349D02*
G01*
X5593100Y-707349D01*
X2126000Y-2358349D02*
G01*
X2126000Y-1761449D01*
X2164100Y-1723349D02*
G01*
X4069100Y-1723349D01*
X4107200Y-1761449D02*
G01*
X4107200Y-2358349D01*
X4069100Y-2396449D02*
G01*
X2164100Y-2396449D01*
X2126000Y-3755349D02*
G01*
X2126000Y-3158449D01*
X2164100Y-3120349D02*
G01*
X4069100Y-3120349D01*
X4107200Y-3158449D02*
G01*
X4107200Y-3755349D01*
X4069100Y-3793449D02*
G01*
X2164100Y-3793449D01*
X2126000Y-5152349D02*
G01*
X2126000Y-4555449D01*
X2164100Y-4517349D02*
G01*
X4069100Y-4517349D01*
X4107200Y-4555449D02*
G01*
X4107200Y-5152349D01*
X4069100Y-5190449D02*
G01*
X2164100Y-5190449D01*
X2126000Y-6549349D02*
G01*
X2126000Y-5952449D01*
X2164100Y-5914349D02*
G01*
X4069100Y-5914349D01*
X4107200Y-5952449D02*
G01*
X4107200Y-6549349D01*
X4069100Y-6587449D02*
G01*
X2164100Y-6587449D01*
X2126000Y-7946349D02*
G01*
X2126000Y-7349449D01*
X2164100Y-7311349D02*
G01*
X4069100Y-7311349D01*
X4107200Y-7349449D02*
G01*
X4107200Y-7946349D01*
X4069100Y-7984449D02*
G01*
X2164100Y-7984449D01*
X6393200Y-1761449D02*
G01*
X6393200Y-2358349D01*
X6355100Y-2396449D02*
G01*
X4450100Y-2396449D01*
X4412000Y-2358349D02*
G01*
X4412000Y-1761449D01*
X4450100Y-1723349D02*
G01*
X6355100Y-1723349D01*
X6393200Y-3158449D02*
G01*
X6393200Y-3755349D01*
X6355100Y-3793449D02*
G01*
X4450100Y-3793449D01*
X4412000Y-3755349D02*
G01*
X4412000Y-3158449D01*
X4450100Y-3120349D02*
G01*
X6355100Y-3120349D01*
X6393200Y-4555449D02*
G01*
X6393200Y-5152349D01*
X6355100Y-5190449D02*
G01*
X4450100Y-5190449D01*
X4412000Y-5152349D02*
G01*
X4412000Y-4555449D01*
X4450100Y-4517349D02*
G01*
X6355100Y-4517349D01*
X6393200Y-5952449D02*
G01*
X6393200Y-6549349D01*
X6355100Y-6587449D02*
G01*
X4450100Y-6587449D01*
X4412000Y-6549349D02*
G01*
X4412000Y-5952449D01*
X4450100Y-5914349D02*
G01*
X6355100Y-5914349D01*
X6393200Y-7349449D02*
G01*
X6393200Y-7946349D01*
X6355100Y-7984449D02*
G01*
X4450100Y-7984449D01*
X4412000Y-7946349D02*
G01*
X4412000Y-7349449D01*
X4450100Y-7311349D02*
G01*
X6355100Y-7311349D01*
X3620604Y-2814899D02*
G01*
X3620604Y-2574899D01*
X3270605Y-2574899D02*
G01*
X3120605Y-2574899D01*
X3270605Y-2814899D02*
G01*
X3120605Y-2814899D01*
X3470605Y-2574899D02*
G01*
X3620604Y-2574899D01*
X3470605Y-2814899D02*
G01*
X3620604Y-2814899D01*
X3120605Y-2814899D02*
G01*
X3120605Y-2574899D01*
X7049604Y-1163899D02*
G01*
X7049604Y-923899D01*
X6699605Y-923899D02*
G01*
X6549605Y-923899D01*
X6699605Y-1163899D02*
G01*
X6549605Y-1163899D01*
X6899605Y-923899D02*
G01*
X7049604Y-923899D01*
X6899605Y-1163899D02*
G01*
X7049604Y-1163899D01*
X6549605Y-1163899D02*
G01*
X6549605Y-923899D01*
X3620604Y-4211899D02*
G01*
X3620604Y-3971899D01*
X3270605Y-3971899D02*
G01*
X3120605Y-3971899D01*
X3270605Y-4211899D02*
G01*
X3120605Y-4211899D01*
X3470605Y-3971899D02*
G01*
X3620604Y-3971899D01*
X3470605Y-4211899D02*
G01*
X3620604Y-4211899D01*
X3120605Y-4211899D02*
G01*
X3120605Y-3971899D01*
X3620604Y-5608899D02*
G01*
X3620604Y-5368899D01*
X3270605Y-5368899D02*
G01*
X3120605Y-5368899D01*
X3270605Y-5608899D02*
G01*
X3120605Y-5608899D01*
X3470605Y-5368899D02*
G01*
X3620604Y-5368899D01*
X3470605Y-5608899D02*
G01*
X3620604Y-5608899D01*
X3120605Y-5608899D02*
G01*
X3120605Y-5368899D01*
X3620604Y-7005899D02*
G01*
X3620604Y-6765899D01*
X3270605Y-6765899D02*
G01*
X3120605Y-6765899D01*
X3270605Y-7005899D02*
G01*
X3120605Y-7005899D01*
X3470605Y-6765899D02*
G01*
X3620604Y-6765899D01*
X3470605Y-7005899D02*
G01*
X3620604Y-7005899D01*
X3120605Y-7005899D02*
G01*
X3120605Y-6765899D01*
X3620604Y-8402899D02*
G01*
X3620604Y-8162899D01*
X3270605Y-8162899D02*
G01*
X3120605Y-8162899D01*
X3270605Y-8402899D02*
G01*
X3120605Y-8402899D01*
X3470605Y-8162899D02*
G01*
X3620604Y-8162899D01*
X3470605Y-8402899D02*
G01*
X3620604Y-8402899D01*
X3120605Y-8402899D02*
G01*
X3120605Y-8162899D01*
X4956995Y-2674000D02*
G01*
X4956995Y-2913999D01*
X5306994Y-2913999D02*
G01*
X5456994Y-2913999D01*
X5306994Y-2674000D02*
G01*
X5456994Y-2674000D01*
X5106995Y-2913999D02*
G01*
X4956995Y-2913999D01*
X5106995Y-2674000D02*
G01*
X4956995Y-2674000D01*
X5456994Y-2674000D02*
G01*
X5456994Y-2913999D01*
X4956995Y-4071000D02*
G01*
X4956995Y-4310999D01*
X5306994Y-4310999D02*
G01*
X5456994Y-4310999D01*
X5306994Y-4071000D02*
G01*
X5456994Y-4071000D01*
X5106995Y-4310999D02*
G01*
X4956995Y-4310999D01*
X5106995Y-4071000D02*
G01*
X4956995Y-4071000D01*
X5456994Y-4071000D02*
G01*
X5456994Y-4310999D01*
X4956995Y-5468000D02*
G01*
X4956995Y-5707999D01*
X5306994Y-5707999D02*
G01*
X5456994Y-5707999D01*
X5306994Y-5468000D02*
G01*
X5456994Y-5468000D01*
X5106995Y-5707999D02*
G01*
X4956995Y-5707999D01*
X5106995Y-5468000D02*
G01*
X4956995Y-5468000D01*
X5456994Y-5468000D02*
G01*
X5456994Y-5707999D01*
X4956995Y-6865000D02*
G01*
X4956995Y-7104999D01*
X5306994Y-7104999D02*
G01*
X5456994Y-7104999D01*
X5306994Y-6865000D02*
G01*
X5456994Y-6865000D01*
X5106995Y-7104999D02*
G01*
X4956995Y-7104999D01*
X5106995Y-6865000D02*
G01*
X4956995Y-6865000D01*
X5456994Y-6865000D02*
G01*
X5456994Y-7104999D01*
X4956995Y-8262000D02*
G01*
X4956995Y-8501999D01*
X5306994Y-8501999D02*
G01*
X5456994Y-8501999D01*
X5306994Y-8262000D02*
G01*
X5456994Y-8262000D01*
X5106995Y-8501999D02*
G01*
X4956995Y-8501999D01*
X5106995Y-8262000D02*
G01*
X4956995Y-8262000D01*
X5456994Y-8262000D02*
G01*
X5456994Y-8501999D01*
G75*
G01*
X5394978Y-1214079D02*
G02*
X5232418Y-1214079I-81280J0D01*
G75*
G01*
X5232418Y-1214079D02*
G02*
X5394978Y-1214079I81280J0D01*
G75*
G01*
X4048778Y-873719D02*
G02*
X3886218Y-873719I-81280J0D01*
G75*
G01*
X3886218Y-873719D02*
G02*
X4048778Y-873719I81280J0D01*
G75*
G01*
X5394978Y-873719D02*
G02*
X5232418Y-873719I-81280J0D01*
G75*
G01*
X5232418Y-873719D02*
G02*
X5394978Y-873719I81280J0D01*
G75*
G01*
X4048778Y-1214079D02*
G02*
X3886218Y-1214079I-81280J0D01*
G75*
G01*
X3886218Y-1214079D02*
G02*
X4048778Y-1214079I81280J0D01*
G75*
G01*
X3688098Y-1380449D02*
G02*
X3649998Y-1342349I0J38100D01*
G75*
G01*
X5631198Y-1342349D02*
G02*
X5593098Y-1380449I-38100J0D01*
G75*
G01*
X5593098Y-707349D02*
G02*
X5631198Y-745449I0J-38100D01*
G75*
G01*
X3649998Y-745449D02*
G02*
X3688098Y-707349I38100J0D01*
G75*
G01*
X2362223Y-1889719D02*
G02*
X2524783Y-1889719I81280J0D01*
G75*
G01*
X2524783Y-1889719D02*
G02*
X2362223Y-1889719I-81280J0D01*
G75*
G01*
X3708423Y-2230079D02*
G02*
X3870983Y-2230079I81280J0D01*
G75*
G01*
X3870983Y-2230079D02*
G02*
X3708423Y-2230079I-81280J0D01*
G75*
G01*
X2362223Y-2230079D02*
G02*
X2524783Y-2230079I81280J0D01*
G75*
G01*
X2524783Y-2230079D02*
G02*
X2362223Y-2230079I-81280J0D01*
G75*
G01*
X3708423Y-1889719D02*
G02*
X3870983Y-1889719I81280J0D01*
G75*
G01*
X3870983Y-1889719D02*
G02*
X3708423Y-1889719I-81280J0D01*
G75*
G01*
X4069103Y-1723349D02*
G02*
X4107203Y-1761449I0J-38100D01*
G75*
G01*
X2126003Y-1761449D02*
G02*
X2164103Y-1723349I38100J0D01*
G75*
G01*
X2164103Y-2396449D02*
G02*
X2126003Y-2358349I0J38100D01*
G75*
G01*
X4107203Y-2358349D02*
G02*
X4069103Y-2396449I-38100J0D01*
G75*
G01*
X2362223Y-3286719D02*
G02*
X2524783Y-3286719I81280J0D01*
G75*
G01*
X2524783Y-3286719D02*
G02*
X2362223Y-3286719I-81280J0D01*
G75*
G01*
X3708423Y-3627079D02*
G02*
X3870983Y-3627079I81280J0D01*
G75*
G01*
X3870983Y-3627079D02*
G02*
X3708423Y-3627079I-81280J0D01*
G75*
G01*
X2362223Y-3627079D02*
G02*
X2524783Y-3627079I81280J0D01*
G75*
G01*
X2524783Y-3627079D02*
G02*
X2362223Y-3627079I-81280J0D01*
G75*
G01*
X3708423Y-3286719D02*
G02*
X3870983Y-3286719I81280J0D01*
G75*
G01*
X3870983Y-3286719D02*
G02*
X3708423Y-3286719I-81280J0D01*
G75*
G01*
X4069103Y-3120349D02*
G02*
X4107203Y-3158449I0J-38100D01*
G75*
G01*
X2126003Y-3158449D02*
G02*
X2164103Y-3120349I38100J0D01*
G75*
G01*
X2164103Y-3793449D02*
G02*
X2126003Y-3755349I0J38100D01*
G75*
G01*
X4107203Y-3755349D02*
G02*
X4069103Y-3793449I-38100J0D01*
G75*
G01*
X2362223Y-4683719D02*
G02*
X2524783Y-4683719I81280J0D01*
G75*
G01*
X2524783Y-4683719D02*
G02*
X2362223Y-4683719I-81280J0D01*
G75*
G01*
X3708423Y-5024079D02*
G02*
X3870983Y-5024079I81280J0D01*
G75*
G01*
X3870983Y-5024079D02*
G02*
X3708423Y-5024079I-81280J0D01*
G75*
G01*
X2362223Y-5024079D02*
G02*
X2524783Y-5024079I81280J0D01*
G75*
G01*
X2524783Y-5024079D02*
G02*
X2362223Y-5024079I-81280J0D01*
G75*
G01*
X3708423Y-4683719D02*
G02*
X3870983Y-4683719I81280J0D01*
G75*
G01*
X3870983Y-4683719D02*
G02*
X3708423Y-4683719I-81280J0D01*
G75*
G01*
X4069103Y-4517349D02*
G02*
X4107203Y-4555449I0J-38100D01*
G75*
G01*
X2126003Y-4555449D02*
G02*
X2164103Y-4517349I38100J0D01*
G75*
G01*
X2164103Y-5190449D02*
G02*
X2126003Y-5152349I0J38100D01*
G75*
G01*
X4107203Y-5152349D02*
G02*
X4069103Y-5190449I-38100J0D01*
G75*
G01*
X2362223Y-6080719D02*
G02*
X2524783Y-6080719I81280J0D01*
G75*
G01*
X2524783Y-6080719D02*
G02*
X2362223Y-6080719I-81280J0D01*
G75*
G01*
X3708423Y-6421079D02*
G02*
X3870983Y-6421079I81280J0D01*
G75*
G01*
X3870983Y-6421079D02*
G02*
X3708423Y-6421079I-81280J0D01*
G75*
G01*
X2362223Y-6421079D02*
G02*
X2524783Y-6421079I81280J0D01*
G75*
G01*
X2524783Y-6421079D02*
G02*
X2362223Y-6421079I-81280J0D01*
G75*
G01*
X3708423Y-6080719D02*
G02*
X3870983Y-6080719I81280J0D01*
G75*
G01*
X3870983Y-6080719D02*
G02*
X3708423Y-6080719I-81280J0D01*
G75*
G01*
X4069103Y-5914349D02*
G02*
X4107203Y-5952449I0J-38100D01*
G75*
G01*
X2126003Y-5952449D02*
G02*
X2164103Y-5914349I38100J0D01*
G75*
G01*
X2164103Y-6587449D02*
G02*
X2126003Y-6549349I0J38100D01*
G75*
G01*
X4107203Y-6549349D02*
G02*
X4069103Y-6587449I-38100J0D01*
G75*
G01*
X2362223Y-7477719D02*
G02*
X2524783Y-7477719I81280J0D01*
G75*
G01*
X2524783Y-7477719D02*
G02*
X2362223Y-7477719I-81280J0D01*
G75*
G01*
X3708423Y-7818079D02*
G02*
X3870983Y-7818079I81280J0D01*
G75*
G01*
X3870983Y-7818079D02*
G02*
X3708423Y-7818079I-81280J0D01*
G75*
G01*
X2362223Y-7818079D02*
G02*
X2524783Y-7818079I81280J0D01*
G75*
G01*
X2524783Y-7818079D02*
G02*
X2362223Y-7818079I-81280J0D01*
G75*
G01*
X3708423Y-7477719D02*
G02*
X3870983Y-7477719I81280J0D01*
G75*
G01*
X3870983Y-7477719D02*
G02*
X3708423Y-7477719I-81280J0D01*
G75*
G01*
X4069103Y-7311349D02*
G02*
X4107203Y-7349449I0J-38100D01*
G75*
G01*
X2126003Y-7349449D02*
G02*
X2164103Y-7311349I38100J0D01*
G75*
G01*
X2164103Y-7984449D02*
G02*
X2126003Y-7946349I0J38100D01*
G75*
G01*
X4107203Y-7946349D02*
G02*
X4069103Y-7984449I-38100J0D01*
G75*
G01*
X6156978Y-2230079D02*
G02*
X5994418Y-2230079I-81280J0D01*
G75*
G01*
X5994418Y-2230079D02*
G02*
X6156978Y-2230079I81280J0D01*
G75*
G01*
X4810778Y-1889719D02*
G02*
X4648218Y-1889719I-81280J0D01*
G75*
G01*
X4648218Y-1889719D02*
G02*
X4810778Y-1889719I81280J0D01*
G75*
G01*
X6156978Y-1889719D02*
G02*
X5994418Y-1889719I-81280J0D01*
G75*
G01*
X5994418Y-1889719D02*
G02*
X6156978Y-1889719I81280J0D01*
G75*
G01*
X4810778Y-2230079D02*
G02*
X4648218Y-2230079I-81280J0D01*
G75*
G01*
X4648218Y-2230079D02*
G02*
X4810778Y-2230079I81280J0D01*
G75*
G01*
X4450098Y-2396449D02*
G02*
X4411998Y-2358349I0J38100D01*
G75*
G01*
X6393198Y-2358349D02*
G02*
X6355098Y-2396449I-38100J0D01*
G75*
G01*
X6355098Y-1723349D02*
G02*
X6393198Y-1761449I0J-38100D01*
G75*
G01*
X4411998Y-1761449D02*
G02*
X4450098Y-1723349I38100J0D01*
G75*
G01*
X6156978Y-3627079D02*
G02*
X5994418Y-3627079I-81280J0D01*
G75*
G01*
X5994418Y-3627079D02*
G02*
X6156978Y-3627079I81280J0D01*
G75*
G01*
X4810778Y-3286719D02*
G02*
X4648218Y-3286719I-81280J0D01*
G75*
G01*
X4648218Y-3286719D02*
G02*
X4810778Y-3286719I81280J0D01*
G75*
G01*
X6156978Y-3286719D02*
G02*
X5994418Y-3286719I-81280J0D01*
G75*
G01*
X5994418Y-3286719D02*
G02*
X6156978Y-3286719I81280J0D01*
G75*
G01*
X4810778Y-3627079D02*
G02*
X4648218Y-3627079I-81280J0D01*
G75*
G01*
X4648218Y-3627079D02*
G02*
X4810778Y-3627079I81280J0D01*
G75*
G01*
X4450098Y-3793449D02*
G02*
X4411998Y-3755349I0J38100D01*
G75*
G01*
X6393198Y-3755349D02*
G02*
X6355098Y-3793449I-38100J0D01*
G75*
G01*
X6355098Y-3120349D02*
G02*
X6393198Y-3158449I0J-38100D01*
G75*
G01*
X4411998Y-3158449D02*
G02*
X4450098Y-3120349I38100J0D01*
G75*
G01*
X6156978Y-5024079D02*
G02*
X5994418Y-5024079I-81280J0D01*
G75*
G01*
X5994418Y-5024079D02*
G02*
X6156978Y-5024079I81280J0D01*
G75*
G01*
X4810778Y-4683719D02*
G02*
X4648218Y-4683719I-81280J0D01*
G75*
G01*
X4648218Y-4683719D02*
G02*
X4810778Y-4683719I81280J0D01*
G75*
G01*
X6156978Y-4683719D02*
G02*
X5994418Y-4683719I-81280J0D01*
G75*
G01*
X5994418Y-4683719D02*
G02*
X6156978Y-4683719I81280J0D01*
G75*
G01*
X4810778Y-5024079D02*
G02*
X4648218Y-5024079I-81280J0D01*
G75*
G01*
X4648218Y-5024079D02*
G02*
X4810778Y-5024079I81280J0D01*
G75*
G01*
X4450098Y-5190449D02*
G02*
X4411998Y-5152349I0J38100D01*
G75*
G01*
X6393198Y-5152349D02*
G02*
X6355098Y-5190449I-38100J0D01*
G75*
G01*
X6355098Y-4517349D02*
G02*
X6393198Y-4555449I0J-38100D01*
G75*
G01*
X4411998Y-4555449D02*
G02*
X4450098Y-4517349I38100J0D01*
G75*
G01*
X6156978Y-6421079D02*
G02*
X5994418Y-6421079I-81280J0D01*
G75*
G01*
X5994418Y-6421079D02*
G02*
X6156978Y-6421079I81280J0D01*
G75*
G01*
X4810778Y-6080719D02*
G02*
X4648218Y-6080719I-81280J0D01*
G75*
G01*
X4648218Y-6080719D02*
G02*
X4810778Y-6080719I81280J0D01*
G75*
G01*
X6156978Y-6080719D02*
G02*
X5994418Y-6080719I-81280J0D01*
G75*
G01*
X5994418Y-6080719D02*
G02*
X6156978Y-6080719I81280J0D01*
G75*
G01*
X4810778Y-6421079D02*
G02*
X4648218Y-6421079I-81280J0D01*
G75*
G01*
X4648218Y-6421079D02*
G02*
X4810778Y-6421079I81280J0D01*
G75*
G01*
X4450098Y-6587449D02*
G02*
X4411998Y-6549349I0J38100D01*
G75*
G01*
X6393198Y-6549349D02*
G02*
X6355098Y-6587449I-38100J0D01*
G75*
G01*
X6355098Y-5914349D02*
G02*
X6393198Y-5952449I0J-38100D01*
G75*
G01*
X4411998Y-5952449D02*
G02*
X4450098Y-5914349I38100J0D01*
G75*
G01*
X6156978Y-7818079D02*
G02*
X5994418Y-7818079I-81280J0D01*
G75*
G01*
X5994418Y-7818079D02*
G02*
X6156978Y-7818079I81280J0D01*
G75*
G01*
X4810778Y-7477719D02*
G02*
X4648218Y-7477719I-81280J0D01*
G75*
G01*
X4648218Y-7477719D02*
G02*
X4810778Y-7477719I81280J0D01*
G75*
G01*
X6156978Y-7477719D02*
G02*
X5994418Y-7477719I-81280J0D01*
G75*
G01*
X5994418Y-7477719D02*
G02*
X6156978Y-7477719I81280J0D01*
G75*
G01*
X4810778Y-7818079D02*
G02*
X4648218Y-7818079I-81280J0D01*
G75*
G01*
X4648218Y-7818079D02*
G02*
X4810778Y-7818079I81280J0D01*
G75*
G01*
X4450098Y-7984449D02*
G02*
X4411998Y-7946349I0J38100D01*
G75*
G01*
X6393198Y-7946349D02*
G02*
X6355098Y-7984449I-38100J0D01*
G75*
G01*
X6355098Y-7311349D02*
G02*
X6393198Y-7349449I0J-38100D01*
G75*
G01*
X4411998Y-7349449D02*
G02*
X4450098Y-7311349I38100J0D01*
M02*
