G04 Layer: BottomLayer*
G04 EasyEDA v6.5.5, 2022-06-01 22:09:19*
G04 f343101900314467833159393b3af33e,c96cdaf6a0e44fa3bb1e134f2b5c86cb,10*
G04 Gerber Generator version 0.2*
G04 Scale: 100 percent, Rotated: No, Reflected: No *
G04 Dimensions in millimeters *
G04 leading zeros omitted , absolute positions ,4 integer and 5 decimal *
%FSLAX45Y45*%
%MOMM*%

%ADD14C,5.4991*%
%ADD15C,2.5400*%
%ADD16C,4.0000*%
%ADD17C,3.3020*%
%ADD18C,6.0000*%

%LPD*%
G36*
X60706Y-9093504D02*
G01*
X56794Y-9092692D01*
X53492Y-9090507D01*
X51308Y-9087205D01*
X50546Y-9083344D01*
X50546Y-60706D01*
X51308Y-56794D01*
X53492Y-53492D01*
X56794Y-51308D01*
X60706Y-50546D01*
X8448344Y-50546D01*
X8452205Y-51308D01*
X8455507Y-53492D01*
X8457692Y-56794D01*
X8458504Y-60706D01*
X8458504Y-9083344D01*
X8457692Y-9087205D01*
X8455507Y-9090507D01*
X8452205Y-9092692D01*
X8448344Y-9093504D01*
G37*

%LPC*%
G36*
X8005267Y-8930436D02*
G01*
X8026196Y-8929014D01*
X8046872Y-8925661D01*
X8067243Y-8920480D01*
X8087004Y-8913469D01*
X8106054Y-8904630D01*
X8124190Y-8894165D01*
X8141360Y-8882075D01*
X8157311Y-8868460D01*
X8171992Y-8853474D01*
X8185251Y-8837168D01*
X8196935Y-8819743D01*
X8206994Y-8801354D01*
X8215375Y-8782100D01*
X8221929Y-8762187D01*
X8226704Y-8741765D01*
X8229549Y-8720937D01*
X8230514Y-8700008D01*
X8229549Y-8679027D01*
X8226704Y-8658250D01*
X8221929Y-8637828D01*
X8215375Y-8617864D01*
X8206994Y-8598662D01*
X8196935Y-8580221D01*
X8185251Y-8562848D01*
X8171992Y-8546541D01*
X8157311Y-8531555D01*
X8141360Y-8517940D01*
X8124190Y-8505850D01*
X8106054Y-8495334D01*
X8087004Y-8486546D01*
X8067243Y-8479536D01*
X8046872Y-8474303D01*
X8026196Y-8471001D01*
X8005267Y-8469579D01*
X7984286Y-8470036D01*
X7963408Y-8472424D01*
X7942884Y-8476691D01*
X7922818Y-8482838D01*
X7903362Y-8490712D01*
X7884769Y-8500364D01*
X7867091Y-8511692D01*
X7850479Y-8524544D01*
X7835188Y-8538870D01*
X7821218Y-8554516D01*
X7808722Y-8571382D01*
X7797800Y-8589314D01*
X7788605Y-8608161D01*
X7781137Y-8627770D01*
X7775448Y-8647988D01*
X7771638Y-8668613D01*
X7769758Y-8689492D01*
X7769758Y-8710472D01*
X7771638Y-8731402D01*
X7775448Y-8752027D01*
X7781137Y-8772245D01*
X7788605Y-8791854D01*
X7797800Y-8810650D01*
X7808722Y-8828582D01*
X7821218Y-8845448D01*
X7835188Y-8861094D01*
X7850479Y-8875420D01*
X7867091Y-8888323D01*
X7884769Y-8899601D01*
X7903362Y-8909253D01*
X7922818Y-8917178D01*
X7942884Y-8923324D01*
X7963408Y-8927592D01*
X7984286Y-8929979D01*
G37*
G36*
X505256Y-8930436D02*
G01*
X526186Y-8929014D01*
X546912Y-8925661D01*
X567232Y-8920480D01*
X586994Y-8913469D01*
X606044Y-8904630D01*
X624230Y-8894165D01*
X641350Y-8882075D01*
X657301Y-8868460D01*
X671982Y-8853474D01*
X685241Y-8837168D01*
X696925Y-8819743D01*
X707034Y-8801354D01*
X715365Y-8782100D01*
X721969Y-8762187D01*
X726694Y-8741765D01*
X729538Y-8720937D01*
X730504Y-8700008D01*
X729538Y-8679027D01*
X726694Y-8658250D01*
X721969Y-8637828D01*
X715365Y-8617864D01*
X707034Y-8598662D01*
X696925Y-8580221D01*
X685241Y-8562848D01*
X671982Y-8546541D01*
X657301Y-8531555D01*
X641350Y-8517940D01*
X624230Y-8505850D01*
X606044Y-8495334D01*
X586994Y-8486546D01*
X567232Y-8479536D01*
X546912Y-8474303D01*
X526186Y-8471001D01*
X505256Y-8469579D01*
X484276Y-8470036D01*
X463448Y-8472424D01*
X442874Y-8476691D01*
X422808Y-8482838D01*
X403402Y-8490712D01*
X384759Y-8500364D01*
X367080Y-8511692D01*
X350520Y-8524544D01*
X335178Y-8538870D01*
X321208Y-8554516D01*
X308711Y-8571382D01*
X297789Y-8589314D01*
X288594Y-8608161D01*
X281127Y-8627770D01*
X275437Y-8647988D01*
X271627Y-8668613D01*
X269748Y-8689492D01*
X269748Y-8710472D01*
X271627Y-8731402D01*
X275437Y-8752027D01*
X281127Y-8772245D01*
X288594Y-8791854D01*
X297789Y-8810650D01*
X308711Y-8828582D01*
X321208Y-8845448D01*
X335178Y-8861094D01*
X350520Y-8875420D01*
X367080Y-8888323D01*
X384759Y-8899601D01*
X403402Y-8909253D01*
X422808Y-8917178D01*
X442874Y-8923324D01*
X463448Y-8927592D01*
X484276Y-8929979D01*
G37*
G36*
X6824980Y-8021269D02*
G01*
X6844182Y-8020354D01*
X6863181Y-8017509D01*
X6881774Y-8012887D01*
X6891528Y-8009483D01*
X6900316Y-8007807D01*
X6924700Y-8001101D01*
X6948525Y-7992516D01*
X6971639Y-7982203D01*
X6993890Y-7970062D01*
X7015124Y-7956346D01*
X7035292Y-7940954D01*
X7054189Y-7924139D01*
X7071715Y-7905902D01*
X7087819Y-7886344D01*
X7102398Y-7865668D01*
X7115352Y-7843875D01*
X7126579Y-7821218D01*
X7136028Y-7797698D01*
X7143699Y-7773568D01*
X7149439Y-7748930D01*
X7153300Y-7723886D01*
X7155230Y-7698638D01*
X7155230Y-7673340D01*
X7153300Y-7648092D01*
X7149439Y-7623098D01*
X7143699Y-7598409D01*
X7136028Y-7574280D01*
X7126579Y-7550810D01*
X7115352Y-7528102D01*
X7102398Y-7506360D01*
X7087819Y-7485634D01*
X7071715Y-7466126D01*
X7054189Y-7447889D01*
X7035292Y-7431024D01*
X7015124Y-7415682D01*
X6993890Y-7401915D01*
X6971639Y-7389825D01*
X6948525Y-7379462D01*
X6924700Y-7370927D01*
X6900316Y-7364171D01*
X6890054Y-7362088D01*
X6881774Y-7359142D01*
X6863181Y-7354468D01*
X6844182Y-7351623D01*
X6824980Y-7350709D01*
X6805828Y-7351623D01*
X6786829Y-7354468D01*
X6781495Y-7355484D01*
X6178194Y-7355484D01*
X6174994Y-7354976D01*
X6172047Y-7353401D01*
X6164072Y-7347356D01*
X6149492Y-7338568D01*
X6133998Y-7331405D01*
X6117844Y-7325969D01*
X6101181Y-7322312D01*
X6084214Y-7320432D01*
X6067196Y-7320432D01*
X6050229Y-7322312D01*
X6033566Y-7325969D01*
X6017412Y-7331405D01*
X6001918Y-7338568D01*
X5987338Y-7347356D01*
X5979312Y-7353401D01*
X5976416Y-7354976D01*
X5973165Y-7355484D01*
X5969203Y-7355484D01*
X5943701Y-7356449D01*
X5918555Y-7359396D01*
X5893714Y-7364171D01*
X5869279Y-7370927D01*
X5845454Y-7379462D01*
X5822340Y-7389825D01*
X5800090Y-7401915D01*
X5778855Y-7415682D01*
X5758738Y-7431024D01*
X5739841Y-7447889D01*
X5722264Y-7466126D01*
X5706160Y-7485634D01*
X5691581Y-7506360D01*
X5678678Y-7528102D01*
X5667400Y-7550810D01*
X5657951Y-7574280D01*
X5650331Y-7598409D01*
X5644540Y-7623098D01*
X5640679Y-7648092D01*
X5638749Y-7673340D01*
X5638749Y-7698638D01*
X5640679Y-7723886D01*
X5644540Y-7748930D01*
X5650331Y-7773568D01*
X5657951Y-7797698D01*
X5667400Y-7821218D01*
X5678678Y-7843875D01*
X5691581Y-7865668D01*
X5706160Y-7886344D01*
X5722264Y-7905902D01*
X5739841Y-7924139D01*
X5758738Y-7940954D01*
X5778855Y-7956346D01*
X5800090Y-7970062D01*
X5822340Y-7982203D01*
X5845454Y-7992516D01*
X5869279Y-8001101D01*
X5893714Y-8007807D01*
X5918555Y-8012633D01*
X5943701Y-8015528D01*
X5969203Y-8016494D01*
X6781495Y-8016494D01*
X6786829Y-8017509D01*
X6805828Y-8020354D01*
G37*
G36*
X2434996Y-7975346D02*
G01*
X2452014Y-7975346D01*
X2468981Y-7973517D01*
X2485644Y-7969859D01*
X2501798Y-7964424D01*
X2517292Y-7957261D01*
X2531872Y-7948472D01*
X2540203Y-7942122D01*
X2542895Y-7940649D01*
X2545943Y-7940090D01*
X2565298Y-7939328D01*
X2590444Y-7936433D01*
X2615285Y-7931607D01*
X2639720Y-7924901D01*
X2663545Y-7916316D01*
X2686659Y-7906003D01*
X2708910Y-7893862D01*
X2730144Y-7880146D01*
X2750261Y-7864754D01*
X2769158Y-7847939D01*
X2786735Y-7829702D01*
X2802839Y-7810144D01*
X2817418Y-7789468D01*
X2830322Y-7767675D01*
X2841599Y-7745018D01*
X2851048Y-7721498D01*
X2858668Y-7697368D01*
X2864459Y-7672730D01*
X2868320Y-7647686D01*
X2870250Y-7622438D01*
X2870250Y-7597140D01*
X2868320Y-7571892D01*
X2864459Y-7546898D01*
X2858668Y-7522209D01*
X2851048Y-7498080D01*
X2841599Y-7474610D01*
X2830322Y-7451902D01*
X2817418Y-7430160D01*
X2802839Y-7409434D01*
X2786735Y-7389926D01*
X2769158Y-7371689D01*
X2750261Y-7354824D01*
X2730144Y-7339482D01*
X2708910Y-7325715D01*
X2686659Y-7313625D01*
X2663545Y-7303262D01*
X2639720Y-7294727D01*
X2615285Y-7287971D01*
X2590444Y-7283196D01*
X2565298Y-7280249D01*
X2539796Y-7279284D01*
X1737715Y-7279284D01*
X1732381Y-7278268D01*
X1713382Y-7275423D01*
X1694180Y-7274509D01*
X1675028Y-7275423D01*
X1656029Y-7278268D01*
X1637436Y-7282942D01*
X1627682Y-7286294D01*
X1618894Y-7287971D01*
X1594459Y-7294727D01*
X1570634Y-7303262D01*
X1547571Y-7313625D01*
X1525320Y-7325715D01*
X1504035Y-7339482D01*
X1483918Y-7354824D01*
X1465021Y-7371689D01*
X1447444Y-7389926D01*
X1431340Y-7409434D01*
X1416812Y-7430160D01*
X1403858Y-7451902D01*
X1392631Y-7474610D01*
X1383131Y-7498080D01*
X1375511Y-7522209D01*
X1369771Y-7546898D01*
X1365859Y-7571892D01*
X1363929Y-7597140D01*
X1363929Y-7622438D01*
X1365859Y-7647686D01*
X1369771Y-7672730D01*
X1375511Y-7697368D01*
X1383131Y-7721498D01*
X1392631Y-7745018D01*
X1403858Y-7767675D01*
X1416812Y-7789468D01*
X1431340Y-7810144D01*
X1447444Y-7829702D01*
X1465021Y-7847939D01*
X1483918Y-7864754D01*
X1504035Y-7880146D01*
X1525320Y-7893862D01*
X1547571Y-7906003D01*
X1570634Y-7916316D01*
X1594459Y-7924901D01*
X1618894Y-7931607D01*
X1629156Y-7933690D01*
X1637436Y-7936687D01*
X1656029Y-7941309D01*
X1675028Y-7944154D01*
X1694180Y-7945069D01*
X1713382Y-7944154D01*
X1732381Y-7941309D01*
X1737715Y-7940294D01*
X2340965Y-7940294D01*
X2344216Y-7940852D01*
X2347112Y-7942376D01*
X2355138Y-7948472D01*
X2369718Y-7957261D01*
X2385212Y-7964424D01*
X2401366Y-7969859D01*
X2418029Y-7973517D01*
G37*
G36*
X830834Y-7881620D02*
G01*
X1109726Y-7881620D01*
X1129182Y-7880654D01*
X1148181Y-7877809D01*
X1166774Y-7873187D01*
X1184859Y-7866684D01*
X1202182Y-7858506D01*
X1218641Y-7848650D01*
X1234084Y-7837170D01*
X1248308Y-7824317D01*
X1261211Y-7810093D01*
X1272641Y-7794650D01*
X1282496Y-7778191D01*
X1290726Y-7760868D01*
X1297178Y-7742783D01*
X1301851Y-7724140D01*
X1304645Y-7705191D01*
X1305610Y-7685989D01*
X1304645Y-7666837D01*
X1301851Y-7647838D01*
X1297178Y-7629245D01*
X1290726Y-7611160D01*
X1282496Y-7593787D01*
X1272641Y-7577328D01*
X1261211Y-7561935D01*
X1248308Y-7547711D01*
X1234084Y-7534808D01*
X1218641Y-7523378D01*
X1202182Y-7513523D01*
X1184859Y-7505293D01*
X1166774Y-7498842D01*
X1148181Y-7494168D01*
X1129182Y-7491323D01*
X1109726Y-7490409D01*
X830834Y-7490409D01*
X811428Y-7491323D01*
X792429Y-7494168D01*
X773836Y-7498842D01*
X755751Y-7505293D01*
X738378Y-7513523D01*
X721918Y-7523378D01*
X706526Y-7534808D01*
X692302Y-7547711D01*
X679399Y-7561935D01*
X667969Y-7577328D01*
X658114Y-7593787D01*
X649884Y-7611160D01*
X643432Y-7629245D01*
X638759Y-7647838D01*
X635965Y-7666837D01*
X635000Y-7685989D01*
X635965Y-7705191D01*
X638759Y-7724140D01*
X643432Y-7742783D01*
X649884Y-7760868D01*
X658114Y-7778191D01*
X667969Y-7794650D01*
X679399Y-7810093D01*
X692302Y-7824317D01*
X706526Y-7837170D01*
X721918Y-7848650D01*
X738378Y-7858506D01*
X755751Y-7866684D01*
X773836Y-7873187D01*
X792429Y-7877809D01*
X811428Y-7880654D01*
G37*
G36*
X7409434Y-7805420D02*
G01*
X7688325Y-7805420D01*
X7707782Y-7804454D01*
X7726781Y-7801609D01*
X7745374Y-7796987D01*
X7763459Y-7790484D01*
X7780781Y-7782306D01*
X7797241Y-7772450D01*
X7812684Y-7760970D01*
X7826908Y-7748117D01*
X7839811Y-7733893D01*
X7851241Y-7718450D01*
X7861096Y-7701991D01*
X7869326Y-7684668D01*
X7875778Y-7666583D01*
X7880451Y-7647940D01*
X7883245Y-7628991D01*
X7884210Y-7609789D01*
X7883245Y-7590637D01*
X7880451Y-7571638D01*
X7875778Y-7553045D01*
X7869326Y-7534960D01*
X7861096Y-7517587D01*
X7851241Y-7501128D01*
X7839811Y-7485735D01*
X7826908Y-7471511D01*
X7812684Y-7458608D01*
X7797241Y-7447178D01*
X7780781Y-7437323D01*
X7763459Y-7429093D01*
X7745374Y-7422642D01*
X7726781Y-7417968D01*
X7707782Y-7415123D01*
X7688325Y-7414209D01*
X7409434Y-7414209D01*
X7390028Y-7415123D01*
X7371029Y-7417968D01*
X7352436Y-7422642D01*
X7334351Y-7429093D01*
X7316978Y-7437323D01*
X7300518Y-7447178D01*
X7285126Y-7458608D01*
X7270902Y-7471511D01*
X7257999Y-7485735D01*
X7246569Y-7501128D01*
X7236714Y-7517587D01*
X7228484Y-7534960D01*
X7222032Y-7553045D01*
X7217359Y-7571638D01*
X7214565Y-7590637D01*
X7213600Y-7609789D01*
X7214565Y-7628991D01*
X7217359Y-7647940D01*
X7222032Y-7666583D01*
X7228484Y-7684668D01*
X7236714Y-7701991D01*
X7246569Y-7718450D01*
X7257999Y-7733893D01*
X7270902Y-7748117D01*
X7285126Y-7760970D01*
X7300518Y-7772450D01*
X7316978Y-7782306D01*
X7334351Y-7790484D01*
X7352436Y-7796987D01*
X7371029Y-7801609D01*
X7390028Y-7804454D01*
G37*
G36*
X7705242Y-7230414D02*
G01*
X7726172Y-7228992D01*
X7746898Y-7225690D01*
X7767218Y-7220458D01*
X7786979Y-7213447D01*
X7806029Y-7204659D01*
X7824216Y-7194143D01*
X7841335Y-7182053D01*
X7857337Y-7168438D01*
X7871968Y-7153452D01*
X7885226Y-7137196D01*
X7896961Y-7119772D01*
X7907020Y-7101382D01*
X7915351Y-7082129D01*
X7921955Y-7062165D01*
X7926679Y-7041743D01*
X7929524Y-7020966D01*
X7930489Y-6999986D01*
X7929524Y-6979056D01*
X7926679Y-6958279D01*
X7921955Y-6937806D01*
X7915351Y-6917893D01*
X7907020Y-6898640D01*
X7896961Y-6880250D01*
X7885226Y-6862825D01*
X7871968Y-6846570D01*
X7857337Y-6831533D01*
X7841335Y-6817918D01*
X7824216Y-6805828D01*
X7806029Y-6795363D01*
X7786979Y-6786575D01*
X7767218Y-6779514D01*
X7746898Y-6774332D01*
X7726172Y-6770979D01*
X7705242Y-6769557D01*
X7684262Y-6770065D01*
X7663434Y-6772402D01*
X7642859Y-6776720D01*
X7622794Y-6782816D01*
X7603388Y-6790740D01*
X7584744Y-6800392D01*
X7567066Y-6811670D01*
X7550505Y-6824573D01*
X7535164Y-6838899D01*
X7521194Y-6854545D01*
X7508697Y-6871411D01*
X7497825Y-6889343D01*
X7488580Y-6908190D01*
X7481112Y-6927799D01*
X7475474Y-6947966D01*
X7471664Y-6968591D01*
X7469733Y-6989521D01*
X7469733Y-7010501D01*
X7471664Y-7031380D01*
X7475474Y-7052005D01*
X7481112Y-7072223D01*
X7488580Y-7091832D01*
X7497825Y-7110679D01*
X7508697Y-7128611D01*
X7521194Y-7145477D01*
X7535164Y-7161123D01*
X7550505Y-7175449D01*
X7567066Y-7188301D01*
X7584744Y-7199630D01*
X7603388Y-7209281D01*
X7622794Y-7217206D01*
X7642859Y-7223302D01*
X7663434Y-7227570D01*
X7684262Y-7229957D01*
G37*
G36*
X6824980Y-6624269D02*
G01*
X6844182Y-6623354D01*
X6863181Y-6620509D01*
X6881774Y-6615887D01*
X6891528Y-6612483D01*
X6900316Y-6610807D01*
X6924700Y-6604101D01*
X6948525Y-6595516D01*
X6971639Y-6585203D01*
X6993890Y-6573062D01*
X7015124Y-6559346D01*
X7035292Y-6543954D01*
X7054189Y-6527139D01*
X7071715Y-6508902D01*
X7087819Y-6489344D01*
X7102398Y-6468668D01*
X7115352Y-6446875D01*
X7126579Y-6424218D01*
X7136028Y-6400698D01*
X7143699Y-6376568D01*
X7149439Y-6351930D01*
X7153300Y-6326886D01*
X7155230Y-6301638D01*
X7155230Y-6276340D01*
X7153300Y-6251092D01*
X7149439Y-6226098D01*
X7143699Y-6201410D01*
X7136028Y-6177280D01*
X7126579Y-6153810D01*
X7115352Y-6131102D01*
X7102398Y-6109360D01*
X7087819Y-6088634D01*
X7071715Y-6069126D01*
X7054189Y-6050889D01*
X7035292Y-6034024D01*
X7015124Y-6018682D01*
X6993890Y-6004915D01*
X6971639Y-5992825D01*
X6948525Y-5982462D01*
X6924700Y-5973927D01*
X6900316Y-5967171D01*
X6890054Y-5965088D01*
X6881774Y-5962142D01*
X6863181Y-5957468D01*
X6844182Y-5954623D01*
X6824980Y-5953709D01*
X6805828Y-5954623D01*
X6786829Y-5957468D01*
X6781495Y-5958484D01*
X6178194Y-5958484D01*
X6174994Y-5957976D01*
X6172047Y-5956401D01*
X6164072Y-5950356D01*
X6149492Y-5941568D01*
X6133998Y-5934405D01*
X6117844Y-5928969D01*
X6101181Y-5925312D01*
X6084214Y-5923432D01*
X6067196Y-5923432D01*
X6050229Y-5925312D01*
X6033566Y-5928969D01*
X6017412Y-5934405D01*
X6001918Y-5941568D01*
X5987338Y-5950356D01*
X5979312Y-5956401D01*
X5976416Y-5957976D01*
X5973165Y-5958484D01*
X5969203Y-5958484D01*
X5943701Y-5959449D01*
X5918555Y-5962396D01*
X5893714Y-5967171D01*
X5869279Y-5973927D01*
X5845454Y-5982462D01*
X5822340Y-5992825D01*
X5800090Y-6004915D01*
X5778855Y-6018682D01*
X5758738Y-6034024D01*
X5739841Y-6050889D01*
X5722264Y-6069126D01*
X5706160Y-6088634D01*
X5691581Y-6109360D01*
X5678678Y-6131102D01*
X5667400Y-6153810D01*
X5657951Y-6177280D01*
X5650331Y-6201410D01*
X5644540Y-6226098D01*
X5640679Y-6251092D01*
X5638749Y-6276340D01*
X5638749Y-6301638D01*
X5640679Y-6326886D01*
X5644540Y-6351930D01*
X5650331Y-6376568D01*
X5657951Y-6400698D01*
X5667400Y-6424218D01*
X5678678Y-6446875D01*
X5691581Y-6468668D01*
X5706160Y-6489344D01*
X5722264Y-6508902D01*
X5739841Y-6527139D01*
X5758738Y-6543954D01*
X5778855Y-6559346D01*
X5800090Y-6573062D01*
X5822340Y-6585203D01*
X5845454Y-6595516D01*
X5869279Y-6604101D01*
X5893714Y-6610807D01*
X5918555Y-6615633D01*
X5943701Y-6618528D01*
X5969203Y-6619494D01*
X6781495Y-6619494D01*
X6786829Y-6620509D01*
X6805828Y-6623354D01*
G37*
G36*
X2434996Y-6578346D02*
G01*
X2452014Y-6578346D01*
X2468981Y-6576517D01*
X2485644Y-6572859D01*
X2501798Y-6567424D01*
X2517292Y-6560261D01*
X2531872Y-6551472D01*
X2540203Y-6545122D01*
X2542895Y-6543649D01*
X2545943Y-6543090D01*
X2565298Y-6542328D01*
X2590444Y-6539433D01*
X2615285Y-6534607D01*
X2639720Y-6527901D01*
X2663545Y-6519316D01*
X2686659Y-6509004D01*
X2708910Y-6496862D01*
X2730144Y-6483146D01*
X2750261Y-6467754D01*
X2769158Y-6450939D01*
X2786735Y-6432702D01*
X2802839Y-6413144D01*
X2817418Y-6392468D01*
X2830322Y-6370675D01*
X2841599Y-6348018D01*
X2851048Y-6324498D01*
X2858668Y-6300368D01*
X2864459Y-6275730D01*
X2868320Y-6250686D01*
X2870250Y-6225438D01*
X2870250Y-6200140D01*
X2868320Y-6174892D01*
X2864459Y-6149898D01*
X2858668Y-6125210D01*
X2851048Y-6101080D01*
X2841599Y-6077610D01*
X2830322Y-6054902D01*
X2817418Y-6033160D01*
X2802839Y-6012434D01*
X2786735Y-5992926D01*
X2769158Y-5974689D01*
X2750261Y-5957824D01*
X2730144Y-5942482D01*
X2708910Y-5928715D01*
X2686659Y-5916625D01*
X2663545Y-5906262D01*
X2639720Y-5897727D01*
X2615285Y-5890971D01*
X2590444Y-5886196D01*
X2565298Y-5883249D01*
X2539796Y-5882284D01*
X1737715Y-5882284D01*
X1732381Y-5881268D01*
X1713382Y-5878423D01*
X1694180Y-5877509D01*
X1675028Y-5878423D01*
X1656029Y-5881268D01*
X1637436Y-5885942D01*
X1627682Y-5889294D01*
X1618894Y-5890971D01*
X1594459Y-5897727D01*
X1570634Y-5906262D01*
X1547571Y-5916625D01*
X1525320Y-5928715D01*
X1504035Y-5942482D01*
X1483918Y-5957824D01*
X1465021Y-5974689D01*
X1447444Y-5992926D01*
X1431340Y-6012434D01*
X1416812Y-6033160D01*
X1403858Y-6054902D01*
X1392631Y-6077610D01*
X1383131Y-6101080D01*
X1375511Y-6125210D01*
X1369771Y-6149898D01*
X1365859Y-6174892D01*
X1363929Y-6200140D01*
X1363929Y-6225438D01*
X1365859Y-6250686D01*
X1369771Y-6275730D01*
X1375511Y-6300368D01*
X1383131Y-6324498D01*
X1392631Y-6348018D01*
X1403858Y-6370675D01*
X1416812Y-6392468D01*
X1431340Y-6413144D01*
X1447444Y-6432702D01*
X1465021Y-6450939D01*
X1483918Y-6467754D01*
X1504035Y-6483146D01*
X1525320Y-6496862D01*
X1547571Y-6509004D01*
X1570634Y-6519316D01*
X1594459Y-6527901D01*
X1618894Y-6534607D01*
X1629156Y-6536690D01*
X1637436Y-6539687D01*
X1656029Y-6544309D01*
X1675028Y-6547154D01*
X1694180Y-6548069D01*
X1713382Y-6547154D01*
X1732381Y-6544309D01*
X1737715Y-6543294D01*
X2340965Y-6543294D01*
X2344216Y-6543852D01*
X2347112Y-6545376D01*
X2355138Y-6551472D01*
X2369718Y-6560261D01*
X2385212Y-6567424D01*
X2401366Y-6572859D01*
X2418029Y-6576517D01*
G37*
G36*
X830834Y-6484620D02*
G01*
X1109726Y-6484620D01*
X1129182Y-6483654D01*
X1148181Y-6480810D01*
X1166774Y-6476187D01*
X1184859Y-6469684D01*
X1202182Y-6461506D01*
X1218641Y-6451650D01*
X1234084Y-6440170D01*
X1248308Y-6427317D01*
X1261211Y-6413093D01*
X1272641Y-6397650D01*
X1282496Y-6381191D01*
X1290726Y-6363868D01*
X1297178Y-6345783D01*
X1301851Y-6327140D01*
X1304645Y-6308191D01*
X1305610Y-6288989D01*
X1304645Y-6269837D01*
X1301851Y-6250838D01*
X1297178Y-6232245D01*
X1290726Y-6214160D01*
X1282496Y-6196787D01*
X1272641Y-6180328D01*
X1261211Y-6164935D01*
X1248308Y-6150711D01*
X1234084Y-6137808D01*
X1218641Y-6126378D01*
X1202182Y-6116523D01*
X1184859Y-6108293D01*
X1166774Y-6101842D01*
X1148181Y-6097168D01*
X1129182Y-6094323D01*
X1109726Y-6093409D01*
X830834Y-6093409D01*
X811428Y-6094323D01*
X792429Y-6097168D01*
X773836Y-6101842D01*
X755751Y-6108293D01*
X738378Y-6116523D01*
X721918Y-6126378D01*
X706526Y-6137808D01*
X692302Y-6150711D01*
X679399Y-6164935D01*
X667969Y-6180328D01*
X658114Y-6196787D01*
X649884Y-6214160D01*
X643432Y-6232245D01*
X638759Y-6250838D01*
X635965Y-6269837D01*
X635000Y-6288989D01*
X635965Y-6308191D01*
X638759Y-6327140D01*
X643432Y-6345783D01*
X649884Y-6363868D01*
X658114Y-6381191D01*
X667969Y-6397650D01*
X679399Y-6413093D01*
X692302Y-6427317D01*
X706526Y-6440170D01*
X721918Y-6451650D01*
X738378Y-6461506D01*
X755751Y-6469684D01*
X773836Y-6476187D01*
X792429Y-6480810D01*
X811428Y-6483654D01*
G37*
G36*
X7409434Y-6408420D02*
G01*
X7688325Y-6408420D01*
X7707782Y-6407454D01*
X7726781Y-6404610D01*
X7745374Y-6399987D01*
X7763459Y-6393484D01*
X7780781Y-6385306D01*
X7797241Y-6375450D01*
X7812684Y-6363970D01*
X7826908Y-6351117D01*
X7839811Y-6336893D01*
X7851241Y-6321450D01*
X7861096Y-6304991D01*
X7869326Y-6287668D01*
X7875778Y-6269583D01*
X7880451Y-6250940D01*
X7883245Y-6231991D01*
X7884210Y-6212789D01*
X7883245Y-6193637D01*
X7880451Y-6174638D01*
X7875778Y-6156045D01*
X7869326Y-6137960D01*
X7861096Y-6120587D01*
X7851241Y-6104128D01*
X7839811Y-6088735D01*
X7826908Y-6074511D01*
X7812684Y-6061608D01*
X7797241Y-6050178D01*
X7780781Y-6040323D01*
X7763459Y-6032093D01*
X7745374Y-6025642D01*
X7726781Y-6020968D01*
X7707782Y-6018123D01*
X7688325Y-6017209D01*
X7409434Y-6017209D01*
X7390028Y-6018123D01*
X7371029Y-6020968D01*
X7352436Y-6025642D01*
X7334351Y-6032093D01*
X7316978Y-6040323D01*
X7300518Y-6050178D01*
X7285126Y-6061608D01*
X7270902Y-6074511D01*
X7257999Y-6088735D01*
X7246569Y-6104128D01*
X7236714Y-6120587D01*
X7228484Y-6137960D01*
X7222032Y-6156045D01*
X7217359Y-6174638D01*
X7214565Y-6193637D01*
X7213600Y-6212789D01*
X7214565Y-6231991D01*
X7217359Y-6250940D01*
X7222032Y-6269583D01*
X7228484Y-6287668D01*
X7236714Y-6304991D01*
X7246569Y-6321450D01*
X7257999Y-6336893D01*
X7270902Y-6351117D01*
X7285126Y-6363970D01*
X7300518Y-6375450D01*
X7316978Y-6385306D01*
X7334351Y-6393484D01*
X7352436Y-6399987D01*
X7371029Y-6404610D01*
X7390028Y-6407454D01*
G37*
G36*
X805230Y-5730443D02*
G01*
X826160Y-5729020D01*
X846886Y-5725668D01*
X867206Y-5720486D01*
X887018Y-5713425D01*
X906068Y-5704636D01*
X924204Y-5694172D01*
X941374Y-5682081D01*
X957326Y-5668467D01*
X972007Y-5653430D01*
X985215Y-5637174D01*
X996950Y-5619750D01*
X1007008Y-5601360D01*
X1015390Y-5582107D01*
X1021943Y-5562193D01*
X1026668Y-5541721D01*
X1029563Y-5520944D01*
X1030478Y-5500014D01*
X1029563Y-5479034D01*
X1026668Y-5458256D01*
X1021943Y-5437835D01*
X1015390Y-5417870D01*
X1007008Y-5398617D01*
X996950Y-5380228D01*
X985215Y-5362803D01*
X972007Y-5346547D01*
X957326Y-5331561D01*
X941374Y-5317947D01*
X924204Y-5305856D01*
X906068Y-5295341D01*
X887018Y-5286552D01*
X867206Y-5279542D01*
X846886Y-5274310D01*
X826160Y-5271008D01*
X805230Y-5269585D01*
X784250Y-5270042D01*
X763422Y-5272430D01*
X742899Y-5276697D01*
X722833Y-5282793D01*
X703376Y-5290718D01*
X684733Y-5300370D01*
X667054Y-5311698D01*
X650494Y-5324551D01*
X635152Y-5338876D01*
X621182Y-5354523D01*
X608736Y-5371388D01*
X597814Y-5389321D01*
X588568Y-5408168D01*
X581101Y-5427776D01*
X575462Y-5447995D01*
X571652Y-5468620D01*
X569722Y-5489498D01*
X569722Y-5510479D01*
X571652Y-5531408D01*
X575462Y-5552033D01*
X581101Y-5572201D01*
X588568Y-5591810D01*
X597814Y-5610656D01*
X608736Y-5628589D01*
X621182Y-5645454D01*
X635152Y-5661101D01*
X650494Y-5675426D01*
X667054Y-5688330D01*
X684733Y-5699607D01*
X703376Y-5709259D01*
X722833Y-5717184D01*
X742899Y-5723280D01*
X763422Y-5727598D01*
X784250Y-5729935D01*
G37*
G36*
X6824980Y-5227269D02*
G01*
X6844182Y-5226354D01*
X6863181Y-5223510D01*
X6881774Y-5218887D01*
X6891528Y-5215483D01*
X6900316Y-5213807D01*
X6924700Y-5207101D01*
X6948525Y-5198516D01*
X6971639Y-5188204D01*
X6993890Y-5176062D01*
X7015124Y-5162346D01*
X7035292Y-5146954D01*
X7054189Y-5130139D01*
X7071715Y-5111902D01*
X7087819Y-5092344D01*
X7102398Y-5071668D01*
X7115352Y-5049875D01*
X7126579Y-5027218D01*
X7136028Y-5003698D01*
X7143699Y-4979568D01*
X7149439Y-4954930D01*
X7153300Y-4929886D01*
X7155230Y-4904638D01*
X7155230Y-4879340D01*
X7153300Y-4854092D01*
X7149439Y-4829098D01*
X7143699Y-4804410D01*
X7136028Y-4780280D01*
X7126579Y-4756810D01*
X7115352Y-4734102D01*
X7102398Y-4712360D01*
X7087819Y-4691634D01*
X7071715Y-4672126D01*
X7054189Y-4653889D01*
X7035292Y-4637024D01*
X7015124Y-4621682D01*
X6993890Y-4607915D01*
X6971639Y-4595825D01*
X6948525Y-4585462D01*
X6924700Y-4576927D01*
X6900316Y-4570171D01*
X6890054Y-4568088D01*
X6881774Y-4565142D01*
X6863181Y-4560468D01*
X6844182Y-4557623D01*
X6824980Y-4556709D01*
X6805828Y-4557623D01*
X6786829Y-4560468D01*
X6781495Y-4561484D01*
X6178194Y-4561484D01*
X6174994Y-4560976D01*
X6172047Y-4559401D01*
X6164072Y-4553356D01*
X6149492Y-4544568D01*
X6133998Y-4537405D01*
X6117844Y-4531969D01*
X6101181Y-4528312D01*
X6084214Y-4526432D01*
X6067196Y-4526432D01*
X6050229Y-4528312D01*
X6033566Y-4531969D01*
X6017412Y-4537405D01*
X6001918Y-4544568D01*
X5987338Y-4553356D01*
X5979312Y-4559401D01*
X5976416Y-4560976D01*
X5973165Y-4561484D01*
X5969203Y-4561484D01*
X5943701Y-4562449D01*
X5918555Y-4565396D01*
X5893714Y-4570171D01*
X5869279Y-4576927D01*
X5845454Y-4585462D01*
X5822340Y-4595825D01*
X5800090Y-4607915D01*
X5778855Y-4621682D01*
X5758738Y-4637024D01*
X5739841Y-4653889D01*
X5722264Y-4672126D01*
X5706160Y-4691634D01*
X5691581Y-4712360D01*
X5678678Y-4734102D01*
X5667400Y-4756810D01*
X5657951Y-4780280D01*
X5650331Y-4804410D01*
X5644540Y-4829098D01*
X5640679Y-4854092D01*
X5638749Y-4879340D01*
X5638749Y-4904638D01*
X5640679Y-4929886D01*
X5644540Y-4954930D01*
X5650331Y-4979568D01*
X5657951Y-5003698D01*
X5667400Y-5027218D01*
X5678678Y-5049875D01*
X5691581Y-5071668D01*
X5706160Y-5092344D01*
X5722264Y-5111902D01*
X5739841Y-5130139D01*
X5758738Y-5146954D01*
X5778855Y-5162346D01*
X5800090Y-5176062D01*
X5822340Y-5188204D01*
X5845454Y-5198516D01*
X5869279Y-5207101D01*
X5893714Y-5213807D01*
X5918555Y-5218633D01*
X5943701Y-5221528D01*
X5969203Y-5222494D01*
X6781495Y-5222494D01*
X6786829Y-5223510D01*
X6805828Y-5226354D01*
G37*
G36*
X2434996Y-5181346D02*
G01*
X2452014Y-5181346D01*
X2468981Y-5179517D01*
X2485644Y-5175859D01*
X2501798Y-5170424D01*
X2517292Y-5163261D01*
X2531872Y-5154472D01*
X2540203Y-5148122D01*
X2542895Y-5146649D01*
X2545943Y-5146090D01*
X2565298Y-5145328D01*
X2590444Y-5142433D01*
X2615285Y-5137607D01*
X2639720Y-5130901D01*
X2663545Y-5122316D01*
X2686659Y-5112004D01*
X2708910Y-5099862D01*
X2730144Y-5086146D01*
X2750261Y-5070754D01*
X2769158Y-5053939D01*
X2786735Y-5035702D01*
X2802839Y-5016144D01*
X2817418Y-4995468D01*
X2830322Y-4973675D01*
X2841599Y-4951018D01*
X2851048Y-4927498D01*
X2858668Y-4903368D01*
X2864459Y-4878730D01*
X2868320Y-4853686D01*
X2870250Y-4828438D01*
X2870250Y-4803140D01*
X2868320Y-4777892D01*
X2864459Y-4752898D01*
X2858668Y-4728210D01*
X2851048Y-4704080D01*
X2841599Y-4680610D01*
X2830322Y-4657902D01*
X2817418Y-4636160D01*
X2802839Y-4615434D01*
X2786735Y-4595926D01*
X2769158Y-4577689D01*
X2750261Y-4560824D01*
X2730144Y-4545482D01*
X2708910Y-4531715D01*
X2686659Y-4519625D01*
X2663545Y-4509262D01*
X2639720Y-4500727D01*
X2615285Y-4493971D01*
X2590444Y-4489196D01*
X2565298Y-4486249D01*
X2539796Y-4485284D01*
X1737715Y-4485284D01*
X1732381Y-4484268D01*
X1713382Y-4481423D01*
X1694180Y-4480509D01*
X1675028Y-4481423D01*
X1656029Y-4484268D01*
X1637436Y-4488942D01*
X1627682Y-4492294D01*
X1618894Y-4493971D01*
X1594459Y-4500727D01*
X1570634Y-4509262D01*
X1547571Y-4519625D01*
X1525320Y-4531715D01*
X1504035Y-4545482D01*
X1483918Y-4560824D01*
X1465021Y-4577689D01*
X1447444Y-4595926D01*
X1431340Y-4615434D01*
X1416812Y-4636160D01*
X1403858Y-4657902D01*
X1392631Y-4680610D01*
X1383131Y-4704080D01*
X1375511Y-4728210D01*
X1369771Y-4752898D01*
X1365859Y-4777892D01*
X1363929Y-4803140D01*
X1363929Y-4828438D01*
X1365859Y-4853686D01*
X1369771Y-4878730D01*
X1375511Y-4903368D01*
X1383131Y-4927498D01*
X1392631Y-4951018D01*
X1403858Y-4973675D01*
X1416812Y-4995468D01*
X1431340Y-5016144D01*
X1447444Y-5035702D01*
X1465021Y-5053939D01*
X1483918Y-5070754D01*
X1504035Y-5086146D01*
X1525320Y-5099862D01*
X1547571Y-5112004D01*
X1570634Y-5122316D01*
X1594459Y-5130901D01*
X1618894Y-5137607D01*
X1629156Y-5139690D01*
X1637436Y-5142687D01*
X1656029Y-5147310D01*
X1675028Y-5150154D01*
X1694180Y-5151069D01*
X1713382Y-5150154D01*
X1732381Y-5147310D01*
X1737715Y-5146294D01*
X2340965Y-5146294D01*
X2344216Y-5146852D01*
X2347112Y-5148376D01*
X2355138Y-5154472D01*
X2369718Y-5163261D01*
X2385212Y-5170424D01*
X2401366Y-5175859D01*
X2418029Y-5179517D01*
G37*
G36*
X830834Y-5087620D02*
G01*
X1109726Y-5087620D01*
X1129182Y-5086654D01*
X1148181Y-5083810D01*
X1166774Y-5079187D01*
X1184859Y-5072684D01*
X1202182Y-5064506D01*
X1218641Y-5054650D01*
X1234084Y-5043170D01*
X1248308Y-5030317D01*
X1261211Y-5016093D01*
X1272641Y-5000650D01*
X1282496Y-4984191D01*
X1290726Y-4966868D01*
X1297178Y-4948783D01*
X1301851Y-4930140D01*
X1304645Y-4911191D01*
X1305610Y-4891989D01*
X1304645Y-4872837D01*
X1301851Y-4853838D01*
X1297178Y-4835245D01*
X1290726Y-4817160D01*
X1282496Y-4799787D01*
X1272641Y-4783328D01*
X1261211Y-4767935D01*
X1248308Y-4753711D01*
X1234084Y-4740808D01*
X1218641Y-4729378D01*
X1202182Y-4719523D01*
X1184859Y-4711293D01*
X1166774Y-4704842D01*
X1148181Y-4700168D01*
X1129182Y-4697323D01*
X1109726Y-4696409D01*
X830834Y-4696409D01*
X811428Y-4697323D01*
X792429Y-4700168D01*
X773836Y-4704842D01*
X755751Y-4711293D01*
X738378Y-4719523D01*
X721918Y-4729378D01*
X706526Y-4740808D01*
X692302Y-4753711D01*
X679399Y-4767935D01*
X667969Y-4783328D01*
X658114Y-4799787D01*
X649884Y-4817160D01*
X643432Y-4835245D01*
X638759Y-4853838D01*
X635965Y-4872837D01*
X635000Y-4891989D01*
X635965Y-4911191D01*
X638759Y-4930140D01*
X643432Y-4948783D01*
X649884Y-4966868D01*
X658114Y-4984191D01*
X667969Y-5000650D01*
X679399Y-5016093D01*
X692302Y-5030317D01*
X706526Y-5043170D01*
X721918Y-5054650D01*
X738378Y-5064506D01*
X755751Y-5072684D01*
X773836Y-5079187D01*
X792429Y-5083810D01*
X811428Y-5086654D01*
G37*
G36*
X7409434Y-5011420D02*
G01*
X7688325Y-5011420D01*
X7707782Y-5010454D01*
X7726781Y-5007610D01*
X7745374Y-5002987D01*
X7763459Y-4996484D01*
X7780781Y-4988306D01*
X7797241Y-4978450D01*
X7812684Y-4966970D01*
X7826908Y-4954117D01*
X7839811Y-4939893D01*
X7851241Y-4924450D01*
X7861096Y-4907991D01*
X7869326Y-4890668D01*
X7875778Y-4872583D01*
X7880451Y-4853940D01*
X7883245Y-4834991D01*
X7884210Y-4815789D01*
X7883245Y-4796637D01*
X7880451Y-4777638D01*
X7875778Y-4759045D01*
X7869326Y-4740960D01*
X7861096Y-4723587D01*
X7851241Y-4707128D01*
X7839811Y-4691735D01*
X7826908Y-4677511D01*
X7812684Y-4664608D01*
X7797241Y-4653178D01*
X7780781Y-4643323D01*
X7763459Y-4635093D01*
X7745374Y-4628642D01*
X7726781Y-4623968D01*
X7707782Y-4621123D01*
X7688325Y-4620209D01*
X7409434Y-4620209D01*
X7390028Y-4621123D01*
X7371029Y-4623968D01*
X7352436Y-4628642D01*
X7334351Y-4635093D01*
X7316978Y-4643323D01*
X7300518Y-4653178D01*
X7285126Y-4664608D01*
X7270902Y-4677511D01*
X7257999Y-4691735D01*
X7246569Y-4707128D01*
X7236714Y-4723587D01*
X7228484Y-4740960D01*
X7222032Y-4759045D01*
X7217359Y-4777638D01*
X7214565Y-4796637D01*
X7213600Y-4815789D01*
X7214565Y-4834991D01*
X7217359Y-4853940D01*
X7222032Y-4872583D01*
X7228484Y-4890668D01*
X7236714Y-4907991D01*
X7246569Y-4924450D01*
X7257999Y-4939893D01*
X7270902Y-4954117D01*
X7285126Y-4966970D01*
X7300518Y-4978450D01*
X7316978Y-4988306D01*
X7334351Y-4996484D01*
X7352436Y-5002987D01*
X7371029Y-5007610D01*
X7390028Y-5010454D01*
G37*
G36*
X7705242Y-4430420D02*
G01*
X7726172Y-4428998D01*
X7746898Y-4425696D01*
X7767218Y-4420463D01*
X7786979Y-4413453D01*
X7806029Y-4404664D01*
X7824216Y-4394149D01*
X7841335Y-4382058D01*
X7857337Y-4368444D01*
X7871968Y-4353458D01*
X7885226Y-4337151D01*
X7896961Y-4319778D01*
X7907020Y-4301337D01*
X7915351Y-4282135D01*
X7921955Y-4262170D01*
X7926679Y-4241749D01*
X7929524Y-4220972D01*
X7930489Y-4199991D01*
X7929524Y-4179062D01*
X7926679Y-4158234D01*
X7921955Y-4137812D01*
X7915351Y-4117898D01*
X7907020Y-4098645D01*
X7896961Y-4080256D01*
X7885226Y-4062831D01*
X7871968Y-4046524D01*
X7857337Y-4031538D01*
X7841335Y-4017924D01*
X7824216Y-4005834D01*
X7806029Y-3995369D01*
X7786979Y-3986529D01*
X7767218Y-3979519D01*
X7746898Y-3974337D01*
X7726172Y-3970985D01*
X7705242Y-3969562D01*
X7684262Y-3970020D01*
X7663434Y-3972407D01*
X7642859Y-3976674D01*
X7622794Y-3982821D01*
X7603388Y-3990746D01*
X7584744Y-4000398D01*
X7567066Y-4011676D01*
X7550505Y-4024579D01*
X7535164Y-4038904D01*
X7521194Y-4054551D01*
X7508697Y-4071416D01*
X7497825Y-4089349D01*
X7488580Y-4108145D01*
X7481112Y-4127754D01*
X7475474Y-4147972D01*
X7471664Y-4168597D01*
X7469733Y-4189526D01*
X7469733Y-4210507D01*
X7471664Y-4231386D01*
X7475474Y-4252010D01*
X7481112Y-4272229D01*
X7488580Y-4291838D01*
X7497825Y-4310684D01*
X7508697Y-4328617D01*
X7521194Y-4345482D01*
X7535164Y-4361129D01*
X7550505Y-4375454D01*
X7567066Y-4388307D01*
X7584744Y-4399635D01*
X7603388Y-4409287D01*
X7622794Y-4417161D01*
X7642859Y-4423308D01*
X7663434Y-4427575D01*
X7684262Y-4429963D01*
G37*
G36*
X6824980Y-3830269D02*
G01*
X6844182Y-3829354D01*
X6863181Y-3826510D01*
X6881774Y-3821887D01*
X6891528Y-3818483D01*
X6900316Y-3816807D01*
X6924700Y-3810101D01*
X6948525Y-3801516D01*
X6971639Y-3791204D01*
X6993890Y-3779062D01*
X7015124Y-3765346D01*
X7035292Y-3749954D01*
X7054189Y-3733139D01*
X7071715Y-3714902D01*
X7087819Y-3695344D01*
X7102398Y-3674668D01*
X7115352Y-3652875D01*
X7126579Y-3630218D01*
X7136028Y-3606698D01*
X7143699Y-3582568D01*
X7149439Y-3557930D01*
X7153300Y-3532886D01*
X7155230Y-3507638D01*
X7155230Y-3482340D01*
X7153300Y-3457092D01*
X7149439Y-3432098D01*
X7143699Y-3407410D01*
X7136028Y-3383279D01*
X7126579Y-3359810D01*
X7115352Y-3337102D01*
X7102398Y-3315360D01*
X7087819Y-3294634D01*
X7071715Y-3275126D01*
X7054189Y-3256889D01*
X7035292Y-3240024D01*
X7015124Y-3224682D01*
X6993890Y-3210915D01*
X6971639Y-3198825D01*
X6948525Y-3188462D01*
X6924700Y-3179927D01*
X6900316Y-3173171D01*
X6890054Y-3171088D01*
X6881774Y-3168142D01*
X6863181Y-3163468D01*
X6844182Y-3160623D01*
X6824980Y-3159709D01*
X6805828Y-3160623D01*
X6786829Y-3163468D01*
X6781495Y-3164484D01*
X6178194Y-3164484D01*
X6174994Y-3163976D01*
X6172047Y-3162401D01*
X6164072Y-3156356D01*
X6149492Y-3147568D01*
X6133998Y-3140405D01*
X6117844Y-3134969D01*
X6101181Y-3131312D01*
X6084214Y-3129432D01*
X6067196Y-3129432D01*
X6050229Y-3131312D01*
X6033566Y-3134969D01*
X6017412Y-3140405D01*
X6001918Y-3147568D01*
X5987338Y-3156356D01*
X5979312Y-3162401D01*
X5976416Y-3163976D01*
X5973165Y-3164484D01*
X5969203Y-3164484D01*
X5943701Y-3165449D01*
X5918555Y-3168396D01*
X5893714Y-3173171D01*
X5869279Y-3179927D01*
X5845454Y-3188462D01*
X5822340Y-3198825D01*
X5800090Y-3210915D01*
X5778855Y-3224682D01*
X5758738Y-3240024D01*
X5739841Y-3256889D01*
X5722264Y-3275126D01*
X5706160Y-3294634D01*
X5691581Y-3315360D01*
X5678678Y-3337102D01*
X5667400Y-3359810D01*
X5657951Y-3383279D01*
X5650331Y-3407410D01*
X5644540Y-3432098D01*
X5640679Y-3457092D01*
X5638749Y-3482340D01*
X5638749Y-3507638D01*
X5640679Y-3532886D01*
X5644540Y-3557930D01*
X5650331Y-3582568D01*
X5657951Y-3606698D01*
X5667400Y-3630218D01*
X5678678Y-3652875D01*
X5691581Y-3674668D01*
X5706160Y-3695344D01*
X5722264Y-3714902D01*
X5739841Y-3733139D01*
X5758738Y-3749954D01*
X5778855Y-3765346D01*
X5800090Y-3779062D01*
X5822340Y-3791204D01*
X5845454Y-3801516D01*
X5869279Y-3810101D01*
X5893714Y-3816807D01*
X5918555Y-3821633D01*
X5943701Y-3824528D01*
X5969203Y-3825494D01*
X6781495Y-3825494D01*
X6786829Y-3826510D01*
X6805828Y-3829354D01*
G37*
G36*
X2434996Y-3784346D02*
G01*
X2452014Y-3784346D01*
X2468981Y-3782517D01*
X2485644Y-3778859D01*
X2501798Y-3773424D01*
X2517292Y-3766261D01*
X2531872Y-3757472D01*
X2540203Y-3751122D01*
X2542895Y-3749649D01*
X2545943Y-3749090D01*
X2565298Y-3748328D01*
X2590444Y-3745433D01*
X2615285Y-3740607D01*
X2639720Y-3733901D01*
X2663545Y-3725316D01*
X2686659Y-3715004D01*
X2708910Y-3702862D01*
X2730144Y-3689146D01*
X2750261Y-3673754D01*
X2769158Y-3656939D01*
X2786735Y-3638702D01*
X2802839Y-3619144D01*
X2817418Y-3598468D01*
X2830322Y-3576675D01*
X2841599Y-3554018D01*
X2851048Y-3530498D01*
X2858668Y-3506368D01*
X2864459Y-3481730D01*
X2868320Y-3456686D01*
X2870250Y-3431438D01*
X2870250Y-3406140D01*
X2868320Y-3380892D01*
X2864459Y-3355898D01*
X2858668Y-3331210D01*
X2851048Y-3307079D01*
X2841599Y-3283610D01*
X2830322Y-3260902D01*
X2817418Y-3239160D01*
X2802839Y-3218434D01*
X2786735Y-3198926D01*
X2769158Y-3180689D01*
X2750261Y-3163824D01*
X2730144Y-3148482D01*
X2708910Y-3134715D01*
X2686659Y-3122625D01*
X2663545Y-3112262D01*
X2639720Y-3103727D01*
X2615285Y-3096971D01*
X2590444Y-3092196D01*
X2565298Y-3089249D01*
X2539796Y-3088284D01*
X1737715Y-3088284D01*
X1732381Y-3087268D01*
X1713382Y-3084423D01*
X1694180Y-3083509D01*
X1675028Y-3084423D01*
X1656029Y-3087268D01*
X1637436Y-3091942D01*
X1627682Y-3095294D01*
X1618894Y-3096971D01*
X1594459Y-3103727D01*
X1570634Y-3112262D01*
X1547571Y-3122625D01*
X1525320Y-3134715D01*
X1504035Y-3148482D01*
X1483918Y-3163824D01*
X1465021Y-3180689D01*
X1447444Y-3198926D01*
X1431340Y-3218434D01*
X1416812Y-3239160D01*
X1403858Y-3260902D01*
X1392631Y-3283610D01*
X1383131Y-3307079D01*
X1375511Y-3331210D01*
X1369771Y-3355898D01*
X1365859Y-3380892D01*
X1363929Y-3406140D01*
X1363929Y-3431438D01*
X1365859Y-3456686D01*
X1369771Y-3481730D01*
X1375511Y-3506368D01*
X1383131Y-3530498D01*
X1392631Y-3554018D01*
X1403858Y-3576675D01*
X1416812Y-3598468D01*
X1431340Y-3619144D01*
X1447444Y-3638702D01*
X1465021Y-3656939D01*
X1483918Y-3673754D01*
X1504035Y-3689146D01*
X1525320Y-3702862D01*
X1547571Y-3715004D01*
X1570634Y-3725316D01*
X1594459Y-3733901D01*
X1618894Y-3740607D01*
X1629156Y-3742690D01*
X1637436Y-3745687D01*
X1656029Y-3750310D01*
X1675028Y-3753154D01*
X1694180Y-3754069D01*
X1713382Y-3753154D01*
X1732381Y-3750310D01*
X1737715Y-3749294D01*
X2340965Y-3749294D01*
X2344216Y-3749852D01*
X2347112Y-3751376D01*
X2355138Y-3757472D01*
X2369718Y-3766261D01*
X2385212Y-3773424D01*
X2401366Y-3778859D01*
X2418029Y-3782517D01*
G37*
G36*
X830834Y-3690620D02*
G01*
X1109726Y-3690620D01*
X1129182Y-3689654D01*
X1148181Y-3686810D01*
X1166774Y-3682187D01*
X1184859Y-3675684D01*
X1202182Y-3667506D01*
X1218641Y-3657650D01*
X1234084Y-3646170D01*
X1248308Y-3633317D01*
X1261211Y-3619093D01*
X1272641Y-3603650D01*
X1282496Y-3587191D01*
X1290726Y-3569868D01*
X1297178Y-3551783D01*
X1301851Y-3533140D01*
X1304645Y-3514191D01*
X1305610Y-3494989D01*
X1304645Y-3475837D01*
X1301851Y-3456838D01*
X1297178Y-3438245D01*
X1290726Y-3420160D01*
X1282496Y-3402787D01*
X1272641Y-3386328D01*
X1261211Y-3370935D01*
X1248308Y-3356711D01*
X1234084Y-3343808D01*
X1218641Y-3332378D01*
X1202182Y-3322523D01*
X1184859Y-3314293D01*
X1166774Y-3307842D01*
X1148181Y-3303168D01*
X1129182Y-3300323D01*
X1109726Y-3299409D01*
X830834Y-3299409D01*
X811428Y-3300323D01*
X792429Y-3303168D01*
X773836Y-3307842D01*
X755751Y-3314293D01*
X738378Y-3322523D01*
X721918Y-3332378D01*
X706526Y-3343808D01*
X692302Y-3356711D01*
X679399Y-3370935D01*
X667969Y-3386328D01*
X658114Y-3402787D01*
X649884Y-3420160D01*
X643432Y-3438245D01*
X638759Y-3456838D01*
X635965Y-3475837D01*
X635000Y-3494989D01*
X635965Y-3514191D01*
X638759Y-3533140D01*
X643432Y-3551783D01*
X649884Y-3569868D01*
X658114Y-3587191D01*
X667969Y-3603650D01*
X679399Y-3619093D01*
X692302Y-3633317D01*
X706526Y-3646170D01*
X721918Y-3657650D01*
X738378Y-3667506D01*
X755751Y-3675684D01*
X773836Y-3682187D01*
X792429Y-3686810D01*
X811428Y-3689654D01*
G37*
G36*
X7409434Y-3614420D02*
G01*
X7688325Y-3614420D01*
X7707782Y-3613454D01*
X7726781Y-3610610D01*
X7745374Y-3605987D01*
X7763459Y-3599484D01*
X7780781Y-3591306D01*
X7797241Y-3581450D01*
X7812684Y-3569970D01*
X7826908Y-3557117D01*
X7839811Y-3542893D01*
X7851241Y-3527450D01*
X7861096Y-3510991D01*
X7869326Y-3493668D01*
X7875778Y-3475583D01*
X7880451Y-3456940D01*
X7883245Y-3437991D01*
X7884210Y-3418789D01*
X7883245Y-3399637D01*
X7880451Y-3380638D01*
X7875778Y-3362045D01*
X7869326Y-3343960D01*
X7861096Y-3326587D01*
X7851241Y-3310128D01*
X7839811Y-3294735D01*
X7826908Y-3280511D01*
X7812684Y-3267608D01*
X7797241Y-3256178D01*
X7780781Y-3246323D01*
X7763459Y-3238093D01*
X7745374Y-3231642D01*
X7726781Y-3226968D01*
X7707782Y-3224123D01*
X7688325Y-3223209D01*
X7409434Y-3223209D01*
X7390028Y-3224123D01*
X7371029Y-3226968D01*
X7352436Y-3231642D01*
X7334351Y-3238093D01*
X7316978Y-3246323D01*
X7300518Y-3256178D01*
X7285126Y-3267608D01*
X7270902Y-3280511D01*
X7257999Y-3294735D01*
X7246569Y-3310128D01*
X7236714Y-3326587D01*
X7228484Y-3343960D01*
X7222032Y-3362045D01*
X7217359Y-3380638D01*
X7214565Y-3399637D01*
X7213600Y-3418789D01*
X7214565Y-3437991D01*
X7217359Y-3456940D01*
X7222032Y-3475583D01*
X7228484Y-3493668D01*
X7236714Y-3510991D01*
X7246569Y-3527450D01*
X7257999Y-3542893D01*
X7270902Y-3557117D01*
X7285126Y-3569970D01*
X7300518Y-3581450D01*
X7316978Y-3591306D01*
X7334351Y-3599484D01*
X7352436Y-3605987D01*
X7371029Y-3610610D01*
X7390028Y-3613454D01*
G37*
G36*
X805230Y-2930448D02*
G01*
X826160Y-2929026D01*
X846886Y-2925673D01*
X867206Y-2920492D01*
X887018Y-2913430D01*
X906068Y-2904642D01*
X924204Y-2894177D01*
X941374Y-2882087D01*
X957326Y-2868472D01*
X972007Y-2853436D01*
X985215Y-2837180D01*
X996950Y-2819755D01*
X1007008Y-2801366D01*
X1015390Y-2782112D01*
X1021943Y-2762199D01*
X1026668Y-2741726D01*
X1029563Y-2720949D01*
X1030478Y-2700020D01*
X1029563Y-2679039D01*
X1026668Y-2658262D01*
X1021943Y-2637790D01*
X1015390Y-2617876D01*
X1007008Y-2598623D01*
X996950Y-2580233D01*
X985215Y-2562809D01*
X972007Y-2546553D01*
X957326Y-2531567D01*
X941374Y-2517952D01*
X924204Y-2505862D01*
X906068Y-2495346D01*
X887018Y-2486558D01*
X867206Y-2479548D01*
X846886Y-2474315D01*
X826160Y-2471013D01*
X805230Y-2469540D01*
X784250Y-2470048D01*
X763422Y-2472436D01*
X742899Y-2476703D01*
X722833Y-2482799D01*
X703376Y-2490724D01*
X684733Y-2500376D01*
X667054Y-2511704D01*
X650494Y-2524556D01*
X635152Y-2538882D01*
X621182Y-2554528D01*
X608736Y-2571394D01*
X597814Y-2589326D01*
X588568Y-2608173D01*
X581101Y-2627782D01*
X575462Y-2648000D01*
X571652Y-2668625D01*
X569722Y-2689504D01*
X569722Y-2710484D01*
X571652Y-2731363D01*
X575462Y-2752039D01*
X581101Y-2772206D01*
X588568Y-2791815D01*
X597814Y-2810662D01*
X608736Y-2828594D01*
X621182Y-2845460D01*
X635152Y-2861106D01*
X650494Y-2875432D01*
X667054Y-2888284D01*
X684733Y-2899613D01*
X703376Y-2909265D01*
X722833Y-2917190D01*
X742899Y-2923286D01*
X763422Y-2927553D01*
X784250Y-2929940D01*
G37*
G36*
X6824980Y-2433269D02*
G01*
X6844182Y-2432354D01*
X6863181Y-2429510D01*
X6881774Y-2424887D01*
X6891528Y-2421483D01*
X6900316Y-2419807D01*
X6924700Y-2413101D01*
X6948525Y-2404516D01*
X6971639Y-2394204D01*
X6993890Y-2382062D01*
X7015124Y-2368346D01*
X7035292Y-2352954D01*
X7054189Y-2336139D01*
X7071715Y-2317902D01*
X7087819Y-2298344D01*
X7102398Y-2277668D01*
X7115352Y-2255875D01*
X7126579Y-2233218D01*
X7136028Y-2209698D01*
X7143699Y-2185568D01*
X7149439Y-2160930D01*
X7153300Y-2135886D01*
X7155230Y-2110638D01*
X7155230Y-2085339D01*
X7153300Y-2060092D01*
X7149439Y-2035098D01*
X7143699Y-2010410D01*
X7136028Y-1986280D01*
X7126579Y-1962810D01*
X7115352Y-1940102D01*
X7102398Y-1918360D01*
X7087819Y-1897634D01*
X7071715Y-1878126D01*
X7054189Y-1859889D01*
X7035292Y-1843024D01*
X7015124Y-1827682D01*
X6993890Y-1813915D01*
X6971639Y-1801825D01*
X6948525Y-1791462D01*
X6924700Y-1782927D01*
X6900316Y-1776171D01*
X6890054Y-1774088D01*
X6881774Y-1771142D01*
X6863181Y-1766468D01*
X6844182Y-1763623D01*
X6824980Y-1762709D01*
X6805828Y-1763623D01*
X6786829Y-1766468D01*
X6781495Y-1767484D01*
X6178194Y-1767484D01*
X6174994Y-1766976D01*
X6172047Y-1765401D01*
X6164072Y-1759356D01*
X6149492Y-1750568D01*
X6133998Y-1743405D01*
X6117844Y-1737969D01*
X6101181Y-1734312D01*
X6084214Y-1732432D01*
X6067196Y-1732432D01*
X6050229Y-1734312D01*
X6033566Y-1737969D01*
X6017412Y-1743405D01*
X6001918Y-1750568D01*
X5987338Y-1759356D01*
X5979312Y-1765401D01*
X5976416Y-1766976D01*
X5973165Y-1767484D01*
X5969203Y-1767484D01*
X5943701Y-1768449D01*
X5918555Y-1771396D01*
X5893714Y-1776171D01*
X5869279Y-1782927D01*
X5845454Y-1791462D01*
X5822340Y-1801825D01*
X5800090Y-1813915D01*
X5778855Y-1827682D01*
X5758738Y-1843024D01*
X5739841Y-1859889D01*
X5722264Y-1878126D01*
X5706160Y-1897634D01*
X5691581Y-1918360D01*
X5678678Y-1940102D01*
X5667400Y-1962810D01*
X5657951Y-1986280D01*
X5650331Y-2010410D01*
X5644540Y-2035098D01*
X5640679Y-2060092D01*
X5638749Y-2085339D01*
X5638749Y-2110638D01*
X5640679Y-2135886D01*
X5644540Y-2160930D01*
X5650331Y-2185568D01*
X5657951Y-2209698D01*
X5667400Y-2233218D01*
X5678678Y-2255875D01*
X5691581Y-2277668D01*
X5706160Y-2298344D01*
X5722264Y-2317902D01*
X5739841Y-2336139D01*
X5758738Y-2352954D01*
X5778855Y-2368346D01*
X5800090Y-2382062D01*
X5822340Y-2394204D01*
X5845454Y-2404516D01*
X5869279Y-2413101D01*
X5893714Y-2419807D01*
X5918555Y-2424633D01*
X5943701Y-2427528D01*
X5969203Y-2428494D01*
X6781495Y-2428494D01*
X6786829Y-2429510D01*
X6805828Y-2432354D01*
G37*
G36*
X2434996Y-2387346D02*
G01*
X2452014Y-2387346D01*
X2468981Y-2385517D01*
X2485644Y-2381859D01*
X2501798Y-2376424D01*
X2517292Y-2369261D01*
X2531872Y-2360472D01*
X2540203Y-2354122D01*
X2542895Y-2352649D01*
X2545943Y-2352090D01*
X2565298Y-2351328D01*
X2590444Y-2348433D01*
X2615285Y-2343607D01*
X2639720Y-2336901D01*
X2663545Y-2328316D01*
X2686659Y-2318004D01*
X2708910Y-2305862D01*
X2730144Y-2292146D01*
X2750261Y-2276754D01*
X2769158Y-2259939D01*
X2786735Y-2241702D01*
X2802839Y-2222144D01*
X2817418Y-2201468D01*
X2830322Y-2179675D01*
X2841599Y-2157018D01*
X2851048Y-2133498D01*
X2858668Y-2109368D01*
X2864459Y-2084730D01*
X2868320Y-2059686D01*
X2870250Y-2034438D01*
X2870250Y-2009139D01*
X2868320Y-1983892D01*
X2864459Y-1958898D01*
X2858668Y-1934210D01*
X2851048Y-1910080D01*
X2841599Y-1886610D01*
X2830322Y-1863902D01*
X2817418Y-1842160D01*
X2802839Y-1821434D01*
X2786735Y-1801926D01*
X2769158Y-1783689D01*
X2750261Y-1766824D01*
X2730144Y-1751482D01*
X2708910Y-1737715D01*
X2686659Y-1725625D01*
X2663545Y-1715262D01*
X2639720Y-1706727D01*
X2615285Y-1699971D01*
X2590444Y-1695196D01*
X2565298Y-1692249D01*
X2539796Y-1691284D01*
X1737715Y-1691284D01*
X1732381Y-1690268D01*
X1713382Y-1687423D01*
X1694180Y-1686509D01*
X1675028Y-1687423D01*
X1656029Y-1690268D01*
X1637436Y-1694942D01*
X1627682Y-1698294D01*
X1618894Y-1699971D01*
X1594459Y-1706727D01*
X1570634Y-1715262D01*
X1547571Y-1725625D01*
X1525320Y-1737715D01*
X1504035Y-1751482D01*
X1483918Y-1766824D01*
X1465021Y-1783689D01*
X1447444Y-1801926D01*
X1431340Y-1821434D01*
X1416812Y-1842160D01*
X1403858Y-1863902D01*
X1392631Y-1886610D01*
X1383131Y-1910080D01*
X1375511Y-1934210D01*
X1369771Y-1958898D01*
X1365859Y-1983892D01*
X1363929Y-2009139D01*
X1363929Y-2034438D01*
X1365859Y-2059686D01*
X1369771Y-2084730D01*
X1375511Y-2109368D01*
X1383131Y-2133498D01*
X1392631Y-2157018D01*
X1403858Y-2179675D01*
X1416812Y-2201468D01*
X1431340Y-2222144D01*
X1447444Y-2241702D01*
X1465021Y-2259939D01*
X1483918Y-2276754D01*
X1504035Y-2292146D01*
X1525320Y-2305862D01*
X1547571Y-2318004D01*
X1570634Y-2328316D01*
X1594459Y-2336901D01*
X1618894Y-2343607D01*
X1629156Y-2345690D01*
X1637436Y-2348687D01*
X1656029Y-2353310D01*
X1675028Y-2356154D01*
X1694180Y-2357069D01*
X1713382Y-2356154D01*
X1732381Y-2353310D01*
X1737715Y-2352294D01*
X2340965Y-2352294D01*
X2344216Y-2352852D01*
X2347112Y-2354376D01*
X2355138Y-2360472D01*
X2369718Y-2369261D01*
X2385212Y-2376424D01*
X2401366Y-2381859D01*
X2418029Y-2385517D01*
G37*
G36*
X830834Y-2293620D02*
G01*
X1109726Y-2293620D01*
X1129182Y-2292654D01*
X1148181Y-2289810D01*
X1166774Y-2285187D01*
X1184859Y-2278684D01*
X1202182Y-2270506D01*
X1218641Y-2260650D01*
X1234084Y-2249170D01*
X1248308Y-2236317D01*
X1261211Y-2222093D01*
X1272641Y-2206650D01*
X1282496Y-2190191D01*
X1290726Y-2172868D01*
X1297178Y-2154783D01*
X1301851Y-2136140D01*
X1304645Y-2117191D01*
X1305610Y-2097989D01*
X1304645Y-2078837D01*
X1301851Y-2059838D01*
X1297178Y-2041245D01*
X1290726Y-2023160D01*
X1282496Y-2005787D01*
X1272641Y-1989328D01*
X1261211Y-1973935D01*
X1248308Y-1959711D01*
X1234084Y-1946808D01*
X1218641Y-1935378D01*
X1202182Y-1925523D01*
X1184859Y-1917293D01*
X1166774Y-1910842D01*
X1148181Y-1906168D01*
X1129182Y-1903323D01*
X1109726Y-1902409D01*
X830834Y-1902409D01*
X811428Y-1903323D01*
X792429Y-1906168D01*
X773836Y-1910842D01*
X755751Y-1917293D01*
X738378Y-1925523D01*
X721918Y-1935378D01*
X706526Y-1946808D01*
X692302Y-1959711D01*
X679399Y-1973935D01*
X667969Y-1989328D01*
X658114Y-2005787D01*
X649884Y-2023160D01*
X643432Y-2041245D01*
X638759Y-2059838D01*
X635965Y-2078837D01*
X635000Y-2097989D01*
X635965Y-2117191D01*
X638759Y-2136140D01*
X643432Y-2154783D01*
X649884Y-2172868D01*
X658114Y-2190191D01*
X667969Y-2206650D01*
X679399Y-2222093D01*
X692302Y-2236317D01*
X706526Y-2249170D01*
X721918Y-2260650D01*
X738378Y-2270506D01*
X755751Y-2278684D01*
X773836Y-2285187D01*
X792429Y-2289810D01*
X811428Y-2292654D01*
G37*
G36*
X7409434Y-2217420D02*
G01*
X7688325Y-2217420D01*
X7707782Y-2216454D01*
X7726781Y-2213610D01*
X7745374Y-2208987D01*
X7763459Y-2202484D01*
X7780781Y-2194306D01*
X7797241Y-2184450D01*
X7812684Y-2172970D01*
X7826908Y-2160117D01*
X7839811Y-2145893D01*
X7851241Y-2130450D01*
X7861096Y-2113991D01*
X7869326Y-2096668D01*
X7875778Y-2078583D01*
X7880451Y-2059939D01*
X7883245Y-2040991D01*
X7884210Y-2021789D01*
X7883245Y-2002637D01*
X7880451Y-1983638D01*
X7875778Y-1965045D01*
X7869326Y-1946960D01*
X7861096Y-1929587D01*
X7851241Y-1913128D01*
X7839811Y-1897735D01*
X7826908Y-1883511D01*
X7812684Y-1870608D01*
X7797241Y-1859178D01*
X7780781Y-1849323D01*
X7763459Y-1841093D01*
X7745374Y-1834642D01*
X7726781Y-1829968D01*
X7707782Y-1827123D01*
X7688325Y-1826209D01*
X7409434Y-1826209D01*
X7390028Y-1827123D01*
X7371029Y-1829968D01*
X7352436Y-1834642D01*
X7334351Y-1841093D01*
X7316978Y-1849323D01*
X7300518Y-1859178D01*
X7285126Y-1870608D01*
X7270902Y-1883511D01*
X7257999Y-1897735D01*
X7246569Y-1913128D01*
X7236714Y-1929587D01*
X7228484Y-1946960D01*
X7222032Y-1965045D01*
X7217359Y-1983638D01*
X7214565Y-2002637D01*
X7213600Y-2021789D01*
X7214565Y-2040991D01*
X7217359Y-2059939D01*
X7222032Y-2078583D01*
X7228484Y-2096668D01*
X7236714Y-2113991D01*
X7246569Y-2130450D01*
X7257999Y-2145893D01*
X7270902Y-2160117D01*
X7285126Y-2172970D01*
X7300518Y-2184450D01*
X7316978Y-2194306D01*
X7334351Y-2202484D01*
X7352436Y-2208987D01*
X7371029Y-2213610D01*
X7390028Y-2216454D01*
G37*
G36*
X3958996Y-1371346D02*
G01*
X3976014Y-1371346D01*
X3992981Y-1369517D01*
X4009644Y-1365808D01*
X4025798Y-1360373D01*
X4041292Y-1353210D01*
X4050029Y-1347978D01*
X4052519Y-1346860D01*
X4055262Y-1346504D01*
X4063796Y-1346504D01*
X4089298Y-1345539D01*
X4114444Y-1342644D01*
X4139285Y-1337818D01*
X4163720Y-1331112D01*
X4187545Y-1322527D01*
X4210659Y-1312164D01*
X4232910Y-1300073D01*
X4254144Y-1286306D01*
X4274261Y-1270965D01*
X4293158Y-1254150D01*
X4310735Y-1235913D01*
X4326839Y-1216355D01*
X4341418Y-1195628D01*
X4354322Y-1173886D01*
X4365599Y-1151178D01*
X4375048Y-1127709D01*
X4382668Y-1103579D01*
X4388459Y-1078941D01*
X4392320Y-1053896D01*
X4394250Y-1028649D01*
X4394250Y-1003350D01*
X4392320Y-978103D01*
X4388459Y-953058D01*
X4382668Y-928420D01*
X4375048Y-904290D01*
X4365599Y-880821D01*
X4354322Y-858113D01*
X4341418Y-836371D01*
X4326839Y-815644D01*
X4310735Y-796086D01*
X4293158Y-777849D01*
X4274261Y-761034D01*
X4254144Y-745693D01*
X4232910Y-731926D01*
X4210659Y-719836D01*
X4187545Y-709472D01*
X4163720Y-700887D01*
X4139285Y-694182D01*
X4114444Y-689356D01*
X4089298Y-686460D01*
X4063796Y-685495D01*
X3027172Y-685495D01*
X3001670Y-686460D01*
X2976524Y-689356D01*
X2951683Y-694182D01*
X2927299Y-700887D01*
X2903474Y-709472D01*
X2880360Y-719836D01*
X2858109Y-731926D01*
X2836875Y-745693D01*
X2816707Y-761034D01*
X2797810Y-777849D01*
X2780284Y-796086D01*
X2764129Y-815644D01*
X2749600Y-836371D01*
X2736646Y-858113D01*
X2725420Y-880821D01*
X2715971Y-904290D01*
X2708300Y-928420D01*
X2702560Y-953058D01*
X2698699Y-978103D01*
X2696718Y-1003350D01*
X2696718Y-1028649D01*
X2698699Y-1053896D01*
X2702560Y-1078941D01*
X2708300Y-1103579D01*
X2715971Y-1127709D01*
X2725420Y-1151178D01*
X2736646Y-1173886D01*
X2749600Y-1195628D01*
X2764129Y-1216355D01*
X2780284Y-1235913D01*
X2797810Y-1254150D01*
X2816707Y-1270965D01*
X2836875Y-1286306D01*
X2858109Y-1300073D01*
X2880360Y-1312164D01*
X2903474Y-1322527D01*
X2927299Y-1331112D01*
X2951683Y-1337818D01*
X2976524Y-1342644D01*
X3001670Y-1345539D01*
X3027172Y-1346504D01*
X3879748Y-1346504D01*
X3882440Y-1346860D01*
X3884980Y-1347978D01*
X3893718Y-1353210D01*
X3909212Y-1360373D01*
X3925366Y-1365808D01*
X3942029Y-1369517D01*
G37*
G36*
X2300935Y-1321409D02*
G01*
X2325217Y-1320901D01*
X2349398Y-1318514D01*
X2373274Y-1314196D01*
X2396744Y-1307947D01*
X2419654Y-1299921D01*
X2441854Y-1290066D01*
X2463241Y-1278483D01*
X2483561Y-1265224D01*
X2502814Y-1250442D01*
X2520848Y-1234135D01*
X2537510Y-1216456D01*
X2552700Y-1197508D01*
X2566314Y-1177391D01*
X2578354Y-1156309D01*
X2588615Y-1134313D01*
X2597150Y-1111554D01*
X2603804Y-1088186D01*
X2608580Y-1064361D01*
X2611475Y-1040282D01*
X2612440Y-1016000D01*
X2611475Y-991717D01*
X2608580Y-967638D01*
X2603804Y-943813D01*
X2597150Y-920445D01*
X2588615Y-897686D01*
X2578354Y-875690D01*
X2566314Y-854608D01*
X2552700Y-834491D01*
X2537510Y-815543D01*
X2520848Y-797864D01*
X2502814Y-781558D01*
X2483561Y-766775D01*
X2463241Y-753516D01*
X2441854Y-741934D01*
X2419654Y-732078D01*
X2396744Y-724052D01*
X2373274Y-717804D01*
X2349398Y-713486D01*
X2325217Y-711098D01*
X2300935Y-710590D01*
X2276703Y-712063D01*
X2252624Y-715416D01*
X2228951Y-720699D01*
X2205736Y-727811D01*
X2183130Y-736803D01*
X2161336Y-747522D01*
X2140458Y-759917D01*
X2120646Y-773988D01*
X2102002Y-789533D01*
X2084679Y-806551D01*
X2068728Y-824890D01*
X2054301Y-844397D01*
X2041448Y-865022D01*
X2030323Y-886612D01*
X2020925Y-909015D01*
X2013305Y-932078D01*
X2007565Y-955649D01*
X2003704Y-979627D01*
X2001774Y-1003858D01*
X2001774Y-1028141D01*
X2003704Y-1052372D01*
X2007565Y-1076350D01*
X2013305Y-1099921D01*
X2020925Y-1122984D01*
X2030323Y-1145387D01*
X2041448Y-1166977D01*
X2054301Y-1187602D01*
X2068728Y-1207109D01*
X2084679Y-1225448D01*
X2102002Y-1242466D01*
X2120646Y-1258011D01*
X2140458Y-1272082D01*
X2161336Y-1284478D01*
X2183130Y-1295196D01*
X2205736Y-1304188D01*
X2228951Y-1311300D01*
X2252624Y-1316583D01*
X2276703Y-1319936D01*
G37*
G36*
X7905242Y-1130452D02*
G01*
X7926171Y-1128979D01*
X7946898Y-1125677D01*
X7967218Y-1120495D01*
X7986979Y-1113434D01*
X8006029Y-1104646D01*
X8024215Y-1094181D01*
X8041335Y-1082040D01*
X8057337Y-1068476D01*
X8071967Y-1053439D01*
X8085226Y-1037183D01*
X8096961Y-1019759D01*
X8107019Y-1001369D01*
X8115350Y-982116D01*
X8121954Y-962202D01*
X8126679Y-941730D01*
X8129524Y-920953D01*
X8130489Y-900023D01*
X8129524Y-879043D01*
X8126679Y-858266D01*
X8121954Y-837793D01*
X8115350Y-817880D01*
X8107019Y-798626D01*
X8096961Y-780237D01*
X8085226Y-762812D01*
X8071967Y-746556D01*
X8057337Y-731570D01*
X8041335Y-717956D01*
X8024215Y-705815D01*
X8006029Y-695350D01*
X7986979Y-686562D01*
X7967218Y-679551D01*
X7946898Y-674319D01*
X7926171Y-671017D01*
X7905242Y-669544D01*
X7884261Y-670052D01*
X7863433Y-672439D01*
X7842859Y-676706D01*
X7822793Y-682802D01*
X7803388Y-690727D01*
X7784744Y-700379D01*
X7767066Y-711708D01*
X7750505Y-724560D01*
X7735163Y-738886D01*
X7721193Y-754532D01*
X7708696Y-771398D01*
X7697825Y-789330D01*
X7688580Y-808177D01*
X7681112Y-827786D01*
X7675473Y-848004D01*
X7671663Y-868629D01*
X7669733Y-889508D01*
X7669733Y-910488D01*
X7671663Y-931367D01*
X7675473Y-952042D01*
X7681112Y-972210D01*
X7688580Y-991819D01*
X7697825Y-1010666D01*
X7708696Y-1028598D01*
X7721193Y-1045464D01*
X7735163Y-1061110D01*
X7750505Y-1075436D01*
X7767066Y-1088288D01*
X7784744Y-1099616D01*
X7803388Y-1109268D01*
X7822793Y-1117193D01*
X7842859Y-1123289D01*
X7863433Y-1127556D01*
X7884261Y-1129944D01*
G37*
G36*
X705256Y-1030427D02*
G01*
X726186Y-1029004D01*
X746912Y-1025652D01*
X767232Y-1020470D01*
X786993Y-1013460D01*
X806043Y-1004671D01*
X824230Y-994156D01*
X841349Y-982065D01*
X857300Y-968451D01*
X871982Y-953465D01*
X885240Y-937158D01*
X896924Y-919784D01*
X907034Y-901344D01*
X915365Y-882091D01*
X921969Y-862177D01*
X926693Y-841756D01*
X929538Y-820978D01*
X930503Y-799998D01*
X929538Y-779018D01*
X926693Y-758240D01*
X921969Y-737819D01*
X915365Y-717905D01*
X907034Y-698652D01*
X896924Y-680262D01*
X885240Y-662838D01*
X871982Y-646531D01*
X857300Y-631545D01*
X841349Y-617931D01*
X824230Y-605840D01*
X806043Y-595325D01*
X786993Y-586536D01*
X767232Y-579526D01*
X746912Y-574344D01*
X726186Y-570992D01*
X705256Y-569569D01*
X684276Y-570026D01*
X663448Y-572414D01*
X642874Y-576681D01*
X622808Y-582828D01*
X603402Y-590753D01*
X584758Y-600405D01*
X567080Y-611682D01*
X550519Y-624586D01*
X535178Y-638860D01*
X521208Y-654558D01*
X508711Y-671423D01*
X497840Y-689305D01*
X488594Y-708152D01*
X481126Y-727760D01*
X475437Y-747979D01*
X471678Y-768604D01*
X469747Y-789533D01*
X469747Y-810514D01*
X471678Y-831392D01*
X475437Y-852017D01*
X481126Y-872236D01*
X488594Y-891844D01*
X497840Y-910691D01*
X508711Y-928624D01*
X521208Y-945438D01*
X535178Y-961136D01*
X550519Y-975461D01*
X567080Y-988314D01*
X584758Y-999591D01*
X603402Y-1009243D01*
X622808Y-1017168D01*
X642874Y-1023315D01*
X663448Y-1027582D01*
X684276Y-1029969D01*
G37*

%LPD*%
D18*
X3026994Y-1016000D02*
G01*
X4064000Y-1016000D01*
X1694200Y-2021799D02*
G01*
X2540000Y-2021799D01*
X1694200Y-3418799D02*
G01*
X2540000Y-3418799D01*
X1694200Y-4815799D02*
G01*
X2540000Y-4815799D01*
X1694200Y-6212799D02*
G01*
X2540000Y-6212799D01*
X1694200Y-7609799D02*
G01*
X2540000Y-7609799D01*
X6825000Y-6288999D02*
G01*
X5969000Y-6288999D01*
X6825000Y-7685999D02*
G01*
X5969000Y-7685999D01*
X6825000Y-4891999D02*
G01*
X5969000Y-4891999D01*
X6825000Y-3494999D02*
G01*
X5969000Y-3494999D01*
X6825000Y-2097999D02*
G01*
X5969000Y-2097999D01*
D14*
G01*
X2307005Y-1016000D03*
G01*
X3026994Y-1016000D03*
D15*
G01*
X3967505Y-873683D03*
G01*
X3967505Y-1214069D03*
G01*
X5313705Y-873683D03*
G01*
X5313705Y-1214069D03*
G01*
X3789705Y-2230094D03*
G01*
X3789705Y-1889709D03*
G01*
X2443505Y-2230094D03*
G01*
X2443505Y-1889709D03*
G01*
X3789705Y-3627094D03*
G01*
X3789705Y-3286709D03*
G01*
X2443505Y-3627094D03*
G01*
X2443505Y-3286709D03*
G01*
X3789705Y-5024094D03*
G01*
X3789705Y-4683709D03*
G01*
X2443505Y-5024094D03*
G01*
X2443505Y-4683709D03*
G01*
X3789705Y-6421094D03*
G01*
X3789705Y-6080709D03*
G01*
X2443505Y-6421094D03*
G01*
X2443505Y-6080709D03*
G01*
X3789705Y-7818094D03*
G01*
X3789705Y-7477709D03*
G01*
X2443505Y-7818094D03*
G01*
X2443505Y-7477709D03*
G01*
X4729505Y-1889683D03*
G01*
X4729505Y-2230069D03*
G01*
X6075705Y-1889683D03*
G01*
X6075705Y-2230069D03*
G01*
X4729505Y-3286683D03*
G01*
X4729505Y-3627069D03*
G01*
X6075705Y-3286683D03*
G01*
X6075705Y-3627069D03*
G01*
X4729505Y-4683683D03*
G01*
X4729505Y-5024069D03*
G01*
X6075705Y-4683683D03*
G01*
X6075705Y-5024069D03*
G01*
X4729505Y-6080683D03*
G01*
X4729505Y-6421069D03*
G01*
X6075705Y-6080683D03*
G01*
X6075705Y-6421069D03*
G01*
X4729505Y-7477683D03*
G01*
X4729505Y-7818069D03*
G01*
X6075705Y-7477683D03*
G01*
X6075705Y-7818069D03*
D16*
G01*
X699998Y-799998D03*
G01*
X7900009Y-899998D03*
G01*
X8000009Y-8700008D03*
G01*
X499998Y-8700008D03*
G01*
X7700009Y-7000011D03*
G01*
X7700009Y-4199991D03*
G01*
X799998Y-5499988D03*
G01*
X799998Y-2699994D03*
D17*
X1694205Y-1882089D02*
G01*
X1694205Y-2161489D01*
X830605Y-2097989D02*
G01*
X1110005Y-2097989D01*
X1694205Y-3279089D02*
G01*
X1694205Y-3558489D01*
X830605Y-3494989D02*
G01*
X1110005Y-3494989D01*
X1694205Y-4676089D02*
G01*
X1694205Y-4955489D01*
X830605Y-4891989D02*
G01*
X1110005Y-4891989D01*
X1694205Y-6073089D02*
G01*
X1694205Y-6352489D01*
X830605Y-6288989D02*
G01*
X1110005Y-6288989D01*
X1694205Y-7470089D02*
G01*
X1694205Y-7749489D01*
X830605Y-7685989D02*
G01*
X1110005Y-7685989D01*
X6825005Y-2237689D02*
G01*
X6825005Y-1958289D01*
X7688605Y-2021789D02*
G01*
X7409205Y-2021789D01*
X6825005Y-3634689D02*
G01*
X6825005Y-3355289D01*
X7688605Y-3418789D02*
G01*
X7409205Y-3418789D01*
X6825005Y-5031689D02*
G01*
X6825005Y-4752289D01*
X7688605Y-4815789D02*
G01*
X7409205Y-4815789D01*
X6825005Y-6428689D02*
G01*
X6825005Y-6149289D01*
X7688605Y-6212789D02*
G01*
X7409205Y-6212789D01*
X6825005Y-7825689D02*
G01*
X6825005Y-7546289D01*
X7688605Y-7609789D02*
G01*
X7409205Y-7609789D01*
M02*
