G04 Layer: BottomSolderMaskLayer*
G04 EasyEDA v6.5.5, 2022-06-01 22:09:19*
G04 f343101900314467833159393b3af33e,c96cdaf6a0e44fa3bb1e134f2b5c86cb,10*
G04 Gerber Generator version 0.2*
G04 Scale: 100 percent, Rotated: No, Reflected: No *
G04 Dimensions in millimeters *
G04 leading zeros omitted , absolute positions ,4 integer and 5 decimal *
%FSLAX45Y45*%
%MOMM*%

%ADD21C,3.5052*%
%ADD23C,5.7023*%
%ADD24C,2.7432*%
%ADD26C,4.2032*%

%LPD*%
D21*
X1694205Y-1882089D02*
G01*
X1694205Y-2161489D01*
X830605Y-2097989D02*
G01*
X1110005Y-2097989D01*
X1694205Y-3279089D02*
G01*
X1694205Y-3558489D01*
X830605Y-3494989D02*
G01*
X1110005Y-3494989D01*
X1694205Y-4676089D02*
G01*
X1694205Y-4955489D01*
X830605Y-4891989D02*
G01*
X1110005Y-4891989D01*
X1694205Y-6073089D02*
G01*
X1694205Y-6352489D01*
X830605Y-6288989D02*
G01*
X1110005Y-6288989D01*
X1694205Y-7470089D02*
G01*
X1694205Y-7749489D01*
X830605Y-7685989D02*
G01*
X1110005Y-7685989D01*
X6825005Y-2237689D02*
G01*
X6825005Y-1958289D01*
X7688605Y-2021789D02*
G01*
X7409205Y-2021789D01*
X6825005Y-3634689D02*
G01*
X6825005Y-3355289D01*
X7688605Y-3418789D02*
G01*
X7409205Y-3418789D01*
X6825005Y-5031689D02*
G01*
X6825005Y-4752289D01*
X7688605Y-4815789D02*
G01*
X7409205Y-4815789D01*
X6825005Y-6428689D02*
G01*
X6825005Y-6149289D01*
X7688605Y-6212789D02*
G01*
X7409205Y-6212789D01*
X6825005Y-7825689D02*
G01*
X6825005Y-7546289D01*
X7688605Y-7609789D02*
G01*
X7409205Y-7609789D01*
D23*
G01*
X2307005Y-1016000D03*
G01*
X3026994Y-1016000D03*
D24*
G01*
X3967505Y-873683D03*
G01*
X3967505Y-1214069D03*
G01*
X5313705Y-873683D03*
G01*
X5313705Y-1214069D03*
G01*
X3789705Y-2230094D03*
G01*
X3789705Y-1889709D03*
G01*
X2443505Y-2230094D03*
G01*
X2443505Y-1889709D03*
G01*
X3789705Y-3627094D03*
G01*
X3789705Y-3286709D03*
G01*
X2443505Y-3627094D03*
G01*
X2443505Y-3286709D03*
G01*
X3789705Y-5024094D03*
G01*
X3789705Y-4683709D03*
G01*
X2443505Y-5024094D03*
G01*
X2443505Y-4683709D03*
G01*
X3789705Y-6421094D03*
G01*
X3789705Y-6080709D03*
G01*
X2443505Y-6421094D03*
G01*
X2443505Y-6080709D03*
G01*
X3789705Y-7818094D03*
G01*
X3789705Y-7477709D03*
G01*
X2443505Y-7818094D03*
G01*
X2443505Y-7477709D03*
G01*
X4729505Y-1889683D03*
G01*
X4729505Y-2230069D03*
G01*
X6075705Y-1889683D03*
G01*
X6075705Y-2230069D03*
G01*
X4729505Y-3286683D03*
G01*
X4729505Y-3627069D03*
G01*
X6075705Y-3286683D03*
G01*
X6075705Y-3627069D03*
G01*
X4729505Y-4683683D03*
G01*
X4729505Y-5024069D03*
G01*
X6075705Y-4683683D03*
G01*
X6075705Y-5024069D03*
G01*
X4729505Y-6080683D03*
G01*
X4729505Y-6421069D03*
G01*
X6075705Y-6080683D03*
G01*
X6075705Y-6421069D03*
G01*
X4729505Y-7477683D03*
G01*
X4729505Y-7818069D03*
G01*
X6075705Y-7477683D03*
G01*
X6075705Y-7818069D03*
D26*
G01*
X699998Y-799998D03*
G01*
X7900009Y-899998D03*
G01*
X8000009Y-8700008D03*
G01*
X499998Y-8700008D03*
G01*
X7700009Y-7000011D03*
G01*
X7700009Y-4199991D03*
G01*
X799998Y-5499988D03*
G01*
X799998Y-2699994D03*
M02*
