M48
METRIC,LZ,000.000
;FILE_FORMAT=3:3
;TYPE=PLATED
;Layer: PTH_Through
;EasyEDA v6.5.5, 2022-06-01 22:07:46
;5fa39ab79a2c48c687a51b611db9c60e,c96cdaf6a0e44fa3bb1e134f2b5c86cb,10
;Gerber Generator version 0.2
;Holesize 1 = 0.351 mm
T01C0.351
;Holesize 2 = 0.915 mm
T02C0.915
;Holesize 3 = 1.000 mm
T03C1.000
;Holesize 4 = 3.000 mm
T04C3.000
%
G05
G90
T01
X001461Y-076482
X056901Y-081270
X022563Y-073746
X006444Y-083058
X064673Y-068547
X005022Y-080084
X019157Y-052177
X040371Y-069687
X041610Y-070526
X056060Y-077376
X059106Y-076711
X003487Y-072989
T02
X006350Y-069850
X008890Y-069850
X011430Y-069850
X013970Y-069850
X016510Y-069850
X016510Y-062230
X013970Y-062230
X011430Y-062230
X008890Y-062230
X006350Y-062230
X006350Y-054610
X008890Y-054610
X011430Y-054610
X013970Y-054610
X019050Y-054610
X021590Y-054610
X024130Y-054610
X026670Y-054610
X031750Y-054610
X034290Y-054610
X036830Y-054610
X039370Y-054610
X044450Y-054610
X046990Y-054610
X049530Y-054610
X052070Y-054610
X057150Y-054610
X059690Y-054610
X062230Y-054610
X064770Y-054610
X057150Y-064770
X059690Y-064770
X062230Y-064770
X064770Y-064770
T03
X006350Y-078740
X006350Y-076200
X008890Y-078740
X008890Y-076200
X011430Y-078740
X011430Y-076200
X013970Y-078740
X013970Y-076200
X016510Y-078740
X016510Y-076200
X019050Y-078740
X019050Y-076200
X021590Y-078740
X021590Y-076200
X024130Y-078740
X024130Y-076200
X026670Y-078740
X026670Y-076200
X029210Y-078740
X029210Y-076200
X031750Y-078740
X031750Y-076200
X034290Y-078740
X034290Y-076200
X036830Y-078740
X036830Y-076200
X039370Y-078740
X039370Y-076200
X041910Y-078740
X041910Y-076200
X044450Y-078740
X044450Y-076200
X046990Y-078740
X046990Y-076200
X049530Y-078740
X049530Y-076200
X052070Y-078740
X052070Y-076200
X054610Y-078740
X054610Y-076200
X020320Y-090170G85X020320Y-090170
X017780Y-090170G85X017780Y-090170
X010160Y-087630G85X010160Y-087630
X012700Y-087630G85X012700Y-087630
X015240Y-087630G85X015240Y-087630
X017780Y-087630G85X017780Y-087630
X020320Y-087630G85X020320Y-087630
X012700Y-090170G85X012700Y-090170
X015240Y-090170G85X015240Y-090170
X010160Y-090170G85X010160Y-090170
X048260Y-090170G85X048260Y-090170
X045720Y-090170G85X045720Y-090170
X038100Y-087630G85X038100Y-087630
X040640Y-087630G85X040640Y-087630
X043180Y-087630G85X043180Y-087630
X045720Y-087630G85X045720Y-087630
X048260Y-087630G85X048260Y-087630
X040640Y-090170G85X040640Y-090170
X043180Y-090170G85X043180Y-090170
X038100Y-090170G85X038100Y-090170
X041910Y-067310G85X041910Y-067310
X039370Y-067310G85X039370Y-067310
X031750Y-064770G85X031750Y-064770
X034290Y-064770G85X034290Y-064770
X036830Y-064770G85X036830Y-064770
X039370Y-064770G85X039370Y-064770
X041910Y-064770G85X041910Y-064770
X034290Y-067310G85X034290Y-067310
X036830Y-067310G85X036830Y-067310
X031750Y-067310G85X031750Y-067310
X063500Y-077470G85X063500Y-077470
X063500Y-080010G85X063500Y-080010
X060960Y-087630G85X060960Y-087630
X060960Y-085090G85X060960Y-085090
X060960Y-082550G85X060960Y-082550
X060960Y-080010G85X060960Y-080010
X060960Y-077470G85X060960Y-077470
X063500Y-085090G85X063500Y-085090
X063500Y-082550G85X063500Y-082550
X063500Y-087630G85X063500Y-087630
T04
X024000Y-061000
X052000Y-063000
X030000Y-095000
M30
