G04 Layer: TopSolderMaskLayer*
G04 EasyEDA v6.5.5, 2022-06-01 22:07:46*
G04 5fa39ab79a2c48c687a51b611db9c60e,c96cdaf6a0e44fa3bb1e134f2b5c86cb,10*
G04 Gerber Generator version 0.2*
G04 Scale: 100 percent, Rotated: No, Reflected: No *
G04 Dimensions in millimeters *
G04 leading zeros omitted , absolute positions ,4 integer and 5 decimal *
%FSLAX45Y45*%
%MOMM*%

%ADD23R,1.7272X1.7272*%
%ADD24C,1.7272*%
%ADD26C,1.8032*%
%ADD27C,1.8031*%
%ADD29C,4.1016*%

%LPD*%
D23*
G01*
X635000Y-6985000D03*
D24*
G01*
X889000Y-6985000D03*
G01*
X1143000Y-6985000D03*
G01*
X1397000Y-6985000D03*
G01*
X1651000Y-6985000D03*
G01*
X1651000Y-6223000D03*
G01*
X1397000Y-6223000D03*
G01*
X1143000Y-6223000D03*
G01*
X889000Y-6223000D03*
G01*
X635000Y-6223000D03*
G36*
X544829Y-7964170D02*
G01*
X544829Y-7783829D01*
X725170Y-7783829D01*
X725170Y-7964170D01*
G37*
D26*
G01*
X635000Y-7620000D03*
G01*
X889000Y-7874000D03*
G01*
X889000Y-7620000D03*
G01*
X1143000Y-7874000D03*
G01*
X1143000Y-7620000D03*
G01*
X1397000Y-7874000D03*
G01*
X1397000Y-7620000D03*
G01*
X1651000Y-7874000D03*
G01*
X1651000Y-7620000D03*
G01*
X1905000Y-7874000D03*
G01*
X1905000Y-7620000D03*
G01*
X2159000Y-7874000D03*
G01*
X2159000Y-7620000D03*
G01*
X2413000Y-7874000D03*
G01*
X2413000Y-7620000D03*
G01*
X2667000Y-7874000D03*
G01*
X2667000Y-7620000D03*
G01*
X2921000Y-7874000D03*
G01*
X2921000Y-7620000D03*
G01*
X3175000Y-7874000D03*
G01*
X3175000Y-7620000D03*
G01*
X3429000Y-7874000D03*
G01*
X3429000Y-7620000D03*
G01*
X3683000Y-7874000D03*
G01*
X3683000Y-7620000D03*
G01*
X3937000Y-7874000D03*
G01*
X3937000Y-7620000D03*
G01*
X4191000Y-7874000D03*
G01*
X4191000Y-7620000D03*
G01*
X4445000Y-7874000D03*
G01*
X4445000Y-7620000D03*
G01*
X4699000Y-7874000D03*
G01*
X4699000Y-7620000D03*
G01*
X4953000Y-7874000D03*
G01*
X4953000Y-7620000D03*
G01*
X5207000Y-7874000D03*
G01*
X5207000Y-7620000D03*
G01*
X5461000Y-7874000D03*
G01*
X5461000Y-7620000D03*
D27*
G01*
X2032000Y-9017000D03*
G01*
X1778000Y-9017000D03*
G01*
X1016000Y-8763000D03*
G01*
X1270000Y-8763000D03*
G01*
X1524000Y-8763000D03*
G01*
X1778000Y-8763000D03*
G01*
X2032000Y-8763000D03*
G01*
X1270000Y-9017000D03*
G01*
X1524000Y-9017000D03*
G36*
X930402Y-9102597D02*
G01*
X930402Y-8931402D01*
X1101597Y-8931402D01*
X1101597Y-9102597D01*
G37*
G01*
X4826000Y-9017000D03*
G01*
X4572000Y-9017000D03*
G01*
X3810000Y-8763000D03*
G01*
X4064000Y-8763000D03*
G01*
X4318000Y-8763000D03*
G01*
X4572000Y-8763000D03*
G01*
X4826000Y-8763000D03*
G01*
X4064000Y-9017000D03*
G01*
X4318000Y-9017000D03*
G36*
X3724402Y-9102597D02*
G01*
X3724402Y-8931402D01*
X3895597Y-8931402D01*
X3895597Y-9102597D01*
G37*
G01*
X4191000Y-6731000D03*
G01*
X3937000Y-6731000D03*
G01*
X3175000Y-6477000D03*
G01*
X3429000Y-6477000D03*
G01*
X3683000Y-6477000D03*
G01*
X3937000Y-6477000D03*
G01*
X4191000Y-6477000D03*
G01*
X3429000Y-6731000D03*
G01*
X3683000Y-6731000D03*
G36*
X3089402Y-6816597D02*
G01*
X3089402Y-6645402D01*
X3260597Y-6645402D01*
X3260597Y-6816597D01*
G37*
G01*
X6350000Y-7747000D03*
G01*
X6350000Y-8001000D03*
G01*
X6096000Y-8763000D03*
G01*
X6096000Y-8509000D03*
G01*
X6096000Y-8255000D03*
G01*
X6096000Y-8001000D03*
G01*
X6096000Y-7747000D03*
G01*
X6350000Y-8509000D03*
G01*
X6350000Y-8255000D03*
G36*
X6264402Y-8848597D02*
G01*
X6264402Y-8677402D01*
X6435597Y-8677402D01*
X6435597Y-8848597D01*
G37*
G36*
X548639Y-5547360D02*
G01*
X548639Y-5374639D01*
X721360Y-5374639D01*
X721360Y-5547360D01*
G37*
D24*
G01*
X889000Y-5461000D03*
G01*
X1143000Y-5461000D03*
G01*
X1397000Y-5461000D03*
G36*
X1818639Y-5547360D02*
G01*
X1818639Y-5374639D01*
X1991359Y-5374639D01*
X1991359Y-5547360D01*
G37*
G01*
X2159000Y-5461000D03*
G01*
X2413000Y-5461000D03*
G01*
X2667000Y-5461000D03*
G36*
X3088640Y-5547360D02*
G01*
X3088640Y-5374639D01*
X3261359Y-5374639D01*
X3261359Y-5547360D01*
G37*
G01*
X3429000Y-5461000D03*
G01*
X3683000Y-5461000D03*
G01*
X3937000Y-5461000D03*
G36*
X4358640Y-5547360D02*
G01*
X4358640Y-5374639D01*
X4531359Y-5374639D01*
X4531359Y-5547360D01*
G37*
G01*
X4699000Y-5461000D03*
G01*
X4953000Y-5461000D03*
G01*
X5207000Y-5461000D03*
G36*
X5628640Y-5547360D02*
G01*
X5628640Y-5374639D01*
X5801359Y-5374639D01*
X5801359Y-5547360D01*
G37*
G01*
X5969000Y-5461000D03*
G01*
X6223000Y-5461000D03*
G01*
X6477000Y-5461000D03*
G36*
X5628640Y-6563360D02*
G01*
X5628640Y-6390639D01*
X5801359Y-6390639D01*
X5801359Y-6563360D01*
G37*
G01*
X5969000Y-6477000D03*
G01*
X6223000Y-6477000D03*
G01*
X6477000Y-6477000D03*
D29*
G01*
X2399995Y-6100013D03*
G01*
X5199989Y-6300012D03*
G01*
X2999993Y-9500006D03*
M02*
