M48
METRIC,LZ,000.000
;FILE_FORMAT=3:3
;TYPE=PLATED
;Layer: PTH_Through
;EasyEDA v6.5.5, 2022-06-01 22:10:18
;81c8d0c65d2c47f1a3a576b13e5828a4,c96cdaf6a0e44fa3bb1e134f2b5c86cb,10
;Gerber Generator version 0.2
;Holesize 1 = 0.301 mm
T01C0.301
;Holesize 2 = 0.813 mm
T02C0.813
;Holesize 3 = 0.900 mm
T03C0.900
;Holesize 4 = 0.915 mm
T04C0.915
;Holesize 5 = 1.000 mm
T05C1.000
;Holesize 6 = 1.021 mm
T06C1.021
;Holesize 7 = 1.301 mm
T07C1.301
;Holesize 8 = 2.000 mm
T08C2.000
;Holesize 9 = 3.000 mm
T09C3.000
;Holesize 10 = 4.000 mm
T10C4.000
%
G05
G90
T01
X016373Y038011
X090980Y078890
X023538Y018329
X043652Y069908
X021298Y045316
X053533Y030836
X048306Y017605
X050797Y015110
T02
X011815Y036510
X011815Y033970
X011815Y031430
X011815Y028890
X011815Y026350
X011815Y023810
X011815Y021270
X011815Y018730
X011815Y016190
X011815Y013650
X011815Y011110
X011815Y008570
X011815Y006030
X011815Y003490
X019435Y003490
X019435Y006030
X019435Y008570
X019435Y011110
X019435Y013650
X019435Y016190
X019435Y018730
X019435Y021270
X019435Y023810
X019435Y026350
X019435Y028890
X019435Y031430
X019435Y033970
X019435Y036510
T03
X036170Y036875
X046330Y036875
X023670Y036875
X033830Y036875
X023670Y033750
X033830Y033750
X036170Y033750
X046330Y033750
X049920Y036875
X060080Y036875
X062785Y036975
X072945Y036975
X049660Y033225
X059820Y033225
X062785Y033225
X072945Y033225
T04
X005000Y020000
X005000Y017460
X005000Y014920
X005000Y012380
X004645Y048470
X004645Y051010
X004645Y053550
X004645Y056090
X004645Y058630
X004645Y061170
X022425Y048470
X022425Y051010
X022425Y053550
X022425Y056090
X022425Y058630
X022425Y061170
X005989Y063890
X011069Y063890
X016149Y063890
X021155Y063964
X029645Y048470
X029645Y051010
X029645Y053550
X029645Y056090
X029645Y058630
X029645Y061170
X047425Y048470
X047425Y051010
X047425Y053550
X047425Y056090
X047425Y058630
X047425Y061170
X030989Y063890
X036069Y063890
X041149Y063890
X046155Y063964
X053395Y048595
X053395Y051135
X053395Y053675
X053395Y056215
X053395Y058755
X053395Y061295
X071175Y048595
X071175Y051135
X071175Y053675
X071175Y056215
X071175Y058755
X071175Y061295
X054739Y064015
X059819Y064015
X064899Y064015
X069905Y064089
X077145Y048470
X077145Y051010
X077145Y053550
X077145Y056090
X077145Y058630
X077145Y061170
X094925Y048470
X094925Y051010
X094925Y053550
X094925Y056090
X094925Y058630
X094925Y061170
X078489Y063890
X083569Y063890
X088649Y063890
X093655Y063964
X028025Y027055
X028025Y024515
X028025Y021975
X028025Y019435
X028025Y016895
X028025Y014355
X028025Y011815
X028025Y009275
X028025Y006735
X028025Y004195
X058025Y027055
X058025Y024515
X058025Y021975
X058025Y019435
X058025Y016895
X058025Y014355
X058025Y011815
X058025Y009275
X058025Y006735
X058025Y004195
X023730Y073810
X023730Y078890
X023730Y081430
X023730Y083970
X023730Y076350
X047480Y073810
X047480Y078890
X047480Y081430
X047480Y083970
X047480Y076350
X071230Y073810
X071230Y078890
X071230Y081430
X071230Y083970
X071230Y076350
X094980Y073810
X094980Y078890
X094980Y081430
X094980Y083970
X094980Y076350
T05
X091250Y012625
X091250Y016125
X080000Y013250
X080000Y016750
X091250Y003250
X091250Y006750
X080000Y003250
X080000Y006750
T06
X005950Y081430
X005950Y076350
X029700Y081430
X029700Y076350
X053450Y081430
X053450Y076350
X077200Y081430
X077200Y076350
T07
X003730Y036250
X006270Y036250
X003105Y026875
X005645Y026875
T08
X019920Y072540
X019920Y085240
X043670Y072540
X043670Y085240
X067420Y072540
X067420Y085240
X091170Y072540
X091170Y085240
T09
X008490Y073810
X008490Y083970
X032240Y073810
X032240Y083970
X055990Y073810
X055990Y083970
X079740Y073810
X079740Y083970
X003000Y003000
X041125Y004250
X070875Y027125
X048000Y005000
X086000Y039000
X048000Y092000
T10
X016100Y093125
X008900Y093125
X039850Y093125
X032650Y093125
X063600Y093125
X056400Y093125
X087350Y093125
X080150Y093125
X092350Y027500
X085150Y027500
M30
