G04 Layer: BottomLayer*
G04 EasyEDA v6.5.5, 2022-06-01 22:10:18*
G04 81c8d0c65d2c47f1a3a576b13e5828a4,c96cdaf6a0e44fa3bb1e134f2b5c86cb,10*
G04 Gerber Generator version 0.2*
G04 Scale: 100 percent, Rotated: No, Reflected: No *
G04 Dimensions in millimeters *
G04 leading zeros omitted , absolute positions ,4 integer and 5 decimal *
%FSLAX45Y45*%
%MOMM*%

%ADD11C,0.5000*%
%ADD12C,5.0000*%
%ADD14C,0.5000*%
%ADD15C,5.4991*%
%ADD16R,1.5240X1.5240*%
%ADD17C,1.5240*%
%ADD18C,1.6764*%
%ADD19C,3.0000*%
%ADD20C,1.8796*%
%ADD21C,2.0000*%
%ADD22C,1.6000*%
%ADD23R,1.4986X1.4986*%
%ADD24C,1.4986*%
%ADD25C,1.5748*%
%ADD26C,3.5000*%
%ADD27C,4.0000*%

%LPD*%
G36*
X9901377Y-36423D02*
G01*
X57353Y355D01*
X53492Y1168D01*
X50190Y3352D01*
X48006Y6654D01*
X47244Y10515D01*
X47244Y9838944D01*
X48006Y9842855D01*
X50241Y9846106D01*
X53492Y9848342D01*
X57404Y9849104D01*
X9901428Y9849104D01*
X9905339Y9848342D01*
X9908590Y9846106D01*
X9910826Y9842855D01*
X9911588Y9838944D01*
X9911588Y-26263D01*
X9910826Y-30175D01*
X9908590Y-33477D01*
X9905288Y-35661D01*
G37*

%LPC*%
G36*
X300024Y74117D02*
G01*
X320852Y75082D01*
X341528Y77927D01*
X361797Y82702D01*
X381609Y89357D01*
X400710Y97790D01*
X418896Y107950D01*
X436118Y119735D01*
X452170Y133045D01*
X466953Y147828D01*
X480263Y163880D01*
X492048Y181102D01*
X502208Y199288D01*
X510641Y218389D01*
X517296Y238201D01*
X522071Y258470D01*
X524916Y279146D01*
X525881Y299974D01*
X524916Y320852D01*
X522071Y341528D01*
X517296Y361797D01*
X510641Y381609D01*
X502208Y400710D01*
X492048Y418896D01*
X480263Y436118D01*
X466953Y452170D01*
X452170Y466953D01*
X436118Y480263D01*
X418896Y492048D01*
X400710Y502208D01*
X381609Y510641D01*
X361797Y517296D01*
X341528Y522071D01*
X320852Y524916D01*
X300024Y525881D01*
X279146Y524916D01*
X258470Y522071D01*
X238201Y517296D01*
X218389Y510641D01*
X199288Y502208D01*
X181102Y492048D01*
X163880Y480263D01*
X147828Y466953D01*
X133045Y452170D01*
X119735Y436118D01*
X107950Y418896D01*
X97790Y400710D01*
X89357Y381609D01*
X82702Y361797D01*
X77927Y341528D01*
X75082Y320852D01*
X74117Y299974D01*
X75082Y279146D01*
X77927Y258470D01*
X82702Y238201D01*
X89357Y218389D01*
X97790Y199288D01*
X107950Y181102D01*
X119735Y163880D01*
X133045Y147828D01*
X147828Y133045D01*
X163880Y119735D01*
X181102Y107950D01*
X199288Y97790D01*
X218389Y89357D01*
X238201Y82702D01*
X258470Y77927D01*
X279146Y75082D01*
G37*
G36*
X1659585Y74320D02*
G01*
X2697784Y74320D01*
X2702407Y74523D01*
X2706827Y75082D01*
X2711145Y76047D01*
X2715412Y77368D01*
X2719476Y79095D01*
X2723438Y81127D01*
X2727147Y83515D01*
X2730703Y86207D01*
X2734157Y89357D01*
X3271012Y626008D01*
X3274212Y629462D01*
X3276904Y632968D01*
X3279292Y636727D01*
X3281324Y640638D01*
X3283051Y644753D01*
X3284372Y648970D01*
X3285337Y653338D01*
X3285896Y657707D01*
X3286099Y662381D01*
X3286099Y1449984D01*
X3286861Y1453845D01*
X3289096Y1457147D01*
X3292398Y1459382D01*
X3296259Y1460144D01*
X5079288Y1460144D01*
X5088585Y1460957D01*
X5097119Y1463243D01*
X5105247Y1467002D01*
X5111394Y1471218D01*
X5118049Y1477568D01*
X5123434Y1484934D01*
X5127345Y1493164D01*
X5129784Y1501952D01*
X5130038Y1504391D01*
X5131054Y1508048D01*
X5133390Y1511096D01*
X5136692Y1513027D01*
X5140452Y1513636D01*
X5144160Y1512824D01*
X5147310Y1510690D01*
X5699963Y958037D01*
X5701995Y955141D01*
X5702858Y951687D01*
X5700623Y934313D01*
X5700623Y920699D01*
X5702452Y907186D01*
X5706059Y894029D01*
X5711393Y881481D01*
X5718352Y869746D01*
X5726785Y859028D01*
X5736590Y849528D01*
X5747562Y841451D01*
X5759551Y834898D01*
X5772251Y830021D01*
X5785510Y826820D01*
X5799074Y825449D01*
X5812739Y825906D01*
X5826150Y828192D01*
X5839206Y832256D01*
X5851550Y837996D01*
X5863031Y845312D01*
X5873445Y854100D01*
X5882640Y864209D01*
X5890310Y875487D01*
X5896508Y887628D01*
X5900978Y900531D01*
X5903671Y913892D01*
X5904585Y927506D01*
X5903671Y941120D01*
X5902198Y948486D01*
X5902045Y951788D01*
X5903010Y954989D01*
X5904941Y957681D01*
X6568287Y1620977D01*
X6571538Y1623212D01*
X6575450Y1623974D01*
X7901584Y1623974D01*
X7904886Y1623415D01*
X7907781Y1621891D01*
X7910068Y1619453D01*
X7916011Y1610563D01*
X7925104Y1600149D01*
X7935518Y1591005D01*
X7947050Y1583283D01*
X7959496Y1577187D01*
X7972602Y1572717D01*
X7986166Y1570024D01*
X7999984Y1569110D01*
X8013801Y1570024D01*
X8027416Y1572717D01*
X8040522Y1577187D01*
X8052917Y1583283D01*
X8064449Y1591005D01*
X8074863Y1600149D01*
X8084007Y1610563D01*
X8091678Y1622044D01*
X8097824Y1634489D01*
X8102295Y1647596D01*
X8104987Y1661160D01*
X8105902Y1675028D01*
X8104987Y1688846D01*
X8102295Y1702409D01*
X8097824Y1715516D01*
X8091678Y1727962D01*
X8084007Y1739442D01*
X8074863Y1749856D01*
X8073085Y1751482D01*
X8070596Y1754682D01*
X8069630Y1758645D01*
X8070240Y1762658D01*
X8072424Y1766112D01*
X8075777Y1768449D01*
X8079790Y1769262D01*
X8892133Y1769262D01*
X8895994Y1768500D01*
X8899296Y1766265D01*
X9019336Y1646072D01*
X9021267Y1643380D01*
X9022232Y1640230D01*
X9022130Y1636928D01*
X9019997Y1626311D01*
X9019133Y1612493D01*
X9019997Y1598676D01*
X9022740Y1585112D01*
X9027160Y1572006D01*
X9033306Y1559560D01*
X9040977Y1548028D01*
X9050121Y1537614D01*
X9060535Y1528521D01*
X9072067Y1520799D01*
X9084462Y1514703D01*
X9097619Y1510233D01*
X9111183Y1507540D01*
X9125000Y1506626D01*
X9138818Y1507540D01*
X9152382Y1510233D01*
X9165539Y1514703D01*
X9177934Y1520799D01*
X9189466Y1528521D01*
X9199880Y1537614D01*
X9209024Y1548028D01*
X9216694Y1559560D01*
X9222841Y1572006D01*
X9227261Y1585112D01*
X9230004Y1598676D01*
X9230868Y1612493D01*
X9230004Y1626311D01*
X9227261Y1639925D01*
X9222841Y1653032D01*
X9216694Y1665427D01*
X9209024Y1676958D01*
X9199880Y1687372D01*
X9189466Y1696516D01*
X9177934Y1704187D01*
X9165539Y1710334D01*
X9152382Y1714804D01*
X9138818Y1717497D01*
X9125000Y1718411D01*
X9111183Y1717497D01*
X9100464Y1715363D01*
X9097162Y1715262D01*
X9093962Y1716227D01*
X9091269Y1718157D01*
X8953601Y1855978D01*
X8950147Y1859178D01*
X8946642Y1861820D01*
X8942882Y1864258D01*
X8938971Y1866290D01*
X8934856Y1868017D01*
X8930640Y1869338D01*
X8926271Y1870303D01*
X8921902Y1870862D01*
X8917228Y1871065D01*
X6502247Y1871065D01*
X6498386Y1871827D01*
X6495084Y1874062D01*
X6492849Y1877364D01*
X6492087Y1881225D01*
X6492087Y2271318D01*
X6491884Y2275992D01*
X6491325Y2280361D01*
X6490360Y2284730D01*
X6489039Y2288946D01*
X6487312Y2293061D01*
X6485280Y2296972D01*
X6482892Y2300732D01*
X6480200Y2304237D01*
X6477000Y2307691D01*
X5764885Y3019602D01*
X5761431Y3022752D01*
X5757926Y3025444D01*
X5754166Y3027832D01*
X5750204Y3029864D01*
X5746140Y3031591D01*
X5741873Y3032912D01*
X5737555Y3033877D01*
X5733135Y3034436D01*
X5728512Y3034639D01*
X4369460Y3034639D01*
X4365599Y3035401D01*
X4362297Y3037636D01*
X3738372Y3661714D01*
X3736492Y3664407D01*
X3735527Y3667506D01*
X3736848Y3687521D01*
X3735933Y3702253D01*
X3733241Y3716731D01*
X3728770Y3730802D01*
X3722624Y3744214D01*
X3714851Y3756761D01*
X3705606Y3768242D01*
X3694988Y3778504D01*
X3683203Y3787444D01*
X3670452Y3794810D01*
X3656837Y3800551D01*
X3642664Y3804615D01*
X3628034Y3806850D01*
X3613302Y3807307D01*
X3598621Y3805936D01*
X3584194Y3802786D01*
X3570274Y3797909D01*
X3557066Y3791305D01*
X3544773Y3783177D01*
X3533546Y3773576D01*
X3523589Y3762654D01*
X3515106Y3750614D01*
X3511448Y3743858D01*
X3509162Y3741013D01*
X3506063Y3739134D01*
X3502507Y3738473D01*
X3497732Y3738473D01*
X3494379Y3739083D01*
X3491382Y3740759D01*
X3489096Y3743299D01*
X3480815Y3756761D01*
X3471570Y3768242D01*
X3461004Y3778504D01*
X3449218Y3787444D01*
X3436416Y3794810D01*
X3422853Y3800551D01*
X3408629Y3804615D01*
X3394049Y3806850D01*
X3379317Y3807307D01*
X3364636Y3805936D01*
X3350209Y3802786D01*
X3336290Y3797909D01*
X3323082Y3791305D01*
X3310737Y3783177D01*
X3299561Y3773576D01*
X3289604Y3762654D01*
X3281070Y3750614D01*
X3274110Y3737610D01*
X3268776Y3723843D01*
X3265170Y3709517D01*
X3263341Y3694887D01*
X3263341Y3680104D01*
X3265170Y3665474D01*
X3268776Y3651148D01*
X3274110Y3637381D01*
X3281070Y3624376D01*
X3289604Y3612337D01*
X3299561Y3601465D01*
X3303574Y3598011D01*
X3306165Y3594557D01*
X3307130Y3590340D01*
X3306216Y3586124D01*
X3303676Y3582670D01*
X3299917Y3580536D01*
X3294430Y3578910D01*
X3290417Y3577234D01*
X3286455Y3575202D01*
X3282696Y3572814D01*
X3279190Y3570122D01*
X3275736Y3566972D01*
X2766771Y3058007D01*
X2763621Y3054553D01*
X2760929Y3051048D01*
X2758541Y3047288D01*
X2756509Y3043326D01*
X2754782Y3039262D01*
X2753461Y3034995D01*
X2752496Y3030677D01*
X2751937Y3026257D01*
X2751734Y3021634D01*
X2751734Y2799740D01*
X2751226Y2796641D01*
X2749804Y2793796D01*
X2747619Y2791561D01*
X2736596Y2783433D01*
X2726791Y2773984D01*
X2718358Y2763266D01*
X2711399Y2751531D01*
X2706065Y2738983D01*
X2702458Y2725826D01*
X2700629Y2712313D01*
X2700629Y2698699D01*
X2702458Y2685186D01*
X2706065Y2672029D01*
X2711399Y2659481D01*
X2718358Y2647746D01*
X2726791Y2637028D01*
X2736596Y2627528D01*
X2747568Y2619451D01*
X2759506Y2612898D01*
X2772257Y2608021D01*
X2785516Y2604820D01*
X2799080Y2603449D01*
X2812745Y2603906D01*
X2826156Y2606192D01*
X2839212Y2610256D01*
X2851556Y2615996D01*
X2863037Y2623312D01*
X2873451Y2632100D01*
X2882595Y2642209D01*
X2890316Y2653487D01*
X2896463Y2665628D01*
X2900984Y2678531D01*
X2903677Y2691892D01*
X2904591Y2705506D01*
X2903677Y2719120D01*
X2900984Y2732481D01*
X2896463Y2745333D01*
X2890316Y2757525D01*
X2882595Y2768752D01*
X2873451Y2778861D01*
X2863037Y2787700D01*
X2858262Y2790748D01*
X2855722Y2793034D01*
X2854096Y2795981D01*
X2853537Y2799334D01*
X2853537Y2996539D01*
X2854299Y3000451D01*
X2856534Y3003702D01*
X3246424Y3393643D01*
X3249930Y3395929D01*
X3254044Y3396640D01*
X3258108Y3395573D01*
X3261360Y3393033D01*
X3263341Y3389376D01*
X3263696Y3385210D01*
X3263341Y3382365D01*
X3263341Y3367633D01*
X3265170Y3352952D01*
X3268776Y3338677D01*
X3274110Y3324910D01*
X3281070Y3311906D01*
X3289604Y3299866D01*
X3299561Y3288944D01*
X3310788Y3279343D01*
X3323082Y3271215D01*
X3336290Y3264611D01*
X3350209Y3259683D01*
X3364636Y3256534D01*
X3379317Y3255162D01*
X3394049Y3255619D01*
X3408629Y3257905D01*
X3422853Y3261969D01*
X3436416Y3267710D01*
X3449218Y3275076D01*
X3461004Y3283965D01*
X3471570Y3294227D01*
X3480815Y3305708D01*
X3489096Y3319170D01*
X3491331Y3321710D01*
X3494379Y3323386D01*
X3497732Y3323996D01*
X3502507Y3323996D01*
X3506063Y3323336D01*
X3509213Y3321456D01*
X3511448Y3318611D01*
X3515106Y3311906D01*
X3523589Y3299866D01*
X3533546Y3288944D01*
X3544773Y3279343D01*
X3557066Y3271215D01*
X3560419Y3269538D01*
X3563416Y3267252D01*
X3565347Y3264103D01*
X3566058Y3260445D01*
X3566058Y3113227D01*
X3566261Y3108604D01*
X3566820Y3104184D01*
X3567785Y3099866D01*
X3569106Y3095599D01*
X3570833Y3091535D01*
X3572865Y3087573D01*
X3575253Y3083814D01*
X3577945Y3080308D01*
X3581095Y3076854D01*
X4829251Y1828749D01*
X4831486Y1825447D01*
X4832248Y1821535D01*
X4831486Y1817674D01*
X4829251Y1814372D01*
X4825949Y1812137D01*
X4822088Y1811375D01*
X3264814Y1811375D01*
X3260953Y1812137D01*
X3257651Y1814372D01*
X2904947Y2167280D01*
X2903016Y2169972D01*
X2902051Y2173173D01*
X2902153Y2176475D01*
X2903677Y2183892D01*
X2904591Y2197506D01*
X2903677Y2211120D01*
X2900984Y2224481D01*
X2896463Y2237333D01*
X2890316Y2249525D01*
X2882595Y2260752D01*
X2873451Y2270861D01*
X2863037Y2279700D01*
X2851556Y2287016D01*
X2839212Y2292756D01*
X2826156Y2296820D01*
X2812745Y2299055D01*
X2799080Y2299512D01*
X2785516Y2298141D01*
X2772257Y2294991D01*
X2759506Y2290114D01*
X2747568Y2283561D01*
X2736596Y2275433D01*
X2726791Y2265984D01*
X2718358Y2255266D01*
X2711399Y2243531D01*
X2706065Y2230983D01*
X2702458Y2217826D01*
X2700629Y2204313D01*
X2700629Y2190699D01*
X2702458Y2177186D01*
X2706065Y2164029D01*
X2711399Y2151481D01*
X2718358Y2139746D01*
X2720187Y2137359D01*
X2721914Y2134108D01*
X2722372Y2130450D01*
X2721508Y2126894D01*
X2719425Y2123897D01*
X2422042Y1826361D01*
X2418791Y1824177D01*
X2414981Y1823415D01*
X2411171Y1824075D01*
X2407869Y1826158D01*
X2405634Y1829307D01*
X2404719Y1833118D01*
X2404516Y1837232D01*
X2403906Y1841957D01*
X2402992Y1845970D01*
X2401468Y1850796D01*
X2399995Y1854301D01*
X2397455Y1859025D01*
X2395575Y1861972D01*
X2392070Y1866442D01*
X2389886Y1868728D01*
X2385466Y1872742D01*
X2383129Y1874469D01*
X2377795Y1877771D01*
X2375509Y1878888D01*
X2367330Y1881936D01*
X2358288Y1883562D01*
X2349398Y1883562D01*
X2340660Y1881987D01*
X2332329Y1878990D01*
X2324658Y1874570D01*
X2317546Y1868576D01*
X2083816Y1635099D01*
X2080615Y1631645D01*
X2077974Y1628139D01*
X2075535Y1624380D01*
X2072589Y1618183D01*
X2069947Y1614525D01*
X2066036Y1612341D01*
X2061514Y1612087D01*
X2057349Y1613763D01*
X2054352Y1617116D01*
X2053031Y1621434D01*
X2052320Y1633016D01*
X2049627Y1646834D01*
X2045207Y1660194D01*
X2039112Y1672843D01*
X2031441Y1684629D01*
X2022297Y1695297D01*
X2011883Y1704797D01*
X2000351Y1712823D01*
X1987905Y1719325D01*
X1974697Y1724152D01*
X1961032Y1727301D01*
X1947011Y1728673D01*
X1932990Y1728216D01*
X1919071Y1725980D01*
X1905609Y1721967D01*
X1892757Y1716278D01*
X1880717Y1708962D01*
X1869744Y1700225D01*
X1859940Y1690116D01*
X1851558Y1678838D01*
X1844649Y1666595D01*
X1839366Y1653590D01*
X1835810Y1639976D01*
X1834032Y1626006D01*
X1834032Y1611985D01*
X1835810Y1598015D01*
X1839366Y1584452D01*
X1844649Y1571396D01*
X1851558Y1559153D01*
X1859940Y1547876D01*
X1869744Y1537766D01*
X1880717Y1529029D01*
X1892757Y1521714D01*
X1905609Y1516024D01*
X1919071Y1512062D01*
X1932990Y1509776D01*
X1947011Y1509369D01*
X1961032Y1510690D01*
X1974697Y1513840D01*
X1987905Y1518666D01*
X2000351Y1525168D01*
X2011883Y1533245D01*
X2022297Y1542694D01*
X2031441Y1553362D01*
X2039112Y1565148D01*
X2045207Y1577848D01*
X2048916Y1589074D01*
X2050948Y1592580D01*
X2054199Y1595018D01*
X2058162Y1596034D01*
X2062175Y1595374D01*
X2065578Y1593189D01*
X2067915Y1589836D01*
X2068728Y1585874D01*
X2068728Y1398117D01*
X2067915Y1394155D01*
X2065578Y1390802D01*
X2062175Y1388618D01*
X2058162Y1388008D01*
X2054199Y1388973D01*
X2050948Y1391412D01*
X2048916Y1394917D01*
X2045207Y1406194D01*
X2039112Y1418844D01*
X2031441Y1430629D01*
X2022297Y1441297D01*
X2011883Y1450797D01*
X2000351Y1458823D01*
X1987905Y1465326D01*
X1974697Y1470152D01*
X1961032Y1473301D01*
X1947011Y1474673D01*
X1932990Y1474216D01*
X1919071Y1471980D01*
X1905609Y1467967D01*
X1892757Y1462278D01*
X1880717Y1454962D01*
X1869744Y1446225D01*
X1859940Y1436116D01*
X1851558Y1424838D01*
X1844649Y1412595D01*
X1839366Y1399590D01*
X1835810Y1385976D01*
X1834032Y1372006D01*
X1834032Y1357985D01*
X1835810Y1344015D01*
X1839366Y1330452D01*
X1844649Y1317396D01*
X1851558Y1305153D01*
X1856028Y1299159D01*
X1857806Y1295196D01*
X1857806Y1290878D01*
X1856028Y1286967D01*
X1852777Y1284173D01*
X1848612Y1282954D01*
X1844344Y1283563D01*
X1840687Y1285900D01*
X1471777Y1654860D01*
X1468323Y1658010D01*
X1464818Y1660702D01*
X1461058Y1663090D01*
X1457096Y1665122D01*
X1453032Y1666849D01*
X1448765Y1668170D01*
X1444447Y1669135D01*
X1440027Y1669694D01*
X1435404Y1669897D01*
X1284528Y1669897D01*
X1281226Y1670456D01*
X1278280Y1672031D01*
X1275994Y1674520D01*
X1269441Y1684629D01*
X1260297Y1695297D01*
X1249883Y1704797D01*
X1238351Y1712823D01*
X1225905Y1719325D01*
X1212697Y1724152D01*
X1199032Y1727301D01*
X1185011Y1728673D01*
X1170990Y1728216D01*
X1157071Y1725980D01*
X1154836Y1725269D01*
X1151229Y1724914D01*
X1147724Y1725777D01*
X1144778Y1727860D01*
X836777Y2035860D01*
X833323Y2039010D01*
X829818Y2041702D01*
X826058Y2044090D01*
X822096Y2046122D01*
X818032Y2047849D01*
X813765Y2049170D01*
X809447Y2050135D01*
X805027Y2050694D01*
X800404Y2050897D01*
X612292Y2050897D01*
X608380Y2051659D01*
X605078Y2053894D01*
X602894Y2057196D01*
X602132Y2061057D01*
X602132Y2075637D01*
X601370Y2081936D01*
X599490Y2087422D01*
X596392Y2092299D01*
X592328Y2096414D01*
X587400Y2099462D01*
X581964Y2101392D01*
X575614Y2102104D01*
X424383Y2102104D01*
X418033Y2101392D01*
X412597Y2099462D01*
X407670Y2096414D01*
X403606Y2092299D01*
X400507Y2087422D01*
X398627Y2081936D01*
X397916Y2075637D01*
X397916Y1924354D01*
X398627Y1918055D01*
X400507Y1912569D01*
X403606Y1907692D01*
X407670Y1903577D01*
X412597Y1900529D01*
X418033Y1898599D01*
X424383Y1897888D01*
X575614Y1897888D01*
X581964Y1898599D01*
X587400Y1900529D01*
X592328Y1903577D01*
X596392Y1907692D01*
X599490Y1912569D01*
X601370Y1918055D01*
X602132Y1924354D01*
X602132Y1938934D01*
X602894Y1942795D01*
X605078Y1946097D01*
X608380Y1948332D01*
X612292Y1949094D01*
X775309Y1949094D01*
X779221Y1948332D01*
X782472Y1946097D01*
X1072794Y1655825D01*
X1074775Y1652981D01*
X1075690Y1649577D01*
X1075436Y1646072D01*
X1073810Y1639976D01*
X1072032Y1626006D01*
X1072032Y1611985D01*
X1073810Y1598015D01*
X1077366Y1584452D01*
X1082649Y1571396D01*
X1089558Y1559153D01*
X1097940Y1547876D01*
X1107744Y1537766D01*
X1118717Y1529029D01*
X1130757Y1521714D01*
X1143609Y1516024D01*
X1157071Y1512062D01*
X1170990Y1509776D01*
X1185011Y1509369D01*
X1199032Y1510690D01*
X1212697Y1513840D01*
X1225905Y1518666D01*
X1238351Y1525168D01*
X1249883Y1533245D01*
X1260297Y1542694D01*
X1269441Y1553362D01*
X1275994Y1563471D01*
X1278229Y1565960D01*
X1281176Y1567535D01*
X1284478Y1568094D01*
X1410309Y1568094D01*
X1414221Y1567332D01*
X1417472Y1565097D01*
X1834794Y1147826D01*
X1836775Y1144981D01*
X1837689Y1141577D01*
X1837436Y1138072D01*
X1835810Y1131976D01*
X1834032Y1118006D01*
X1834032Y1103985D01*
X1835810Y1090015D01*
X1839366Y1076452D01*
X1844649Y1063396D01*
X1851558Y1051153D01*
X1859940Y1039876D01*
X1869744Y1029766D01*
X1880717Y1021029D01*
X1892757Y1013714D01*
X1905609Y1008024D01*
X1919071Y1004062D01*
X1932990Y1001776D01*
X1947011Y1001369D01*
X1961032Y1002690D01*
X1974697Y1005840D01*
X1987905Y1010666D01*
X2000351Y1017168D01*
X2011883Y1025245D01*
X2022297Y1034694D01*
X2031441Y1045362D01*
X2039112Y1057148D01*
X2045207Y1069848D01*
X2049627Y1083157D01*
X2052320Y1096975D01*
X2053183Y1110996D01*
X2052320Y1125016D01*
X2049627Y1138783D01*
X2049525Y1142085D01*
X2050491Y1145235D01*
X2052421Y1147927D01*
X2131872Y1227480D01*
X2135174Y1229715D01*
X2139086Y1230477D01*
X2142947Y1229715D01*
X2146249Y1227531D01*
X2148484Y1224229D01*
X2149246Y1220317D01*
X2149246Y430682D01*
X2148484Y426821D01*
X2146249Y423519D01*
X1981911Y259384D01*
X1978609Y257149D01*
X1974748Y256387D01*
X1858416Y256387D01*
X1854504Y257149D01*
X1851253Y259384D01*
X1290421Y820166D01*
X1288491Y822858D01*
X1287526Y826008D01*
X1287627Y829310D01*
X1290320Y842975D01*
X1291183Y856996D01*
X1290320Y871016D01*
X1287627Y884834D01*
X1283208Y898194D01*
X1277112Y910844D01*
X1269441Y922629D01*
X1260297Y933297D01*
X1249883Y942797D01*
X1238351Y950823D01*
X1225905Y957326D01*
X1212697Y962152D01*
X1199032Y965301D01*
X1185011Y966673D01*
X1170990Y966216D01*
X1157071Y963980D01*
X1154836Y963269D01*
X1151229Y962914D01*
X1147724Y963777D01*
X1144778Y965860D01*
X1102664Y1007922D01*
X1100328Y1011580D01*
X1099718Y1015898D01*
X1101039Y1020064D01*
X1103934Y1023315D01*
X1107948Y1025093D01*
X1112266Y1024991D01*
X1116177Y1023061D01*
X1118717Y1021029D01*
X1130757Y1013714D01*
X1143609Y1008024D01*
X1157071Y1004062D01*
X1170990Y1001776D01*
X1185011Y1001369D01*
X1199032Y1002690D01*
X1212697Y1005840D01*
X1225905Y1010666D01*
X1238351Y1017168D01*
X1249883Y1025245D01*
X1260297Y1034694D01*
X1269441Y1045362D01*
X1277112Y1057148D01*
X1283208Y1069848D01*
X1287627Y1083157D01*
X1290320Y1096975D01*
X1291183Y1110996D01*
X1290320Y1125016D01*
X1287627Y1138834D01*
X1283208Y1152194D01*
X1277112Y1164844D01*
X1269441Y1176629D01*
X1260297Y1187297D01*
X1249883Y1196797D01*
X1238351Y1204823D01*
X1225905Y1211326D01*
X1212697Y1216152D01*
X1199032Y1219301D01*
X1185011Y1220673D01*
X1170990Y1220216D01*
X1157071Y1217980D01*
X1143609Y1213967D01*
X1130757Y1208278D01*
X1118717Y1200962D01*
X1107744Y1192225D01*
X1097940Y1182116D01*
X1089558Y1170838D01*
X1082649Y1158595D01*
X1077366Y1145590D01*
X1073810Y1131976D01*
X1072032Y1118006D01*
X1072032Y1103985D01*
X1073810Y1090015D01*
X1077366Y1076452D01*
X1082649Y1063396D01*
X1089558Y1051153D01*
X1094028Y1045159D01*
X1095806Y1041196D01*
X1095806Y1036878D01*
X1094028Y1032967D01*
X1090777Y1030173D01*
X1086612Y1028953D01*
X1082344Y1029563D01*
X1078687Y1031900D01*
X602386Y1508201D01*
X600710Y1510436D01*
X599694Y1513027D01*
X597509Y1522222D01*
X592582Y1534972D01*
X586028Y1546910D01*
X577951Y1557934D01*
X568452Y1567688D01*
X557784Y1576171D01*
X546049Y1583131D01*
X533501Y1588414D01*
X520344Y1592021D01*
X506831Y1593850D01*
X493166Y1593850D01*
X479653Y1592021D01*
X466496Y1588414D01*
X453948Y1583131D01*
X442214Y1576171D01*
X431546Y1567688D01*
X422046Y1557934D01*
X413969Y1546910D01*
X407416Y1534972D01*
X402488Y1522222D01*
X399338Y1508963D01*
X397967Y1495399D01*
X398424Y1481785D01*
X400710Y1468323D01*
X404723Y1455318D01*
X410464Y1442923D01*
X417830Y1431442D01*
X426618Y1421028D01*
X436727Y1411884D01*
X447954Y1404162D01*
X460146Y1398016D01*
X473049Y1393545D01*
X486409Y1390802D01*
X500024Y1389938D01*
X513588Y1390802D01*
X526948Y1393545D01*
X539851Y1398016D01*
X552399Y1404366D01*
X556463Y1405432D01*
X560628Y1404772D01*
X564134Y1402486D01*
X1072794Y893826D01*
X1074775Y890981D01*
X1075690Y887577D01*
X1075436Y884072D01*
X1073810Y877976D01*
X1072032Y864006D01*
X1072032Y849985D01*
X1073810Y836015D01*
X1077366Y822452D01*
X1082649Y809396D01*
X1089558Y797153D01*
X1097940Y785876D01*
X1107744Y775766D01*
X1118717Y767029D01*
X1130757Y759714D01*
X1143609Y754024D01*
X1157071Y750062D01*
X1170990Y747776D01*
X1185011Y747369D01*
X1199032Y748690D01*
X1208938Y750976D01*
X1212342Y751128D01*
X1215593Y750214D01*
X1218387Y748233D01*
X1260957Y705612D01*
X1263294Y702056D01*
X1263954Y697839D01*
X1262786Y693724D01*
X1260043Y690422D01*
X1256182Y688594D01*
X1251915Y688441D01*
X1248003Y690118D01*
X1238351Y696823D01*
X1225905Y703326D01*
X1212697Y708152D01*
X1199032Y711301D01*
X1185011Y712673D01*
X1170990Y712216D01*
X1157071Y709980D01*
X1143609Y705967D01*
X1130757Y700278D01*
X1124559Y696518D01*
X1120343Y695096D01*
X1115872Y695604D01*
X1112113Y697992D01*
X602488Y1207617D01*
X600608Y1210208D01*
X599643Y1213256D01*
X599643Y1216507D01*
X601573Y1227785D01*
X602030Y1241399D01*
X600659Y1254963D01*
X597509Y1268222D01*
X592582Y1280972D01*
X586028Y1292910D01*
X577951Y1303934D01*
X568452Y1313688D01*
X557784Y1322171D01*
X546049Y1329131D01*
X533501Y1334414D01*
X520344Y1338021D01*
X506831Y1339850D01*
X493166Y1339850D01*
X479653Y1338021D01*
X466496Y1334414D01*
X453948Y1329131D01*
X442214Y1322171D01*
X431546Y1313688D01*
X422046Y1303934D01*
X413969Y1292910D01*
X407416Y1280972D01*
X402488Y1268222D01*
X399338Y1254963D01*
X397967Y1241399D01*
X398424Y1227785D01*
X400710Y1214323D01*
X404723Y1201318D01*
X410464Y1188923D01*
X417830Y1177442D01*
X426618Y1167028D01*
X436727Y1157884D01*
X447954Y1150162D01*
X460146Y1144016D01*
X473049Y1139545D01*
X486409Y1136802D01*
X500024Y1135938D01*
X513588Y1136802D01*
X521309Y1138377D01*
X524611Y1138529D01*
X527812Y1137564D01*
X530504Y1135634D01*
X1069848Y596290D01*
X1071778Y593598D01*
X1072743Y590397D01*
X1073810Y582015D01*
X1077366Y568452D01*
X1082649Y555396D01*
X1089558Y543153D01*
X1097940Y531876D01*
X1107744Y521766D01*
X1118717Y513029D01*
X1130757Y505714D01*
X1143609Y500024D01*
X1157071Y496062D01*
X1170990Y493776D01*
X1185011Y493369D01*
X1199032Y494690D01*
X1208938Y496976D01*
X1212342Y497128D01*
X1215593Y496214D01*
X1218387Y494233D01*
X1260957Y451612D01*
X1263294Y448056D01*
X1263954Y443839D01*
X1262786Y439724D01*
X1260043Y436422D01*
X1256182Y434593D01*
X1251915Y434441D01*
X1248003Y436118D01*
X1238351Y442823D01*
X1225905Y449326D01*
X1212697Y454151D01*
X1199032Y457301D01*
X1185011Y458673D01*
X1170990Y458216D01*
X1157071Y455980D01*
X1143609Y451967D01*
X1130757Y446278D01*
X1118717Y438962D01*
X1107744Y430225D01*
X1097940Y420116D01*
X1089558Y408838D01*
X1082649Y396595D01*
X1077366Y383590D01*
X1073810Y369976D01*
X1072032Y356006D01*
X1072032Y341985D01*
X1073810Y328015D01*
X1077366Y314452D01*
X1082649Y301396D01*
X1089558Y289153D01*
X1097940Y277876D01*
X1107744Y267766D01*
X1118717Y259029D01*
X1130757Y251714D01*
X1143609Y246024D01*
X1157071Y242062D01*
X1170990Y239775D01*
X1185011Y239369D01*
X1199032Y240690D01*
X1212697Y243840D01*
X1225905Y248666D01*
X1238351Y255168D01*
X1249883Y263245D01*
X1260297Y272694D01*
X1269441Y283362D01*
X1277112Y295148D01*
X1283208Y307848D01*
X1287627Y321157D01*
X1290320Y334975D01*
X1291183Y348996D01*
X1290320Y363016D01*
X1287627Y376834D01*
X1283208Y390194D01*
X1277112Y402844D01*
X1269136Y415035D01*
X1267612Y418947D01*
X1267866Y423214D01*
X1269746Y426974D01*
X1273048Y429615D01*
X1277112Y430733D01*
X1281328Y430072D01*
X1284833Y427735D01*
X1623212Y89357D01*
X1626666Y86207D01*
X1630172Y83515D01*
X1633931Y81127D01*
X1637893Y79095D01*
X1641957Y77368D01*
X1646224Y76047D01*
X1650542Y75082D01*
X1654962Y74523D01*
G37*
G36*
X4112514Y199085D02*
G01*
X4133342Y200050D01*
X4154017Y202946D01*
X4174337Y207721D01*
X4194098Y214375D01*
X4213199Y222808D01*
X4231436Y232917D01*
X4248658Y244754D01*
X4264710Y258064D01*
X4279442Y272796D01*
X4292752Y288848D01*
X4304538Y306070D01*
X4314698Y324307D01*
X4323130Y343408D01*
X4329785Y363169D01*
X4334560Y383489D01*
X4337456Y404164D01*
X4338421Y424992D01*
X4337456Y445820D01*
X4334560Y466496D01*
X4329785Y486816D01*
X4323130Y506628D01*
X4314698Y525678D01*
X4304538Y543915D01*
X4292752Y561136D01*
X4279442Y577189D01*
X4264710Y591921D01*
X4248658Y605282D01*
X4231436Y617067D01*
X4213199Y627227D01*
X4194098Y635660D01*
X4174337Y642264D01*
X4154017Y647039D01*
X4133342Y649935D01*
X4112514Y650900D01*
X4091635Y649935D01*
X4071010Y647039D01*
X4050690Y642264D01*
X4030878Y635660D01*
X4011828Y627227D01*
X3993591Y617067D01*
X3976370Y605282D01*
X3960317Y591921D01*
X3945585Y577189D01*
X3932224Y561136D01*
X3920439Y543915D01*
X3910279Y525678D01*
X3901846Y506628D01*
X3895242Y486816D01*
X3890467Y466496D01*
X3887571Y445820D01*
X3886606Y424992D01*
X3887571Y404164D01*
X3890467Y383489D01*
X3895242Y363169D01*
X3901846Y343408D01*
X3910279Y324307D01*
X3920439Y306070D01*
X3932224Y288848D01*
X3945585Y272796D01*
X3960317Y258064D01*
X3976370Y244754D01*
X3993591Y232917D01*
X4011828Y222808D01*
X4030878Y214375D01*
X4050690Y207721D01*
X4071010Y202946D01*
X4091635Y200050D01*
G37*
G36*
X4799990Y274116D02*
G01*
X4820869Y275082D01*
X4841494Y277926D01*
X4861814Y282702D01*
X4881626Y289356D01*
X4900676Y297789D01*
X4918913Y307949D01*
X4936134Y319735D01*
X4952187Y333044D01*
X4966919Y347827D01*
X4980279Y363880D01*
X4992065Y381101D01*
X5002225Y399288D01*
X5010658Y418388D01*
X5017262Y438200D01*
X5022037Y458470D01*
X5024932Y479145D01*
X5025898Y499973D01*
X5024932Y520852D01*
X5022037Y541528D01*
X5017262Y561797D01*
X5010658Y581609D01*
X5002225Y600710D01*
X4992065Y618896D01*
X4980279Y636117D01*
X4966919Y652170D01*
X4952187Y666953D01*
X4936134Y680262D01*
X4918913Y692048D01*
X4900676Y702208D01*
X4881626Y710641D01*
X4861814Y717296D01*
X4841494Y722071D01*
X4820869Y724916D01*
X4799990Y725881D01*
X4779162Y724916D01*
X4758486Y722071D01*
X4738166Y717296D01*
X4718405Y710641D01*
X4699304Y702208D01*
X4681067Y692048D01*
X4663846Y680262D01*
X4647793Y666953D01*
X4633061Y652170D01*
X4619752Y636117D01*
X4607915Y618896D01*
X4597806Y600710D01*
X4589373Y581609D01*
X4582718Y561797D01*
X4577943Y541528D01*
X4575048Y520852D01*
X4574082Y499973D01*
X4575048Y479145D01*
X4577943Y458470D01*
X4582718Y438200D01*
X4589373Y418388D01*
X4597806Y399288D01*
X4607915Y381101D01*
X4619752Y363880D01*
X4633061Y347827D01*
X4647793Y333044D01*
X4663846Y319735D01*
X4681067Y307949D01*
X4699304Y297789D01*
X4718405Y289356D01*
X4738166Y282702D01*
X4758486Y277926D01*
X4779162Y275082D01*
G37*
G36*
X5799074Y317449D02*
G01*
X5812739Y317906D01*
X5826150Y320192D01*
X5839206Y324256D01*
X5851550Y329996D01*
X5863031Y337312D01*
X5873445Y346100D01*
X5882640Y356209D01*
X5890310Y367487D01*
X5896508Y379628D01*
X5900978Y392531D01*
X5903671Y405892D01*
X5904585Y419506D01*
X5903671Y433120D01*
X5902147Y440537D01*
X5902045Y443839D01*
X5903010Y447040D01*
X5904941Y449732D01*
X6076289Y621233D01*
X6079591Y623468D01*
X6083452Y624230D01*
X7901431Y624230D01*
X7904683Y623671D01*
X7907629Y622147D01*
X7909864Y619709D01*
X7916011Y610565D01*
X7925104Y600151D01*
X7935518Y591007D01*
X7947050Y583285D01*
X7959496Y577189D01*
X7972602Y572719D01*
X7986166Y570026D01*
X7999984Y569112D01*
X8013801Y570026D01*
X8027416Y572719D01*
X8040522Y577189D01*
X8052917Y583285D01*
X8064449Y591007D01*
X8074863Y600151D01*
X8084007Y610565D01*
X8091678Y622046D01*
X8097824Y634492D01*
X8102295Y647598D01*
X8104987Y661162D01*
X8105902Y674979D01*
X8104987Y688848D01*
X8102295Y702411D01*
X8097824Y715518D01*
X8091678Y727964D01*
X8084007Y739444D01*
X8074863Y749858D01*
X8071612Y752754D01*
X8069173Y755954D01*
X8068157Y759917D01*
X8068818Y763930D01*
X8071002Y767384D01*
X8074304Y769721D01*
X8078317Y770534D01*
X8953144Y770534D01*
X8957005Y769772D01*
X8960307Y767537D01*
X9019336Y708609D01*
X9021267Y705916D01*
X9022232Y702767D01*
X9022130Y699465D01*
X9019997Y688848D01*
X9019133Y674979D01*
X9019997Y661162D01*
X9022740Y647598D01*
X9027160Y634492D01*
X9033306Y622046D01*
X9040977Y610565D01*
X9050121Y600151D01*
X9060535Y591007D01*
X9072067Y583285D01*
X9084462Y577189D01*
X9097619Y572719D01*
X9111183Y570026D01*
X9125000Y569112D01*
X9138818Y570026D01*
X9152382Y572719D01*
X9165539Y577189D01*
X9177934Y583285D01*
X9189466Y591007D01*
X9199880Y600151D01*
X9209024Y610565D01*
X9216694Y622046D01*
X9222841Y634492D01*
X9227261Y647598D01*
X9230004Y661162D01*
X9230868Y674979D01*
X9230004Y688848D01*
X9227261Y702411D01*
X9222841Y715518D01*
X9216694Y727964D01*
X9209024Y739444D01*
X9199880Y749858D01*
X9189466Y759002D01*
X9177934Y766724D01*
X9165539Y772820D01*
X9152382Y777290D01*
X9138818Y779983D01*
X9125000Y780897D01*
X9111183Y779983D01*
X9100464Y777849D01*
X9097162Y777748D01*
X9094012Y778713D01*
X9091320Y780643D01*
X9014510Y857300D01*
X9011107Y860399D01*
X9007551Y863142D01*
X9003842Y865530D01*
X8999880Y867562D01*
X8995816Y869238D01*
X8991498Y870610D01*
X8987231Y871575D01*
X8982760Y872134D01*
X8978188Y872337D01*
X5950661Y872337D01*
X5945987Y872134D01*
X5941618Y871575D01*
X5937250Y870610D01*
X5933033Y869289D01*
X5928918Y867562D01*
X5925007Y865530D01*
X5921248Y863092D01*
X5917742Y860450D01*
X5914288Y857250D01*
X5833110Y775970D01*
X5830519Y774090D01*
X5827471Y773074D01*
X5824270Y773125D01*
X5812739Y775055D01*
X5799074Y775512D01*
X5785510Y774141D01*
X5772251Y770991D01*
X5759551Y766114D01*
X5747562Y759561D01*
X5736590Y751433D01*
X5726785Y741984D01*
X5718352Y731266D01*
X5711393Y719531D01*
X5706059Y706983D01*
X5702452Y693826D01*
X5700623Y680313D01*
X5700623Y666699D01*
X5702452Y653186D01*
X5706059Y640029D01*
X5711393Y627481D01*
X5718352Y615746D01*
X5726785Y605028D01*
X5736590Y595528D01*
X5747562Y587451D01*
X5759551Y580898D01*
X5772251Y576021D01*
X5785510Y572820D01*
X5799074Y571449D01*
X5812739Y571906D01*
X5826150Y574192D01*
X5839206Y578256D01*
X5851550Y583996D01*
X5863031Y591312D01*
X5873445Y600100D01*
X5882640Y610209D01*
X5890310Y621487D01*
X5896508Y633628D01*
X5900978Y646531D01*
X5903671Y659892D01*
X5904585Y673506D01*
X5903671Y687120D01*
X5902147Y694588D01*
X5902045Y697890D01*
X5903010Y701040D01*
X5904941Y703783D01*
X5968593Y767537D01*
X5971895Y769772D01*
X5975807Y770534D01*
X7921701Y770534D01*
X7925663Y769721D01*
X7929016Y767384D01*
X7931200Y763930D01*
X7931810Y759917D01*
X7930845Y755954D01*
X7928356Y752754D01*
X7925104Y749858D01*
X7916011Y739444D01*
X7910017Y730554D01*
X7907781Y728116D01*
X7904835Y726592D01*
X7901584Y726033D01*
X6058357Y726033D01*
X6053683Y725830D01*
X6049314Y725271D01*
X6044946Y724306D01*
X6040729Y722985D01*
X6036614Y721258D01*
X6032703Y719226D01*
X6028944Y716788D01*
X6025438Y714146D01*
X6021984Y710946D01*
X5833160Y521970D01*
X5830570Y520090D01*
X5827522Y519074D01*
X5824270Y519125D01*
X5812739Y521055D01*
X5799074Y521512D01*
X5785510Y520141D01*
X5772251Y516991D01*
X5759551Y512114D01*
X5747562Y505561D01*
X5736590Y497433D01*
X5726785Y487984D01*
X5718352Y477266D01*
X5711393Y465531D01*
X5706059Y452983D01*
X5702452Y439826D01*
X5700623Y426313D01*
X5700623Y412699D01*
X5702452Y399186D01*
X5706059Y386029D01*
X5711393Y373481D01*
X5718352Y361746D01*
X5726785Y351028D01*
X5736590Y341528D01*
X5747562Y333451D01*
X5759551Y326898D01*
X5772251Y322021D01*
X5785510Y318820D01*
G37*
G36*
X1947011Y1763369D02*
G01*
X1961032Y1764690D01*
X1974697Y1767839D01*
X1987905Y1772666D01*
X2000351Y1779168D01*
X2011883Y1787245D01*
X2022297Y1796694D01*
X2031441Y1807362D01*
X2039112Y1819148D01*
X2045207Y1831848D01*
X2049627Y1845157D01*
X2052320Y1858975D01*
X2053183Y1872996D01*
X2052320Y1887016D01*
X2049627Y1900834D01*
X2045207Y1914194D01*
X2039112Y1926843D01*
X2031441Y1938629D01*
X2022297Y1949297D01*
X2011883Y1958797D01*
X2000351Y1966823D01*
X1987905Y1973325D01*
X1974697Y1978152D01*
X1961032Y1981301D01*
X1947011Y1982673D01*
X1932990Y1982216D01*
X1919071Y1979980D01*
X1905609Y1975967D01*
X1892757Y1970278D01*
X1880717Y1962962D01*
X1869744Y1954225D01*
X1859940Y1944116D01*
X1851558Y1932838D01*
X1844649Y1920595D01*
X1839366Y1907590D01*
X1835810Y1893976D01*
X1834032Y1880006D01*
X1834032Y1865985D01*
X1835810Y1852015D01*
X1839366Y1838452D01*
X1844649Y1825396D01*
X1851558Y1813153D01*
X1859940Y1801875D01*
X1869744Y1791766D01*
X1880717Y1783029D01*
X1892757Y1775714D01*
X1905609Y1770024D01*
X1919071Y1766062D01*
X1932990Y1763775D01*
G37*
G36*
X1947011Y2017369D02*
G01*
X1961032Y2018690D01*
X1974697Y2021839D01*
X1987905Y2026666D01*
X2000351Y2033168D01*
X2011883Y2041245D01*
X2022297Y2050694D01*
X2031441Y2061362D01*
X2039112Y2073148D01*
X2045207Y2085848D01*
X2049627Y2099157D01*
X2052320Y2112975D01*
X2053183Y2126996D01*
X2052320Y2141016D01*
X2049627Y2154834D01*
X2045207Y2168194D01*
X2039112Y2180844D01*
X2031441Y2192629D01*
X2022297Y2203297D01*
X2011883Y2212797D01*
X2000351Y2220823D01*
X1987905Y2227326D01*
X1974697Y2232152D01*
X1961032Y2235301D01*
X1947011Y2236673D01*
X1932990Y2236216D01*
X1919071Y2233980D01*
X1905609Y2229967D01*
X1892757Y2224278D01*
X1880717Y2216962D01*
X1869744Y2208225D01*
X1859940Y2198116D01*
X1851558Y2186838D01*
X1844649Y2174595D01*
X1839366Y2161590D01*
X1835810Y2147976D01*
X1834032Y2134006D01*
X1834032Y2119985D01*
X1835810Y2106015D01*
X1839366Y2092452D01*
X1844649Y2079396D01*
X1851558Y2067153D01*
X1859940Y2055875D01*
X1869744Y2045766D01*
X1880717Y2037029D01*
X1892757Y2029714D01*
X1905609Y2024024D01*
X1919071Y2020062D01*
X1932990Y2017775D01*
G37*
G36*
X1947011Y2271369D02*
G01*
X1961032Y2272690D01*
X1974697Y2275840D01*
X1987905Y2280666D01*
X2000351Y2287168D01*
X2011883Y2295245D01*
X2022297Y2304694D01*
X2031441Y2315362D01*
X2039112Y2327148D01*
X2045207Y2339848D01*
X2049627Y2353157D01*
X2052320Y2366975D01*
X2053183Y2380996D01*
X2052320Y2395016D01*
X2049627Y2408834D01*
X2045207Y2422194D01*
X2039112Y2434844D01*
X2031441Y2446629D01*
X2022297Y2457297D01*
X2011883Y2466797D01*
X2000351Y2474823D01*
X1987905Y2481326D01*
X1974697Y2486152D01*
X1961032Y2489301D01*
X1947011Y2490673D01*
X1932990Y2490216D01*
X1919071Y2487980D01*
X1916836Y2487269D01*
X1913229Y2486914D01*
X1909724Y2487777D01*
X1906778Y2489860D01*
X1864664Y2531922D01*
X1862328Y2535580D01*
X1861718Y2539898D01*
X1863039Y2544064D01*
X1865934Y2547315D01*
X1869948Y2549093D01*
X1874266Y2548991D01*
X1878177Y2547061D01*
X1880717Y2545029D01*
X1892757Y2537714D01*
X1905609Y2532024D01*
X1919071Y2528062D01*
X1932990Y2525776D01*
X1947011Y2525369D01*
X1961032Y2526690D01*
X1974697Y2529840D01*
X1987905Y2534666D01*
X2000351Y2541168D01*
X2011883Y2549245D01*
X2022297Y2558694D01*
X2031441Y2569362D01*
X2039112Y2581148D01*
X2045207Y2593848D01*
X2049627Y2607157D01*
X2052320Y2620975D01*
X2053183Y2634996D01*
X2052320Y2649016D01*
X2049627Y2662834D01*
X2045207Y2676194D01*
X2039112Y2688844D01*
X2031441Y2700629D01*
X2022297Y2711297D01*
X2011883Y2720797D01*
X2000351Y2728823D01*
X1987905Y2735326D01*
X1974697Y2740152D01*
X1961032Y2743301D01*
X1947011Y2744673D01*
X1932990Y2744216D01*
X1919071Y2741980D01*
X1916734Y2741269D01*
X1913128Y2740863D01*
X1909622Y2741726D01*
X1906676Y2743809D01*
X1863699Y2786684D01*
X1861362Y2790393D01*
X1860753Y2794711D01*
X1862023Y2798876D01*
X1864918Y2802128D01*
X1868932Y2803855D01*
X1873300Y2803753D01*
X1877212Y2801823D01*
X1880717Y2799029D01*
X1892757Y2791714D01*
X1905609Y2786024D01*
X1919071Y2782062D01*
X1932990Y2779776D01*
X1947011Y2779369D01*
X1961032Y2780690D01*
X1974697Y2783840D01*
X1987905Y2788666D01*
X2000351Y2795168D01*
X2011883Y2803245D01*
X2022297Y2812694D01*
X2031441Y2823362D01*
X2039112Y2835148D01*
X2045207Y2847848D01*
X2049627Y2861157D01*
X2052320Y2874975D01*
X2053183Y2888996D01*
X2052320Y2903016D01*
X2049627Y2916834D01*
X2045207Y2930194D01*
X2039112Y2942844D01*
X2031441Y2954629D01*
X2022297Y2965297D01*
X2011883Y2974797D01*
X2000351Y2982823D01*
X1987905Y2989326D01*
X1974697Y2994152D01*
X1961032Y2997301D01*
X1947011Y2998673D01*
X1932990Y2998216D01*
X1919071Y2995980D01*
X1905609Y2991967D01*
X1892757Y2986278D01*
X1880717Y2978962D01*
X1869744Y2970225D01*
X1866188Y2966516D01*
X1862886Y2964281D01*
X1858975Y2963418D01*
X1855063Y2964180D01*
X1851710Y2966364D01*
X1849526Y2969666D01*
X1848713Y2973578D01*
X1848713Y3677513D01*
X1849475Y3681374D01*
X1851710Y3684676D01*
X2102916Y3935679D01*
X2106218Y3937914D01*
X2110130Y3938676D01*
X6603034Y3938676D01*
X6607657Y3938879D01*
X6612077Y3939438D01*
X6616395Y3940403D01*
X6620662Y3941724D01*
X6624777Y3943451D01*
X6628688Y3945483D01*
X6632448Y3947871D01*
X6635953Y3950563D01*
X6639407Y3953764D01*
X7684008Y4998567D01*
X7686802Y5000548D01*
X7690103Y5001514D01*
X7693558Y5001310D01*
X7697520Y5000345D01*
X7711084Y4998974D01*
X7724698Y4999431D01*
X7738160Y5001717D01*
X7751216Y5005730D01*
X7763560Y5011470D01*
X7775041Y5018836D01*
X7785455Y5027625D01*
X7794599Y5037734D01*
X7802321Y5048961D01*
X7808468Y5061153D01*
X7812938Y5074005D01*
X7815681Y5087416D01*
X7816596Y5100980D01*
X7815681Y5114594D01*
X7812938Y5127955D01*
X7808468Y5140858D01*
X7802321Y5152999D01*
X7794599Y5164277D01*
X7785455Y5174386D01*
X7775041Y5183174D01*
X7763560Y5190540D01*
X7751216Y5196281D01*
X7738160Y5200294D01*
X7724698Y5202580D01*
X7711084Y5203037D01*
X7697520Y5201666D01*
X7684262Y5198516D01*
X7671511Y5193588D01*
X7659573Y5187035D01*
X7648600Y5178958D01*
X7638796Y5169458D01*
X7630312Y5158790D01*
X7623403Y5147056D01*
X7618069Y5134508D01*
X7614462Y5121351D01*
X7612634Y5107838D01*
X7612634Y5094173D01*
X7614564Y5080355D01*
X7614869Y5076850D01*
X7613954Y5073396D01*
X7611922Y5070500D01*
X6585102Y4043476D01*
X6581851Y4041241D01*
X6577939Y4040479D01*
X2118207Y4040479D01*
X2114346Y4041241D01*
X2111044Y4043476D01*
X2108809Y4046778D01*
X2108047Y4050639D01*
X2108809Y4054551D01*
X2111044Y4057853D01*
X2207615Y4154373D01*
X2210866Y4156608D01*
X2214778Y4157370D01*
X4878374Y4157370D01*
X4882997Y4157573D01*
X4887417Y4158132D01*
X4891735Y4159097D01*
X4896002Y4160418D01*
X4900066Y4162145D01*
X4904028Y4164177D01*
X4907788Y4166565D01*
X4911293Y4169257D01*
X4914747Y4172407D01*
X5523026Y4780686D01*
X5526176Y4784140D01*
X5528868Y4787646D01*
X5531256Y4791405D01*
X5533288Y4795367D01*
X5535015Y4799431D01*
X5536336Y4803698D01*
X5537301Y4808016D01*
X5537860Y4812436D01*
X5538063Y4817059D01*
X5538063Y4965496D01*
X5537860Y4970068D01*
X5537301Y4974539D01*
X5536336Y4978806D01*
X5534964Y4983124D01*
X5533288Y4987188D01*
X5531256Y4991150D01*
X5528868Y4994859D01*
X5526125Y4998415D01*
X5523026Y5001818D01*
X5441899Y5083098D01*
X5439968Y5085791D01*
X5439003Y5088991D01*
X5439105Y5092293D01*
X5440680Y5099913D01*
X5441594Y5113477D01*
X5440680Y5127091D01*
X5437936Y5140452D01*
X5433466Y5153355D01*
X5427319Y5165547D01*
X5419598Y5176774D01*
X5410454Y5186883D01*
X5400040Y5195671D01*
X5388559Y5203037D01*
X5376214Y5208778D01*
X5363159Y5212791D01*
X5349697Y5215077D01*
X5336082Y5215534D01*
X5322519Y5214162D01*
X5309260Y5211013D01*
X5296509Y5206085D01*
X5284571Y5199532D01*
X5273598Y5191455D01*
X5263794Y5181955D01*
X5255310Y5171287D01*
X5248402Y5159552D01*
X5243068Y5147005D01*
X5239461Y5133848D01*
X5237632Y5120335D01*
X5237632Y5106670D01*
X5239461Y5093157D01*
X5243068Y5080000D01*
X5248402Y5067452D01*
X5255310Y5055717D01*
X5263794Y5044998D01*
X5273598Y5035550D01*
X5284571Y5027472D01*
X5296509Y5020919D01*
X5309260Y5015992D01*
X5322519Y5012842D01*
X5336082Y5011470D01*
X5349697Y5011928D01*
X5361127Y5013858D01*
X5364327Y5013858D01*
X5367375Y5012893D01*
X5370017Y5011013D01*
X5433263Y4947615D01*
X5435498Y4944313D01*
X5436260Y4940452D01*
X5436260Y4842154D01*
X5435498Y4838242D01*
X5433263Y4834991D01*
X4860442Y4262170D01*
X4857191Y4259935D01*
X4853279Y4259173D01*
X2189683Y4259173D01*
X2185060Y4258970D01*
X2180640Y4258411D01*
X2176322Y4257446D01*
X2172055Y4256125D01*
X2167991Y4254398D01*
X2164029Y4252366D01*
X2160270Y4249978D01*
X2156764Y4247286D01*
X2153310Y4244136D01*
X1705305Y3796080D01*
X1702104Y3793896D01*
X1698345Y3793083D01*
X1694586Y3793744D01*
X1691284Y3795674D01*
X1688998Y3798773D01*
X1687982Y3802430D01*
X1687372Y3810000D01*
X1685086Y3818483D01*
X1681327Y3826560D01*
X1676298Y3833774D01*
X1668932Y3840886D01*
X1661414Y3845915D01*
X1652981Y3849471D01*
X1643989Y3851554D01*
X1636928Y3852011D01*
X1120089Y3852011D01*
X1115466Y3851808D01*
X1111046Y3851249D01*
X1106728Y3850284D01*
X1102461Y3848963D01*
X1098397Y3847236D01*
X1094435Y3845204D01*
X1090676Y3842816D01*
X1087170Y3840124D01*
X1083716Y3836974D01*
X274777Y3028035D01*
X271627Y3024581D01*
X268935Y3021076D01*
X266547Y3017316D01*
X264515Y3013354D01*
X262788Y3009290D01*
X261467Y3005023D01*
X260502Y3000705D01*
X259943Y2996285D01*
X259740Y2991662D01*
X259740Y2809036D01*
X258978Y2805226D01*
X256895Y2801975D01*
X253746Y2799740D01*
X252018Y2798978D01*
X238963Y2791104D01*
X227025Y2781706D01*
X216255Y2770987D01*
X206908Y2758998D01*
X199034Y2745994D01*
X192786Y2732125D01*
X188264Y2717647D01*
X185521Y2702661D01*
X184607Y2687523D01*
X185521Y2672334D01*
X188264Y2657348D01*
X192786Y2642870D01*
X199034Y2629001D01*
X206908Y2615996D01*
X216255Y2604008D01*
X227025Y2593289D01*
X238963Y2583891D01*
X252018Y2576017D01*
X265836Y2569768D01*
X280365Y2565247D01*
X295300Y2562504D01*
X310489Y2561590D01*
X325678Y2562504D01*
X340614Y2565247D01*
X355142Y2569768D01*
X369011Y2576017D01*
X382016Y2583891D01*
X394004Y2593289D01*
X404723Y2604008D01*
X414121Y2615996D01*
X421944Y2629001D01*
X428193Y2642870D01*
X432714Y2657348D01*
X435457Y2672334D01*
X436372Y2687523D01*
X435457Y2702661D01*
X432714Y2717647D01*
X428193Y2732125D01*
X421944Y2745994D01*
X414121Y2758998D01*
X404723Y2770987D01*
X394004Y2781706D01*
X382016Y2791104D01*
X364388Y2801874D01*
X362305Y2805074D01*
X361543Y2808884D01*
X361543Y2966567D01*
X362305Y2970479D01*
X364540Y2973730D01*
X1138021Y3747211D01*
X1141272Y3749446D01*
X1145184Y3750208D01*
X1636826Y3750208D01*
X1646123Y3751021D01*
X1649577Y3751935D01*
X1653539Y3752189D01*
X1657299Y3750919D01*
X1660296Y3748278D01*
X1662023Y3744671D01*
X1662226Y3740708D01*
X1661515Y3735425D01*
X1661312Y3730802D01*
X1661312Y2612593D01*
X1661515Y2607970D01*
X1662074Y2603550D01*
X1663039Y2599232D01*
X1664360Y2594965D01*
X1666087Y2590901D01*
X1668119Y2586939D01*
X1670507Y2583180D01*
X1673199Y2579674D01*
X1676349Y2576220D01*
X1834794Y2417826D01*
X1836775Y2414981D01*
X1837689Y2411577D01*
X1837436Y2408072D01*
X1835810Y2401976D01*
X1834032Y2388006D01*
X1834032Y2373985D01*
X1835810Y2360015D01*
X1839366Y2346452D01*
X1844649Y2333396D01*
X1851558Y2321153D01*
X1859940Y2309876D01*
X1869744Y2299766D01*
X1880717Y2291029D01*
X1892757Y2283714D01*
X1905609Y2278024D01*
X1919071Y2274062D01*
X1932990Y2271776D01*
G37*
G36*
X8502904Y2449372D02*
G01*
X8527135Y2449372D01*
X8551265Y2451354D01*
X8575192Y2455214D01*
X8598712Y2461006D01*
X8621674Y2468676D01*
X8643975Y2478176D01*
X8665413Y2489454D01*
X8685936Y2502408D01*
X8705291Y2516936D01*
X8723426Y2533040D01*
X8740190Y2550515D01*
X8755532Y2569260D01*
X8769299Y2589225D01*
X8781389Y2610205D01*
X8791803Y2632049D01*
X8800388Y2654706D01*
X8807094Y2678023D01*
X8811971Y2701747D01*
X8814866Y2725775D01*
X8815882Y2750007D01*
X8814866Y2774188D01*
X8811971Y2798267D01*
X8807094Y2821990D01*
X8800388Y2845257D01*
X8791803Y2867914D01*
X8781389Y2889808D01*
X8769299Y2910789D01*
X8755532Y2930753D01*
X8740190Y2949498D01*
X8723426Y2966974D01*
X8705291Y2983026D01*
X8685936Y2997606D01*
X8665413Y3010560D01*
X8643975Y3021787D01*
X8621674Y3031286D01*
X8598712Y3038957D01*
X8575192Y3044748D01*
X8551265Y3048660D01*
X8527135Y3050590D01*
X8502904Y3050590D01*
X8478723Y3048660D01*
X8454847Y3044748D01*
X8431326Y3038957D01*
X8408314Y3031286D01*
X8386013Y3021787D01*
X8364575Y3010560D01*
X8344103Y2997606D01*
X8324748Y2983026D01*
X8306612Y2966974D01*
X8289798Y2949498D01*
X8274507Y2930753D01*
X8260740Y2910789D01*
X8248599Y2889808D01*
X8238236Y2867914D01*
X8229650Y2845257D01*
X8222894Y2821990D01*
X8218068Y2798267D01*
X8215122Y2774188D01*
X8214156Y2750007D01*
X8215122Y2725775D01*
X8218068Y2701747D01*
X8222894Y2678023D01*
X8229650Y2654706D01*
X8238236Y2632049D01*
X8248599Y2610205D01*
X8260740Y2589225D01*
X8274507Y2569260D01*
X8289798Y2550515D01*
X8306612Y2533040D01*
X8324748Y2516936D01*
X8344103Y2502408D01*
X8364575Y2489454D01*
X8386013Y2478176D01*
X8408314Y2468676D01*
X8431326Y2461006D01*
X8454847Y2455214D01*
X8478723Y2451354D01*
G37*
G36*
X7087514Y2486609D02*
G01*
X7108342Y2487574D01*
X7129018Y2490470D01*
X7149338Y2495245D01*
X7169099Y2501849D01*
X7188200Y2510282D01*
X7206437Y2520442D01*
X7223607Y2532227D01*
X7239660Y2545537D01*
X7254443Y2560320D01*
X7267752Y2576372D01*
X7279538Y2593594D01*
X7289698Y2611831D01*
X7298131Y2630881D01*
X7304786Y2650693D01*
X7309561Y2671013D01*
X7312456Y2691638D01*
X7313371Y2712516D01*
X7312456Y2733344D01*
X7309561Y2754020D01*
X7304786Y2774340D01*
X7298131Y2794101D01*
X7289698Y2813202D01*
X7279538Y2831439D01*
X7267752Y2848610D01*
X7254443Y2864662D01*
X7239660Y2879445D01*
X7223607Y2892755D01*
X7206437Y2904540D01*
X7188200Y2914700D01*
X7169099Y2923133D01*
X7149338Y2929788D01*
X7129018Y2934563D01*
X7108342Y2937408D01*
X7087514Y2938373D01*
X7066635Y2937408D01*
X7046010Y2934563D01*
X7025690Y2929788D01*
X7005878Y2923133D01*
X6986828Y2914700D01*
X6968591Y2904540D01*
X6951370Y2892755D01*
X6935317Y2879445D01*
X6920534Y2864662D01*
X6907225Y2848610D01*
X6895439Y2831439D01*
X6885279Y2813202D01*
X6876846Y2794101D01*
X6870242Y2774340D01*
X6865467Y2754020D01*
X6862572Y2733344D01*
X6861606Y2712516D01*
X6862572Y2691638D01*
X6865467Y2671013D01*
X6870242Y2650693D01*
X6876846Y2630881D01*
X6885279Y2611831D01*
X6895439Y2593594D01*
X6907225Y2576372D01*
X6920534Y2560320D01*
X6935317Y2545537D01*
X6951370Y2532227D01*
X6968591Y2520442D01*
X6986828Y2510282D01*
X7005878Y2501849D01*
X7025690Y2495245D01*
X7046010Y2490470D01*
X7066635Y2487574D01*
G37*
G36*
X4962296Y3202686D02*
G01*
X4977079Y3203143D01*
X4991658Y3205429D01*
X5005832Y3209442D01*
X5019446Y3215182D01*
X5032197Y3222599D01*
X5043982Y3231489D01*
X5054600Y3241751D01*
X5063845Y3253232D01*
X5071618Y3265779D01*
X5077764Y3279190D01*
X5082235Y3293262D01*
X5084978Y3307791D01*
X5085892Y3322523D01*
X5084978Y3337255D01*
X5082235Y3351733D01*
X5077764Y3365804D01*
X5071618Y3379215D01*
X5063845Y3391763D01*
X5054600Y3403244D01*
X5043982Y3413556D01*
X5032197Y3422446D01*
X5019446Y3429812D01*
X5005832Y3435553D01*
X4991658Y3439617D01*
X4977079Y3441852D01*
X4962296Y3442309D01*
X4947615Y3440937D01*
X4933188Y3437788D01*
X4919268Y3432911D01*
X4906060Y3426307D01*
X4893767Y3418179D01*
X4882540Y3408578D01*
X4872634Y3397656D01*
X4864100Y3385616D01*
X4857089Y3372612D01*
X4851755Y3358845D01*
X4848199Y3344519D01*
X4846370Y3329889D01*
X4846370Y3315106D01*
X4848199Y3300476D01*
X4851755Y3286150D01*
X4857089Y3272383D01*
X4864100Y3259378D01*
X4872634Y3247339D01*
X4882540Y3236468D01*
X4893767Y3226866D01*
X4906060Y3218688D01*
X4919268Y3212134D01*
X4933188Y3207207D01*
X4947615Y3204057D01*
G37*
G36*
X5978296Y3202686D02*
G01*
X5993079Y3203143D01*
X6007658Y3205429D01*
X6021832Y3209442D01*
X6035446Y3215182D01*
X6048197Y3222599D01*
X6059982Y3231489D01*
X6070600Y3241751D01*
X6079845Y3253232D01*
X6088176Y3266795D01*
X6090412Y3269386D01*
X6093409Y3271062D01*
X6096812Y3271672D01*
X6163919Y3271672D01*
X6167475Y3271012D01*
X6170625Y3269132D01*
X6172860Y3266287D01*
X6176568Y3259378D01*
X6185103Y3247339D01*
X6195060Y3236468D01*
X6206286Y3226866D01*
X6218580Y3218688D01*
X6231788Y3212134D01*
X6245707Y3207207D01*
X6260134Y3204057D01*
X6274816Y3202686D01*
X6289548Y3203143D01*
X6304127Y3205429D01*
X6318351Y3209442D01*
X6331915Y3215182D01*
X6344716Y3222599D01*
X6356502Y3231489D01*
X6367068Y3241751D01*
X6376314Y3253232D01*
X6384086Y3265779D01*
X6390284Y3279190D01*
X6394754Y3293262D01*
X6397447Y3307791D01*
X6398361Y3322523D01*
X6397447Y3337255D01*
X6394754Y3351733D01*
X6390284Y3365804D01*
X6384086Y3379215D01*
X6376314Y3391763D01*
X6367068Y3403244D01*
X6356502Y3413556D01*
X6344716Y3422446D01*
X6331915Y3429812D01*
X6318351Y3435553D01*
X6304127Y3439617D01*
X6289548Y3441852D01*
X6274816Y3442309D01*
X6260134Y3440937D01*
X6245707Y3437788D01*
X6231788Y3432911D01*
X6218580Y3426307D01*
X6206286Y3418179D01*
X6195060Y3408578D01*
X6185103Y3397656D01*
X6176568Y3385616D01*
X6172962Y3378860D01*
X6170676Y3376015D01*
X6167577Y3374136D01*
X6164021Y3373475D01*
X6096762Y3373475D01*
X6093358Y3374085D01*
X6090361Y3375761D01*
X6088075Y3378301D01*
X6079845Y3391763D01*
X6070600Y3403244D01*
X6059982Y3413556D01*
X6048197Y3422446D01*
X6035446Y3429812D01*
X6021832Y3435553D01*
X6007658Y3439617D01*
X5993079Y3441852D01*
X5978296Y3442309D01*
X5963615Y3440937D01*
X5949188Y3437788D01*
X5935268Y3432911D01*
X5922060Y3426307D01*
X5909767Y3418179D01*
X5898540Y3408578D01*
X5888634Y3397656D01*
X5880100Y3385616D01*
X5873089Y3372612D01*
X5867755Y3358845D01*
X5864199Y3344519D01*
X5862370Y3329889D01*
X5862370Y3315106D01*
X5864199Y3300476D01*
X5867755Y3286150D01*
X5873089Y3272383D01*
X5880100Y3259378D01*
X5888634Y3247339D01*
X5898540Y3236468D01*
X5909767Y3226866D01*
X5922060Y3218688D01*
X5935268Y3212134D01*
X5949188Y3207207D01*
X5963615Y3204057D01*
G37*
G36*
X2363317Y3255162D02*
G01*
X2378049Y3255619D01*
X2392629Y3257905D01*
X2406853Y3261969D01*
X2420416Y3267710D01*
X2433218Y3275076D01*
X2445004Y3283965D01*
X2455570Y3294227D01*
X2464816Y3305759D01*
X2472588Y3318306D01*
X2478786Y3331718D01*
X2483256Y3345738D01*
X2485948Y3360267D01*
X2486863Y3374999D01*
X2485948Y3389731D01*
X2483256Y3404260D01*
X2478786Y3418281D01*
X2472588Y3431692D01*
X2464816Y3444240D01*
X2455570Y3455771D01*
X2445004Y3466033D01*
X2433218Y3474923D01*
X2420416Y3482289D01*
X2406853Y3488029D01*
X2392629Y3492093D01*
X2378049Y3494379D01*
X2363317Y3494786D01*
X2348636Y3493465D01*
X2334209Y3490315D01*
X2320290Y3485387D01*
X2307082Y3478784D01*
X2294788Y3470656D01*
X2283561Y3461054D01*
X2273604Y3450132D01*
X2265070Y3438093D01*
X2258110Y3425088D01*
X2252776Y3411321D01*
X2249170Y3397046D01*
X2247341Y3382365D01*
X2247341Y3367633D01*
X2249170Y3352952D01*
X2252776Y3338677D01*
X2258110Y3324910D01*
X2265070Y3311906D01*
X2273604Y3299866D01*
X2283561Y3288944D01*
X2294788Y3279343D01*
X2307082Y3271215D01*
X2320290Y3264611D01*
X2334209Y3259683D01*
X2348636Y3256534D01*
G37*
G36*
X373024Y3499104D02*
G01*
X388162Y3500018D01*
X403148Y3502761D01*
X417626Y3507282D01*
X431495Y3513531D01*
X444500Y3521405D01*
X456488Y3530752D01*
X467207Y3541522D01*
X476605Y3553510D01*
X484479Y3566515D01*
X490728Y3580434D01*
X492963Y3583584D01*
X496214Y3585667D01*
X500024Y3586429D01*
X503783Y3585667D01*
X507034Y3583584D01*
X509270Y3580434D01*
X515518Y3566515D01*
X523392Y3553510D01*
X532790Y3541522D01*
X543509Y3530752D01*
X555498Y3521405D01*
X568502Y3513531D01*
X582371Y3507282D01*
X596849Y3502761D01*
X611835Y3500018D01*
X627024Y3499104D01*
X642162Y3500018D01*
X657148Y3502761D01*
X671626Y3507282D01*
X685495Y3513531D01*
X698500Y3521405D01*
X710488Y3530752D01*
X721207Y3541522D01*
X730605Y3553510D01*
X738479Y3566515D01*
X744728Y3580333D01*
X749249Y3594862D01*
X751992Y3609848D01*
X752906Y3624986D01*
X751992Y3640175D01*
X749249Y3655110D01*
X746252Y3664762D01*
X745794Y3668369D01*
X746658Y3671925D01*
X748741Y3674973D01*
X1867204Y4793183D01*
X1870506Y4795418D01*
X1874418Y4796180D01*
X2148433Y4796180D01*
X2151888Y4795570D01*
X2154885Y4793843D01*
X2157171Y4791202D01*
X2158339Y4789220D01*
X2166772Y4778502D01*
X2176576Y4769053D01*
X2187549Y4760976D01*
X2199538Y4754422D01*
X2212238Y4749495D01*
X2225497Y4746345D01*
X2239111Y4744974D01*
X2252726Y4745431D01*
X2266188Y4747717D01*
X2279192Y4751730D01*
X2291537Y4757470D01*
X2303068Y4764836D01*
X2313482Y4773625D01*
X2322626Y4783734D01*
X2330348Y4794961D01*
X2336495Y4807153D01*
X2340965Y4820005D01*
X2343658Y4833416D01*
X2344572Y4846980D01*
X2343658Y4860594D01*
X2340965Y4873955D01*
X2336495Y4886858D01*
X2330348Y4898999D01*
X2322626Y4910277D01*
X2313482Y4920386D01*
X2303068Y4929174D01*
X2291537Y4936540D01*
X2279192Y4942281D01*
X2266188Y4946294D01*
X2252726Y4948580D01*
X2239111Y4949037D01*
X2225497Y4947666D01*
X2212238Y4944516D01*
X2199538Y4939588D01*
X2187549Y4933035D01*
X2176576Y4924958D01*
X2166772Y4915458D01*
X2154986Y4900320D01*
X2151989Y4898593D01*
X2148535Y4897983D01*
X1849323Y4897983D01*
X1844700Y4897780D01*
X1840280Y4897221D01*
X1835962Y4896256D01*
X1831695Y4894935D01*
X1827631Y4893208D01*
X1823669Y4891176D01*
X1819910Y4888788D01*
X1816404Y4886096D01*
X1812950Y4882946D01*
X676656Y3746855D01*
X673658Y3744772D01*
X670102Y3743909D01*
X666445Y3744315D01*
X657148Y3747211D01*
X642162Y3749954D01*
X627024Y3750868D01*
X611835Y3749954D01*
X596849Y3747211D01*
X592886Y3745992D01*
X588416Y3745636D01*
X584250Y3747211D01*
X581152Y3750411D01*
X579780Y3754678D01*
X580288Y3759098D01*
X582676Y3762857D01*
X1867204Y5047183D01*
X1870506Y5049418D01*
X1874418Y5050180D01*
X2148433Y5050180D01*
X2151888Y5049570D01*
X2154885Y5047843D01*
X2157171Y5045202D01*
X2158339Y5043220D01*
X2166772Y5032502D01*
X2176576Y5023053D01*
X2187549Y5014976D01*
X2199538Y5008422D01*
X2212238Y5003495D01*
X2225497Y5000345D01*
X2239111Y4998974D01*
X2252726Y4999431D01*
X2266188Y5001717D01*
X2279192Y5005730D01*
X2291537Y5011470D01*
X2303068Y5018836D01*
X2313482Y5027625D01*
X2322626Y5037734D01*
X2330348Y5048961D01*
X2336495Y5061153D01*
X2340965Y5074005D01*
X2343658Y5087416D01*
X2344572Y5100980D01*
X2343658Y5114594D01*
X2340965Y5127955D01*
X2336495Y5140858D01*
X2330348Y5152999D01*
X2322626Y5164277D01*
X2313482Y5174386D01*
X2303068Y5183174D01*
X2291537Y5190540D01*
X2279192Y5196281D01*
X2266188Y5200294D01*
X2252726Y5202580D01*
X2239111Y5203037D01*
X2225497Y5201666D01*
X2212238Y5198516D01*
X2199538Y5193588D01*
X2187549Y5187035D01*
X2176576Y5178958D01*
X2166772Y5169458D01*
X2154986Y5154320D01*
X2151989Y5152593D01*
X2148535Y5151983D01*
X1849323Y5151983D01*
X1844700Y5151780D01*
X1840280Y5151221D01*
X1835962Y5150256D01*
X1831695Y5148935D01*
X1827631Y5147208D01*
X1823669Y5145176D01*
X1819910Y5142788D01*
X1816404Y5140096D01*
X1812950Y5136946D01*
X422656Y3746855D01*
X419608Y3744772D01*
X416051Y3743909D01*
X412445Y3744315D01*
X403148Y3747211D01*
X388162Y3749954D01*
X373024Y3750868D01*
X357835Y3749954D01*
X342849Y3747211D01*
X328371Y3742690D01*
X314502Y3736492D01*
X301498Y3728618D01*
X289509Y3719220D01*
X278790Y3708501D01*
X269392Y3696512D01*
X261518Y3683508D01*
X255270Y3669639D01*
X250748Y3655110D01*
X248005Y3640175D01*
X247091Y3624986D01*
X248005Y3609848D01*
X250748Y3594862D01*
X255270Y3580333D01*
X261518Y3566515D01*
X269392Y3553510D01*
X278790Y3541522D01*
X289509Y3530752D01*
X301498Y3521405D01*
X314502Y3513531D01*
X328371Y3507282D01*
X342849Y3502761D01*
X357835Y3500018D01*
G37*
G36*
X4988306Y3567684D02*
G01*
X5003038Y3568141D01*
X5017668Y3570427D01*
X5031841Y3574440D01*
X5045405Y3580180D01*
X5058206Y3587597D01*
X5069992Y3596487D01*
X5080558Y3606749D01*
X5089855Y3618229D01*
X5097627Y3630777D01*
X5103774Y3644188D01*
X5108244Y3658260D01*
X5110937Y3672789D01*
X5111851Y3687521D01*
X5110937Y3702253D01*
X5108244Y3716731D01*
X5103774Y3730802D01*
X5097627Y3744214D01*
X5089855Y3756761D01*
X5080558Y3768242D01*
X5069992Y3778554D01*
X5058206Y3787444D01*
X5045405Y3794810D01*
X5031841Y3800551D01*
X5017668Y3804615D01*
X5003038Y3806850D01*
X4988306Y3807307D01*
X4973624Y3805936D01*
X4959197Y3802786D01*
X4945278Y3797909D01*
X4932070Y3791305D01*
X4919776Y3783177D01*
X4908550Y3773576D01*
X4898593Y3762654D01*
X4890109Y3750614D01*
X4883099Y3737610D01*
X4877765Y3723843D01*
X4874158Y3709517D01*
X4872380Y3694887D01*
X4872380Y3680104D01*
X4874158Y3665474D01*
X4877765Y3651148D01*
X4883099Y3637381D01*
X4890109Y3624376D01*
X4898593Y3612337D01*
X4908550Y3601465D01*
X4919776Y3591864D01*
X4932070Y3583686D01*
X4945278Y3577132D01*
X4959197Y3572205D01*
X4973624Y3569055D01*
G37*
G36*
X2363317Y3567684D02*
G01*
X2378049Y3568141D01*
X2392629Y3570427D01*
X2406853Y3574440D01*
X2420416Y3580180D01*
X2433218Y3587597D01*
X2445004Y3596487D01*
X2455570Y3606749D01*
X2464816Y3618229D01*
X2472588Y3630777D01*
X2478786Y3644188D01*
X2483256Y3658260D01*
X2485948Y3672789D01*
X2486863Y3687521D01*
X2485948Y3702253D01*
X2483256Y3716731D01*
X2478786Y3730802D01*
X2472588Y3744214D01*
X2464816Y3756761D01*
X2455570Y3768242D01*
X2445004Y3778504D01*
X2433218Y3787444D01*
X2420416Y3794810D01*
X2406853Y3800551D01*
X2392629Y3804615D01*
X2378049Y3806850D01*
X2363317Y3807307D01*
X2348636Y3805936D01*
X2334209Y3802786D01*
X2320290Y3797909D01*
X2307082Y3791305D01*
X2294737Y3783177D01*
X2283561Y3773576D01*
X2273604Y3762654D01*
X2265070Y3750614D01*
X2258110Y3737610D01*
X2252776Y3723843D01*
X2249170Y3709517D01*
X2247341Y3694887D01*
X2247341Y3680104D01*
X2249170Y3665474D01*
X2252776Y3651148D01*
X2258110Y3637381D01*
X2265070Y3624376D01*
X2273604Y3612337D01*
X2283561Y3601465D01*
X2294737Y3591864D01*
X2307082Y3583686D01*
X2320290Y3577132D01*
X2334209Y3572205D01*
X2348636Y3569055D01*
G37*
G36*
X6004306Y3567684D02*
G01*
X6019038Y3568141D01*
X6033668Y3570427D01*
X6047841Y3574440D01*
X6061405Y3580180D01*
X6074206Y3587597D01*
X6085992Y3596487D01*
X6096558Y3606749D01*
X6105855Y3618229D01*
X6113627Y3630777D01*
X6118148Y3640632D01*
X6120384Y3643782D01*
X6123584Y3645865D01*
X6127394Y3646576D01*
X6163970Y3646576D01*
X6167526Y3645915D01*
X6170676Y3644036D01*
X6172911Y3641191D01*
X6176568Y3634384D01*
X6185103Y3622344D01*
X6195060Y3611422D01*
X6206286Y3601821D01*
X6218580Y3593693D01*
X6231788Y3587140D01*
X6245707Y3582212D01*
X6260134Y3579063D01*
X6274816Y3577691D01*
X6289548Y3578148D01*
X6304127Y3580434D01*
X6318351Y3584448D01*
X6331915Y3590188D01*
X6344716Y3597605D01*
X6356502Y3606495D01*
X6367068Y3616756D01*
X6376314Y3628237D01*
X6384086Y3640785D01*
X6390284Y3654196D01*
X6394754Y3668268D01*
X6397447Y3682796D01*
X6398361Y3697478D01*
X6397447Y3712210D01*
X6394754Y3726738D01*
X6390284Y3740810D01*
X6384086Y3754221D01*
X6376314Y3766769D01*
X6367068Y3778250D01*
X6356502Y3788511D01*
X6344716Y3797401D01*
X6331915Y3804818D01*
X6318351Y3810558D01*
X6304127Y3814572D01*
X6289548Y3816858D01*
X6274816Y3817315D01*
X6260134Y3815943D01*
X6245707Y3812794D01*
X6231788Y3807866D01*
X6218580Y3801313D01*
X6206286Y3793185D01*
X6195060Y3783533D01*
X6185103Y3772662D01*
X6176568Y3760622D01*
X6172911Y3753764D01*
X6170625Y3750919D01*
X6167526Y3749040D01*
X6163970Y3748379D01*
X6116675Y3748379D01*
X6113322Y3748938D01*
X6110325Y3750614D01*
X6108039Y3753205D01*
X6105855Y3756761D01*
X6096558Y3768242D01*
X6085992Y3778554D01*
X6074206Y3787444D01*
X6061405Y3794810D01*
X6047841Y3800551D01*
X6033668Y3804615D01*
X6019038Y3806850D01*
X6004306Y3807307D01*
X5989624Y3805936D01*
X5975197Y3802786D01*
X5961278Y3797909D01*
X5948070Y3791305D01*
X5935776Y3783177D01*
X5924550Y3773576D01*
X5914593Y3762654D01*
X5906109Y3750614D01*
X5899099Y3737610D01*
X5893765Y3723843D01*
X5890158Y3709517D01*
X5888380Y3694887D01*
X5888380Y3680104D01*
X5890158Y3665474D01*
X5893765Y3651148D01*
X5899099Y3637381D01*
X5906109Y3624376D01*
X5914593Y3612337D01*
X5924550Y3601465D01*
X5935776Y3591864D01*
X5948070Y3583686D01*
X5961278Y3577132D01*
X5975197Y3572205D01*
X5989624Y3569055D01*
G37*
G36*
X8599982Y3674110D02*
G01*
X8620861Y3675075D01*
X8641486Y3677970D01*
X8661806Y3682746D01*
X8681618Y3689350D01*
X8700668Y3697782D01*
X8718905Y3707942D01*
X8736126Y3719728D01*
X8752179Y3733037D01*
X8766962Y3747820D01*
X8780272Y3763873D01*
X8792057Y3781094D01*
X8802217Y3799332D01*
X8810650Y3818382D01*
X8817254Y3838194D01*
X8822029Y3858514D01*
X8824925Y3879138D01*
X8825890Y3900017D01*
X8824925Y3920845D01*
X8822029Y3941521D01*
X8817254Y3961841D01*
X8810650Y3981602D01*
X8802217Y4000703D01*
X8792057Y4018940D01*
X8780272Y4036110D01*
X8766962Y4052163D01*
X8752179Y4066946D01*
X8736126Y4080256D01*
X8718905Y4092041D01*
X8700668Y4102201D01*
X8681618Y4110634D01*
X8661806Y4117289D01*
X8641486Y4122064D01*
X8620861Y4124909D01*
X8599982Y4125874D01*
X8579154Y4124909D01*
X8558479Y4122064D01*
X8538159Y4117289D01*
X8518398Y4110634D01*
X8499297Y4102201D01*
X8481060Y4092041D01*
X8463889Y4080256D01*
X8447836Y4066946D01*
X8433054Y4052163D01*
X8419744Y4036110D01*
X8407958Y4018940D01*
X8397798Y4000703D01*
X8389366Y3981602D01*
X8382711Y3961841D01*
X8377936Y3941521D01*
X8375091Y3920845D01*
X8374125Y3900017D01*
X8375091Y3879138D01*
X8377936Y3858514D01*
X8382711Y3838194D01*
X8389366Y3818382D01*
X8397798Y3799332D01*
X8407958Y3781094D01*
X8419744Y3763873D01*
X8433054Y3747820D01*
X8447836Y3733037D01*
X8463889Y3719728D01*
X8481060Y3707942D01*
X8499297Y3697782D01*
X8518398Y3689350D01*
X8538159Y3682746D01*
X8558479Y3677970D01*
X8579154Y3675075D01*
G37*
G36*
X2130247Y4480712D02*
G01*
X2395016Y4480712D01*
X2399690Y4480915D01*
X2404059Y4481474D01*
X2408428Y4482439D01*
X2412644Y4483760D01*
X2416759Y4485487D01*
X2420670Y4487519D01*
X2424430Y4489907D01*
X2427935Y4492599D01*
X2431389Y4495800D01*
X2933954Y4998567D01*
X2936798Y5000599D01*
X2940100Y5001514D01*
X2943504Y5001310D01*
X2947517Y5000345D01*
X2961081Y4998974D01*
X2974695Y4999431D01*
X2988157Y5001717D01*
X3001213Y5005730D01*
X3013557Y5011470D01*
X3025038Y5018836D01*
X3035452Y5027625D01*
X3044596Y5037734D01*
X3052318Y5048961D01*
X3058464Y5061153D01*
X3062935Y5074005D01*
X3065678Y5087416D01*
X3066592Y5100980D01*
X3065678Y5114594D01*
X3062935Y5127955D01*
X3058464Y5140858D01*
X3052318Y5152999D01*
X3044596Y5164277D01*
X3035452Y5174386D01*
X3025038Y5183174D01*
X3013557Y5190540D01*
X3001213Y5196281D01*
X2988157Y5200294D01*
X2974695Y5202580D01*
X2961081Y5203037D01*
X2947517Y5201666D01*
X2934258Y5198516D01*
X2921508Y5193588D01*
X2909570Y5187035D01*
X2898597Y5178958D01*
X2888792Y5169458D01*
X2880360Y5158790D01*
X2873400Y5147056D01*
X2868066Y5134508D01*
X2864459Y5121351D01*
X2862630Y5107838D01*
X2862630Y5094173D01*
X2864866Y5076850D01*
X2863951Y5073446D01*
X2861919Y5070551D01*
X2377084Y4585512D01*
X2373782Y4583277D01*
X2369921Y4582515D01*
X2127707Y4582464D01*
X2120747Y4581702D01*
X2112213Y4579366D01*
X2109927Y4578502D01*
X2104186Y4575606D01*
X2101850Y4574184D01*
X2096973Y4570526D01*
X2094687Y4568494D01*
X2090724Y4564227D01*
X2088642Y4561586D01*
X2085695Y4557014D01*
X2083968Y4553762D01*
X2081936Y4548987D01*
X2080717Y4545177D01*
X2079650Y4540402D01*
X2079091Y4536186D01*
X2078888Y4531614D01*
X2079091Y4527042D01*
X2079650Y4522825D01*
X2080717Y4518050D01*
X2081936Y4514240D01*
X2083968Y4509465D01*
X2085695Y4506214D01*
X2088642Y4501642D01*
X2090724Y4499000D01*
X2094687Y4494733D01*
X2096973Y4492701D01*
X2101850Y4489043D01*
X2104186Y4487621D01*
X2109927Y4484725D01*
X2112111Y4483912D01*
X2120950Y4481525D01*
G37*
G36*
X4739081Y4744974D02*
G01*
X4752695Y4745431D01*
X4766157Y4747717D01*
X4779213Y4751730D01*
X4791557Y4757470D01*
X4803038Y4764836D01*
X4813452Y4773625D01*
X4822596Y4783734D01*
X4830318Y4794961D01*
X4836464Y4807153D01*
X4840935Y4820005D01*
X4843678Y4833416D01*
X4844592Y4846980D01*
X4843678Y4860594D01*
X4840935Y4873955D01*
X4836464Y4886858D01*
X4830318Y4898999D01*
X4822596Y4910277D01*
X4813452Y4920386D01*
X4803038Y4929174D01*
X4791557Y4936540D01*
X4779213Y4942281D01*
X4766157Y4946294D01*
X4752695Y4948580D01*
X4739081Y4949037D01*
X4725517Y4947666D01*
X4712258Y4944516D01*
X4699508Y4939588D01*
X4687570Y4933035D01*
X4676597Y4924958D01*
X4666792Y4915458D01*
X4658360Y4904790D01*
X4651400Y4893056D01*
X4646066Y4880508D01*
X4642459Y4867351D01*
X4640630Y4853838D01*
X4640630Y4840173D01*
X4642459Y4826660D01*
X4646066Y4813503D01*
X4651400Y4800955D01*
X4658360Y4789220D01*
X4666792Y4778502D01*
X4676597Y4769053D01*
X4687570Y4760976D01*
X4699508Y4754422D01*
X4712258Y4749495D01*
X4725517Y4746345D01*
G37*
G36*
X9489084Y4744974D02*
G01*
X9502698Y4745431D01*
X9516160Y4747717D01*
X9529216Y4751730D01*
X9541560Y4757470D01*
X9553041Y4764836D01*
X9563455Y4773625D01*
X9572599Y4783734D01*
X9580321Y4794961D01*
X9586468Y4807153D01*
X9590938Y4820005D01*
X9593681Y4833416D01*
X9594596Y4846980D01*
X9593681Y4860594D01*
X9590938Y4873955D01*
X9586468Y4886858D01*
X9580321Y4898999D01*
X9572599Y4910277D01*
X9563455Y4920386D01*
X9553041Y4929174D01*
X9541560Y4936540D01*
X9529216Y4942281D01*
X9516160Y4946294D01*
X9502698Y4948580D01*
X9489084Y4949037D01*
X9475520Y4947666D01*
X9462262Y4944516D01*
X9449511Y4939588D01*
X9437573Y4933035D01*
X9426600Y4924958D01*
X9416796Y4915458D01*
X9408312Y4904790D01*
X9401403Y4893056D01*
X9396069Y4880508D01*
X9392462Y4867351D01*
X9390634Y4853838D01*
X9390634Y4840173D01*
X9392462Y4826660D01*
X9396069Y4813503D01*
X9401403Y4800955D01*
X9408312Y4789220D01*
X9416796Y4778502D01*
X9426600Y4769053D01*
X9437573Y4760976D01*
X9449511Y4754422D01*
X9462262Y4749495D01*
X9475520Y4746345D01*
G37*
G36*
X7114082Y4757470D02*
G01*
X7127697Y4757928D01*
X7141159Y4760214D01*
X7154214Y4764227D01*
X7166559Y4769967D01*
X7178040Y4777333D01*
X7188453Y4786122D01*
X7197598Y4796231D01*
X7205319Y4807458D01*
X7211466Y4819650D01*
X7215936Y4832553D01*
X7218680Y4845913D01*
X7219594Y4859477D01*
X7218680Y4873091D01*
X7215936Y4886452D01*
X7211466Y4899355D01*
X7205319Y4911547D01*
X7197598Y4922774D01*
X7188453Y4932883D01*
X7178040Y4941671D01*
X7166559Y4949037D01*
X7154214Y4954778D01*
X7141159Y4958791D01*
X7127697Y4961077D01*
X7114082Y4961534D01*
X7100519Y4960162D01*
X7087260Y4957013D01*
X7074509Y4952085D01*
X7062571Y4945532D01*
X7051598Y4937455D01*
X7041794Y4927955D01*
X7033310Y4917287D01*
X7026402Y4905552D01*
X7021068Y4893005D01*
X7017461Y4879848D01*
X7015632Y4866335D01*
X7015632Y4852670D01*
X7017461Y4839157D01*
X7021068Y4826000D01*
X7026402Y4813452D01*
X7033310Y4801717D01*
X7041794Y4790998D01*
X7051598Y4781550D01*
X7062571Y4773472D01*
X7074509Y4766919D01*
X7087260Y4761992D01*
X7100519Y4758842D01*
G37*
G36*
X461111Y4998974D02*
G01*
X474726Y4999431D01*
X488188Y5001717D01*
X501192Y5005730D01*
X513537Y5011470D01*
X525068Y5018836D01*
X535482Y5027625D01*
X544626Y5037734D01*
X552348Y5048961D01*
X558495Y5061153D01*
X562965Y5074005D01*
X565658Y5087416D01*
X566572Y5100980D01*
X565658Y5114594D01*
X562965Y5127955D01*
X558495Y5140858D01*
X552348Y5152999D01*
X544626Y5164277D01*
X535482Y5174386D01*
X525068Y5183174D01*
X513537Y5190540D01*
X501192Y5196281D01*
X488188Y5200294D01*
X474726Y5202580D01*
X461111Y5203037D01*
X447497Y5201666D01*
X434238Y5198516D01*
X421538Y5193588D01*
X409549Y5187035D01*
X398576Y5178958D01*
X388772Y5169458D01*
X380339Y5158790D01*
X373380Y5147056D01*
X368046Y5134508D01*
X364439Y5121351D01*
X362661Y5107838D01*
X362661Y5094173D01*
X364439Y5080660D01*
X368046Y5067503D01*
X373380Y5054955D01*
X380339Y5043220D01*
X388772Y5032502D01*
X398576Y5023053D01*
X409549Y5014976D01*
X421538Y5008422D01*
X434238Y5003495D01*
X447497Y5000345D01*
G37*
G36*
X461111Y5760974D02*
G01*
X474726Y5761431D01*
X488188Y5763717D01*
X501192Y5767730D01*
X513537Y5773470D01*
X525068Y5780836D01*
X535482Y5789625D01*
X544626Y5799734D01*
X552348Y5810961D01*
X558495Y5823153D01*
X562965Y5836005D01*
X565658Y5849416D01*
X566572Y5862980D01*
X565658Y5876594D01*
X562965Y5889955D01*
X558495Y5902858D01*
X552348Y5914999D01*
X544626Y5926277D01*
X535482Y5936386D01*
X525068Y5945174D01*
X513537Y5952540D01*
X501192Y5958281D01*
X488188Y5962294D01*
X474726Y5964580D01*
X461111Y5965037D01*
X447497Y5963666D01*
X434238Y5960516D01*
X421538Y5955588D01*
X409549Y5949035D01*
X398576Y5940958D01*
X388772Y5931458D01*
X380339Y5920790D01*
X373380Y5909056D01*
X368046Y5896508D01*
X364439Y5883351D01*
X362661Y5869838D01*
X362661Y5856173D01*
X364439Y5842660D01*
X368046Y5829503D01*
X373380Y5816955D01*
X380339Y5805220D01*
X388772Y5794502D01*
X398576Y5785053D01*
X409549Y5776976D01*
X421538Y5770422D01*
X434238Y5765495D01*
X447497Y5762345D01*
G37*
G36*
X7711084Y5760974D02*
G01*
X7724698Y5761431D01*
X7738160Y5763717D01*
X7751216Y5767730D01*
X7763560Y5773470D01*
X7775041Y5780836D01*
X7785455Y5789625D01*
X7794599Y5799734D01*
X7802321Y5810961D01*
X7808468Y5823153D01*
X7812938Y5836005D01*
X7815681Y5849416D01*
X7816596Y5862980D01*
X7815681Y5876594D01*
X7812938Y5889955D01*
X7808468Y5902858D01*
X7802321Y5914999D01*
X7794599Y5926277D01*
X7785455Y5936386D01*
X7775041Y5945174D01*
X7763560Y5952540D01*
X7751216Y5958281D01*
X7738160Y5962294D01*
X7724698Y5964580D01*
X7711084Y5965037D01*
X7697520Y5963666D01*
X7684262Y5960516D01*
X7671511Y5955588D01*
X7659573Y5949035D01*
X7648600Y5940958D01*
X7638796Y5931458D01*
X7630312Y5920790D01*
X7623403Y5909056D01*
X7618069Y5896508D01*
X7614462Y5883351D01*
X7612634Y5869838D01*
X7612634Y5856173D01*
X7614462Y5842660D01*
X7618069Y5829503D01*
X7623403Y5816955D01*
X7630312Y5805220D01*
X7638796Y5794502D01*
X7648600Y5785053D01*
X7659573Y5776976D01*
X7671511Y5770422D01*
X7684262Y5765495D01*
X7697520Y5762345D01*
G37*
G36*
X2961081Y5760974D02*
G01*
X2974695Y5761431D01*
X2988157Y5763717D01*
X3001213Y5767730D01*
X3013557Y5773470D01*
X3025038Y5780836D01*
X3035452Y5789625D01*
X3044596Y5799734D01*
X3052318Y5810961D01*
X3058464Y5823153D01*
X3062935Y5836005D01*
X3065678Y5849416D01*
X3066592Y5862980D01*
X3065678Y5876594D01*
X3062935Y5889955D01*
X3058464Y5902858D01*
X3052318Y5914999D01*
X3044596Y5926277D01*
X3035452Y5936386D01*
X3025038Y5945174D01*
X3013557Y5952540D01*
X3001213Y5958281D01*
X2988157Y5962294D01*
X2974695Y5964580D01*
X2961081Y5965037D01*
X2947517Y5963666D01*
X2934258Y5960516D01*
X2921508Y5955588D01*
X2909570Y5949035D01*
X2898597Y5940958D01*
X2888792Y5931458D01*
X2880360Y5920790D01*
X2873400Y5909056D01*
X2868066Y5896508D01*
X2864459Y5883351D01*
X2862630Y5869838D01*
X2862630Y5856173D01*
X2864459Y5842660D01*
X2868066Y5829503D01*
X2873400Y5816955D01*
X2880360Y5805220D01*
X2888792Y5794502D01*
X2898597Y5785053D01*
X2909570Y5776976D01*
X2921508Y5770422D01*
X2934258Y5765495D01*
X2947517Y5762345D01*
G37*
G36*
X2239111Y5760974D02*
G01*
X2252726Y5761431D01*
X2266188Y5763717D01*
X2279192Y5767730D01*
X2291537Y5773470D01*
X2303068Y5780836D01*
X2313482Y5789625D01*
X2322626Y5799734D01*
X2330348Y5810961D01*
X2336495Y5823153D01*
X2340965Y5836005D01*
X2343658Y5849416D01*
X2344572Y5862980D01*
X2343658Y5876594D01*
X2340965Y5889955D01*
X2336495Y5902858D01*
X2330348Y5914999D01*
X2322626Y5926277D01*
X2313482Y5936386D01*
X2303068Y5945174D01*
X2291537Y5952540D01*
X2279192Y5958281D01*
X2266188Y5962294D01*
X2252726Y5964580D01*
X2239111Y5965037D01*
X2225497Y5963666D01*
X2212238Y5960516D01*
X2199538Y5955588D01*
X2187549Y5949035D01*
X2176576Y5940958D01*
X2166772Y5931458D01*
X2158339Y5920790D01*
X2151380Y5909056D01*
X2146046Y5896508D01*
X2142439Y5883351D01*
X2140661Y5869838D01*
X2140661Y5856173D01*
X2142439Y5842660D01*
X2146046Y5829503D01*
X2151380Y5816955D01*
X2158339Y5805220D01*
X2166772Y5794502D01*
X2176576Y5785053D01*
X2187549Y5776976D01*
X2199538Y5770422D01*
X2212238Y5765495D01*
X2225497Y5762345D01*
G37*
G36*
X4739081Y5760974D02*
G01*
X4752695Y5761431D01*
X4766157Y5763717D01*
X4779213Y5767730D01*
X4791557Y5773470D01*
X4803038Y5780836D01*
X4813452Y5789625D01*
X4822596Y5799734D01*
X4830318Y5810961D01*
X4836464Y5823153D01*
X4840935Y5836005D01*
X4843678Y5849416D01*
X4844592Y5862980D01*
X4843678Y5876594D01*
X4840935Y5889955D01*
X4836464Y5902858D01*
X4830318Y5914999D01*
X4822596Y5926277D01*
X4813452Y5936386D01*
X4803038Y5945174D01*
X4791557Y5952540D01*
X4779213Y5958281D01*
X4766157Y5962294D01*
X4752695Y5964580D01*
X4739081Y5965037D01*
X4725517Y5963666D01*
X4712258Y5960516D01*
X4699508Y5955588D01*
X4687570Y5949035D01*
X4676597Y5940958D01*
X4666792Y5931458D01*
X4658360Y5920790D01*
X4651400Y5909056D01*
X4646066Y5896508D01*
X4642459Y5883351D01*
X4640630Y5869838D01*
X4640630Y5856173D01*
X4642459Y5842660D01*
X4646066Y5829503D01*
X4651400Y5816955D01*
X4658360Y5805220D01*
X4666792Y5794502D01*
X4676597Y5785053D01*
X4687570Y5776976D01*
X4699508Y5770422D01*
X4712258Y5765495D01*
X4725517Y5762345D01*
G37*
G36*
X9489084Y5760974D02*
G01*
X9502698Y5761431D01*
X9516160Y5763717D01*
X9529216Y5767730D01*
X9541560Y5773470D01*
X9553041Y5780836D01*
X9563455Y5789625D01*
X9572599Y5799734D01*
X9580321Y5810961D01*
X9586468Y5823153D01*
X9590938Y5836005D01*
X9593681Y5849416D01*
X9594596Y5862980D01*
X9593681Y5876594D01*
X9590938Y5889955D01*
X9586468Y5902858D01*
X9580321Y5914999D01*
X9572599Y5926277D01*
X9563455Y5936386D01*
X9553041Y5945174D01*
X9541560Y5952540D01*
X9529216Y5958281D01*
X9516160Y5962294D01*
X9502698Y5964580D01*
X9489084Y5965037D01*
X9475520Y5963666D01*
X9462262Y5960516D01*
X9449511Y5955588D01*
X9437573Y5949035D01*
X9426600Y5940958D01*
X9416796Y5931458D01*
X9408312Y5920790D01*
X9401403Y5909056D01*
X9396069Y5896508D01*
X9392462Y5883351D01*
X9390634Y5869838D01*
X9390634Y5856173D01*
X9392462Y5842660D01*
X9396069Y5829503D01*
X9401403Y5816955D01*
X9408312Y5805220D01*
X9416796Y5794502D01*
X9426600Y5785053D01*
X9437573Y5776976D01*
X9449511Y5770422D01*
X9462262Y5765495D01*
X9475520Y5762345D01*
G37*
G36*
X7114082Y5773470D02*
G01*
X7127697Y5773928D01*
X7141159Y5776214D01*
X7154214Y5780227D01*
X7166559Y5785967D01*
X7178040Y5793333D01*
X7188453Y5802122D01*
X7197598Y5812231D01*
X7205319Y5823458D01*
X7211466Y5835650D01*
X7215936Y5848553D01*
X7218680Y5861913D01*
X7219594Y5875477D01*
X7218680Y5889091D01*
X7215936Y5902452D01*
X7211466Y5915355D01*
X7205319Y5927547D01*
X7197598Y5938774D01*
X7188453Y5948883D01*
X7178040Y5957671D01*
X7166559Y5965037D01*
X7154214Y5970778D01*
X7141159Y5974791D01*
X7127697Y5977077D01*
X7114082Y5977534D01*
X7100519Y5976162D01*
X7087260Y5973013D01*
X7074509Y5968085D01*
X7062571Y5961532D01*
X7051598Y5953455D01*
X7041794Y5943955D01*
X7033310Y5933287D01*
X7026402Y5921552D01*
X7021068Y5909005D01*
X7017461Y5895848D01*
X7015632Y5882335D01*
X7015632Y5868670D01*
X7017461Y5855157D01*
X7021068Y5842000D01*
X7026402Y5829452D01*
X7033310Y5817717D01*
X7041794Y5806998D01*
X7051598Y5797550D01*
X7062571Y5789472D01*
X7074509Y5782919D01*
X7087260Y5777992D01*
X7100519Y5774842D01*
G37*
G36*
X5336082Y5773470D02*
G01*
X5349697Y5773928D01*
X5363159Y5776214D01*
X5376214Y5780227D01*
X5388559Y5785967D01*
X5400040Y5793333D01*
X5410454Y5802122D01*
X5419598Y5812231D01*
X5427319Y5823458D01*
X5433466Y5835650D01*
X5437936Y5848553D01*
X5440680Y5861913D01*
X5441594Y5875477D01*
X5440680Y5889091D01*
X5437936Y5902452D01*
X5433466Y5915355D01*
X5427319Y5927547D01*
X5419598Y5938774D01*
X5410454Y5948883D01*
X5400040Y5957671D01*
X5388559Y5965037D01*
X5376214Y5970778D01*
X5363159Y5974791D01*
X5349697Y5977077D01*
X5336082Y5977534D01*
X5322519Y5976162D01*
X5309260Y5973013D01*
X5296509Y5968085D01*
X5284571Y5961532D01*
X5273598Y5953455D01*
X5263794Y5943955D01*
X5255310Y5933287D01*
X5248402Y5921552D01*
X5243068Y5909005D01*
X5239461Y5895848D01*
X5237632Y5882335D01*
X5237632Y5868670D01*
X5239461Y5855157D01*
X5243068Y5842000D01*
X5248402Y5829452D01*
X5255310Y5817717D01*
X5263794Y5806998D01*
X5273598Y5797550D01*
X5284571Y5789472D01*
X5296509Y5782919D01*
X5309260Y5777992D01*
X5322519Y5774842D01*
G37*
G36*
X461111Y6014974D02*
G01*
X474726Y6015431D01*
X488188Y6017717D01*
X501192Y6021730D01*
X513537Y6027470D01*
X525068Y6034836D01*
X535482Y6043625D01*
X544626Y6053734D01*
X552348Y6064961D01*
X558495Y6077153D01*
X562965Y6090005D01*
X565658Y6103416D01*
X566572Y6116980D01*
X565658Y6130594D01*
X562965Y6143955D01*
X558495Y6156858D01*
X552348Y6168999D01*
X544626Y6180277D01*
X535482Y6190386D01*
X525068Y6199174D01*
X513537Y6206540D01*
X501192Y6212281D01*
X488188Y6216294D01*
X474726Y6218580D01*
X461111Y6219037D01*
X447497Y6217666D01*
X434238Y6214516D01*
X421538Y6209588D01*
X409549Y6203035D01*
X398576Y6194958D01*
X388772Y6185458D01*
X380339Y6174790D01*
X373380Y6163056D01*
X368046Y6150508D01*
X364439Y6137351D01*
X362661Y6123838D01*
X362661Y6110173D01*
X364439Y6096660D01*
X368046Y6083503D01*
X373380Y6070955D01*
X380339Y6059220D01*
X388772Y6048502D01*
X398576Y6039053D01*
X409549Y6030976D01*
X421538Y6024422D01*
X434238Y6019495D01*
X447497Y6016345D01*
G37*
G36*
X2961081Y6014974D02*
G01*
X2974695Y6015431D01*
X2988157Y6017717D01*
X3001213Y6021730D01*
X3013557Y6027470D01*
X3025038Y6034836D01*
X3035452Y6043625D01*
X3044596Y6053734D01*
X3052318Y6064961D01*
X3058464Y6077153D01*
X3062935Y6090005D01*
X3065678Y6103416D01*
X3066592Y6116980D01*
X3065678Y6130594D01*
X3062935Y6143955D01*
X3058464Y6156858D01*
X3052318Y6168999D01*
X3044596Y6180277D01*
X3035452Y6190386D01*
X3025038Y6199174D01*
X3013557Y6206540D01*
X3001213Y6212281D01*
X2988157Y6216294D01*
X2974695Y6218580D01*
X2961081Y6219037D01*
X2947517Y6217666D01*
X2934258Y6214516D01*
X2921508Y6209588D01*
X2909570Y6203035D01*
X2898597Y6194958D01*
X2888792Y6185458D01*
X2880360Y6174790D01*
X2873400Y6163056D01*
X2868066Y6150508D01*
X2864459Y6137351D01*
X2862630Y6123838D01*
X2862630Y6110173D01*
X2864459Y6096660D01*
X2868066Y6083503D01*
X2873400Y6070955D01*
X2880360Y6059220D01*
X2888792Y6048502D01*
X2898597Y6039053D01*
X2909570Y6030976D01*
X2921508Y6024422D01*
X2934258Y6019495D01*
X2947517Y6016345D01*
G37*
G36*
X4739081Y6014974D02*
G01*
X4752695Y6015431D01*
X4766157Y6017717D01*
X4779213Y6021730D01*
X4791557Y6027470D01*
X4803038Y6034836D01*
X4813452Y6043625D01*
X4822596Y6053734D01*
X4830318Y6064961D01*
X4836464Y6077153D01*
X4840935Y6090005D01*
X4843678Y6103416D01*
X4844592Y6116980D01*
X4843678Y6130594D01*
X4840935Y6143955D01*
X4836464Y6156858D01*
X4830318Y6168999D01*
X4822596Y6180277D01*
X4813452Y6190386D01*
X4803038Y6199174D01*
X4791557Y6206540D01*
X4779213Y6212281D01*
X4766157Y6216294D01*
X4752695Y6218580D01*
X4739081Y6219037D01*
X4725517Y6217666D01*
X4712258Y6214516D01*
X4699508Y6209588D01*
X4687570Y6203035D01*
X4676597Y6194958D01*
X4666792Y6185458D01*
X4658360Y6174790D01*
X4651400Y6163056D01*
X4646066Y6150508D01*
X4642459Y6137351D01*
X4640630Y6123838D01*
X4640630Y6110173D01*
X4642459Y6096660D01*
X4646066Y6083503D01*
X4651400Y6070955D01*
X4658360Y6059220D01*
X4666792Y6048502D01*
X4676597Y6039053D01*
X4687570Y6030976D01*
X4699508Y6024422D01*
X4712258Y6019495D01*
X4725517Y6016345D01*
G37*
G36*
X2239111Y6014974D02*
G01*
X2252726Y6015431D01*
X2266188Y6017717D01*
X2279192Y6021730D01*
X2291537Y6027470D01*
X2303068Y6034836D01*
X2313482Y6043625D01*
X2322626Y6053734D01*
X2330348Y6064961D01*
X2336495Y6077153D01*
X2340965Y6090005D01*
X2343658Y6103416D01*
X2344572Y6116980D01*
X2343658Y6130594D01*
X2340965Y6143955D01*
X2336495Y6156858D01*
X2330348Y6168999D01*
X2322626Y6180277D01*
X2313482Y6190386D01*
X2303068Y6199174D01*
X2291537Y6206540D01*
X2279192Y6212281D01*
X2266188Y6216294D01*
X2252726Y6218580D01*
X2239111Y6219037D01*
X2225497Y6217666D01*
X2212238Y6214516D01*
X2199538Y6209588D01*
X2187549Y6203035D01*
X2176576Y6194958D01*
X2166772Y6185458D01*
X2158339Y6174790D01*
X2151380Y6163056D01*
X2146046Y6150508D01*
X2142439Y6137351D01*
X2140661Y6123838D01*
X2140661Y6110173D01*
X2142439Y6096660D01*
X2146046Y6083503D01*
X2151380Y6070955D01*
X2158339Y6059220D01*
X2166772Y6048502D01*
X2176576Y6039053D01*
X2187549Y6030976D01*
X2199538Y6024422D01*
X2212238Y6019495D01*
X2225497Y6016345D01*
G37*
G36*
X7711084Y6014974D02*
G01*
X7724698Y6015431D01*
X7738160Y6017717D01*
X7751216Y6021730D01*
X7763560Y6027470D01*
X7775041Y6034836D01*
X7785455Y6043625D01*
X7794599Y6053734D01*
X7802321Y6064961D01*
X7808468Y6077153D01*
X7812938Y6090005D01*
X7815681Y6103416D01*
X7816596Y6116980D01*
X7815681Y6130594D01*
X7812938Y6143955D01*
X7808468Y6156858D01*
X7802321Y6168999D01*
X7794599Y6180277D01*
X7785455Y6190386D01*
X7775041Y6199174D01*
X7763560Y6206540D01*
X7751216Y6212281D01*
X7738160Y6216294D01*
X7724698Y6218580D01*
X7711084Y6219037D01*
X7697520Y6217666D01*
X7684262Y6214516D01*
X7671511Y6209588D01*
X7659573Y6203035D01*
X7648600Y6194958D01*
X7638796Y6185458D01*
X7630312Y6174790D01*
X7623403Y6163056D01*
X7618069Y6150508D01*
X7614462Y6137351D01*
X7612634Y6123838D01*
X7612634Y6110173D01*
X7614462Y6096660D01*
X7618069Y6083503D01*
X7623403Y6070955D01*
X7630312Y6059220D01*
X7638796Y6048502D01*
X7648600Y6039053D01*
X7659573Y6030976D01*
X7671511Y6024422D01*
X7684262Y6019495D01*
X7697520Y6016345D01*
G37*
G36*
X9489084Y6014974D02*
G01*
X9502698Y6015431D01*
X9516160Y6017717D01*
X9529216Y6021730D01*
X9541560Y6027470D01*
X9553041Y6034836D01*
X9563455Y6043625D01*
X9572599Y6053734D01*
X9580321Y6064961D01*
X9586468Y6077153D01*
X9590938Y6090005D01*
X9593681Y6103416D01*
X9594596Y6116980D01*
X9593681Y6130594D01*
X9590938Y6143955D01*
X9586468Y6156858D01*
X9580321Y6168999D01*
X9572599Y6180277D01*
X9563455Y6190386D01*
X9553041Y6199174D01*
X9541560Y6206540D01*
X9529216Y6212281D01*
X9516160Y6216294D01*
X9502698Y6218580D01*
X9489084Y6219037D01*
X9475520Y6217666D01*
X9462262Y6214516D01*
X9449511Y6209588D01*
X9437573Y6203035D01*
X9426600Y6194958D01*
X9416796Y6185458D01*
X9408312Y6174790D01*
X9401403Y6163056D01*
X9396069Y6150508D01*
X9392462Y6137351D01*
X9390634Y6123838D01*
X9390634Y6110173D01*
X9392462Y6096660D01*
X9396069Y6083503D01*
X9401403Y6070955D01*
X9408312Y6059220D01*
X9416796Y6048502D01*
X9426600Y6039053D01*
X9437573Y6030976D01*
X9449511Y6024422D01*
X9462262Y6019495D01*
X9475520Y6016345D01*
G37*
G36*
X7114082Y6027470D02*
G01*
X7127697Y6027928D01*
X7141159Y6030214D01*
X7154214Y6034227D01*
X7166559Y6039967D01*
X7178040Y6047333D01*
X7188453Y6056122D01*
X7197598Y6066231D01*
X7205319Y6077458D01*
X7211466Y6089650D01*
X7215936Y6102553D01*
X7218680Y6115913D01*
X7219594Y6129477D01*
X7218680Y6143091D01*
X7215936Y6156452D01*
X7211466Y6169355D01*
X7205319Y6181547D01*
X7197598Y6192774D01*
X7188453Y6202883D01*
X7178040Y6211671D01*
X7166559Y6219037D01*
X7154214Y6224778D01*
X7141159Y6228791D01*
X7127697Y6231077D01*
X7114082Y6231534D01*
X7100519Y6230162D01*
X7087260Y6227013D01*
X7074509Y6222085D01*
X7062571Y6215532D01*
X7051598Y6207455D01*
X7041794Y6197955D01*
X7033310Y6187287D01*
X7026402Y6175552D01*
X7021068Y6163005D01*
X7017461Y6149848D01*
X7015632Y6136335D01*
X7015632Y6122670D01*
X7017461Y6109157D01*
X7021068Y6096000D01*
X7026402Y6083452D01*
X7033310Y6071717D01*
X7041794Y6060998D01*
X7051598Y6051550D01*
X7062571Y6043472D01*
X7074509Y6036919D01*
X7087260Y6031992D01*
X7100519Y6028842D01*
G37*
G36*
X5336082Y6027470D02*
G01*
X5349697Y6027928D01*
X5363159Y6030214D01*
X5376214Y6034227D01*
X5388559Y6039967D01*
X5400040Y6047333D01*
X5410454Y6056122D01*
X5419598Y6066231D01*
X5427319Y6077458D01*
X5433466Y6089650D01*
X5437936Y6102553D01*
X5440680Y6115913D01*
X5441594Y6129477D01*
X5440680Y6143091D01*
X5437936Y6156452D01*
X5433466Y6169355D01*
X5427319Y6181547D01*
X5419598Y6192774D01*
X5410454Y6202883D01*
X5400040Y6211671D01*
X5388559Y6219037D01*
X5376214Y6224778D01*
X5363159Y6228791D01*
X5349697Y6231077D01*
X5336082Y6231534D01*
X5322519Y6230162D01*
X5309260Y6227013D01*
X5296509Y6222085D01*
X5284571Y6215532D01*
X5273598Y6207455D01*
X5263794Y6197955D01*
X5255310Y6187287D01*
X5248402Y6175552D01*
X5243068Y6163005D01*
X5239461Y6149848D01*
X5237632Y6136335D01*
X5237632Y6122670D01*
X5239461Y6109157D01*
X5243068Y6096000D01*
X5248402Y6083452D01*
X5255310Y6071717D01*
X5263794Y6060998D01*
X5273598Y6051550D01*
X5284571Y6043472D01*
X5296509Y6036919D01*
X5309260Y6031992D01*
X5322519Y6028842D01*
G37*
G36*
X603402Y6213195D02*
G01*
X621436Y6214618D01*
X639267Y6217818D01*
X656640Y6222898D01*
X673404Y6229705D01*
X689406Y6238240D01*
X704443Y6248349D01*
X718362Y6259931D01*
X730961Y6272936D01*
X742238Y6287109D01*
X751941Y6302400D01*
X760018Y6318605D01*
X766419Y6335522D01*
X771042Y6353048D01*
X773836Y6370929D01*
X774750Y6389014D01*
X773836Y6407099D01*
X771042Y6425031D01*
X766419Y6442506D01*
X760018Y6459474D01*
X751941Y6475679D01*
X742238Y6490970D01*
X730961Y6505143D01*
X718362Y6518097D01*
X704443Y6529730D01*
X689406Y6539839D01*
X673404Y6548323D01*
X656640Y6555181D01*
X639267Y6560210D01*
X621436Y6563461D01*
X603402Y6564884D01*
X585266Y6564426D01*
X567334Y6562090D01*
X549706Y6557924D01*
X532587Y6551980D01*
X516178Y6544309D01*
X500684Y6534962D01*
X486206Y6524091D01*
X472897Y6511798D01*
X460959Y6498183D01*
X450443Y6483451D01*
X441553Y6467652D01*
X434289Y6451092D01*
X428751Y6433820D01*
X425043Y6416090D01*
X423214Y6398107D01*
X423214Y6379972D01*
X425043Y6361988D01*
X428751Y6344259D01*
X434289Y6326987D01*
X441553Y6310376D01*
X450443Y6294628D01*
X460959Y6279896D01*
X472897Y6266281D01*
X486206Y6253988D01*
X500684Y6243116D01*
X516178Y6233769D01*
X532587Y6226098D01*
X549706Y6220155D01*
X567334Y6215989D01*
X585266Y6213652D01*
G37*
G36*
X3103372Y6213195D02*
G01*
X3121456Y6214618D01*
X3139287Y6217818D01*
X3156661Y6222898D01*
X3173425Y6229705D01*
X3189427Y6238240D01*
X3204464Y6248349D01*
X3218332Y6259931D01*
X3230981Y6272936D01*
X3242208Y6287109D01*
X3251962Y6302400D01*
X3260039Y6318605D01*
X3266440Y6335522D01*
X3271062Y6353048D01*
X3273806Y6370929D01*
X3274771Y6389014D01*
X3273806Y6407099D01*
X3271062Y6425031D01*
X3266440Y6442506D01*
X3260039Y6459474D01*
X3251962Y6475679D01*
X3242208Y6490970D01*
X3230981Y6505143D01*
X3218332Y6518097D01*
X3204464Y6529730D01*
X3189427Y6539839D01*
X3173425Y6548323D01*
X3156661Y6555181D01*
X3139287Y6560210D01*
X3121456Y6563461D01*
X3103372Y6564884D01*
X3085287Y6564426D01*
X3067354Y6562090D01*
X3049727Y6557924D01*
X3032607Y6551980D01*
X3016199Y6544309D01*
X3000654Y6534962D01*
X2986176Y6524091D01*
X2972917Y6511798D01*
X2960928Y6498183D01*
X2950464Y6483451D01*
X2941523Y6467652D01*
X2934258Y6451092D01*
X2928772Y6433820D01*
X2925064Y6416090D01*
X2923184Y6398107D01*
X2923184Y6379972D01*
X2925064Y6361988D01*
X2928772Y6344259D01*
X2934258Y6326987D01*
X2941523Y6310376D01*
X2950464Y6294628D01*
X2960928Y6279896D01*
X2972917Y6266281D01*
X2986176Y6253988D01*
X3000654Y6243116D01*
X3016199Y6233769D01*
X3032607Y6226098D01*
X3049727Y6220155D01*
X3067354Y6215989D01*
X3085287Y6213652D01*
G37*
G36*
X7853375Y6213195D02*
G01*
X7871459Y6214618D01*
X7889290Y6217818D01*
X7906664Y6222898D01*
X7923428Y6229705D01*
X7939430Y6238240D01*
X7954416Y6248349D01*
X7968335Y6259931D01*
X7980984Y6272936D01*
X7992211Y6287109D01*
X8001965Y6302400D01*
X8010042Y6318605D01*
X8016443Y6335522D01*
X8021066Y6353048D01*
X8023809Y6370929D01*
X8024774Y6389014D01*
X8023809Y6407099D01*
X8021066Y6425031D01*
X8016443Y6442506D01*
X8010042Y6459474D01*
X8001965Y6475679D01*
X7992211Y6490970D01*
X7980984Y6505143D01*
X7968335Y6518097D01*
X7954416Y6529730D01*
X7939430Y6539839D01*
X7923428Y6548323D01*
X7906664Y6555181D01*
X7889290Y6560210D01*
X7871459Y6563461D01*
X7853375Y6564884D01*
X7835290Y6564426D01*
X7817307Y6562090D01*
X7799730Y6557924D01*
X7782610Y6551980D01*
X7766202Y6544309D01*
X7750657Y6534962D01*
X7736179Y6524091D01*
X7722920Y6511798D01*
X7710931Y6498183D01*
X7700467Y6483451D01*
X7691526Y6467652D01*
X7684262Y6451092D01*
X7678775Y6433820D01*
X7675067Y6416090D01*
X7673187Y6398107D01*
X7673187Y6379972D01*
X7675067Y6361988D01*
X7678775Y6344259D01*
X7684262Y6326987D01*
X7691526Y6310376D01*
X7700467Y6294628D01*
X7710931Y6279896D01*
X7722920Y6266281D01*
X7736179Y6253988D01*
X7750657Y6243116D01*
X7766202Y6233769D01*
X7782610Y6226098D01*
X7799730Y6220155D01*
X7817307Y6215989D01*
X7835290Y6213652D01*
G37*
G36*
X9370009Y6220561D02*
G01*
X9388094Y6221984D01*
X9405924Y6225184D01*
X9423298Y6230264D01*
X9440062Y6237071D01*
X9456064Y6245606D01*
X9471050Y6255715D01*
X9484969Y6267297D01*
X9497618Y6280302D01*
X9508845Y6294475D01*
X9518599Y6309766D01*
X9526676Y6325971D01*
X9533077Y6342888D01*
X9537700Y6360414D01*
X9540443Y6378295D01*
X9541408Y6396380D01*
X9540443Y6414465D01*
X9537700Y6432397D01*
X9533077Y6449872D01*
X9526676Y6466840D01*
X9518599Y6483045D01*
X9508845Y6498336D01*
X9497618Y6512509D01*
X9484969Y6525463D01*
X9471050Y6537096D01*
X9456064Y6547205D01*
X9440062Y6555689D01*
X9423298Y6562547D01*
X9405924Y6567576D01*
X9388094Y6570827D01*
X9370009Y6572250D01*
X9351924Y6571792D01*
X9333941Y6569456D01*
X9316364Y6565290D01*
X9299244Y6559346D01*
X9282836Y6551676D01*
X9267291Y6542328D01*
X9252813Y6531457D01*
X9239554Y6519164D01*
X9227566Y6505549D01*
X9217101Y6490817D01*
X9208160Y6475018D01*
X9200896Y6458458D01*
X9195409Y6441186D01*
X9191701Y6423456D01*
X9189821Y6405473D01*
X9189821Y6387338D01*
X9191701Y6369354D01*
X9195409Y6351625D01*
X9200896Y6334353D01*
X9208160Y6317742D01*
X9217101Y6301994D01*
X9227566Y6287262D01*
X9239554Y6273647D01*
X9252813Y6261354D01*
X9267291Y6250482D01*
X9282836Y6241135D01*
X9299244Y6233464D01*
X9316364Y6227521D01*
X9333941Y6223355D01*
X9351924Y6221018D01*
G37*
G36*
X2120036Y6220561D02*
G01*
X2138070Y6221984D01*
X2155901Y6225184D01*
X2173274Y6230264D01*
X2190038Y6237071D01*
X2206040Y6245606D01*
X2221077Y6255715D01*
X2234996Y6267297D01*
X2247595Y6280302D01*
X2258872Y6294475D01*
X2268575Y6309766D01*
X2276652Y6325971D01*
X2283053Y6342888D01*
X2287676Y6360414D01*
X2290470Y6378295D01*
X2291384Y6396380D01*
X2290470Y6414465D01*
X2287676Y6432397D01*
X2283053Y6449872D01*
X2276652Y6466840D01*
X2268575Y6483045D01*
X2258872Y6498336D01*
X2247595Y6512509D01*
X2234996Y6525463D01*
X2221077Y6537096D01*
X2206040Y6547205D01*
X2190038Y6555689D01*
X2173274Y6562547D01*
X2155901Y6567576D01*
X2138070Y6570827D01*
X2120036Y6572250D01*
X2101900Y6571792D01*
X2083968Y6569456D01*
X2066340Y6565290D01*
X2049221Y6559346D01*
X2032812Y6551676D01*
X2017318Y6542328D01*
X2002840Y6531457D01*
X1989531Y6519164D01*
X1977593Y6505549D01*
X1967077Y6490817D01*
X1958187Y6475018D01*
X1950923Y6458458D01*
X1945386Y6441186D01*
X1941677Y6423456D01*
X1939848Y6405473D01*
X1939848Y6387338D01*
X1941677Y6369354D01*
X1945386Y6351625D01*
X1950923Y6334353D01*
X1958187Y6317742D01*
X1967077Y6301994D01*
X1977593Y6287262D01*
X1989531Y6273647D01*
X2002840Y6261354D01*
X2017318Y6250482D01*
X2032812Y6241135D01*
X2049221Y6233464D01*
X2066340Y6227521D01*
X2083968Y6223355D01*
X2101900Y6221018D01*
G37*
G36*
X4620006Y6220561D02*
G01*
X4638090Y6221984D01*
X4655921Y6225184D01*
X4673295Y6230264D01*
X4690059Y6237071D01*
X4706061Y6245606D01*
X4721098Y6255715D01*
X4734966Y6267297D01*
X4747615Y6280302D01*
X4758842Y6294475D01*
X4768596Y6309766D01*
X4776673Y6325971D01*
X4783074Y6342888D01*
X4787696Y6360414D01*
X4790440Y6378295D01*
X4791405Y6396380D01*
X4790440Y6414465D01*
X4787696Y6432397D01*
X4783074Y6449872D01*
X4776673Y6466840D01*
X4768596Y6483045D01*
X4758842Y6498336D01*
X4747615Y6512509D01*
X4734966Y6525463D01*
X4721098Y6537096D01*
X4706061Y6547205D01*
X4690059Y6555689D01*
X4673295Y6562547D01*
X4655921Y6567576D01*
X4638090Y6570827D01*
X4620006Y6572250D01*
X4601921Y6571792D01*
X4583988Y6569456D01*
X4566361Y6565290D01*
X4549241Y6559346D01*
X4532833Y6551676D01*
X4517288Y6542328D01*
X4502810Y6531457D01*
X4489551Y6519164D01*
X4477562Y6505549D01*
X4467098Y6490817D01*
X4458157Y6475018D01*
X4450892Y6458458D01*
X4445406Y6441186D01*
X4441698Y6423456D01*
X4439818Y6405473D01*
X4439818Y6387338D01*
X4441698Y6369354D01*
X4445406Y6351625D01*
X4450892Y6334353D01*
X4458157Y6317742D01*
X4467098Y6301994D01*
X4477562Y6287262D01*
X4489551Y6273647D01*
X4502810Y6261354D01*
X4517288Y6250482D01*
X4532833Y6241135D01*
X4549241Y6233464D01*
X4566361Y6227521D01*
X4583988Y6223355D01*
X4601921Y6221018D01*
G37*
G36*
X5478373Y6225692D02*
G01*
X5496458Y6227114D01*
X5514289Y6230366D01*
X5531662Y6235395D01*
X5548426Y6242202D01*
X5564428Y6250736D01*
X5579414Y6260846D01*
X5593334Y6272428D01*
X5605983Y6285433D01*
X5617210Y6299606D01*
X5626963Y6314897D01*
X5635040Y6331102D01*
X5641441Y6348018D01*
X5646064Y6365544D01*
X5648807Y6383426D01*
X5649772Y6401511D01*
X5648807Y6419596D01*
X5646064Y6437528D01*
X5641441Y6455003D01*
X5635040Y6471970D01*
X5626963Y6488176D01*
X5617210Y6503466D01*
X5605983Y6517640D01*
X5593334Y6530644D01*
X5579414Y6542227D01*
X5564428Y6552336D01*
X5548426Y6560820D01*
X5531662Y6567678D01*
X5514289Y6572707D01*
X5496458Y6575958D01*
X5478373Y6577380D01*
X5460288Y6576923D01*
X5442305Y6574586D01*
X5424728Y6570421D01*
X5407609Y6564477D01*
X5391200Y6556806D01*
X5375656Y6547459D01*
X5361178Y6536588D01*
X5347919Y6524294D01*
X5335930Y6510680D01*
X5325465Y6495948D01*
X5316524Y6480200D01*
X5309260Y6463588D01*
X5303774Y6446316D01*
X5300065Y6428587D01*
X5298186Y6410604D01*
X5298186Y6392468D01*
X5300065Y6374485D01*
X5303774Y6356756D01*
X5309260Y6339484D01*
X5316524Y6322872D01*
X5325465Y6307124D01*
X5335930Y6292392D01*
X5347919Y6278778D01*
X5361178Y6266484D01*
X5375656Y6255613D01*
X5391200Y6246266D01*
X5407609Y6238595D01*
X5424728Y6232652D01*
X5442305Y6228486D01*
X5460288Y6226149D01*
G37*
G36*
X6995007Y6233058D02*
G01*
X7013092Y6234480D01*
X7030923Y6237732D01*
X7048296Y6242761D01*
X7065060Y6249568D01*
X7081062Y6258102D01*
X7096048Y6268212D01*
X7109968Y6279794D01*
X7122617Y6292799D01*
X7133844Y6306972D01*
X7143597Y6322263D01*
X7151674Y6338468D01*
X7158075Y6355384D01*
X7162698Y6372910D01*
X7165441Y6390792D01*
X7166406Y6408877D01*
X7165441Y6426962D01*
X7162698Y6444894D01*
X7158075Y6462369D01*
X7151674Y6479336D01*
X7143597Y6495542D01*
X7133844Y6510832D01*
X7122617Y6525006D01*
X7109968Y6538010D01*
X7096048Y6549593D01*
X7081062Y6559702D01*
X7065060Y6568186D01*
X7048296Y6575044D01*
X7030923Y6580073D01*
X7013092Y6583324D01*
X6995007Y6584746D01*
X6976922Y6584289D01*
X6958939Y6581952D01*
X6941362Y6577787D01*
X6924243Y6571843D01*
X6907834Y6564172D01*
X6892290Y6554825D01*
X6877812Y6543954D01*
X6864553Y6531660D01*
X6852564Y6518046D01*
X6842099Y6503314D01*
X6833158Y6487566D01*
X6825894Y6470954D01*
X6820408Y6453682D01*
X6816699Y6435953D01*
X6814820Y6417970D01*
X6814820Y6399834D01*
X6816699Y6381851D01*
X6820408Y6364122D01*
X6825894Y6346850D01*
X6833158Y6330238D01*
X6842099Y6314490D01*
X6852564Y6299758D01*
X6864553Y6286144D01*
X6877812Y6273850D01*
X6892290Y6262979D01*
X6907834Y6253632D01*
X6924243Y6245961D01*
X6941362Y6240018D01*
X6958939Y6235852D01*
X6976922Y6233515D01*
G37*
G36*
X4365701Y6939940D02*
G01*
X8345728Y6939940D01*
X8350351Y6940143D01*
X8354771Y6940702D01*
X8359089Y6941667D01*
X8363356Y6942988D01*
X8367420Y6944715D01*
X8371382Y6946747D01*
X8375142Y6949135D01*
X8378647Y6951827D01*
X8382101Y6954977D01*
X9468561Y8041436D01*
X9471050Y8043316D01*
X9473996Y8044281D01*
X9477095Y8044332D01*
X9491268Y8042402D01*
X9504730Y8042402D01*
X9518091Y8044230D01*
X9531045Y8047786D01*
X9543491Y8053019D01*
X9555073Y8059877D01*
X9565640Y8068208D01*
X9574987Y8077911D01*
X9582962Y8088731D01*
X9589465Y8100568D01*
X9594291Y8113115D01*
X9597390Y8126222D01*
X9598761Y8139633D01*
X9598304Y8153095D01*
X9596069Y8166353D01*
X9592056Y8179257D01*
X9586417Y8191449D01*
X9579152Y8202777D01*
X9570466Y8213090D01*
X9560458Y8222132D01*
X9549384Y8229752D01*
X9537344Y8235797D01*
X9524644Y8240217D01*
X9511436Y8242909D01*
X9498025Y8243824D01*
X9484563Y8242909D01*
X9471355Y8240217D01*
X9458655Y8235797D01*
X9446615Y8229752D01*
X9435541Y8222132D01*
X9425533Y8213090D01*
X9416846Y8202777D01*
X9409582Y8191449D01*
X9403943Y8179257D01*
X9399930Y8166353D01*
X9397695Y8153095D01*
X9397238Y8139633D01*
X9398609Y8126222D01*
X9399320Y8123072D01*
X9399574Y8119668D01*
X9398609Y8116366D01*
X9396628Y8113522D01*
X9166098Y7882991D01*
X9162948Y7880858D01*
X9159189Y7880045D01*
X9155379Y7880654D01*
X9152128Y7882636D01*
X9149791Y7885684D01*
X9148775Y7889392D01*
X9148114Y7897875D01*
X9145828Y7906359D01*
X9142069Y7914436D01*
X9137040Y7921650D01*
X9129674Y7928762D01*
X9122156Y7933791D01*
X9113723Y7937347D01*
X9104731Y7939430D01*
X9097670Y7939887D01*
X7215428Y7939887D01*
X7212075Y7940446D01*
X7209129Y7942072D01*
X7206843Y7944612D01*
X7204151Y7948777D01*
X7195464Y7959090D01*
X7185456Y7968132D01*
X7174382Y7975752D01*
X7162342Y7981797D01*
X7149642Y7986217D01*
X7136434Y7988909D01*
X7123023Y7989824D01*
X7109561Y7988909D01*
X7096353Y7986217D01*
X7083653Y7981797D01*
X7071614Y7975752D01*
X7060539Y7968132D01*
X7050531Y7959090D01*
X7041845Y7948777D01*
X7039152Y7944612D01*
X7036866Y7942072D01*
X7033920Y7940446D01*
X7030567Y7939887D01*
X4840427Y7939887D01*
X4837074Y7940446D01*
X4834128Y7942072D01*
X4831842Y7944612D01*
X4829149Y7948828D01*
X4820462Y7959090D01*
X4810455Y7968132D01*
X4799380Y7975752D01*
X4787341Y7981797D01*
X4774641Y7986217D01*
X4761433Y7988909D01*
X4748022Y7989824D01*
X4734560Y7988909D01*
X4721352Y7986217D01*
X4708652Y7981797D01*
X4696612Y7975752D01*
X4685538Y7968132D01*
X4675530Y7959090D01*
X4666843Y7948828D01*
X4664151Y7944612D01*
X4661865Y7942072D01*
X4658918Y7940446D01*
X4655566Y7939887D01*
X2465425Y7939887D01*
X2462072Y7940446D01*
X2459126Y7942072D01*
X2456840Y7944612D01*
X2454148Y7948777D01*
X2445461Y7959090D01*
X2435504Y7968132D01*
X2424379Y7975752D01*
X2412339Y7981797D01*
X2399639Y7986217D01*
X2386431Y7988909D01*
X2373020Y7989824D01*
X2359558Y7988909D01*
X2346350Y7986217D01*
X2333650Y7981797D01*
X2321610Y7975752D01*
X2310536Y7968132D01*
X2300528Y7959090D01*
X2291842Y7948777D01*
X2284577Y7937449D01*
X2278938Y7925257D01*
X2274925Y7912353D01*
X2272690Y7899095D01*
X2272233Y7885633D01*
X2273604Y7872222D01*
X2276703Y7859115D01*
X2281529Y7846568D01*
X2288032Y7834731D01*
X2296007Y7823911D01*
X2305354Y7814208D01*
X2315921Y7805877D01*
X2327554Y7799019D01*
X2339949Y7793786D01*
X2352903Y7790230D01*
X2366264Y7788402D01*
X2379726Y7788402D01*
X2393086Y7790230D01*
X2406091Y7793786D01*
X2418486Y7799019D01*
X2430068Y7805877D01*
X2440635Y7814208D01*
X2449982Y7823911D01*
X2457399Y7833969D01*
X2459634Y7836153D01*
X2462428Y7837576D01*
X2465578Y7838084D01*
X4655464Y7838084D01*
X4658563Y7837576D01*
X4661357Y7836153D01*
X4663643Y7833969D01*
X4671009Y7823911D01*
X4680356Y7814259D01*
X4690922Y7805877D01*
X4702505Y7799019D01*
X4714951Y7793786D01*
X4727905Y7790230D01*
X4741265Y7788402D01*
X4754727Y7788402D01*
X4768088Y7790230D01*
X4781092Y7793786D01*
X4793488Y7799019D01*
X4805070Y7805877D01*
X4815636Y7814259D01*
X4824984Y7823911D01*
X4832400Y7833969D01*
X4834636Y7836153D01*
X4837430Y7837576D01*
X4840579Y7838084D01*
X7030466Y7838084D01*
X7033564Y7837576D01*
X7036358Y7836153D01*
X7038644Y7833969D01*
X7046010Y7823911D01*
X7055358Y7814208D01*
X7065924Y7805877D01*
X7077506Y7799019D01*
X7089952Y7793786D01*
X7102906Y7790230D01*
X7116267Y7788402D01*
X7129729Y7788402D01*
X7143089Y7790230D01*
X7156094Y7793786D01*
X7168489Y7799019D01*
X7180072Y7805877D01*
X7190638Y7814208D01*
X7199985Y7823911D01*
X7207402Y7833969D01*
X7209637Y7836153D01*
X7212431Y7837576D01*
X7215581Y7838084D01*
X9096654Y7838084D01*
X9100515Y7837322D01*
X9103817Y7835087D01*
X9106052Y7831785D01*
X9106814Y7827924D01*
X9106052Y7824012D01*
X9103817Y7820710D01*
X8327796Y7044740D01*
X8324545Y7042505D01*
X8320633Y7041743D01*
X6802272Y7041743D01*
X6798259Y7042556D01*
X6794906Y7044893D01*
X6792722Y7048347D01*
X6792112Y7052360D01*
X6793128Y7056323D01*
X6795566Y7059574D01*
X6799122Y7061555D01*
X6813245Y7066178D01*
X6831025Y7073900D01*
X6847992Y7083348D01*
X6863994Y7094372D01*
X6878828Y7106869D01*
X6892391Y7120788D01*
X6904532Y7135926D01*
X6915150Y7152131D01*
X6924192Y7169353D01*
X6931507Y7187336D01*
X6937044Y7205929D01*
X6940803Y7224979D01*
X6942683Y7244283D01*
X6942683Y7263688D01*
X6940803Y7283043D01*
X6937044Y7302093D01*
X6931507Y7320686D01*
X6924192Y7338669D01*
X6915150Y7355840D01*
X6904532Y7372096D01*
X6892391Y7387234D01*
X6878828Y7401102D01*
X6863994Y7413650D01*
X6847992Y7424674D01*
X6831025Y7434072D01*
X6813245Y7441844D01*
X6794753Y7447838D01*
X6775805Y7452004D01*
X6756552Y7454392D01*
X6737146Y7454849D01*
X6717792Y7453426D01*
X6698640Y7450175D01*
X6679946Y7445044D01*
X6661759Y7438186D01*
X6644386Y7429601D01*
X6627875Y7419340D01*
X6612432Y7407554D01*
X6598259Y7394346D01*
X6585356Y7379817D01*
X6573977Y7364069D01*
X6564122Y7347356D01*
X6555943Y7329779D01*
X6549491Y7311440D01*
X6544868Y7292594D01*
X6542024Y7273391D01*
X6541109Y7253986D01*
X6542024Y7234631D01*
X6544868Y7215428D01*
X6549491Y7196531D01*
X6555943Y7178243D01*
X6564122Y7160615D01*
X6573977Y7143902D01*
X6585356Y7128205D01*
X6598259Y7113676D01*
X6612432Y7100468D01*
X6627875Y7088682D01*
X6644386Y7078421D01*
X6661759Y7069836D01*
X6679946Y7062927D01*
X6684416Y7061708D01*
X6688124Y7059828D01*
X6690766Y7056628D01*
X6691884Y7052665D01*
X6691325Y7048550D01*
X6689191Y7044994D01*
X6685788Y7042607D01*
X6681774Y7041743D01*
X4427220Y7041743D01*
X4423257Y7042556D01*
X4419904Y7044893D01*
X4417720Y7048347D01*
X4417110Y7052360D01*
X4418076Y7056323D01*
X4420565Y7059574D01*
X4424121Y7061555D01*
X4438243Y7066178D01*
X4456023Y7073900D01*
X4472990Y7083348D01*
X4488992Y7094372D01*
X4503826Y7106920D01*
X4517390Y7120788D01*
X4529531Y7135926D01*
X4540148Y7152182D01*
X4549190Y7169353D01*
X4556506Y7187336D01*
X4562043Y7205929D01*
X4565802Y7224979D01*
X4567682Y7244283D01*
X4567682Y7263688D01*
X4565802Y7283043D01*
X4562043Y7302093D01*
X4556506Y7320686D01*
X4549190Y7338669D01*
X4540148Y7355840D01*
X4529531Y7372096D01*
X4517390Y7387234D01*
X4503826Y7401102D01*
X4488992Y7413650D01*
X4472990Y7424674D01*
X4456023Y7434072D01*
X4438243Y7441844D01*
X4419752Y7447838D01*
X4400804Y7452055D01*
X4381550Y7454392D01*
X4362145Y7454849D01*
X4342790Y7453426D01*
X4323638Y7450175D01*
X4304893Y7445044D01*
X4286758Y7438186D01*
X4269384Y7429601D01*
X4252874Y7419340D01*
X4237431Y7407554D01*
X4223258Y7394346D01*
X4210354Y7379817D01*
X4198975Y7364120D01*
X4189120Y7347356D01*
X4180941Y7329779D01*
X4174490Y7311440D01*
X4169867Y7292594D01*
X4167022Y7273391D01*
X4166108Y7253986D01*
X4167022Y7234631D01*
X4169867Y7215428D01*
X4174490Y7196581D01*
X4180941Y7178243D01*
X4189120Y7160666D01*
X4198975Y7143902D01*
X4210354Y7128205D01*
X4223258Y7113676D01*
X4237431Y7100468D01*
X4252874Y7088682D01*
X4269384Y7078421D01*
X4286758Y7069836D01*
X4304893Y7062927D01*
X4323638Y7057847D01*
X4339285Y7055154D01*
X4343146Y7053681D01*
X4346041Y7050735D01*
X4347565Y7046874D01*
X4347464Y7042759D01*
X4345686Y7039000D01*
X4342536Y7036308D01*
X4337151Y7033259D01*
X4332427Y7029754D01*
X4330141Y7027722D01*
X4326178Y7023455D01*
X4324096Y7020814D01*
X4321149Y7016242D01*
X4319422Y7012990D01*
X4317390Y7008215D01*
X4316171Y7004405D01*
X4315104Y6999630D01*
X4314545Y6995414D01*
X4314342Y6990842D01*
X4314545Y6986270D01*
X4315104Y6982053D01*
X4316171Y6977278D01*
X4317390Y6973468D01*
X4319422Y6968693D01*
X4321149Y6965442D01*
X4324096Y6960870D01*
X4326178Y6958228D01*
X4330141Y6953961D01*
X4332427Y6951929D01*
X4337304Y6948271D01*
X4339640Y6946849D01*
X4345381Y6943953D01*
X4347565Y6943140D01*
X4356404Y6940753D01*
G37*
G36*
X1987143Y7053173D02*
G01*
X2006549Y7053630D01*
X2025802Y7055967D01*
X2044801Y7060184D01*
X2063242Y7066178D01*
X2081022Y7073900D01*
X2097989Y7083348D01*
X2113991Y7094372D01*
X2128824Y7106869D01*
X2142388Y7120788D01*
X2154529Y7135926D01*
X2165146Y7152131D01*
X2174189Y7169353D01*
X2181504Y7187336D01*
X2187041Y7205929D01*
X2190800Y7224979D01*
X2192680Y7244283D01*
X2192680Y7263688D01*
X2190800Y7283043D01*
X2187041Y7302093D01*
X2181504Y7320686D01*
X2174189Y7338669D01*
X2165146Y7355840D01*
X2154529Y7372096D01*
X2142388Y7387234D01*
X2128824Y7401102D01*
X2113991Y7413650D01*
X2097989Y7424674D01*
X2081022Y7434072D01*
X2063242Y7441844D01*
X2044801Y7447838D01*
X2025802Y7452004D01*
X2006549Y7454392D01*
X1987143Y7454849D01*
X1967788Y7453426D01*
X1948637Y7450175D01*
X1929942Y7445044D01*
X1911756Y7438186D01*
X1894382Y7429601D01*
X1877872Y7419340D01*
X1862429Y7407554D01*
X1848256Y7394346D01*
X1835353Y7379817D01*
X1823974Y7364069D01*
X1814118Y7347356D01*
X1805939Y7329779D01*
X1799488Y7311440D01*
X1794865Y7292594D01*
X1792020Y7273391D01*
X1791106Y7253986D01*
X1792020Y7234631D01*
X1794865Y7215428D01*
X1799488Y7196531D01*
X1805939Y7178243D01*
X1814118Y7160615D01*
X1823974Y7143902D01*
X1835353Y7128205D01*
X1848256Y7113676D01*
X1862429Y7100468D01*
X1877872Y7088682D01*
X1894382Y7078421D01*
X1911756Y7069836D01*
X1929942Y7062927D01*
X1948637Y7057847D01*
X1967788Y7054545D01*
G37*
G36*
X9112148Y7053173D02*
G01*
X9131554Y7053630D01*
X9150807Y7055967D01*
X9169755Y7060184D01*
X9188246Y7066178D01*
X9206026Y7073900D01*
X9222994Y7083348D01*
X9238996Y7094372D01*
X9253829Y7106869D01*
X9267393Y7120788D01*
X9279534Y7135926D01*
X9290151Y7152131D01*
X9299194Y7169353D01*
X9306509Y7187336D01*
X9312046Y7205929D01*
X9315805Y7224979D01*
X9317685Y7244283D01*
X9317685Y7263688D01*
X9315805Y7283043D01*
X9312046Y7302093D01*
X9306509Y7320686D01*
X9299194Y7338669D01*
X9290151Y7355840D01*
X9279534Y7372096D01*
X9267393Y7387234D01*
X9253829Y7401102D01*
X9238996Y7413650D01*
X9222994Y7424674D01*
X9206026Y7434072D01*
X9188246Y7441844D01*
X9169755Y7447838D01*
X9150807Y7452004D01*
X9131554Y7454392D01*
X9112148Y7454849D01*
X9092793Y7453426D01*
X9073642Y7450175D01*
X9054896Y7445044D01*
X9036761Y7438186D01*
X9019387Y7429601D01*
X9002877Y7419340D01*
X8987434Y7407554D01*
X8973261Y7394346D01*
X8960358Y7379817D01*
X8948978Y7364069D01*
X8939123Y7347356D01*
X8930944Y7329779D01*
X8924493Y7311440D01*
X8919870Y7292594D01*
X8917025Y7273391D01*
X8916111Y7253986D01*
X8917025Y7234631D01*
X8919870Y7215428D01*
X8924493Y7196531D01*
X8930944Y7178243D01*
X8939123Y7160615D01*
X8948978Y7143902D01*
X8960358Y7128205D01*
X8973261Y7113676D01*
X8987434Y7100468D01*
X9002877Y7088682D01*
X9019387Y7078421D01*
X9036761Y7069836D01*
X9054896Y7062927D01*
X9073642Y7057847D01*
X9092793Y7054545D01*
G37*
G36*
X837437Y7105345D02*
G01*
X860552Y7105345D01*
X883564Y7107275D01*
X906373Y7111136D01*
X928725Y7116876D01*
X950569Y7124496D01*
X971651Y7133894D01*
X991920Y7145020D01*
X1011174Y7157770D01*
X1029258Y7172147D01*
X1046124Y7187946D01*
X1061567Y7205116D01*
X1075537Y7223556D01*
X1087932Y7243064D01*
X1098651Y7263536D01*
X1107592Y7284821D01*
X1114755Y7306818D01*
X1119987Y7329322D01*
X1123391Y7352182D01*
X1124813Y7375245D01*
X1124356Y7398308D01*
X1121918Y7421321D01*
X1117600Y7443978D01*
X1111402Y7466279D01*
X1103325Y7487920D01*
X1093520Y7508798D01*
X1081938Y7528814D01*
X1068781Y7547813D01*
X1054049Y7565593D01*
X1037844Y7582103D01*
X1020368Y7597241D01*
X1001674Y7610805D01*
X981913Y7622794D01*
X961237Y7633055D01*
X939749Y7641539D01*
X917600Y7648244D01*
X894994Y7653020D01*
X872083Y7655915D01*
X849020Y7656880D01*
X825906Y7655915D01*
X802995Y7653020D01*
X780389Y7648244D01*
X758291Y7641539D01*
X736803Y7633055D01*
X716076Y7622794D01*
X714806Y7621981D01*
X710641Y7620558D01*
X706272Y7621066D01*
X702513Y7623352D01*
X700074Y7627010D01*
X699363Y7631328D01*
X699617Y7634986D01*
X698754Y7648651D01*
X696061Y7662062D01*
X691642Y7675016D01*
X685596Y7687309D01*
X678027Y7698689D01*
X668985Y7709001D01*
X658672Y7717993D01*
X647293Y7725613D01*
X635050Y7731658D01*
X622096Y7736078D01*
X608634Y7738719D01*
X595020Y7739634D01*
X581355Y7738719D01*
X567944Y7736078D01*
X554939Y7731658D01*
X542696Y7725613D01*
X531317Y7717993D01*
X521004Y7709001D01*
X512013Y7698689D01*
X504393Y7687309D01*
X498348Y7675016D01*
X493928Y7662062D01*
X491286Y7648651D01*
X490372Y7634986D01*
X491286Y7621320D01*
X493928Y7607909D01*
X498348Y7594955D01*
X504393Y7582712D01*
X512013Y7571333D01*
X521004Y7561021D01*
X531317Y7551978D01*
X542696Y7544409D01*
X554939Y7538364D01*
X567944Y7533944D01*
X581355Y7531252D01*
X595020Y7530388D01*
X598830Y7530642D01*
X603148Y7529982D01*
X606755Y7527594D01*
X609092Y7523886D01*
X609600Y7519568D01*
X608279Y7515402D01*
X604520Y7508798D01*
X594664Y7487920D01*
X586587Y7466279D01*
X580390Y7443978D01*
X576072Y7421321D01*
X573633Y7398308D01*
X573176Y7375245D01*
X574598Y7352182D01*
X578002Y7329322D01*
X583285Y7306818D01*
X590397Y7284821D01*
X599338Y7263536D01*
X610057Y7243064D01*
X622452Y7223556D01*
X636422Y7205116D01*
X651865Y7187946D01*
X668731Y7172147D01*
X686816Y7157770D01*
X706069Y7145020D01*
X726338Y7133894D01*
X747420Y7124496D01*
X769264Y7116876D01*
X791616Y7111136D01*
X814425Y7107275D01*
G37*
G36*
X3212439Y7105345D02*
G01*
X3235553Y7105345D01*
X3258565Y7107275D01*
X3281375Y7111136D01*
X3303727Y7116876D01*
X3325571Y7124496D01*
X3346653Y7133894D01*
X3366922Y7145020D01*
X3386175Y7157821D01*
X3404260Y7172147D01*
X3421126Y7187946D01*
X3436569Y7205167D01*
X3450539Y7223556D01*
X3462934Y7243064D01*
X3473653Y7263536D01*
X3482594Y7284821D01*
X3489756Y7306818D01*
X3494989Y7329322D01*
X3498392Y7352182D01*
X3499815Y7375245D01*
X3499358Y7398308D01*
X3496919Y7421321D01*
X3492601Y7444028D01*
X3486404Y7466279D01*
X3478326Y7487920D01*
X3468522Y7508849D01*
X3456940Y7528864D01*
X3443782Y7547813D01*
X3429050Y7565593D01*
X3412845Y7582103D01*
X3395370Y7597241D01*
X3376676Y7610805D01*
X3356914Y7622794D01*
X3336239Y7633055D01*
X3314750Y7641539D01*
X3292601Y7648244D01*
X3269996Y7653020D01*
X3247085Y7655915D01*
X3224022Y7656880D01*
X3200908Y7655915D01*
X3177997Y7653020D01*
X3155391Y7648244D01*
X3133242Y7641539D01*
X3111804Y7633055D01*
X3091078Y7622794D01*
X3089808Y7621981D01*
X3085642Y7620558D01*
X3081274Y7621066D01*
X3077514Y7623352D01*
X3075076Y7627010D01*
X3074365Y7631328D01*
X3074619Y7634986D01*
X3073755Y7648651D01*
X3071063Y7662062D01*
X3066643Y7675067D01*
X3060598Y7687309D01*
X3053029Y7698689D01*
X3043986Y7709001D01*
X3033674Y7717993D01*
X3022295Y7725613D01*
X3010052Y7731658D01*
X2997098Y7736078D01*
X2983636Y7738719D01*
X2970022Y7739634D01*
X2956356Y7738719D01*
X2942894Y7736078D01*
X2929940Y7731658D01*
X2917698Y7725613D01*
X2906318Y7717993D01*
X2896006Y7709001D01*
X2887014Y7698689D01*
X2879394Y7687309D01*
X2873349Y7675067D01*
X2868930Y7662062D01*
X2866288Y7648651D01*
X2865374Y7634986D01*
X2866288Y7621371D01*
X2868930Y7607909D01*
X2873349Y7594955D01*
X2879394Y7582712D01*
X2887014Y7571333D01*
X2896006Y7561021D01*
X2906318Y7551978D01*
X2917698Y7544409D01*
X2929940Y7538364D01*
X2942894Y7533944D01*
X2956356Y7531252D01*
X2970022Y7530388D01*
X2973832Y7530642D01*
X2978150Y7529982D01*
X2981756Y7527594D01*
X2984093Y7523886D01*
X2984601Y7519568D01*
X2983280Y7515402D01*
X2979521Y7508849D01*
X2969666Y7487920D01*
X2961589Y7466279D01*
X2955391Y7444028D01*
X2951073Y7421321D01*
X2948635Y7398308D01*
X2948178Y7375245D01*
X2949600Y7352182D01*
X2953004Y7329322D01*
X2958287Y7306818D01*
X2965399Y7284821D01*
X2974340Y7263536D01*
X2985058Y7243064D01*
X2997454Y7223556D01*
X3011424Y7205167D01*
X3026867Y7187946D01*
X3043732Y7172147D01*
X3061817Y7157821D01*
X3081070Y7145020D01*
X3101340Y7133894D01*
X3122422Y7124496D01*
X3144266Y7116876D01*
X3166618Y7111136D01*
X3189427Y7107275D01*
G37*
G36*
X7962442Y7105345D02*
G01*
X7985556Y7105345D01*
X8008569Y7107275D01*
X8031378Y7111136D01*
X8053730Y7116876D01*
X8075574Y7124496D01*
X8096656Y7133894D01*
X8116925Y7145020D01*
X8136178Y7157770D01*
X8154263Y7172147D01*
X8171129Y7187946D01*
X8186572Y7205116D01*
X8200542Y7223556D01*
X8212937Y7243064D01*
X8223656Y7263536D01*
X8232597Y7284821D01*
X8239759Y7306818D01*
X8244992Y7329322D01*
X8248396Y7352182D01*
X8249818Y7375245D01*
X8249361Y7398308D01*
X8246922Y7421321D01*
X8242604Y7443978D01*
X8236407Y7466279D01*
X8228330Y7487920D01*
X8218525Y7508798D01*
X8206943Y7528814D01*
X8193786Y7547813D01*
X8179053Y7565593D01*
X8162848Y7582103D01*
X8145373Y7597241D01*
X8126679Y7610805D01*
X8106918Y7622794D01*
X8086242Y7633055D01*
X8064753Y7641539D01*
X8042605Y7648244D01*
X8019999Y7653020D01*
X7997088Y7655915D01*
X7974025Y7656880D01*
X7950911Y7655915D01*
X7928000Y7653020D01*
X7905394Y7648244D01*
X7883245Y7641539D01*
X7861757Y7633055D01*
X7841081Y7622794D01*
X7839811Y7621981D01*
X7835646Y7620558D01*
X7831277Y7621066D01*
X7827518Y7623352D01*
X7825079Y7627010D01*
X7824368Y7631328D01*
X7824622Y7634986D01*
X7823708Y7648651D01*
X7821066Y7662062D01*
X7816646Y7675016D01*
X7810601Y7687309D01*
X7802981Y7698689D01*
X7793990Y7709001D01*
X7783677Y7717993D01*
X7772298Y7725613D01*
X7760055Y7731658D01*
X7747101Y7736078D01*
X7733639Y7738719D01*
X7720025Y7739634D01*
X7706359Y7738719D01*
X7692898Y7736078D01*
X7679944Y7731658D01*
X7667701Y7725613D01*
X7656322Y7717993D01*
X7646009Y7709001D01*
X7637018Y7698689D01*
X7629398Y7687309D01*
X7623352Y7675016D01*
X7618933Y7662062D01*
X7616291Y7648651D01*
X7615377Y7634986D01*
X7616291Y7621320D01*
X7618933Y7607909D01*
X7623352Y7594955D01*
X7629398Y7582712D01*
X7637018Y7571333D01*
X7646009Y7561021D01*
X7656322Y7551978D01*
X7667701Y7544409D01*
X7679944Y7538364D01*
X7692898Y7533944D01*
X7706359Y7531252D01*
X7720025Y7530388D01*
X7723835Y7530642D01*
X7728153Y7529982D01*
X7731759Y7527594D01*
X7734096Y7523886D01*
X7734604Y7519568D01*
X7733284Y7515402D01*
X7729474Y7508798D01*
X7719669Y7487920D01*
X7711592Y7466279D01*
X7705394Y7443978D01*
X7701076Y7421321D01*
X7698638Y7398308D01*
X7698181Y7375245D01*
X7699603Y7352182D01*
X7703007Y7329322D01*
X7708239Y7306818D01*
X7715402Y7284821D01*
X7724343Y7263536D01*
X7735062Y7243064D01*
X7747457Y7223556D01*
X7761427Y7205116D01*
X7776870Y7187946D01*
X7793736Y7172147D01*
X7811820Y7157770D01*
X7831074Y7145020D01*
X7851343Y7133894D01*
X7872425Y7124496D01*
X7894269Y7116876D01*
X7916621Y7111136D01*
X7939430Y7107275D01*
G37*
G36*
X5587441Y7105345D02*
G01*
X5610555Y7105345D01*
X5633567Y7107275D01*
X5656376Y7111136D01*
X5678728Y7116876D01*
X5700572Y7124496D01*
X5721654Y7133894D01*
X5741924Y7145020D01*
X5761177Y7157770D01*
X5779262Y7172147D01*
X5796127Y7187946D01*
X5811570Y7205116D01*
X5825540Y7223556D01*
X5837936Y7243064D01*
X5848654Y7263536D01*
X5857595Y7284821D01*
X5864758Y7306818D01*
X5869990Y7329322D01*
X5873394Y7352182D01*
X5874816Y7375245D01*
X5874359Y7398308D01*
X5871921Y7421321D01*
X5867603Y7443978D01*
X5861405Y7466279D01*
X5853328Y7487920D01*
X5843524Y7508798D01*
X5831941Y7528814D01*
X5818784Y7547813D01*
X5804052Y7565593D01*
X5787847Y7582103D01*
X5770372Y7597241D01*
X5751677Y7610805D01*
X5731916Y7622794D01*
X5711240Y7633055D01*
X5689752Y7641539D01*
X5667603Y7648244D01*
X5644997Y7653020D01*
X5622086Y7655915D01*
X5599023Y7656880D01*
X5575909Y7655915D01*
X5552998Y7653020D01*
X5530392Y7648244D01*
X5508244Y7641539D01*
X5486806Y7633055D01*
X5466080Y7622794D01*
X5464810Y7621981D01*
X5460644Y7620558D01*
X5456275Y7621066D01*
X5452516Y7623352D01*
X5450078Y7627010D01*
X5449366Y7631328D01*
X5449620Y7634986D01*
X5448757Y7648651D01*
X5446064Y7662062D01*
X5441645Y7675016D01*
X5435600Y7687309D01*
X5428030Y7698689D01*
X5418988Y7709001D01*
X5408676Y7717993D01*
X5397296Y7725613D01*
X5385054Y7731658D01*
X5372100Y7736078D01*
X5358638Y7738719D01*
X5345023Y7739634D01*
X5331358Y7738719D01*
X5317896Y7736078D01*
X5304942Y7731658D01*
X5292699Y7725613D01*
X5281320Y7717993D01*
X5271008Y7709001D01*
X5262016Y7698689D01*
X5254396Y7687309D01*
X5248351Y7675016D01*
X5243931Y7662062D01*
X5241290Y7648651D01*
X5240375Y7634986D01*
X5241290Y7621320D01*
X5243931Y7607909D01*
X5248351Y7594955D01*
X5254396Y7582712D01*
X5262016Y7571333D01*
X5271008Y7561021D01*
X5281320Y7551978D01*
X5292699Y7544409D01*
X5304942Y7538364D01*
X5317896Y7533944D01*
X5331358Y7531252D01*
X5345023Y7530388D01*
X5348833Y7530642D01*
X5353151Y7529982D01*
X5356758Y7527594D01*
X5359095Y7523886D01*
X5359603Y7519568D01*
X5358282Y7515402D01*
X5354523Y7508798D01*
X5344668Y7487920D01*
X5336590Y7466279D01*
X5330393Y7443978D01*
X5326075Y7421321D01*
X5323636Y7398308D01*
X5323179Y7375245D01*
X5324602Y7352182D01*
X5328005Y7329322D01*
X5333288Y7306818D01*
X5340400Y7284821D01*
X5349341Y7263536D01*
X5360060Y7243064D01*
X5372455Y7223556D01*
X5386425Y7205116D01*
X5401868Y7187946D01*
X5418734Y7172147D01*
X5436819Y7157770D01*
X5456072Y7145020D01*
X5476341Y7133894D01*
X5497423Y7124496D01*
X5519267Y7116876D01*
X5541619Y7111136D01*
X5564428Y7107275D01*
G37*
G36*
X9491268Y7788402D02*
G01*
X9504730Y7788402D01*
X9518091Y7790230D01*
X9531045Y7793786D01*
X9543491Y7799019D01*
X9555073Y7805877D01*
X9565640Y7814208D01*
X9574987Y7823911D01*
X9582962Y7834731D01*
X9589465Y7846568D01*
X9594291Y7859115D01*
X9597390Y7872222D01*
X9598761Y7885633D01*
X9598304Y7899095D01*
X9596069Y7912353D01*
X9592056Y7925257D01*
X9586417Y7937449D01*
X9579152Y7948777D01*
X9570466Y7959090D01*
X9560458Y7968132D01*
X9549384Y7975752D01*
X9537344Y7981797D01*
X9524644Y7986217D01*
X9511436Y7988909D01*
X9498025Y7989824D01*
X9484563Y7988909D01*
X9471355Y7986217D01*
X9458655Y7981797D01*
X9446615Y7975752D01*
X9435541Y7968132D01*
X9425533Y7959090D01*
X9416846Y7948777D01*
X9409582Y7937449D01*
X9403943Y7925257D01*
X9399930Y7912353D01*
X9397695Y7899095D01*
X9397238Y7885633D01*
X9398609Y7872222D01*
X9401708Y7859115D01*
X9406534Y7846568D01*
X9413036Y7834731D01*
X9421012Y7823911D01*
X9430359Y7814208D01*
X9440926Y7805877D01*
X9452508Y7799019D01*
X9464954Y7793786D01*
X9477908Y7790230D01*
G37*
G36*
X595020Y8038388D02*
G01*
X608634Y8039252D01*
X622096Y8041944D01*
X635050Y8046364D01*
X647293Y8052409D01*
X658672Y8059978D01*
X668985Y8069021D01*
X678027Y8079333D01*
X685596Y8090712D01*
X691642Y8102955D01*
X696061Y8115909D01*
X698754Y8129320D01*
X699617Y8142986D01*
X699363Y8146846D01*
X700024Y8151114D01*
X702360Y8154720D01*
X706018Y8157057D01*
X710285Y8157667D01*
X714400Y8156448D01*
X726338Y8149894D01*
X747420Y8140496D01*
X769264Y8132876D01*
X791616Y8127136D01*
X814425Y8123275D01*
X837437Y8121345D01*
X860552Y8121345D01*
X883564Y8123275D01*
X906373Y8127136D01*
X928725Y8132876D01*
X950569Y8140496D01*
X971651Y8149894D01*
X991920Y8161020D01*
X1011174Y8173770D01*
X1029258Y8188147D01*
X1046124Y8203946D01*
X1061567Y8221116D01*
X1075537Y8239556D01*
X1087932Y8259064D01*
X1098651Y8279536D01*
X1107592Y8300821D01*
X1114755Y8322818D01*
X1119987Y8345322D01*
X1123391Y8368182D01*
X1124813Y8391245D01*
X1124356Y8414308D01*
X1121918Y8437321D01*
X1117600Y8459978D01*
X1111402Y8482279D01*
X1103325Y8503920D01*
X1093520Y8524798D01*
X1081938Y8544814D01*
X1068781Y8563813D01*
X1054049Y8581593D01*
X1037844Y8598103D01*
X1020368Y8613241D01*
X1001674Y8626805D01*
X981913Y8638794D01*
X961237Y8649055D01*
X939749Y8657539D01*
X917600Y8664244D01*
X894994Y8669020D01*
X872083Y8671915D01*
X849020Y8672880D01*
X825906Y8671915D01*
X802995Y8669020D01*
X780389Y8664244D01*
X758291Y8657539D01*
X736803Y8649055D01*
X716076Y8638794D01*
X696315Y8626805D01*
X677621Y8613241D01*
X660146Y8598103D01*
X643991Y8581593D01*
X629259Y8563813D01*
X616051Y8544814D01*
X604520Y8524798D01*
X594664Y8503920D01*
X586587Y8482279D01*
X580390Y8459978D01*
X576072Y8437321D01*
X573633Y8414308D01*
X573176Y8391245D01*
X574598Y8368182D01*
X578002Y8345322D01*
X583285Y8322818D01*
X590397Y8300821D01*
X599338Y8279536D01*
X608380Y8262213D01*
X609549Y8258098D01*
X608888Y8253882D01*
X606552Y8250326D01*
X602945Y8247989D01*
X598728Y8247380D01*
X595020Y8247634D01*
X581355Y8246719D01*
X567944Y8244078D01*
X554939Y8239658D01*
X542696Y8233613D01*
X531317Y8225993D01*
X521004Y8217001D01*
X512013Y8206689D01*
X504393Y8195309D01*
X498348Y8183016D01*
X493928Y8170062D01*
X491286Y8156651D01*
X490372Y8142986D01*
X491286Y8129320D01*
X493928Y8115909D01*
X498348Y8102955D01*
X504393Y8090712D01*
X512013Y8079333D01*
X521004Y8069021D01*
X531317Y8059978D01*
X542696Y8052409D01*
X554939Y8046364D01*
X567944Y8041944D01*
X581355Y8039252D01*
G37*
G36*
X2970022Y8038388D02*
G01*
X2983636Y8039252D01*
X2997098Y8041944D01*
X3010052Y8046364D01*
X3022295Y8052409D01*
X3033674Y8059978D01*
X3043986Y8069021D01*
X3053029Y8079333D01*
X3060598Y8090712D01*
X3066643Y8102955D01*
X3071063Y8115909D01*
X3073755Y8129371D01*
X3074619Y8142986D01*
X3074365Y8146846D01*
X3075025Y8151114D01*
X3077362Y8154771D01*
X3081020Y8157057D01*
X3085287Y8157667D01*
X3089402Y8156448D01*
X3101340Y8149894D01*
X3122422Y8140496D01*
X3144266Y8132876D01*
X3166618Y8127136D01*
X3189427Y8123275D01*
X3212439Y8121345D01*
X3235553Y8121345D01*
X3258565Y8123275D01*
X3281375Y8127136D01*
X3303727Y8132876D01*
X3325571Y8140496D01*
X3346653Y8149894D01*
X3366922Y8161020D01*
X3386175Y8173821D01*
X3404260Y8188147D01*
X3421126Y8203946D01*
X3436569Y8221167D01*
X3450539Y8239556D01*
X3462934Y8259064D01*
X3473653Y8279536D01*
X3482594Y8300821D01*
X3489756Y8322818D01*
X3494989Y8345322D01*
X3498392Y8368182D01*
X3499815Y8391245D01*
X3499358Y8414308D01*
X3496919Y8437321D01*
X3492601Y8460028D01*
X3486404Y8482279D01*
X3478326Y8503920D01*
X3468522Y8524849D01*
X3456940Y8544864D01*
X3443782Y8563813D01*
X3429050Y8581593D01*
X3412845Y8598103D01*
X3395370Y8613241D01*
X3376676Y8626805D01*
X3356914Y8638794D01*
X3336239Y8649055D01*
X3314750Y8657539D01*
X3292601Y8664244D01*
X3269996Y8669020D01*
X3247085Y8671915D01*
X3224022Y8672880D01*
X3200908Y8671915D01*
X3177997Y8669020D01*
X3155391Y8664244D01*
X3133242Y8657539D01*
X3111804Y8649055D01*
X3091078Y8638794D01*
X3071317Y8626805D01*
X3052622Y8613241D01*
X3035147Y8598103D01*
X3018942Y8581593D01*
X3004261Y8563813D01*
X2991053Y8544864D01*
X2979521Y8524849D01*
X2969666Y8503920D01*
X2961589Y8482279D01*
X2955391Y8460028D01*
X2951073Y8437321D01*
X2948635Y8414308D01*
X2948178Y8391245D01*
X2949600Y8368182D01*
X2953004Y8345322D01*
X2958287Y8322818D01*
X2965399Y8300821D01*
X2974340Y8279536D01*
X2983382Y8262213D01*
X2984550Y8258098D01*
X2983890Y8253882D01*
X2981553Y8250326D01*
X2977946Y8247989D01*
X2973730Y8247380D01*
X2970022Y8247634D01*
X2956356Y8246719D01*
X2942894Y8244078D01*
X2929940Y8239658D01*
X2917698Y8233613D01*
X2906318Y8225993D01*
X2896006Y8217001D01*
X2887014Y8206689D01*
X2879394Y8195309D01*
X2873349Y8183067D01*
X2868930Y8170062D01*
X2866288Y8156651D01*
X2865374Y8142986D01*
X2866288Y8129371D01*
X2868930Y8115909D01*
X2873349Y8102955D01*
X2879394Y8090712D01*
X2887014Y8079333D01*
X2896006Y8069021D01*
X2906318Y8059978D01*
X2917698Y8052409D01*
X2929940Y8046364D01*
X2942894Y8041944D01*
X2956356Y8039252D01*
G37*
G36*
X5345023Y8038388D02*
G01*
X5358638Y8039252D01*
X5372100Y8041944D01*
X5385054Y8046364D01*
X5397296Y8052409D01*
X5408676Y8059978D01*
X5418988Y8069021D01*
X5428030Y8079333D01*
X5435600Y8090712D01*
X5441645Y8102955D01*
X5446064Y8115909D01*
X5448757Y8129320D01*
X5449620Y8142986D01*
X5449366Y8146846D01*
X5450027Y8151114D01*
X5452364Y8154720D01*
X5456021Y8157057D01*
X5460288Y8157667D01*
X5464403Y8156448D01*
X5476341Y8149894D01*
X5497423Y8140496D01*
X5519267Y8132876D01*
X5541619Y8127136D01*
X5564428Y8123275D01*
X5587441Y8121345D01*
X5610555Y8121345D01*
X5633567Y8123275D01*
X5656376Y8127136D01*
X5678728Y8132876D01*
X5700572Y8140496D01*
X5721654Y8149894D01*
X5741924Y8161020D01*
X5761177Y8173770D01*
X5779262Y8188147D01*
X5796127Y8203946D01*
X5811570Y8221116D01*
X5825540Y8239556D01*
X5837936Y8259064D01*
X5848654Y8279536D01*
X5857595Y8300821D01*
X5864758Y8322818D01*
X5869990Y8345322D01*
X5873394Y8368182D01*
X5874816Y8391245D01*
X5874359Y8414308D01*
X5871921Y8437321D01*
X5867603Y8459978D01*
X5861405Y8482279D01*
X5853328Y8503920D01*
X5843524Y8524798D01*
X5831941Y8544814D01*
X5818784Y8563813D01*
X5804052Y8581593D01*
X5787847Y8598103D01*
X5770372Y8613241D01*
X5751677Y8626805D01*
X5731916Y8638794D01*
X5711240Y8649055D01*
X5689752Y8657539D01*
X5667603Y8664244D01*
X5644997Y8669020D01*
X5622086Y8671915D01*
X5599023Y8672880D01*
X5575909Y8671915D01*
X5552998Y8669020D01*
X5530392Y8664244D01*
X5508244Y8657539D01*
X5486806Y8649055D01*
X5466080Y8638794D01*
X5446318Y8626805D01*
X5427624Y8613241D01*
X5410149Y8598103D01*
X5393944Y8581593D01*
X5379262Y8563813D01*
X5366054Y8544814D01*
X5354523Y8524798D01*
X5344668Y8503920D01*
X5336590Y8482279D01*
X5330393Y8459978D01*
X5326075Y8437321D01*
X5323636Y8414308D01*
X5323179Y8391245D01*
X5324602Y8368182D01*
X5328005Y8345322D01*
X5333288Y8322818D01*
X5340400Y8300821D01*
X5349341Y8279536D01*
X5358384Y8262213D01*
X5359552Y8258098D01*
X5358892Y8253882D01*
X5356555Y8250326D01*
X5352948Y8247989D01*
X5348732Y8247380D01*
X5345023Y8247634D01*
X5331358Y8246719D01*
X5317896Y8244078D01*
X5304942Y8239658D01*
X5292699Y8233613D01*
X5281320Y8225993D01*
X5271008Y8217001D01*
X5262016Y8206689D01*
X5254396Y8195309D01*
X5248351Y8183016D01*
X5243931Y8170062D01*
X5241290Y8156651D01*
X5240375Y8142986D01*
X5241290Y8129320D01*
X5243931Y8115909D01*
X5248351Y8102955D01*
X5254396Y8090712D01*
X5262016Y8079333D01*
X5271008Y8069021D01*
X5281320Y8059978D01*
X5292699Y8052409D01*
X5304942Y8046364D01*
X5317896Y8041944D01*
X5331358Y8039252D01*
G37*
G36*
X7720025Y8038388D02*
G01*
X7733639Y8039252D01*
X7747101Y8041944D01*
X7760055Y8046364D01*
X7772298Y8052409D01*
X7783677Y8059978D01*
X7793990Y8069021D01*
X7802981Y8079333D01*
X7810601Y8090712D01*
X7816646Y8102955D01*
X7821066Y8115909D01*
X7823708Y8129320D01*
X7824622Y8142986D01*
X7824368Y8146846D01*
X7825028Y8151114D01*
X7827365Y8154720D01*
X7831023Y8157057D01*
X7835290Y8157667D01*
X7839405Y8156448D01*
X7851343Y8149894D01*
X7872425Y8140496D01*
X7894269Y8132876D01*
X7916621Y8127136D01*
X7939430Y8123275D01*
X7962442Y8121345D01*
X7985556Y8121345D01*
X8008569Y8123275D01*
X8031378Y8127136D01*
X8053730Y8132876D01*
X8075574Y8140496D01*
X8096656Y8149894D01*
X8116925Y8161020D01*
X8136178Y8173770D01*
X8154263Y8188147D01*
X8171129Y8203946D01*
X8186572Y8221116D01*
X8200542Y8239556D01*
X8212937Y8259064D01*
X8223656Y8279536D01*
X8232597Y8300821D01*
X8239759Y8322818D01*
X8244992Y8345322D01*
X8248396Y8368182D01*
X8249818Y8391245D01*
X8249361Y8414308D01*
X8246922Y8437321D01*
X8242604Y8459978D01*
X8236407Y8482279D01*
X8228330Y8503920D01*
X8218525Y8524798D01*
X8206943Y8544814D01*
X8193786Y8563813D01*
X8179053Y8581593D01*
X8162848Y8598103D01*
X8145373Y8613241D01*
X8126679Y8626805D01*
X8106918Y8638794D01*
X8086242Y8649055D01*
X8064753Y8657539D01*
X8042605Y8664244D01*
X8019999Y8669020D01*
X7997088Y8671915D01*
X7974025Y8672880D01*
X7950911Y8671915D01*
X7928000Y8669020D01*
X7905394Y8664244D01*
X7883245Y8657539D01*
X7861757Y8649055D01*
X7841081Y8638794D01*
X7821320Y8626805D01*
X7802625Y8613241D01*
X7785150Y8598103D01*
X7768945Y8581593D01*
X7754213Y8563813D01*
X7741056Y8544814D01*
X7729474Y8524798D01*
X7719669Y8503920D01*
X7711592Y8482279D01*
X7705394Y8459978D01*
X7701076Y8437321D01*
X7698638Y8414308D01*
X7698181Y8391245D01*
X7699603Y8368182D01*
X7703007Y8345322D01*
X7708239Y8322818D01*
X7715402Y8300821D01*
X7724343Y8279536D01*
X7733385Y8262213D01*
X7734553Y8258098D01*
X7733893Y8253882D01*
X7731556Y8250326D01*
X7727950Y8247989D01*
X7723733Y8247380D01*
X7720025Y8247634D01*
X7706359Y8246719D01*
X7692898Y8244078D01*
X7679944Y8239658D01*
X7667701Y8233613D01*
X7656322Y8225993D01*
X7646009Y8217001D01*
X7637018Y8206689D01*
X7629398Y8195309D01*
X7623352Y8183016D01*
X7618933Y8170062D01*
X7616291Y8156651D01*
X7615377Y8142986D01*
X7616291Y8129320D01*
X7618933Y8115909D01*
X7623352Y8102955D01*
X7629398Y8090712D01*
X7637018Y8079333D01*
X7646009Y8069021D01*
X7656322Y8059978D01*
X7667701Y8052409D01*
X7679944Y8046364D01*
X7692898Y8041944D01*
X7706359Y8039252D01*
G37*
G36*
X4741265Y8042402D02*
G01*
X4754727Y8042402D01*
X4768088Y8044230D01*
X4781092Y8047786D01*
X4793488Y8053019D01*
X4805070Y8059877D01*
X4815636Y8068259D01*
X4824984Y8077911D01*
X4832959Y8088782D01*
X4839462Y8100568D01*
X4844288Y8113115D01*
X4847386Y8126222D01*
X4848758Y8139633D01*
X4848301Y8153095D01*
X4846066Y8166353D01*
X4842052Y8179257D01*
X4836414Y8191449D01*
X4829149Y8202828D01*
X4820462Y8213090D01*
X4810455Y8222132D01*
X4799380Y8229752D01*
X4787341Y8235797D01*
X4774641Y8240217D01*
X4761433Y8242909D01*
X4748022Y8243824D01*
X4734560Y8242909D01*
X4721352Y8240217D01*
X4708652Y8235797D01*
X4696612Y8229752D01*
X4685538Y8222132D01*
X4675530Y8213090D01*
X4666843Y8202828D01*
X4659579Y8191449D01*
X4653940Y8179257D01*
X4649927Y8166353D01*
X4647692Y8153095D01*
X4647234Y8139633D01*
X4648606Y8126222D01*
X4651705Y8113115D01*
X4656531Y8100568D01*
X4663033Y8088782D01*
X4671009Y8077911D01*
X4680356Y8068259D01*
X4690922Y8059877D01*
X4702505Y8053019D01*
X4714951Y8047786D01*
X4727905Y8044230D01*
G37*
G36*
X7116267Y8042402D02*
G01*
X7129729Y8042402D01*
X7143089Y8044230D01*
X7156094Y8047786D01*
X7168489Y8053019D01*
X7180072Y8059877D01*
X7190638Y8068208D01*
X7199985Y8077911D01*
X7207961Y8088731D01*
X7214463Y8100568D01*
X7219289Y8113115D01*
X7222388Y8126222D01*
X7223759Y8139633D01*
X7223302Y8153095D01*
X7221067Y8166353D01*
X7217054Y8179257D01*
X7211415Y8191449D01*
X7204151Y8202777D01*
X7195464Y8213090D01*
X7185456Y8222132D01*
X7174382Y8229752D01*
X7162342Y8235797D01*
X7149642Y8240217D01*
X7136434Y8242909D01*
X7123023Y8243824D01*
X7109561Y8242909D01*
X7096353Y8240217D01*
X7083653Y8235797D01*
X7071614Y8229752D01*
X7060539Y8222132D01*
X7050531Y8213090D01*
X7041845Y8202777D01*
X7034580Y8191449D01*
X7028942Y8179257D01*
X7024928Y8166353D01*
X7022693Y8153095D01*
X7022236Y8139633D01*
X7023608Y8126222D01*
X7026706Y8113115D01*
X7031532Y8100568D01*
X7038035Y8088731D01*
X7046010Y8077911D01*
X7055358Y8068208D01*
X7065924Y8059877D01*
X7077506Y8053019D01*
X7089952Y8047786D01*
X7102906Y8044230D01*
G37*
G36*
X2366264Y8042402D02*
G01*
X2379726Y8042402D01*
X2393086Y8044230D01*
X2406091Y8047786D01*
X2418486Y8053019D01*
X2430068Y8059877D01*
X2440635Y8068208D01*
X2449982Y8077911D01*
X2457958Y8088731D01*
X2464460Y8100568D01*
X2469286Y8113115D01*
X2472436Y8126222D01*
X2473756Y8139633D01*
X2473299Y8153095D01*
X2471064Y8166353D01*
X2467102Y8179257D01*
X2461412Y8191449D01*
X2454148Y8202777D01*
X2445461Y8213090D01*
X2435504Y8222132D01*
X2424379Y8229752D01*
X2412339Y8235797D01*
X2399639Y8240217D01*
X2386431Y8242909D01*
X2373020Y8243824D01*
X2359558Y8242909D01*
X2346350Y8240217D01*
X2333650Y8235797D01*
X2321610Y8229752D01*
X2310536Y8222132D01*
X2300528Y8213090D01*
X2291842Y8202777D01*
X2284577Y8191449D01*
X2278938Y8179257D01*
X2274925Y8166353D01*
X2272690Y8153095D01*
X2272233Y8139633D01*
X2273604Y8126222D01*
X2276703Y8113115D01*
X2281529Y8100568D01*
X2288032Y8088731D01*
X2296007Y8077911D01*
X2305354Y8068208D01*
X2315921Y8059877D01*
X2327554Y8053019D01*
X2339949Y8047786D01*
X2352903Y8044230D01*
G37*
G36*
X4741265Y8296402D02*
G01*
X4754727Y8296402D01*
X4768088Y8298230D01*
X4781092Y8301786D01*
X4793488Y8307019D01*
X4805070Y8313877D01*
X4815636Y8322259D01*
X4824984Y8331911D01*
X4832959Y8342782D01*
X4839462Y8354568D01*
X4844288Y8367115D01*
X4847386Y8380222D01*
X4848758Y8393633D01*
X4848301Y8407095D01*
X4846066Y8420354D01*
X4842052Y8433257D01*
X4836414Y8445449D01*
X4829149Y8456828D01*
X4820462Y8467090D01*
X4810455Y8476132D01*
X4799380Y8483752D01*
X4787341Y8489797D01*
X4774641Y8494217D01*
X4761433Y8496909D01*
X4748022Y8497824D01*
X4734560Y8496909D01*
X4721352Y8494217D01*
X4708652Y8489797D01*
X4696612Y8483752D01*
X4685538Y8476132D01*
X4675530Y8467090D01*
X4666843Y8456828D01*
X4659579Y8445449D01*
X4653940Y8433257D01*
X4649927Y8420354D01*
X4647692Y8407095D01*
X4647234Y8393633D01*
X4648606Y8380222D01*
X4651705Y8367115D01*
X4656531Y8354568D01*
X4663033Y8342782D01*
X4671009Y8331911D01*
X4680356Y8322259D01*
X4690922Y8313877D01*
X4702505Y8307019D01*
X4714951Y8301786D01*
X4727905Y8298230D01*
G37*
G36*
X7116267Y8296402D02*
G01*
X7129729Y8296402D01*
X7143089Y8298230D01*
X7156094Y8301786D01*
X7168489Y8307019D01*
X7180072Y8313877D01*
X7190638Y8322208D01*
X7199985Y8331911D01*
X7207961Y8342731D01*
X7214463Y8354568D01*
X7219289Y8367115D01*
X7222388Y8380222D01*
X7223759Y8393633D01*
X7223302Y8407095D01*
X7221067Y8420354D01*
X7217054Y8433257D01*
X7211415Y8445449D01*
X7204151Y8456777D01*
X7195464Y8467090D01*
X7185456Y8476132D01*
X7174382Y8483752D01*
X7162342Y8489797D01*
X7149642Y8494217D01*
X7136434Y8496909D01*
X7123023Y8497824D01*
X7109561Y8496909D01*
X7096353Y8494217D01*
X7083653Y8489797D01*
X7071614Y8483752D01*
X7060539Y8476132D01*
X7050531Y8467090D01*
X7041845Y8456777D01*
X7034580Y8445449D01*
X7028942Y8433257D01*
X7024928Y8420354D01*
X7022693Y8407095D01*
X7022236Y8393633D01*
X7023608Y8380222D01*
X7026706Y8367115D01*
X7031532Y8354568D01*
X7038035Y8342731D01*
X7046010Y8331911D01*
X7055358Y8322208D01*
X7065924Y8313877D01*
X7077506Y8307019D01*
X7089952Y8301786D01*
X7102906Y8298230D01*
G37*
G36*
X2366264Y8296402D02*
G01*
X2379726Y8296402D01*
X2393086Y8298230D01*
X2406091Y8301786D01*
X2418486Y8307019D01*
X2430068Y8313877D01*
X2440635Y8322208D01*
X2449982Y8331911D01*
X2457958Y8342731D01*
X2464460Y8354568D01*
X2469286Y8367115D01*
X2472436Y8380222D01*
X2473756Y8393633D01*
X2473299Y8407095D01*
X2471064Y8420354D01*
X2467102Y8433257D01*
X2461412Y8445449D01*
X2454148Y8456777D01*
X2445461Y8467090D01*
X2435504Y8476132D01*
X2424379Y8483752D01*
X2412339Y8489797D01*
X2399639Y8494217D01*
X2386431Y8496909D01*
X2373020Y8497824D01*
X2359558Y8496909D01*
X2346350Y8494217D01*
X2333650Y8489797D01*
X2321610Y8483752D01*
X2310536Y8476132D01*
X2300528Y8467090D01*
X2291842Y8456777D01*
X2284577Y8445449D01*
X2278938Y8433257D01*
X2274925Y8420354D01*
X2272690Y8407095D01*
X2272233Y8393633D01*
X2273604Y8380222D01*
X2276703Y8367115D01*
X2281529Y8354568D01*
X2288032Y8342731D01*
X2296007Y8331911D01*
X2305354Y8322208D01*
X2315921Y8313877D01*
X2327554Y8307019D01*
X2339949Y8301786D01*
X2352903Y8298230D01*
G37*
G36*
X9491268Y8296402D02*
G01*
X9504730Y8296402D01*
X9518091Y8298230D01*
X9531045Y8301786D01*
X9543491Y8307019D01*
X9555073Y8313877D01*
X9565640Y8322208D01*
X9574987Y8331911D01*
X9582962Y8342731D01*
X9589465Y8354568D01*
X9594291Y8367115D01*
X9597390Y8380222D01*
X9598761Y8393633D01*
X9598304Y8407095D01*
X9596069Y8420354D01*
X9592056Y8433257D01*
X9586417Y8445449D01*
X9579152Y8456777D01*
X9570466Y8467090D01*
X9560458Y8476132D01*
X9549384Y8483752D01*
X9537344Y8489797D01*
X9524644Y8494217D01*
X9511436Y8496909D01*
X9498025Y8497824D01*
X9484563Y8496909D01*
X9471355Y8494217D01*
X9458655Y8489797D01*
X9446615Y8483752D01*
X9435541Y8476132D01*
X9425533Y8467090D01*
X9416846Y8456777D01*
X9409582Y8445449D01*
X9403943Y8433257D01*
X9399930Y8420354D01*
X9397695Y8407095D01*
X9397238Y8393633D01*
X9398609Y8380222D01*
X9401708Y8367115D01*
X9406534Y8354568D01*
X9413036Y8342731D01*
X9421012Y8331911D01*
X9430359Y8322208D01*
X9440926Y8313877D01*
X9452508Y8307019D01*
X9464954Y8301786D01*
X9477908Y8298230D01*
G37*
G36*
X1987143Y8323173D02*
G01*
X2006549Y8323630D01*
X2025802Y8325967D01*
X2044801Y8330184D01*
X2063242Y8336178D01*
X2081022Y8343900D01*
X2097989Y8353348D01*
X2113991Y8364372D01*
X2128824Y8376869D01*
X2142388Y8390788D01*
X2154529Y8405926D01*
X2165146Y8422132D01*
X2174189Y8439353D01*
X2181504Y8457336D01*
X2187041Y8475929D01*
X2190800Y8494979D01*
X2192680Y8514283D01*
X2192680Y8533688D01*
X2190800Y8553043D01*
X2187041Y8572093D01*
X2181504Y8590686D01*
X2174189Y8608669D01*
X2165146Y8625840D01*
X2154529Y8642096D01*
X2142388Y8657234D01*
X2128824Y8671102D01*
X2113991Y8683650D01*
X2097989Y8694674D01*
X2081022Y8704072D01*
X2063242Y8711844D01*
X2044801Y8717838D01*
X2025802Y8722004D01*
X2006549Y8724392D01*
X1987143Y8724849D01*
X1967788Y8723426D01*
X1948637Y8720175D01*
X1929942Y8715044D01*
X1911756Y8708186D01*
X1894382Y8699601D01*
X1877872Y8689340D01*
X1862429Y8677554D01*
X1848256Y8664346D01*
X1835353Y8649817D01*
X1823974Y8634069D01*
X1814118Y8617356D01*
X1805939Y8599779D01*
X1799488Y8581440D01*
X1794865Y8562594D01*
X1792020Y8543391D01*
X1791106Y8523986D01*
X1792020Y8504631D01*
X1794865Y8485428D01*
X1799488Y8466531D01*
X1805939Y8448243D01*
X1814118Y8430615D01*
X1823974Y8413902D01*
X1835353Y8398205D01*
X1848256Y8383676D01*
X1862429Y8370468D01*
X1877872Y8358682D01*
X1894382Y8348421D01*
X1911756Y8339836D01*
X1929942Y8332927D01*
X1948637Y8327847D01*
X1967788Y8324545D01*
G37*
G36*
X6737146Y8323173D02*
G01*
X6756552Y8323630D01*
X6775805Y8325967D01*
X6794753Y8330184D01*
X6813245Y8336178D01*
X6831025Y8343900D01*
X6847992Y8353348D01*
X6863994Y8364372D01*
X6878828Y8376869D01*
X6892391Y8390788D01*
X6904532Y8405926D01*
X6915150Y8422132D01*
X6924192Y8439353D01*
X6931507Y8457336D01*
X6937044Y8475929D01*
X6940803Y8494979D01*
X6942683Y8514283D01*
X6942683Y8533688D01*
X6940803Y8553043D01*
X6937044Y8572093D01*
X6931507Y8590686D01*
X6924192Y8608669D01*
X6915150Y8625840D01*
X6904532Y8642096D01*
X6892391Y8657234D01*
X6878828Y8671102D01*
X6863994Y8683650D01*
X6847992Y8694674D01*
X6831025Y8704072D01*
X6813245Y8711844D01*
X6794753Y8717838D01*
X6775805Y8722004D01*
X6756552Y8724392D01*
X6737146Y8724849D01*
X6717792Y8723426D01*
X6698640Y8720175D01*
X6679946Y8715044D01*
X6661759Y8708186D01*
X6644386Y8699601D01*
X6627875Y8689340D01*
X6612432Y8677554D01*
X6598259Y8664346D01*
X6585356Y8649817D01*
X6573977Y8634069D01*
X6564122Y8617356D01*
X6555943Y8599779D01*
X6549491Y8581440D01*
X6544868Y8562594D01*
X6542024Y8543391D01*
X6541109Y8523986D01*
X6542024Y8504631D01*
X6544868Y8485428D01*
X6549491Y8466531D01*
X6555943Y8448243D01*
X6564122Y8430615D01*
X6573977Y8413902D01*
X6585356Y8398205D01*
X6598259Y8383676D01*
X6612432Y8370468D01*
X6627875Y8358682D01*
X6644386Y8348421D01*
X6661759Y8339836D01*
X6679946Y8332927D01*
X6698640Y8327847D01*
X6717792Y8324545D01*
G37*
G36*
X4362145Y8323173D02*
G01*
X4381550Y8323630D01*
X4400804Y8325967D01*
X4419752Y8330184D01*
X4438243Y8336178D01*
X4456023Y8343900D01*
X4472990Y8353348D01*
X4488992Y8364372D01*
X4503826Y8376920D01*
X4517390Y8390788D01*
X4529531Y8405926D01*
X4540148Y8422182D01*
X4549190Y8439353D01*
X4556506Y8457336D01*
X4562043Y8475929D01*
X4565802Y8494979D01*
X4567682Y8514283D01*
X4567682Y8533688D01*
X4565802Y8553043D01*
X4562043Y8572093D01*
X4556506Y8590686D01*
X4549190Y8608669D01*
X4540148Y8625840D01*
X4529531Y8642096D01*
X4517390Y8657234D01*
X4503826Y8671102D01*
X4488992Y8683650D01*
X4472990Y8694674D01*
X4456023Y8704072D01*
X4438243Y8711844D01*
X4419752Y8717838D01*
X4400804Y8722055D01*
X4381550Y8724392D01*
X4362145Y8724849D01*
X4342790Y8723426D01*
X4323638Y8720175D01*
X4304893Y8715044D01*
X4286758Y8708186D01*
X4269384Y8699601D01*
X4252874Y8689340D01*
X4237431Y8677554D01*
X4223258Y8664346D01*
X4210354Y8649817D01*
X4198975Y8634120D01*
X4189120Y8617356D01*
X4180941Y8599779D01*
X4174490Y8581440D01*
X4169867Y8562594D01*
X4167022Y8543391D01*
X4166108Y8523986D01*
X4167022Y8504631D01*
X4169867Y8485428D01*
X4174490Y8466582D01*
X4180941Y8448243D01*
X4189120Y8430666D01*
X4198975Y8413902D01*
X4210354Y8398205D01*
X4223258Y8383676D01*
X4237431Y8370468D01*
X4252874Y8358682D01*
X4269384Y8348421D01*
X4286758Y8339836D01*
X4304893Y8332927D01*
X4323638Y8327847D01*
X4342790Y8324596D01*
G37*
G36*
X9112148Y8323173D02*
G01*
X9131554Y8323630D01*
X9150807Y8325967D01*
X9169755Y8330184D01*
X9188246Y8336178D01*
X9206026Y8343900D01*
X9222994Y8353348D01*
X9238996Y8364372D01*
X9253829Y8376869D01*
X9267393Y8390788D01*
X9279534Y8405926D01*
X9290151Y8422132D01*
X9299194Y8439353D01*
X9306509Y8457336D01*
X9312046Y8475929D01*
X9315805Y8494979D01*
X9317685Y8514283D01*
X9317685Y8533688D01*
X9315805Y8553043D01*
X9312046Y8572093D01*
X9306509Y8590686D01*
X9299194Y8608669D01*
X9290151Y8625840D01*
X9279534Y8642096D01*
X9267393Y8657234D01*
X9253829Y8671102D01*
X9238996Y8683650D01*
X9222994Y8694674D01*
X9206026Y8704072D01*
X9188246Y8711844D01*
X9169755Y8717838D01*
X9150807Y8722004D01*
X9131554Y8724392D01*
X9112148Y8724849D01*
X9092793Y8723426D01*
X9073642Y8720175D01*
X9054896Y8715044D01*
X9036761Y8708186D01*
X9019387Y8699601D01*
X9002877Y8689340D01*
X8987434Y8677554D01*
X8973261Y8664346D01*
X8960358Y8649817D01*
X8948978Y8634069D01*
X8939123Y8617356D01*
X8930944Y8599779D01*
X8924493Y8581440D01*
X8919870Y8562594D01*
X8917025Y8543391D01*
X8916111Y8523986D01*
X8917025Y8504631D01*
X8919870Y8485428D01*
X8924493Y8466531D01*
X8930944Y8448243D01*
X8939123Y8430615D01*
X8948978Y8413902D01*
X8960358Y8398205D01*
X8973261Y8383676D01*
X8987434Y8370468D01*
X9002877Y8358682D01*
X9019387Y8348421D01*
X9036761Y8339836D01*
X9054896Y8332927D01*
X9073642Y8327847D01*
X9092793Y8324545D01*
G37*
G36*
X4799990Y8974124D02*
G01*
X4820869Y8975090D01*
X4841494Y8977934D01*
X4861814Y8982710D01*
X4881626Y8989364D01*
X4900676Y8997797D01*
X4918913Y9007957D01*
X4936134Y9019743D01*
X4952187Y9033052D01*
X4966919Y9047835D01*
X4980279Y9063888D01*
X4992065Y9081058D01*
X5002225Y9099296D01*
X5010658Y9118396D01*
X5017262Y9138158D01*
X5022037Y9158478D01*
X5024932Y9179153D01*
X5025898Y9199981D01*
X5024932Y9220860D01*
X5022037Y9241485D01*
X5017262Y9261805D01*
X5010658Y9281617D01*
X5002225Y9300667D01*
X4992065Y9318904D01*
X4980279Y9336125D01*
X4966919Y9352178D01*
X4952187Y9366961D01*
X4936134Y9380270D01*
X4918913Y9392056D01*
X4900676Y9402216D01*
X4881626Y9410649D01*
X4861814Y9417253D01*
X4841494Y9422028D01*
X4820869Y9424924D01*
X4799990Y9425889D01*
X4779162Y9424924D01*
X4758486Y9422028D01*
X4738166Y9417253D01*
X4718405Y9410649D01*
X4699304Y9402216D01*
X4681067Y9392056D01*
X4663846Y9380270D01*
X4647793Y9366961D01*
X4633061Y9352178D01*
X4619752Y9336125D01*
X4607915Y9318904D01*
X4597806Y9300667D01*
X4589373Y9281617D01*
X4582718Y9261805D01*
X4577943Y9241485D01*
X4575048Y9220860D01*
X4574082Y9199981D01*
X4575048Y9179153D01*
X4577943Y9158478D01*
X4582718Y9138158D01*
X4589373Y9118396D01*
X4597806Y9099296D01*
X4607915Y9081058D01*
X4619752Y9063888D01*
X4633061Y9047835D01*
X4647793Y9033052D01*
X4663846Y9019743D01*
X4681067Y9007957D01*
X4699304Y8997797D01*
X4718405Y8989364D01*
X4738166Y8982710D01*
X4758486Y8977934D01*
X4779162Y8975090D01*
G37*
G36*
X877874Y9011869D02*
G01*
X902106Y9011869D01*
X926287Y9013850D01*
X950163Y9017711D01*
X973734Y9023502D01*
X996696Y9031173D01*
X1018997Y9040672D01*
X1040434Y9051950D01*
X1060907Y9064904D01*
X1080262Y9079433D01*
X1098397Y9095536D01*
X1115212Y9113012D01*
X1130503Y9131757D01*
X1144270Y9151721D01*
X1156411Y9172702D01*
X1166774Y9194596D01*
X1175359Y9217253D01*
X1182116Y9240520D01*
X1186942Y9264243D01*
X1189888Y9288272D01*
X1190853Y9312503D01*
X1189888Y9336684D01*
X1186942Y9360763D01*
X1182116Y9384487D01*
X1175359Y9407753D01*
X1166774Y9430410D01*
X1156411Y9452305D01*
X1144270Y9473285D01*
X1130503Y9493250D01*
X1115212Y9511995D01*
X1098397Y9529470D01*
X1080262Y9545523D01*
X1060907Y9560102D01*
X1040434Y9573056D01*
X1018997Y9584283D01*
X996696Y9593783D01*
X973734Y9601454D01*
X950163Y9607296D01*
X926287Y9611156D01*
X902106Y9613087D01*
X877874Y9613087D01*
X853744Y9611156D01*
X829818Y9607296D01*
X806297Y9601454D01*
X783336Y9593783D01*
X761034Y9584283D01*
X739597Y9573056D01*
X719124Y9560102D01*
X699719Y9545523D01*
X681583Y9529470D01*
X664819Y9511995D01*
X649478Y9493250D01*
X635711Y9473285D01*
X623620Y9452305D01*
X613206Y9430410D01*
X604621Y9407753D01*
X597916Y9384487D01*
X593039Y9360763D01*
X590143Y9336684D01*
X589127Y9312503D01*
X590143Y9288272D01*
X593039Y9264243D01*
X597916Y9240520D01*
X604621Y9217253D01*
X613206Y9194596D01*
X623620Y9172702D01*
X635711Y9151721D01*
X649478Y9131757D01*
X664819Y9113012D01*
X681583Y9095536D01*
X699719Y9079433D01*
X719124Y9064904D01*
X739597Y9051950D01*
X761034Y9040672D01*
X783336Y9031173D01*
X806297Y9023502D01*
X829818Y9017711D01*
X853744Y9013850D01*
G37*
G36*
X5627878Y9011869D02*
G01*
X5652109Y9011869D01*
X5676290Y9013850D01*
X5700166Y9017711D01*
X5723686Y9023502D01*
X5746699Y9031173D01*
X5769000Y9040672D01*
X5790438Y9051950D01*
X5810910Y9064904D01*
X5830265Y9079433D01*
X5848400Y9095536D01*
X5865215Y9113012D01*
X5880506Y9131757D01*
X5894273Y9151721D01*
X5906414Y9172702D01*
X5916777Y9194596D01*
X5925362Y9217253D01*
X5932119Y9240520D01*
X5936945Y9264243D01*
X5939891Y9288272D01*
X5940856Y9312503D01*
X5939891Y9336684D01*
X5936945Y9360763D01*
X5932119Y9384487D01*
X5925362Y9407753D01*
X5916777Y9430410D01*
X5906414Y9452305D01*
X5894273Y9473285D01*
X5880506Y9493250D01*
X5865215Y9511995D01*
X5848400Y9529470D01*
X5830265Y9545523D01*
X5810910Y9560102D01*
X5790438Y9573056D01*
X5769000Y9584283D01*
X5746699Y9593783D01*
X5723686Y9601454D01*
X5700166Y9607296D01*
X5676290Y9611156D01*
X5652109Y9613087D01*
X5627878Y9613087D01*
X5603748Y9611156D01*
X5579821Y9607296D01*
X5556300Y9601454D01*
X5533339Y9593783D01*
X5511038Y9584283D01*
X5489600Y9573056D01*
X5469077Y9560102D01*
X5449722Y9545523D01*
X5431586Y9529470D01*
X5414822Y9511995D01*
X5399481Y9493250D01*
X5385714Y9473285D01*
X5373624Y9452305D01*
X5363210Y9430410D01*
X5354624Y9407753D01*
X5347919Y9384487D01*
X5343042Y9360763D01*
X5340146Y9336684D01*
X5339130Y9312503D01*
X5340146Y9288272D01*
X5343042Y9264243D01*
X5347919Y9240520D01*
X5354624Y9217253D01*
X5363210Y9194596D01*
X5373624Y9172702D01*
X5385714Y9151721D01*
X5399481Y9131757D01*
X5414822Y9113012D01*
X5431586Y9095536D01*
X5449722Y9079433D01*
X5469077Y9064904D01*
X5489600Y9051950D01*
X5511038Y9040672D01*
X5533339Y9031173D01*
X5556300Y9023502D01*
X5579821Y9017711D01*
X5603748Y9013850D01*
G37*
G36*
X3252876Y9011869D02*
G01*
X3277108Y9011869D01*
X3301288Y9013850D01*
X3325164Y9017711D01*
X3348685Y9023502D01*
X3371697Y9031173D01*
X3393998Y9040672D01*
X3415436Y9051950D01*
X3435908Y9064904D01*
X3455263Y9079433D01*
X3473399Y9095536D01*
X3490214Y9113012D01*
X3505504Y9131757D01*
X3519271Y9151721D01*
X3531412Y9172702D01*
X3541776Y9194596D01*
X3550361Y9217253D01*
X3557117Y9240520D01*
X3561943Y9264243D01*
X3564890Y9288272D01*
X3565855Y9312503D01*
X3564890Y9336684D01*
X3561943Y9360763D01*
X3557117Y9384487D01*
X3550361Y9407753D01*
X3541776Y9430410D01*
X3531412Y9452305D01*
X3519271Y9473285D01*
X3505504Y9493250D01*
X3490214Y9511995D01*
X3473399Y9529470D01*
X3455263Y9545523D01*
X3435908Y9560102D01*
X3415436Y9573056D01*
X3393998Y9584283D01*
X3371697Y9593783D01*
X3348685Y9601454D01*
X3325164Y9607296D01*
X3301288Y9611156D01*
X3277108Y9613087D01*
X3252876Y9613087D01*
X3228746Y9611156D01*
X3204819Y9607296D01*
X3181299Y9601454D01*
X3158337Y9593783D01*
X3136036Y9584283D01*
X3114598Y9573056D01*
X3094075Y9560102D01*
X3074720Y9545523D01*
X3056585Y9529470D01*
X3039821Y9511995D01*
X3024479Y9493250D01*
X3010712Y9473285D01*
X2998622Y9452305D01*
X2988208Y9430410D01*
X2979623Y9407753D01*
X2972917Y9384487D01*
X2968040Y9360763D01*
X2965145Y9336684D01*
X2964129Y9312503D01*
X2965145Y9288272D01*
X2968040Y9264243D01*
X2972917Y9240520D01*
X2979623Y9217253D01*
X2988208Y9194596D01*
X2998622Y9172702D01*
X3010712Y9151721D01*
X3024479Y9131757D01*
X3039821Y9113012D01*
X3056585Y9095536D01*
X3074720Y9079433D01*
X3094075Y9064904D01*
X3114598Y9051950D01*
X3136036Y9040672D01*
X3158337Y9031173D01*
X3181299Y9023502D01*
X3204819Y9017711D01*
X3228746Y9013850D01*
G37*
G36*
X8002879Y9011869D02*
G01*
X8027111Y9011869D01*
X8051292Y9013850D01*
X8075168Y9017711D01*
X8098688Y9023502D01*
X8121700Y9031173D01*
X8144002Y9040672D01*
X8165439Y9051950D01*
X8185912Y9064904D01*
X8205266Y9079433D01*
X8223402Y9095536D01*
X8240217Y9113012D01*
X8255508Y9131757D01*
X8269274Y9151721D01*
X8281416Y9172702D01*
X8291779Y9194596D01*
X8300364Y9217253D01*
X8307120Y9240520D01*
X8311946Y9264243D01*
X8314893Y9288272D01*
X8315858Y9312503D01*
X8314893Y9336684D01*
X8311946Y9360763D01*
X8307120Y9384487D01*
X8300364Y9407753D01*
X8291779Y9430410D01*
X8281416Y9452305D01*
X8269274Y9473285D01*
X8255508Y9493250D01*
X8240217Y9511995D01*
X8223402Y9529470D01*
X8205266Y9545523D01*
X8185912Y9560102D01*
X8165439Y9573056D01*
X8144002Y9584283D01*
X8121700Y9593783D01*
X8098688Y9601454D01*
X8075168Y9607296D01*
X8051292Y9611156D01*
X8027111Y9613087D01*
X8002879Y9613087D01*
X7978749Y9611156D01*
X7954822Y9607296D01*
X7931302Y9601454D01*
X7908340Y9593783D01*
X7886039Y9584283D01*
X7864602Y9573056D01*
X7844078Y9560102D01*
X7824724Y9545523D01*
X7806588Y9529470D01*
X7789824Y9511995D01*
X7774482Y9493250D01*
X7760716Y9473285D01*
X7748625Y9452305D01*
X7738211Y9430410D01*
X7729626Y9407753D01*
X7722870Y9384487D01*
X7718044Y9360763D01*
X7715148Y9336684D01*
X7714132Y9312503D01*
X7715148Y9288272D01*
X7718044Y9264243D01*
X7722870Y9240520D01*
X7729626Y9217253D01*
X7738211Y9194596D01*
X7748625Y9172702D01*
X7760716Y9151721D01*
X7774482Y9131757D01*
X7789824Y9113012D01*
X7806588Y9095536D01*
X7824724Y9079433D01*
X7844078Y9064904D01*
X7864602Y9051950D01*
X7886039Y9040672D01*
X7908340Y9031173D01*
X7931302Y9023502D01*
X7954822Y9017711D01*
X7978749Y9013850D01*
G37*

%LPD*%
G36*
X5778144Y1027023D02*
G01*
X5774842Y1027937D01*
X5772048Y1029919D01*
X3670858Y3131159D01*
X3668623Y3134410D01*
X3667861Y3138322D01*
X3667861Y3260344D01*
X3668471Y3263849D01*
X3670249Y3266897D01*
X3672941Y3269132D01*
X3683203Y3275076D01*
X3694988Y3283965D01*
X3705606Y3294227D01*
X3714851Y3305759D01*
X3722624Y3318306D01*
X3728770Y3331718D01*
X3733241Y3345738D01*
X3735984Y3360267D01*
X3736848Y3374999D01*
X3736644Y3378301D01*
X3737254Y3382314D01*
X3739337Y3385769D01*
X3742639Y3388156D01*
X3746601Y3389071D01*
X3750614Y3388309D01*
X3753967Y3386074D01*
X4470552Y2669489D01*
X4474006Y2666339D01*
X4477512Y2663647D01*
X4481271Y2661259D01*
X4485233Y2659227D01*
X4489297Y2657500D01*
X4493564Y2656179D01*
X4497882Y2655214D01*
X4502302Y2654655D01*
X4506925Y2654452D01*
X5708548Y2654452D01*
X5712002Y2653842D01*
X5715050Y2652115D01*
X5726785Y2637028D01*
X5736590Y2627528D01*
X5747562Y2619451D01*
X5759551Y2612898D01*
X5772251Y2608021D01*
X5785510Y2604820D01*
X5799074Y2603449D01*
X5812739Y2603906D01*
X5826150Y2606192D01*
X5839206Y2610256D01*
X5851550Y2615996D01*
X5863031Y2623312D01*
X5873445Y2632100D01*
X5882640Y2642209D01*
X5890310Y2653487D01*
X5896508Y2665628D01*
X5900978Y2678531D01*
X5903671Y2691892D01*
X5904585Y2705506D01*
X5904230Y2711145D01*
X5904738Y2715209D01*
X5906871Y2718663D01*
X5910122Y2721102D01*
X5914136Y2721965D01*
X5918149Y2721254D01*
X5921552Y2719019D01*
X6387287Y2253386D01*
X6389522Y2250084D01*
X6390284Y2246223D01*
X6390284Y1845462D01*
X6389522Y1841550D01*
X6387287Y1838248D01*
X5833211Y1283970D01*
X5830620Y1282039D01*
X5827522Y1281074D01*
X5824321Y1281125D01*
X5812739Y1283055D01*
X5799074Y1283512D01*
X5785510Y1282141D01*
X5772251Y1278991D01*
X5759551Y1274114D01*
X5747562Y1267561D01*
X5736590Y1259433D01*
X5726785Y1249984D01*
X5718352Y1239266D01*
X5711393Y1227531D01*
X5706059Y1214983D01*
X5702452Y1201826D01*
X5700623Y1188313D01*
X5700623Y1174699D01*
X5702452Y1161186D01*
X5706059Y1148029D01*
X5711393Y1135481D01*
X5718352Y1123746D01*
X5726785Y1113028D01*
X5736590Y1103528D01*
X5747562Y1095451D01*
X5759551Y1088898D01*
X5772251Y1084021D01*
X5785510Y1080820D01*
X5799074Y1079449D01*
X5812739Y1079906D01*
X5826150Y1082192D01*
X5839206Y1086256D01*
X5851550Y1091996D01*
X5863031Y1099312D01*
X5873445Y1108100D01*
X5882640Y1118209D01*
X5890310Y1129487D01*
X5896508Y1141628D01*
X5900978Y1154531D01*
X5903671Y1167892D01*
X5904585Y1181506D01*
X5903671Y1195120D01*
X5902198Y1202486D01*
X5902045Y1205788D01*
X5903010Y1208989D01*
X5904941Y1211681D01*
X6459321Y1766265D01*
X6462623Y1768500D01*
X6466484Y1769262D01*
X7920228Y1769262D01*
X7924241Y1768449D01*
X7927543Y1766112D01*
X7929727Y1762658D01*
X7930388Y1758645D01*
X7929372Y1754682D01*
X7926933Y1751482D01*
X7925104Y1749856D01*
X7916011Y1739442D01*
X7909864Y1730298D01*
X7907629Y1727860D01*
X7904683Y1726336D01*
X7901431Y1725777D01*
X6550355Y1725777D01*
X6545732Y1725574D01*
X6541312Y1725015D01*
X6536994Y1724050D01*
X6532727Y1722729D01*
X6528663Y1721002D01*
X6524701Y1718970D01*
X6520942Y1716582D01*
X6517436Y1713890D01*
X6513982Y1710740D01*
X5833211Y1029919D01*
X5830620Y1028039D01*
X5827572Y1027074D01*
X5824372Y1027125D01*
X5812739Y1029055D01*
X5799074Y1029512D01*
X5785510Y1028141D01*
X5781598Y1027226D01*
G37*

%LPC*%
G36*
X5799074Y1333449D02*
G01*
X5812739Y1333906D01*
X5826150Y1336192D01*
X5839206Y1340256D01*
X5851550Y1345996D01*
X5863031Y1353312D01*
X5873445Y1362100D01*
X5882640Y1372209D01*
X5890310Y1383487D01*
X5896508Y1395628D01*
X5900978Y1408531D01*
X5903671Y1421892D01*
X5904585Y1435506D01*
X5903671Y1449120D01*
X5900978Y1462481D01*
X5896508Y1475333D01*
X5890310Y1487525D01*
X5882640Y1498752D01*
X5873445Y1508861D01*
X5863031Y1517700D01*
X5851550Y1525016D01*
X5839206Y1530756D01*
X5826150Y1534820D01*
X5812739Y1537055D01*
X5799074Y1537512D01*
X5785510Y1536141D01*
X5772251Y1532991D01*
X5759551Y1528114D01*
X5747562Y1521561D01*
X5736590Y1513433D01*
X5726785Y1503984D01*
X5718352Y1493266D01*
X5711393Y1481531D01*
X5706059Y1468983D01*
X5702452Y1455826D01*
X5700623Y1442313D01*
X5700623Y1428699D01*
X5702452Y1415186D01*
X5706059Y1402029D01*
X5711393Y1389481D01*
X5718352Y1377746D01*
X5726785Y1367028D01*
X5736590Y1357528D01*
X5747562Y1349451D01*
X5759551Y1342898D01*
X5772251Y1338021D01*
X5785510Y1334820D01*
G37*
G36*
X5799074Y1587449D02*
G01*
X5812739Y1587906D01*
X5826150Y1590192D01*
X5839206Y1594256D01*
X5851550Y1599996D01*
X5863031Y1607312D01*
X5873445Y1616100D01*
X5882640Y1626209D01*
X5890310Y1637487D01*
X5896508Y1649628D01*
X5900978Y1662531D01*
X5903671Y1675892D01*
X5904585Y1689506D01*
X5903671Y1703120D01*
X5900978Y1716481D01*
X5896508Y1729333D01*
X5890310Y1741525D01*
X5882640Y1752752D01*
X5873445Y1762861D01*
X5863031Y1771700D01*
X5851550Y1779016D01*
X5839206Y1784756D01*
X5826150Y1788820D01*
X5812739Y1791055D01*
X5799074Y1791512D01*
X5785510Y1790141D01*
X5772251Y1786991D01*
X5759551Y1782114D01*
X5747562Y1775561D01*
X5736590Y1767433D01*
X5726785Y1757984D01*
X5718352Y1747266D01*
X5711393Y1735531D01*
X5706059Y1722983D01*
X5702452Y1709826D01*
X5700623Y1696313D01*
X5700623Y1682699D01*
X5702452Y1669186D01*
X5706059Y1656029D01*
X5711393Y1643481D01*
X5718352Y1631746D01*
X5726785Y1621028D01*
X5736590Y1611528D01*
X5747562Y1603451D01*
X5759551Y1596898D01*
X5772251Y1592021D01*
X5785510Y1588820D01*
G37*
G36*
X5799074Y1841449D02*
G01*
X5812739Y1841906D01*
X5826150Y1844192D01*
X5839206Y1848256D01*
X5851550Y1853996D01*
X5863031Y1861312D01*
X5873445Y1870100D01*
X5882640Y1880209D01*
X5890310Y1891487D01*
X5896508Y1903628D01*
X5900978Y1916531D01*
X5903671Y1929892D01*
X5904585Y1943506D01*
X5903671Y1957120D01*
X5900978Y1970481D01*
X5896508Y1983333D01*
X5890310Y1995525D01*
X5882640Y2006752D01*
X5873445Y2016861D01*
X5863031Y2025700D01*
X5851550Y2033016D01*
X5839206Y2038756D01*
X5826150Y2042820D01*
X5812739Y2045055D01*
X5799074Y2045512D01*
X5785510Y2044141D01*
X5772251Y2040991D01*
X5759551Y2036114D01*
X5747562Y2029561D01*
X5736590Y2021433D01*
X5726785Y2011984D01*
X5718352Y2001266D01*
X5711393Y1989531D01*
X5706059Y1976983D01*
X5702452Y1963826D01*
X5700623Y1950313D01*
X5700623Y1936699D01*
X5702452Y1923186D01*
X5706059Y1910029D01*
X5711393Y1897481D01*
X5718352Y1885746D01*
X5726785Y1875028D01*
X5736590Y1865528D01*
X5747562Y1857451D01*
X5759551Y1850898D01*
X5772251Y1846021D01*
X5785510Y1842820D01*
G37*
G36*
X5799074Y2095449D02*
G01*
X5812739Y2095906D01*
X5826150Y2098192D01*
X5839206Y2102256D01*
X5851550Y2107996D01*
X5863031Y2115312D01*
X5873445Y2124100D01*
X5882640Y2134209D01*
X5890310Y2145487D01*
X5896508Y2157628D01*
X5900978Y2170531D01*
X5903671Y2183892D01*
X5904585Y2197506D01*
X5903671Y2211120D01*
X5900978Y2224481D01*
X5896508Y2237333D01*
X5890310Y2249525D01*
X5882640Y2260752D01*
X5873445Y2270861D01*
X5863031Y2279700D01*
X5851550Y2287016D01*
X5839206Y2292756D01*
X5826150Y2296820D01*
X5812739Y2299055D01*
X5799074Y2299512D01*
X5785510Y2298141D01*
X5772251Y2294991D01*
X5759551Y2290114D01*
X5747562Y2283561D01*
X5736590Y2275433D01*
X5726785Y2265984D01*
X5718352Y2255266D01*
X5711393Y2243531D01*
X5706059Y2230983D01*
X5702452Y2217826D01*
X5700623Y2204313D01*
X5700623Y2190699D01*
X5702452Y2177186D01*
X5706059Y2164029D01*
X5711393Y2151481D01*
X5718352Y2139746D01*
X5726785Y2129028D01*
X5736590Y2119528D01*
X5747562Y2111451D01*
X5759551Y2104898D01*
X5772251Y2100021D01*
X5785510Y2096820D01*
G37*

%LPD*%
G36*
X2067204Y176123D02*
G01*
X2063292Y176885D01*
X2059990Y179120D01*
X2057806Y182422D01*
X2057044Y186283D01*
X2057806Y190195D01*
X2059990Y193497D01*
X2235962Y369214D01*
X2239162Y372668D01*
X2241804Y376174D01*
X2244242Y379933D01*
X2246274Y383844D01*
X2248001Y387959D01*
X2249322Y392176D01*
X2250287Y396544D01*
X2250846Y400913D01*
X2251049Y405587D01*
X2251049Y1507083D01*
X2251811Y1510995D01*
X2254046Y1514297D01*
X2683306Y1943709D01*
X2687116Y1946097D01*
X2691536Y1946656D01*
X2695803Y1945182D01*
X2699004Y1942033D01*
X2700578Y1937816D01*
X2702458Y1923135D01*
X2706065Y1910029D01*
X2711399Y1897481D01*
X2718358Y1885746D01*
X2726791Y1875028D01*
X2736596Y1865528D01*
X2747568Y1857451D01*
X2759506Y1850898D01*
X2772257Y1846021D01*
X2785516Y1842820D01*
X2799080Y1841449D01*
X2812745Y1841906D01*
X2824327Y1843887D01*
X2827528Y1843887D01*
X2830576Y1842922D01*
X2833217Y1841042D01*
X3181299Y1492910D01*
X3183534Y1489659D01*
X3184296Y1485747D01*
X3184296Y687476D01*
X3183534Y683615D01*
X3181299Y680313D01*
X2921406Y420522D01*
X2918206Y418338D01*
X2914446Y417525D01*
X2910636Y418185D01*
X2907385Y420217D01*
X2905048Y423265D01*
X2904083Y427024D01*
X2903677Y433120D01*
X2900984Y446481D01*
X2896463Y459333D01*
X2890316Y471525D01*
X2882595Y482752D01*
X2873451Y492861D01*
X2863037Y501700D01*
X2851556Y509016D01*
X2839212Y514756D01*
X2826156Y518820D01*
X2812745Y521055D01*
X2799080Y521512D01*
X2785516Y520141D01*
X2772257Y516991D01*
X2759506Y512114D01*
X2747568Y505561D01*
X2736596Y497433D01*
X2726791Y487984D01*
X2718358Y477266D01*
X2711399Y465531D01*
X2706065Y452983D01*
X2702458Y439826D01*
X2700629Y426313D01*
X2700629Y412699D01*
X2702458Y399186D01*
X2706065Y386029D01*
X2711399Y373481D01*
X2718358Y361746D01*
X2726791Y351028D01*
X2736596Y341528D01*
X2747568Y333451D01*
X2759506Y326898D01*
X2772257Y322021D01*
X2785516Y318820D01*
X2795219Y317855D01*
X2798876Y316788D01*
X2801874Y314452D01*
X2803804Y311150D01*
X2804363Y307390D01*
X2803550Y303682D01*
X2801416Y300583D01*
X2679903Y179120D01*
X2676601Y176885D01*
X2672689Y176123D01*
G37*

%LPC*%
G36*
X2799080Y571449D02*
G01*
X2812745Y571906D01*
X2826156Y574192D01*
X2839212Y578256D01*
X2851556Y583996D01*
X2863037Y591312D01*
X2873451Y600100D01*
X2882595Y610209D01*
X2890316Y621487D01*
X2896463Y633628D01*
X2900984Y646531D01*
X2903677Y659892D01*
X2904591Y673506D01*
X2903677Y687120D01*
X2900984Y700481D01*
X2896463Y713333D01*
X2890316Y725525D01*
X2882595Y736752D01*
X2873451Y746861D01*
X2863037Y755700D01*
X2851556Y763016D01*
X2839212Y768756D01*
X2826156Y772820D01*
X2812745Y775055D01*
X2799080Y775512D01*
X2785516Y774141D01*
X2772257Y770991D01*
X2759506Y766114D01*
X2747568Y759561D01*
X2736596Y751433D01*
X2726791Y741984D01*
X2718358Y731266D01*
X2711399Y719531D01*
X2706065Y706983D01*
X2702458Y693826D01*
X2700629Y680313D01*
X2700629Y666699D01*
X2702458Y653186D01*
X2706065Y640029D01*
X2711399Y627481D01*
X2718358Y615746D01*
X2726791Y605028D01*
X2736596Y595528D01*
X2747568Y587451D01*
X2759506Y580898D01*
X2772257Y576021D01*
X2785516Y572820D01*
G37*
G36*
X2799080Y825449D02*
G01*
X2812745Y825906D01*
X2826156Y828192D01*
X2839212Y832256D01*
X2851556Y837996D01*
X2863037Y845312D01*
X2873451Y854100D01*
X2882595Y864209D01*
X2890316Y875487D01*
X2896463Y887628D01*
X2900984Y900531D01*
X2903677Y913892D01*
X2904591Y927506D01*
X2903677Y941120D01*
X2900984Y954481D01*
X2896463Y967333D01*
X2890316Y979525D01*
X2882595Y990752D01*
X2873451Y1000861D01*
X2863037Y1009700D01*
X2851556Y1017016D01*
X2839212Y1022756D01*
X2826156Y1026820D01*
X2812745Y1029055D01*
X2799080Y1029512D01*
X2785516Y1028141D01*
X2772257Y1024991D01*
X2759506Y1020114D01*
X2747568Y1013561D01*
X2736596Y1005433D01*
X2726791Y995984D01*
X2718358Y985266D01*
X2711399Y973531D01*
X2706065Y960983D01*
X2702458Y947826D01*
X2700629Y934313D01*
X2700629Y920699D01*
X2702458Y907186D01*
X2706065Y894029D01*
X2711399Y881481D01*
X2718358Y869746D01*
X2726791Y859028D01*
X2736596Y849528D01*
X2747568Y841451D01*
X2759506Y834898D01*
X2772257Y830021D01*
X2785516Y826820D01*
G37*
G36*
X2799080Y1079449D02*
G01*
X2812745Y1079906D01*
X2826156Y1082192D01*
X2839212Y1086256D01*
X2851556Y1091996D01*
X2863037Y1099312D01*
X2873451Y1108100D01*
X2882595Y1118209D01*
X2890316Y1129487D01*
X2896463Y1141628D01*
X2900984Y1154531D01*
X2903677Y1167892D01*
X2904591Y1181506D01*
X2903677Y1195120D01*
X2900984Y1208481D01*
X2896463Y1221333D01*
X2890316Y1233525D01*
X2882595Y1244752D01*
X2873451Y1254861D01*
X2863037Y1263700D01*
X2851556Y1271016D01*
X2839212Y1276756D01*
X2826156Y1280820D01*
X2812745Y1283055D01*
X2799080Y1283512D01*
X2785516Y1282141D01*
X2772257Y1278991D01*
X2759506Y1274114D01*
X2747568Y1267561D01*
X2736596Y1259433D01*
X2726791Y1249984D01*
X2718358Y1239266D01*
X2711399Y1227531D01*
X2706065Y1214983D01*
X2702458Y1201826D01*
X2700629Y1188313D01*
X2700629Y1174699D01*
X2702458Y1161186D01*
X2706065Y1148029D01*
X2711399Y1135481D01*
X2718358Y1123746D01*
X2726791Y1113028D01*
X2736596Y1103528D01*
X2747568Y1095451D01*
X2759506Y1088898D01*
X2772257Y1084021D01*
X2785516Y1080820D01*
G37*
G36*
X2799080Y1333449D02*
G01*
X2812745Y1333906D01*
X2826156Y1336192D01*
X2839212Y1340256D01*
X2851556Y1345996D01*
X2863037Y1353312D01*
X2873451Y1362100D01*
X2882595Y1372209D01*
X2890316Y1383487D01*
X2896463Y1395628D01*
X2900984Y1408531D01*
X2903677Y1421892D01*
X2904591Y1435506D01*
X2903677Y1449120D01*
X2900984Y1462481D01*
X2896463Y1475333D01*
X2890316Y1487525D01*
X2882595Y1498752D01*
X2873451Y1508861D01*
X2863037Y1517700D01*
X2851556Y1525016D01*
X2839212Y1530756D01*
X2826156Y1534820D01*
X2812745Y1537055D01*
X2799080Y1537512D01*
X2785516Y1536141D01*
X2772257Y1532991D01*
X2759506Y1528114D01*
X2747568Y1521561D01*
X2736596Y1513433D01*
X2726791Y1503984D01*
X2718358Y1493266D01*
X2711399Y1481531D01*
X2706065Y1468983D01*
X2702458Y1455826D01*
X2700629Y1442313D01*
X2700629Y1428699D01*
X2702458Y1415186D01*
X2706065Y1402029D01*
X2711399Y1389481D01*
X2718358Y1377746D01*
X2726791Y1367028D01*
X2736596Y1357528D01*
X2747568Y1349451D01*
X2759506Y1342898D01*
X2772257Y1338021D01*
X2785516Y1334820D01*
G37*

%LPD*%
D11*
X3383025Y3687571D02*
G01*
X3616959Y3687571D01*
X9124950Y1612392D02*
G01*
X8917431Y1820163D01*
X6441186Y1820163D01*
X6441186Y1820163D02*
G01*
X5802629Y1181354D01*
X3616959Y3687571D02*
G01*
X3640581Y3687571D01*
X4344161Y2983737D01*
X5728715Y2983737D01*
X6441186Y2271521D01*
X6441186Y1820163D01*
X310642Y2687573D02*
G01*
X310642Y2991865D01*
X1119886Y3801110D01*
X1637284Y3801110D01*
X7714488Y5101081D02*
G01*
X6603238Y3989578D01*
X2084831Y3989578D01*
X1797812Y3702812D01*
X1797812Y2780537D01*
X1943608Y2634995D01*
X2242565Y4847081D02*
G01*
X1849120Y4847081D01*
X626871Y3625087D01*
X372871Y3625087D02*
G01*
X1849120Y5101081D01*
X2242565Y5101081D01*
X9098025Y7888986D02*
G01*
X7122922Y7888986D01*
X7122922Y7888986D02*
G01*
X4748022Y7888986D01*
X4748022Y7888986D02*
G01*
X2373122Y7888986D01*
X5802629Y2705354D02*
G01*
X4506722Y2705354D01*
X3680968Y3531107D01*
X3311906Y3531107D01*
X2802636Y3021837D01*
X2802636Y2705607D01*
X2353818Y1832863D02*
G01*
X2119629Y1598929D01*
X2119629Y1287271D01*
X1943608Y1110995D01*
X1943608Y1110995D02*
G01*
X1435607Y1618995D01*
X1181607Y1618995D01*
X1181607Y1618995D02*
G01*
X800607Y1999995D01*
X500126Y1999995D01*
X7999984Y675131D02*
G01*
X6058154Y675131D01*
X5802629Y419354D01*
X6278625Y3322573D02*
G01*
X5981954Y3322573D01*
X9124950Y675131D02*
G01*
X8978391Y821436D01*
X5950458Y821436D01*
X5802629Y673354D01*
X6278625Y3697478D02*
G01*
X6018022Y3697478D01*
X6008115Y3687571D01*
X9498075Y8142986D02*
G01*
X8345931Y6990842D01*
X4365243Y6990842D01*
X2964434Y5101081D02*
G01*
X2395220Y4531613D01*
X2129790Y4531613D01*
X7999984Y325120D02*
G01*
X9124950Y325120D01*
X7999984Y1324863D02*
G01*
X9062465Y1324863D01*
X9124950Y1262379D01*
X564642Y2687573D02*
G01*
X979931Y2687573D01*
X1181607Y2888995D01*
X5353304Y3083560D02*
G01*
X4924552Y3083560D01*
X4632959Y3374897D01*
X2802636Y2451607D02*
G01*
X2634995Y2451607D01*
X1943608Y3142995D01*
X8864854Y6389115D02*
G01*
X8356854Y6389115D01*
X7714488Y4847081D02*
G01*
X7847584Y4980178D01*
X7847584Y5221986D01*
X7714488Y5355081D01*
X7117588Y5621528D02*
G01*
X7702041Y5621528D01*
X7714488Y5609081D01*
X5339588Y4859528D02*
G01*
X4983988Y4859528D01*
X4742434Y5101081D01*
X4114800Y6389115D02*
G01*
X3606800Y6389115D01*
X2373122Y7380986D02*
G01*
X2373122Y7147052D01*
X1614931Y6389115D01*
X1614931Y6389115D02*
G01*
X1106931Y6389115D01*
X2242565Y5609081D02*
G01*
X2964434Y5609081D01*
X2964434Y5609081D01*
X1943608Y856995D02*
G01*
X1689607Y856995D01*
X1181607Y1364995D01*
X1181607Y1364995D02*
G01*
X881126Y1364995D01*
X500126Y1745995D01*
X9234931Y2750057D02*
G01*
X8662415Y3322573D01*
X7294625Y3322573D01*
X6359906Y9312402D02*
G01*
X6692645Y9644887D01*
X8402574Y9644887D01*
X8735059Y9312402D01*
X3985006Y9312402D02*
G01*
X4317491Y9644887D01*
X6027420Y9644887D01*
X6359906Y9312402D01*
X1610105Y9312402D02*
G01*
X1942591Y9644887D01*
X3652520Y9644887D01*
X3985006Y9312402D01*
X6489954Y6401562D02*
G01*
X5981954Y6401562D01*
X5981954Y6401562D02*
G01*
X5981954Y6263894D01*
X5339588Y5621528D01*
X4754879Y5621528D02*
G01*
X4114800Y6261607D01*
X4114800Y6389115D01*
X5339588Y5621528D02*
G01*
X4754879Y5621528D01*
X4754879Y5621528D02*
G01*
X4742434Y5609081D01*
X5339588Y5113528D02*
G01*
X5487161Y4965700D01*
X5487161Y4816855D01*
X4878577Y4208271D01*
X2189479Y4208271D01*
X1712213Y3731005D01*
X1712213Y2612389D01*
X1943608Y2380995D01*
X4830572Y1760473D02*
G01*
X3239515Y1760473D01*
X2833877Y2166365D01*
X2833877Y2166365D02*
G01*
X2802636Y2197607D01*
X2833877Y2166365D02*
G01*
X2200147Y1532381D01*
X2200147Y405384D01*
X1999995Y205486D01*
X1833118Y205486D01*
X1181607Y856995D01*
X1181607Y856995D02*
G01*
X546607Y1491995D01*
X500126Y1491995D01*
X5079745Y1511045D02*
G01*
X3235197Y1511045D01*
X3235197Y1511045D02*
G01*
X2802636Y1943607D01*
X3235197Y1511045D02*
G01*
X3235197Y662178D01*
X2697988Y125221D01*
X1659381Y125221D01*
X1181607Y602995D01*
X1181607Y602995D02*
G01*
X1135126Y602995D01*
X500126Y1237995D01*
X7999984Y1674876D02*
G01*
X6550152Y1674876D01*
X5802629Y927354D01*
X3616959Y3374897D02*
G01*
X3383025Y3374897D01*
X3616959Y3374897D02*
G01*
X3616959Y3113023D01*
X5802629Y927354D01*
D15*
G01*
X1609979Y9312503D03*
G01*
X889990Y9312503D03*
G01*
X3984980Y9312503D03*
G01*
X3264992Y9312503D03*
G01*
X6359982Y9312478D03*
G01*
X5639993Y9312478D03*
G01*
X8734983Y9312478D03*
G01*
X8014995Y9312478D03*
G01*
X9235008Y2750007D03*
G01*
X8515019Y2750007D03*
D16*
G01*
X499998Y1999995D03*
D17*
G01*
X500024Y1745995D03*
G01*
X500024Y1491995D03*
G01*
X500024Y1237995D03*
D18*
G01*
X1181506Y3650995D03*
G01*
X1181506Y3396995D03*
G01*
X1181506Y3142995D03*
G01*
X1181506Y2888995D03*
G01*
X1181506Y2634995D03*
G01*
X1181506Y2380995D03*
G01*
X1181506Y2126995D03*
G01*
X1181506Y1872995D03*
G01*
X1181506Y1618995D03*
G01*
X1181506Y1364995D03*
G01*
X1181506Y1110995D03*
G01*
X1181506Y856995D03*
G01*
X1181506Y602995D03*
G01*
X1181506Y348995D03*
G01*
X1943506Y348995D03*
G01*
X1943506Y602995D03*
G01*
X1943506Y856995D03*
G01*
X1943506Y1110995D03*
G01*
X1943506Y1364995D03*
G01*
X1943506Y1618995D03*
G01*
X1943506Y1872995D03*
G01*
X1943506Y2126995D03*
G01*
X1943506Y2380995D03*
G01*
X1943506Y2634995D03*
G01*
X1943506Y2888995D03*
G01*
X1943506Y3142995D03*
G01*
X1943506Y3396995D03*
G01*
X1943506Y3650995D03*
D17*
G01*
X464489Y4847005D03*
G01*
X464489Y5101005D03*
G01*
X464489Y5355005D03*
G01*
X464489Y5609005D03*
G01*
X464489Y5863005D03*
G01*
X464489Y6117005D03*
G01*
X2242489Y4847005D03*
G01*
X2242489Y5101005D03*
G01*
X2242489Y5355005D03*
G01*
X2242489Y5609005D03*
G01*
X2242489Y5863005D03*
G01*
X2242489Y6117005D03*
D19*
G01*
X598855Y6389039D03*
G01*
X1106855Y6389039D03*
G01*
X1614855Y6389039D03*
G01*
X2115489Y6396405D03*
D17*
G01*
X2964484Y4847031D03*
G01*
X2964484Y5101031D03*
G01*
X2964484Y5355031D03*
G01*
X2964484Y5609031D03*
G01*
X2964484Y5863031D03*
G01*
X2964484Y6117031D03*
G01*
X4742510Y4847031D03*
G01*
X4742510Y5101031D03*
G01*
X4742510Y5355031D03*
G01*
X4742510Y5609031D03*
G01*
X4742510Y5863031D03*
G01*
X4742510Y6117031D03*
D19*
G01*
X3098850Y6389065D03*
G01*
X3606850Y6389065D03*
G01*
X4114850Y6389065D03*
G01*
X4615510Y6396431D03*
D17*
G01*
X5339486Y4859502D03*
G01*
X5339486Y5113502D03*
G01*
X5339486Y5367502D03*
G01*
X5339486Y5621502D03*
G01*
X5339486Y5875502D03*
G01*
X5339486Y6129502D03*
G01*
X7117486Y4859502D03*
G01*
X7117486Y5113502D03*
G01*
X7117486Y5367502D03*
G01*
X7117486Y5621502D03*
G01*
X7117486Y5875502D03*
G01*
X7117486Y6129502D03*
D19*
G01*
X5473852Y6401536D03*
G01*
X5981852Y6401536D03*
G01*
X6489852Y6401536D03*
G01*
X6990486Y6408902D03*
D17*
G01*
X7714488Y4847031D03*
G01*
X7714488Y5101031D03*
G01*
X7714488Y5355031D03*
G01*
X7714488Y5609031D03*
G01*
X7714488Y5863031D03*
G01*
X7714488Y6117031D03*
G01*
X9492488Y4847031D03*
G01*
X9492488Y5101031D03*
G01*
X9492488Y5355031D03*
G01*
X9492488Y5609031D03*
G01*
X9492488Y5863031D03*
G01*
X9492488Y6117031D03*
D19*
G01*
X7848854Y6389065D03*
G01*
X8356854Y6389065D03*
G01*
X8864854Y6389065D03*
G01*
X9365488Y6396431D03*
D17*
G01*
X2802534Y2705506D03*
G01*
X2802534Y2451506D03*
G01*
X2802534Y2197506D03*
G01*
X2802534Y1943506D03*
G01*
X2802534Y1689506D03*
G01*
X2802534Y1435506D03*
G01*
X2802534Y1181506D03*
G01*
X2802534Y927506D03*
G01*
X2802534Y673506D03*
G01*
X2802534Y419506D03*
G01*
X5802502Y2705480D03*
G01*
X5802502Y2451480D03*
G01*
X5802502Y2197480D03*
G01*
X5802502Y1943480D03*
G01*
X5802502Y1689480D03*
G01*
X5802502Y1435480D03*
G01*
X5802502Y1181480D03*
G01*
X5802502Y927480D03*
G01*
X5802502Y673480D03*
G01*
X5802502Y419480D03*
D20*
G01*
X3616985Y3687495D03*
G01*
X4632985Y3687495D03*
G01*
X2367000Y3687495D03*
G01*
X3383000Y3687495D03*
G01*
X2367000Y3374999D03*
G01*
X3383000Y3374999D03*
G01*
X3617010Y3374999D03*
G01*
X4633010Y3374999D03*
G01*
X4991988Y3687495D03*
G01*
X6007988Y3687495D03*
G01*
X6278499Y3697503D03*
G01*
X7294499Y3697503D03*
G01*
X4966004Y3322523D03*
G01*
X5982004Y3322523D03*
G01*
X6278499Y3322523D03*
G01*
X7294499Y3322523D03*
D21*
G01*
X372973Y3624986D03*
G01*
X626973Y3624986D03*
G01*
X310514Y2687497D03*
G01*
X564514Y2687497D03*
D22*
G01*
X9125000Y1262506D03*
G01*
X9125000Y1612519D03*
G01*
X8000009Y1324990D03*
G01*
X8000009Y1675003D03*
G01*
X9125000Y325018D03*
G01*
X9125000Y675030D03*
G01*
X7999984Y325018D03*
G01*
X7999984Y675030D03*
D23*
G01*
X2372995Y7381011D03*
D24*
G01*
X2372995Y7888986D03*
G01*
X2372995Y8142986D03*
G01*
X2372995Y8396986D03*
G01*
X2372995Y7634986D03*
D25*
G01*
X594995Y8142986D03*
G01*
X594995Y7634986D03*
D12*
G01*
X848995Y7380986D03*
G01*
X848995Y8396986D03*
D26*
G01*
X1991995Y7253986D03*
G01*
X1991995Y8523986D03*
D23*
G01*
X4747996Y7381011D03*
D24*
G01*
X4747996Y7888986D03*
G01*
X4747996Y8142986D03*
G01*
X4747996Y8396986D03*
G01*
X4747996Y7634986D03*
D25*
G01*
X2969996Y8142986D03*
G01*
X2969996Y7634986D03*
D12*
G01*
X3223996Y7380986D03*
G01*
X3223996Y8396986D03*
D26*
G01*
X4366996Y7253986D03*
G01*
X4366996Y8523986D03*
D23*
G01*
X7122998Y7381011D03*
D24*
G01*
X7123023Y7888986D03*
G01*
X7123023Y8142986D03*
G01*
X7123023Y8396986D03*
G01*
X7123023Y7634986D03*
D25*
G01*
X5345023Y8142986D03*
G01*
X5345023Y7634986D03*
D12*
G01*
X5599023Y7380986D03*
G01*
X5599023Y8396986D03*
D26*
G01*
X6742023Y7253986D03*
G01*
X6742023Y8523986D03*
D23*
G01*
X9497999Y7381011D03*
D24*
G01*
X9497999Y7888986D03*
G01*
X9497999Y8142986D03*
G01*
X9497999Y8396986D03*
G01*
X9497999Y7634986D03*
D25*
G01*
X7719999Y8142986D03*
G01*
X7719999Y7634986D03*
D12*
G01*
X7973999Y7380986D03*
G01*
X7973999Y8396986D03*
D26*
G01*
X9116999Y7253986D03*
G01*
X9116999Y8523986D03*
D27*
G01*
X299999Y299999D03*
G01*
X4112488Y424992D03*
G01*
X7087488Y2712491D03*
G01*
X4799990Y499998D03*
G01*
X8600008Y3899992D03*
G01*
X4799990Y9200006D03*
D14*
G01*
X1637284Y3801110D03*
G01*
X9098025Y7888986D03*
G01*
X2353818Y1832863D03*
G01*
X4365243Y6990842D03*
G01*
X2129790Y4531613D03*
G01*
X5353304Y3083560D03*
G01*
X4830572Y1760473D03*
G01*
X5079745Y1511045D03*
M02*
