G04 Layer: BottomSolderMaskLayer*
G04 EasyEDA v6.5.5, 2022-06-01 22:10:18*
G04 81c8d0c65d2c47f1a3a576b13e5828a4,c96cdaf6a0e44fa3bb1e134f2b5c86cb,10*
G04 Gerber Generator version 0.2*
G04 Scale: 100 percent, Rotated: No, Reflected: No *
G04 Dimensions in millimeters *
G04 leading zeros omitted , absolute positions ,4 integer and 5 decimal *
%FSLAX45Y45*%
%MOMM*%

%ADD34C,5.7023*%
%ADD36C,1.7272*%
%ADD37C,1.8796*%
%ADD38C,3.2032*%
%ADD39C,2.0828*%
%ADD40C,2.2032*%
%ADD41C,1.8032*%
%ADD43C,1.7018*%
%ADD44C,1.7780*%
%ADD45C,5.2032*%
%ADD46C,3.7032*%
%ADD47C,4.1016*%

%LPD*%
D34*
G01*
X1609979Y9312503D03*
G01*
X889990Y9312503D03*
G01*
X3984980Y9312503D03*
G01*
X3264992Y9312503D03*
G01*
X6359982Y9312478D03*
G01*
X5639993Y9312478D03*
G01*
X8734983Y9312478D03*
G01*
X8014995Y9312478D03*
G01*
X9235008Y2750007D03*
G01*
X8515019Y2750007D03*
G36*
X413765Y1913636D02*
G01*
X413765Y2086355D01*
X586486Y2086355D01*
X586486Y1913636D01*
G37*
D36*
G01*
X500024Y1745995D03*
G01*
X500024Y1491995D03*
G01*
X500024Y1237995D03*
D37*
G01*
X1181506Y3650995D03*
G01*
X1181506Y3396995D03*
G01*
X1181506Y3142995D03*
G01*
X1181506Y2888995D03*
G01*
X1181506Y2634995D03*
G01*
X1181506Y2380995D03*
G01*
X1181506Y2126995D03*
G01*
X1181506Y1872995D03*
G01*
X1181506Y1618995D03*
G01*
X1181506Y1364995D03*
G01*
X1181506Y1110995D03*
G01*
X1181506Y856995D03*
G01*
X1181506Y602995D03*
G01*
X1181506Y348995D03*
G01*
X1943506Y348995D03*
G01*
X1943506Y602995D03*
G01*
X1943506Y856995D03*
G01*
X1943506Y1110995D03*
G01*
X1943506Y1364995D03*
G01*
X1943506Y1618995D03*
G01*
X1943506Y1872995D03*
G01*
X1943506Y2126995D03*
G01*
X1943506Y2380995D03*
G01*
X1943506Y2634995D03*
G01*
X1943506Y2888995D03*
G01*
X1943506Y3142995D03*
G01*
X1943506Y3396995D03*
G01*
X1943506Y3650995D03*
D36*
G01*
X464489Y4847005D03*
G01*
X464489Y5101005D03*
G01*
X464489Y5355005D03*
G01*
X464489Y5609005D03*
G01*
X464489Y5863005D03*
G01*
X464489Y6117005D03*
G01*
X2242489Y4847005D03*
G01*
X2242489Y5101005D03*
G01*
X2242489Y5355005D03*
G01*
X2242489Y5609005D03*
G01*
X2242489Y5863005D03*
G01*
X2242489Y6117005D03*
D38*
G01*
X598855Y6389039D03*
G01*
X1106855Y6389039D03*
G01*
X1614855Y6389039D03*
G01*
X2115489Y6396405D03*
D36*
G01*
X2964484Y4847031D03*
G01*
X2964484Y5101031D03*
G01*
X2964484Y5355031D03*
G01*
X2964484Y5609031D03*
G01*
X2964484Y5863031D03*
G01*
X2964484Y6117031D03*
G01*
X4742510Y4847031D03*
G01*
X4742510Y5101031D03*
G01*
X4742510Y5355031D03*
G01*
X4742510Y5609031D03*
G01*
X4742510Y5863031D03*
G01*
X4742510Y6117031D03*
D38*
G01*
X3098850Y6389065D03*
G01*
X3606850Y6389065D03*
G01*
X4114850Y6389065D03*
G01*
X4615510Y6396431D03*
D36*
G01*
X5339486Y4859502D03*
G01*
X5339486Y5113502D03*
G01*
X5339486Y5367502D03*
G01*
X5339486Y5621502D03*
G01*
X5339486Y5875502D03*
G01*
X5339486Y6129502D03*
G01*
X7117486Y4859502D03*
G01*
X7117486Y5113502D03*
G01*
X7117486Y5367502D03*
G01*
X7117486Y5621502D03*
G01*
X7117486Y5875502D03*
G01*
X7117486Y6129502D03*
D38*
G01*
X5473852Y6401536D03*
G01*
X5981852Y6401536D03*
G01*
X6489852Y6401536D03*
G01*
X6990486Y6408902D03*
D36*
G01*
X7714488Y4847031D03*
G01*
X7714488Y5101031D03*
G01*
X7714488Y5355031D03*
G01*
X7714488Y5609031D03*
G01*
X7714488Y5863031D03*
G01*
X7714488Y6117031D03*
G01*
X9492488Y4847031D03*
G01*
X9492488Y5101031D03*
G01*
X9492488Y5355031D03*
G01*
X9492488Y5609031D03*
G01*
X9492488Y5863031D03*
G01*
X9492488Y6117031D03*
D38*
G01*
X7848854Y6389065D03*
G01*
X8356854Y6389065D03*
G01*
X8864854Y6389065D03*
G01*
X9365488Y6396431D03*
D36*
G01*
X2802534Y2705506D03*
G01*
X2802534Y2451506D03*
G01*
X2802534Y2197506D03*
G01*
X2802534Y1943506D03*
G01*
X2802534Y1689506D03*
G01*
X2802534Y1435506D03*
G01*
X2802534Y1181506D03*
G01*
X2802534Y927506D03*
G01*
X2802534Y673506D03*
G01*
X2802534Y419506D03*
G01*
X5802502Y2705480D03*
G01*
X5802502Y2451480D03*
G01*
X5802502Y2197480D03*
G01*
X5802502Y1943480D03*
G01*
X5802502Y1689480D03*
G01*
X5802502Y1435480D03*
G01*
X5802502Y1181480D03*
G01*
X5802502Y927480D03*
G01*
X5802502Y673480D03*
G01*
X5802502Y419480D03*
D39*
G01*
X3616985Y3687495D03*
G01*
X4632985Y3687495D03*
G01*
X2367000Y3687495D03*
G01*
X3383000Y3687495D03*
G01*
X2367000Y3374999D03*
G01*
X3383000Y3374999D03*
G01*
X3617010Y3374999D03*
G01*
X4633010Y3374999D03*
G01*
X4991988Y3687495D03*
G01*
X6007988Y3687495D03*
G01*
X6278499Y3697503D03*
G01*
X7294499Y3697503D03*
G01*
X4966004Y3322523D03*
G01*
X5982004Y3322523D03*
G01*
X6278499Y3322523D03*
G01*
X7294499Y3322523D03*
D40*
G01*
X372973Y3624986D03*
G01*
X626973Y3624986D03*
G01*
X310514Y2687497D03*
G01*
X564514Y2687497D03*
D41*
G01*
X9125000Y1262506D03*
G01*
X9125000Y1612519D03*
G01*
X8000009Y1324990D03*
G01*
X8000009Y1675003D03*
G01*
X9125000Y325018D03*
G01*
X9125000Y675030D03*
G01*
X7999984Y325018D03*
G01*
X7999984Y675030D03*
G36*
X2288031Y7295895D02*
G01*
X2288031Y7466076D01*
X2458211Y7466076D01*
X2458211Y7295895D01*
G37*
D43*
G01*
X2372995Y7888986D03*
G01*
X2372995Y8142986D03*
G01*
X2372995Y8396986D03*
G01*
X2372995Y7634986D03*
D44*
G01*
X594995Y8142986D03*
G01*
X594995Y7634986D03*
D45*
G01*
X848995Y7380986D03*
G01*
X848995Y8396986D03*
D46*
G01*
X1991995Y7253986D03*
G01*
X1991995Y8523986D03*
G36*
X4662931Y7295895D02*
G01*
X4662931Y7466076D01*
X4833111Y7466076D01*
X4833111Y7295895D01*
G37*
D43*
G01*
X4747996Y7888986D03*
G01*
X4747996Y8142986D03*
G01*
X4747996Y8396986D03*
G01*
X4747996Y7634986D03*
D44*
G01*
X2969996Y8142986D03*
G01*
X2969996Y7634986D03*
D45*
G01*
X3223996Y7380986D03*
G01*
X3223996Y8396986D03*
D46*
G01*
X4366996Y7253986D03*
G01*
X4366996Y8523986D03*
G36*
X7037831Y7295895D02*
G01*
X7037831Y7466076D01*
X7208011Y7466076D01*
X7208011Y7295895D01*
G37*
D43*
G01*
X7123023Y7888986D03*
G01*
X7123023Y8142986D03*
G01*
X7123023Y8396986D03*
G01*
X7123023Y7634986D03*
D44*
G01*
X5345023Y8142986D03*
G01*
X5345023Y7634986D03*
D45*
G01*
X5599023Y7380986D03*
G01*
X5599023Y8396986D03*
D46*
G01*
X6742023Y7253986D03*
G01*
X6742023Y8523986D03*
G36*
X9412986Y7295895D02*
G01*
X9412986Y7466076D01*
X9583165Y7466076D01*
X9583165Y7295895D01*
G37*
D43*
G01*
X9497999Y7888986D03*
G01*
X9497999Y8142986D03*
G01*
X9497999Y8396986D03*
G01*
X9497999Y7634986D03*
D44*
G01*
X7719999Y8142986D03*
G01*
X7719999Y7634986D03*
D45*
G01*
X7973999Y7380986D03*
G01*
X7973999Y8396986D03*
D46*
G01*
X9116999Y7253986D03*
G01*
X9116999Y8523986D03*
D47*
G01*
X299999Y299999D03*
G01*
X4112488Y424992D03*
G01*
X7087488Y2712491D03*
G01*
X4799990Y499998D03*
G01*
X8600008Y3899992D03*
G01*
X4799990Y9200006D03*
M02*
