G04 Layer: TopSilkscreenLayer*
G04 EasyEDA v6.5.5, 2022-06-01 22:10:18*
G04 81c8d0c65d2c47f1a3a576b13e5828a4,c96cdaf6a0e44fa3bb1e134f2b5c86cb,10*
G04 Gerber Generator version 0.2*
G04 Scale: 100 percent, Rotated: No, Reflected: No *
G04 Dimensions in millimeters *
G04 leading zeros omitted , absolute positions ,4 integer and 5 decimal *
%FSLAX45Y45*%
%MOMM*%

%ADD10C,0.2540*%
%ADD28C,0.1000*%
%ADD29C,0.0550*%
%ADD30C,0.1270*%
%ADD31C,0.1524*%
%ADD32C,0.2032*%
%ADD33C,0.1016*%

%LPD*%
D31*
X2375004Y9572185D02*
G01*
X2375004Y9681151D01*
X2375004Y9572185D02*
G01*
X2328268Y9572185D01*
X2312774Y9577265D01*
X2307440Y9582599D01*
X2302360Y9593013D01*
X2302360Y9603427D01*
X2307440Y9613841D01*
X2312774Y9618921D01*
X2328268Y9624001D01*
X2375004Y9624001D02*
G01*
X2328268Y9624001D01*
X2312774Y9629335D01*
X2307440Y9634415D01*
X2302360Y9644829D01*
X2302360Y9660577D01*
X2307440Y9670991D01*
X2312774Y9676071D01*
X2328268Y9681151D01*
X2375004Y9681151D01*
X2226414Y9572185D02*
G01*
X2268070Y9681151D01*
X2226414Y9572185D02*
G01*
X2184758Y9681151D01*
X2252322Y9644829D02*
G01*
X2200506Y9644829D01*
X2114146Y9572185D02*
G01*
X2114146Y9681151D01*
X2150468Y9572185D02*
G01*
X2077824Y9572185D01*
X2043534Y9593013D02*
G01*
X2033120Y9587679D01*
X2017626Y9572185D01*
X2017626Y9681151D01*
D28*
X1021400Y9020401D02*
G01*
X976950Y9087203D01*
X976950Y9020401D02*
G01*
X1021400Y9087203D01*
X933516Y9020401D02*
G01*
X933516Y9087203D01*
X955868Y9020401D02*
G01*
X911418Y9020401D01*
X852236Y9029799D02*
G01*
X855284Y9023449D01*
X864936Y9020401D01*
X871286Y9020401D01*
X880684Y9023449D01*
X887034Y9033101D01*
X890336Y9048849D01*
X890336Y9064851D01*
X887034Y9077551D01*
X880684Y9083901D01*
X871286Y9087203D01*
X867984Y9087203D01*
X858586Y9083901D01*
X852236Y9077551D01*
X848934Y9068153D01*
X848934Y9064851D01*
X852236Y9055199D01*
X858586Y9048849D01*
X867984Y9045801D01*
X871286Y9045801D01*
X880684Y9048849D01*
X887034Y9055199D01*
X890336Y9064851D01*
X808802Y9020401D02*
G01*
X818454Y9023449D01*
X824804Y9033101D01*
X827852Y9048849D01*
X827852Y9058501D01*
X824804Y9074503D01*
X818454Y9083901D01*
X808802Y9087203D01*
X802452Y9087203D01*
X793054Y9083901D01*
X786704Y9074503D01*
X783402Y9058501D01*
X783402Y9048849D01*
X786704Y9033101D01*
X793054Y9023449D01*
X802452Y9020401D01*
X808802Y9020401D01*
D31*
X4750008Y9634687D02*
G01*
X4750008Y9743653D01*
X4750008Y9634687D02*
G01*
X4703272Y9634687D01*
X4687778Y9639767D01*
X4682444Y9645101D01*
X4677364Y9655515D01*
X4677364Y9665929D01*
X4682444Y9676343D01*
X4687778Y9681423D01*
X4703272Y9686503D01*
X4750008Y9686503D02*
G01*
X4703272Y9686503D01*
X4687778Y9691837D01*
X4682444Y9696917D01*
X4677364Y9707331D01*
X4677364Y9723079D01*
X4682444Y9733493D01*
X4687778Y9738573D01*
X4703272Y9743653D01*
X4750008Y9743653D01*
X4601418Y9634687D02*
G01*
X4643074Y9743653D01*
X4601418Y9634687D02*
G01*
X4559762Y9743653D01*
X4627326Y9707331D02*
G01*
X4575510Y9707331D01*
X4489150Y9634687D02*
G01*
X4489150Y9743653D01*
X4525472Y9634687D02*
G01*
X4452828Y9634687D01*
X4413458Y9660595D02*
G01*
X4413458Y9655515D01*
X4408124Y9645101D01*
X4403044Y9639767D01*
X4392630Y9634687D01*
X4371802Y9634687D01*
X4361388Y9639767D01*
X4356308Y9645101D01*
X4350974Y9655515D01*
X4350974Y9665929D01*
X4356308Y9676343D01*
X4366468Y9691837D01*
X4418538Y9743653D01*
X4345894Y9743653D01*
D28*
X3396399Y9020401D02*
G01*
X3351949Y9087203D01*
X3351949Y9020401D02*
G01*
X3396399Y9087203D01*
X3308515Y9020401D02*
G01*
X3308515Y9087203D01*
X3330867Y9020401D02*
G01*
X3286417Y9020401D01*
X3227235Y9029799D02*
G01*
X3230283Y9023449D01*
X3239935Y9020401D01*
X3246285Y9020401D01*
X3255683Y9023449D01*
X3262033Y9033101D01*
X3265335Y9048849D01*
X3265335Y9064851D01*
X3262033Y9077551D01*
X3255683Y9083901D01*
X3246285Y9087203D01*
X3242983Y9087203D01*
X3233585Y9083901D01*
X3227235Y9077551D01*
X3223933Y9068153D01*
X3223933Y9064851D01*
X3227235Y9055199D01*
X3233585Y9048849D01*
X3242983Y9045801D01*
X3246285Y9045801D01*
X3255683Y9048849D01*
X3262033Y9055199D01*
X3265335Y9064851D01*
X3183801Y9020401D02*
G01*
X3193453Y9023449D01*
X3199803Y9033101D01*
X3202851Y9048849D01*
X3202851Y9058501D01*
X3199803Y9074503D01*
X3193453Y9083901D01*
X3183801Y9087203D01*
X3177451Y9087203D01*
X3168053Y9083901D01*
X3161703Y9074503D01*
X3158401Y9058501D01*
X3158401Y9048849D01*
X3161703Y9033101D01*
X3168053Y9023449D01*
X3177451Y9020401D01*
X3183801Y9020401D01*
D31*
X7187521Y9634697D02*
G01*
X7187521Y9743663D01*
X7187521Y9634697D02*
G01*
X7140785Y9634697D01*
X7125291Y9639777D01*
X7119957Y9645111D01*
X7114877Y9655525D01*
X7114877Y9665939D01*
X7119957Y9676353D01*
X7125291Y9681433D01*
X7140785Y9686513D01*
X7187521Y9686513D02*
G01*
X7140785Y9686513D01*
X7125291Y9691847D01*
X7119957Y9696927D01*
X7114877Y9707341D01*
X7114877Y9723089D01*
X7119957Y9733503D01*
X7125291Y9738583D01*
X7140785Y9743663D01*
X7187521Y9743663D01*
X7038931Y9634697D02*
G01*
X7080587Y9743663D01*
X7038931Y9634697D02*
G01*
X6997275Y9743663D01*
X7064839Y9707341D02*
G01*
X7013023Y9707341D01*
X6926663Y9634697D02*
G01*
X6926663Y9743663D01*
X6962985Y9634697D02*
G01*
X6890341Y9634697D01*
X6845637Y9634697D02*
G01*
X6788487Y9634697D01*
X6819729Y9676353D01*
X6803981Y9676353D01*
X6793821Y9681433D01*
X6788487Y9686513D01*
X6783407Y9702261D01*
X6783407Y9712675D01*
X6788487Y9728169D01*
X6798901Y9738583D01*
X6814395Y9743663D01*
X6830143Y9743663D01*
X6845637Y9738583D01*
X6850971Y9733503D01*
X6856051Y9723089D01*
D28*
X5771400Y9020401D02*
G01*
X5726950Y9087203D01*
X5726950Y9020401D02*
G01*
X5771400Y9087203D01*
X5683516Y9020401D02*
G01*
X5683516Y9087203D01*
X5705868Y9020401D02*
G01*
X5661418Y9020401D01*
X5602236Y9029799D02*
G01*
X5605284Y9023449D01*
X5614936Y9020401D01*
X5621286Y9020401D01*
X5630684Y9023449D01*
X5637034Y9033101D01*
X5640336Y9048849D01*
X5640336Y9064851D01*
X5637034Y9077551D01*
X5630684Y9083901D01*
X5621286Y9087203D01*
X5617984Y9087203D01*
X5608586Y9083901D01*
X5602236Y9077551D01*
X5598934Y9068153D01*
X5598934Y9064851D01*
X5602236Y9055199D01*
X5608586Y9048849D01*
X5617984Y9045801D01*
X5621286Y9045801D01*
X5630684Y9048849D01*
X5637034Y9055199D01*
X5640336Y9064851D01*
X5558802Y9020401D02*
G01*
X5568454Y9023449D01*
X5574804Y9033101D01*
X5577852Y9048849D01*
X5577852Y9058501D01*
X5574804Y9074503D01*
X5568454Y9083901D01*
X5558802Y9087203D01*
X5552452Y9087203D01*
X5543054Y9083901D01*
X5536704Y9074503D01*
X5533402Y9058501D01*
X5533402Y9048849D01*
X5536704Y9033101D01*
X5543054Y9023449D01*
X5552452Y9020401D01*
X5558802Y9020401D01*
D31*
X9687516Y9572195D02*
G01*
X9687516Y9681161D01*
X9687516Y9572195D02*
G01*
X9640780Y9572195D01*
X9625286Y9577275D01*
X9619952Y9582609D01*
X9614872Y9593023D01*
X9614872Y9603437D01*
X9619952Y9613851D01*
X9625286Y9618931D01*
X9640780Y9624011D01*
X9687516Y9624011D02*
G01*
X9640780Y9624011D01*
X9625286Y9629345D01*
X9619952Y9634425D01*
X9614872Y9644839D01*
X9614872Y9660587D01*
X9619952Y9671001D01*
X9625286Y9676081D01*
X9640780Y9681161D01*
X9687516Y9681161D01*
X9538926Y9572195D02*
G01*
X9580582Y9681161D01*
X9538926Y9572195D02*
G01*
X9497270Y9681161D01*
X9564834Y9644839D02*
G01*
X9513018Y9644839D01*
X9426658Y9572195D02*
G01*
X9426658Y9681161D01*
X9462980Y9572195D02*
G01*
X9390336Y9572195D01*
X9303976Y9572195D02*
G01*
X9356046Y9644839D01*
X9278068Y9644839D01*
X9303976Y9572195D02*
G01*
X9303976Y9681161D01*
D28*
X8146399Y9020401D02*
G01*
X8101949Y9087203D01*
X8101949Y9020401D02*
G01*
X8146399Y9087203D01*
X8058515Y9020401D02*
G01*
X8058515Y9087203D01*
X8080867Y9020401D02*
G01*
X8036417Y9020401D01*
X7977235Y9029799D02*
G01*
X7980283Y9023449D01*
X7989935Y9020401D01*
X7996285Y9020401D01*
X8005683Y9023449D01*
X8012033Y9033101D01*
X8015335Y9048849D01*
X8015335Y9064851D01*
X8012033Y9077551D01*
X8005683Y9083901D01*
X7996285Y9087203D01*
X7992983Y9087203D01*
X7983585Y9083901D01*
X7977235Y9077551D01*
X7973933Y9068153D01*
X7973933Y9064851D01*
X7977235Y9055199D01*
X7983585Y9048849D01*
X7992983Y9045801D01*
X7996285Y9045801D01*
X8005683Y9048849D01*
X8012033Y9055199D01*
X8015335Y9064851D01*
X7933801Y9020401D02*
G01*
X7943453Y9023449D01*
X7949803Y9033101D01*
X7952851Y9048849D01*
X7952851Y9058501D01*
X7949803Y9074503D01*
X7943453Y9083901D01*
X7933801Y9087203D01*
X7927451Y9087203D01*
X7918053Y9083901D01*
X7911703Y9074503D01*
X7908401Y9058501D01*
X7908401Y9048849D01*
X7911703Y9033101D01*
X7918053Y9023449D01*
X7927451Y9020401D01*
X7933801Y9020401D01*
D31*
X9187494Y3322180D02*
G01*
X9187494Y3431146D01*
X9187494Y3322180D02*
G01*
X9140758Y3322180D01*
X9125264Y3327260D01*
X9119930Y3332594D01*
X9114850Y3343008D01*
X9114850Y3353422D01*
X9119930Y3363836D01*
X9125264Y3368916D01*
X9140758Y3373996D01*
X9187494Y3373996D02*
G01*
X9140758Y3373996D01*
X9125264Y3379330D01*
X9119930Y3384410D01*
X9114850Y3394824D01*
X9114850Y3410572D01*
X9119930Y3420986D01*
X9125264Y3426066D01*
X9140758Y3431146D01*
X9187494Y3431146D01*
X9038904Y3322180D02*
G01*
X9080560Y3431146D01*
X9038904Y3322180D02*
G01*
X8997248Y3431146D01*
X9064812Y3394824D02*
G01*
X9012996Y3394824D01*
X8926636Y3322180D02*
G01*
X8926636Y3431146D01*
X8962958Y3322180D02*
G01*
X8890314Y3322180D01*
X8856024Y3467722D02*
G01*
X8762552Y3467722D01*
X8650284Y3348088D02*
G01*
X8655364Y3337674D01*
X8665778Y3327260D01*
X8676192Y3322180D01*
X8697020Y3322180D01*
X8707434Y3327260D01*
X8717848Y3337674D01*
X8722928Y3348088D01*
X8728262Y3363836D01*
X8728262Y3389744D01*
X8722928Y3405238D01*
X8717848Y3415652D01*
X8707434Y3426066D01*
X8697020Y3431146D01*
X8676192Y3431146D01*
X8665778Y3426066D01*
X8655364Y3415652D01*
X8650284Y3405238D01*
X8584752Y3322180D02*
G01*
X8595166Y3327260D01*
X8605580Y3337674D01*
X8610914Y3348088D01*
X8615994Y3363836D01*
X8615994Y3389744D01*
X8610914Y3405238D01*
X8605580Y3415652D01*
X8595166Y3426066D01*
X8584752Y3431146D01*
X8563924Y3431146D01*
X8553764Y3426066D01*
X8543350Y3415652D01*
X8538016Y3405238D01*
X8532936Y3389744D01*
X8532936Y3363836D01*
X8538016Y3348088D01*
X8543350Y3337674D01*
X8553764Y3327260D01*
X8563924Y3322180D01*
X8584752Y3322180D01*
X8498646Y3322180D02*
G01*
X8498646Y3431146D01*
X8498646Y3322180D02*
G01*
X8456990Y3431146D01*
X8415334Y3322180D02*
G01*
X8456990Y3431146D01*
X8415334Y3322180D02*
G01*
X8415334Y3431146D01*
X8381044Y3322180D02*
G01*
X8381044Y3431146D01*
X8381044Y3322180D02*
G01*
X8339642Y3431146D01*
X8297986Y3322180D02*
G01*
X8339642Y3431146D01*
X8297986Y3322180D02*
G01*
X8297986Y3431146D01*
D28*
X8646401Y2457899D02*
G01*
X8601951Y2524701D01*
X8601951Y2457899D02*
G01*
X8646401Y2524701D01*
X8558517Y2457899D02*
G01*
X8558517Y2524701D01*
X8580869Y2457899D02*
G01*
X8536419Y2457899D01*
X8477237Y2467297D02*
G01*
X8480285Y2460947D01*
X8489937Y2457899D01*
X8496287Y2457899D01*
X8505685Y2460947D01*
X8512035Y2470599D01*
X8515337Y2486347D01*
X8515337Y2502349D01*
X8512035Y2515049D01*
X8505685Y2521399D01*
X8496287Y2524701D01*
X8492985Y2524701D01*
X8483587Y2521399D01*
X8477237Y2515049D01*
X8473935Y2505651D01*
X8473935Y2502349D01*
X8477237Y2492697D01*
X8483587Y2486347D01*
X8492985Y2483299D01*
X8496287Y2483299D01*
X8505685Y2486347D01*
X8512035Y2492697D01*
X8515337Y2502349D01*
X8433803Y2457899D02*
G01*
X8443455Y2460947D01*
X8449805Y2470599D01*
X8452853Y2486347D01*
X8452853Y2495999D01*
X8449805Y2512001D01*
X8443455Y2521399D01*
X8433803Y2524701D01*
X8427453Y2524701D01*
X8418055Y2521399D01*
X8411705Y2512001D01*
X8408403Y2495999D01*
X8408403Y2486347D01*
X8411705Y2470599D01*
X8418055Y2460947D01*
X8427453Y2457899D01*
X8433803Y2457899D01*
D31*
X945514Y1644401D02*
G01*
X836548Y1644401D01*
X919606Y1605031D02*
G01*
X924687Y1605031D01*
X935101Y1599697D01*
X940435Y1594617D01*
X945514Y1584203D01*
X945514Y1563375D01*
X940435Y1552961D01*
X935101Y1547881D01*
X924687Y1542547D01*
X914272Y1542547D01*
X903859Y1547881D01*
X888364Y1558041D01*
X836548Y1610111D01*
X836548Y1537467D01*
X919606Y1425199D02*
G01*
X930020Y1430279D01*
X940435Y1440693D01*
X945514Y1451107D01*
X945514Y1471935D01*
X940435Y1482349D01*
X930020Y1492763D01*
X919606Y1497843D01*
X903859Y1503177D01*
X877951Y1503177D01*
X862456Y1497843D01*
X852043Y1492763D01*
X841629Y1482349D01*
X836548Y1471935D01*
X836548Y1451107D01*
X841629Y1440693D01*
X852043Y1430279D01*
X862456Y1425199D01*
X799972Y1390909D02*
G01*
X799972Y1297437D01*
X945514Y1200663D02*
G01*
X945514Y1252733D01*
X898779Y1257813D01*
X903859Y1252733D01*
X909193Y1236985D01*
X909193Y1221491D01*
X903859Y1205997D01*
X893698Y1195583D01*
X877951Y1190249D01*
X867537Y1190249D01*
X852043Y1195583D01*
X841629Y1205997D01*
X836548Y1221491D01*
X836548Y1236985D01*
X841629Y1252733D01*
X846709Y1257813D01*
X857122Y1263147D01*
X945514Y1155959D02*
G01*
X836548Y1114557D01*
X945514Y1072901D02*
G01*
X836548Y1114557D01*
X2177816Y2312499D02*
G01*
X2099838Y2312499D01*
X2084344Y2307419D01*
X2073930Y2297005D01*
X2068850Y2281257D01*
X2068850Y2270843D01*
X2073930Y2255349D01*
X2084344Y2244935D01*
X2099838Y2239855D01*
X2177816Y2239855D01*
X2177816Y2143081D02*
G01*
X2177816Y2195151D01*
X2131080Y2200231D01*
X2136160Y2195151D01*
X2141494Y2179403D01*
X2141494Y2163909D01*
X2136160Y2148415D01*
X2126000Y2138001D01*
X2110252Y2132667D01*
X2099838Y2132667D01*
X2084344Y2138001D01*
X2073930Y2148415D01*
X2068850Y2163909D01*
X2068850Y2179403D01*
X2073930Y2195151D01*
X2079010Y2200231D01*
X2089424Y2205565D01*
X1285146Y6099820D02*
G01*
X1274732Y6110234D01*
X1259238Y6115314D01*
X1238410Y6115314D01*
X1222916Y6110234D01*
X1212502Y6099820D01*
X1212502Y6089406D01*
X1217582Y6078992D01*
X1222916Y6073658D01*
X1233330Y6068578D01*
X1264572Y6058164D01*
X1274732Y6053084D01*
X1280066Y6047750D01*
X1285146Y6037336D01*
X1285146Y6021842D01*
X1274732Y6011428D01*
X1259238Y6006348D01*
X1238410Y6006348D01*
X1222916Y6011428D01*
X1212502Y6021842D01*
X1319436Y6115314D02*
G01*
X1345598Y6006348D01*
X1371506Y6115314D02*
G01*
X1345598Y6006348D01*
X1371506Y6115314D02*
G01*
X1397414Y6006348D01*
X1423322Y6115314D02*
G01*
X1397414Y6006348D01*
X1457612Y6094486D02*
G01*
X1468026Y6099820D01*
X1483774Y6115314D01*
X1483774Y6006348D01*
D32*
X972499Y5948344D02*
G01*
X972499Y5754542D01*
X972499Y5948344D02*
G01*
X1055557Y5948344D01*
X1083243Y5939200D01*
X1092641Y5930056D01*
X1101785Y5911514D01*
X1101785Y5883828D01*
X1092641Y5865286D01*
X1083243Y5856142D01*
X1055557Y5846744D01*
X972499Y5846744D01*
X1208973Y5883828D02*
G01*
X1190431Y5874430D01*
X1171889Y5856142D01*
X1162745Y5828456D01*
X1162745Y5809914D01*
X1171889Y5782228D01*
X1190431Y5763686D01*
X1208973Y5754542D01*
X1236659Y5754542D01*
X1255201Y5763686D01*
X1273489Y5782228D01*
X1282887Y5809914D01*
X1282887Y5828456D01*
X1273489Y5856142D01*
X1255201Y5874430D01*
X1236659Y5883828D01*
X1208973Y5883828D01*
X1343847Y5948344D02*
G01*
X1343847Y5754542D01*
X1451035Y5883828D02*
G01*
X1432493Y5874430D01*
X1413951Y5856142D01*
X1404807Y5828456D01*
X1404807Y5809914D01*
X1413951Y5782228D01*
X1432493Y5763686D01*
X1451035Y5754542D01*
X1478721Y5754542D01*
X1497009Y5763686D01*
X1515551Y5782228D01*
X1524949Y5809914D01*
X1524949Y5828456D01*
X1515551Y5856142D01*
X1497009Y5874430D01*
X1478721Y5883828D01*
X1451035Y5883828D01*
X1585909Y5948344D02*
G01*
X1585909Y5754542D01*
X1646869Y5883828D02*
G01*
X1646869Y5791372D01*
X1656013Y5763686D01*
X1674555Y5754542D01*
X1702241Y5754542D01*
X1720529Y5763686D01*
X1748469Y5791372D01*
X1748469Y5883828D02*
G01*
X1748469Y5754542D01*
X870899Y5482003D02*
G01*
X870899Y5288201D01*
X870899Y5482003D02*
G01*
X944813Y5288201D01*
X1018727Y5482003D02*
G01*
X944813Y5288201D01*
X1018727Y5482003D02*
G01*
X1018727Y5288201D01*
X1135059Y5482003D02*
G01*
X1116517Y5472859D01*
X1098229Y5454317D01*
X1088831Y5436029D01*
X1079687Y5408089D01*
X1079687Y5362115D01*
X1088831Y5334429D01*
X1098229Y5315887D01*
X1116517Y5297345D01*
X1135059Y5288201D01*
X1171889Y5288201D01*
X1190431Y5297345D01*
X1208973Y5315887D01*
X1218117Y5334429D01*
X1227515Y5362115D01*
X1227515Y5408089D01*
X1218117Y5436029D01*
X1208973Y5454317D01*
X1190431Y5472859D01*
X1171889Y5482003D01*
X1135059Y5482003D01*
X1417761Y5454317D02*
G01*
X1399219Y5472859D01*
X1371533Y5482003D01*
X1334449Y5482003D01*
X1306763Y5472859D01*
X1288475Y5454317D01*
X1288475Y5436029D01*
X1297619Y5417487D01*
X1306763Y5408089D01*
X1325305Y5398945D01*
X1380677Y5380403D01*
X1399219Y5371259D01*
X1408363Y5362115D01*
X1417761Y5343573D01*
X1417761Y5315887D01*
X1399219Y5297345D01*
X1371533Y5288201D01*
X1334449Y5288201D01*
X1306763Y5297345D01*
X1288475Y5315887D01*
X1478721Y5482003D02*
G01*
X1478721Y5288201D01*
X1478721Y5482003D02*
G01*
X1598609Y5482003D01*
X1478721Y5389801D02*
G01*
X1552635Y5389801D01*
X1659569Y5482003D02*
G01*
X1659569Y5288201D01*
X1659569Y5482003D02*
G01*
X1779711Y5482003D01*
X1659569Y5389801D02*
G01*
X1733483Y5389801D01*
X1659569Y5288201D02*
G01*
X1779711Y5288201D01*
X1905441Y5482003D02*
G01*
X1905441Y5288201D01*
X1840671Y5482003D02*
G01*
X1969957Y5482003D01*
X1000185Y5149517D02*
G01*
X981643Y5168059D01*
X953957Y5177203D01*
X917127Y5177203D01*
X889441Y5168059D01*
X870899Y5149517D01*
X870899Y5131229D01*
X880043Y5112687D01*
X889441Y5103289D01*
X907729Y5094145D01*
X963355Y5075603D01*
X981643Y5066459D01*
X991041Y5057315D01*
X1000185Y5038773D01*
X1000185Y5011087D01*
X981643Y4992545D01*
X953957Y4983401D01*
X917127Y4983401D01*
X889441Y4992545D01*
X870899Y5011087D01*
X1061145Y5112687D02*
G01*
X1098229Y4983401D01*
X1135059Y5112687D02*
G01*
X1098229Y4983401D01*
X1135059Y5112687D02*
G01*
X1171889Y4983401D01*
X1208973Y5112687D02*
G01*
X1171889Y4983401D01*
X1269933Y5177203D02*
G01*
X1279077Y5168059D01*
X1288475Y5177203D01*
X1279077Y5186601D01*
X1269933Y5177203D01*
X1279077Y5112687D02*
G01*
X1279077Y4983401D01*
X1377121Y5177203D02*
G01*
X1377121Y5020231D01*
X1386265Y4992545D01*
X1404807Y4983401D01*
X1423349Y4983401D01*
X1349435Y5112687D02*
G01*
X1413951Y5112687D01*
X1595053Y5085001D02*
G01*
X1576511Y5103289D01*
X1557969Y5112687D01*
X1530283Y5112687D01*
X1511995Y5103289D01*
X1493453Y5085001D01*
X1484309Y5057315D01*
X1484309Y5038773D01*
X1493453Y5011087D01*
X1511995Y4992545D01*
X1530283Y4983401D01*
X1557969Y4983401D01*
X1576511Y4992545D01*
X1595053Y5011087D01*
X1656013Y5177203D02*
G01*
X1656013Y4983401D01*
X1656013Y5075603D02*
G01*
X1683699Y5103289D01*
X1702241Y5112687D01*
X1729927Y5112687D01*
X1748469Y5103289D01*
X1757613Y5075603D01*
X1757613Y4983401D01*
X1837115Y5020231D02*
G01*
X1827717Y5011087D01*
X1818573Y5020231D01*
X1827717Y5029629D01*
X1837115Y5020231D01*
X1837115Y5001689D01*
X1818573Y4983401D01*
X870899Y4872403D02*
G01*
X870899Y4678601D01*
X1000185Y4872403D02*
G01*
X1000185Y4678601D01*
X870899Y4780201D02*
G01*
X1000185Y4780201D01*
X1061145Y4872403D02*
G01*
X1061145Y4678601D01*
X1061145Y4872403D02*
G01*
X1144203Y4872403D01*
X1171889Y4863259D01*
X1181287Y4854115D01*
X1190431Y4835573D01*
X1190431Y4807887D01*
X1181287Y4789345D01*
X1171889Y4780201D01*
X1144203Y4770803D01*
X1061145Y4770803D01*
D31*
X3910136Y6162309D02*
G01*
X3899722Y6172723D01*
X3884228Y6177803D01*
X3863400Y6177803D01*
X3847906Y6172723D01*
X3837492Y6162309D01*
X3837492Y6151895D01*
X3842572Y6141481D01*
X3847906Y6136147D01*
X3858320Y6131067D01*
X3889562Y6120653D01*
X3899722Y6115573D01*
X3905056Y6110239D01*
X3910136Y6099825D01*
X3910136Y6084331D01*
X3899722Y6073917D01*
X3884228Y6068837D01*
X3863400Y6068837D01*
X3847906Y6073917D01*
X3837492Y6084331D01*
X3944426Y6177803D02*
G01*
X3970588Y6068837D01*
X3996496Y6177803D02*
G01*
X3970588Y6068837D01*
X3996496Y6177803D02*
G01*
X4022404Y6068837D01*
X4048312Y6177803D02*
G01*
X4022404Y6068837D01*
X4087936Y6151895D02*
G01*
X4087936Y6156975D01*
X4093016Y6167389D01*
X4098350Y6172723D01*
X4108764Y6177803D01*
X4129592Y6177803D01*
X4139752Y6172723D01*
X4145086Y6167389D01*
X4150166Y6156975D01*
X4150166Y6146561D01*
X4145086Y6136147D01*
X4134672Y6120653D01*
X4082602Y6068837D01*
X4155500Y6068837D01*
D32*
X3472500Y5948344D02*
G01*
X3472500Y5754542D01*
X3472500Y5948344D02*
G01*
X3555558Y5948344D01*
X3583244Y5939200D01*
X3592642Y5930056D01*
X3601786Y5911514D01*
X3601786Y5883828D01*
X3592642Y5865286D01*
X3583244Y5856142D01*
X3555558Y5846744D01*
X3472500Y5846744D01*
X3708974Y5883828D02*
G01*
X3690432Y5874430D01*
X3671890Y5856142D01*
X3662746Y5828456D01*
X3662746Y5809914D01*
X3671890Y5782228D01*
X3690432Y5763686D01*
X3708974Y5754542D01*
X3736660Y5754542D01*
X3755202Y5763686D01*
X3773490Y5782228D01*
X3782888Y5809914D01*
X3782888Y5828456D01*
X3773490Y5856142D01*
X3755202Y5874430D01*
X3736660Y5883828D01*
X3708974Y5883828D01*
X3843848Y5948344D02*
G01*
X3843848Y5754542D01*
X3951036Y5883828D02*
G01*
X3932494Y5874430D01*
X3913952Y5856142D01*
X3904808Y5828456D01*
X3904808Y5809914D01*
X3913952Y5782228D01*
X3932494Y5763686D01*
X3951036Y5754542D01*
X3978722Y5754542D01*
X3997010Y5763686D01*
X4015552Y5782228D01*
X4024950Y5809914D01*
X4024950Y5828456D01*
X4015552Y5856142D01*
X3997010Y5874430D01*
X3978722Y5883828D01*
X3951036Y5883828D01*
X4085910Y5948344D02*
G01*
X4085910Y5754542D01*
X4146870Y5883828D02*
G01*
X4146870Y5791372D01*
X4156014Y5763686D01*
X4174556Y5754542D01*
X4202242Y5754542D01*
X4220530Y5763686D01*
X4248470Y5791372D01*
X4248470Y5883828D02*
G01*
X4248470Y5754542D01*
X3370900Y5482003D02*
G01*
X3370900Y5288201D01*
X3370900Y5482003D02*
G01*
X3444814Y5288201D01*
X3518728Y5482003D02*
G01*
X3444814Y5288201D01*
X3518728Y5482003D02*
G01*
X3518728Y5288201D01*
X3635060Y5482003D02*
G01*
X3616518Y5472859D01*
X3598230Y5454317D01*
X3588832Y5436029D01*
X3579688Y5408089D01*
X3579688Y5362115D01*
X3588832Y5334429D01*
X3598230Y5315887D01*
X3616518Y5297345D01*
X3635060Y5288201D01*
X3671890Y5288201D01*
X3690432Y5297345D01*
X3708974Y5315887D01*
X3718118Y5334429D01*
X3727516Y5362115D01*
X3727516Y5408089D01*
X3718118Y5436029D01*
X3708974Y5454317D01*
X3690432Y5472859D01*
X3671890Y5482003D01*
X3635060Y5482003D01*
X3917762Y5454317D02*
G01*
X3899220Y5472859D01*
X3871534Y5482003D01*
X3834450Y5482003D01*
X3806764Y5472859D01*
X3788476Y5454317D01*
X3788476Y5436029D01*
X3797620Y5417487D01*
X3806764Y5408089D01*
X3825306Y5398945D01*
X3880678Y5380403D01*
X3899220Y5371259D01*
X3908364Y5362115D01*
X3917762Y5343573D01*
X3917762Y5315887D01*
X3899220Y5297345D01*
X3871534Y5288201D01*
X3834450Y5288201D01*
X3806764Y5297345D01*
X3788476Y5315887D01*
X3978722Y5482003D02*
G01*
X3978722Y5288201D01*
X3978722Y5482003D02*
G01*
X4098610Y5482003D01*
X3978722Y5389801D02*
G01*
X4052636Y5389801D01*
X4159570Y5482003D02*
G01*
X4159570Y5288201D01*
X4159570Y5482003D02*
G01*
X4279712Y5482003D01*
X4159570Y5389801D02*
G01*
X4233484Y5389801D01*
X4159570Y5288201D02*
G01*
X4279712Y5288201D01*
X4405442Y5482003D02*
G01*
X4405442Y5288201D01*
X4340672Y5482003D02*
G01*
X4469958Y5482003D01*
X3500186Y5149517D02*
G01*
X3481644Y5168059D01*
X3453958Y5177203D01*
X3417128Y5177203D01*
X3389442Y5168059D01*
X3370900Y5149517D01*
X3370900Y5131229D01*
X3380044Y5112687D01*
X3389442Y5103289D01*
X3407730Y5094145D01*
X3463356Y5075603D01*
X3481644Y5066459D01*
X3491042Y5057315D01*
X3500186Y5038773D01*
X3500186Y5011087D01*
X3481644Y4992545D01*
X3453958Y4983401D01*
X3417128Y4983401D01*
X3389442Y4992545D01*
X3370900Y5011087D01*
X3561146Y5112687D02*
G01*
X3598230Y4983401D01*
X3635060Y5112687D02*
G01*
X3598230Y4983401D01*
X3635060Y5112687D02*
G01*
X3671890Y4983401D01*
X3708974Y5112687D02*
G01*
X3671890Y4983401D01*
X3769934Y5177203D02*
G01*
X3779078Y5168059D01*
X3788476Y5177203D01*
X3779078Y5186601D01*
X3769934Y5177203D01*
X3779078Y5112687D02*
G01*
X3779078Y4983401D01*
X3877122Y5177203D02*
G01*
X3877122Y5020231D01*
X3886266Y4992545D01*
X3904808Y4983401D01*
X3923350Y4983401D01*
X3849436Y5112687D02*
G01*
X3913952Y5112687D01*
X4095054Y5085001D02*
G01*
X4076512Y5103289D01*
X4057970Y5112687D01*
X4030284Y5112687D01*
X4011996Y5103289D01*
X3993454Y5085001D01*
X3984310Y5057315D01*
X3984310Y5038773D01*
X3993454Y5011087D01*
X4011996Y4992545D01*
X4030284Y4983401D01*
X4057970Y4983401D01*
X4076512Y4992545D01*
X4095054Y5011087D01*
X4156014Y5177203D02*
G01*
X4156014Y4983401D01*
X4156014Y5075603D02*
G01*
X4183700Y5103289D01*
X4202242Y5112687D01*
X4229928Y5112687D01*
X4248470Y5103289D01*
X4257614Y5075603D01*
X4257614Y4983401D01*
X4337116Y5020231D02*
G01*
X4327718Y5011087D01*
X4318574Y5020231D01*
X4327718Y5029629D01*
X4337116Y5020231D01*
X4337116Y5001689D01*
X4318574Y4983401D01*
X3370900Y4872403D02*
G01*
X3370900Y4678601D01*
X3500186Y4872403D02*
G01*
X3500186Y4678601D01*
X3370900Y4780201D02*
G01*
X3500186Y4780201D01*
X3561146Y4872403D02*
G01*
X3561146Y4678601D01*
X3561146Y4872403D02*
G01*
X3644204Y4872403D01*
X3671890Y4863259D01*
X3681288Y4854115D01*
X3690432Y4835573D01*
X3690432Y4807887D01*
X3681288Y4789345D01*
X3671890Y4780201D01*
X3644204Y4770803D01*
X3561146Y4770803D01*
D31*
X6410137Y6174816D02*
G01*
X6399723Y6185230D01*
X6384229Y6190310D01*
X6363401Y6190310D01*
X6347907Y6185230D01*
X6337493Y6174816D01*
X6337493Y6164402D01*
X6342573Y6153988D01*
X6347907Y6148654D01*
X6358321Y6143574D01*
X6389563Y6133160D01*
X6399723Y6128080D01*
X6405057Y6122746D01*
X6410137Y6112332D01*
X6410137Y6096838D01*
X6399723Y6086424D01*
X6384229Y6081344D01*
X6363401Y6081344D01*
X6347907Y6086424D01*
X6337493Y6096838D01*
X6444427Y6190310D02*
G01*
X6470589Y6081344D01*
X6496497Y6190310D02*
G01*
X6470589Y6081344D01*
X6496497Y6190310D02*
G01*
X6522405Y6081344D01*
X6548313Y6190310D02*
G01*
X6522405Y6081344D01*
X6593017Y6190310D02*
G01*
X6650167Y6190310D01*
X6619179Y6148654D01*
X6634673Y6148654D01*
X6645087Y6143574D01*
X6650167Y6138494D01*
X6655501Y6122746D01*
X6655501Y6112332D01*
X6650167Y6096838D01*
X6639753Y6086424D01*
X6624259Y6081344D01*
X6608765Y6081344D01*
X6593017Y6086424D01*
X6587937Y6091504D01*
X6582603Y6101918D01*
D32*
X5847499Y5960844D02*
G01*
X5847499Y5767042D01*
X5847499Y5960844D02*
G01*
X5930557Y5960844D01*
X5958243Y5951700D01*
X5967641Y5942556D01*
X5976785Y5924014D01*
X5976785Y5896328D01*
X5967641Y5877786D01*
X5958243Y5868642D01*
X5930557Y5859244D01*
X5847499Y5859244D01*
X6083973Y5896328D02*
G01*
X6065431Y5886930D01*
X6046889Y5868642D01*
X6037745Y5840956D01*
X6037745Y5822414D01*
X6046889Y5794728D01*
X6065431Y5776186D01*
X6083973Y5767042D01*
X6111659Y5767042D01*
X6130201Y5776186D01*
X6148489Y5794728D01*
X6157887Y5822414D01*
X6157887Y5840956D01*
X6148489Y5868642D01*
X6130201Y5886930D01*
X6111659Y5896328D01*
X6083973Y5896328D01*
X6218847Y5960844D02*
G01*
X6218847Y5767042D01*
X6326035Y5896328D02*
G01*
X6307493Y5886930D01*
X6288951Y5868642D01*
X6279807Y5840956D01*
X6279807Y5822414D01*
X6288951Y5794728D01*
X6307493Y5776186D01*
X6326035Y5767042D01*
X6353721Y5767042D01*
X6372009Y5776186D01*
X6390551Y5794728D01*
X6399949Y5822414D01*
X6399949Y5840956D01*
X6390551Y5868642D01*
X6372009Y5886930D01*
X6353721Y5896328D01*
X6326035Y5896328D01*
X6460909Y5960844D02*
G01*
X6460909Y5767042D01*
X6521869Y5896328D02*
G01*
X6521869Y5803872D01*
X6531013Y5776186D01*
X6549555Y5767042D01*
X6577241Y5767042D01*
X6595529Y5776186D01*
X6623469Y5803872D01*
X6623469Y5896328D02*
G01*
X6623469Y5767042D01*
X5745899Y5494502D02*
G01*
X5745899Y5300700D01*
X5745899Y5494502D02*
G01*
X5819813Y5300700D01*
X5893727Y5494502D02*
G01*
X5819813Y5300700D01*
X5893727Y5494502D02*
G01*
X5893727Y5300700D01*
X6010059Y5494502D02*
G01*
X5991517Y5485358D01*
X5973229Y5466816D01*
X5963831Y5448528D01*
X5954687Y5420588D01*
X5954687Y5374614D01*
X5963831Y5346928D01*
X5973229Y5328386D01*
X5991517Y5309844D01*
X6010059Y5300700D01*
X6046889Y5300700D01*
X6065431Y5309844D01*
X6083973Y5328386D01*
X6093117Y5346928D01*
X6102515Y5374614D01*
X6102515Y5420588D01*
X6093117Y5448528D01*
X6083973Y5466816D01*
X6065431Y5485358D01*
X6046889Y5494502D01*
X6010059Y5494502D01*
X6292761Y5466816D02*
G01*
X6274219Y5485358D01*
X6246533Y5494502D01*
X6209449Y5494502D01*
X6181763Y5485358D01*
X6163475Y5466816D01*
X6163475Y5448528D01*
X6172619Y5429986D01*
X6181763Y5420588D01*
X6200305Y5411444D01*
X6255677Y5392902D01*
X6274219Y5383758D01*
X6283363Y5374614D01*
X6292761Y5356072D01*
X6292761Y5328386D01*
X6274219Y5309844D01*
X6246533Y5300700D01*
X6209449Y5300700D01*
X6181763Y5309844D01*
X6163475Y5328386D01*
X6353721Y5494502D02*
G01*
X6353721Y5300700D01*
X6353721Y5494502D02*
G01*
X6473609Y5494502D01*
X6353721Y5402300D02*
G01*
X6427635Y5402300D01*
X6534569Y5494502D02*
G01*
X6534569Y5300700D01*
X6534569Y5494502D02*
G01*
X6654711Y5494502D01*
X6534569Y5402300D02*
G01*
X6608483Y5402300D01*
X6534569Y5300700D02*
G01*
X6654711Y5300700D01*
X6780441Y5494502D02*
G01*
X6780441Y5300700D01*
X6715671Y5494502D02*
G01*
X6844957Y5494502D01*
X5875185Y5162016D02*
G01*
X5856643Y5180558D01*
X5828957Y5189702D01*
X5792127Y5189702D01*
X5764441Y5180558D01*
X5745899Y5162016D01*
X5745899Y5143728D01*
X5755043Y5125186D01*
X5764441Y5115788D01*
X5782729Y5106644D01*
X5838355Y5088102D01*
X5856643Y5078958D01*
X5866041Y5069814D01*
X5875185Y5051272D01*
X5875185Y5023586D01*
X5856643Y5005044D01*
X5828957Y4995900D01*
X5792127Y4995900D01*
X5764441Y5005044D01*
X5745899Y5023586D01*
X5936145Y5125186D02*
G01*
X5973229Y4995900D01*
X6010059Y5125186D02*
G01*
X5973229Y4995900D01*
X6010059Y5125186D02*
G01*
X6046889Y4995900D01*
X6083973Y5125186D02*
G01*
X6046889Y4995900D01*
X6144933Y5189702D02*
G01*
X6154077Y5180558D01*
X6163475Y5189702D01*
X6154077Y5199100D01*
X6144933Y5189702D01*
X6154077Y5125186D02*
G01*
X6154077Y4995900D01*
X6252121Y5189702D02*
G01*
X6252121Y5032730D01*
X6261265Y5005044D01*
X6279807Y4995900D01*
X6298349Y4995900D01*
X6224435Y5125186D02*
G01*
X6288951Y5125186D01*
X6470053Y5097500D02*
G01*
X6451511Y5115788D01*
X6432969Y5125186D01*
X6405283Y5125186D01*
X6386995Y5115788D01*
X6368453Y5097500D01*
X6359309Y5069814D01*
X6359309Y5051272D01*
X6368453Y5023586D01*
X6386995Y5005044D01*
X6405283Y4995900D01*
X6432969Y4995900D01*
X6451511Y5005044D01*
X6470053Y5023586D01*
X6531013Y5189702D02*
G01*
X6531013Y4995900D01*
X6531013Y5088102D02*
G01*
X6558699Y5115788D01*
X6577241Y5125186D01*
X6604927Y5125186D01*
X6623469Y5115788D01*
X6632613Y5088102D01*
X6632613Y4995900D01*
X6712115Y5032730D02*
G01*
X6702717Y5023586D01*
X6693573Y5032730D01*
X6702717Y5042128D01*
X6712115Y5032730D01*
X6712115Y5014188D01*
X6693573Y4995900D01*
X5745899Y4884902D02*
G01*
X5745899Y4691100D01*
X5875185Y4884902D02*
G01*
X5875185Y4691100D01*
X5745899Y4792700D02*
G01*
X5875185Y4792700D01*
X5936145Y4884902D02*
G01*
X5936145Y4691100D01*
X5936145Y4884902D02*
G01*
X6019203Y4884902D01*
X6046889Y4875758D01*
X6056287Y4866614D01*
X6065431Y4848072D01*
X6065431Y4820386D01*
X6056287Y4801844D01*
X6046889Y4792700D01*
X6019203Y4783302D01*
X5936145Y4783302D01*
D31*
X8722636Y6099799D02*
G01*
X8712222Y6110213D01*
X8696728Y6115293D01*
X8675900Y6115293D01*
X8660406Y6110213D01*
X8649992Y6099799D01*
X8649992Y6089385D01*
X8655072Y6078971D01*
X8660406Y6073637D01*
X8670820Y6068557D01*
X8702062Y6058143D01*
X8712222Y6053063D01*
X8717556Y6047729D01*
X8722636Y6037315D01*
X8722636Y6021821D01*
X8712222Y6011407D01*
X8696728Y6006327D01*
X8675900Y6006327D01*
X8660406Y6011407D01*
X8649992Y6021821D01*
X8756926Y6115293D02*
G01*
X8783088Y6006327D01*
X8808996Y6115293D02*
G01*
X8783088Y6006327D01*
X8808996Y6115293D02*
G01*
X8834904Y6006327D01*
X8860812Y6115293D02*
G01*
X8834904Y6006327D01*
X8947172Y6115293D02*
G01*
X8895102Y6042649D01*
X8973080Y6042649D01*
X8947172Y6115293D02*
G01*
X8947172Y6006327D01*
D32*
X8222500Y5948344D02*
G01*
X8222500Y5754542D01*
X8222500Y5948344D02*
G01*
X8305558Y5948344D01*
X8333244Y5939200D01*
X8342642Y5930056D01*
X8351786Y5911514D01*
X8351786Y5883828D01*
X8342642Y5865286D01*
X8333244Y5856142D01*
X8305558Y5846744D01*
X8222500Y5846744D01*
X8458974Y5883828D02*
G01*
X8440432Y5874430D01*
X8421890Y5856142D01*
X8412746Y5828456D01*
X8412746Y5809914D01*
X8421890Y5782228D01*
X8440432Y5763686D01*
X8458974Y5754542D01*
X8486660Y5754542D01*
X8505202Y5763686D01*
X8523490Y5782228D01*
X8532888Y5809914D01*
X8532888Y5828456D01*
X8523490Y5856142D01*
X8505202Y5874430D01*
X8486660Y5883828D01*
X8458974Y5883828D01*
X8593848Y5948344D02*
G01*
X8593848Y5754542D01*
X8701036Y5883828D02*
G01*
X8682494Y5874430D01*
X8663952Y5856142D01*
X8654808Y5828456D01*
X8654808Y5809914D01*
X8663952Y5782228D01*
X8682494Y5763686D01*
X8701036Y5754542D01*
X8728722Y5754542D01*
X8747010Y5763686D01*
X8765552Y5782228D01*
X8774950Y5809914D01*
X8774950Y5828456D01*
X8765552Y5856142D01*
X8747010Y5874430D01*
X8728722Y5883828D01*
X8701036Y5883828D01*
X8835910Y5948344D02*
G01*
X8835910Y5754542D01*
X8896870Y5883828D02*
G01*
X8896870Y5791372D01*
X8906014Y5763686D01*
X8924556Y5754542D01*
X8952242Y5754542D01*
X8970530Y5763686D01*
X8998470Y5791372D01*
X8998470Y5883828D02*
G01*
X8998470Y5754542D01*
X8120900Y5482003D02*
G01*
X8120900Y5288201D01*
X8120900Y5482003D02*
G01*
X8194814Y5288201D01*
X8268728Y5482003D02*
G01*
X8194814Y5288201D01*
X8268728Y5482003D02*
G01*
X8268728Y5288201D01*
X8385060Y5482003D02*
G01*
X8366518Y5472859D01*
X8348230Y5454317D01*
X8338832Y5436029D01*
X8329688Y5408089D01*
X8329688Y5362115D01*
X8338832Y5334429D01*
X8348230Y5315887D01*
X8366518Y5297345D01*
X8385060Y5288201D01*
X8421890Y5288201D01*
X8440432Y5297345D01*
X8458974Y5315887D01*
X8468118Y5334429D01*
X8477516Y5362115D01*
X8477516Y5408089D01*
X8468118Y5436029D01*
X8458974Y5454317D01*
X8440432Y5472859D01*
X8421890Y5482003D01*
X8385060Y5482003D01*
X8667762Y5454317D02*
G01*
X8649220Y5472859D01*
X8621534Y5482003D01*
X8584450Y5482003D01*
X8556764Y5472859D01*
X8538476Y5454317D01*
X8538476Y5436029D01*
X8547620Y5417487D01*
X8556764Y5408089D01*
X8575306Y5398945D01*
X8630678Y5380403D01*
X8649220Y5371259D01*
X8658364Y5362115D01*
X8667762Y5343573D01*
X8667762Y5315887D01*
X8649220Y5297345D01*
X8621534Y5288201D01*
X8584450Y5288201D01*
X8556764Y5297345D01*
X8538476Y5315887D01*
X8728722Y5482003D02*
G01*
X8728722Y5288201D01*
X8728722Y5482003D02*
G01*
X8848610Y5482003D01*
X8728722Y5389801D02*
G01*
X8802636Y5389801D01*
X8909570Y5482003D02*
G01*
X8909570Y5288201D01*
X8909570Y5482003D02*
G01*
X9029712Y5482003D01*
X8909570Y5389801D02*
G01*
X8983484Y5389801D01*
X8909570Y5288201D02*
G01*
X9029712Y5288201D01*
X9155442Y5482003D02*
G01*
X9155442Y5288201D01*
X9090672Y5482003D02*
G01*
X9219958Y5482003D01*
X8250186Y5149517D02*
G01*
X8231644Y5168059D01*
X8203958Y5177203D01*
X8167128Y5177203D01*
X8139442Y5168059D01*
X8120900Y5149517D01*
X8120900Y5131229D01*
X8130044Y5112687D01*
X8139442Y5103289D01*
X8157730Y5094145D01*
X8213356Y5075603D01*
X8231644Y5066459D01*
X8241042Y5057315D01*
X8250186Y5038773D01*
X8250186Y5011087D01*
X8231644Y4992545D01*
X8203958Y4983401D01*
X8167128Y4983401D01*
X8139442Y4992545D01*
X8120900Y5011087D01*
X8311146Y5112687D02*
G01*
X8348230Y4983401D01*
X8385060Y5112687D02*
G01*
X8348230Y4983401D01*
X8385060Y5112687D02*
G01*
X8421890Y4983401D01*
X8458974Y5112687D02*
G01*
X8421890Y4983401D01*
X8519934Y5177203D02*
G01*
X8529078Y5168059D01*
X8538476Y5177203D01*
X8529078Y5186601D01*
X8519934Y5177203D01*
X8529078Y5112687D02*
G01*
X8529078Y4983401D01*
X8627122Y5177203D02*
G01*
X8627122Y5020231D01*
X8636266Y4992545D01*
X8654808Y4983401D01*
X8673350Y4983401D01*
X8599436Y5112687D02*
G01*
X8663952Y5112687D01*
X8845054Y5085001D02*
G01*
X8826512Y5103289D01*
X8807970Y5112687D01*
X8780284Y5112687D01*
X8761996Y5103289D01*
X8743454Y5085001D01*
X8734310Y5057315D01*
X8734310Y5038773D01*
X8743454Y5011087D01*
X8761996Y4992545D01*
X8780284Y4983401D01*
X8807970Y4983401D01*
X8826512Y4992545D01*
X8845054Y5011087D01*
X8906014Y5177203D02*
G01*
X8906014Y4983401D01*
X8906014Y5075603D02*
G01*
X8933700Y5103289D01*
X8952242Y5112687D01*
X8979928Y5112687D01*
X8998470Y5103289D01*
X9007614Y5075603D01*
X9007614Y4983401D01*
X9087116Y5020231D02*
G01*
X9077718Y5011087D01*
X9068574Y5020231D01*
X9077718Y5029629D01*
X9087116Y5020231D01*
X9087116Y5001689D01*
X9068574Y4983401D01*
X8120900Y4872403D02*
G01*
X8120900Y4678601D01*
X8250186Y4872403D02*
G01*
X8250186Y4678601D01*
X8120900Y4780201D02*
G01*
X8250186Y4780201D01*
X8311146Y4872403D02*
G01*
X8311146Y4678601D01*
X8311146Y4872403D02*
G01*
X8394204Y4872403D01*
X8421890Y4863259D01*
X8431288Y4854115D01*
X8440432Y4835573D01*
X8440432Y4807887D01*
X8431288Y4789345D01*
X8421890Y4780201D01*
X8394204Y4770803D01*
X8311146Y4770803D01*
D31*
X3604135Y2427808D02*
G01*
X3562479Y2318842D01*
X3604135Y2427808D02*
G01*
X3645537Y2318842D01*
X3577973Y2355164D02*
G01*
X3630043Y2355164D01*
X3679827Y2427808D02*
G01*
X3679827Y2318842D01*
X3679827Y2427808D02*
G01*
X3716149Y2427808D01*
X3731897Y2422728D01*
X3742311Y2412314D01*
X3747391Y2401900D01*
X3752725Y2386152D01*
X3752725Y2360244D01*
X3747391Y2344750D01*
X3742311Y2334336D01*
X3731897Y2323922D01*
X3716149Y2318842D01*
X3679827Y2318842D01*
X3864739Y2401900D02*
G01*
X3859659Y2412314D01*
X3849245Y2422728D01*
X3838831Y2427808D01*
X3818003Y2427808D01*
X3807589Y2422728D01*
X3797429Y2412314D01*
X3792095Y2401900D01*
X3787015Y2386152D01*
X3787015Y2360244D01*
X3792095Y2344750D01*
X3797429Y2334336D01*
X3807589Y2323922D01*
X3818003Y2318842D01*
X3838831Y2318842D01*
X3849245Y2323922D01*
X3859659Y2334336D01*
X3864739Y2344750D01*
X3899029Y2406980D02*
G01*
X3909443Y2412314D01*
X3925191Y2427808D01*
X3925191Y2318842D01*
D33*
X2993001Y2833768D02*
G01*
X3039229Y2712356D01*
X3085457Y2833768D02*
G01*
X3039229Y2712356D01*
X3123557Y2833768D02*
G01*
X3123557Y2712356D01*
X3123557Y2833768D02*
G01*
X3163943Y2833768D01*
X3181215Y2827926D01*
X3192645Y2816242D01*
X3198487Y2804812D01*
X3204329Y2787540D01*
X3204329Y2758584D01*
X3198487Y2741312D01*
X3192645Y2729628D01*
X3181215Y2718198D01*
X3163943Y2712356D01*
X3123557Y2712356D01*
X3242429Y2833768D02*
G01*
X3242429Y2712356D01*
X3242429Y2833768D02*
G01*
X3282815Y2833768D01*
X3300087Y2827926D01*
X3311771Y2816242D01*
X3317359Y2804812D01*
X3323201Y2787540D01*
X3323201Y2758584D01*
X3317359Y2741312D01*
X3311771Y2729628D01*
X3300087Y2718198D01*
X3282815Y2712356D01*
X3242429Y2712356D01*
X3079615Y2550812D02*
G01*
X3073773Y2562242D01*
X3062343Y2573926D01*
X3050659Y2579768D01*
X3027545Y2579768D01*
X3016115Y2573926D01*
X3004431Y2562242D01*
X2998843Y2550812D01*
X2993001Y2533540D01*
X2993001Y2504584D01*
X2998843Y2487312D01*
X3004431Y2475628D01*
X3016115Y2464198D01*
X3027545Y2458356D01*
X3050659Y2458356D01*
X3062343Y2464198D01*
X3073773Y2475628D01*
X3079615Y2487312D01*
X3079615Y2504584D01*
X3050659Y2504584D02*
G01*
X3079615Y2504584D01*
X3117715Y2579768D02*
G01*
X3117715Y2458356D01*
X3117715Y2579768D02*
G01*
X3198487Y2458356D01*
X3198487Y2579768D02*
G01*
X3198487Y2458356D01*
X3236587Y2579768D02*
G01*
X3236587Y2458356D01*
X3236587Y2579768D02*
G01*
X3276973Y2579768D01*
X3294245Y2573926D01*
X3305929Y2562242D01*
X3311771Y2550812D01*
X3317359Y2533540D01*
X3317359Y2504584D01*
X3311771Y2487312D01*
X3305929Y2475628D01*
X3294245Y2464198D01*
X3276973Y2458356D01*
X3236587Y2458356D01*
X3073773Y2308242D02*
G01*
X3062343Y2319926D01*
X3045071Y2325768D01*
X3021957Y2325768D01*
X3004431Y2319926D01*
X2993001Y2308242D01*
X2993001Y2296812D01*
X2998843Y2285128D01*
X3004431Y2279540D01*
X3016115Y2273698D01*
X3050659Y2262268D01*
X3062343Y2256426D01*
X3067931Y2250584D01*
X3073773Y2239154D01*
X3073773Y2221628D01*
X3062343Y2210198D01*
X3045071Y2204356D01*
X3021957Y2204356D01*
X3004431Y2210198D01*
X2993001Y2221628D01*
X3198487Y2296812D02*
G01*
X3192645Y2308242D01*
X3181215Y2319926D01*
X3169531Y2325768D01*
X3146671Y2325768D01*
X3134987Y2319926D01*
X3123557Y2308242D01*
X3117715Y2296812D01*
X3111873Y2279540D01*
X3111873Y2250584D01*
X3117715Y2233312D01*
X3123557Y2221628D01*
X3134987Y2210198D01*
X3146671Y2204356D01*
X3169531Y2204356D01*
X3181215Y2210198D01*
X3192645Y2221628D01*
X3198487Y2233312D01*
X3236587Y2325768D02*
G01*
X3236587Y2204356D01*
X3236587Y2204356D02*
G01*
X3305929Y2204356D01*
X3073773Y2054242D02*
G01*
X3062343Y2065926D01*
X3045071Y2071768D01*
X3021957Y2071768D01*
X3004431Y2065926D01*
X2993001Y2054242D01*
X2993001Y2042812D01*
X2998843Y2031128D01*
X3004431Y2025540D01*
X3016115Y2019698D01*
X3050659Y2008268D01*
X3062343Y2002426D01*
X3067931Y1996584D01*
X3073773Y1985154D01*
X3073773Y1967628D01*
X3062343Y1956198D01*
X3045071Y1950356D01*
X3021957Y1950356D01*
X3004431Y1956198D01*
X2993001Y1967628D01*
X3111873Y2071768D02*
G01*
X3111873Y1950356D01*
X3111873Y2071768D02*
G01*
X3152259Y2071768D01*
X3169531Y2065926D01*
X3181215Y2054242D01*
X3187057Y2042812D01*
X3192645Y2025540D01*
X3192645Y1996584D01*
X3187057Y1979312D01*
X3181215Y1967628D01*
X3169531Y1956198D01*
X3152259Y1950356D01*
X3111873Y1950356D01*
X3276973Y2071768D02*
G01*
X3230745Y1950356D01*
X3276973Y2071768D02*
G01*
X3323201Y1950356D01*
X3248271Y1990742D02*
G01*
X3305929Y1990742D01*
X3039229Y1817768D02*
G01*
X2993001Y1696356D01*
X3039229Y1817768D02*
G01*
X3085457Y1696356D01*
X3010273Y1736742D02*
G01*
X3067931Y1736742D01*
X3123557Y1817768D02*
G01*
X3123557Y1696356D01*
X3123557Y1817768D02*
G01*
X3163943Y1817768D01*
X3181215Y1811926D01*
X3192645Y1800242D01*
X3198487Y1788812D01*
X3204329Y1771540D01*
X3204329Y1742584D01*
X3198487Y1725312D01*
X3192645Y1713628D01*
X3181215Y1702198D01*
X3163943Y1696356D01*
X3123557Y1696356D01*
X3242429Y1817768D02*
G01*
X3242429Y1696356D01*
X3242429Y1817768D02*
G01*
X3282815Y1817768D01*
X3300087Y1811926D01*
X3311771Y1800242D01*
X3317359Y1788812D01*
X3323201Y1771540D01*
X3323201Y1742584D01*
X3317359Y1725312D01*
X3311771Y1713628D01*
X3300087Y1702198D01*
X3282815Y1696356D01*
X3242429Y1696356D01*
X3361301Y1817768D02*
G01*
X3361301Y1696356D01*
X3361301Y1817768D02*
G01*
X3413371Y1817768D01*
X3430643Y1811926D01*
X3436231Y1806084D01*
X3442073Y1794654D01*
X3442073Y1782970D01*
X3436231Y1771540D01*
X3430643Y1765698D01*
X3413371Y1759856D01*
X3361301Y1759856D01*
X3401687Y1759856D02*
G01*
X3442073Y1696356D01*
X3039229Y1563768D02*
G01*
X2993001Y1442356D01*
X3039229Y1563768D02*
G01*
X3085457Y1442356D01*
X3010273Y1482742D02*
G01*
X3067931Y1482742D01*
X3123557Y1563768D02*
G01*
X3123557Y1442356D01*
X3123557Y1442356D02*
G01*
X3192645Y1442356D01*
X3230745Y1563768D02*
G01*
X3230745Y1442356D01*
X3230745Y1563768D02*
G01*
X3282815Y1563768D01*
X3300087Y1557926D01*
X3305929Y1552084D01*
X3311771Y1540654D01*
X3311771Y1528970D01*
X3305929Y1517540D01*
X3300087Y1511698D01*
X3282815Y1505856D01*
X3230745Y1505856D01*
X3271131Y1505856D02*
G01*
X3311771Y1442356D01*
X3390257Y1563768D02*
G01*
X3390257Y1442356D01*
X3349871Y1563768D02*
G01*
X3430643Y1563768D01*
X3039229Y1309768D02*
G01*
X2993001Y1188356D01*
X3039229Y1309768D02*
G01*
X3085457Y1188356D01*
X3010273Y1228742D02*
G01*
X3067931Y1228742D01*
X3158101Y1309768D02*
G01*
X3140829Y1303926D01*
X3129145Y1286654D01*
X3123557Y1257698D01*
X3123557Y1240426D01*
X3129145Y1211470D01*
X3140829Y1194198D01*
X3158101Y1188356D01*
X3169531Y1188356D01*
X3187057Y1194198D01*
X3198487Y1211470D01*
X3204329Y1240426D01*
X3204329Y1257698D01*
X3198487Y1286654D01*
X3187057Y1303926D01*
X3169531Y1309768D01*
X3158101Y1309768D01*
X3039229Y1055768D02*
G01*
X2993001Y934356D01*
X3039229Y1055768D02*
G01*
X3085457Y934356D01*
X3010273Y974742D02*
G01*
X3067931Y974742D01*
X3123557Y1032654D02*
G01*
X3134987Y1038242D01*
X3152259Y1055768D01*
X3152259Y934356D01*
X3039229Y801768D02*
G01*
X2993001Y680356D01*
X3039229Y801768D02*
G01*
X3085457Y680356D01*
X3010273Y720742D02*
G01*
X3067931Y720742D01*
X3129145Y772812D02*
G01*
X3129145Y778654D01*
X3134987Y790084D01*
X3140829Y795926D01*
X3152259Y801768D01*
X3175373Y801768D01*
X3187057Y795926D01*
X3192645Y790084D01*
X3198487Y778654D01*
X3198487Y766970D01*
X3192645Y755540D01*
X3181215Y738268D01*
X3123557Y680356D01*
X3204329Y680356D01*
X3039229Y547768D02*
G01*
X2993001Y426356D01*
X3039229Y547768D02*
G01*
X3085457Y426356D01*
X3010273Y466742D02*
G01*
X3067931Y466742D01*
X3134987Y547768D02*
G01*
X3198487Y547768D01*
X3163943Y501540D01*
X3181215Y501540D01*
X3192645Y495698D01*
X3198487Y489856D01*
X3204329Y472584D01*
X3204329Y461154D01*
X3198487Y443628D01*
X3187057Y432198D01*
X3169531Y426356D01*
X3152259Y426356D01*
X3134987Y432198D01*
X3129145Y438040D01*
X3123557Y449470D01*
D31*
X6479156Y3125614D02*
G01*
X6437500Y3016648D01*
X6479156Y3125614D02*
G01*
X6520558Y3016648D01*
X6452994Y3052970D02*
G01*
X6505064Y3052970D01*
X6554848Y3125614D02*
G01*
X6554848Y3016648D01*
X6554848Y3125614D02*
G01*
X6591170Y3125614D01*
X6606918Y3120534D01*
X6617332Y3110120D01*
X6622412Y3099706D01*
X6627746Y3083958D01*
X6627746Y3058050D01*
X6622412Y3042556D01*
X6617332Y3032142D01*
X6606918Y3021728D01*
X6591170Y3016648D01*
X6554848Y3016648D01*
X6739760Y3099706D02*
G01*
X6734680Y3110120D01*
X6724266Y3120534D01*
X6713852Y3125614D01*
X6693024Y3125614D01*
X6682610Y3120534D01*
X6672450Y3110120D01*
X6667116Y3099706D01*
X6662036Y3083958D01*
X6662036Y3058050D01*
X6667116Y3042556D01*
X6672450Y3032142D01*
X6682610Y3021728D01*
X6693024Y3016648D01*
X6713852Y3016648D01*
X6724266Y3021728D01*
X6734680Y3032142D01*
X6739760Y3042556D01*
X6779384Y3099706D02*
G01*
X6779384Y3104786D01*
X6784464Y3115200D01*
X6789798Y3120534D01*
X6800212Y3125614D01*
X6821040Y3125614D01*
X6831200Y3120534D01*
X6836534Y3115200D01*
X6841614Y3104786D01*
X6841614Y3094372D01*
X6836534Y3083958D01*
X6826120Y3068464D01*
X6774050Y3016648D01*
X6846948Y3016648D01*
D33*
X5993000Y2833768D02*
G01*
X6039228Y2712356D01*
X6085456Y2833768D02*
G01*
X6039228Y2712356D01*
X6123556Y2833768D02*
G01*
X6123556Y2712356D01*
X6123556Y2833768D02*
G01*
X6163942Y2833768D01*
X6181214Y2827926D01*
X6192644Y2816242D01*
X6198486Y2804812D01*
X6204328Y2787540D01*
X6204328Y2758584D01*
X6198486Y2741312D01*
X6192644Y2729628D01*
X6181214Y2718198D01*
X6163942Y2712356D01*
X6123556Y2712356D01*
X6242428Y2833768D02*
G01*
X6242428Y2712356D01*
X6242428Y2833768D02*
G01*
X6282814Y2833768D01*
X6300086Y2827926D01*
X6311770Y2816242D01*
X6317358Y2804812D01*
X6323200Y2787540D01*
X6323200Y2758584D01*
X6317358Y2741312D01*
X6311770Y2729628D01*
X6300086Y2718198D01*
X6282814Y2712356D01*
X6242428Y2712356D01*
X6079614Y2550812D02*
G01*
X6073772Y2562242D01*
X6062342Y2573926D01*
X6050658Y2579768D01*
X6027544Y2579768D01*
X6016114Y2573926D01*
X6004430Y2562242D01*
X5998842Y2550812D01*
X5993000Y2533540D01*
X5993000Y2504584D01*
X5998842Y2487312D01*
X6004430Y2475628D01*
X6016114Y2464198D01*
X6027544Y2458356D01*
X6050658Y2458356D01*
X6062342Y2464198D01*
X6073772Y2475628D01*
X6079614Y2487312D01*
X6079614Y2504584D01*
X6050658Y2504584D02*
G01*
X6079614Y2504584D01*
X6117714Y2579768D02*
G01*
X6117714Y2458356D01*
X6117714Y2579768D02*
G01*
X6198486Y2458356D01*
X6198486Y2579768D02*
G01*
X6198486Y2458356D01*
X6236586Y2579768D02*
G01*
X6236586Y2458356D01*
X6236586Y2579768D02*
G01*
X6276972Y2579768D01*
X6294244Y2573926D01*
X6305928Y2562242D01*
X6311770Y2550812D01*
X6317358Y2533540D01*
X6317358Y2504584D01*
X6311770Y2487312D01*
X6305928Y2475628D01*
X6294244Y2464198D01*
X6276972Y2458356D01*
X6236586Y2458356D01*
X6073772Y2308242D02*
G01*
X6062342Y2319926D01*
X6045070Y2325768D01*
X6021956Y2325768D01*
X6004430Y2319926D01*
X5993000Y2308242D01*
X5993000Y2296812D01*
X5998842Y2285128D01*
X6004430Y2279540D01*
X6016114Y2273698D01*
X6050658Y2262268D01*
X6062342Y2256426D01*
X6067930Y2250584D01*
X6073772Y2239154D01*
X6073772Y2221628D01*
X6062342Y2210198D01*
X6045070Y2204356D01*
X6021956Y2204356D01*
X6004430Y2210198D01*
X5993000Y2221628D01*
X6198486Y2296812D02*
G01*
X6192644Y2308242D01*
X6181214Y2319926D01*
X6169530Y2325768D01*
X6146670Y2325768D01*
X6134986Y2319926D01*
X6123556Y2308242D01*
X6117714Y2296812D01*
X6111872Y2279540D01*
X6111872Y2250584D01*
X6117714Y2233312D01*
X6123556Y2221628D01*
X6134986Y2210198D01*
X6146670Y2204356D01*
X6169530Y2204356D01*
X6181214Y2210198D01*
X6192644Y2221628D01*
X6198486Y2233312D01*
X6236586Y2325768D02*
G01*
X6236586Y2204356D01*
X6236586Y2204356D02*
G01*
X6305928Y2204356D01*
X6073772Y2054242D02*
G01*
X6062342Y2065926D01*
X6045070Y2071768D01*
X6021956Y2071768D01*
X6004430Y2065926D01*
X5993000Y2054242D01*
X5993000Y2042812D01*
X5998842Y2031128D01*
X6004430Y2025540D01*
X6016114Y2019698D01*
X6050658Y2008268D01*
X6062342Y2002426D01*
X6067930Y1996584D01*
X6073772Y1985154D01*
X6073772Y1967628D01*
X6062342Y1956198D01*
X6045070Y1950356D01*
X6021956Y1950356D01*
X6004430Y1956198D01*
X5993000Y1967628D01*
X6111872Y2071768D02*
G01*
X6111872Y1950356D01*
X6111872Y2071768D02*
G01*
X6152258Y2071768D01*
X6169530Y2065926D01*
X6181214Y2054242D01*
X6187056Y2042812D01*
X6192644Y2025540D01*
X6192644Y1996584D01*
X6187056Y1979312D01*
X6181214Y1967628D01*
X6169530Y1956198D01*
X6152258Y1950356D01*
X6111872Y1950356D01*
X6276972Y2071768D02*
G01*
X6230744Y1950356D01*
X6276972Y2071768D02*
G01*
X6323200Y1950356D01*
X6248270Y1990742D02*
G01*
X6305928Y1990742D01*
X6039228Y1817768D02*
G01*
X5993000Y1696356D01*
X6039228Y1817768D02*
G01*
X6085456Y1696356D01*
X6010272Y1736742D02*
G01*
X6067930Y1736742D01*
X6123556Y1817768D02*
G01*
X6123556Y1696356D01*
X6123556Y1817768D02*
G01*
X6163942Y1817768D01*
X6181214Y1811926D01*
X6192644Y1800242D01*
X6198486Y1788812D01*
X6204328Y1771540D01*
X6204328Y1742584D01*
X6198486Y1725312D01*
X6192644Y1713628D01*
X6181214Y1702198D01*
X6163942Y1696356D01*
X6123556Y1696356D01*
X6242428Y1817768D02*
G01*
X6242428Y1696356D01*
X6242428Y1817768D02*
G01*
X6282814Y1817768D01*
X6300086Y1811926D01*
X6311770Y1800242D01*
X6317358Y1788812D01*
X6323200Y1771540D01*
X6323200Y1742584D01*
X6317358Y1725312D01*
X6311770Y1713628D01*
X6300086Y1702198D01*
X6282814Y1696356D01*
X6242428Y1696356D01*
X6361300Y1817768D02*
G01*
X6361300Y1696356D01*
X6361300Y1817768D02*
G01*
X6413370Y1817768D01*
X6430642Y1811926D01*
X6436230Y1806084D01*
X6442072Y1794654D01*
X6442072Y1782970D01*
X6436230Y1771540D01*
X6430642Y1765698D01*
X6413370Y1759856D01*
X6361300Y1759856D01*
X6401686Y1759856D02*
G01*
X6442072Y1696356D01*
X6039228Y1563768D02*
G01*
X5993000Y1442356D01*
X6039228Y1563768D02*
G01*
X6085456Y1442356D01*
X6010272Y1482742D02*
G01*
X6067930Y1482742D01*
X6123556Y1563768D02*
G01*
X6123556Y1442356D01*
X6123556Y1442356D02*
G01*
X6192644Y1442356D01*
X6230744Y1563768D02*
G01*
X6230744Y1442356D01*
X6230744Y1563768D02*
G01*
X6282814Y1563768D01*
X6300086Y1557926D01*
X6305928Y1552084D01*
X6311770Y1540654D01*
X6311770Y1528970D01*
X6305928Y1517540D01*
X6300086Y1511698D01*
X6282814Y1505856D01*
X6230744Y1505856D01*
X6271130Y1505856D02*
G01*
X6311770Y1442356D01*
X6390256Y1563768D02*
G01*
X6390256Y1442356D01*
X6349870Y1563768D02*
G01*
X6430642Y1563768D01*
X6039228Y1309768D02*
G01*
X5993000Y1188356D01*
X6039228Y1309768D02*
G01*
X6085456Y1188356D01*
X6010272Y1228742D02*
G01*
X6067930Y1228742D01*
X6158100Y1309768D02*
G01*
X6140828Y1303926D01*
X6129144Y1286654D01*
X6123556Y1257698D01*
X6123556Y1240426D01*
X6129144Y1211470D01*
X6140828Y1194198D01*
X6158100Y1188356D01*
X6169530Y1188356D01*
X6187056Y1194198D01*
X6198486Y1211470D01*
X6204328Y1240426D01*
X6204328Y1257698D01*
X6198486Y1286654D01*
X6187056Y1303926D01*
X6169530Y1309768D01*
X6158100Y1309768D01*
X6039228Y1055768D02*
G01*
X5993000Y934356D01*
X6039228Y1055768D02*
G01*
X6085456Y934356D01*
X6010272Y974742D02*
G01*
X6067930Y974742D01*
X6123556Y1032654D02*
G01*
X6134986Y1038242D01*
X6152258Y1055768D01*
X6152258Y934356D01*
X6039228Y801768D02*
G01*
X5993000Y680356D01*
X6039228Y801768D02*
G01*
X6085456Y680356D01*
X6010272Y720742D02*
G01*
X6067930Y720742D01*
X6129144Y772812D02*
G01*
X6129144Y778654D01*
X6134986Y790084D01*
X6140828Y795926D01*
X6152258Y801768D01*
X6175372Y801768D01*
X6187056Y795926D01*
X6192644Y790084D01*
X6198486Y778654D01*
X6198486Y766970D01*
X6192644Y755540D01*
X6181214Y738268D01*
X6123556Y680356D01*
X6204328Y680356D01*
X6039228Y547768D02*
G01*
X5993000Y426356D01*
X6039228Y547768D02*
G01*
X6085456Y426356D01*
X6010272Y466742D02*
G01*
X6067930Y466742D01*
X6134986Y547768D02*
G01*
X6198486Y547768D01*
X6163942Y501540D01*
X6181214Y501540D01*
X6192644Y495698D01*
X6198486Y489856D01*
X6204328Y472584D01*
X6204328Y461154D01*
X6198486Y443628D01*
X6187056Y432198D01*
X6169530Y426356D01*
X6152258Y426356D01*
X6134986Y432198D01*
X6129144Y438040D01*
X6123556Y449470D01*
D31*
X4062511Y3740310D02*
G01*
X4062511Y3631344D01*
X4062511Y3740310D02*
G01*
X4109247Y3740310D01*
X4124741Y3735230D01*
X4130075Y3729896D01*
X4135155Y3719482D01*
X4135155Y3709068D01*
X4130075Y3698654D01*
X4124741Y3693574D01*
X4109247Y3688494D01*
X4062511Y3688494D01*
X4098833Y3688494D02*
G01*
X4135155Y3631344D01*
X4174779Y3714402D02*
G01*
X4174779Y3719482D01*
X4179859Y3729896D01*
X4185193Y3735230D01*
X4195607Y3740310D01*
X4216181Y3740310D01*
X4226595Y3735230D01*
X4231929Y3729896D01*
X4237009Y3719482D01*
X4237009Y3709068D01*
X4231929Y3698654D01*
X4221515Y3683160D01*
X4169445Y3631344D01*
X4242343Y3631344D01*
X2812506Y3740310D02*
G01*
X2812506Y3631344D01*
X2812506Y3740310D02*
G01*
X2859242Y3740310D01*
X2874736Y3735230D01*
X2880070Y3729896D01*
X2885150Y3719482D01*
X2885150Y3709068D01*
X2880070Y3698654D01*
X2874736Y3693574D01*
X2859242Y3688494D01*
X2812506Y3688494D01*
X2848828Y3688494D02*
G01*
X2885150Y3631344D01*
X2919440Y3719482D02*
G01*
X2929854Y3724816D01*
X2945602Y3740310D01*
X2945602Y3631344D01*
X2812503Y3427813D02*
G01*
X2812503Y3318847D01*
X2812503Y3427813D02*
G01*
X2859239Y3427813D01*
X2874733Y3422733D01*
X2880067Y3417399D01*
X2885147Y3406985D01*
X2885147Y3396571D01*
X2880067Y3386157D01*
X2874733Y3381077D01*
X2859239Y3375997D01*
X2812503Y3375997D01*
X2848825Y3375997D02*
G01*
X2885147Y3318847D01*
X2929851Y3427813D02*
G01*
X2987001Y3427813D01*
X2956013Y3386157D01*
X2971507Y3386157D01*
X2981921Y3381077D01*
X2987001Y3375997D01*
X2992335Y3360249D01*
X2992335Y3349835D01*
X2987001Y3334341D01*
X2976587Y3323927D01*
X2961093Y3318847D01*
X2945599Y3318847D01*
X2929851Y3323927D01*
X2924771Y3329007D01*
X2919437Y3339421D01*
X4062498Y3427816D02*
G01*
X4062498Y3318850D01*
X4062498Y3427816D02*
G01*
X4109234Y3427816D01*
X4124728Y3422736D01*
X4130062Y3417402D01*
X4135142Y3406988D01*
X4135142Y3396574D01*
X4130062Y3386160D01*
X4124728Y3381080D01*
X4109234Y3376000D01*
X4062498Y3376000D01*
X4098820Y3376000D02*
G01*
X4135142Y3318850D01*
X4221502Y3427816D02*
G01*
X4169432Y3355172D01*
X4247410Y3355172D01*
X4221502Y3427816D02*
G01*
X4221502Y3318850D01*
X5411503Y3750312D02*
G01*
X5411503Y3641346D01*
X5411503Y3750312D02*
G01*
X5458239Y3750312D01*
X5473733Y3745232D01*
X5479067Y3739898D01*
X5484147Y3729484D01*
X5484147Y3719070D01*
X5479067Y3708656D01*
X5473733Y3703576D01*
X5458239Y3698496D01*
X5411503Y3698496D01*
X5447825Y3698496D02*
G01*
X5484147Y3641346D01*
X5580921Y3750312D02*
G01*
X5528851Y3750312D01*
X5523771Y3703576D01*
X5528851Y3708656D01*
X5544599Y3713990D01*
X5560093Y3713990D01*
X5575587Y3708656D01*
X5586001Y3698496D01*
X5591335Y3682748D01*
X5591335Y3672334D01*
X5586001Y3656840D01*
X5575587Y3646426D01*
X5560093Y3641346D01*
X5544599Y3641346D01*
X5528851Y3646426D01*
X5523771Y3651506D01*
X5518437Y3661920D01*
X6661515Y3750312D02*
G01*
X6661515Y3641346D01*
X6661515Y3750312D02*
G01*
X6708251Y3750312D01*
X6723745Y3745232D01*
X6729079Y3739898D01*
X6734159Y3729484D01*
X6734159Y3719070D01*
X6729079Y3708656D01*
X6723745Y3703576D01*
X6708251Y3698496D01*
X6661515Y3698496D01*
X6697837Y3698496D02*
G01*
X6734159Y3641346D01*
X6830933Y3734818D02*
G01*
X6825599Y3745232D01*
X6810105Y3750312D01*
X6799691Y3750312D01*
X6784197Y3745232D01*
X6773783Y3729484D01*
X6768449Y3703576D01*
X6768449Y3677668D01*
X6773783Y3656840D01*
X6784197Y3646426D01*
X6799691Y3641346D01*
X6805025Y3641346D01*
X6820519Y3646426D01*
X6830933Y3656840D01*
X6836013Y3672334D01*
X6836013Y3677668D01*
X6830933Y3693162D01*
X6820519Y3703576D01*
X6805025Y3708656D01*
X6799691Y3708656D01*
X6784197Y3703576D01*
X6773783Y3693162D01*
X6768449Y3677668D01*
X5411505Y3375299D02*
G01*
X5411505Y3266333D01*
X5411505Y3375299D02*
G01*
X5458241Y3375299D01*
X5473735Y3370219D01*
X5479069Y3364885D01*
X5484149Y3354471D01*
X5484149Y3344057D01*
X5479069Y3333643D01*
X5473735Y3328563D01*
X5458241Y3323483D01*
X5411505Y3323483D01*
X5447827Y3323483D02*
G01*
X5484149Y3266333D01*
X5591337Y3375299D02*
G01*
X5539267Y3266333D01*
X5518439Y3375299D02*
G01*
X5591337Y3375299D01*
X6724004Y3375304D02*
G01*
X6724004Y3266338D01*
X6724004Y3375304D02*
G01*
X6770740Y3375304D01*
X6786234Y3370224D01*
X6791568Y3364890D01*
X6796648Y3354476D01*
X6796648Y3344062D01*
X6791568Y3333648D01*
X6786234Y3328568D01*
X6770740Y3323488D01*
X6724004Y3323488D01*
X6760326Y3323488D02*
G01*
X6796648Y3266338D01*
X6857100Y3375304D02*
G01*
X6841352Y3370224D01*
X6836272Y3359810D01*
X6836272Y3349396D01*
X6841352Y3338982D01*
X6851766Y3333648D01*
X6872594Y3328568D01*
X6888088Y3323488D01*
X6898502Y3313074D01*
X6903836Y3302660D01*
X6903836Y3286912D01*
X6898502Y3276498D01*
X6893422Y3271418D01*
X6877674Y3266338D01*
X6857100Y3266338D01*
X6841352Y3271418D01*
X6836272Y3276498D01*
X6830938Y3286912D01*
X6830938Y3302660D01*
X6836272Y3313074D01*
X6846686Y3323488D01*
X6862180Y3328568D01*
X6883008Y3333648D01*
X6893422Y3338982D01*
X6898502Y3349396D01*
X6898502Y3359810D01*
X6893422Y3370224D01*
X6877674Y3375304D01*
X6857100Y3375304D01*
X499998Y4070515D02*
G01*
X499998Y3961549D01*
X499998Y4070515D02*
G01*
X546735Y4070515D01*
X562229Y4065435D01*
X567562Y4060101D01*
X572643Y4049687D01*
X572643Y4039273D01*
X567562Y4028859D01*
X562229Y4023779D01*
X546735Y4018699D01*
X499998Y4018699D02*
G01*
X546735Y4018699D01*
X562229Y4013365D01*
X567562Y4008285D01*
X572643Y3997871D01*
X572643Y3982123D01*
X567562Y3971709D01*
X562229Y3966629D01*
X546735Y3961549D01*
X499998Y3961549D01*
X606932Y4070515D02*
G01*
X606932Y3992537D01*
X612267Y3977043D01*
X622680Y3966629D01*
X638175Y3961549D01*
X648588Y3961549D01*
X664082Y3966629D01*
X674496Y3977043D01*
X679830Y3992537D01*
X679830Y4070515D01*
X750443Y4070515D02*
G01*
X750443Y3961549D01*
X714120Y4070515D02*
G01*
X786764Y4070515D01*
X821054Y4049687D02*
G01*
X831469Y4055021D01*
X846962Y4070515D01*
X846962Y3961549D01*
X437499Y3133016D02*
G01*
X437499Y3024050D01*
X437499Y3024050D02*
G01*
X499729Y3024050D01*
X534019Y3133016D02*
G01*
X534019Y3024050D01*
X534019Y3133016D02*
G01*
X601583Y3133016D01*
X534019Y3081200D02*
G01*
X575675Y3081200D01*
X534019Y3024050D02*
G01*
X601583Y3024050D01*
X635873Y3133016D02*
G01*
X635873Y3024050D01*
X635873Y3133016D02*
G01*
X672449Y3133016D01*
X687943Y3127936D01*
X698357Y3117522D01*
X703437Y3107108D01*
X708771Y3091360D01*
X708771Y3065452D01*
X703437Y3049958D01*
X698357Y3039544D01*
X687943Y3029130D01*
X672449Y3024050D01*
X635873Y3024050D01*
X743061Y3112188D02*
G01*
X753475Y3117522D01*
X768969Y3133016D01*
X768969Y3024050D01*
X9620808Y1359522D02*
G01*
X9631222Y1364856D01*
X9641636Y1375270D01*
X9646716Y1385430D01*
X9646716Y1406258D01*
X9641636Y1416672D01*
X9631222Y1427086D01*
X9620808Y1432420D01*
X9605060Y1437500D01*
X9579152Y1437500D01*
X9563658Y1432420D01*
X9553244Y1427086D01*
X9542830Y1416672D01*
X9537750Y1406258D01*
X9537750Y1385430D01*
X9542830Y1375270D01*
X9553244Y1364856D01*
X9563658Y1359522D01*
X9625888Y1325232D02*
G01*
X9631222Y1314818D01*
X9646716Y1299324D01*
X9537750Y1299324D01*
X8495807Y1422021D02*
G01*
X8506221Y1427355D01*
X8516635Y1437769D01*
X8521715Y1447929D01*
X8521715Y1468757D01*
X8516635Y1479171D01*
X8506221Y1489585D01*
X8495807Y1494919D01*
X8480059Y1499999D01*
X8454151Y1499999D01*
X8438657Y1494919D01*
X8428243Y1489585D01*
X8417829Y1479171D01*
X8412749Y1468757D01*
X8412749Y1447929D01*
X8417829Y1437769D01*
X8428243Y1427355D01*
X8438657Y1422021D01*
X8495807Y1382651D02*
G01*
X8500887Y1382651D01*
X8511301Y1377317D01*
X8516635Y1372237D01*
X8521715Y1361823D01*
X8521715Y1340995D01*
X8516635Y1330581D01*
X8511301Y1325501D01*
X8500887Y1320167D01*
X8490473Y1320167D01*
X8480059Y1325501D01*
X8464565Y1335915D01*
X8412749Y1387731D01*
X8412749Y1315087D01*
X9620808Y422020D02*
G01*
X9631222Y427354D01*
X9641636Y437769D01*
X9646716Y447929D01*
X9646716Y468756D01*
X9641636Y479170D01*
X9631222Y489585D01*
X9620808Y494919D01*
X9605060Y499998D01*
X9579152Y499998D01*
X9563658Y494919D01*
X9553244Y489585D01*
X9542830Y479170D01*
X9537750Y468756D01*
X9537750Y447929D01*
X9542830Y437769D01*
X9553244Y427354D01*
X9563658Y422020D01*
X9646716Y377317D02*
G01*
X9646716Y320167D01*
X9605060Y351409D01*
X9605060Y335914D01*
X9599980Y325501D01*
X9594900Y320167D01*
X9579152Y315087D01*
X9568738Y315087D01*
X9553244Y320167D01*
X9542830Y330580D01*
X9537750Y346329D01*
X9537750Y361822D01*
X9542830Y377317D01*
X9547910Y382651D01*
X9558324Y387730D01*
X8495807Y422020D02*
G01*
X8506221Y427354D01*
X8516635Y437769D01*
X8521715Y447929D01*
X8521715Y468756D01*
X8516635Y479170D01*
X8506221Y489585D01*
X8495807Y494919D01*
X8480059Y499998D01*
X8454151Y499998D01*
X8438657Y494919D01*
X8428243Y489585D01*
X8417829Y479170D01*
X8412749Y468756D01*
X8412749Y447929D01*
X8417829Y437769D01*
X8428243Y427354D01*
X8438657Y422020D01*
X8521715Y335914D02*
G01*
X8449071Y387730D01*
X8449071Y309753D01*
X8521715Y335914D02*
G01*
X8412749Y335914D01*
X1496700Y6859285D02*
G01*
X1496700Y6937263D01*
X1491620Y6952757D01*
X1481206Y6963171D01*
X1465458Y6968251D01*
X1455044Y6968251D01*
X1439550Y6963171D01*
X1429136Y6952757D01*
X1424056Y6937263D01*
X1424056Y6859285D01*
X1389766Y6880113D02*
G01*
X1379352Y6874779D01*
X1363604Y6859285D01*
X1363604Y6968251D01*
D32*
X2176658Y7602743D02*
G01*
X2181230Y7593345D01*
X2190628Y7584201D01*
X2199772Y7579629D01*
X2218314Y7579629D01*
X2227458Y7584201D01*
X2236856Y7593345D01*
X2241428Y7602743D01*
X2246000Y7616459D01*
X2246000Y7639573D01*
X2241428Y7653543D01*
X2236856Y7662687D01*
X2227458Y7671831D01*
X2218314Y7676657D01*
X2199772Y7676657D01*
X2190628Y7671831D01*
X2181230Y7662687D01*
X2176658Y7653543D01*
X2176658Y7639573D01*
X2199772Y7639573D02*
G01*
X2176658Y7639573D01*
X2146178Y7579629D02*
G01*
X2146178Y7676657D01*
X2146178Y7579629D02*
G01*
X2081662Y7676657D01*
X2081662Y7579629D02*
G01*
X2081662Y7676657D01*
X2051182Y7579629D02*
G01*
X2051182Y7676657D01*
X2051182Y7579629D02*
G01*
X2018670Y7579629D01*
X2004954Y7584201D01*
X1995810Y7593345D01*
X1990984Y7602743D01*
X1986412Y7616459D01*
X1986412Y7639573D01*
X1990984Y7653543D01*
X1995810Y7662687D01*
X2004954Y7671831D01*
X2018670Y7676657D01*
X2051182Y7676657D01*
X2246000Y7833629D02*
G01*
X2209170Y7930657D01*
X2172086Y7833629D02*
G01*
X2209170Y7930657D01*
X2141606Y7833629D02*
G01*
X2141606Y7930657D01*
X2111126Y7833629D02*
G01*
X2111126Y7930657D01*
X2111126Y7833629D02*
G01*
X2046610Y7930657D01*
X2046610Y7833629D02*
G01*
X2046610Y7930657D01*
X2218314Y8087629D02*
G01*
X2227458Y8092201D01*
X2236856Y8101345D01*
X2241428Y8110743D01*
X2246000Y8124459D01*
X2246000Y8147573D01*
X2241428Y8161543D01*
X2236856Y8170687D01*
X2227458Y8179831D01*
X2218314Y8184657D01*
X2199772Y8184657D01*
X2190628Y8179831D01*
X2181230Y8170687D01*
X2176658Y8161543D01*
X2172086Y8147573D01*
X2172086Y8124459D01*
X2176658Y8110743D01*
X2181230Y8101345D01*
X2190628Y8092201D01*
X2199772Y8087629D01*
X2218314Y8087629D01*
X2141606Y8087629D02*
G01*
X2141606Y8156971D01*
X2137034Y8170687D01*
X2127890Y8179831D01*
X2113920Y8184657D01*
X2104776Y8184657D01*
X2090806Y8179831D01*
X2081662Y8170687D01*
X2077090Y8156971D01*
X2077090Y8087629D01*
X2014098Y8087629D02*
G01*
X2014098Y8184657D01*
X2046610Y8087629D02*
G01*
X1981840Y8087629D01*
X2246000Y8373887D02*
G01*
X2246000Y8438657D01*
X2246000Y8392429D02*
G01*
X2232030Y8378459D01*
X2222886Y8373887D01*
X2209170Y8373887D01*
X2199772Y8378459D01*
X2195200Y8392429D01*
X2195200Y8438657D01*
X2164720Y8341629D02*
G01*
X2164720Y8438657D01*
X2164720Y8341629D02*
G01*
X2104776Y8341629D01*
X2164720Y8387857D02*
G01*
X2127890Y8387857D01*
X2074296Y8341629D02*
G01*
X2074296Y8438657D01*
X2074296Y8438657D02*
G01*
X2018670Y8438657D01*
X1955932Y8341629D02*
G01*
X1955932Y8438657D01*
X1988190Y8341629D02*
G01*
X1923674Y8341629D01*
X2176658Y7374143D02*
G01*
X2181230Y7364745D01*
X2190628Y7355601D01*
X2199772Y7351029D01*
X2218314Y7351029D01*
X2227458Y7355601D01*
X2236856Y7364745D01*
X2241428Y7374143D01*
X2246000Y7387859D01*
X2246000Y7410973D01*
X2241428Y7424943D01*
X2236856Y7434087D01*
X2227458Y7443231D01*
X2218314Y7448057D01*
X2199772Y7448057D01*
X2190628Y7443231D01*
X2181230Y7434087D01*
X2176658Y7424943D01*
X2176658Y7410973D01*
X2199772Y7410973D02*
G01*
X2176658Y7410973D01*
X2146178Y7351029D02*
G01*
X2146178Y7448057D01*
X2146178Y7351029D02*
G01*
X2081662Y7448057D01*
X2081662Y7351029D02*
G01*
X2081662Y7448057D01*
X2051182Y7351029D02*
G01*
X2051182Y7448057D01*
X2051182Y7351029D02*
G01*
X2018670Y7351029D01*
X2004954Y7355601D01*
X1995810Y7364745D01*
X1990984Y7374143D01*
X1986412Y7387859D01*
X1986412Y7410973D01*
X1990984Y7424943D01*
X1995810Y7434087D01*
X2004954Y7443231D01*
X2018670Y7448057D01*
X2051182Y7448057D01*
X1280292Y8270001D02*
G01*
X1197234Y8122173D01*
X1114176Y8270001D01*
X1280292Y8061213D02*
G01*
X1197234Y7913385D01*
X1114176Y8061213D01*
X1280292Y7852425D02*
G01*
X1197234Y7704851D01*
X1114176Y7852425D01*
X1280292Y7643891D02*
G01*
X1197234Y7496063D01*
X1114176Y7643891D01*
D31*
X3871699Y6859290D02*
G01*
X3871699Y6937268D01*
X3866619Y6952762D01*
X3856205Y6963176D01*
X3840457Y6968256D01*
X3830043Y6968256D01*
X3814549Y6963176D01*
X3804135Y6952762D01*
X3799055Y6937268D01*
X3799055Y6859290D01*
X3759431Y6885198D02*
G01*
X3759431Y6880118D01*
X3754351Y6869704D01*
X3749017Y6864370D01*
X3738603Y6859290D01*
X3718029Y6859290D01*
X3707615Y6864370D01*
X3702281Y6869704D01*
X3697201Y6880118D01*
X3697201Y6890532D01*
X3702281Y6900946D01*
X3712695Y6916440D01*
X3764765Y6968256D01*
X3691867Y6968256D01*
D32*
X4551657Y7602748D02*
G01*
X4556229Y7593350D01*
X4565627Y7584206D01*
X4574771Y7579634D01*
X4593313Y7579634D01*
X4602457Y7584206D01*
X4611855Y7593350D01*
X4616427Y7602748D01*
X4620999Y7616464D01*
X4620999Y7639578D01*
X4616427Y7653548D01*
X4611855Y7662692D01*
X4602457Y7671836D01*
X4593313Y7676662D01*
X4574771Y7676662D01*
X4565627Y7671836D01*
X4556229Y7662692D01*
X4551657Y7653548D01*
X4551657Y7639578D01*
X4574771Y7639578D02*
G01*
X4551657Y7639578D01*
X4521177Y7579634D02*
G01*
X4521177Y7676662D01*
X4521177Y7579634D02*
G01*
X4456661Y7676662D01*
X4456661Y7579634D02*
G01*
X4456661Y7676662D01*
X4426181Y7579634D02*
G01*
X4426181Y7676662D01*
X4426181Y7579634D02*
G01*
X4393669Y7579634D01*
X4379953Y7584206D01*
X4370809Y7593350D01*
X4365983Y7602748D01*
X4361411Y7616464D01*
X4361411Y7639578D01*
X4365983Y7653548D01*
X4370809Y7662692D01*
X4379953Y7671836D01*
X4393669Y7676662D01*
X4426181Y7676662D01*
X4620999Y7833634D02*
G01*
X4584169Y7930662D01*
X4547085Y7833634D02*
G01*
X4584169Y7930662D01*
X4516605Y7833634D02*
G01*
X4516605Y7930662D01*
X4486125Y7833634D02*
G01*
X4486125Y7930662D01*
X4486125Y7833634D02*
G01*
X4421609Y7930662D01*
X4421609Y7833634D02*
G01*
X4421609Y7930662D01*
X4593313Y8087634D02*
G01*
X4602457Y8092206D01*
X4611855Y8101350D01*
X4616427Y8110748D01*
X4620999Y8124464D01*
X4620999Y8147578D01*
X4616427Y8161548D01*
X4611855Y8170692D01*
X4602457Y8179836D01*
X4593313Y8184662D01*
X4574771Y8184662D01*
X4565627Y8179836D01*
X4556229Y8170692D01*
X4551657Y8161548D01*
X4547085Y8147578D01*
X4547085Y8124464D01*
X4551657Y8110748D01*
X4556229Y8101350D01*
X4565627Y8092206D01*
X4574771Y8087634D01*
X4593313Y8087634D01*
X4516605Y8087634D02*
G01*
X4516605Y8156976D01*
X4512033Y8170692D01*
X4502889Y8179836D01*
X4488919Y8184662D01*
X4479775Y8184662D01*
X4465805Y8179836D01*
X4456661Y8170692D01*
X4452089Y8156976D01*
X4452089Y8087634D01*
X4389097Y8087634D02*
G01*
X4389097Y8184662D01*
X4421609Y8087634D02*
G01*
X4356839Y8087634D01*
X4620999Y8373892D02*
G01*
X4620999Y8438662D01*
X4620999Y8392434D02*
G01*
X4607029Y8378464D01*
X4597885Y8373892D01*
X4584169Y8373892D01*
X4574771Y8378464D01*
X4570199Y8392434D01*
X4570199Y8438662D01*
X4539719Y8341634D02*
G01*
X4539719Y8438662D01*
X4539719Y8341634D02*
G01*
X4479775Y8341634D01*
X4539719Y8387862D02*
G01*
X4502889Y8387862D01*
X4449295Y8341634D02*
G01*
X4449295Y8438662D01*
X4449295Y8438662D02*
G01*
X4393669Y8438662D01*
X4330931Y8341634D02*
G01*
X4330931Y8438662D01*
X4363189Y8341634D02*
G01*
X4298673Y8341634D01*
X4551657Y7374148D02*
G01*
X4556229Y7364750D01*
X4565627Y7355606D01*
X4574771Y7351034D01*
X4593313Y7351034D01*
X4602457Y7355606D01*
X4611855Y7364750D01*
X4616427Y7374148D01*
X4620999Y7387864D01*
X4620999Y7410978D01*
X4616427Y7424948D01*
X4611855Y7434092D01*
X4602457Y7443236D01*
X4593313Y7448062D01*
X4574771Y7448062D01*
X4565627Y7443236D01*
X4556229Y7434092D01*
X4551657Y7424948D01*
X4551657Y7410978D01*
X4574771Y7410978D02*
G01*
X4551657Y7410978D01*
X4521177Y7351034D02*
G01*
X4521177Y7448062D01*
X4521177Y7351034D02*
G01*
X4456661Y7448062D01*
X4456661Y7351034D02*
G01*
X4456661Y7448062D01*
X4426181Y7351034D02*
G01*
X4426181Y7448062D01*
X4426181Y7351034D02*
G01*
X4393669Y7351034D01*
X4379953Y7355606D01*
X4370809Y7364750D01*
X4365983Y7374148D01*
X4361411Y7387864D01*
X4361411Y7410978D01*
X4365983Y7424948D01*
X4370809Y7434092D01*
X4379953Y7443236D01*
X4393669Y7448062D01*
X4426181Y7448062D01*
X3655291Y8270006D02*
G01*
X3572233Y8122178D01*
X3489175Y8270006D01*
X3655291Y8061218D02*
G01*
X3572233Y7913390D01*
X3489175Y8061218D01*
X3655291Y7852430D02*
G01*
X3572233Y7704856D01*
X3489175Y7852430D01*
X3655291Y7643896D02*
G01*
X3572233Y7496068D01*
X3489175Y7643896D01*
D31*
X6246700Y6859285D02*
G01*
X6246700Y6937263D01*
X6241620Y6952757D01*
X6231206Y6963171D01*
X6215458Y6968251D01*
X6205044Y6968251D01*
X6189550Y6963171D01*
X6179136Y6952757D01*
X6174056Y6937263D01*
X6174056Y6859285D01*
X6129352Y6859285D02*
G01*
X6072202Y6859285D01*
X6103190Y6900941D01*
X6087696Y6900941D01*
X6077282Y6906021D01*
X6072202Y6911101D01*
X6066868Y6926849D01*
X6066868Y6937263D01*
X6072202Y6952757D01*
X6082616Y6963171D01*
X6098110Y6968251D01*
X6113604Y6968251D01*
X6129352Y6963171D01*
X6134432Y6958091D01*
X6139766Y6947677D01*
D32*
X6926658Y7602743D02*
G01*
X6931230Y7593345D01*
X6940628Y7584201D01*
X6949772Y7579629D01*
X6968314Y7579629D01*
X6977458Y7584201D01*
X6986856Y7593345D01*
X6991428Y7602743D01*
X6996000Y7616459D01*
X6996000Y7639573D01*
X6991428Y7653543D01*
X6986856Y7662687D01*
X6977458Y7671831D01*
X6968314Y7676657D01*
X6949772Y7676657D01*
X6940628Y7671831D01*
X6931230Y7662687D01*
X6926658Y7653543D01*
X6926658Y7639573D01*
X6949772Y7639573D02*
G01*
X6926658Y7639573D01*
X6896178Y7579629D02*
G01*
X6896178Y7676657D01*
X6896178Y7579629D02*
G01*
X6831662Y7676657D01*
X6831662Y7579629D02*
G01*
X6831662Y7676657D01*
X6801182Y7579629D02*
G01*
X6801182Y7676657D01*
X6801182Y7579629D02*
G01*
X6768670Y7579629D01*
X6754954Y7584201D01*
X6745810Y7593345D01*
X6740984Y7602743D01*
X6736412Y7616459D01*
X6736412Y7639573D01*
X6740984Y7653543D01*
X6745810Y7662687D01*
X6754954Y7671831D01*
X6768670Y7676657D01*
X6801182Y7676657D01*
X6996000Y7833629D02*
G01*
X6959170Y7930657D01*
X6922086Y7833629D02*
G01*
X6959170Y7930657D01*
X6891606Y7833629D02*
G01*
X6891606Y7930657D01*
X6861126Y7833629D02*
G01*
X6861126Y7930657D01*
X6861126Y7833629D02*
G01*
X6796610Y7930657D01*
X6796610Y7833629D02*
G01*
X6796610Y7930657D01*
X6968314Y8087629D02*
G01*
X6977458Y8092201D01*
X6986856Y8101345D01*
X6991428Y8110743D01*
X6996000Y8124459D01*
X6996000Y8147573D01*
X6991428Y8161543D01*
X6986856Y8170687D01*
X6977458Y8179831D01*
X6968314Y8184657D01*
X6949772Y8184657D01*
X6940628Y8179831D01*
X6931230Y8170687D01*
X6926658Y8161543D01*
X6922086Y8147573D01*
X6922086Y8124459D01*
X6926658Y8110743D01*
X6931230Y8101345D01*
X6940628Y8092201D01*
X6949772Y8087629D01*
X6968314Y8087629D01*
X6891606Y8087629D02*
G01*
X6891606Y8156971D01*
X6887034Y8170687D01*
X6877890Y8179831D01*
X6863920Y8184657D01*
X6854776Y8184657D01*
X6840806Y8179831D01*
X6831662Y8170687D01*
X6827090Y8156971D01*
X6827090Y8087629D01*
X6764098Y8087629D02*
G01*
X6764098Y8184657D01*
X6796610Y8087629D02*
G01*
X6731840Y8087629D01*
X6996000Y8373887D02*
G01*
X6996000Y8438657D01*
X6996000Y8392429D02*
G01*
X6982030Y8378459D01*
X6972886Y8373887D01*
X6959170Y8373887D01*
X6949772Y8378459D01*
X6945200Y8392429D01*
X6945200Y8438657D01*
X6914720Y8341629D02*
G01*
X6914720Y8438657D01*
X6914720Y8341629D02*
G01*
X6854776Y8341629D01*
X6914720Y8387857D02*
G01*
X6877890Y8387857D01*
X6824296Y8341629D02*
G01*
X6824296Y8438657D01*
X6824296Y8438657D02*
G01*
X6768670Y8438657D01*
X6705932Y8341629D02*
G01*
X6705932Y8438657D01*
X6738190Y8341629D02*
G01*
X6673674Y8341629D01*
X6926658Y7374143D02*
G01*
X6931230Y7364745D01*
X6940628Y7355601D01*
X6949772Y7351029D01*
X6968314Y7351029D01*
X6977458Y7355601D01*
X6986856Y7364745D01*
X6991428Y7374143D01*
X6996000Y7387859D01*
X6996000Y7410973D01*
X6991428Y7424943D01*
X6986856Y7434087D01*
X6977458Y7443231D01*
X6968314Y7448057D01*
X6949772Y7448057D01*
X6940628Y7443231D01*
X6931230Y7434087D01*
X6926658Y7424943D01*
X6926658Y7410973D01*
X6949772Y7410973D02*
G01*
X6926658Y7410973D01*
X6896178Y7351029D02*
G01*
X6896178Y7448057D01*
X6896178Y7351029D02*
G01*
X6831662Y7448057D01*
X6831662Y7351029D02*
G01*
X6831662Y7448057D01*
X6801182Y7351029D02*
G01*
X6801182Y7448057D01*
X6801182Y7351029D02*
G01*
X6768670Y7351029D01*
X6754954Y7355601D01*
X6745810Y7364745D01*
X6740984Y7374143D01*
X6736412Y7387859D01*
X6736412Y7410973D01*
X6740984Y7424943D01*
X6745810Y7434087D01*
X6754954Y7443231D01*
X6768670Y7448057D01*
X6801182Y7448057D01*
X6030292Y8270001D02*
G01*
X5947234Y8122173D01*
X5864176Y8270001D01*
X6030292Y8061213D02*
G01*
X5947234Y7913385D01*
X5864176Y8061213D01*
X6030292Y7852425D02*
G01*
X5947234Y7704851D01*
X5864176Y7852425D01*
X6030292Y7643891D02*
G01*
X5947234Y7496063D01*
X5864176Y7643891D01*
D31*
X8621699Y6859285D02*
G01*
X8621699Y6937263D01*
X8616619Y6952757D01*
X8606205Y6963171D01*
X8590457Y6968251D01*
X8580043Y6968251D01*
X8564549Y6963171D01*
X8554135Y6952757D01*
X8549055Y6937263D01*
X8549055Y6859285D01*
X8462695Y6859285D02*
G01*
X8514765Y6931929D01*
X8436787Y6931929D01*
X8462695Y6859285D02*
G01*
X8462695Y6968251D01*
D32*
X9301657Y7602743D02*
G01*
X9306229Y7593345D01*
X9315627Y7584201D01*
X9324771Y7579629D01*
X9343313Y7579629D01*
X9352457Y7584201D01*
X9361855Y7593345D01*
X9366427Y7602743D01*
X9370999Y7616459D01*
X9370999Y7639573D01*
X9366427Y7653543D01*
X9361855Y7662687D01*
X9352457Y7671831D01*
X9343313Y7676657D01*
X9324771Y7676657D01*
X9315627Y7671831D01*
X9306229Y7662687D01*
X9301657Y7653543D01*
X9301657Y7639573D01*
X9324771Y7639573D02*
G01*
X9301657Y7639573D01*
X9271177Y7579629D02*
G01*
X9271177Y7676657D01*
X9271177Y7579629D02*
G01*
X9206661Y7676657D01*
X9206661Y7579629D02*
G01*
X9206661Y7676657D01*
X9176181Y7579629D02*
G01*
X9176181Y7676657D01*
X9176181Y7579629D02*
G01*
X9143669Y7579629D01*
X9129953Y7584201D01*
X9120809Y7593345D01*
X9115983Y7602743D01*
X9111411Y7616459D01*
X9111411Y7639573D01*
X9115983Y7653543D01*
X9120809Y7662687D01*
X9129953Y7671831D01*
X9143669Y7676657D01*
X9176181Y7676657D01*
X9370999Y7833629D02*
G01*
X9334169Y7930657D01*
X9297085Y7833629D02*
G01*
X9334169Y7930657D01*
X9266605Y7833629D02*
G01*
X9266605Y7930657D01*
X9236125Y7833629D02*
G01*
X9236125Y7930657D01*
X9236125Y7833629D02*
G01*
X9171609Y7930657D01*
X9171609Y7833629D02*
G01*
X9171609Y7930657D01*
X9343313Y8087629D02*
G01*
X9352457Y8092201D01*
X9361855Y8101345D01*
X9366427Y8110743D01*
X9370999Y8124459D01*
X9370999Y8147573D01*
X9366427Y8161543D01*
X9361855Y8170687D01*
X9352457Y8179831D01*
X9343313Y8184657D01*
X9324771Y8184657D01*
X9315627Y8179831D01*
X9306229Y8170687D01*
X9301657Y8161543D01*
X9297085Y8147573D01*
X9297085Y8124459D01*
X9301657Y8110743D01*
X9306229Y8101345D01*
X9315627Y8092201D01*
X9324771Y8087629D01*
X9343313Y8087629D01*
X9266605Y8087629D02*
G01*
X9266605Y8156971D01*
X9262033Y8170687D01*
X9252889Y8179831D01*
X9238919Y8184657D01*
X9229775Y8184657D01*
X9215805Y8179831D01*
X9206661Y8170687D01*
X9202089Y8156971D01*
X9202089Y8087629D01*
X9139097Y8087629D02*
G01*
X9139097Y8184657D01*
X9171609Y8087629D02*
G01*
X9106839Y8087629D01*
X9370999Y8373887D02*
G01*
X9370999Y8438657D01*
X9370999Y8392429D02*
G01*
X9357029Y8378459D01*
X9347885Y8373887D01*
X9334169Y8373887D01*
X9324771Y8378459D01*
X9320199Y8392429D01*
X9320199Y8438657D01*
X9289719Y8341629D02*
G01*
X9289719Y8438657D01*
X9289719Y8341629D02*
G01*
X9229775Y8341629D01*
X9289719Y8387857D02*
G01*
X9252889Y8387857D01*
X9199295Y8341629D02*
G01*
X9199295Y8438657D01*
X9199295Y8438657D02*
G01*
X9143669Y8438657D01*
X9080931Y8341629D02*
G01*
X9080931Y8438657D01*
X9113189Y8341629D02*
G01*
X9048673Y8341629D01*
X9301657Y7374143D02*
G01*
X9306229Y7364745D01*
X9315627Y7355601D01*
X9324771Y7351029D01*
X9343313Y7351029D01*
X9352457Y7355601D01*
X9361855Y7364745D01*
X9366427Y7374143D01*
X9370999Y7387859D01*
X9370999Y7410973D01*
X9366427Y7424943D01*
X9361855Y7434087D01*
X9352457Y7443231D01*
X9343313Y7448057D01*
X9324771Y7448057D01*
X9315627Y7443231D01*
X9306229Y7434087D01*
X9301657Y7424943D01*
X9301657Y7410973D01*
X9324771Y7410973D02*
G01*
X9301657Y7410973D01*
X9271177Y7351029D02*
G01*
X9271177Y7448057D01*
X9271177Y7351029D02*
G01*
X9206661Y7448057D01*
X9206661Y7351029D02*
G01*
X9206661Y7448057D01*
X9176181Y7351029D02*
G01*
X9176181Y7448057D01*
X9176181Y7351029D02*
G01*
X9143669Y7351029D01*
X9129953Y7355601D01*
X9120809Y7364745D01*
X9115983Y7374143D01*
X9111411Y7387859D01*
X9111411Y7410973D01*
X9115983Y7424943D01*
X9120809Y7434087D01*
X9129953Y7443231D01*
X9143669Y7448057D01*
X9176181Y7448057D01*
X8405291Y8270001D02*
G01*
X8322233Y8122173D01*
X8239175Y8270001D01*
X8405291Y8061213D02*
G01*
X8322233Y7913385D01*
X8239175Y8061213D01*
X8405291Y7852425D02*
G01*
X8322233Y7704851D01*
X8239175Y7852425D01*
X8405291Y7643891D02*
G01*
X8322233Y7496063D01*
X8239175Y7643891D01*
G36*
X8825026Y1162507D02*
G01*
X8838996Y1149756D01*
X8853474Y1137615D01*
X8868511Y1126134D01*
X8884056Y1115314D01*
X8900007Y1105204D01*
X8916416Y1095756D01*
X8933230Y1087069D01*
X8950350Y1079093D01*
X8967825Y1071880D01*
X8985605Y1065428D01*
X9003690Y1059738D01*
X9021927Y1054862D01*
X9040418Y1050798D01*
X9059062Y1047546D01*
X9068409Y1046175D01*
X9087205Y1044143D01*
X9106103Y1042924D01*
X9125000Y1042517D01*
X9143898Y1042924D01*
X9162796Y1044143D01*
X9181592Y1046175D01*
X9200286Y1049070D01*
X9218828Y1052728D01*
X9237218Y1057198D01*
X9255404Y1062482D01*
X9273286Y1068578D01*
X9290913Y1075385D01*
X9308236Y1083005D01*
X9325254Y1091336D01*
X9341815Y1100378D01*
X9358020Y1110183D01*
X9373768Y1120648D01*
X9389059Y1131824D01*
X9403842Y1143609D01*
X9418066Y1156055D01*
X9425025Y1162507D01*
G37*
G36*
X7700009Y1224991D02*
G01*
X7713980Y1212240D01*
X7728508Y1200150D01*
X7735925Y1194308D01*
X7751216Y1183132D01*
X7766964Y1172667D01*
X7783169Y1162913D01*
X7799781Y1153820D01*
X7816748Y1145489D01*
X7834071Y1137869D01*
X7851698Y1131062D01*
X7860639Y1127912D01*
X7878673Y1122273D01*
X7896961Y1117396D01*
X7915402Y1113282D01*
X7934045Y1110030D01*
X7952790Y1107541D01*
X7971637Y1105916D01*
X7990535Y1105103D01*
X8009432Y1105103D01*
X8028330Y1105916D01*
X8047177Y1107541D01*
X8065973Y1110030D01*
X8084566Y1113282D01*
X8103057Y1117396D01*
X8121345Y1122273D01*
X8139379Y1127912D01*
X8157159Y1134364D01*
X8174634Y1141577D01*
X8191804Y1149553D01*
X8208568Y1158290D01*
X8224977Y1167688D01*
X8240979Y1177848D01*
X8256473Y1188669D01*
X8271509Y1200150D01*
X8286038Y1212240D01*
X8300008Y1224991D01*
G37*
G36*
X8825026Y224993D02*
G01*
X8838996Y212242D01*
X8853474Y200152D01*
X8868511Y188671D01*
X8876233Y183134D01*
X8891981Y172669D01*
X8908186Y162915D01*
X8924747Y153822D01*
X8941765Y145491D01*
X8959088Y137871D01*
X8976715Y131064D01*
X8985605Y127914D01*
X9003690Y122275D01*
X9021927Y117398D01*
X9040418Y113283D01*
X9059062Y110032D01*
X9077807Y107543D01*
X9096654Y105918D01*
X9115552Y105105D01*
X9134449Y105105D01*
X9153347Y105918D01*
X9172194Y107543D01*
X9190939Y110032D01*
X9209582Y113283D01*
X9228074Y117398D01*
X9246311Y122275D01*
X9264396Y127914D01*
X9282176Y134366D01*
X9299651Y141579D01*
X9316770Y149555D01*
X9333585Y158292D01*
X9349994Y167690D01*
X9365945Y177850D01*
X9373768Y183134D01*
X9389059Y194310D01*
X9403842Y206095D01*
X9418066Y218541D01*
X9425025Y224993D01*
G37*
G36*
X7700009Y224993D02*
G01*
X7713980Y212242D01*
X7728508Y200152D01*
X7735925Y194310D01*
X7751216Y183134D01*
X7766964Y172669D01*
X7783169Y162915D01*
X7799781Y153822D01*
X7816748Y145491D01*
X7834071Y137871D01*
X7851698Y131064D01*
X7860639Y127914D01*
X7878673Y122275D01*
X7896961Y117398D01*
X7915402Y113283D01*
X7934045Y110032D01*
X7952790Y107543D01*
X7971637Y105918D01*
X7990535Y105105D01*
X8009432Y105105D01*
X8028330Y105918D01*
X8047177Y107543D01*
X8065973Y110032D01*
X8084566Y113283D01*
X8103057Y117398D01*
X8121345Y122275D01*
X8139379Y127914D01*
X8157159Y134366D01*
X8174634Y141579D01*
X8191804Y149555D01*
X8208568Y158292D01*
X8224977Y167690D01*
X8240979Y177850D01*
X8256473Y188671D01*
X8271509Y200152D01*
X8286038Y212242D01*
X8300008Y224993D01*
G37*
D10*
X1849998Y8882504D02*
G01*
X450001Y8882504D01*
X450001Y8882504D02*
G01*
X450001Y9742497D01*
X450001Y9742497D02*
G01*
X1849998Y9742497D01*
X1849998Y9742497D02*
G01*
X2049998Y9462513D01*
X2049998Y9462513D02*
G01*
X2049998Y9162514D01*
X1849998Y8882504D02*
G01*
X2049998Y9162514D01*
X4224997Y8882504D02*
G01*
X2825000Y8882504D01*
X2825000Y8882504D02*
G01*
X2825000Y9742497D01*
X2825000Y9742497D02*
G01*
X4224997Y9742497D01*
X4224997Y9742497D02*
G01*
X4424997Y9462513D01*
X4424997Y9462513D02*
G01*
X4424997Y9162514D01*
X4224997Y8882504D02*
G01*
X4424997Y9162514D01*
X6599999Y8882504D02*
G01*
X5200002Y8882504D01*
X5200002Y8882504D02*
G01*
X5200002Y9742497D01*
X5200002Y9742497D02*
G01*
X6599999Y9742497D01*
X6599999Y9742497D02*
G01*
X6799999Y9462513D01*
X6799999Y9462513D02*
G01*
X6799999Y9162514D01*
X6599999Y8882504D02*
G01*
X6799999Y9162514D01*
X8974998Y8882504D02*
G01*
X7575001Y8882504D01*
X7575001Y8882504D02*
G01*
X7575001Y9742497D01*
X7575001Y9742497D02*
G01*
X8974998Y9742497D01*
X8974998Y9742497D02*
G01*
X9174998Y9462513D01*
X9174998Y9462513D02*
G01*
X9174998Y9162514D01*
X8974998Y8882504D02*
G01*
X9174998Y9162514D01*
X9475000Y2320002D02*
G01*
X8075002Y2320002D01*
X8075002Y2320002D02*
G01*
X8075002Y3179996D01*
X8075002Y3179996D02*
G01*
X9475000Y3179996D01*
X9475000Y3179996D02*
G01*
X9674999Y2900011D01*
X9674999Y2900011D02*
G01*
X9674999Y2600012D01*
X9475000Y2320002D02*
G01*
X9674999Y2600012D01*
D28*
X780008Y2127001D02*
G01*
X780008Y1111001D01*
X180009Y1111001D01*
X180009Y2127001D01*
X780008Y2127001D01*
X780008Y2127001D02*
G01*
X780008Y1111407D01*
X672007Y1111407D01*
X672007Y2127001D01*
X780008Y2127001D01*
D29*
X599998Y2130003D02*
G01*
X599998Y1114003D01*
D10*
X1499001Y3854201D02*
G01*
X1283101Y3854201D01*
X1283101Y3854201D02*
G01*
X1283101Y145801D01*
X1841901Y3854201D02*
G01*
X1626001Y3854201D01*
X1841901Y3854201D02*
G01*
X1841901Y145801D01*
X1841901Y145801D02*
G01*
X1283101Y145801D01*
X337499Y6625000D02*
G01*
X2369499Y6625000D01*
X2369499Y4339000D01*
X337499Y4339000D01*
X337499Y6625000D01*
X2837500Y6625000D02*
G01*
X4869500Y6625000D01*
X4869500Y4339000D01*
X2837500Y4339000D01*
X2837500Y6625000D01*
X5212499Y6637500D02*
G01*
X7244499Y6637500D01*
X7244499Y4351500D01*
X5212499Y4351500D01*
X5212499Y6637500D01*
X7587500Y6625000D02*
G01*
X9619500Y6625000D01*
X9619500Y4339000D01*
X7587500Y4339000D01*
X7587500Y6625000D01*
D30*
X2548501Y140098D02*
G01*
X2548501Y2984898D01*
X4326501Y2984898D01*
X4326501Y140098D01*
X2548501Y140098D01*
X2929501Y1371998D02*
G01*
X2866001Y1308498D01*
X2929501Y1244998D01*
X2929501Y1117998D01*
X2866001Y1054498D01*
X2929501Y990998D01*
X2929501Y863998D01*
X2866001Y800498D01*
X2929501Y736998D01*
X2929501Y609998D01*
X2866001Y546498D01*
X2929501Y482998D01*
X2929501Y355998D01*
X2866001Y292498D01*
X2739001Y292498D01*
X2675501Y355998D01*
X2675501Y482998D01*
X2739001Y546498D01*
X2675501Y609998D01*
X2675501Y736998D01*
X2739001Y800498D01*
X2675501Y863998D01*
X2675501Y990998D01*
X2739001Y1054498D01*
X2675501Y1117998D01*
X2675501Y1244998D01*
X2739001Y1308498D01*
X2675501Y1371998D01*
X2675501Y1498998D01*
X2739001Y1562498D01*
X2675501Y1625998D01*
X2675501Y1752998D01*
X2739001Y1816498D01*
X2675501Y1879998D01*
X2675501Y2006998D01*
X2739001Y2070498D01*
X2675501Y2133998D01*
X2675501Y2260998D01*
X2739001Y2324498D01*
X2675501Y2387998D01*
X2675501Y2514998D01*
X2739001Y2578498D01*
X2675501Y2641998D01*
X2675501Y2768998D01*
X2739001Y2832498D01*
X2866001Y2832498D01*
X2929501Y2768998D01*
X2929501Y2641998D01*
X2866001Y2578498D01*
X2929501Y2514998D01*
X2929501Y2387998D01*
X2866001Y2324498D01*
X2929501Y2260998D01*
X2929501Y2133998D01*
X2866001Y2070498D01*
X2929501Y2006998D01*
X2929501Y1879998D01*
X2866001Y1816498D01*
X2929501Y1752998D01*
X2929501Y1625998D01*
X2866001Y1562498D01*
X2929501Y1498998D01*
X2929501Y1371998D01*
X5548500Y140098D02*
G01*
X5548500Y2984898D01*
X7326500Y2984898D01*
X7326500Y140098D01*
X5548500Y140098D01*
X5929500Y1371998D02*
G01*
X5866000Y1308498D01*
X5929500Y1244998D01*
X5929500Y1117998D01*
X5866000Y1054498D01*
X5929500Y990998D01*
X5929500Y863998D01*
X5866000Y800498D01*
X5929500Y736998D01*
X5929500Y609998D01*
X5866000Y546498D01*
X5929500Y482998D01*
X5929500Y355998D01*
X5866000Y292498D01*
X5739000Y292498D01*
X5675500Y355998D01*
X5675500Y482998D01*
X5739000Y546498D01*
X5675500Y609998D01*
X5675500Y736998D01*
X5739000Y800498D01*
X5675500Y863998D01*
X5675500Y990998D01*
X5739000Y1054498D01*
X5675500Y1117998D01*
X5675500Y1244998D01*
X5739000Y1308498D01*
X5675500Y1371998D01*
X5675500Y1498998D01*
X5739000Y1562498D01*
X5675500Y1625998D01*
X5675500Y1752998D01*
X5739000Y1816498D01*
X5675500Y1879998D01*
X5675500Y2006998D01*
X5739000Y2070498D01*
X5675500Y2133998D01*
X5675500Y2260998D01*
X5739000Y2324498D01*
X5675500Y2387998D01*
X5675500Y2514998D01*
X5739000Y2578498D01*
X5675500Y2641998D01*
X5675500Y2768998D01*
X5739000Y2832498D01*
X5866000Y2832498D01*
X5929500Y2768998D01*
X5929500Y2641998D01*
X5866000Y2578498D01*
X5929500Y2514998D01*
X5929500Y2387998D01*
X5866000Y2324498D01*
X5929500Y2260998D01*
X5929500Y2133998D01*
X5866000Y2070498D01*
X5929500Y2006998D01*
X5929500Y1879998D01*
X5866000Y1816498D01*
X5929500Y1752998D01*
X5929500Y1625998D01*
X5866000Y1562498D01*
X5929500Y1498998D01*
X5929500Y1371998D01*
D10*
X3810038Y3568118D02*
G01*
X3810038Y3806878D01*
X3810038Y3806878D02*
G01*
X4439958Y3806878D01*
X4439958Y3806878D02*
G01*
X4439958Y3568118D01*
X4439958Y3568118D02*
G01*
X3810038Y3568118D01*
X2560038Y3568118D02*
G01*
X2560038Y3806878D01*
X2560038Y3806878D02*
G01*
X3189958Y3806878D01*
X3189958Y3806878D02*
G01*
X3189958Y3568118D01*
X3189958Y3568118D02*
G01*
X2560038Y3568118D01*
X2560043Y3255619D02*
G01*
X2560043Y3494379D01*
X2560043Y3494379D02*
G01*
X3189963Y3494379D01*
X3189963Y3494379D02*
G01*
X3189963Y3255619D01*
X3189963Y3255619D02*
G01*
X2560043Y3255619D01*
X3810040Y3255619D02*
G01*
X3810040Y3494379D01*
X3810040Y3494379D02*
G01*
X4439960Y3494379D01*
X4439960Y3494379D02*
G01*
X4439960Y3255619D01*
X4439960Y3255619D02*
G01*
X3810040Y3255619D01*
X5185039Y3568120D02*
G01*
X5185039Y3806880D01*
X5185039Y3806880D02*
G01*
X5814959Y3806880D01*
X5814959Y3806880D02*
G01*
X5814959Y3568120D01*
X5814959Y3568120D02*
G01*
X5185039Y3568120D01*
X6471541Y3578123D02*
G01*
X6471541Y3816883D01*
X6471541Y3816883D02*
G01*
X7101461Y3816883D01*
X7101461Y3816883D02*
G01*
X7101461Y3578123D01*
X7101461Y3578123D02*
G01*
X6471541Y3578123D01*
X5159042Y3203122D02*
G01*
X5159042Y3441882D01*
X5159042Y3441882D02*
G01*
X5788962Y3441882D01*
X5788962Y3441882D02*
G01*
X5788962Y3203122D01*
X5788962Y3203122D02*
G01*
X5159042Y3203122D01*
X6471541Y3203122D02*
G01*
X6471541Y3441882D01*
X6471541Y3441882D02*
G01*
X7101461Y3441882D01*
X7101461Y3441882D02*
G01*
X7101461Y3203122D01*
X7101461Y3203122D02*
G01*
X6471541Y3203122D01*
X225999Y3924998D02*
G01*
X773998Y3924998D01*
X773998Y3924998D02*
G01*
X773998Y3294997D01*
X225999Y3924998D02*
G01*
X225999Y3294997D01*
X225999Y3294997D02*
G01*
X773998Y3294997D01*
X225999Y3770795D02*
G01*
X773998Y3770795D01*
X225999Y3468829D02*
G01*
X773998Y3468829D01*
X225999Y3348029D02*
G01*
X773998Y3348029D01*
X163499Y2987499D02*
G01*
X711499Y2987499D01*
X711499Y2987499D02*
G01*
X711499Y2357498D01*
X163499Y2987499D02*
G01*
X163499Y2357498D01*
X163499Y2357498D02*
G01*
X711499Y2357498D01*
X163499Y2833296D02*
G01*
X711499Y2833296D01*
X163499Y2531330D02*
G01*
X711499Y2531330D01*
X163499Y2410531D02*
G01*
X711499Y2410531D01*
X9198660Y1719181D02*
G01*
X9333280Y1719181D01*
X9267240Y1655681D02*
G01*
X9267240Y1780141D01*
X8073659Y1781680D02*
G01*
X8208279Y1781680D01*
X8142239Y1718180D02*
G01*
X8142239Y1842640D01*
X9198660Y781679D02*
G01*
X9333280Y781679D01*
X9267240Y718179D02*
G01*
X9267240Y842639D01*
X8073659Y781679D02*
G01*
X8208279Y781679D01*
X8142239Y718179D02*
G01*
X8142239Y842639D01*
X2500000Y8778001D02*
G01*
X468000Y8778001D01*
X2500000Y7000001D02*
G01*
X468000Y7000001D01*
X2500000Y8778001D02*
G01*
X2500000Y7000001D01*
X468000Y8778001D02*
G01*
X468000Y7000001D01*
X4874999Y8778006D02*
G01*
X2842999Y8778006D01*
X4874999Y7000006D02*
G01*
X2842999Y7000006D01*
X4874999Y8778006D02*
G01*
X4874999Y7000006D01*
X2842999Y8778006D02*
G01*
X2842999Y7000006D01*
X7250000Y8778001D02*
G01*
X5218000Y8778001D01*
X7250000Y7000001D02*
G01*
X5218000Y7000001D01*
X7250000Y8778001D02*
G01*
X7250000Y7000001D01*
X5218000Y8778001D02*
G01*
X5218000Y7000001D01*
X9624999Y8778001D02*
G01*
X7592999Y8778001D01*
X9624999Y7000001D02*
G01*
X7592999Y7000001D01*
X9624999Y8778001D02*
G01*
X9624999Y7000001D01*
X7592999Y8778001D02*
G01*
X7592999Y7000001D01*
G75*
G01*
X1626001Y3854199D02*
G02*
X1499001Y3854199I-63500J0D01*
G75*
G01*
X9525051Y1437246D02*
G03*
X9525051Y1430134I-399984J-3556D01*
G75*
G01*
X8400049Y1499746D02*
G03*
X8400049Y1492634I-399984J-3556D01*
G75*
G01*
X9525051Y499745D02*
G03*
X9525051Y492633I-399984J-3556D01*
G75*
G01*
X8400049Y499745D02*
G03*
X8400049Y492633I-399984J-3556D01*
G75*
G01
X2224481Y6396406D02*
G03X2224481Y6396406I-108991J0D01*
G75*
G01
X707847Y6389040D02*
G03X707847Y6389040I-108991J0D01*
G75*
G01
X1215847Y6389040D02*
G03X1215847Y6389040I-108991J0D01*
G75*
G01
X1723847Y6389040D02*
G03X1723847Y6389040I-108991J0D01*
G75*
G01
X4724502Y6396431D02*
G03X4724502Y6396431I-108991J0D01*
G75*
G01
X3207842Y6389065D02*
G03X3207842Y6389065I-108991J0D01*
G75*
G01
X3715842Y6389065D02*
G03X3715842Y6389065I-108991J0D01*
G75*
G01
X4223842Y6389065D02*
G03X4223842Y6389065I-108991J0D01*
G75*
G01
X7099478Y6408903D02*
G03X7099478Y6408903I-108991J0D01*
G75*
G01
X5582844Y6401537D02*
G03X5582844Y6401537I-108991J0D01*
G75*
G01
X6090844Y6401537D02*
G03X6090844Y6401537I-108991J0D01*
G75*
G01
X6598844Y6401537D02*
G03X6598844Y6401537I-108991J0D01*
G75*
G01
X9474479Y6396431D02*
G03X9474479Y6396431I-108991J0D01*
G75*
G01
X7957845Y6389065D02*
G03X7957845Y6389065I-108991J0D01*
G75*
G01
X8465845Y6389065D02*
G03X8465845Y6389065I-108991J0D01*
G75*
G01
X8973845Y6389065D02*
G03X8973845Y6389065I-108991J0D01*
M02*
