M48
METRIC,LZ,000.000
;FILE_FORMAT=3:3
;TYPE=PLATED
;Layer: PTH_Through
;EasyEDA v6.5.5, 2022-06-01 21:54:51
;4b561e4e07bb45b19b9d071735fb3a1a,c96cdaf6a0e44fa3bb1e134f2b5c86cb,10
;Gerber Generator version 0.2
;Holesize 1 = 0.712 mm
T01C0.712
;Holesize 2 = 0.915 mm
T02C0.915
;Holesize 3 = 1.000 mm
T03C1.000
;Holesize 4 = 2.000 mm
T04C2.000
;Holesize 5 = 4.000 mm
T05C4.000
%
G05
G90
T01
X052070Y078804
X052070Y083884
X052070Y041212
X052070Y046292
X051689Y004001
X051689Y009081
T02
X032258Y081471
X032258Y084011
X032258Y086551
X032258Y089091
X032258Y091631
X032258Y094171
X032258Y096711
X032258Y099251
X047498Y099251
X047498Y096711
X047498Y094171
X047498Y091631
X047498Y089091
X047498Y086551
X047498Y084011
X047498Y081471
X032258Y043752
X032258Y046292
X032258Y048832
X032258Y051372
X032258Y053912
X032258Y056452
X032258Y058992
X032258Y061532
X047498Y061532
X047498Y058992
X047498Y056452
X047498Y053912
X047498Y051372
X047498Y048832
X047498Y046292
X047498Y043752
X032004Y006541
X032004Y009081
X032004Y011621
X032004Y014161
X032004Y016701
X032004Y019241
X032004Y021781
X032004Y024321
X047244Y024321
X047244Y021781
X047244Y019241
X047244Y016701
X047244Y014161
X047244Y011621
X047244Y009081
X047244Y006541
X047879Y107379
X052959Y107379
X047625Y069533
X052705Y069533
X047371Y031941
X052451Y031941
T03
X020955Y089090G85X020955Y089091
X020955Y091630G85X020955Y091631
X023495Y099250G85X023495Y099251
X023495Y096710G85X023495Y096711
X023495Y094170G85X023495Y094171
X023495Y091630G85X023495Y091631
X023495Y089090G85X023495Y089091
X020955Y096710G85X020955Y096711
X020955Y094170G85X020955Y094171
X020955Y099250G85X020955Y099251
X021082Y051371G85X021082Y051372
X021082Y053911G85X021082Y053912
X023622Y061531G85X023622Y061532
X023622Y058991G85X023622Y058992
X023622Y056451G85X023622Y056452
X023622Y053911G85X023622Y053912
X023622Y051371G85X023622Y051372
X021082Y058991G85X021082Y058992
X021082Y056451G85X021082Y056452
X021082Y061531G85X021082Y061532
X021209Y014160G85X021209Y014161
X021209Y016700G85X021209Y016701
X023749Y024320G85X023749Y024321
X023749Y021780G85X023749Y021781
X023749Y019240G85X023749Y019241
X023749Y016700G85X023749Y016701
X023749Y014160G85X023749Y014161
X021209Y021780G85X021209Y021781
X021209Y019240G85X021209Y019241
X021209Y024320G85X021209Y024321
T04
X059817Y100140
X059817Y095140
X059817Y090140
X059817Y085140
X059817Y061278
X059817Y056278
X059817Y051278
X059817Y046278
X060071Y025210
X060071Y020210
X060071Y015210
X060071Y010210
T05
X037211Y114661
X037211Y107462
M30
