G04 Layer: TopSilkscreenLayer*
G04 EasyEDA v6.5.5, 2022-06-01 21:54:51*
G04 4b561e4e07bb45b19b9d071735fb3a1a,c96cdaf6a0e44fa3bb1e134f2b5c86cb,10*
G04 Gerber Generator version 0.2*
G04 Scale: 100 percent, Rotated: No, Reflected: No *
G04 Dimensions in millimeters *
G04 leading zeros omitted , absolute positions ,4 integer and 5 decimal *
%FSLAX45Y45*%
%MOMM*%

%ADD10C,0.2540*%
%ADD22C,0.1524*%
%ADD23C,0.1000*%

%LPD*%
D22*
X5474208Y8056371D02*
G01*
X5484622Y8061705D01*
X5495036Y8072120D01*
X5500115Y8082279D01*
X5500115Y8103108D01*
X5495036Y8113521D01*
X5484622Y8123936D01*
X5474208Y8129270D01*
X5458459Y8134350D01*
X5432552Y8134350D01*
X5417058Y8129270D01*
X5406643Y8123936D01*
X5396229Y8113521D01*
X5391150Y8103108D01*
X5391150Y8082279D01*
X5396229Y8072120D01*
X5406643Y8061705D01*
X5417058Y8056371D01*
X5474208Y8017002D02*
G01*
X5479288Y8017002D01*
X5489702Y8011668D01*
X5495036Y8006587D01*
X5500115Y7996173D01*
X5500115Y7975345D01*
X5495036Y7964931D01*
X5489702Y7959852D01*
X5479288Y7954518D01*
X5468874Y7954518D01*
X5458459Y7959852D01*
X5442965Y7970265D01*
X5391150Y8022081D01*
X5391150Y7949437D01*
X5474208Y4297171D02*
G01*
X5484622Y4302505D01*
X5495036Y4312920D01*
X5500115Y4323079D01*
X5500115Y4343907D01*
X5495036Y4354321D01*
X5484622Y4364736D01*
X5474208Y4370070D01*
X5458459Y4375150D01*
X5432552Y4375150D01*
X5417058Y4370070D01*
X5406643Y4364736D01*
X5396229Y4354321D01*
X5391150Y4343907D01*
X5391150Y4323079D01*
X5396229Y4312920D01*
X5406643Y4302505D01*
X5417058Y4297171D01*
X5500115Y4252468D02*
G01*
X5500115Y4195318D01*
X5458459Y4226560D01*
X5458459Y4211065D01*
X5453379Y4200652D01*
X5448300Y4195318D01*
X5432552Y4190237D01*
X5422138Y4190237D01*
X5406643Y4195318D01*
X5396229Y4205731D01*
X5391150Y4221479D01*
X5391150Y4236973D01*
X5396229Y4252468D01*
X5401309Y4257802D01*
X5411724Y4262881D01*
X5436108Y576071D02*
G01*
X5446522Y581405D01*
X5456936Y591820D01*
X5462015Y601979D01*
X5462015Y622807D01*
X5456936Y633221D01*
X5446522Y643636D01*
X5436108Y648970D01*
X5420359Y654050D01*
X5394452Y654050D01*
X5378958Y648970D01*
X5368543Y643636D01*
X5358129Y633221D01*
X5353050Y622807D01*
X5353050Y601979D01*
X5358129Y591820D01*
X5368543Y581405D01*
X5378958Y576071D01*
X5462015Y479552D02*
G01*
X5462015Y531368D01*
X5415279Y536702D01*
X5420359Y531368D01*
X5425693Y515873D01*
X5425693Y500379D01*
X5420359Y484631D01*
X5410200Y474218D01*
X5394452Y469137D01*
X5384038Y469137D01*
X5368543Y474218D01*
X5358129Y484631D01*
X5353050Y500379D01*
X5353050Y515873D01*
X5358129Y531368D01*
X5363209Y536702D01*
X5373624Y541781D01*
X4293615Y11106150D02*
G01*
X4215638Y11106150D01*
X4200143Y11101070D01*
X4189729Y11090655D01*
X4184650Y11074908D01*
X4184650Y11064494D01*
X4189729Y11049000D01*
X4200143Y11038586D01*
X4215638Y11033505D01*
X4293615Y11033505D01*
X4272788Y10999215D02*
G01*
X4278122Y10988802D01*
X4293615Y10973054D01*
X4184650Y10973054D01*
D23*
X4013200Y10877550D02*
G01*
X3946397Y10833100D01*
X4013200Y10833100D02*
G01*
X3946397Y10877550D01*
X4013200Y10789665D02*
G01*
X3946397Y10789665D01*
X4013200Y10812018D02*
G01*
X4013200Y10767568D01*
X4003802Y10708386D02*
G01*
X4010152Y10711434D01*
X4013200Y10721086D01*
X4013200Y10727436D01*
X4010152Y10736834D01*
X4000500Y10743184D01*
X3984752Y10746486D01*
X3968750Y10746486D01*
X3956050Y10743184D01*
X3949700Y10736834D01*
X3946397Y10727436D01*
X3946397Y10724134D01*
X3949700Y10714736D01*
X3956050Y10708386D01*
X3965447Y10705084D01*
X3968750Y10705084D01*
X3978402Y10708386D01*
X3984752Y10714736D01*
X3987800Y10724134D01*
X3987800Y10727436D01*
X3984752Y10736834D01*
X3978402Y10743184D01*
X3968750Y10746486D01*
X4013200Y10664952D02*
G01*
X4010152Y10674604D01*
X4000500Y10680954D01*
X3984752Y10684002D01*
X3975100Y10684002D01*
X3959097Y10680954D01*
X3949700Y10674604D01*
X3946397Y10664952D01*
X3946397Y10658602D01*
X3949700Y10649204D01*
X3959097Y10642854D01*
X3975100Y10639552D01*
X3984752Y10639552D01*
X4000500Y10642854D01*
X4010152Y10649204D01*
X4013200Y10658602D01*
X4013200Y10664952D01*
D22*
X1624584Y9417050D02*
G01*
X1733550Y9417050D01*
X1624584Y9417050D02*
G01*
X1624584Y9463786D01*
X1629663Y9479279D01*
X1634997Y9484613D01*
X1645412Y9489694D01*
X1655826Y9489694D01*
X1666239Y9484613D01*
X1671320Y9479279D01*
X1676400Y9463786D01*
X1676400Y9417050D01*
X1676400Y9453371D02*
G01*
X1733550Y9489694D01*
X1624584Y9565639D02*
G01*
X1733550Y9523984D01*
X1624584Y9565639D02*
G01*
X1733550Y9607295D01*
X1697228Y9539731D02*
G01*
X1697228Y9591547D01*
X1770126Y9641586D02*
G01*
X1770126Y9735058D01*
X1624584Y9769347D02*
G01*
X1733550Y9769347D01*
X1624584Y9769347D02*
G01*
X1733550Y9810750D01*
X1624584Y9852405D02*
G01*
X1733550Y9810750D01*
X1624584Y9852405D02*
G01*
X1733550Y9852405D01*
X1624584Y9917937D02*
G01*
X1629663Y9907524D01*
X1640078Y9897110D01*
X1650492Y9892029D01*
X1666239Y9886695D01*
X1692147Y9886695D01*
X1707642Y9892029D01*
X1718055Y9897110D01*
X1728470Y9907524D01*
X1733550Y9917937D01*
X1733550Y9938765D01*
X1728470Y9949179D01*
X1718055Y9959339D01*
X1707642Y9964674D01*
X1692147Y9969754D01*
X1666239Y9969754D01*
X1650492Y9964674D01*
X1640078Y9959339D01*
X1629663Y9949179D01*
X1624584Y9938765D01*
X1624584Y9917937D01*
X1624584Y10040620D02*
G01*
X1733550Y10040620D01*
X1624584Y10004044D02*
G01*
X1624584Y10076942D01*
X1637284Y5645150D02*
G01*
X1746250Y5645150D01*
X1637284Y5645150D02*
G01*
X1637284Y5681471D01*
X1642363Y5697220D01*
X1652778Y5707379D01*
X1663192Y5712713D01*
X1678939Y5717794D01*
X1704847Y5717794D01*
X1720342Y5712713D01*
X1730755Y5707379D01*
X1741170Y5697220D01*
X1746250Y5681471D01*
X1746250Y5645150D01*
X1637284Y5752084D02*
G01*
X1746250Y5752084D01*
X1637284Y5752084D02*
G01*
X1637284Y5819647D01*
X1689100Y5752084D02*
G01*
X1689100Y5793739D01*
X1746250Y5752084D02*
G01*
X1746250Y5819647D01*
X1663192Y5931915D02*
G01*
X1652778Y5926836D01*
X1642363Y5916421D01*
X1637284Y5906007D01*
X1637284Y5885179D01*
X1642363Y5874765D01*
X1652778Y5864352D01*
X1663192Y5859271D01*
X1678939Y5853937D01*
X1704847Y5853937D01*
X1720342Y5859271D01*
X1730755Y5864352D01*
X1741170Y5874765D01*
X1746250Y5885179D01*
X1746250Y5906007D01*
X1741170Y5916421D01*
X1730755Y5926836D01*
X1720342Y5931915D01*
X1782826Y5966205D02*
G01*
X1782826Y6059678D01*
X1637284Y6093968D02*
G01*
X1746250Y6093968D01*
X1637284Y6093968D02*
G01*
X1746250Y6135623D01*
X1637284Y6177279D02*
G01*
X1746250Y6135623D01*
X1637284Y6177279D02*
G01*
X1746250Y6177279D01*
X1637284Y6242557D02*
G01*
X1642363Y6232144D01*
X1652778Y6221729D01*
X1663192Y6216650D01*
X1678939Y6211570D01*
X1704847Y6211570D01*
X1720342Y6216650D01*
X1730755Y6221729D01*
X1741170Y6232144D01*
X1746250Y6242557D01*
X1746250Y6263386D01*
X1741170Y6273800D01*
X1730755Y6284213D01*
X1720342Y6289294D01*
X1704847Y6294628D01*
X1678939Y6294628D01*
X1663192Y6289294D01*
X1652778Y6284213D01*
X1642363Y6273800D01*
X1637284Y6263386D01*
X1637284Y6242557D01*
X1637284Y6365239D02*
G01*
X1746250Y6365239D01*
X1637284Y6328918D02*
G01*
X1637284Y6401562D01*
X1649984Y1955292D02*
G01*
X1655063Y1944878D01*
X1665478Y1934463D01*
X1675892Y1929129D01*
X1691639Y1924050D01*
X1717547Y1924050D01*
X1733042Y1929129D01*
X1743455Y1934463D01*
X1753870Y1944878D01*
X1758950Y1955292D01*
X1758950Y1976120D01*
X1753870Y1986279D01*
X1743455Y1996694D01*
X1733042Y2002028D01*
X1717547Y2007107D01*
X1691639Y2007107D01*
X1675892Y2002028D01*
X1665478Y1996694D01*
X1655063Y1986279D01*
X1649984Y1976120D01*
X1649984Y1955292D01*
X1665478Y2114295D02*
G01*
X1655063Y2103881D01*
X1649984Y2088134D01*
X1649984Y2067560D01*
X1655063Y2051812D01*
X1665478Y2041397D01*
X1675892Y2041397D01*
X1686305Y2046731D01*
X1691639Y2051812D01*
X1696720Y2062226D01*
X1707134Y2093468D01*
X1712213Y2103881D01*
X1717547Y2108962D01*
X1727962Y2114295D01*
X1743455Y2114295D01*
X1753870Y2103881D01*
X1758950Y2088134D01*
X1758950Y2067560D01*
X1753870Y2051812D01*
X1743455Y2041397D01*
X1649984Y2184907D02*
G01*
X1758950Y2184907D01*
X1649984Y2148586D02*
G01*
X1649984Y2221229D01*
X1795526Y2255520D02*
G01*
X1795526Y2348992D01*
X1649984Y2383281D02*
G01*
X1758950Y2383281D01*
X1649984Y2383281D02*
G01*
X1758950Y2424937D01*
X1649984Y2466339D02*
G01*
X1758950Y2424937D01*
X1649984Y2466339D02*
G01*
X1758950Y2466339D01*
X1649984Y2531871D02*
G01*
X1655063Y2521457D01*
X1665478Y2511044D01*
X1675892Y2505963D01*
X1691639Y2500629D01*
X1717547Y2500629D01*
X1733042Y2505963D01*
X1743455Y2511044D01*
X1753870Y2521457D01*
X1758950Y2531871D01*
X1758950Y2552700D01*
X1753870Y2563113D01*
X1743455Y2573528D01*
X1733042Y2578607D01*
X1717547Y2583942D01*
X1691639Y2583942D01*
X1675892Y2578607D01*
X1665478Y2573528D01*
X1655063Y2563113D01*
X1649984Y2552700D01*
X1649984Y2531871D01*
X1649984Y2654554D02*
G01*
X1758950Y2654554D01*
X1649984Y2618231D02*
G01*
X1649984Y2690876D01*
X3987800Y10192765D02*
G01*
X3987800Y10114787D01*
X3992879Y10099294D01*
X4003293Y10088879D01*
X4019041Y10083800D01*
X4029456Y10083800D01*
X4044950Y10088879D01*
X4055363Y10099294D01*
X4060443Y10114787D01*
X4060443Y10192765D01*
X4100068Y10166858D02*
G01*
X4100068Y10171937D01*
X4105147Y10182352D01*
X4110481Y10187686D01*
X4120895Y10192765D01*
X4141470Y10192765D01*
X4151884Y10187686D01*
X4157218Y10182352D01*
X4162297Y10171937D01*
X4162297Y10161524D01*
X4157218Y10151110D01*
X4146804Y10135615D01*
X4094734Y10083800D01*
X4167631Y10083800D01*
X3987800Y6420865D02*
G01*
X3987800Y6342887D01*
X3992879Y6327394D01*
X4003293Y6316979D01*
X4019041Y6311900D01*
X4029456Y6311900D01*
X4044950Y6316979D01*
X4055363Y6327394D01*
X4060443Y6342887D01*
X4060443Y6420865D01*
X4105147Y6420865D02*
G01*
X4162297Y6420865D01*
X4131309Y6379210D01*
X4146804Y6379210D01*
X4157218Y6374129D01*
X4162297Y6369050D01*
X4167631Y6353302D01*
X4167631Y6342887D01*
X4162297Y6327394D01*
X4151884Y6316979D01*
X4136390Y6311900D01*
X4120895Y6311900D01*
X4105147Y6316979D01*
X4100068Y6322060D01*
X4094734Y6332473D01*
X3962400Y2699765D02*
G01*
X3962400Y2621787D01*
X3967479Y2606294D01*
X3977893Y2595879D01*
X3993641Y2590800D01*
X4004056Y2590800D01*
X4019550Y2595879D01*
X4029963Y2606294D01*
X4035043Y2621787D01*
X4035043Y2699765D01*
X4121404Y2699765D02*
G01*
X4069334Y2627121D01*
X4147311Y2627121D01*
X4121404Y2699765D02*
G01*
X4121404Y2590800D01*
X6528815Y9251950D02*
G01*
X6419850Y9251950D01*
X6528815Y9251950D02*
G01*
X6528815Y9205213D01*
X6523736Y9189720D01*
X6518402Y9184386D01*
X6507988Y9179305D01*
X6497574Y9179305D01*
X6487159Y9184386D01*
X6482079Y9189720D01*
X6477000Y9205213D01*
X6477000Y9251950D01*
X6477000Y9215628D02*
G01*
X6419850Y9179305D01*
X6528815Y9103360D02*
G01*
X6419850Y9145015D01*
X6528815Y9103360D02*
G01*
X6419850Y9061704D01*
X6456172Y9129268D02*
G01*
X6456172Y9077452D01*
X6528815Y5365750D02*
G01*
X6419850Y5365750D01*
X6528815Y5365750D02*
G01*
X6528815Y5329428D01*
X6523736Y5313679D01*
X6513322Y5303520D01*
X6502908Y5298186D01*
X6487159Y5293105D01*
X6461252Y5293105D01*
X6445758Y5298186D01*
X6435343Y5303520D01*
X6424929Y5313679D01*
X6419850Y5329428D01*
X6419850Y5365750D01*
X6528815Y5258815D02*
G01*
X6419850Y5258815D01*
X6528815Y5258815D02*
G01*
X6528815Y5191252D01*
X6477000Y5258815D02*
G01*
X6477000Y5217160D01*
X6419850Y5258815D02*
G01*
X6419850Y5191252D01*
X6502908Y5078984D02*
G01*
X6513322Y5084063D01*
X6523736Y5094478D01*
X6528815Y5104892D01*
X6528815Y5125720D01*
X6523736Y5136134D01*
X6513322Y5146547D01*
X6502908Y5151628D01*
X6487159Y5156962D01*
X6461252Y5156962D01*
X6445758Y5151628D01*
X6435343Y5146547D01*
X6424929Y5136134D01*
X6419850Y5125720D01*
X6419850Y5104892D01*
X6424929Y5094478D01*
X6435343Y5084063D01*
X6445758Y5078984D01*
X6554215Y1727707D02*
G01*
X6549136Y1738121D01*
X6538722Y1748536D01*
X6528308Y1753870D01*
X6512559Y1758950D01*
X6486652Y1758950D01*
X6471158Y1753870D01*
X6460743Y1748536D01*
X6450329Y1738121D01*
X6445250Y1727707D01*
X6445250Y1706879D01*
X6450329Y1696720D01*
X6460743Y1686305D01*
X6471158Y1680971D01*
X6486652Y1675892D01*
X6512559Y1675892D01*
X6528308Y1680971D01*
X6538722Y1686305D01*
X6549136Y1696720D01*
X6554215Y1706879D01*
X6554215Y1727707D01*
X6538722Y1568704D02*
G01*
X6549136Y1579118D01*
X6554215Y1594865D01*
X6554215Y1615439D01*
X6549136Y1631187D01*
X6538722Y1641602D01*
X6528308Y1641602D01*
X6517893Y1636268D01*
X6512559Y1631187D01*
X6507479Y1620773D01*
X6497065Y1589531D01*
X6491986Y1579118D01*
X6486652Y1574037D01*
X6476238Y1568704D01*
X6460743Y1568704D01*
X6450329Y1579118D01*
X6445250Y1594865D01*
X6445250Y1615439D01*
X6450329Y1631187D01*
X6460743Y1641602D01*
X6554215Y1498092D02*
G01*
X6445250Y1498092D01*
X6554215Y1534413D02*
G01*
X6554215Y1461770D01*
X5119877Y11360658D02*
G01*
X5114543Y11371071D01*
X5104129Y11381486D01*
X5093970Y11386565D01*
X5073141Y11386565D01*
X5062727Y11381486D01*
X5052313Y11371071D01*
X5046979Y11360658D01*
X5041900Y11344910D01*
X5041900Y11319002D01*
X5046979Y11303508D01*
X5052313Y11293094D01*
X5062727Y11282679D01*
X5073141Y11277600D01*
X5093970Y11277600D01*
X5104129Y11282679D01*
X5114543Y11293094D01*
X5119877Y11303508D01*
X5154168Y11365737D02*
G01*
X5164581Y11371071D01*
X5180075Y11386565D01*
X5180075Y11277600D01*
X5094477Y7576058D02*
G01*
X5089143Y7586471D01*
X5078729Y7596886D01*
X5068570Y7601965D01*
X5047741Y7601965D01*
X5037327Y7596886D01*
X5026913Y7586471D01*
X5021579Y7576058D01*
X5016500Y7560310D01*
X5016500Y7534402D01*
X5021579Y7518908D01*
X5026913Y7508494D01*
X5037327Y7498079D01*
X5047741Y7493000D01*
X5068570Y7493000D01*
X5078729Y7498079D01*
X5089143Y7508494D01*
X5094477Y7518908D01*
X5180584Y7601965D02*
G01*
X5128768Y7529321D01*
X5206745Y7529321D01*
X5180584Y7601965D02*
G01*
X5180584Y7493000D01*
X5069077Y3816857D02*
G01*
X5063743Y3827271D01*
X5053329Y3837686D01*
X5043170Y3842765D01*
X5022341Y3842765D01*
X5011927Y3837686D01*
X5001513Y3827271D01*
X4996179Y3816857D01*
X4991100Y3801110D01*
X4991100Y3775202D01*
X4996179Y3759707D01*
X5001513Y3749294D01*
X5011927Y3738879D01*
X5022341Y3733800D01*
X5043170Y3733800D01*
X5053329Y3738879D01*
X5063743Y3749294D01*
X5069077Y3759707D01*
X5165597Y3827271D02*
G01*
X5160518Y3837686D01*
X5144770Y3842765D01*
X5134609Y3842765D01*
X5118861Y3837686D01*
X5108447Y3821937D01*
X5103368Y3796029D01*
X5103368Y3770121D01*
X5108447Y3749294D01*
X5118861Y3738879D01*
X5134609Y3733800D01*
X5139690Y3733800D01*
X5155184Y3738879D01*
X5165597Y3749294D01*
X5170931Y3764787D01*
X5170931Y3770121D01*
X5165597Y3785615D01*
X5155184Y3796029D01*
X5139690Y3801110D01*
X5134609Y3801110D01*
X5118861Y3796029D01*
X5108447Y3785615D01*
X5103368Y3770121D01*
G36*
X5041900Y11245850D02*
G01*
X5041900Y10229850D01*
X5067300Y10229850D01*
X5168900Y10255250D01*
X5295900Y10306050D01*
X5473700Y10483850D01*
X5524500Y10610850D01*
X5549900Y10712450D01*
X5524500Y10839450D01*
X5473700Y10991850D01*
X5372100Y11118850D01*
X5219700Y11195050D01*
G37*
G36*
X5016500Y7461250D02*
G01*
X5016500Y6445250D01*
X5041900Y6445250D01*
X5143500Y6470650D01*
X5270500Y6521450D01*
X5448300Y6699250D01*
X5499100Y6826250D01*
X5524500Y6927850D01*
X5499100Y7054850D01*
X5448300Y7207250D01*
X5346700Y7334250D01*
X5194300Y7410450D01*
G37*
G36*
X4991100Y3702050D02*
G01*
X4991100Y2686050D01*
X5016500Y2686050D01*
X5118100Y2711450D01*
X5245100Y2762250D01*
X5422900Y2940050D01*
X5473700Y3067050D01*
X5499100Y3168650D01*
X5473700Y3295650D01*
X5422900Y3448050D01*
X5321300Y3575050D01*
X5168900Y3651250D01*
G37*
D10*
X5356986Y8477250D02*
G01*
X5356986Y7791450D01*
X5056987Y7791450D01*
X5056987Y8477250D01*
X5356986Y8477250D01*
X5356986Y4718050D02*
G01*
X5356986Y4032250D01*
X5056987Y4032250D01*
X5056987Y4718050D01*
X5356986Y4718050D01*
X5318886Y996950D02*
G01*
X5318886Y311150D01*
X5018887Y311150D01*
X5018887Y996950D01*
X5318886Y996950D01*
X4151096Y11706148D02*
G01*
X4151096Y10306151D01*
X4151096Y10306151D02*
G01*
X3291103Y10306151D01*
X3291103Y10306151D02*
G01*
X3291103Y11706148D01*
X3291103Y11706148D02*
G01*
X3571087Y11906148D01*
X3571087Y11906148D02*
G01*
X3871086Y11906148D01*
X4151096Y11706148D02*
G01*
X3871086Y11906148D01*
X2349500Y10433050D02*
G01*
X2349500Y10369651D01*
X2095500Y10369651D01*
X2095500Y10433050D01*
X2095500Y8401050D02*
G01*
X2095500Y8464448D01*
X2349500Y8464448D01*
X2349500Y8401050D01*
X1778000Y9213850D02*
G01*
X1778000Y8401050D01*
X2667000Y8401050D01*
X2667000Y10433050D01*
X1778000Y10433050D01*
X1778000Y9620250D01*
X1854200Y9620250D01*
X1854200Y9213850D01*
X1778000Y9213850D01*
X2362200Y6661150D02*
G01*
X2362200Y6597751D01*
X2108200Y6597751D01*
X2108200Y6661150D01*
X2108200Y4629150D02*
G01*
X2108200Y4692548D01*
X2362200Y4692548D01*
X2362200Y4629150D01*
X1790700Y5441950D02*
G01*
X1790700Y4629150D01*
X2679700Y4629150D01*
X2679700Y6661150D01*
X1790700Y6661150D01*
X1790700Y5848350D01*
X1866900Y5848350D01*
X1866900Y5441950D01*
X1790700Y5441950D01*
X2374900Y2940050D02*
G01*
X2374900Y2876651D01*
X2120900Y2876651D01*
X2120900Y2940050D01*
X2120900Y908050D02*
G01*
X2120900Y971448D01*
X2374900Y971448D01*
X2374900Y908050D01*
X1803400Y1720850D02*
G01*
X1803400Y908050D01*
X2692400Y908050D01*
X2692400Y2940050D01*
X1803400Y2940050D01*
X1803400Y2127250D01*
X1879600Y2127250D01*
X1879600Y1720850D01*
X1803400Y1720850D01*
X3225800Y10052050D02*
G01*
X4749800Y10052050D01*
X4749800Y8020050D01*
X3225800Y8020050D01*
X3225800Y10052050D01*
X3225800Y6280150D02*
G01*
X4749800Y6280150D01*
X4749800Y4248150D01*
X3225800Y4248150D01*
X3225800Y6280150D01*
X3200400Y2559050D02*
G01*
X4724400Y2559050D01*
X4724400Y527050D01*
X3200400Y527050D01*
X3200400Y2559050D01*
X5575300Y7981950D02*
G01*
X5575300Y10521950D01*
X6159500Y10521950D01*
X6388100Y10293350D01*
X6388100Y8210550D01*
X6159500Y7981950D01*
X5575300Y7981950D01*
X5575300Y4095750D02*
G01*
X5575300Y6635750D01*
X6159500Y6635750D01*
X6388100Y6407150D01*
X6388100Y4324350D01*
X6159500Y4095750D01*
X5575300Y4095750D01*
X5600700Y488950D02*
G01*
X5600700Y3028950D01*
X6184900Y3028950D01*
X6413500Y2800350D01*
X6413500Y717550D01*
X6184900Y488950D01*
X5600700Y488950D01*
X5041900Y11220450D02*
G01*
X5041900Y10255250D01*
X4711700Y10941050D02*
G01*
X4813300Y10941050D01*
X4762500Y10991850D02*
G01*
X4762500Y10890250D01*
X5016500Y7435850D02*
G01*
X5016500Y6470650D01*
X4686300Y7156450D02*
G01*
X4787900Y7156450D01*
X4737100Y7207250D02*
G01*
X4737100Y7105650D01*
X4991100Y3676650D02*
G01*
X4991100Y2711450D01*
X4660900Y3397250D02*
G01*
X4762500Y3397250D01*
X4711700Y3448050D02*
G01*
X4711700Y3346450D01*
G75*
G01
X5541772Y10737850D02*
G03X5541772Y10737850I-499872J0D01*
G75*
G01
X5516372Y6953250D02*
G03X5516372Y6953250I-499872J0D01*
G75*
G01
X5490972Y3194050D02*
G03X5490972Y3194050I-499872J0D01*
M02*
